<?xml version="1.0" standalone="no"?>
<!DOCTYPE svg PUBLIC "-//W3C//DTD SVG 1.1//EN" "http://www.w3.org/Graphics/SVG/1.1/DTD/svg11.dtd" >
<svg xmlns="http://www.w3.org/2000/svg">
<metadata></metadata>
<defs>
<font id="merlo_neuehairline_italic" horiz-adv-x="1421" >
<font-face units-per-em="2048" ascent="1536" descent="-512" />
<missing-glyph horiz-adv-x="552" />
<glyph horiz-adv-x="0" />
<glyph horiz-adv-x="682" />
<glyph unicode=" "  horiz-adv-x="552" />
<glyph unicode="&#x09;" horiz-adv-x="552" />
<glyph unicode="&#xa0;" horiz-adv-x="552" />
<glyph unicode="!" horiz-adv-x="458" d="M207 322q-10 0 -11.5 8.5t1.5 31.5l149 1133q3 25 8 33t23 8h4q18 0 21.5 -8t0.5 -33l-170 -1133q-3 -23 -7.5 -31.5t-14.5 -8.5h-4zM162 -8q-19 0 -31 13t-12 32q0 23 17 40t40 17q20 0 32.5 -13t12.5 -32q0 -23 -17 -40t-42 -17z" />
<glyph unicode="&#x22;" horiz-adv-x="546" d="M326 1538q16 0 20 -10t-2 -29l-63 -303q-2 -11 -13 -10q-9 0 -8 10l23 303q1 14 3 21.5t8.5 12.5t18.5 5h13zM537 1538q16 0 20 -10t-2 -29l-63 -303q-2 -11 -13 -10q-9 0 -8 10l23 303q1 14 3 21.5t8.5 12.5t18.5 5h13z" />
<glyph unicode="#" horiz-adv-x="1599" d="M958 547h-319l-133 -508q-9 -39 -31 -39h-4q-11 0 -13 6.5t3 32.5l133 508h-444q-21 0 -21 18v4q0 19 25 19h448l88 336h-434q-18 0 -18 18v4q0 19 24 19h440l113 430q9 39 29 39h4q23 0 12 -39l-110 -430h317l113 430q9 39 28 39h4q24 0 13 -39l-111 -430h418 q20 0 20 -19v-4q0 -18 -26 -18h-426l-88 -336h411q21 0 21 -19v-4q0 -18 -25 -18h-415l-134 -508q-9 -39 -30 -39h-4q-11 0 -13.5 6.5t2.5 32.5zM647 588h320l88 336h-320z" />
<glyph unicode="$" horiz-adv-x="1030" d="M997 1454q14 -11 4 -29l-2 -4q-9 -18 -34 -2q-131 84 -275 84q-165 0 -269 -105t-104 -245q0 -73 32 -135t83 -107t112.5 -87t123 -85t112.5 -89.5t83 -111.5t32 -141q0 -154 -113.5 -274.5t-296.5 -132.5l-6 -45q-3 -23 -20 -23h-4q-20 0 -17 23l6 45q-117 1 -210 45.5 t-146 97.5q-18 17 0 35l2 2q16 16 33 -2q52 -52 140 -93.5t196 -41.5q88 0 163.5 31t124 82.5t76 116t27.5 132.5q0 72 -32 133t-83 105.5t-112.5 86.5t-123 84.5t-112.5 89t-83 112t-32 143.5q0 153 109 270t285 127l4 37q3 23 20 23h4q20 0 17 -23l-4 -37q76 -2 148.5 -25 t106.5 -45z" />
<glyph unicode="%" horiz-adv-x="1107" d="M444 1243q-56 0 -93.5 38.5t-37.5 94.5q0 69 52.5 119.5t121.5 50.5q56 0 93.5 -38.5t37.5 -94.5q0 -69 -52.5 -119.5t-121.5 -50.5zM170 0q-10 0 -13 2.5t-1 11t12 25.5l799 1458q14 27 20 33t21 6h4q12 0 12 -7t-12 -32l-799 -1458q-14 -25 -20.5 -32t-18.5 -7h-4z M451 1280q52 0 91.5 37.5t39.5 89.5q0 43 -28.5 72.5t-72.5 29.5q-52 0 -91.5 -37.5t-39.5 -89.5q0 -43 28.5 -72.5t72.5 -29.5zM705 -10q-57 0 -94.5 38.5t-37.5 94.5q0 69 53 119.5t122 50.5q56 0 93.5 -38.5t37.5 -94.5q0 -69 -52.5 -119.5t-121.5 -50.5zM711 27 q52 0 91.5 37.5t39.5 89.5q0 43 -28.5 72.5t-72.5 29.5q-52 0 -91.5 -37.5t-39.5 -89.5q0 -43 28.5 -72.5t72.5 -29.5z" />
<glyph unicode="&#x26;" horiz-adv-x="1142" d="M473 -10q-151 0 -249.5 102t-98.5 266q0 81 23 152t57 119t79.5 87t83 60.5t76.5 36.5q-68 30 -124 119t-56 203q0 178 122 294.5t294 116.5q84 0 158 -35.5t127 -99.5q6 -8 6.5 -17t-6.5 -14l-7 -4q-15 -9 -26 4q-109 125 -260 125q-150 0 -256.5 -103.5t-106.5 -262.5 q0 -124 68.5 -214.5t179.5 -90.5q18 0 18 -19v-4q0 -18 -24 -18q-149 0 -265 -123.5t-116 -309.5q0 -146 87 -237.5t220 -91.5q95 0 180.5 45t144 127.5t72.5 185.5l35 250q3 20 23 20h176q18 0 18 -18v-4q0 -9 -7 -14t-17 -5h-152l-30 -225q-25 -175 -153 -289t-294 -114z " />
<glyph unicode="'" horiz-adv-x="335" d="M260 1196l23 303q1 14 3 21.5t8.5 12.5t18.5 5h13q16 0 20 -10t-2 -29l-63 -303q-2 -11 -13 -10q-9 0 -8 10z" />
<glyph unicode="(" horiz-adv-x="610" d="M229 92q-19 -132 22 -187t138 -55q12 0 16 -2t3 -12l-2 -14q-2 -12 -23 -12q-116 0 -168 65.5t-31 212.5l176 1249q21 147 91.5 213t185.5 66q13 0 17.5 -4t2.5 -13l-2 -10q-3 -14 -24 -14q-97 0 -153 -54.5t-75 -187.5z" />
<glyph unicode=")" horiz-adv-x="612" d="M45 -190q-11 0 -17 3.5t-5 10.5l2 12q2 14 26 14q97 0 151 54.5t74 187.5l175 1241q19 132 -21 187t-137 55q-24 0 -21 14l2 15q1 8 5.5 10t19.5 2q239 0 199 -279l-176 -1249q-21 -147 -91.5 -212.5t-185.5 -65.5z" />
<glyph unicode="*" horiz-adv-x="561" d="M645 1513q3 -15 -20 -22l-179 -55l86 -146q10 -17 -6 -24l-8 -4q-13 -6 -22 6l-84 143l-125 -143q-7 -7 -16 -9t-13 3l-6 6q-8 8 2 22l127 146l-162 55q-16 6 -10 25l2 6q7 15 27 8l161 -55l25 178q3 22 20 22h7q17 0 14 -22l-25 -178l178 55q21 6 25 -8z" />
<glyph unicode="+" horiz-adv-x="788" d="M688 778q10 0 15 -3t4 -11l-2 -12q-3 -11 -23 -11h-236l-32 -233q-4 -21 -21 -21h-4q-15 0 -12 21l33 233h-228q-10 0 -14.5 3.5t-3.5 11.5l2 12q2 10 22 10h226l32 234q3 20 21 20h4q15 0 12 -20l-32 -234h237z" />
<glyph unicode="," horiz-adv-x="387" d="M78 37q0 27 18 42t41 15q25 0 38 -17.5t13 -45.5q0 -44 -30 -103.5t-74 -103.5q-14 -14 -21 -10l-6 4q-6 4 6 20q66 87 66 125q0 22 -20 31q-31 12 -31 43z" />
<glyph unicode="-" horiz-adv-x="749" d="M156 547q-11 0 -16.5 2.5t-4.5 9.5l2 12q3 13 23 13h463q10 0 14.5 -3t3.5 -10l-2 -12q-2 -12 -21 -12h-462z" />
<glyph unicode="." horiz-adv-x="376" d="M78 37q0 23 17 40t40 17q20 0 32.5 -13t12.5 -32q0 -23 -17 -40t-42 -17q-19 0 -31 13t-12 32z" />
<glyph unicode="/" horiz-adv-x="481" d="M86 0q-13 0 -14.5 6.5t4.5 32.5l368 1458q6 26 11 32.5t20 6.5h4q12 0 14 -7t-4 -32l-368 -1458q-6 -24 -12.5 -31.5t-18.5 -7.5h-4z" />
<glyph unicode="0" horiz-adv-x="1193" d="M537 -8q-184 0 -287 155.5t-103 432.5q0 281 75.5 501.5t211 342.5t307.5 122q185 0 288.5 -158.5t103.5 -439.5q0 -212 -44 -390.5t-122.5 -302.5t-189 -193.5t-240.5 -69.5zM543 33q157 0 281 114.5t193.5 323t69.5 475.5q0 263 -92.5 411t-259.5 148 q-156 0 -279.5 -115.5t-193 -325.5t-69.5 -478q0 -258 93 -405.5t257 -147.5z" />
<glyph unicode="1" horiz-adv-x="624" d="M350 0q-21 0 -18 20l205 1455l-326 -289q-22 -19 -35 -6l-4 4q-13 13 12 35l338 299q17 13 22.5 15.5t18.5 2.5h4q14 0 18 -5t3 -18l-211 -1493q-3 -20 -23 -20h-4z" />
<glyph unicode="2" horiz-adv-x="931" d="M94 0q-13 0 -17.5 4.5t-2.5 18.5l35 235q13 86 56 167t103 145.5t130 127t140 121.5t130 117.5t103 127.5t56 140q24 130 -42 215.5t-197 85.5q-74 0 -134.5 -30.5t-136.5 -94.5q-20 -17 -30 -4l-4 6q-6 13 10 29q76 70 148.5 102.5t154.5 32.5q151 0 226 -96.5 t50 -245.5q-11 -68 -46.5 -133.5t-84.5 -119.5t-110 -111t-122 -106.5t-121.5 -107t-109 -113t-82.5 -124t-44 -139.5l-29 -209h594q9 0 14 -4.5t4 -11.5l-2 -13q-2 -12 -22 -12h-617z" />
<glyph unicode="3" horiz-adv-x="978" d="M393 -10q-102 0 -193.5 44.5t-144.5 108.5q-13 16 0 29l6 6q13 13 27 -4q49 -56 129 -99.5t176 -43.5q108 0 202.5 54.5t154 156t59.5 227.5q0 144 -79.5 234t-197.5 90q-10 0 -14.5 3t-3.5 11l2 14q3 13 23 13q92 0 173 58t127 148.5t46 186.5q0 126 -77.5 202 t-205.5 76q-158 0 -283 -125q-12 -12 -24 0l-6 6q-9 10 6 25q132 135 309 135q148 0 237 -86t89 -229q0 -77 -28.5 -150t-72.5 -125.5t-91 -89t-91 -53.5q34 -15 66.5 -40t66 -65t54 -101t20.5 -134q0 -104 -39 -195.5t-103 -153.5t-147.5 -98t-171.5 -36z" />
<glyph unicode="4" horiz-adv-x="915" d="M629 0q-20 0 -17 23l64 450h-610q-13 0 -18 4t-3 12l2 15q2 14 25 43l741 966q19 23 33 23h6q17 0 14 -23l-141 -999h94q9 0 14.5 -2.5t4.5 -9.5l-2 -17q-2 -12 -23 -12h-92l-64 -450q-3 -23 -24 -23h-4zM98 514h582l133 936z" />
<glyph unicode="5" horiz-adv-x="964" d="M494 932q169 0 263.5 -100.5t94.5 -282.5q0 -255 -125 -407t-338 -152q-187 0 -295 135q-11 14 4 29l2 2q15 15 27 -4q38 -57 106.5 -89t159.5 -32q188 0 300 138.5t112 375.5q0 166 -84.5 256t-235.5 90h-223q-13 0 -16.5 4t-1.5 18l84 600q2 14 6.5 18.5t17.5 4.5h533 q12 0 16.5 -3t3.5 -11l-2 -15q-1 -8 -5.5 -10t-16.5 -2h-510l-80 -563h203z" />
<glyph unicode="6" horiz-adv-x="1093" d="M539 -10q-171 0 -274 141.5t-103 374.5q0 300 74.5 536.5t212 370t315.5 133.5q190 0 291 -135q9 -11 -2 -22l-11 -9q-11 -11 -20 2q-81 123 -268 123q-100 0 -195.5 -64.5t-169 -175t-120.5 -267.5t-54 -332q73 126 186.5 201t237.5 75q154 0 248 -110t94 -291 q0 -245 -125 -398t-317 -153zM545 31q105 0 194.5 61.5t145 177.5t55.5 262q0 166 -84.5 267.5t-222.5 101.5q-122 0 -237 -88t-189 -235q-14 -246 79 -396.5t259 -150.5z" />
<glyph unicode="7" horiz-adv-x="780" d="M844 1495h-615q-11 0 -16 4.5t-4 13.5v5q3 18 24 18h633q14 0 18 -4t3 -16l-2 -13q-5 -25 -13 -41l-702 -1423q-12 -25 -19 -32t-20 -7h-6q-7 0 -10 1t-3 5.5t3 11.5t10 21z" />
<glyph unicode="8" horiz-adv-x="1079" d="M473 -10q-162 0 -261 108.5t-99 263.5q0 164 95 287t251 168q-90 35 -138.5 121t-48.5 188q0 76 29 150.5t81 135t133 97.5t177 37q151 0 233.5 -95.5t82.5 -231.5q0 -127 -79.5 -242t-207.5 -160q109 -35 171 -126.5t62 -217.5t-62 -236.5t-173.5 -178.5t-245.5 -68z M594 840q88 0 160.5 35t116.5 90.5t68 119.5t24 127q0 55 -16.5 105t-49 92t-87 67t-124.5 25q-87 0 -159 -34t-116.5 -88.5t-69 -119t-24.5 -129.5q0 -54 16 -104t48 -92.5t87 -68t126 -25.5zM479 35q122 0 222 62.5t154 161t54 208.5q0 142 -85.5 235t-235.5 93 q-190 0 -309 -125.5t-119 -300.5q0 -136 86.5 -235t232.5 -99z" />
<glyph unicode="9" horiz-adv-x="1087" d="M410 -10q-190 0 -291 135q-9 11 2 22l10 9q5 4 11.5 3.5t9.5 -5.5q81 -123 268 -123q134 0 254 109t197.5 303t86.5 427q-73 -126 -186 -201t-237 -75q-154 0 -248 110t-94 291q0 245 125 398t317 153q171 0 274 -141.5t103 -374.5q0 -300 -74.5 -536.5t-212 -370 t-315.5 -133.5zM541 635q122 0 237 88t189 235q14 246 -79 396.5t-259 150.5q-78 0 -150 -36.5t-126.5 -100.5t-87 -159t-32.5 -205q0 -166 85 -267.5t223 -101.5z" />
<glyph unicode=":" horiz-adv-x="368" d="M190 874q0 23 18.5 40.5t41.5 17.5q20 0 32.5 -13t12.5 -32q0 -23 -18 -40.5t-41 -17.5q-20 0 -33 13t-13 32zM74 37q0 23 17 40t40 17q20 0 32.5 -13t12.5 -32q0 -23 -17 -40t-42 -17q-19 0 -31 13t-12 32z" />
<glyph unicode=";" horiz-adv-x="401" d="M219 874q0 23 18.5 40.5t41.5 17.5q20 0 32.5 -13t12.5 -32q0 -23 -18.5 -40.5t-41.5 -17.5q-20 0 -32.5 13t-12.5 32zM78 37q0 27 18 42t41 15q25 0 38 -17.5t13 -45.5q0 -44 -30 -103.5t-74 -103.5q-14 -14 -21 -10l-6 4q-6 4 6 20q66 87 66 125q0 22 -20 31 q-31 12 -31 43z" />
<glyph unicode="&#x3c;" horiz-adv-x="608" d="M172 735q-19 23 6 45l361 305q13 9 20 2l8 -8q8 -8 -4 -20l-348 -301l258 -289q16 -19 6 -29l-12 -10q-12 -9 -27 6z" />
<glyph unicode="=" horiz-adv-x="788" d="M199 864q-10 0 -15 3.5t-4 11.5l2 12q2 10 23 10h500q10 0 14.5 -3t3.5 -11l-2 -13q-3 -10 -23 -10h-499zM166 618q-10 0 -15 3.5t-4 11.5l3 12q2 10 22 10h500q10 0 14.5 -3t3.5 -11l-2 -12q-3 -11 -22 -11h-500z" />
<glyph unicode="&#x3e;" horiz-adv-x="608" d="M512 735l-352 -299q-19 -16 -29 -6l-8 10q-7 11 14 29l338 289l-262 301q-9 11 0 20l12 8q9 9 19 -2l274 -305q19 -23 -6 -45z" />
<glyph unicode="?" horiz-adv-x="823" d="M340 356q-16 0 -16 15q0 115 20.5 205.5t54 149t75 105.5t85 85t81.5 75.5t67.5 90.5t40.5 118q24 131 -41 217t-193 86q-45 0 -85 -10t-75 -31t-57.5 -38t-56.5 -46q-11 -10 -17.5 -10.5t-11.5 6.5l-4 4q-11 12 8 31q138 135 303 135q141 0 221.5 -94t57.5 -244 q-11 -72 -40.5 -129.5t-67.5 -97t-82.5 -78.5t-86 -84t-75.5 -101t-55 -143t-21 -198q0 -19 -21 -19h-8zM293 -8q-19 0 -31 13t-12 32q0 23 17 40t40 17q20 0 32.5 -13t12.5 -32q0 -23 -17 -40t-42 -17z" />
<glyph unicode="@" horiz-adv-x="2025" d="M1147 1434q242 0 426 -102t282.5 -283.5t98.5 -415.5q0 -220 -69 -406.5t-192 -296.5t-272 -110q-46 0 -86 12.5t-72.5 38t-48 69t-8.5 99.5v2l11 65q-143 -116 -287 -116q-149 0 -232.5 101t-83.5 282q0 260 121.5 414.5t323.5 154.5q83 0 142.5 -29t115.5 -88l12 86 q3 21 21 21h4q20 0 16 -21l-121 -856q-8 -58 6 -99t44 -60t60.5 -27t65.5 -8q137 0 250 105t175.5 280t62.5 381q0 224 -94.5 398t-270 271t-405.5 97q-282 0 -515.5 -129.5t-369 -360t-135.5 -514.5q0 -224 94 -398t269.5 -271t406.5 -97h4q21 0 21 -18v-4q0 -7 -8 -13 t-19 -6h-4q-241 0 -424.5 102t-282 283.5t-98.5 415.5q0 222 83 418t225 334.5t339 218.5t418 80zM936 29q155 0 287 125l88 626q-99 123 -252 123q-182 0 -293 -143t-111 -381q0 -165 74 -257.5t207 -92.5z" />
<glyph unicode="A" horiz-adv-x="1155" d="M31 0q-20 0 -8 27l669 1486q10 23 31 23h4q24 0 27 -23l254 -1490q5 -23 -17 -23h-4q-10 0 -14.5 4.5t-7.5 18.5l-70 415h-641l-188 -415q-10 -23 -29 -23h-6zM272 479h615l-168 996z" />
<glyph unicode="B" horiz-adv-x="1120" d="M139 0q-21 0 -18 20l211 1496q3 20 22 20h351q174 0 262 -85t88 -234q0 -138 -75 -247.5t-216 -150.5q229 -65 229 -346q0 -224 -125 -348.5t-370 -124.5h-359zM281 838h348q93 0 167.5 32.5t120 86.5t69.5 120t24 137q0 129 -77.5 205t-227.5 76h-330zM170 41h338 q217 0 328.5 113.5t111.5 312.5q0 330 -323 330h-349z" />
<glyph unicode="C" horiz-adv-x="1128" d="M635 -10q-224 0 -353.5 171t-129.5 482q0 199 53.5 369.5t144.5 286.5t213.5 181.5t259.5 65.5q210 0 365 -155q14 -13 2 -25l-4 -4q-12 -12 -25 0q-143 143 -342 143q-125 0 -238.5 -63t-198.5 -173.5t-135 -272t-50 -347.5q0 -292 119 -455t321 -163q197 0 358 145 q12 9 21 -2l4 -6q6 -9 -6 -21q-74 -74 -172.5 -115.5t-206.5 -41.5z" />
<glyph unicode="D" horiz-adv-x="1292" d="M139 0q-21 0 -18 20l211 1496q3 20 22 20h371q240 0 377 -164t137 -473q0 -256 -97 -462.5t-263.5 -321.5t-368.5 -115h-371zM170 41h338q141 0 267.5 63.5t218.5 175t146 271t54 342.5q0 294 -128.5 448t-352.5 154h-338z" />
<glyph unicode="E" horiz-adv-x="1079" d="M139 0q-21 0 -18 20l211 1496q3 20 22 20h709q22 0 18 -18l-2 -11q-3 -12 -20 -12h-684l-94 -657h581q9 0 14.5 -6t4.5 -13l-2 -10q-3 -12 -21 -12h-582l-106 -756h684q22 0 18 -18l-2 -11q-3 -12 -20 -12h-711z" />
<glyph unicode="F" horiz-adv-x="954" d="M139 0q-21 0 -18 20l211 1496q3 20 22 20h647q10 0 15.5 -5t3.5 -13l-2 -11q-3 -12 -21 -12h-622l-94 -657h520q10 0 15 -5.5t3 -13.5l-2 -10q-3 -12 -20 -12h-523l-108 -777q-3 -20 -23 -20h-4z" />
<glyph unicode="G" horiz-adv-x="1284" d="M152 643q0 199 53.5 369.5t144.5 286.5t213.5 181.5t259.5 65.5q210 0 365 -155q14 -13 2 -25l-4 -4q-12 -12 -25 0q-143 143 -342 143q-125 0 -238.5 -63t-198.5 -173.5t-135 -272t-50 -347.5q0 -295 117.5 -456.5t330.5 -161.5q176 0 303.5 97.5t149.5 250.5l49 362 h-336q-10 0 -14.5 4t-3.5 13l2 10q2 14 22 14h361q19 0 16 -20l-53 -387q-23 -169 -165 -277t-333 -108q-234 0 -362.5 169.5t-128.5 483.5z" />
<glyph unicode="H" horiz-adv-x="1306" d="M139 0q-21 0 -18 20l211 1496q3 20 22 20h4q9 0 14.5 -5.5t4.5 -14.5l-96 -678h847l97 678q3 20 22 20h4q9 0 14.5 -5.5t4.5 -14.5l-211 -1496q-3 -20 -23 -20h-4q-21 0 -18 20l108 777h-848l-108 -777q-3 -20 -23 -20h-4z" />
<glyph unicode="I" horiz-adv-x="413" d="M139 0q-21 0 -18 20l211 1496q3 20 22 20h4q9 0 14.5 -5.5t4.5 -14.5l-211 -1496q-3 -20 -23 -20h-4z" />
<glyph unicode="J" horiz-adv-x="862" d="M301 -10q-77 0 -143.5 30.5t-108.5 83.5q-12 15 2 29l4 4q14 14 31 -6q87 -100 215 -100q117 0 210 78t114 221l166 1186q3 20 22 20h4q9 0 14.5 -5.5t4.5 -14.5l-166 -1180q-23 -160 -127 -253t-242 -93z" />
<glyph unicode="K" horiz-adv-x="1081" d="M139 0q-21 0 -18 20l211 1496q3 20 22 20h4q9 0 14.5 -5.5t4.5 -14.5l-121 -863l801 860q15 15 21.5 19t17.5 4h14q8 0 11 -3.5t1.5 -9t-6.5 -10.5l-637 -690l475 -800q5 -8 0 -15.5t-18 -7.5h-4q-12 0 -17.5 4.5t-13.5 18.5l-459 763l-196 -204l-80 -562q-3 -20 -23 -20 h-4z" />
<glyph unicode="L" horiz-adv-x="878" d="M139 0q-21 0 -18 20l211 1496q3 20 22 20h4q9 0 14.5 -5.5t4.5 -14.5l-207 -1475h524q10 0 15.5 -5t3.5 -13l-2 -11q-3 -12 -21 -12h-551z" />
<glyph unicode="M" horiz-adv-x="1576" d="M86 0q-20 0 -14 23l346 1490q5 23 24 23h7q17 0 22 -23l258 -1458l672 1458q10 23 26 23h7q20 0 20 -23l-74 -1490q0 -23 -20 -23h-6q-17 0 -17 23l72 1423l-653 -1423q-12 -23 -29 -23h-8q-20 0 -23 23l-254 1423l-327 -1423q-6 -23 -23 -23h-6z" />
<glyph unicode="N" horiz-adv-x="1320" d="M137 0q-19 0 -16 20l211 1496q3 20 22 20h2q16 0 25 -18l661 -1432l201 1430q3 20 21 20h4q19 0 16 -20l-211 -1496q-3 -20 -22 -20h-4q-14 0 -23 18l-659 1442l-203 -1440q-3 -20 -21 -20h-4z" />
<glyph unicode="O" d="M844 1546q245 0 378.5 -172.5t133.5 -486.5q0 -255 -86.5 -459.5t-245 -321t-360.5 -116.5q-245 0 -378.5 171.5t-133.5 487.5q0 255 85.5 458.5t244 321t362.5 117.5zM670 31q144 0 264.5 66t202 180.5t127 271t45.5 336.5q0 296 -121.5 458t-349.5 162 q-190 0 -337.5 -113t-225.5 -306.5t-78 -434.5q0 -297 122.5 -458.5t350.5 -161.5z" />
<glyph unicode="P" horiz-adv-x="1097" d="M139 0q-21 0 -18 20l211 1496q3 20 22 20h303q208 0 311 -105t103 -284q0 -103 -33 -192.5t-97.5 -160t-169.5 -111t-239 -40.5h-278l-88 -623q-3 -20 -23 -20h-4zM260 684h279q120 0 215 37.5t152.5 102t87.5 145.5t30 172q0 161 -92 257.5t-279 96.5h-278z" />
<glyph unicode="Q" d="M952 61l189 -407q11 -23 -13 -23h-8q-9 0 -13 1t-8 5.5t-9 16.5l-179 387q-117 -51 -247 -51q-245 0 -378.5 171.5t-133.5 487.5q0 255 85.5 458.5t244 321t362.5 117.5q245 0 378.5 -172.5t133.5 -486.5q0 -284 -108.5 -505t-295.5 -321zM197 651q0 -297 122.5 -458.5 t350.5 -161.5q144 0 264.5 66t202 180.5t127 271t45.5 336.5q0 296 -121.5 458t-349.5 162q-190 0 -337.5 -113t-225.5 -306.5t-78 -434.5z" />
<glyph unicode="R" horiz-adv-x="1142" d="M139 0q-21 0 -18 20l211 1496q3 20 22 20h344q209 0 309.5 -95.5t100.5 -262.5q0 -85 -26.5 -162.5t-78.5 -143t-136.5 -110t-192.5 -57.5l276 -682q4 -11 -2 -17t-16 -6h-4q-20 0 -29 23l-274 677h-363l-96 -680q-3 -20 -23 -20h-4zM268 741h324q115 0 206.5 35.5 t147.5 96t85.5 137t29.5 161.5q0 152 -90 238t-273 86h-323z" />
<glyph unicode="S" horiz-adv-x="1030" d="M453 -10q-120 0 -216 45t-149 98q-18 17 0 35l2 2q16 16 33 -2q52 -52 140 -93.5t196 -41.5q88 0 163.5 31t124 82.5t76 116t27.5 132.5q0 72 -32 133t-83 105.5t-112.5 86.5t-123 84.5t-112.5 89t-83 112t-32 143.5q0 103 50 192.5t148.5 147t223.5 57.5q50 0 99.5 -9.5 t84.5 -23t63 -27t42 -22.5l14 -10q14 -11 4 -29l-2 -4q-9 -18 -34 -2q-131 84 -275 84q-165 0 -269 -105t-104 -245q0 -73 32 -135t83 -107t112.5 -87t123 -85t112.5 -89.5t83 -111.5t32 -141q0 -77 -31 -149.5t-86.5 -130t-140.5 -92.5t-184 -35z" />
<glyph unicode="T" horiz-adv-x="1040" d="M453 0q-9 0 -14.5 5.5t-4.5 14.5l207 1475h-424q-22 0 -18 18l2 11q3 12 20 12h897q10 0 15.5 -5t3.5 -13l-2 -11q-3 -12 -21 -12h-428l-207 -1475q-3 -20 -22 -20h-4z" />
<glyph unicode="U" horiz-adv-x="1277" d="M571 -10q-220 0 -328 139.5t-73 386.5l141 1000q3 20 23 20h4q21 0 18 -20l-141 -1008q-32 -224 66.5 -351.5t296.5 -127.5t331.5 127.5t165.5 351.5l142 1008q3 20 22 20h4q9 0 14.5 -5.5t4.5 -14.5l-142 -1000q-35 -247 -182 -386.5t-367 -139.5z" />
<glyph unicode="V" horiz-adv-x="1077" d="M471 0q-11 0 -15 4.5t-7 18.5l-254 1490q-3 13 1.5 18t18.5 5h2q20 0 25 -23l239 -1450l649 1450q10 23 29 23h2q14 0 18 -5t-1 -18l-672 -1490q-10 -23 -31 -23h-4z" />
<glyph unicode="W" horiz-adv-x="1716" d="M215 1513q-3 23 18 23h7q19 0 22 -23l160 -1452l551 1452q10 23 31 23h8q23 0 26 -23l142 -1452l569 1452q8 23 27 23h6q11 0 14.5 -6t-0.5 -17l-594 -1490q-10 -23 -28 -23h-5q-19 0 -22 23l-148 1450l-555 -1450q-10 -23 -28 -23h-4q-20 0 -23 23z" />
<glyph unicode="X" horiz-adv-x="948" d="M-4 0q-8 0 -11.5 6t1.5 17l508 765l-277 725q-8 23 19 23h4q18 0 26 -23l258 -686l451 686q14 23 33 23h6q23 0 10 -23l-481 -725l295 -765q5 -12 -1 -17.5t-16 -5.5h-6q-19 0 -27 23l-274 729l-479 -729q-15 -23 -31 -23h-8z" />
<glyph unicode="Y" horiz-adv-x="985" d="M1034 1513q15 23 33 23h4q13 0 16 -7t-4 -16l-536 -808l-96 -685q-3 -20 -23 -20h-4q-21 0 -18 20l96 685l-307 808q-8 23 16 23h4q21 0 29 -23l282 -772z" />
<glyph unicode="Z" horiz-adv-x="987" d="M59 0q-9 0 -14 5t-4 13l2 13q4 21 16 39l924 1425h-700q-10 0 -16 4t-5 12l2 11q2 14 23 14h723q11 0 16 -4.5t4 -13.5l-2 -11q-6 -22 -16 -39l-924 -1427h688q11 0 16.5 -3.5t4.5 -10.5l-2 -13q-3 -14 -23 -14h-713z" />
<glyph unicode="[" horiz-adv-x="704" d="M137 -408q-13 0 -16.5 4.5t-1.5 18.5l280 1997q1 13 6 17.5t19 4.5h307q11 0 16.5 -3.5t4.5 -12.5l-2 -10q-2 -15 -25 -15h-285l-274 -1960h285q10 0 16 -5t4 -13l-2 -10q-3 -13 -25 -13h-307z" />
<glyph unicode="\" horiz-adv-x="673" d="M463 0q-12 0 -17 7.5t-8 31.5l-164 1458q-3 24 0 31.5t15 7.5h4q15 0 19 -6t7 -33l164 -1458q3 -26 0.5 -32.5t-16.5 -6.5h-4z" />
<glyph unicode="]" horiz-adv-x="704" d="M14 -408q-10 0 -16 4.5t-4 12.5l2 12q2 12 24 12h285l275 1960h-285q-11 0 -16.5 3.5t-4.5 11.5l2 12q2 14 25 14h307q14 0 18 -4.5t3 -17.5l-281 -1997q-1 -13 -6.5 -18t-19.5 -5h-308z" />
<glyph unicode="^" horiz-adv-x="823" d="M557 1499l-266 -242q-29 -26 -43 -12l-8 8q-14 14 18 41l293 246q13 13 22 0l224 -246q14 -16 15.5 -23t-9.5 -18l-4 -4q-16 -14 -23.5 -12t-21.5 20z" />
<glyph unicode="_" horiz-adv-x="1124" d="M37 -16q0 16 22 16h875q18 0 18 -16v-4q0 -7 -7.5 -12t-16.5 -5h-875q-16 0 -16 17v4z" />
<glyph unicode="`" horiz-adv-x="356" d="M463 1561l-191 174q-15 13 -16 21t8 18l8 10q6 10 15.5 9t25.5 -17l179 -189q17 -17 6 -28l-6 -7q-10 -10 -29 9z" />
<glyph unicode="a" horiz-adv-x="847" d="M786 932q18 0 15 -21l-125 -891q-3 -20 -21 -20h-6q-17 0 -14 20l10 76q-139 -106 -270 -106q-130 0 -208.5 102t-78.5 281q0 258 116.5 413.5t299.5 155.5q141 0 246 -111l12 80q4 21 18 21h6zM653 147l90 635q-100 121 -239 121q-162 0 -268.5 -144t-106.5 -380 q0 -162 69 -256t183 -94q144 0 272 118z" />
<glyph unicode="b" horiz-adv-x="919" d="M539 942q138 0 216.5 -94.5t78.5 -282.5q0 -249 -120.5 -412t-295.5 -163q-79 0 -146.5 31.5t-99.5 82.5l6 41l-18 -125q-3 -20 -21 -20h-4q-19 0 -16 20l211 1496q3 20 20 20h4q20 0 17 -20l-97 -685q111 111 265 111zM420 29q104 0 189.5 68.5t134.5 190t49 269.5 q0 173 -68 259.5t-188 86.5q-77 0 -149.5 -33.5t-121.5 -93.5l-88 -624q28 -53 96.5 -88t145.5 -35z" />
<glyph unicode="c" horiz-adv-x="839" d="M770 860q13 -8 8 -18l-6 -11q-6 -12 -20 -2q-98 74 -226 74q-163 0 -278 -132.5t-115 -346.5q0 -180 84 -287.5t229 -107.5q128 0 244 77q13 8 19 -4l4 -8q5 -10 -6 -18q-132 -86 -267 -86q-161 0 -254.5 117.5t-93.5 312.5q0 118 35.5 217.5t95 165.5t137.5 102.5 t164 36.5q132 0 246 -82z" />
<glyph unicode="d" horiz-adv-x="882" d="M870 1536q20 0 17 -20l-211 -1496q-3 -20 -21 -20h-4q-19 0 -16 20l10 76q-139 -106 -270 -106q-130 0 -208.5 102t-78.5 281q0 258 116.5 413.5t299.5 155.5q138 0 246 -111l96 685q3 20 20 20h4zM653 147l90 637q-101 119 -239 119q-162 0 -268.5 -144t-106.5 -380 q0 -162 69 -256t183 -94q144 0 272 118z" />
<glyph unicode="e" horiz-adv-x="886" d="M92 420q0 117 35.5 217.5t93.5 166t132 102t151 36.5q66 0 123.5 -27t101.5 -78.5t64 -136.5t8 -192q-4 -39 -10 -49t-21 -10h-637q-6 -183 78.5 -301.5t234.5 -118.5q130 0 246 77q13 8 19 -4l4 -8q5 -10 -6 -18q-123 -86 -265 -86q-164 0 -258 117.5t-94 312.5z M135 485h621q28 193 -47 305.5t-211 112.5q-134 0 -236 -117t-127 -301z" />
<glyph unicode="f" horiz-adv-x="561" d="M713 1462q12 -16 2 -24l-8 -6q-12 -10 -25 6q-59 69 -133 69q-73 0 -129.5 -51.5t-69.5 -142.5l-53 -381h233q10 0 15 -3t4 -11l-2 -13q-3 -10 -23 -10h-233l-123 -875q-3 -20 -21 -20h-4q-19 0 -16 20l123 875h-127q-10 0 -15 3t-4 11l2 13q2 10 23 10h127l53 383 q15 106 84 168.5t158 62.5q100 0 162 -84z" />
<glyph unicode="g" horiz-adv-x="886" d="M786 932q18 0 15 -21l-158 -1153q-15 -115 -107.5 -192.5t-224.5 -77.5q-139 0 -223 84q-14 14 0 27l2 2q12 13 29 -4q73 -70 190 -70q120 0 199.5 67t93.5 166l47 338q-141 -108 -274 -108q-130 0 -208.5 102t-78.5 281q0 258 116.5 413.5t299.5 155.5q140 0 248 -111 l10 80q4 21 18 21h6zM381 29q72 0 144 33t130 88l90 638l-2 -6q-100 121 -239 121q-162 0 -268.5 -144t-106.5 -380q0 -162 69 -256t183 -94z" />
<glyph unicode="h" horiz-adv-x="909" d="M567 942q127 0 202 -85.5t52 -246.5l-84 -590q-3 -20 -20 -20h-4q-20 0 -17 20l82 584q21 146 -41.5 222.5t-175.5 76.5q-80 0 -150.5 -35.5t-144.5 -97.5l-106 -750q-3 -20 -21 -20h-4q-19 0 -16 20l211 1496q3 20 20 20h4q20 0 17 -20l-99 -693q152 119 295 119z" />
<glyph unicode="i" horiz-adv-x="417" d="M305 1145q-18 0 -30.5 12.5t-12.5 30.5q0 23 16.5 39t38.5 16q18 0 30.5 -12.5t12.5 -30.5q0 -23 -16.5 -39t-38.5 -16zM141 0q-17 0 -14 20l127 891q4 21 18 21h7q17 0 14 -21l-125 -891q-3 -20 -21 -20h-6z" />
<glyph unicode="j" horiz-adv-x="421" d="M309 1145q-18 0 -30.5 12.5t-12.5 30.5q0 23 17 39t39 16q18 0 30.5 -12.5t12.5 -30.5q0 -23 -17 -39t-39 -16zM-113 -512q-102 0 -161 84q-14 17 0 27l6 4q12 9 24 -6q60 -70 131 -70q73 0 130.5 51.5t70.5 142.5l168 1190q4 21 20 21h5q19 0 16 -21l-168 -1192 q-15 -106 -84 -168.5t-158 -62.5z" />
<glyph unicode="k" horiz-adv-x="817" d="M762 932q11 0 12.5 -7t-8.5 -18l-348 -346l268 -536q6 -13 1.5 -19t-15.5 -6h-4q-7 0 -10 1t-7 6t-10 16l-256 509l-176 -163l-49 -349q-3 -20 -21 -20h-4q-19 0 -16 20l211 1496q3 20 20 20h4q20 0 17 -20l-154 -1094l500 487q26 23 41 23h4z" />
<glyph unicode="l" horiz-adv-x="559" d="M387 0q-135 0 -201 74t-47 205l174 1237q3 20 21 20h4q19 0 16 -20l-174 -1235q-17 -114 39 -178t172 -64h4q10 0 15 -3t4 -11l-2 -13q-2 -12 -21 -12h-4z" />
<glyph unicode="m" d="M1069 942q129 0 208 -86t56 -246l-84 -590q-3 -20 -20 -20h-4q-20 0 -17 20l82 584q21 142 -46 220.5t-183 78.5q-82 0 -144.5 -36t-138.5 -107q16 -65 4 -150l-84 -590q-3 -20 -20 -20h-4q-20 0 -17 20l82 584q19 142 -43.5 220.5t-173.5 78.5q-51 0 -102 -19t-83 -40.5 t-81 -59.5l-106 -764q-3 -20 -21 -20h-6q-17 0 -14 20l127 891q4 21 18 21h6q18 0 14 -21l-10 -73q64 49 126 76.5t138 27.5q80 0 143 -36t93 -107q148 143 305 143z" />
<glyph unicode="n" horiz-adv-x="897" d="M555 946q127 0 202 -85.5t52 -246.5l-84 -589q-3 -21 -20 -21h-5q-20 0 -16 21l82 583q21 146 -41.5 222.5t-175.5 76.5q-79 0 -148 -35t-145 -96l-106 -756q-3 -20 -21 -20h-6q-17 0 -14 20l127 891q4 21 18 21h6q18 0 14 -21l-12 -84q147 119 293 119z" />
<glyph unicode="o" horiz-adv-x="952" d="M414 -10q-151 0 -237.5 105.5t-86.5 295.5q0 124 36.5 229t98.5 174.5t144.5 108.5t173.5 39q150 0 235.5 -104t85.5 -295q0 -124 -36.5 -228.5t-98 -175t-143 -110t-172.5 -39.5zM420 29q80 0 153 36.5t128.5 101t88.5 161t33 209.5q0 175 -77 270.5t-209 95.5 q-167 0 -285.5 -140.5t-118.5 -365.5q0 -175 77 -271.5t210 -96.5z" />
<glyph unicode="p" horiz-adv-x="909" d="M528 942q138 0 216.5 -94.5t78.5 -282.5q0 -249 -120 -412t-295 -163q-79 0 -146.5 31.5t-99.5 82.5l-84 -596q-3 -20 -21 -20h-4q-19 0 -16 20l199 1403q4 21 20 21h4q20 0 16 -21l-10 -77q108 108 262 108zM410 29q158 0 265 151.5t107 376.5q0 173 -68 259.5 t-188 86.5q-76 0 -147 -33t-121 -92l-90 -628q30 -52 97.5 -86.5t144.5 -34.5z" />
<glyph unicode="q" horiz-adv-x="835" d="M784 932q20 0 17 -21l-199 -1403q-3 -20 -20 -20h-4q-20 0 -17 20l84 588q-135 -106 -270 -106q-130 0 -208.5 102t-78.5 281q0 258 116.5 413.5t299.5 155.5q138 0 246 -108l10 77q4 21 20 21h4zM381 29q140 0 270 116l90 639q-101 119 -237 119q-162 0 -268.5 -144 t-106.5 -380q0 -162 69 -256t183 -94z" />
<glyph unicode="r" horiz-adv-x="651" d="M647 881q23 -20 15 -33l-7 -8q-13 -13 -32 6q-66 57 -148 57q-42 0 -81.5 -14.5t-67 -37t-44 -40.5t-26.5 -33l-106 -758q-3 -20 -21 -20h-6q-17 0 -14 20l127 891q4 21 18 21h6q18 0 14 -21l-10 -75q88 106 217 106q96 0 166 -61z" />
<glyph unicode="s" horiz-adv-x="753" d="M326 -10q-78 0 -151.5 23t-121.5 61q-19 16 -10 28l6 9q12 15 29 0q41 -34 106 -58t144 -24q123 0 193.5 63t70.5 160q0 34 -11 61.5t-25 45.5t-44.5 37t-52 29t-64.5 28q-54 24 -89.5 45t-67.5 50t-47 66t-15 84q0 107 75 175.5t198 68.5q126 0 213 -70q15 -12 6 -24 l-4 -6q-10 -13 -27 -2q-94 63 -195 63q-99 0 -161 -57t-62 -144q0 -71 48.5 -118t144.5 -90q45 -20 69.5 -32.5t58.5 -35.5t51.5 -45t30.5 -56t13 -75q0 -118 -86 -189t-223 -71z" />
<glyph unicode="t" horiz-adv-x="665" d="M332 -10q-88 0 -138.5 63.5t-35.5 169.5l94 672h-129q-10 0 -15 3t-4 11l2 13q2 10 23 10h129l43 309q3 23 23 23h4q17 0 14 -23l-43 -309h231q10 0 15 -3t4 -11l-2 -13q-3 -10 -23 -10h-231l-94 -670q-13 -91 28 -143.5t111 -52.5q87 0 158 71q15 15 26 4l2 -2 q11 -11 -4 -26q-34 -38 -84 -62t-104 -24z" />
<glyph unicode="u" horiz-adv-x="882" d="M811 932q17 0 14 -21l-125 -891q-3 -20 -20 -20h-6q-18 0 -15 20l13 93q-48 -40 -80 -62t-85.5 -41.5t-111.5 -19.5q-127 0 -202 85.5t-52 246.5l84 589q3 21 21 21h4q20 0 16 -21l-82 -583q-21 -146 41.5 -222.5t175.5 -76.5q53 0 105.5 21t78.5 39.5t82 64.5q9 7 13 10 l106 747q4 21 19 21h6z" />
<glyph unicode="v" horiz-adv-x="845" d="M356 0q-16 0 -20.5 6t-9.5 31l-179 866q-6 29 17 29h4q9 0 13 -4t7 -19l177 -862l417 862q12 23 29 23h2q25 0 10 -29l-420 -866q-18 -37 -43 -37h-4z" />
<glyph unicode="w" horiz-adv-x="1404" d="M336 0q-15 0 -20.5 7t-10.5 30l-149 866q-5 29 18 29h4q14 0 19 -23l149 -866l385 852q12 26 17 31.5t16 5.5h8q11 0 15 -6t8 -31l145 -852l391 866q10 23 27 23h4q22 0 10 -29l-395 -866q-11 -24 -17.5 -30.5t-21.5 -6.5h-8q-15 0 -19.5 6.5t-9.5 30.5l-141 831 l-375 -831q-10 -23 -18 -30t-23 -7h-8z" />
<glyph unicode="x" horiz-adv-x="837" d="M37 0q-7 0 -10.5 3.5t-1.5 10t10 15.5l360 448l-215 426q-7 13 -2.5 21t15.5 8h4q6 0 9 -1t7 -6t10 -16l201 -399l315 399q18 23 33 23h6q11 0 12.5 -8t-8.5 -21l-340 -428l238 -446q16 -29 -8 -29h-6q-16 0 -27 23l-221 423l-340 -423q-18 -23 -33 -23h-8z" />
<glyph unicode="y" horiz-adv-x="880" d="M27 -512q-33 0 -64 8q-30 8 -24 25l4 10q5 14 30 6q24 -8 56 -8q38 0 68.5 13t53.5 39.5t37 49.5t31 58l148 299l-185 915q-6 29 17 29h4q9 0 13 -4t7 -19l174 -860l420 860q11 23 29 23h2q24 0 10 -29l-606 -1235q-88 -180 -225 -180z" />
<glyph unicode="z" horiz-adv-x="876" d="M94 37h570q10 0 13.5 -2.5t2.5 -9.5l-2 -15q-2 -10 -21 -10h-587q-11 0 -16.5 4t-4.5 14l2 13q3 16 19 35l712 829h-567q-10 0 -14.5 2.5t-3.5 9.5l2 13q2 12 22 12h586q11 0 16 -5t4 -14l-2 -12q-2 -17 -18 -35z" />
<glyph unicode="{" horiz-adv-x="657" d="M410 -408q-239 0 -199 279l92 657q15 106 -15 155.5t-102 49.5q-21 0 -26.5 4t-5.5 17v4q0 12 8.5 16t30.5 4q148 0 176 205l63 455q21 147 91.5 212.5t185.5 65.5q11 0 16 -4.5t4 -11.5l-2 -10q-3 -15 -25 -15q-97 0 -152.5 -54t-74.5 -187l-63 -457q-22 -158 -121 -221 q81 -63 59 -221l-94 -660q-19 -132 22 -187t138 -55q11 0 16 -4.5t4 -11.5l-2 -10q-3 -15 -24 -15z" />
<glyph unicode="|" horiz-adv-x="417" d="M70 -512q-20 0 -17 20l283 2008q3 20 20 20h4q20 0 17 -20l-283 -2008q-3 -20 -20 -20h-4z" />
<glyph unicode="}" horiz-adv-x="657" d="M2 -408q-10 0 -16 5.5t-4 13.5l2 10q2 12 24 12q96 0 150.5 54.5t74.5 187.5l95 660q22 160 121 221q-82 61 -60 221l64 457q19 132 -21 186.5t-137 54.5q-11 0 -16.5 5t-4.5 12l2 12q2 12 25 12q116 0 168 -65.5t31 -212.5l-66 -455q-14 -101 13.5 -153t103.5 -52 q22 0 28.5 -4t6.5 -16v-4q0 -21 -41 -21q-146 0 -174 -205l-92 -657q-21 -147 -91.5 -213t-185.5 -66z" />
<glyph unicode="~" horiz-adv-x="927" d="M653 694q-43 0 -87 17.5t-74.5 38t-69 38t-70.5 17.5q-75 0 -151 -90q-9 -11 -14.5 -12.5t-14.5 2.5l-4 2q-16 8 -2 28q82 111 194 111q41 0 82.5 -17.5t70.5 -38t67.5 -38t74.5 -17.5q84 0 160 90q15 18 27 11l4 -2q17 -8 2 -29q-79 -111 -195 -111z" />
<glyph unicode="&#xa1;" horiz-adv-x="462" d="M309 1032q24 0 36.5 -16.5t6.5 -40.5q-5 -19 -21 -32t-36 -13q-23 0 -35 17t-6 40q5 19 20.5 32t34.5 13zM262 702h4q10 0 12 -9t-2 -31l-147 -1133q-3 -24 -10 -32.5t-25 -8.5h-4q-17 0 -19.5 9t1.5 32l168 1133q3 24 7.5 32t14.5 8z" />
<glyph unicode="&#xa2;" horiz-adv-x="839" d="M770 860q13 -8 8 -18l-6 -11q-6 -12 -20 -2q-98 74 -226 74q-163 0 -278 -132.5t-115 -346.5q0 -180 84 -287.5t229 -107.5q128 0 244 77q13 8 19 -4l4 -8q5 -10 -6 -18q-132 -86 -267 -86h-16l-6 -45q-3 -23 -21 -23h-4q-19 0 -16 23l6 49q-136 22 -213.5 135.5 t-77.5 290.5q0 233 124.5 376t301.5 146l6 47q3 23 21 23h4q19 0 16 -23l-6 -49q113 -8 211 -80z" />
<glyph unicode="&#xa3;" horiz-adv-x="921" d="M735 41q9 0 15.5 -5.5t3.5 -12.5l-2 -5q-7 -18 -23 -18h-590q-21 0 -18 20l102 732h-119q-10 0 -14.5 3t-3.5 11l2 12q2 10 23 10h118l74 527q10 69 52 123.5t96 81t108 26.5q59 0 103 -24.5t69 -59.5q6 -9 5.5 -14t-9.5 -14l-2 -2q-11 -11 -25 6q-59 69 -147 69 q-67 0 -129.5 -52.5t-75.5 -141.5l-74 -525h234q10 0 14.5 -3t3.5 -11l-2 -12q-2 -10 -22 -10h-232l-100 -711h565z" />
<glyph unicode="&#xa5;" horiz-adv-x="985" d="M1083 1513l-536 -808l-21 -142h181q10 0 14.5 -3t3.5 -11l-2 -12q-3 -11 -23 -11h-178l-26 -188h178q10 0 14.5 -3t3.5 -11l-2 -13q-2 -10 -22 -10h-179l-38 -281q-3 -20 -23 -20h-4q-21 0 -18 20l38 281h-174q-10 0 -14.5 3t-3.5 11l2 13q2 10 22 10h175l26 188h-174 q-10 0 -14.5 3.5t-3.5 11.5l2 12q3 10 22 10h172l21 142l-307 808q-8 23 16 23h4q21 0 29 -23l282 -772l508 772q15 23 33 23h4q13 0 16 -7t-4 -16z" />
<glyph unicode="&#xa7;" horiz-adv-x="798" d="M766 1346q19 -13 8 -29l-4 -6q-9 -14 -27 0q-83 63 -213 63q-113 0 -179 -62.5t-66 -152.5q0 -16 3.5 -30.5t7.5 -26.5t14 -23.5t17 -20t22.5 -18.5t24 -15.5t29 -15.5t29.5 -14.5t33 -15t33 -14.5q17 -8 49 -21.5t50 -22t44.5 -22.5t41 -28.5t30 -34t22 -44.5t6.5 -55 q0 -108 -68.5 -178.5t-178.5 -91.5q46 -20 70.5 -33t54.5 -36.5t43.5 -56t13.5 -75.5q0 -128 -94.5 -202t-235.5 -74q-84 0 -164.5 23.5t-128.5 60.5q-17 14 -10 28l2 4q4 9 15 10t18 -5q43 -33 115 -57.5t155 -24.5q124 0 204.5 65t80.5 162q0 30 -11 55.5t-27.5 43 t-43.5 34.5t-52 28.5t-59 25.5q-16 7 -24 10q-8 4 -25 11q-46 20 -69 31t-56.5 32t-49 40.5t-28 49.5t-12.5 67q0 112 72.5 181t193.5 77q-52 22 -80.5 37.5t-60 41t-45.5 58t-14 76.5q0 118 81 188t212 70q133 0 231 -67zM698 727q0 29 -10.5 53.5t-25.5 41.5t-42.5 34.5 t-48.5 27.5t-57 25q-81 0 -140.5 -18.5t-92 -51t-47.5 -70t-15 -81.5q0 -36 14 -64t43 -49t57 -35.5t73 -34.5q8 -3 12 -5q123 1 201.5 66t78.5 161z" />
<glyph unicode="&#xa8;" horiz-adv-x="540" d="M356 1563q-18 0 -30.5 12.5t-12.5 30.5q0 23 18 39t40 16q18 0 30.5 -12.5t12.5 -30.5q0 -23 -18 -39t-40 -16zM623 1563q-18 0 -30.5 12.5t-12.5 30.5q0 23 17.5 39t39.5 16q18 0 30.5 -12.5t12.5 -30.5q0 -23 -17.5 -39t-39.5 -16z" />
<glyph unicode="&#xa9;" horiz-adv-x="1677" d="M782 6q-198 0 -348.5 84.5t-231.5 235.5t-81 346q0 186 68 349.5t185.5 278t279.5 180.5t345 66q293 0 469.5 -183t176.5 -478q0 -187 -67.5 -351t-182.5 -279.5t-274.5 -182t-338.5 -66.5zM791 43q168 0 317.5 63.5t258 173.5t172 266t63.5 333q0 280 -166 454t-441 174 q-231 0 -421.5 -106.5t-301 -297.5t-110.5 -427q0 -282 172 -457.5t457 -175.5zM838 285q-151 0 -233.5 101.5t-82.5 281.5q0 257 123 413t328 156q198 0 280 -135q10 -17 0 -27l-4 -4q-17 -14 -30 6q-39 56 -105 88.5t-143 32.5q-187 0 -297.5 -143t-110.5 -381 q0 -164 74.5 -257t210.5 -93q77 0 151.5 32t128.5 88q22 22 31 9l4 -4q10 -13 -6 -29q-125 -135 -319 -135z" />
<glyph unicode="&#xab;" horiz-adv-x="972" d="M164 489q-20 23 6 46l360 305q13 10 21 2l8 -8q9 -8 -4 -21l-348 -301l258 -289q16 -18 6 -28l-12 -11q-12 -9 -27 6zM522 489q-20 23 6 46l361 305q13 9 20 2l9 -8q8 -8 -5 -21l-348 -301l258 -289q16 -18 6 -28l-12 -11q-11 -9 -26 6z" />
<glyph unicode="&#xad;" horiz-adv-x="749" d="M156 547q-11 0 -16.5 2.5t-4.5 9.5l2 12q3 13 23 13h463q10 0 14.5 -3t3.5 -10l-2 -12q-2 -12 -21 -12h-462z" />
<glyph unicode="&#xae;" horiz-adv-x="1677" d="M782 6q-198 0 -348.5 84.5t-231.5 235.5t-81 346q0 186 68 349.5t185.5 278t279.5 180.5t345 66q293 0 469.5 -183t176.5 -478q0 -187 -67.5 -351t-182.5 -279.5t-274.5 -182t-338.5 -66.5zM791 43q168 0 317.5 63.5t258 173.5t172 266t63.5 333q0 280 -166 454t-441 174 q-231 0 -421.5 -106.5t-301 -297.5t-110.5 -427q0 -282 172 -457.5t457 -175.5zM573 285q-21 0 -18 20l127 912q3 20 25 20h282q137 0 206 -59t69 -170q0 -261 -258 -303l151 -398q8 -22 -16 -22h-4q-9 0 -13 0.5t-9 5.5t-9 16l-150 393h-301l-55 -395q-3 -20 -22 -20h-5z M662 741h262q61 0 109 10.5t92.5 37.5t69 80.5t24.5 131.5q0 95 -58 145t-174 50h-262z" />
<glyph unicode="&#xaf;" horiz-adv-x="530" d="M258 1606q2 10 23 10h424q10 0 14.5 -3t3.5 -11l-2 -17q-3 -10 -23 -10h-424q-10 0 -14.5 3t-3.5 11z" />
<glyph unicode="&#xb0;" horiz-adv-x="548" d="M360 1077q-56 0 -93.5 38.5t-37.5 94.5q0 69 52.5 119.5t121.5 50.5q57 0 94.5 -38.5t37.5 -94.5q0 -69 -53 -119.5t-122 -50.5zM367 1114q52 0 91.5 37.5t39.5 89.5q0 43 -28.5 72.5t-72.5 29.5q-52 0 -91.5 -37t-39.5 -89q0 -43 28.5 -73t72.5 -30z" />
<glyph unicode="&#xb4;" horiz-adv-x="350" d="M279 1561q-23 -18 -31 -7l-4 7q-7 10 14 26l231 189q16 12 23 14.5t18 -6.5l9 -10q8 -9 3.5 -17.5t-24.5 -21.5z" />
<glyph unicode="&#xb6;" horiz-adv-x="1634" d="M1133 -598q-20 0 -17 23l291 2070h-473l-291 -2070q-1 -10 -8.5 -16.5t-16.5 -6.5h-4q-19 0 -16 23l176 1251h-235q-158 0 -263.5 108.5t-105.5 270.5q0 126 64 237t170.5 177.5t226.5 66.5h1048q21 0 21 -18v-2q0 -9 -7 -15t-18 -6h-223l-291 -2070q-3 -23 -24 -23h-4z " />
<glyph unicode="&#xb7;" horiz-adv-x="350" d="M164 748q0 23 18 40t41 17q20 0 32.5 -13t12.5 -32q0 -23 -18 -40.5t-41 -17.5q-20 0 -32.5 13.5t-12.5 32.5z" />
<glyph unicode="&#xb8;" horiz-adv-x="499" d="M166 -489q-60 0 -100 32q-15 9 -3 25l5 6q9 14 22 4q37 -27 80 -27q69 0 123.5 49.5t54.5 120.5q0 56 -40 95t-95 39q-74 0 -135 -70q-11 -19 -23 -12l-4 2q-7 3 -8.5 6.5t-1 5.5t3.5 8l107 230l38 2l-75 -168q55 35 112 35q67 0 114.5 -49t47.5 -117q0 -92 -68 -154.5 t-155 -62.5z" />
<glyph unicode="&#xbb;" horiz-adv-x="972" d="M524 489l-352 -299q-19 -16 -29 -6l-8 11q-6 9 15 28l337 289l-262 301q-9 12 0 21l13 8q8 8 18 -2l274 -305q20 -23 -6 -46zM883 489l-353 -299q-19 -15 -28 -6l-8 11q-7 10 14 28l338 289l-262 301q-9 12 0 21l12 8q8 8 18 -2l275 -305q20 -23 -6 -46z" />
<glyph unicode="&#xbc;" horiz-adv-x="882" d="M10 0q-7 0 -10.5 1t-3.5 5.5t3 12t11 20.5l903 1458q15 26 22.5 32.5t22.5 6.5h5q12 0 11 -7t-16 -32l-901 -1458q-15 -25 -23 -32t-20 -7h-4zM205 1028q-13 0 -10 16l61 431l-76 -68q-10 -10 -18 -2l-10 12q-6 9 2 17l106 94q8 8 21 8h16q12 0 10 -12l-67 -482 q-3 -14 -15 -14h-20zM657 0q-10 0 -10 12l19 127h-203q-15 0 -12 13l2 10q1 5 10 18l250 318q7 10 14 10h18q14 0 11 -12l-45 -320h28q5 0 7 -0.5t3.5 -2.5t0.5 -7l-2 -14q-3 -13 -13 -13h-28l-19 -127q0 -12 -14 -12h-17zM506 176h164l37 258z" />
<glyph unicode="&#xbd;" horiz-adv-x="841" d="M-31 0q-7 0 -10.5 1t-3.5 5.5t3 12t11 20.5l903 1458q15 26 23 32.5t23 6.5h4q12 0 11.5 -7.5t-15.5 -31.5l-902 -1458q-15 -25 -23 -32t-20 -7h-4zM205 1028q-13 0 -10 16l61 431l-76 -68q-10 -10 -18 -2l-10 12q-6 9 2 17l106 94q8 8 21 8h16q12 0 10 -12l-67 -482 q-3 -14 -15 -14h-20zM444 0q-13 0 -10 12l10 74q6 42 33.5 80t63 65.5t70 54t58 56.5t23.5 61q0 29 -18.5 48.5t-50.5 19.5q-47 0 -86 -39q-7 -8 -15 0l-10 10q-8 8 2 17q49 49 113 49q50 0 78 -28t28 -72q0 -39 -24 -74.5t-58.5 -63t-70 -55t-63 -62t-32.5 -71.5l-6 -45 h195q12 0 12 -10l-2 -17q-2 -10 -14 -10h-226z" />
<glyph unicode="&#xbe;" horiz-adv-x="905" d="M244 1030q-73 0 -117 49q-6 9 2 17l12 12q9 10 19 0q30 -37 86 -37q51 0 85 33t34 86q0 41 -22.5 64.5t-55.5 23.5q-8 0 -10 2t-1 8l3 21q3 10 14 10q38 0 67 31.5t29 70.5q0 32 -22.5 53t-57.5 21q-43 0 -84 -33q-8 -8 -16 0l-12 13q-6 6 4 16q50 47 116 47 q52 0 83.5 -30t31.5 -78q0 -85 -82 -132q58 -34 58 -108q0 -70 -46 -115t-118 -45zM31 0q-7 0 -10.5 1t-3.5 5.5t3 12t11 20.5l903 1458q15 26 22.5 32.5t22.5 6.5h4q12 0 11.5 -7.5t-15.5 -31.5l-901 -1458q-15 -25 -23 -32t-20 -7h-4zM657 0q-10 0 -10 12l19 127h-203 q-15 0 -12 13l2 10q1 5 10 18l250 318q7 10 14 10h18q14 0 11 -12l-45 -320h28q5 0 7 -0.5t3.5 -2.5t0.5 -7l-2 -14q-3 -13 -13 -13h-28l-19 -127q0 -12 -14 -12h-17zM506 176h164l37 258z" />
<glyph unicode="&#xbf;" horiz-adv-x="858" d="M580 1030q19 0 31 -13t12 -32q0 -23 -17.5 -40t-40.5 -17q-20 0 -32.5 13t-12.5 32q0 23 17.5 40t42.5 17zM532 666q17 0 17 -15q0 -115 -20.5 -205.5t-54 -149t-75 -105.5t-85 -85t-81.5 -75.5t-67.5 -90.5t-40.5 -118q-24 -131 41 -217t192 -86q59 0 113.5 20.5 t85.5 43t76 61.5q11 10 17.5 10.5t11.5 -6.5l4 -4q11 -11 -9 -31q-138 -135 -303 -135q-140 0 -220.5 94t-57.5 244q11 72 40.5 129.5t67.5 97t82.5 78.5t86 84t75.5 101t55 143t21 198q0 11 4 15t16 4h8z" />
<glyph unicode="&#xc0;" horiz-adv-x="1155" d="M743 1642l-190 175q-15 13 -16 20.5t8 17.5l8 11q6 10 15.5 9t25.5 -17l178 -189q18 -17 6 -29l-6 -6q-10 -10 -29 8zM31 0q-20 0 -8 27l669 1486q10 23 31 23h4q24 0 27 -23l254 -1490q5 -23 -17 -23h-4q-10 0 -14.5 4.5t-7.5 18.5l-70 415h-641l-188 -415 q-10 -23 -29 -23h-6zM272 479h615l-168 996z" />
<glyph unicode="&#xc1;" horiz-adv-x="1155" d="M725 1642q-22 -17 -31 -6l-4 6q-7 10 15 27l231 189q16 12 23 14.5t18 -6.5l8 -11q8 -9 4 -17t-24 -21zM31 0q-20 0 -8 27l669 1486q10 23 31 23h4q24 0 27 -23l254 -1490q5 -23 -17 -23h-4q-10 0 -14.5 4.5t-7.5 18.5l-70 415h-641l-188 -415q-10 -23 -29 -23h-6z M272 479h615l-168 996z" />
<glyph unicode="&#xc2;" horiz-adv-x="1155" d="M766 1835l-199 -182q-19 -17 -27.5 -19.5t-15.5 6.5l-6 9q-7 11 -4 18.5t21 22.5l221 184q15 12 24 0l168 -184q13 -16 12.5 -23.5t-10.5 -17.5l-4 -4q-17 -17 -39 10zM31 0q-20 0 -8 27l669 1486q10 23 31 23h4q24 0 27 -23l254 -1490q5 -23 -17 -23h-4q-10 0 -14.5 4.5 t-7.5 18.5l-70 415h-641l-188 -415q-10 -23 -29 -23h-6zM272 479h615l-168 996z" />
<glyph unicode="&#xc3;" horiz-adv-x="1155" d="M883 1640q-34 1 -67 18.5t-54 37t-49 37t-54 18.5q-14 1 -27 -1t-25.5 -9t-20.5 -11t-20.5 -16.5t-17 -16.5t-17.5 -19t-15 -17q-9 -11 -14 -12.5t-13 2.5l-4 2q-16 8 -2 28q84 115 179 111q32 -1 62.5 -18.5t51 -37t50.5 -37t61 -18.5q14 0 26.5 2t25 9t20 11t20.5 17 t16.5 16t17.5 19t15 17q9 11 13.5 12.5t15.5 -2.5l4 -2q17 -8 2 -29q-83 -111 -180 -111zM31 0q-20 0 -8 27l669 1486q10 23 31 23h4q24 0 27 -23l254 -1490q5 -23 -17 -23h-4q-10 0 -14.5 4.5t-7.5 18.5l-70 415h-641l-188 -415q-10 -23 -29 -23h-6zM272 479h615l-168 996z " />
<glyph unicode="&#xc4;" horiz-adv-x="1155" d="M612 1640q-18 0 -30.5 12.5t-12.5 30.5q0 23 18 39.5t40 16.5q18 0 30.5 -12.5t12.5 -30.5q0 -23 -18 -39.5t-40 -16.5zM879 1640q-18 0 -30.5 12.5t-12.5 30.5q0 23 17.5 39.5t39.5 16.5q18 0 30.5 -12.5t12.5 -30.5q0 -23 -17.5 -39.5t-39.5 -16.5zM31 0q-20 0 -8 27 l669 1486q10 23 31 23h4q24 0 27 -23l254 -1490q5 -23 -17 -23h-4q-10 0 -14.5 4.5t-7.5 18.5l-70 415h-641l-188 -415q-10 -23 -29 -23h-6zM272 479h615l-168 996z" />
<glyph unicode="&#xc5;" horiz-adv-x="1155" d="M737 1628q-56 0 -93.5 38.5t-37.5 94.5q0 69 52.5 119.5t121.5 50.5q56 0 93.5 -38.5t37.5 -94.5q0 -69 -52.5 -119.5t-121.5 -50.5zM743 1665q52 0 91.5 37.5t39.5 89.5q0 43 -28 72.5t-72 29.5q-52 0 -91.5 -37.5t-39.5 -89.5q0 -43 28 -72.5t72 -29.5zM31 0 q-20 0 -8 27l669 1486q10 23 31 23h4q24 0 27 -23l254 -1490q5 -23 -17 -23h-4q-10 0 -14.5 4.5t-7.5 18.5l-70 415h-641l-188 -415q-10 -23 -29 -23h-6zM272 479h615l-168 996z" />
<glyph unicode="&#xc6;" horiz-adv-x="1767" d="M33 0q-25 0 -10 23l981 1490q13 23 30 23h715q18 0 18 -18v-5q0 -18 -24 -18h-682l-94 -657h581q19 0 19 -19v-4q0 -18 -25 -18h-581l-107 -756h684q11 0 17.5 -5.5t3.5 -12.5l-3 -5q-1 -1 -3 -4.5t-2.5 -4.5t-2.5 -3.5t-3.5 -3.5t-4.5 -1.5t-6 -0.5h-709q-26 0 -20 23 l59 415h-518l-276 -415q-10 -15 -14.5 -19t-14.5 -4h-8zM375 479h497l136 969z" />
<glyph unicode="&#xc7;" horiz-adv-x="1128" d="M1188 1391q14 -13 2 -25l-4 -4q-12 -12 -25 0q-143 143 -342 143q-125 0 -238.5 -63t-198.5 -173.5t-135 -272t-50 -347.5q0 -292 119 -455t321 -163q197 0 358 145q12 9 21 -2l4 -6q6 -9 -6 -21q-74 -74 -172.5 -115.5t-206.5 -41.5q-31 0 -47 2l-45 -133q55 35 112 35 q73 0 117.5 -52t44.5 -123q0 -91 -65.5 -149.5t-151.5 -58.5q-66 0 -106 32q-15 12 -5 25l5 6q10 15 24 4q38 -27 86 -27q68 0 120 46t52 118q0 58 -35.5 99t-93.5 41q-71 0 -141 -70q-16 -16 -23 -12l-4 2q-12 7 -6 20l76 201q-187 33 -292 200.5t-105 446.5 q0 199 53.5 369.5t144.5 286.5t213.5 181.5t259.5 65.5q210 0 365 -155z" />
<glyph unicode="&#xc8;" horiz-adv-x="1079" d="M729 1642l-190 175q-15 13 -16.5 20.5t7.5 17.5l9 11q6 10 15.5 9t25.5 -17l178 -189q18 -17 6 -29l-6 -6q-10 -10 -29 8zM139 0q-21 0 -18 20l211 1496q3 20 22 20h709q22 0 18 -18l-2 -11q-3 -12 -20 -12h-684l-94 -657h581q9 0 14.5 -6t4.5 -13l-2 -10q-3 -12 -21 -12 h-582l-106 -756h684q22 0 18 -18l-2 -11q-3 -12 -20 -12h-711z" />
<glyph unicode="&#xc9;" horiz-adv-x="1079" d="M711 1642q-22 -17 -31 -6l-4 6q-7 11 14 27l232 189q16 12 23 14.5t18 -6.5l8 -11q8 -9 3.5 -17t-24.5 -21zM139 0q-21 0 -18 20l211 1496q3 20 22 20h709q22 0 18 -18l-2 -11q-3 -12 -20 -12h-684l-94 -657h581q9 0 14.5 -6t4.5 -13l-2 -10q-3 -12 -21 -12h-582 l-106 -756h684q22 0 18 -18l-2 -11q-3 -12 -20 -12h-711z" />
<glyph unicode="&#xca;" horiz-adv-x="1079" d="M752 1835l-199 -182q-19 -17 -27.5 -19.5t-15.5 6.5l-6 9q-7 11 -4 18.5t20 22.5l221 184q16 12 25 0l168 -184q13 -16 12.5 -23.5t-10.5 -17.5l-4 -4q-17 -17 -39 10zM139 0q-21 0 -18 20l211 1496q3 20 22 20h709q22 0 18 -18l-2 -11q-3 -12 -20 -12h-684l-94 -657h581 q9 0 14.5 -6t4.5 -13l-2 -10q-3 -12 -21 -12h-582l-106 -756h684q22 0 18 -18l-2 -11q-3 -12 -20 -12h-711z" />
<glyph unicode="&#xcb;" horiz-adv-x="1079" d="M598 1640q-18 0 -30.5 12.5t-12.5 30.5q0 23 17.5 39.5t39.5 16.5q18 0 30.5 -12.5t12.5 -30.5q0 -23 -17.5 -39.5t-39.5 -16.5zM864 1640q-18 0 -30.5 12.5t-12.5 30.5q0 23 18 39.5t40 16.5q18 0 30.5 -12.5t12.5 -30.5q0 -23 -18 -39.5t-40 -16.5zM139 0q-21 0 -18 20 l211 1496q3 20 22 20h709q22 0 18 -18l-2 -11q-3 -12 -20 -12h-684l-94 -657h581q9 0 14.5 -6t4.5 -13l-2 -10q-3 -12 -21 -12h-582l-106 -756h684q22 0 18 -18l-2 -11q-3 -12 -20 -12h-711z" />
<glyph unicode="&#xcc;" horiz-adv-x="413" d="M377 1642l-191 175q-15 13 -16 20.5t8 17.5l8 11q6 10 15.5 9t25.5 -17l179 -189q18 -17 6 -29l-6 -6q-10 -10 -29 8zM139 0q-21 0 -18 20l211 1496q3 20 22 20h4q9 0 14.5 -5.5t4.5 -14.5l-211 -1496q-3 -20 -23 -20h-4z" />
<glyph unicode="&#xcd;" horiz-adv-x="413" d="M358 1642q-22 -17 -30 -6l-4 6q-7 11 14 27l231 189q16 12 23 14.5t18 -6.5l8 -11q8 -9 4 -17t-24 -21zM139 0q-21 0 -18 20l211 1496q3 20 22 20h4q9 0 14.5 -5.5t4.5 -14.5l-211 -1496q-3 -20 -23 -20h-4z" />
<glyph unicode="&#xce;" horiz-adv-x="413" d="M399 1835l-198 -182q-19 -17 -27.5 -19.5t-15.5 6.5l-6 9q-7 11 -4 18.5t20 22.5l221 184q16 12 25 0l168 -184q13 -16 12.5 -23.5t-10.5 -17.5l-4 -4q-17 -17 -39 10zM139 0q-21 0 -18 20l211 1496q3 20 22 20h4q9 0 14.5 -5.5t4.5 -14.5l-211 -1496q-3 -20 -23 -20h-4z " />
<glyph unicode="&#xcf;" horiz-adv-x="413" d="M246 1640q-18 0 -30.5 12.5t-12.5 30.5q0 23 17.5 39.5t39.5 16.5q18 0 30.5 -12.5t12.5 -30.5q0 -23 -17.5 -39.5t-39.5 -16.5zM512 1640q-18 0 -30.5 12.5t-12.5 30.5q0 23 17.5 39.5t39.5 16.5q18 0 30.5 -12.5t12.5 -30.5q0 -23 -17.5 -39.5t-39.5 -16.5zM139 0 q-21 0 -18 20l211 1496q3 20 22 20h4q9 0 14.5 -5.5t4.5 -14.5l-211 -1496q-3 -20 -23 -20h-4z" />
<glyph unicode="&#xd0;" horiz-adv-x="1286" d="M719 1536q240 0 377 -164t137 -473q0 -256 -97 -462.5t-263.5 -321.5t-368.5 -115h-371q-21 0 -18 20l123 875h-74q-10 0 -15 3t-4 11l2 13q3 10 23 10h74l82 584q3 20 22 20h371zM502 41q141 0 267.5 63.5t218.5 175t146 271t54 342.5q0 294 -128.5 448t-352.5 154h-338 l-80 -563h282q10 0 15 -3t4 -11l-2 -13q-2 -10 -23 -10h-280l-121 -854h338z" />
<glyph unicode="&#xd1;" horiz-adv-x="1320" d="M979 1640q-34 1 -66.5 18.5t-54 37t-49 37t-53.5 18.5q-12 1 -24.5 -1.5t-21.5 -5t-20.5 -10t-17.5 -12t-17 -15.5l-15 -15t-15 -16.5t-13 -14.5q-14 -17 -26 -10l-4 2q-16 8 -2 28q84 115 178 111q32 -1 62.5 -18.5t51 -37t50.5 -37t61 -18.5q14 0 26.5 2t25 9t20 11 t20.5 17t16.5 16t17.5 19t15 17q9 11 13.5 12.5t15.5 -2.5l4 -2q17 -8 2 -29q-83 -111 -180 -111zM137 0q-19 0 -16 20l211 1496q3 20 22 20h2q16 0 25 -18l661 -1432l201 1430q3 20 21 20h4q19 0 16 -20l-211 -1496q-3 -20 -22 -20h-4q-14 0 -23 18l-659 1442l-203 -1440 q-3 -20 -21 -20h-4z" />
<glyph unicode="&#xd2;" d="M874 1642l-190 175q-15 13 -16 20.5t8 17.5l8 11q6 10 15.5 9t25.5 -17l178 -189q17 -17 6 -29l-6 -6q-11 -10 -29 8zM844 1546q245 0 378.5 -172.5t133.5 -486.5q0 -255 -86.5 -459.5t-245 -321t-360.5 -116.5q-245 0 -378.5 171.5t-133.5 487.5q0 255 85.5 458.5 t244 321t362.5 117.5zM670 31q144 0 264.5 66t202 180.5t127 271t45.5 336.5q0 296 -121.5 458t-349.5 162q-190 0 -337.5 -113t-225.5 -306.5t-78 -434.5q0 -297 122.5 -458.5t350.5 -161.5z" />
<glyph unicode="&#xd3;" d="M856 1642q-22 -17 -31 -6l-4 6q-7 10 15 27l231 189q16 12 23 14.5t18 -6.5l8 -11q8 -9 4 -17t-24 -21zM844 1546q245 0 378.5 -172.5t133.5 -486.5q0 -255 -86.5 -459.5t-245 -321t-360.5 -116.5q-245 0 -378.5 171.5t-133.5 487.5q0 255 85.5 458.5t244 321 t362.5 117.5zM670 31q144 0 264.5 66t202 180.5t127 271t45.5 336.5q0 296 -121.5 458t-349.5 162q-190 0 -337.5 -113t-225.5 -306.5t-78 -434.5q0 -297 122.5 -458.5t350.5 -161.5z" />
<glyph unicode="&#xd4;" d="M897 1835l-199 -182q-19 -17 -27.5 -19.5t-15.5 6.5l-6 9q-7 11 -4 18.5t21 22.5l221 184q15 12 24 0l168 -184q13 -16 12.5 -23.5t-10.5 -17.5l-4 -4q-17 -17 -39 10zM844 1546q245 0 378.5 -172.5t133.5 -486.5q0 -255 -86.5 -459.5t-245 -321t-360.5 -116.5 q-245 0 -378.5 171.5t-133.5 487.5q0 255 85.5 458.5t244 321t362.5 117.5zM670 31q144 0 264.5 66t202 180.5t127 271t45.5 336.5q0 296 -121.5 458t-349.5 162q-190 0 -337.5 -113t-225.5 -306.5t-78 -434.5q0 -297 122.5 -458.5t350.5 -161.5z" />
<glyph unicode="&#xd5;" d="M1014 1638q-34 1 -66.5 18.5t-53.5 37t-48.5 37t-52.5 18.5q-12 1 -24.5 -1.5t-21.5 -5t-20.5 -10t-17.5 -12t-17 -15.5l-15 -15t-15 -16.5t-13 -14.5q-8 -11 -12 -12.5t-12 2.5l-4 2q-17 8 -3 28q82 115 177 111q31 -1 61 -18.5t50.5 -37t50.5 -37t61 -18.5q10 0 20 1 t19.5 5t16.5 7.5t16.5 11t14.5 11t14.5 13.5t13 13.5t13 14.5t11.5 13q10 11 14 13t15 -2l4 -2q17 -8 2 -29q-83 -111 -178 -111zM844 1546q245 0 378.5 -172.5t133.5 -486.5q0 -255 -86.5 -459.5t-245 -321t-360.5 -116.5q-245 0 -378.5 171.5t-133.5 487.5 q0 255 85.5 458.5t244 321t362.5 117.5zM670 31q144 0 264.5 66t202 180.5t127 271t45.5 336.5q0 296 -121.5 458t-349.5 162q-190 0 -337.5 -113t-225.5 -306.5t-78 -434.5q0 -297 122.5 -458.5t350.5 -161.5z" />
<glyph unicode="&#xd6;" d="M743 1640q-18 0 -30.5 12.5t-12.5 30.5q0 23 18 39.5t40 16.5q18 0 30.5 -12.5t12.5 -30.5q0 -23 -18 -39.5t-40 -16.5zM1010 1640q-18 0 -30.5 12.5t-12.5 30.5q0 23 17.5 39.5t39.5 16.5q18 0 30.5 -12.5t12.5 -30.5q0 -23 -17.5 -39.5t-39.5 -16.5zM844 1546 q245 0 378.5 -172.5t133.5 -486.5q0 -255 -86.5 -459.5t-245 -321t-360.5 -116.5q-245 0 -378.5 171.5t-133.5 487.5q0 255 85.5 458.5t244 321t362.5 117.5zM670 31q144 0 264.5 66t202 180.5t127 271t45.5 336.5q0 296 -121.5 458t-349.5 162q-190 0 -337.5 -113 t-225.5 -306.5t-78 -434.5q0 -297 122.5 -458.5t350.5 -161.5z" />
<glyph unicode="&#xd7;" horiz-adv-x="643" d="M584 950q11 -11 -9 -24l-188 -166l143 -166q12 -12 0 -25l-4 -4q-12 -12 -24 4l-144 166l-188 -166q-14 -15 -25 -4l-4 4q-10 10 9 25l188 166l-143 168q-11 11 0 22l4 4q12 12 24 -4l144 -166l188 166q7 7 14.5 8t10.5 -4z" />
<glyph unicode="&#xd8;" horiz-adv-x="1423" d="M1407 1536q22 0 -12 -39l-142 -168q103 -168 103 -442q0 -255 -86.5 -459.5t-245 -321t-360.5 -116.5q-248 0 -383 176l-107 -127q-30 -34 -38 -37q-4 -2 -11 -2h-10q-27 0 8 39l135 162q-106 165 -106 448q0 255 85.5 458.5t244 321t362.5 117.5q254 0 387 -184l115 135 q23 28 30 33.5t21 5.5h10zM197 651q0 -259 92 -413l911 1087q-123 180 -362 180q-190 0 -337.5 -113t-225.5 -306.5t-78 -434.5zM1309 885q0 248 -88 405l-910 -1087q122 -172 359 -172q144 0 264.5 66t202 180.5t127 271t45.5 336.5z" />
<glyph unicode="&#xd9;" horiz-adv-x="1277" d="M809 1642l-191 175q-15 13 -16 20.5t8 17.5l8 11q6 10 15.5 9t25.5 -17l179 -189q18 -17 6 -29l-6 -6q-10 -10 -29 8zM571 -10q-220 0 -328 139.5t-73 386.5l141 1000q3 20 23 20h4q21 0 18 -20l-141 -1008q-32 -224 66.5 -351.5t296.5 -127.5t331.5 127.5t165.5 351.5 l142 1008q3 20 22 20h4q9 0 14.5 -5.5t4.5 -14.5l-142 -1000q-35 -247 -182 -386.5t-367 -139.5z" />
<glyph unicode="&#xda;" horiz-adv-x="1277" d="M791 1642q-22 -17 -31 -6l-4 6q-7 11 14 27l231 189q16 12 23 14.5t18 -6.5l9 -11q8 -9 3.5 -17t-24.5 -21zM571 -10q-220 0 -328 139.5t-73 386.5l141 1000q3 20 23 20h4q21 0 18 -20l-141 -1008q-32 -224 66.5 -351.5t296.5 -127.5t331.5 127.5t165.5 351.5l142 1008 q3 20 22 20h4q9 0 14.5 -5.5t4.5 -14.5l-142 -1000q-35 -247 -182 -386.5t-367 -139.5z" />
<glyph unicode="&#xdb;" horiz-adv-x="1277" d="M831 1835l-198 -182q-19 -17 -27.5 -19.5t-15.5 6.5l-6 9q-7 11 -4 18.5t20 22.5l221 184q16 12 25 0l168 -184q13 -16 12.5 -23.5t-10.5 -17.5l-4 -4q-17 -17 -39 10zM571 -10q-220 0 -328 139.5t-73 386.5l141 1000q3 20 23 20h4q21 0 18 -20l-141 -1008 q-32 -224 66.5 -351.5t296.5 -127.5t331.5 127.5t165.5 351.5l142 1008q3 20 22 20h4q9 0 14.5 -5.5t4.5 -14.5l-142 -1000q-35 -247 -182 -386.5t-367 -139.5z" />
<glyph unicode="&#xdc;" horiz-adv-x="1277" d="M678 1640q-18 0 -30.5 12.5t-12.5 30.5q0 23 17.5 39.5t39.5 16.5q18 0 30.5 -12.5t12.5 -30.5q0 -23 -17.5 -39.5t-39.5 -16.5zM944 1640q-18 0 -30.5 12.5t-12.5 30.5q0 23 17.5 39.5t39.5 16.5q18 0 30.5 -12.5t12.5 -30.5q0 -23 -17.5 -39.5t-39.5 -16.5zM571 -10 q-220 0 -328 139.5t-73 386.5l141 1000q3 20 23 20h4q21 0 18 -20l-141 -1008q-32 -224 66.5 -351.5t296.5 -127.5t331.5 127.5t165.5 351.5l142 1008q3 20 22 20h4q9 0 14.5 -5.5t4.5 -14.5l-142 -1000q-35 -247 -182 -386.5t-367 -139.5z" />
<glyph unicode="&#xdd;" horiz-adv-x="985" d="M643 1642q-22 -17 -31 -6l-4 6q-7 10 15 27l231 189q16 12 23 14.5t18 -6.5l8 -11q8 -9 4 -17t-24 -21zM1034 1513q15 23 33 23h4q13 0 16 -7t-4 -16l-536 -808l-96 -685q-3 -20 -23 -20h-4q-21 0 -18 20l96 685l-307 808q-8 23 16 23h4q21 0 29 -23l282 -772z" />
<glyph unicode="&#xde;" horiz-adv-x="1138" d="M653 1217q207 0 310.5 -103.5t103.5 -273.5q0 -107 -33 -199.5t-97.5 -163.5t-169.5 -112t-239 -41h-319l-43 -304q-3 -20 -23 -20h-4q-21 0 -18 20l166 1176q0 2 1 4.5t1 3.5l43 312q3 20 22 20h4q22 0 19 -20l-41 -299h317zM535 365q121 0 216 37.5t152.5 103t87 148 t29.5 177.5q0 154 -92.5 249.5t-278.5 95.5h-319l-115 -811h320z" />
<glyph unicode="&#xdf;" horiz-adv-x="1028" d="M586 6q-27 -9 -29 6l-2 15q-1 6 4 9.5t19 8.5q109 41 188.5 122.5t79.5 178.5q0 45 -21 88t-51 78.5t-59.5 72t-50.5 83.5t-21 98q0 59 25.5 111t61.5 93.5l72 83t61.5 97t25.5 117.5q0 108 -74 171.5t-178 63.5q-117 0 -211.5 -80t-116.5 -233l-166 -1170 q-3 -20 -20 -20h-4q-20 0 -17 20l166 1180q12 86 49 153.5t89.5 108t113 61.5t123.5 21q119 0 204 -72t85 -194q0 -69 -25.5 -129t-61.5 -104t-72 -85.5t-61.5 -89.5t-25.5 -98q0 -44 21 -87.5t51 -79.5t59.5 -72.5t50.5 -82.5t21 -94q0 -102 -87.5 -205t-215.5 -145z" />
<glyph unicode="&#xe0;" horiz-adv-x="847" d="M375 1325q-15 13 -16 21t8 18l8 10q6 10 15.5 9t25.5 -17l178 -188q18 -18 6 -29l-6 -6q-10 -11 -29 8zM786 932q18 0 15 -21l-125 -891q-3 -20 -21 -20h-6q-17 0 -14 20l10 76q-139 -106 -270 -106q-130 0 -208.5 102t-78.5 281q0 258 116.5 413.5t299.5 155.5 q141 0 246 -111l12 80q4 21 18 21h6zM653 147l90 635q-100 121 -239 121q-162 0 -268.5 -144t-106.5 -380q0 -162 69 -256t183 -94q144 0 272 118z" />
<glyph unicode="&#xe1;" horiz-adv-x="847" d="M807 1364q8 -9 3.5 -17.5t-24.5 -21.5l-239 -174q-22 -17 -31 -6l-4 6q-7 11 14 27l232 188q16 12 23 14.5t18 -6.5zM786 932q18 0 15 -21l-125 -891q-3 -20 -21 -20h-6q-17 0 -14 20l10 76q-139 -106 -270 -106q-130 0 -208.5 102t-78.5 281q0 258 116.5 413.5 t299.5 155.5q141 0 246 -111l12 80q4 21 18 21h6zM653 147l90 635q-100 121 -239 121q-162 0 -268.5 -144t-106.5 -380q0 -162 69 -256t183 -94q144 0 272 118z" />
<glyph unicode="&#xe2;" horiz-adv-x="847" d="M346 1149l-6 8q-7 11 -4 18.5t20 22.5l222 184q15 12 24 0l168 -184q13 -16 12.5 -23.5t-10.5 -17.5l-4 -4q-17 -17 -39 10l-141 180l-199 -182q-18 -17 -27 -19t-16 7zM786 932q18 0 15 -21l-125 -891q-3 -20 -21 -20h-6q-17 0 -14 20l10 76q-139 -106 -270 -106 q-130 0 -208.5 102t-78.5 281q0 258 116.5 413.5t299.5 155.5q141 0 246 -111l12 80q4 21 18 21h6zM653 147l90 635q-100 121 -239 121q-162 0 -268.5 -144t-106.5 -380q0 -162 69 -256t183 -94q144 0 272 118z" />
<glyph unicode="&#xe3;" horiz-adv-x="847" d="M883 1288q16 -8 2 -28q-83 -111 -180 -111q-34 1 -67 18.5t-54 37t-49 37t-54 18.5q-14 1 -27 -1t-25.5 -8.5t-21 -11.5t-20.5 -17l-17 -17t-17 -19t-15 -17q-9 -11 -14 -12.5t-13 2.5l-4 2q-17 8 -2 29q83 114 178 110q32 -1 62.5 -18t51 -37t51 -37t61.5 -18 q12 0 24 2.5t20.5 5t20 10t17.5 11.5t17 15t14 14.5t14.5 16.5t13.5 15q9 11 13.5 12.5t15.5 -2.5zM786 932q18 0 15 -21l-125 -891q-3 -20 -21 -20h-6q-17 0 -14 20l10 76q-139 -106 -270 -106q-130 0 -208.5 102t-78.5 281q0 258 116.5 413.5t299.5 155.5q141 0 246 -111 l12 80q4 21 18 21h6zM653 147l90 635q-100 121 -239 121q-162 0 -268.5 -144t-106.5 -380q0 -162 69 -256t183 -94q144 0 272 118z" />
<glyph unicode="&#xe4;" horiz-adv-x="847" d="M434 1149q-18 0 -30.5 12.5t-12.5 30.5q0 23 18 39t40 16q18 0 30.5 -12.5t12.5 -30.5q0 -23 -18 -39t-40 -16zM700 1149q-18 0 -30.5 12.5t-12.5 30.5q0 23 18 39t40 16q18 0 30.5 -12.5t12.5 -30.5q0 -23 -18 -39t-40 -16zM786 932q18 0 15 -21l-125 -891 q-3 -20 -21 -20h-6q-17 0 -14 20l10 76q-139 -106 -270 -106q-130 0 -208.5 102t-78.5 281q0 258 116.5 413.5t299.5 155.5q141 0 246 -111l12 80q4 21 18 21h6zM653 147l90 635q-100 121 -239 121q-162 0 -268.5 -144t-106.5 -380q0 -162 69 -256t183 -94q144 0 272 118z " />
<glyph unicode="&#xe5;" horiz-adv-x="847" d="M559 1137q-56 0 -93.5 38.5t-37.5 94.5q0 69 52.5 119.5t121.5 50.5q56 0 93.5 -38.5t37.5 -94.5q0 -69 -52.5 -119.5t-121.5 -50.5zM596 1403q-52 0 -91.5 -37.5t-39.5 -89.5q0 -43 28 -72.5t72 -29.5q52 0 91.5 37t39.5 89q0 43 -28 73t-72 30zM786 932q18 0 15 -21 l-125 -891q-3 -20 -21 -20h-6q-17 0 -14 20l10 76q-139 -106 -270 -106q-130 0 -208.5 102t-78.5 281q0 258 116.5 413.5t299.5 155.5q141 0 246 -111l12 80q4 21 18 21h6zM653 147l90 635q-100 121 -239 121q-162 0 -268.5 -144t-106.5 -380q0 -162 69 -256t183 -94 q144 0 272 118z" />
<glyph unicode="&#xe6;" horiz-adv-x="1456" d="M338 -10q-123 0 -197.5 70.5t-74.5 187.5q0 142 98.5 232.5t241.5 90.5q77 0 147.5 -28.5t110.5 -79.5l18 151q12 146 -50 217.5t-181 71.5q-89 0 -230 -63q-15 -7 -18 6l-4 12q-3 12 10 19q134 65 250 65q111 0 184 -64t82 -173q58 112 151.5 174.5t196.5 62.5 q66 0 123.5 -27t101.5 -78.5t64 -136.5t8 -192q-4 -39 -10 -49t-21 -10h-637q4 -221 83 -320.5t239 -99.5q66 0 118 19.5t120 57.5q13 6 18 -4l4 -8q5 -10 -6 -18q-132 -86 -266 -86q-104 0 -182 50t-121 142q-173 -192 -371 -192zM705 485h620q28 192 -47 305t-209 113 t-236 -115t-128 -303zM352 29q44 0 87.5 13t74.5 30t67.5 48t56.5 51t52 54q-28 96 -28 191q-46 57 -113 86.5t-141 29.5q-126 0 -214 -78.5t-88 -199.5q0 -101 68 -163t178 -62z" />
<glyph unicode="&#xe7;" horiz-adv-x="839" d="M770 860q13 -8 8 -18l-6 -11q-6 -12 -20 -2q-98 74 -226 74q-163 0 -278 -132.5t-115 -346.5q0 -180 84 -287.5t229 -107.5q128 0 244 77q13 8 19 -4l4 -8q5 -10 -6 -18q-132 -86 -267 -86q-25 0 -37 2l-45 -133q55 35 113 35q73 0 117.5 -52t44.5 -123 q0 -91 -65.5 -149.5t-151.5 -58.5q-67 0 -107 32q-14 11 -4 25l4 6q10 15 25 4q38 -27 86 -27q68 0 120 46t52 118q0 58 -35.5 99t-93.5 41q-71 0 -141 -70q-16 -16 -23 -12l-4 2q-12 7 -6 20l76 203q-128 26 -200.5 138.5t-72.5 283.5q0 118 35.5 217.5t95 165.5 t137.5 102.5t164 36.5q132 0 246 -82z" />
<glyph unicode="&#xe8;" horiz-adv-x="886" d="M559 1151l-190 174q-15 13 -16.5 21t7.5 18l9 10q6 10 15.5 9t25.5 -17l178 -188q18 -18 6 -29l-6 -6q-10 -11 -29 8zM92 420q0 117 35.5 217.5t93.5 166t132 102t151 36.5q66 0 123.5 -27t101.5 -78.5t64 -136.5t8 -192q-4 -39 -10 -49t-21 -10h-637 q-6 -183 78.5 -301.5t234.5 -118.5q130 0 246 77q13 8 19 -4l4 -8q5 -10 -6 -18q-123 -86 -265 -86q-164 0 -258 117.5t-94 312.5zM135 485h621q28 193 -47 305.5t-211 112.5q-134 0 -236 -117t-127 -301z" />
<glyph unicode="&#xe9;" horiz-adv-x="886" d="M541 1151q-22 -17 -31 -6l-4 6q-7 11 14 27l232 188q16 12 23 14.5t18 -6.5l8 -10q8 -9 3.5 -17.5t-24.5 -21.5zM92 420q0 117 35.5 217.5t93.5 166t132 102t151 36.5q66 0 123.5 -27t101.5 -78.5t64 -136.5t8 -192q-4 -39 -10 -49t-21 -10h-637q-6 -183 78.5 -301.5 t234.5 -118.5q130 0 246 77q13 8 19 -4l4 -8q5 -10 -6 -18q-123 -86 -265 -86q-164 0 -258 117.5t-94 312.5zM135 485h621q28 193 -47 305.5t-211 112.5q-134 0 -236 -117t-127 -301z" />
<glyph unicode="&#xea;" horiz-adv-x="886" d="M582 1343l-199 -182q-18 -17 -27 -19t-16 7l-6 8q-7 11 -4 18.5t20 22.5l221 184q16 12 25 0l168 -184q13 -16 12.5 -23.5t-10.5 -17.5l-4 -4q-17 -17 -39 10zM92 420q0 117 35.5 217.5t93.5 166t132 102t151 36.5q66 0 123.5 -27t101.5 -78.5t64 -136.5t8 -192 q-4 -39 -10 -49t-21 -10h-637q-6 -183 78.5 -301.5t234.5 -118.5q130 0 246 77q13 8 19 -4l4 -8q5 -10 -6 -18q-123 -86 -265 -86q-164 0 -258 117.5t-94 312.5zM135 485h621q28 193 -47 305.5t-211 112.5q-134 0 -236 -117t-127 -301z" />
<glyph unicode="&#xeb;" horiz-adv-x="886" d="M428 1149q-18 0 -30.5 12.5t-12.5 30.5q0 23 17.5 39t39.5 16q18 0 30.5 -12.5t12.5 -30.5q0 -23 -17.5 -39t-39.5 -16zM694 1149q-18 0 -30.5 12.5t-12.5 30.5q0 23 18 39t40 16q18 0 30.5 -12.5t12.5 -30.5q0 -23 -18 -39t-40 -16zM92 420q0 117 35.5 217.5t93.5 166 t132 102t151 36.5q66 0 123.5 -27t101.5 -78.5t64 -136.5t8 -192q-4 -39 -10 -49t-21 -10h-637q-6 -183 78.5 -301.5t234.5 -118.5q130 0 246 77q13 8 19 -4l4 -8q5 -10 -6 -18q-123 -86 -265 -86q-164 0 -258 117.5t-94 312.5zM135 485h621q28 193 -47 305.5t-211 112.5 q-134 0 -236 -117t-127 -301z" />
<glyph unicode="&#xec;" horiz-adv-x="425" d="M317 1151l-190 174q-15 13 -16 21t8 18l8 10q6 10 15.5 9t25.5 -17l178 -188q18 -18 6 -29l-6 -6q-10 -11 -29 8zM152 0q-12 0 -15.5 4.5t-1.5 18.5l123 886q3 14 8 18.5t17 4.5h2q17 0 14 -23l-123 -886q-3 -14 -7.5 -18.5t-14.5 -4.5h-2z" />
<glyph unicode="&#xed;" horiz-adv-x="421" d="M295 1151q-22 -17 -31 -6l-4 6q-7 11 14 27l232 188q16 12 23 14.5t18 -6.5l8 -10q8 -9 4 -17.5t-24 -21.5zM147 0q-12 0 -15 4.5t-1 18.5l123 886q3 14 8 18.5t17 4.5h2q17 0 14 -23l-123 -886q-3 -14 -7.5 -18.5t-14.5 -4.5h-3z" />
<glyph unicode="&#xee;" horiz-adv-x="419" d="M338 1343l-199 -182q-18 -17 -27 -19t-16 7l-6 8q-7 11 -4 18.5t20 22.5l222 184q15 12 24 0l168 -184q13 -16 12.5 -23.5t-10.5 -17.5l-4 -4q-17 -17 -39 10zM150 0q-12 0 -15.5 4.5t-1.5 18.5l123 886q3 14 8 18.5t17 4.5h2q17 0 14 -23l-123 -886q-3 -14 -7.5 -18.5 t-14.5 -4.5h-2z" />
<glyph unicode="&#xef;" horiz-adv-x="440" d="M182 1149q-18 0 -30.5 12.5t-12.5 30.5q0 23 18 39t40 16q18 0 30.5 -12.5t12.5 -30.5q0 -23 -18 -39t-40 -16zM449 1149q-18 0 -30.5 12.5t-12.5 30.5q0 23 17.5 39t39.5 16q18 0 30.5 -12.5t12.5 -30.5q0 -23 -17.5 -39t-39.5 -16zM147 0q-12 0 -15 4.5t-1 18.5 l123 886q3 14 8 18.5t17 4.5h2q17 0 14 -23l-123 -886q-3 -14 -7.5 -18.5t-14.5 -4.5h-3z" />
<glyph unicode="&#xf0;" horiz-adv-x="983" d="M936 1487q12 -12 -6 -27l-113 -98q109 -176 109 -516q0 -248 -55 -439t-169 -304t-274 -113q-156 0 -248 104.5t-92 294.5q0 120 38 225t101 176t145.5 111.5t170.5 40.5q113 0 202 -64.5t125 -179.5q35 420 -90 631l-174 -151q-14 -14 -26 -2l-2 2q-10 10 4 24l178 156 q-97 138 -266 141q-17 0 -17 14v7q0 7 7.5 11.5t15.5 4.5q189 0 299 -145l108 96q16 13 27 2zM426 31q166 0 286.5 157.5t145.5 446.5q-40 128 -124.5 197t-186.5 69q-75 0 -149 -37.5t-133.5 -103t-96.5 -162t-37 -205.5q0 -165 80 -263.5t215 -98.5z" />
<glyph unicode="&#xf1;" horiz-adv-x="897" d="M901 1288q16 -8 2 -28q-83 -111 -180 -111q-34 1 -66.5 18.5t-54 37t-49 37t-53.5 18.5q-14 1 -27 -1t-25.5 -9t-21 -11.5t-21 -17t-17 -16.5t-18 -19t-14.5 -17q-14 -17 -26 -10l-4 2q-17 8 -2 29q83 114 178 110q32 -1 62.5 -18t51 -37t50.5 -37t61 -18q12 0 24 2.5 t20.5 5t20 10t17.5 11.5t17 15t14 14.5t14.5 16.5t13.5 15q9 11 13.5 12.5t15.5 -2.5zM555 946q127 0 202 -85.5t52 -246.5l-84 -589q-3 -21 -20 -21h-5q-20 0 -16 21l82 583q21 146 -41.5 222.5t-175.5 76.5q-79 0 -148 -35t-145 -96l-106 -756q-3 -20 -21 -20h-6 q-17 0 -14 20l127 891q4 21 18 21h6q18 0 14 -21l-12 -84q147 119 293 119z" />
<glyph unicode="&#xf2;" horiz-adv-x="952" d="M575 1151l-190 174q-15 13 -16 21t8 18l8 10q6 10 15.5 9t25.5 -17l178 -188q18 -18 6 -29l-6 -6q-10 -11 -29 8zM414 -10q-151 0 -237.5 105.5t-86.5 295.5q0 124 36.5 229t98.5 174.5t144.5 108.5t173.5 39q150 0 235.5 -104t85.5 -295q0 -124 -36.5 -228.5t-98 -175 t-143 -110t-172.5 -39.5zM420 29q80 0 153 36.5t128.5 101t88.5 161t33 209.5q0 175 -77 270.5t-209 95.5q-167 0 -285.5 -140.5t-118.5 -365.5q0 -175 77 -271.5t210 -96.5z" />
<glyph unicode="&#xf3;" horiz-adv-x="952" d="M557 1151q-22 -17 -31 -6l-4 6q-7 10 15 27l231 188q16 12 23 14.5t18 -6.5l8 -10q8 -9 4 -17.5t-24 -21.5zM414 -10q-151 0 -237.5 105.5t-86.5 295.5q0 124 36.5 229t98.5 174.5t144.5 108.5t173.5 39q150 0 235.5 -104t85.5 -295q0 -124 -36.5 -228.5t-98 -175 t-143 -110t-172.5 -39.5zM420 29q80 0 153 36.5t128.5 101t88.5 161t33 209.5q0 175 -77 270.5t-209 95.5q-167 0 -285.5 -140.5t-118.5 -365.5q0 -175 77 -271.5t210 -96.5z" />
<glyph unicode="&#xf4;" horiz-adv-x="952" d="M598 1343l-199 -182q-18 -17 -27 -19t-16 7l-6 8q-7 11 -4 18.5t21 22.5l221 184q15 12 24 0l168 -184q13 -16 12.5 -23.5t-10.5 -17.5l-4 -4q-17 -17 -39 10zM414 -10q-151 0 -237.5 105.5t-86.5 295.5q0 124 36.5 229t98.5 174.5t144.5 108.5t173.5 39 q150 0 235.5 -104t85.5 -295q0 -124 -36.5 -228.5t-98 -175t-143 -110t-172.5 -39.5zM420 29q80 0 153 36.5t128.5 101t88.5 161t33 209.5q0 175 -77 270.5t-209 95.5q-167 0 -285.5 -140.5t-118.5 -365.5q0 -175 77 -271.5t210 -96.5z" />
<glyph unicode="&#xf5;" horiz-adv-x="952" d="M715 1149q-34 1 -66.5 18.5t-54 37t-49 37t-53.5 18.5q-14 1 -27 -1t-25.5 -9t-21 -11.5t-21 -17t-17 -16.5t-18 -19t-14.5 -17q-14 -17 -26 -10l-5 2q-17 8 -2 29q83 114 179 110q32 -1 62.5 -18t51 -37t50.5 -37t61 -18q12 0 24 2.5t20.5 5t20 10t17.5 11.5t17 15 t14 14.5t14.5 16.5t13.5 15q9 11 13.5 12.5t15.5 -2.5l4 -2q16 -8 2 -28q-83 -111 -180 -111zM414 -10q-151 0 -237.5 105.5t-86.5 295.5q0 124 36.5 229t98.5 174.5t144.5 108.5t173.5 39q150 0 235.5 -104t85.5 -295q0 -124 -36.5 -228.5t-98 -175t-143 -110t-172.5 -39.5 zM420 29q80 0 153 36.5t128.5 101t88.5 161t33 209.5q0 175 -77 270.5t-209 95.5q-167 0 -285.5 -140.5t-118.5 -365.5q0 -175 77 -271.5t210 -96.5z" />
<glyph unicode="&#xf6;" horiz-adv-x="952" d="M444 1149q-18 0 -30.5 12.5t-12.5 30.5q0 23 18 39t40 16q18 0 30.5 -12.5t12.5 -30.5q0 -23 -18 -39t-40 -16zM711 1149q-18 0 -30.5 12.5t-12.5 30.5q0 23 17.5 39t39.5 16q18 0 30.5 -12.5t12.5 -30.5q0 -23 -17.5 -39t-39.5 -16zM414 -10q-151 0 -237.5 105.5 t-86.5 295.5q0 124 36.5 229t98.5 174.5t144.5 108.5t173.5 39q150 0 235.5 -104t85.5 -295q0 -124 -36.5 -228.5t-98 -175t-143 -110t-172.5 -39.5zM420 29q80 0 153 36.5t128.5 101t88.5 161t33 209.5q0 175 -77 270.5t-209 95.5q-167 0 -285.5 -140.5t-118.5 -365.5 q0 -175 77 -271.5t210 -96.5z" />
<glyph unicode="&#xf7;" horiz-adv-x="788" d="M424 1028q0 23 17 40t40 17q20 0 32.5 -13t12.5 -32q0 -23 -17 -40t-42 -17q-19 0 -31 13t-12 32zM182 741q-10 0 -14.5 3.5t-3.5 11.5l2 12q2 10 22 10h500q10 0 15 -3t4 -11l-2 -12q-3 -11 -23 -11h-500zM346 479q0 23 18.5 40.5t41.5 17.5q20 0 32.5 -13t12.5 -32 q0 -23 -18.5 -40.5t-41.5 -17.5q-20 0 -32.5 13t-12.5 32z" />
<glyph unicode="&#xf8;" horiz-adv-x="952" d="M920 950q4 0 6 -2t1 -6t-7 -10l-115 -131q59 -100 59 -258q0 -124 -36.5 -228.5t-98 -175t-143 -110t-172.5 -39.5q-146 0 -230 96l-61 -70q-5 -6 -11.5 -13t-9.5 -10.5t-7 -8t-6 -6t-5 -3.5t-5 -2.5t-4.5 -1t-6.5 -0.5h-13q-16 0 -5 16q4 5 9 11l103 117 q-72 104 -72 276q0 124 36.5 229t98.5 174.5t144.5 108.5t173.5 39q153 0 241 -111l64 74q6 6 11.5 13t8.5 11t7 8t5 5.5t3.5 3.5t3.5 2.5t3.5 1t4 0.5h4.5h21zM133 397q0 -154 60 -245l561 645q-74 106 -217 106q-167 0 -285.5 -140.5t-118.5 -365.5zM823 537 q0 137 -49 227l-561 -643q80 -92 207 -92q80 0 153 36.5t128.5 101t88.5 161t33 209.5z" />
<glyph unicode="&#xf9;" horiz-adv-x="882" d="M377 1325q-15 13 -16 21t8 18l8 10q6 10 15.5 9t25.5 -17l178 -188q18 -18 6 -29l-6 -6q-10 -11 -29 8zM811 932q17 0 14 -21l-125 -891q-3 -20 -20 -20h-6q-18 0 -15 20l13 93q-48 -40 -80 -62t-85.5 -41.5t-111.5 -19.5q-127 0 -202 85.5t-52 246.5l84 589q3 21 21 21 h4q20 0 16 -21l-82 -583q-21 -146 41.5 -222.5t175.5 -76.5q53 0 105.5 21t78.5 39.5t82 64.5q9 7 13 10l106 747q4 21 19 21h6z" />
<glyph unicode="&#xfa;" horiz-adv-x="882" d="M518 1145l-4 6q-7 11 14 27l232 188q16 12 23 14.5t18 -6.5l8 -10q8 -9 3.5 -17.5t-24.5 -21.5l-239 -174q-22 -17 -31 -6zM811 932q17 0 14 -21l-125 -891q-3 -20 -20 -20h-6q-18 0 -15 20l13 93q-48 -40 -80 -62t-85.5 -41.5t-111.5 -19.5q-127 0 -202 85.5t-52 246.5 l84 589q3 21 21 21h4q20 0 16 -21l-82 -583q-21 -146 41.5 -222.5t175.5 -76.5q53 0 105.5 21t78.5 39.5t82 64.5q9 7 13 10l106 747q4 21 19 21h6z" />
<glyph unicode="&#xfb;" horiz-adv-x="882" d="M348 1149l-6 8q-7 11 -4 18.5t20 22.5l222 184q15 12 24 0l168 -184q13 -16 12.5 -23.5t-10.5 -17.5l-4 -4q-17 -17 -39 10l-141 180l-199 -182q-18 -17 -27 -19t-16 7zM811 932q17 0 14 -21l-125 -891q-3 -20 -20 -20h-6q-18 0 -15 20l13 93q-48 -40 -80 -62 t-85.5 -41.5t-111.5 -19.5q-127 0 -202 85.5t-52 246.5l84 589q3 21 21 21h4q20 0 16 -21l-82 -583q-21 -146 41.5 -222.5t175.5 -76.5q53 0 105.5 21t78.5 39.5t82 64.5q9 7 13 10l106 747q4 21 19 21h6z" />
<glyph unicode="&#xfc;" horiz-adv-x="882" d="M436 1149q-18 0 -30.5 12.5t-12.5 30.5q0 23 18 39t40 16q18 0 30.5 -12.5t12.5 -30.5q0 -23 -18 -39t-40 -16zM702 1149q-18 0 -30.5 12.5t-12.5 30.5q0 23 18 39t40 16q18 0 30.5 -12.5t12.5 -30.5q0 -23 -18 -39t-40 -16zM811 932q17 0 14 -21l-125 -891 q-3 -20 -20 -20h-6q-18 0 -15 20l13 93q-48 -40 -80 -62t-85.5 -41.5t-111.5 -19.5q-127 0 -202 85.5t-52 246.5l84 589q3 21 21 21h4q20 0 16 -21l-82 -583q-21 -146 41.5 -222.5t175.5 -76.5q53 0 105.5 21t78.5 39.5t82 64.5q9 7 13 10l106 747q4 21 19 21h6z" />
<glyph unicode="&#xfd;" horiz-adv-x="880" d="M537 1151q-22 -17 -31 -6l-4 6q-7 11 14 27l232 188q11 9 16 12t11.5 3t12.5 -7l9 -10q8 -9 3.5 -17.5t-24.5 -21.5zM27 -512q-33 0 -64 8q-30 8 -24 25l4 10q5 14 30 6q24 -8 56 -8q38 0 68.5 13t53.5 39.5t37 49.5t31 58l148 299l-185 915q-6 29 17 29h4q9 0 13 -4 t7 -19l174 -860l420 860q11 23 29 23h2q24 0 10 -29l-606 -1235q-88 -180 -225 -180z" />
<glyph unicode="&#xfe;" horiz-adv-x="964" d="M68 -512q-12 0 -16 5t-3 18l283 2002q2 14 6 18.5t16 4.5h2q20 0 17 -23l-97 -688q72 59 139.5 88t151.5 29q145 0 228.5 -95.5t83.5 -273.5q0 -255 -127 -418t-326 -163q-81 0 -139 29t-113 85l-84 -595q-2 -14 -5 -18.5t-13 -4.5h-4zM432 31q180 0 292 146t112 380 q0 162 -74 254t-207 92q-156 0 -285 -123l-88 -626q94 -123 250 -123z" />
<glyph unicode="&#xff;" horiz-adv-x="880" d="M424 1149q-18 0 -30.5 12.5t-12.5 30.5q0 23 17.5 39t39.5 16q18 0 30.5 -12.5t12.5 -30.5q0 -23 -17.5 -39t-39.5 -16zM690 1149q-18 0 -30.5 12.5t-12.5 30.5q0 23 18 39t40 16q18 0 30.5 -12.5t12.5 -30.5q0 -23 -18 -39t-40 -16zM27 -512q-33 0 -64 8q-30 8 -24 25 l4 10q5 14 30 6q24 -8 56 -8q38 0 68.5 13t53.5 39.5t37 49.5t31 58l148 299l-185 915q-6 29 17 29h4q9 0 13 -4t7 -19l174 -860l420 860q11 23 29 23h2q24 0 10 -29l-606 -1235q-88 -180 -225 -180z" />
<glyph unicode="&#x152;" horiz-adv-x="2181" d="M2165 1536q22 0 18 -18l-2 -11q-3 -12 -20 -12h-684l-95 -657h582q9 0 14.5 -5.5t3.5 -13.5l-2 -10q-3 -12 -20 -12h-582l-106 -756h684q22 0 18 -18l-2 -11q-3 -12 -20 -12h-711q-21 0 -18 20l63 453q-81 -224 -244 -353.5t-378 -129.5q-245 0 -378.5 171.5 t-133.5 487.5q0 255 85.5 458.5t244 321t362.5 117.5q231 0 363.5 -155t146.5 -439l80 564q3 20 22 20h709zM670 31q144 0 264.5 66t202 180.5t127 271t45.5 336.5q0 296 -121.5 458t-349.5 162q-190 0 -337.5 -113t-225.5 -306.5t-78 -434.5q0 -297 122.5 -458.5 t350.5 -161.5z" />
<glyph unicode="&#x153;" horiz-adv-x="1613" d="M1231 942q66 0 123.5 -27t101.5 -78.5t64 -136.5t8 -192q-4 -39 -10 -49t-21 -10h-637q-6 -183 79 -301.5t235 -118.5q129 0 245 77q13 8 19 -4l4 -8q5 -10 -6 -18q-123 -86 -265 -86q-139 0 -229 86.5t-115 236.5q-52 -150 -164 -236.5t-249 -86.5q-151 0 -237.5 105.5 t-86.5 295.5q0 124 36.5 229t98.5 174.5t144.5 108.5t173.5 39q128 0 209.5 -76.5t103.5 -220.5q51 138 154.5 217.5t220.5 79.5zM420 29q80 0 153 36.5t128.5 101t88.5 161t33 209.5q0 175 -77 270.5t-209 95.5q-167 0 -285.5 -140.5t-118.5 -365.5q0 -175 77 -271.5 t210 -96.5zM1483 485q28 193 -47 305.5t-211 112.5q-134 0 -236 -117t-127 -301h621z" />
<glyph unicode="&#x178;" horiz-adv-x="985" d="M530 1640q-18 0 -30.5 12.5t-12.5 30.5q0 23 18 39.5t40 16.5q18 0 30.5 -12.5t12.5 -30.5q0 -23 -18 -39.5t-40 -16.5zM797 1640q-18 0 -30.5 12.5t-12.5 30.5q0 23 17.5 39.5t39.5 16.5q18 0 30.5 -12.5t12.5 -30.5q0 -23 -17.5 -39.5t-39.5 -16.5zM1034 1513 q15 23 33 23h4q13 0 16 -7t-4 -16l-536 -808l-96 -685q-3 -20 -23 -20h-4q-21 0 -18 20l96 685l-307 808q-8 23 16 23h4q21 0 29 -23l282 -772z" />
<glyph unicode="&#x2c6;" horiz-adv-x="630" d="M561 1753l-199 -182q-18 -17 -27 -19t-16 7l-6 8q-7 11 -4 18.5t21 22.5l221 184q15 12 24 0l168 -184q13 -16 12.5 -23.5t-10.5 -17.5l-4 -4q-17 -17 -39 10z" />
<glyph unicode="&#x2dc;" horiz-adv-x="681" d="M682 1559q-34 1 -66.5 18t-54 37t-49 37t-53.5 18q-12 1 -24.5 -1.5t-21.5 -5t-20.5 -10t-17.5 -12t-17 -15.5l-15 -15t-15 -16.5t-13 -14.5q-14 -17 -26 -10l-4 2q-16 8 -2 28q84 115 178 111q32 -1 62.5 -18.5t51 -37t50.5 -37t61 -18.5q14 0 26.5 2t25 9t20 11 t20.5 17t16.5 16t17.5 19t15 17q9 11 13.5 12.5t15.5 -2.5l4 -2q17 -8 2 -29q-82 -110 -180 -110z" />
<glyph unicode="&#x2000;" horiz-adv-x="965" />
<glyph unicode="&#x2001;" horiz-adv-x="1931" />
<glyph unicode="&#x2002;" horiz-adv-x="965" />
<glyph unicode="&#x2003;" horiz-adv-x="1931" />
<glyph unicode="&#x2004;" horiz-adv-x="643" />
<glyph unicode="&#x2005;" horiz-adv-x="482" />
<glyph unicode="&#x2006;" horiz-adv-x="321" />
<glyph unicode="&#x2007;" horiz-adv-x="321" />
<glyph unicode="&#x2008;" horiz-adv-x="241" />
<glyph unicode="&#x2009;" horiz-adv-x="386" />
<glyph unicode="&#x200a;" horiz-adv-x="107" />
<glyph unicode="&#x2010;" horiz-adv-x="749" d="M156 547q-11 0 -16.5 2.5t-4.5 9.5l2 12q3 13 23 13h463q10 0 14.5 -3t3.5 -10l-2 -12q-2 -12 -21 -12h-462z" />
<glyph unicode="&#x2011;" horiz-adv-x="749" d="M156 547q-11 0 -16.5 2.5t-4.5 9.5l2 12q3 13 23 13h463q10 0 14.5 -3t3.5 -10l-2 -12q-2 -12 -21 -12h-462z" />
<glyph unicode="&#x2012;" horiz-adv-x="749" d="M156 547q-11 0 -16.5 2.5t-4.5 9.5l2 12q3 13 23 13h463q10 0 14.5 -3t3.5 -10l-2 -12q-2 -12 -21 -12h-462z" />
<glyph unicode="&#x2013;" horiz-adv-x="1136" d="M156 547q-11 0 -16.5 2.5t-4.5 9.5l2 12q3 13 23 13h850q10 0 14.5 -3t3.5 -10l-2 -12q-2 -12 -20 -12h-850z" />
<glyph unicode="&#x2014;" horiz-adv-x="1382" d="M156 547q-11 0 -16.5 2.5t-4.5 9.5l2 12q3 13 23 13h1095q10 0 15 -3t4 -10l-2 -12q-2 -12 -21 -12h-1095z" />
<glyph unicode="&#x2018;" horiz-adv-x="387" d="M369 1317q0 -27 -18.5 -42t-41.5 -15q-25 0 -38 17.5t-13 45.5q0 44 30 103.5t74 103.5q14 14 21 10l6 -4q6 -4 -6 -20q-66 -87 -66 -125q0 -22 21 -31q31 -12 31 -43z" />
<glyph unicode="&#x2019;" horiz-adv-x="389" d="M283 1489q0 27 18 42t41 15q25 0 38 -17.5t13 -45.5q0 -44 -30 -103.5t-74 -103.5q-14 -14 -21 -10l-6 4q-6 4 6 20q66 87 66 125q0 22 -21 31q-30 11 -30 43z" />
<glyph unicode="&#x201a;" horiz-adv-x="387" d="M78 37q0 27 18 42t41 15q25 0 38 -17.5t13 -45.5q0 -44 -30 -103.5t-74 -103.5q-14 -14 -21 -10l-6 4q-6 4 6 20q66 87 66 125q0 22 -20 31q-31 12 -31 43z" />
<glyph unicode="&#x201c;" horiz-adv-x="610" d="M371 1321q0 -27 -18.5 -42t-41.5 -15q-25 0 -38 17.5t-13 45.5q0 44 30 103t75 104q14 14 20 10l6 -4q6 -4 -6 -20q-66 -87 -66 -125q0 -22 21 -31q31 -12 31 -43zM592 1321q0 -27 -18.5 -42t-41.5 -15q-25 0 -38 17.5t-13 45.5q0 44 30 103t75 104q14 14 20 10l6 -4 q6 -4 -6 -20q-65 -86 -65 -125q0 -22 20 -31q31 -12 31 -43z" />
<glyph unicode="&#x201d;" horiz-adv-x="610" d="M283 1489q0 27 18 42t41 15q25 0 38 -17.5t13 -45.5q0 -44 -30 -103.5t-74 -103.5q-14 -14 -21 -10l-6 4q-6 4 6 20q66 87 66 125q0 22 -21 31q-30 11 -30 43zM504 1489q0 27 18 42t41 15q25 0 38 -17.5t13 -45.5q0 -44 -30 -103.5t-74 -103.5q-14 -14 -21 -10l-6 4 q-6 4 6 20q66 87 66 125q0 22 -20 31q-31 12 -31 43z" />
<glyph unicode="&#x201e;" horiz-adv-x="610" d="M78 35q0 27 18 42t41 15q25 0 38 -17.5t13 -45.5q0 -44 -30 -103.5t-74 -103.5q-14 -14 -21 -10l-6 4q-6 4 6 20q66 87 66 125q0 22 -20 31q-31 12 -31 43zM299 35q0 27 18 42t41 15q25 0 38.5 -17.5t13.5 -45.5q0 -44 -30 -103t-75 -104q-14 -14 -20 -10l-6 4q-6 4 6 20 q65 86 65 125q0 22 -20 31q-31 12 -31 43z" />
<glyph unicode="&#x2022;" horiz-adv-x="495" d="M162 737q0 57 43 98.5t100 41.5q47 0 78 -32.5t31 -78.5q0 -57 -43.5 -98t-100.5 -41q-47 0 -77.5 32t-30.5 78z" />
<glyph unicode="&#x2026;" horiz-adv-x="1130" d="M78 37q0 23 17 40t40 17q20 0 32.5 -13t12.5 -32q0 -23 -17 -40t-42 -17q-19 0 -31 13t-12 32zM455 37q0 23 17 40t40 17q20 0 32.5 -13t12.5 -32q0 -23 -17 -40t-42 -17q-19 0 -31 13t-12 32zM831 37q0 23 17.5 40t40.5 17q20 0 32.5 -13t12.5 -32q0 -23 -17.5 -40 t-42.5 -17q-19 0 -31 13t-12 32z" />
<glyph unicode="&#x202f;" horiz-adv-x="386" />
<glyph unicode="&#x2039;" horiz-adv-x="614" d="M164 489q-20 23 6 46l360 305q13 10 21 2l8 -8q9 -8 -4 -21l-348 -301l258 -289q16 -18 6 -28l-12 -11q-12 -9 -27 6z" />
<glyph unicode="&#x203a;" horiz-adv-x="614" d="M524 489l-352 -299q-19 -16 -29 -6l-8 11q-6 9 15 28l337 289l-262 301q-9 12 0 21l13 8q8 8 18 -2l274 -305q20 -23 -6 -46z" />
<glyph unicode="&#x205f;" horiz-adv-x="482" />
<glyph unicode="&#x20ac;" horiz-adv-x="1155" d="M1214 1391q14 -14 3 -25l-5 -4q-12 -12 -24 0q-143 143 -342 143q-203 0 -365 -156t-225 -417h662q18 0 18 -17v-4q0 -16 -25 -16h-663q-25 -116 -25 -233h656q18 0 18 -17v-4q0 -16 -23 -16h-651q6 -282 124.5 -438t316.5 -156q197 0 358 145q12 9 20 -2l5 -6 q6 -8 -7 -21q-74 -74 -172.5 -115.5t-205.5 -41.5q-221 0 -350.5 166t-133.5 469h-115q-18 0 -18 16v4q0 7 7 12t16 5h110q3 116 25 233h-103q-16 0 -16 16v4q0 17 22 17h103q65 282 240.5 448t400.5 166q209 0 364 -155z" />
<glyph unicode="&#x2122;" horiz-adv-x="1175" d="M272 1526q0 10 15 10h286q15 0 15 -10l-2 -13q0 -10 -17 -10h-123l-75 -532q-3 -17 -17 -17h-12q-11 0 -8 17l76 532h-127q-13 0 -13 10zM852 954q-11 0 -16 13l-101 465l-102 -457q-7 -21 -21 -21h-6q-7 0 -9.5 5t-1.5 11l1 5l121 545q4 16 16 16h4q12 0 15 -10 l112 -522l260 522q3 10 15 10h4q5 0 8 -4t3 -8l1 -4l-31 -545q-2 -21 -20 -21h-4q-6 0 -9.5 5t-3.5 11v5l27 461l-233 -469q-5 -13 -21 -13h-8z" />
<glyph unicode="&#x25fc;" horiz-adv-x="931" d="M0 932h932v-932h-932v932z" />
<glyph unicode="&#xfb01;" horiz-adv-x="899" d="M147 0q-19 0 -16 20l123 875h-131q-10 0 -15 3t-4 11l2 13q2 10 23 10h131l43 301q20 138 117 225.5t235 87.5q46 0 86 -11t64 -24t49 -37.5t34 -36.5t25 -36q11 -17 0 -25l-8 -6q-12 -9 -24 6l-12 16q-12 15 -16.5 20.5t-19 21t-25 22.5t-29 19t-36 17.5t-41 10 t-49.5 4.5q-121 0 -207 -79t-104 -197l-43 -299h526q19 0 15 -21l-125 -891q-3 -20 -21 -20h-4q-19 0 -16 20l123 875h-502l-123 -875q-3 -20 -20 -20h-5z" />
<glyph unicode="&#xfb02;" horiz-adv-x="1132" d="M147 0q-19 0 -16 20l123 875h-131q-10 0 -15 3t-4 11l2 13q2 10 23 10h131l43 301q20 139 115 226t221 87q149 0 235 -123l31 101q5 16 18 10q6 -3 5 -10l-176 -1243q-15 -114 41.5 -178t171.5 -64h8q17 0 14 -16l-2 -11q-3 -12 -22 -12h-5q-135 0 -200.5 74t-46.5 205 l86 616h-502l-123 -875q-3 -20 -20 -20h-5zM301 932h502l61 434q-3 6 -8 15.5t-25.5 33.5t-44 43t-64.5 34t-87 15q-107 0 -190 -76.5t-101 -199.5z" />
<glyph unicode="&#xfb03;" horiz-adv-x="1441" d="M104 909l2 13q2 10 23 10h131l31 219q20 139 116.5 226t223.5 87q46 0 87.5 -12.5t67.5 -31t45 -36.5t27 -30l8 -13q2 4 5 11.5t16 29t29 40.5t43.5 43t59 41t76.5 28.5t95 11.5q48 0 90 -11.5t67.5 -25.5t51 -38.5t34 -36t23.5 -33.5q11 -17 0 -25l-8 -6q-12 -10 -25 6 q-1 1 -12 16t-16 20.5t-19 20.5t-25 22.5t-29 19t-36 17.5t-42 10.5t-50 4.5q-113 0 -200.5 -69.5t-104.5 -186.5l-45 -319h524q18 0 14 -21l-125 -891q-3 -20 -20 -20h-4q-19 0 -16 20l122 875h-501l-123 -875q-3 -20 -21 -20h-4q-19 0 -16 20l123 875h-502l-123 -875 q-3 -20 -20 -20h-5q-19 0 -16 20l123 875h-131q-10 0 -15 3.5t-4 10.5zM301 932h502l49 350q-2 6 -7.5 15.5t-24.5 34t-42.5 43.5t-64 34.5t-86.5 15.5q-109 0 -193.5 -77t-101.5 -199z" />
<glyph unicode="&#xfb04;" horiz-adv-x="1675" d="M104 909l2 13q2 10 23 10h131l31 219q20 140 112.5 226.5t217.5 86.5q46 0 88 -12.5t68.5 -31t46 -36.5t28.5 -30l8 -13q1 4 4 11.5t14.5 29t26 40.5t41 43t57 41t75.5 28.5t96 11.5q155 0 241 -123l33 101q5 16 16 10q5 -3 4 -10l-174 -1243q-15 -114 41.5 -178 t171.5 -64h4q10 0 15 -3t4 -11l-2 -13q-2 -12 -23 -12h-4q-135 0 -201 74t-47 205l86 616h-501l-123 -875q-3 -20 -21 -20h-4q-19 0 -16 20l123 875h-502l-123 -875q-3 -20 -20 -20h-5q-19 0 -16 20l123 875h-131q-10 0 -15 3.5t-4 10.5zM844 932h502l59 434q-3 6 -8 15.5 t-25.5 33.5t-44.5 43t-65.5 34t-87.5 15q-103 0 -188 -63.5t-99 -177.5zM301 932h502l47 352q-3 6 -8.5 15.5t-26.5 33.5t-45.5 43t-66 34t-87.5 15q-108 0 -187.5 -76t-96.5 -200z" />
</font>
</defs>
</svg>
