<?xml version="1.0" standalone="no"?>
<!DOCTYPE svg PUBLIC "-//W3C//DTD SVG 1.1//EN" "http://www.w3.org/Graphics/SVG/1.1/DTD/svg11.dtd" >
<svg xmlns="http://www.w3.org/2000/svg">
<metadata></metadata>
<defs>
<font id="merlo_neueblack" horiz-adv-x="1650" >
<font-face units-per-em="2048" ascent="1536" descent="-512" />
<missing-glyph horiz-adv-x="432" />
<glyph horiz-adv-x="0" />
<glyph horiz-adv-x="682" />
<glyph unicode=" "  horiz-adv-x="432" />
<glyph unicode="&#x09;" horiz-adv-x="432" />
<glyph unicode="&#xa0;" horiz-adv-x="432" />
<glyph unicode="!" horiz-adv-x="552" d="M162 559q-29 0 -47 16.5t-19 45.5l-51 854q-3 61 55 61h353q60 0 57 -61l-53 -854q-1 -29 -18.5 -45.5t-45.5 -16.5h-231zM53 205q0 97 65.5 164t160.5 67q97 0 164 -67t67 -164q0 -95 -67 -160t-164 -65q-95 0 -160.5 65t-65.5 160z" />
<glyph unicode="&#x22;" horiz-adv-x="837" d="M319 1536q30 0 44.5 -18.5t9.5 -51.5l-66 -413q-8 -52 -54 -72.5t-92.5 0t-54.5 72.5l-61 413q-10 70 51 70h223zM741 1536q30 0 44.5 -18.5t9.5 -51.5l-64 -413q-8 -52 -54 -72.5t-92 0t-55 72.5l-65 413q-5 33 9 51.5t44 18.5h223z" />
<glyph unicode="#" horiz-adv-x="1599" d="M850 303h-193l-26 -237q-5 -31 -24 -48.5t-48 -17.5h-233q-31 0 -45.5 16t-10.5 45l31 242h-197q-29 0 -45 16.5t-16 45.5v227q0 61 61 61h238l25 205h-207q-29 0 -45.5 16.5t-16.5 45.5v227q0 29 16.5 45t45.5 16h252l18 160q4 31 23 48.5t47 17.5h233q32 0 47.5 -16.5 t10.5 -45.5l-21 -164h191l18 160q5 31 24 48.5t48 17.5h233q31 0 45.5 -16.5t9.5 -45.5l-20 -164h176q61 0 61 -61v-227q0 -29 -16 -45.5t-45 -16.5h-217l-27 -205h189q61 0 61 -61v-227q0 -29 -16 -45.5t-45 -16.5h-232l-26 -237q-5 -31 -24 -48.5t-48 -17.5h-233 q-29 0 -44 16t-12 45zM700 653h193l25 205h-191z" />
<glyph unicode="$" horiz-adv-x="1257" d="M1223 489q0 -170 -87 -291.5t-241 -181.5v-157q0 -29 -16 -45.5t-45 -16.5h-367q-28 0 -43.5 16.5t-15.5 45.5v133q-118 24 -212.5 66t-144.5 77q-23 18 -2 55l144 256q20 39 63 11q139 -97 291 -97q71 0 107 21t36 57q0 34 -33.5 62.5t-86.5 52t-117.5 50t-129 65.5 t-117.5 88.5t-86.5 128t-33.5 176.5q0 163 86 279.5t236 175.5v143q0 59 59 59h367q61 0 61 -59v-113q102 -23 174 -61t98 -66q25 -22 9 -53l-146 -258q-15 -29 -51 -10q-144 78 -242 78q-54 0 -87.5 -20t-33.5 -50q0 -22 21 -40.5t56 -34t80.5 -32t96 -38t100.5 -48 t95.5 -66t80.5 -88t56 -118t21 -152.5z" />
<glyph unicode="%" horiz-adv-x="1466" d="M293 954q-127 0 -216 90t-89 216q0 128 89 217.5t216 89.5t216 -89.5t89 -217.5q0 -126 -89 -216t-216 -90zM176 0q-32 0 -50 16.5t-5 44.5l706 1409q12 25 19.5 36.5t20.5 20.5t32 9h361q33 0 51 -20t2 -50l-707 -1400q-12 -26 -17.5 -36.5t-18.5 -20t-33 -9.5h-361z M293 1180q32 0 55 24t23 56q0 34 -23 57.5t-55 23.5t-55 -23.5t-23 -57.5q0 -32 23 -56t55 -24zM1184 -27q-126 -3 -216.5 83.5t-93.5 211.5q-3 127 82.5 218t212.5 94q126 3 216.5 -84t93.5 -213q3 -125 -83 -216t-212 -94zM1178 197q32 0 53.5 23.5t21.5 55.5 q-2 34 -24.5 57.5t-54.5 22.5q-31 0 -53.5 -25t-20.5 -57q0 -32 23.5 -55.5t54.5 -21.5z" />
<glyph unicode="&#x26;" horiz-adv-x="1464" d="M664 -31q-117 0 -224.5 28t-196 82.5t-141.5 144t-53 202.5q0 129 62 229t147 160q-76 55 -129 140.5t-53 195.5q0 126 76.5 222.5t197.5 145t264 48.5q154 0 271 -56.5t174 -136.5q37 -53 4 -88l-154 -164q-21 -23 -36.5 -26t-36.5 16q-47 47 -81 65.5t-71 18.5 q-51 0 -85 -29t-34 -77q0 -57 35.5 -95.5t95.5 -42.5q62 -5 62 -61v-189q0 -59 -62 -59q-71 -1 -114 -47t-43 -115q0 -64 48.5 -102.5t119.5 -38.5t120 40t50 101l6 301q0 60 59 60h440q62 0 62 -60v-221q0 -59 -62 -59h-106v-53q0 -91 -40 -175.5t-114 -153t-193 -110 t-265 -41.5z" />
<glyph unicode="'" horiz-adv-x="417" d="M106 1053l-61 413q-10 70 51 70h223q30 0 44.5 -18.5t9.5 -51.5l-66 -413q-8 -52 -54 -72.5t-92.5 0t-54.5 72.5z" />
<glyph unicode="(" horiz-adv-x="813" d="M539 336q0 -38 5.5 -64.5t22 -53t52.5 -41.5t92 -19q29 -1 45 -17.5t16 -44.5v-258q0 -61 -61 -61q-329 0 -487 138.5t-158 395.5v803q0 254 158 392.5t487 142.5q29 0 45 -16.5t16 -45.5v-258q0 -58 -61 -61q-73 -5 -122.5 -53t-49.5 -146v-733z" />
<glyph unicode=")" horiz-adv-x="813" d="M102 -223q-61 0 -61 61v258q0 28 16 44.5t45 17.5q56 4 92.5 19t53.5 41.5t22.5 53t5.5 64.5v733q0 98 -50 146t-124 53q-61 3 -61 61v258q0 29 16 45.5t45 16.5q331 -4 488.5 -142.5t157.5 -392.5v-803q0 -257 -158 -395.5t-488 -138.5z" />
<glyph unicode="*" horiz-adv-x="954" d="M911 1473q9 -26 -2 -47.5t-37 -30.5l-120 -39l73 -103q15 -21 12 -46t-24 -40l-176 -127q-49 -32 -84 15l-76 102l-74 -102q-38 -51 -86 -15l-174 127q-23 17 -26.5 41t12.5 45l76 105l-121 39q-26 8 -37 29t-2 47l68 206q9 27 29 37.5t46 1.5l121 -39v125q0 28 16 45 t44 17h217q28 0 44.5 -17t16.5 -45v-127l119 39q59 19 78 -37z" />
<glyph unicode="+" horiz-adv-x="1097" d="M993 918q60 0 60 -60v-201q0 -59 -60 -59h-282v-285q0 -29 -16.5 -45t-45.5 -16h-200q-60 0 -60 61v285h-285q-61 0 -61 59v201q0 60 61 60h285v286q0 62 60 62h200q29 0 45.5 -16.5t16.5 -45.5v-286h282z" />
<glyph unicode="," horiz-adv-x="575" d="M53 199q0 104 63.5 170.5t164.5 66.5q96 0 162.5 -65.5t66.5 -182.5q0 -135 -81.5 -304.5t-172.5 -272.5q-17 -19 -28.5 -24t-30.5 5l-95 68q-18 13 -19.5 27t11.5 34q3 5 30.5 43.5t45.5 66t35.5 65t17.5 61.5q0 16 -7 27.5t-14 16t-20 9.5q-129 53 -129 189z" />
<glyph unicode="-" horiz-adv-x="851" d="M102 393q-59 0 -59 60v200q0 29 15.5 45.5t43.5 16.5h648q59 0 59 -62v-200q0 -60 -59 -60h-648z" />
<glyph unicode="." horiz-adv-x="565" d="M53 205q0 97 65.5 164t160.5 67q97 0 164 -67t67 -164q0 -95 -67 -160t-164 -65q-95 0 -160.5 65t-65.5 160z" />
<glyph unicode="/" horiz-adv-x="731" d="M96 0q-59 0 -53 61l176 1409q5 31 24 48.5t48 17.5h360q32 0 46.5 -18.5t9.5 -51.5l-179 -1400q-10 -66 -71 -66h-361z" />
<glyph unicode="0" horiz-adv-x="1361" d="M682 -31q-297 0 -464 212t-167 587t167 587t464 212t464 -212t167 -587t-167 -587t-464 -212zM682 350q47 0 74.5 30t45 124t17.5 262q0 131 -9 217.5t-27.5 132t-42 63t-58.5 17.5q-48 0 -76 -31.5t-45.5 -128t-17.5 -270.5q0 -169 17.5 -262.5t45.5 -123.5t76 -30z" />
<glyph unicode="1" horiz-adv-x="944" d="M426 0q-59 0 -59 61v957l-105 -98q-35 -34 -72 0l-180 172q-41 38 0 79l346 336q32 29 70 29h369q61 0 61 -61v-1414q0 -61 -61 -61h-369z" />
<glyph unicode="2" horiz-adv-x="1114" d="M104 0q-61 0 -61 61v279q0 88 29 165.5t76 133.5t103.5 105.5t113 90t103.5 77.5t76 77.5t29 81.5q0 45 -29 75t-81 30q-48 0 -85.5 -24t-88.5 -75q-36 -36 -74 8l-149 183q-32 41 8 84q197 215 497 215q228 0 360 -118.5t132 -318.5q0 -88 -29 -163t-75.5 -127 t-102.5 -97.5t-112 -84t-102.5 -75.5t-75.5 -83t-29 -97v-22h473q29 0 45 -16.5t16 -45.5v-258q0 -61 -61 -61h-906z" />
<glyph unicode="3" horiz-adv-x="1155" d="M549 -31q-96 0 -183 20t-150 52t-106 64t-71 65q-21 27 -21 46t21 40l170 172q36 38 78 4q41 -35 61 -49.5t54 -28.5t71 -14q69 0 108.5 37.5t39.5 103.5q0 72 -42.5 116.5t-115.5 45.5q-60 0 -60 59v189q0 57 60 61t95.5 40.5t35.5 90.5q0 53 -31 83t-82 30 q-73 0 -157 -84q-21 -19 -36.5 -16t-35.5 26l-156 164q-33 35 4 88q58 79 181 136t278 57q142 0 260.5 -48t191 -141t72.5 -213q0 -108 -55 -203t-127 -147q82 -57 145.5 -167t63.5 -238q0 -198 -157 -319.5t-404 -121.5z" />
<glyph unicode="4" horiz-adv-x="1323" d="M715 0q-60 0 -60 61v232h-604q-59 0 -59 59v207q0 61 33 105l602 825q32 47 84 47h374q29 0 45.5 -16t16.5 -45v-822h88q29 0 45 -15.5t16 -43.5v-242q0 -28 -16 -43.5t-45 -15.5h-88v-232q0 -29 -16.5 -45t-45.5 -16h-370zM475 653h180v283z" />
<glyph unicode="5" horiz-adv-x="1200" d="M668 1036q222 0 354.5 -138.5t132.5 -377.5q0 -241 -168.5 -396t-441.5 -155q-86 0 -162 15t-124 33t-95 49.5t-66 48.5t-47 45q-37 36 0 73l199 203q36 36 67 0q79 -86 185 -86q75 0 120.5 49t45.5 129q0 83 -52 135t-137 52h-293q-59 0 -59 59v701q0 61 59 61h818 q61 0 61 -61v-258q0 -29 -16 -45.5t-45 -16.5h-386v-119h50z" />
<glyph unicode="6" horiz-adv-x="1298" d="M702 -29q-313 0 -478 188t-181 521q-12 271 68.5 472.5t240 308t379.5 106.5q301 0 502 -201q27 -27 0 -57l-186 -215q-20 -23 -58 0q-139 92 -246 92q-100 0 -154 -71t-54 -193q3 3 8 7.5t24.5 16.5t43.5 21t64.5 16.5t86.5 7.5q139 0 254.5 -60t184.5 -172.5t69 -254.5 q0 -156 -76.5 -278.5t-205.5 -188.5t-286 -66zM678 334q60 0 95.5 40.5t35.5 106.5q0 67 -37.5 107.5t-99.5 40.5q-10 0 -20 -1.5t-17.5 -3t-16.5 -6t-14 -6.5t-13 -8.5t-11.5 -9t-11 -10.5t-9 -10t-9.5 -11t-9 -10q-2 -102 33 -160.5t104 -58.5z" />
<glyph unicode="7" horiz-adv-x="1067" d="M565 1135h-473q-61 0 -61 61v279q0 61 61 61h903q29 0 45.5 -16t16.5 -45v-244q0 -51 -15 -86l-456 -1084q-25 -61 -70 -61h-358q-32 0 -44.5 16t-2.5 45z" />
<glyph unicode="8" horiz-adv-x="1245" d="M623 -29q-261 0 -420.5 125.5t-159.5 331.5q0 128 63.5 236t167.5 155q-83 48 -131.5 132t-48.5 184q0 187 142.5 309.5t386.5 122.5t386 -122.5t142 -309.5q0 -100 -48.5 -184t-131.5 -132q104 -47 167.5 -155t63.5 -236q0 -206 -159 -331.5t-420 -125.5zM623 1001 q42 0 71 28.5t29 80.5q0 50 -29 77t-71 27q-43 0 -72 -27t-29 -77q0 -51 29.5 -80t71.5 -29zM623 342q58 0 94.5 37t36.5 96q0 61 -36 99t-95 38t-95 -38t-36 -99q0 -59 36.5 -96t94.5 -37z" />
<glyph unicode="9" horiz-adv-x="1298" d="M565 -29q-301 0 -502 201q-27 27 0 57l189 215q20 23 57 0q139 -92 246 -92q100 1 153.5 71.5t53.5 192.5q-2 -3 -7.5 -7.5t-25 -16.5t-43 -21t-64.5 -16.5t-87 -7.5q-138 0 -253 60t-184 172.5t-69 254.5q0 156 76 278.5t205 188.5t286 66q313 0 478 -188t181 -521 q19 -410 -168.5 -648.5t-521.5 -238.5zM625 909q13 0 25.5 2.5t21 4.5t19 8.5t15.5 9.5t15 12.5t12.5 12t12 14t10.5 12.5q2 103 -33 161t-105 58q-58 0 -93.5 -40.5t-35.5 -106.5q0 -67 38 -107.5t98 -40.5z" />
<glyph unicode=":" horiz-adv-x="565" d="M53 848q0 97 65.5 164t160.5 67q97 0 164 -67t67 -164q0 -95 -67 -160t-164 -65q-95 0 -160.5 65t-65.5 160zM53 207q0 97 65.5 164t160.5 67q97 0 164 -67t67 -164q0 -95 -67 -160t-164 -65q-95 0 -160.5 65t-65.5 160z" />
<glyph unicode=";" horiz-adv-x="565" d="M53 848q0 97 65.5 164t160.5 67q97 0 164 -67t67 -164q0 -95 -67 -160t-164 -65q-95 0 -160.5 65t-65.5 160zM53 199q0 104 63.5 170.5t164.5 66.5q96 0 162.5 -65.5t66.5 -182.5q0 -135 -81.5 -304.5t-172.5 -272.5q-17 -19 -28.5 -24t-30.5 5l-95 68q-18 13 -19.5 27 t11.5 34q3 5 30.5 43.5t45.5 66t35.5 65t17.5 61.5q0 16 -7 27.5t-14 16t-20 9.5q-129 53 -129 189z" />
<glyph unicode="&#x3c;" horiz-adv-x="595" d="M66 735q-23 23 -23 42.5t23 41.5l430 404q26 19 41.5 11t15.5 -26v-247q0 -59 -41 -89l-106 -90l106 -100q41 -41 41 -86v-250q0 -16 -14.5 -24.5t-42.5 10.5z" />
<glyph unicode="=" horiz-adv-x="1097" d="M104 858q-61 0 -61 60v200q0 29 16 45.5t45 16.5h889q60 0 60 -62v-200q0 -60 -60 -60h-889zM104 334q-29 0 -45 15.5t-16 43.5v201q0 61 61 61h889q60 0 60 -61v-201q0 -59 -60 -59h-889z" />
<glyph unicode="&#x3e;" horiz-adv-x="595" d="M530 735l-430 -403q-28 -19 -42.5 -10.5t-14.5 24.5v250q0 45 41 86l106 100l-106 90q-41 30 -41 89v247q0 18 15.5 26t41.5 -11l430 -404q23 -22 23 -41.5t-23 -42.5z" />
<glyph unicode="?" horiz-adv-x="958" d="M324 559q-33 0 -47.5 17.5t-14.5 56.5q0 56 23 107t56 90.5t66.5 78t56.5 85.5t23 98q0 58 -29 89t-79 31q-36 0 -73 -18t-57 -35t-48 -45q-36 -36 -74 8l-150 185q-18 26 -15.5 40t22.5 39q69 87 195.5 152.5t303.5 65.5q224 0 359 -113t135 -311q0 -72 -18.5 -128 t-47.5 -89t-66.5 -69t-72 -67.5t-67 -85t-50.5 -120.5q-5 -18 -10.5 -29.5t-18.5 -22t-32 -10.5h-270zM449 -20q-95 0 -160.5 65t-65.5 160q0 97 65.5 164t160.5 67q97 0 164 -67t67 -164q0 -95 -67 -160t-164 -65z" />
<glyph unicode="@" horiz-adv-x="2482" d="M1239 1608q237 0 454 -85.5t377 -232t254.5 -354.5t94.5 -442q0 -145 -33 -268t-91.5 -211t-138 -149.5t-172 -91.5t-194.5 -30q-100 0 -189.5 26t-161 75.5t-113.5 130.5t-42 184v18q-2 -5 -7 -12.5t-22.5 -27.5t-39.5 -35t-60 -27.5t-82 -12.5q-169 0 -271 131.5 t-102 350.5q0 221 104.5 353t276.5 132q44 0 81 -10.5t58.5 -25t36.5 -29t21 -25.5l6 -10v22q0 24 13.5 38t37.5 14h303q52 0 52 -52v-735q0 -50 34 -81.5t88 -31.5q45 0 79 28.5t52 68t29 94t14 95t3 81.5q0 175 -55.5 321t-154.5 246.5t-238.5 156.5t-303.5 56 q-220 0 -389.5 -96.5t-261.5 -268.5t-92 -392q0 -215 97 -389t267.5 -272.5t380.5 -98.5h2q24 0 33.5 -10t9.5 -35l2 -279q-2 -26 -11 -35.5t-34 -9.5h-4q-273 0 -496 85.5t-370.5 236.5t-227.5 357.5t-80 449.5q0 240 92 448.5t250 354t374.5 228.5t459.5 83zM1214 360 q16 0 33.5 6t26.5 12l10 5v319q-31 27 -74 27q-50 0 -78 -48t-28 -136q0 -89 28.5 -137t81.5 -48z" />
<glyph unicode="A" horiz-adv-x="1460" d="M41 0q-64 0 -43 61l487 1414q21 61 80 61h332q57 0 78 -61l489 -1414q21 -61 -43 -61h-381q-62 0 -77 61l-60 218h-344l-59 -218q-15 -61 -80 -61h-379zM657 662h146l-72 258z" />
<glyph unicode="B" horiz-adv-x="1370" d="M150 0q-62 0 -62 61v1414q0 61 62 61h665q233 0 349 -102t116 -295q0 -97 -33.5 -183.5t-95.5 -134.5q80 -53 128 -135.5t48 -216.5q0 -216 -127 -342.5t-366 -126.5h-684zM600 975h92q41 0 64.5 23.5t23.5 60.5q0 39 -23.5 62.5t-64.5 23.5h-92v-170zM600 391h107 q53 0 82.5 28t29.5 79t-29.5 78.5t-82.5 27.5h-107v-213z" />
<glyph unicode="C" horiz-adv-x="1390" d="M827 -27q-233 0 -408 94t-271.5 275t-96.5 428t96.5 428t271.5 275t408 94q170 0 297.5 -53t210.5 -136q27 -27 0 -57l-186 -215q-20 -23 -57 0q-109 70 -211 70q-145 0 -222 -104.5t-77 -301.5q0 -196 77 -300.5t222 -104.5q104 0 211 69q37 23 57 0l186 -215 q27 -30 0 -57q-83 -83 -210.5 -136t-297.5 -53z" />
<glyph unicode="D" horiz-adv-x="1562" d="M150 0q-62 0 -62 61v1414q0 61 62 61h630q366 0 549.5 -193.5t183.5 -574.5t-183.5 -574.5t-549.5 -193.5h-630zM600 391h162q260 0 260 377t-260 377h-162v-754z" />
<glyph unicode="E" horiz-adv-x="1222" d="M150 0q-62 0 -62 61v1414q0 61 62 61h925q62 0 62 -61v-269q0 -61 -62 -61h-475v-168h393q62 0 62 -59v-261q0 -61 -62 -61h-393v-205h496q61 0 61 -61v-269q0 -61 -61 -61h-946z" />
<glyph unicode="F" horiz-adv-x="1150" d="M150 0q-62 0 -62 61v1414q0 61 62 61h884q62 0 62 -61v-269q0 -61 -62 -61h-434v-217h352q62 0 62 -62v-260q0 -59 -62 -59h-352v-486q0 -61 -59 -61h-391z" />
<glyph unicode="G" horiz-adv-x="1515" d="M827 -31q-354 0 -565 213.5t-211 587.5q0 247 96.5 428t271.5 275t408 94q182 0 314 -53t215 -136q27 -27 0 -57l-189 -215q-20 -23 -57 0q-106 70 -229 70q-145 0 -222 -105t-77 -303q0 -195 76.5 -301.5t226.5 -106.5q56 0 100 14t61 27t17 17v88h-191q-61 0 -61 59 v260q0 62 61 62h504q62 0 62 -62l6 -551q1 -35 -25.5 -76t-80.5 -81.5t-126.5 -73.5t-173 -53.5t-211.5 -20.5z" />
<glyph unicode="H" horiz-adv-x="1599" d="M150 0q-62 0 -62 61v1414q0 61 62 61h389q61 0 61 -61v-494h401v494q0 61 62 61h387q61 0 61 -61v-1414q0 -61 -61 -61h-387q-62 0 -62 61v529h-401v-529q0 -61 -61 -61h-389z" />
<glyph unicode="I" horiz-adv-x="688" d="M150 0q-62 0 -62 61v1414q0 61 62 61h389q61 0 61 -61v-1414q0 -61 -61 -61h-389z" />
<glyph unicode="J" horiz-adv-x="1208" d="M502 -31q-157 0 -282 49.5t-195 128.5q-12 13 -12 30.5t12 29.5l237 237q24 24 55 0q5 -4 24.5 -20t25.5 -20.5t23.5 -16t29 -15.5t28.5 -8t35 -4q63 0 99 39t36 111v965q0 61 62 61h389q61 0 61 -61v-943q0 -262 -166.5 -412.5t-461.5 -150.5z" />
<glyph unicode="K" horiz-adv-x="1603" d="M150 0q-62 0 -62 61v1414q0 61 62 61h391q59 0 59 -61v-435l340 461q24 35 66 35h483q31 0 40.5 -17t-9.5 -42l-471 -613l505 -790q22 -32 15.5 -53t-39.5 -21h-486q-16 0 -35 9t-30 26l-260 401l-117 -151l-2 -224q0 -61 -59 -61h-391z" />
<glyph unicode="L" horiz-adv-x="1167" d="M150 0q-62 0 -62 61v1414q0 61 62 61h389q61 0 61 -61v-1084h473q60 0 60 -61v-269q0 -61 -60 -61h-923z" />
<glyph unicode="M" horiz-adv-x="2078" d="M106 0q-70 0 -61 61l172 1414q6 61 62 61h417q43 0 60 -45l282 -756l285 756q17 45 57 45h418q56 0 62 -61l172 -1414q9 -61 -60 -61h-370q-56 0 -62 61l-57 666l-228 -678q-15 -49 -65 -49h-303q-49 0 -64 49l-229 678l-55 -666q-6 -61 -62 -61h-371z" />
<glyph unicode="N" horiz-adv-x="1597" d="M150 0q-62 0 -62 61v1414q0 61 62 61h325q40 0 66 -33l475 -622v594q0 61 61 61h371q61 0 61 -61v-1414q0 -61 -61 -61h-326q-38 0 -75 47l-465 610v-596q0 -61 -62 -61h-370z" />
<glyph unicode="O" d="M827 1567q352 0 562 -213t210 -586t-210 -586t-562 -213q-233 0 -408 94.5t-271.5 276t-96.5 428.5t96.5 428.5t271.5 276t408 94.5zM827 360q116 0 179 102.5t63 305.5t-63 305.5t-179 102.5q-118 0 -181.5 -102.5t-63.5 -305.5t63.5 -305.5t181.5 -102.5z" />
<glyph unicode="P" horiz-adv-x="1415" d="M150 0q-62 0 -62 61v1412q0 61 62 61h624q279 0 445.5 -145t166.5 -377q0 -233 -166.5 -379t-445.5 -146h-174v-426q0 -61 -59 -61h-391zM600 879h135q71 0 107.5 34.5t36.5 98.5q0 131 -144 131h-135v-264z" />
<glyph unicode="Q" d="M1260 74l231 -381q15 -31 2.5 -46.5t-35.5 -15.5h-346q-62 0 -88 45l-174 293h-23q-365 0 -570.5 211.5t-205.5 587.5t205.5 587.5t570.5 211.5q364 0 568 -211.5t204 -587.5q0 -245 -87 -421.5t-252 -272.5zM582 768q0 -203 63.5 -305.5t181.5 -102.5q116 0 179 102.5 t63 305.5t-63 305.5t-179 102.5q-118 0 -181.5 -102.5t-63.5 -305.5z" />
<glyph unicode="R" horiz-adv-x="1474" d="M150 0q-62 0 -62 61v1412q0 61 62 61h606q279 0 445.5 -139t166.5 -367q0 -130 -56 -225.5t-147 -145.5l265 -606q12 -28 -1 -44.5t-34 -16.5h-443q-52 0 -69 45l-207 516h-76v-490q0 -61 -59 -61h-391zM600 913h137q60 0 91.5 29.5t31.5 85.5t-31.5 85.5t-91.5 29.5 h-137v-230z" />
<glyph unicode="S" horiz-adv-x="1255" d="M614 -31q-99 0 -196.5 19t-171.5 49.5t-119 53.5t-76 44q-23 18 -2 55l144 256q20 39 63 11q139 -97 291 -97q71 0 107 21t36 57q0 34 -33.5 62.5t-86.5 52t-117.5 50t-129 65.5t-117.5 88.5t-86.5 128t-33.5 176.5q0 157 82 273t219 174.5t309 58.5q95 0 181.5 -17.5 t144.5 -43.5t93.5 -48t51.5 -39q25 -22 9 -53l-146 -258q-15 -29 -51 -10q-144 78 -242 78q-54 0 -87.5 -20t-33.5 -50q0 -22 21 -40.5t56 -34t80.5 -32t96 -38t100.5 -48t95.5 -66t80.5 -88t56 -118t21 -152.5q0 -161 -79.5 -280t-216.5 -179.5t-313 -60.5z" />
<glyph unicode="T" horiz-adv-x="1243" d="M424 0q-62 0 -62 61v1084h-307q-61 0 -61 61v269q0 61 61 61h1133q59 0 59 -61v-269q0 -61 -59 -61h-316v-1084q0 -61 -59 -61h-389z" />
<glyph unicode="U" horiz-adv-x="1536" d="M768 -31q-352 0 -526 165.5t-174 500.5v840q0 61 61 61h391q60 0 60 -61v-895q0 -115 46.5 -167.5t141.5 -52.5t141.5 52.5t46.5 167.5v895q0 61 60 61h391q61 0 61 -61v-840q0 -335 -174 -500.5t-526 -165.5z" />
<glyph unicode="V" horiz-adv-x="1544" d="M563 0q-59 0 -71 41l-496 1434q-18 61 43 61h379q67 0 82 -61l270 -1020l272 1020q15 61 82 61h379q62 0 41 -61l-493 -1434q-12 -41 -72 -41h-416z" />
<glyph unicode="W" horiz-adv-x="2189" d="M16 1475q-15 61 60 61h391q52 0 61 -61l121 -732l189 744q12 49 65 49h381q54 0 66 -49l188 -744l121 732q9 61 61 61h391q75 0 60 -61l-354 -1414q-15 -61 -66 -61h-397q-44 0 -56 45l-204 774l-205 -774q-12 -45 -55 -45h-398q-50 0 -65 61z" />
<glyph unicode="X" horiz-adv-x="1458" d="M41 0q-69 0 -39 61l410 717l-389 697q-16 31 -7 46t45 15h410q49 0 70 -49l188 -365l186 365q24 49 70 49h410q73 0 39 -61l-390 -697l410 -717q34 -61 -39 -61h-409q-45 0 -70 49l-207 387l-209 -387q-22 -49 -69 -49h-410z" />
<glyph unicode="Y" horiz-adv-x="1439" d="M936 1487q24 49 72 49h391q71 0 37 -61l-461 -850v-564q0 -61 -62 -61h-389q-61 0 -61 61v564l-461 850q-30 61 37 61h391q51 0 72 -49l217 -440z" />
<glyph unicode="Z" horiz-adv-x="1206" d="M102 0q-61 0 -61 61v256q0 45 29 84l571 754h-547q-61 0 -61 62v258q0 61 61 61h1018q62 0 62 -61v-275q0 -49 -23 -78l-580 -741h537q61 0 61 -62v-258q0 -61 -61 -61h-1006z" />
<glyph unicode="[" horiz-adv-x="866" d="M127 -440q-61 0 -61 61v1985q0 61 61 61h637q61 0 61 -61v-258q0 -29 -16 -45.5t-45 -16.5h-225v-1345h225q29 0 45 -16.5t16 -45.5v-258q0 -61 -61 -61h-637z" />
<glyph unicode="\" horiz-adv-x="731" d="M272 0q-59 0 -69 66l-178 1400q-5 33 9 51.5t46 18.5h360q28 0 47 -17.5t23 -48.5l178 -1409q6 -61 -55 -61h-361z" />
<glyph unicode="]" horiz-adv-x="866" d="M102 -440q-61 0 -61 61v258q0 29 16 45.5t45 16.5h226v1345h-226q-29 0 -45 16.5t-16 45.5v258q0 61 61 61h639q28 0 44 -16t16 -45v-1985q0 -29 -16 -45t-44 -16h-639z" />
<glyph unicode="^" horiz-adv-x="1193" d="M598 1235l-256 -285q-39 -45 -84 -2l-123 119q-44 41 2 84l422 395q38 38 76 0l424 -395q46 -43 2 -84l-125 -119q-44 -42 -82 2z" />
<glyph unicode="_" horiz-adv-x="1204" d="M43 -61q0 61 61 61h996q61 0 61 -61v-201q0 -28 -16 -44t-45 -16h-996q-29 0 -45 16t-16 44v201z" />
<glyph unicode="`" horiz-adv-x="1198" d="M287 1505l-396 295q-46 36 -6 82l127 154q40 45 84 4l359 -340q21 -19 21.5 -34.5t-19.5 -39.5l-86 -104q-22 -27 -40.5 -31t-43.5 14z" />
<glyph unicode="a" horiz-adv-x="1206" d="M590 1133q290 0 421.5 -137.5t131.5 -438.5v-496q0 -27 -16.5 -44t-43.5 -17h-368q-27 0 -43.5 17t-16.5 44v33q-4 -5 -12.5 -13.5t-37.5 -30t-60 -38t-79.5 -30t-98.5 -13.5q-146 0 -240 97.5t-94 248.5q0 166 113 263.5t300 97.5q52 0 104.5 -8t78.5 -16l26 -7v19 q0 107 -163 104q-25 -1 -48.5 -3.5t-49 -7.5t-40 -8.5t-42 -10.5t-33.5 -9q-68 -18 -80 29l-60 211q-11 31 -6.5 53.5t35.5 36.5q170 74 422 74zM580 272q18 -1 37 4.5t29 11.5l9 5v121q-3 2 -9 4t-24.5 5.5t-35.5 2.5q-40 -1 -62 -22t-22 -56q0 -34 21.5 -54t56.5 -22z" />
<glyph unicode="b" horiz-adv-x="1318" d="M569 1028q3 4 9.5 11t30.5 25.5t51 32t71.5 25t93.5 11.5q198 0 322.5 -160t124.5 -422q0 -263 -123.5 -422.5t-325.5 -159.5q-53 0 -98.5 12t-72.5 28.5t-47 33.5t-28 29l-8 12v-23q0 -61 -61 -61h-367q-61 0 -61 61v1414q0 61 61 61h367q61 0 61 -61v-447zM569 354 q42 -22 93 -22q59 0 89.5 50t30.5 169t-30.5 169t-89.5 50q-24 0 -47.5 -12t-34.5 -24l-11 -13v-367z" />
<glyph unicode="c" horiz-adv-x="1071" d="M637 -31q-272 0 -430 154.5t-158 427.5t158 427.5t430 154.5q123 0 222 -31.5t163 -81.5q31 -23 10 -64l-121 -217q-19 -35 -59 -14q-5 2 -24 12.5t-33.5 17t-41 12t-53.5 3.5q-77 -6 -120 -63.5t-43 -155.5q0 -99 43 -156t120 -63q27 -2 53.5 3.5t41 12t33.5 17t24 12.5 q38 20 59 -15l121 -217q21 -40 -10 -63q-64 -50 -163 -81.5t-222 -31.5z" />
<glyph unicode="d" horiz-adv-x="1312" d="M752 1049v426q0 61 59 61h367q61 0 61 -61v-1414q0 -61 -61 -61h-367q-59 0 -59 61v23q-3 -5 -8.5 -12.5t-27.5 -27.5t-48.5 -35t-72.5 -27.5t-99 -12.5q-201 0 -324 159.5t-123 422.5t125.5 422.5t331.5 159.5q46 0 88 -8.5t69.5 -21t48.5 -25t30 -20.5zM752 354v387 q-37 29 -88 29q-60 0 -93.5 -57t-33.5 -162t33.5 -162t93.5 -57q22 0 44 5.5t33 10.5z" />
<glyph unicode="e" horiz-adv-x="1193" d="M639 -31q-264 0 -427 155.5t-163 426.5q0 133 45 244t123 184.5t181 113.5t220 40q119 0 220.5 -40.5t173.5 -113t108 -181t25 -237.5q-4 -54 -17 -72t-45 -18h-538q0 -65 42 -103t122 -38q33 0 67.5 8t51 14.5t61.5 24.5q45 19 67 -23q23 -42 65 -117t52 -92 q21 -40 -10 -63q-62 -47 -180.5 -80t-243.5 -33zM545 672h192q0 46 -27.5 75t-68.5 29t-68.5 -29t-27.5 -75z" />
<glyph unicode="f" horiz-adv-x="946" d="M156 756h-82q-29 0 -45.5 16t-16.5 45v223q0 29 16.5 45.5t45.5 16.5h82v141q0 233 132 365.5t359 132.5q252 0 412 -168q24 -25 26.5 -43t-18.5 -43l-143 -141q-24 -24 -40.5 -26.5t-37.5 15.5q-47 43 -103 43q-46 0 -73 -30.5t-27 -85.5v-160h201q29 0 45 -16.5 t16 -45.5v-223q0 -61 -61 -61h-201v-695q0 -29 -15.5 -45t-43.5 -16h-367q-61 0 -61 61v695z" />
<glyph unicode="g" horiz-adv-x="1349" d="M49 199q-1 49 14.5 92.5t37.5 71t45 48t38 29.5t17 9l-4 6q-4 6 -10.5 17t-14 26t-15 36t-14 43.5t-10.5 51.5t-4 59q0 197 146.5 319.5t379.5 122.5q58 0 109.5 -8.5t82.5 -19.5t56.5 -25t33 -20t11.5 -10v4q0 29 11 40t40 11h209q29 0 45.5 -16.5t16.5 -45.5v-374 q0 -198 -150 -319.5t-395 -121.5q-58 0 -105.5 9.5t-64.5 17t-20 10.5l-4 -2l-8 -6t-8.5 -8t-7.5 -12.5t-3 -16.5q0 -29 37 -44t96 -15h219q216 0 336.5 -97.5t120.5 -269.5q0 -189 -163 -294t-468 -105q-291 0 -457 94.5t-166 263.5q0 50 15.5 90.5t37.5 63t44 38t38 20.5 l15 5l-6 3q-6 2 -15 7t-21.5 12t-25.5 17.5t-26 23.5t-25 31t-21 38t-14.5 46t-5.5 54zM694 565q45 -3 76.5 24.5t34.5 74.5q4 46 -23 77.5t-73 34.5t-78 -24t-35 -72q-3 -47 24.5 -79.5t73.5 -35.5zM541 -203q0 -65 149 -65q141 0 141 63q0 49 -63 49h-168q-28 0 -43.5 -13 t-15.5 -34z" />
<glyph unicode="h" horiz-adv-x="1347" d="M141 0q-61 0 -61 61v1414q0 61 61 61h326q59 0 59 -61v-469l13.5 13.5t40 30.5t66.5 39t91.5 30.5t116.5 13.5q70 0 133 -17.5t117.5 -54.5t94 -90t62.5 -129.5t23 -167.5v-613q0 -61 -61 -61h-367q-61 0 -61 61v590q0 57 -28.5 88t-78.5 31q-35 0 -64.5 -15t-41.5 -31 l-13 -15v-648q0 -61 -61 -61h-367z" />
<glyph unicode="i" horiz-adv-x="659" d="M328 1225q-114 0 -193.5 79t-79.5 193q0 113 80 195t193 82q112 0 194 -82t82 -195t-81.5 -192.5t-194.5 -79.5zM154 0q-62 0 -62 61v979q0 62 62 62h366q62 0 62 -62v-979q0 -61 -62 -61h-366z" />
<glyph unicode="j" horiz-adv-x="661" d="M328 1223q-113 0 -192 79t-79 193q0 113 79.5 195t191.5 82q114 0 196 -82t82 -195t-81.5 -192.5t-196.5 -79.5zM90 -608q-250 0 -412 166q-24 27 -26.5 44t18.5 42l144 143q24 22 40 24t37 -16q47 -43 103 -43q47 0 73.5 31t26.5 86v1171q0 28 16 45t46 17h366 q60 0 60 -62v-1153q0 -232 -132.5 -363.5t-359.5 -131.5z" />
<glyph unicode="k" horiz-adv-x="1339" d="M141 0q-28 0 -44.5 16.5t-16.5 44.5v1414q0 28 16.5 44.5t44.5 16.5h367q28 0 44.5 -16.5t16.5 -44.5v-672l222 258q25 30 37 35q12 6 32 6h395q23 0 32 -21t-9 -43l-336 -393l393 -577q17 -26 7 -47t-37 -21h-379q-23 0 -40 8.5t-25 18t-23 30.5l-174 262l-95 -112v-146 q0 -28 -16.5 -44.5t-44.5 -16.5h-367z" />
<glyph unicode="l" horiz-adv-x="837" d="M625 0q-264 0 -413 150t-149 415v910q0 61 62 61h367q61 0 61 -61v-893q0 -91 47.5 -156.5t132.5 -65.5h6q58 0 58 -59v-240q0 -61 -62 -61h-110z" />
<glyph unicode="m" horiz-adv-x="2007" d="M1528 1133q83 0 156.5 -28.5t132.5 -83t93 -144t34 -203.5v-613q0 -61 -62 -61h-366q-62 0 -62 61v598q0 55 -26 83t-70 28q-58 0 -107 -49v-29v-631q0 -61 -59 -61h-367q-61 0 -61 61v598q0 55 -26 83t-70 28q-30 0 -57.5 -13t-39.5 -25l-12 -13v-658q0 -61 -61 -61 h-367q-61 0 -61 61v979q0 62 61 62h326q59 0 59 -62v-24q5 5 15.5 13t43.5 28t68.5 35.5t88.5 28t106 12.5q204 0 321 -138q188 138 369 138z" />
<glyph unicode="n" horiz-adv-x="1337" d="M131 0q-61 0 -61 61v979q0 62 61 62h326q59 0 59 -62v-45q5 6 13.5 15t40 33t66.5 42t91.5 33t116.5 15q70 0 133 -17.5t117.5 -54.5t94 -90t62.5 -129.5t23 -167.5v-613q0 -61 -62 -61h-366q-62 0 -62 61v590q0 56 -28 87.5t-76 31.5q-36 0 -66 -18t-42 -36l-13 -18 v-637q0 -61 -61 -61h-367z" />
<glyph unicode="o" horiz-adv-x="1282" d="M641 -31q-279 0 -435.5 154t-156.5 428t156.5 428t435.5 154q281 0 437.5 -154t156.5 -428t-156.5 -428t-437.5 -154zM641 332q52 0 78 49t26 170t-26 170t-78 49t-78 -49t-26 -170t26 -170t78 -49z" />
<glyph unicode="p" horiz-adv-x="1308" d="M559 1028q3 4 9.5 11t30.5 25.5t51 32t71.5 25t93.5 11.5q198 0 322.5 -160t124.5 -422q0 -263 -123.5 -422.5t-325.5 -159.5q-53 0 -98.5 12t-72.5 28.5t-47 33.5t-28 29l-8 12v-535q0 -61 -61 -61h-367q-61 0 -61 61v1491q0 29 16 45.5t45 16.5h367q29 0 45 -16.5 t16 -45.5v-12zM559 354q41 -22 92 -22q59 0 90 50t31 169t-31 169t-90 50q-24 0 -47 -12t-34 -24l-11 -13v-367z" />
<glyph unicode="q" horiz-adv-x="1292" d="M752 1028v12q0 62 59 62h367q29 0 45 -16.5t16 -45.5v-1491q0 -61 -61 -61h-367q-59 0 -59 61v535q-3 -5 -8.5 -12.5t-27.5 -27.5t-48.5 -35t-72.5 -27.5t-99 -12.5q-201 0 -324 159.5t-123 422.5q0 262 123.5 422t321.5 160q49 0 94 -11t73.5 -26.5t50 -30.5t30.5 -26z M752 354v367q-4 5 -12 13.5t-33 22t-50 13.5q-59 0 -89.5 -50t-30.5 -169t30.5 -169t89.5 -50q24 0 47.5 5.5t35.5 10.5z" />
<glyph unicode="r" horiz-adv-x="1036" d="M518 1042v-47q4 6 11 15t32 33t53 42t73 33t93 15q90 0 161.5 -39.5t109.5 -87.5q37 -43 12 -72q-118 -136 -186 -229q-28 -37 -54 -11q-58 58 -129 58q-29 0 -53 -12t-38.5 -29t-25 -34.5t-14.5 -29.5l-4 -12v-574q0 -61 -61 -61h-367q-61 0 -61 61v979q0 62 61 62h328 q59 0 59 -60z" />
<glyph unicode="s" horiz-adv-x="1075" d="M520 -31q-144 0 -263 36.5t-185 80.5q-20 12 -22.5 24.5t9.5 34.5l91 166q34 68 88 41q144 -80 229 -80q36 0 56 12.5t20 30.5q0 24 -35.5 43t-114.5 43q-46 15 -82.5 30t-80.5 44t-73.5 63.5t-50 88t-20.5 118.5q0 121 69 210.5t182 133.5t255 44q119 0 228.5 -33 t170.5 -80q20 -15 22 -27t-9 -32l-105 -187q-19 -32 -65 -8q-113 63 -189 63q-74 0 -74 -45q0 -24 27.5 -38.5t98.5 -36.5q14 -5 22 -7q69 -21 120 -46.5t98.5 -65.5t72 -100t24.5 -138q0 -181 -134.5 -282t-379.5 -101z" />
<glyph unicode="t" horiz-adv-x="1075" d="M647 -31q-227 0 -359 132.5t-132 363.5v291h-82q-29 0 -45.5 16t-16.5 45v223q0 29 16.5 45.5t45.5 16.5h82v221q0 61 61 61h367q28 0 43.5 -16t15.5 -45v-221h242q28 0 43.5 -16.5t15.5 -45.5v-223q0 -29 -15.5 -45t-43.5 -16h-242v-310q0 -55 27 -84.5t73 -29.5 q56 0 103 43q21 18 37.5 16t40.5 -26l143 -142q21 -25 18.5 -43t-26.5 -43q-160 -168 -412 -168z" />
<glyph unicode="u" horiz-adv-x="1316" d="M1182 1102q61 0 61 -62v-979q0 -61 -61 -61h-326q-59 0 -59 61v45q-5 -6 -13.5 -15t-39 -32.5t-65 -41.5t-89 -33t-111.5 -15q-84 0 -159 30t-133.5 86.5t-93 147.5t-34.5 205v602q0 62 62 62h366q62 0 62 -62v-589q0 -57 22.5 -88t65.5 -31q29 0 58.5 13t44.5 27l14 13 v655q0 62 61 62h367z" />
<glyph unicode="v" horiz-adv-x="1312" d="M455 0q-47 0 -68 57l-385 985q-10 25 5.5 42.5t43.5 17.5h367q21 0 39 -12.5t24 -34.5l176 -625l174 625q6 22 25 34.5t41 12.5h367q26 0 41.5 -17.5t5.5 -42.5l-385 -985q-21 -57 -68 -57h-403z" />
<glyph unicode="w" horiz-adv-x="2023" d="M377 0q-52 0 -70 57l-297 990q-7 25 8 40t43 15h367q26 0 45 -14t23 -37l116 -594l146 587q6 24 25 41t44 17h369q26 0 45.5 -17t24.5 -41l143 -587l119 594q10 51 67 51h367q28 0 43 -15t8 -40l-297 -990q-18 -57 -69 -57h-424q-50 0 -68 57l-143 484l-144 -484 q-6 -25 -24.5 -41t-44.5 -16h-422z" />
<glyph unicode="x" horiz-adv-x="1288" d="M76 0q-21 0 -30 10.5t-6.5 25t13.5 30.5l332 499l-330 469q-17 22 -11.5 45t34.5 23h387q31 0 50 -16t40 -52l88 -153l90 153q21 37 39 52.5t49 15.5h387q30 0 35 -23t-12 -45l-328 -469l332 -499q17 -23 12 -44.5t-35 -21.5h-405q-13 0 -22 3.5t-18.5 15.5t-13 18.5 t-16.5 28.5l-94 159l-92 -159q-13 -22 -16.5 -28.5t-13 -18.5t-18.5 -15.5t-22 -3.5h-405z" />
<glyph unicode="y" horiz-adv-x="1329" d="M297 -608q-197 0 -334 86q-41 25 -20 71l106 236q8 17 23.5 26.5t36.5 0.5q65 -29 116 -29q37 0 65.5 11t49 34.5t31.5 42.5t26 51l31 74l-410 1046q-10 25 6 42.5t44 17.5h366q22 0 40 -12.5t24 -34.5l176 -625l174 625q6 22 24.5 34.5t40.5 12.5h367q26 0 41.5 -17.5 t5.5 -42.5l-459 -1179q-48 -117 -99.5 -200t-119.5 -146t-155.5 -94t-196.5 -31z" />
<glyph unicode="z" horiz-adv-x="1142" d="M676 342h354q60 0 60 -61v-220q0 -61 -60 -61h-917q-60 0 -60 61v224q0 38 15 53l381 422h-316q-59 0 -59 61v219q0 62 59 62h887q59 0 59 -62v-196q0 -52 -22 -80z" />
<glyph unicode="{" horiz-adv-x="1001" d="M899 -440q-329 0 -487 138.5t-160 395.5l-2 293q0 93 -30 135.5t-97 42.5q-29 0 -45.5 16.5t-16.5 45.5v258q0 29 16.5 45t45.5 16q66 0 95.5 42.5t31.5 135.5l2 93q13 534 647 534q59 0 59 -61v-260q0 -57 -59 -60q-73 -3 -123 -52t-51 -147l-2 -190q-1 -77 -28 -127.5 t-74 -97.5q102 -102 102 -242l2 -395q0 -38 5.5 -64.5t22.5 -53.5t53.5 -42t92.5 -18q59 -3 59 -62v-258q0 -61 -59 -61z" />
<glyph unicode="|" horiz-adv-x="651" d="M141 -608q-61 0 -61 59v2024q0 61 61 61h367q61 0 61 -61v-2024q0 -59 -61 -59h-367z" />
<glyph unicode="}" horiz-adv-x="1001" d="M102 -440q-61 0 -61 61v258q0 28 16 44.5t45 17.5q56 3 92.5 18t53.5 42t22.5 53.5t5.5 64.5l3 395q0 142 100 242q-46 46 -72.5 96.5t-27.5 128.5l-3 190q-1 98 -51 147t-123 52q-29 1 -45 17.5t-16 42.5v260q0 61 61 61q327 0 484 -139t162 -395l2 -93q2 -92 32.5 -135 t96.5 -43q61 0 61 -61v-258q0 -29 -16 -45.5t-45 -16.5q-67 0 -98 -43t-31 -135l-2 -293q0 -257 -158.5 -395.5t-487.5 -138.5z" />
<glyph unicode="~" horiz-adv-x="1171" d="M786 618q-67 0 -134 24t-127 47.5t-109 23.5q-40 0 -86 -16t-76 -54q-18 -22 -36.5 -22.5t-37.5 14.5l-117 76q-19 13 -19.5 34.5t13.5 38.5q61 81 145 135t185 54q63 0 128.5 -23t126 -46t110.5 -23q104 0 159 69q30 35 72 8l127 -88q36 -26 6 -73q-60 -79 -144.5 -129 t-185.5 -50z" />
<glyph unicode="&#xa1;" horiz-adv-x="555" d="M55 819q0 95 65.5 160t160.5 65q97 0 164 -65t67 -160q0 -97 -67 -164t-164 -67q-95 0 -160.5 67t-65.5 164zM164 465h231q28 0 45.5 -16.5t18.5 -45.5l53 -854q3 -61 -57 -61h-353q-58 0 -55 61l51 854q1 29 19 45.5t47 16.5z" />
<glyph unicode="&#xa2;" horiz-adv-x="1071" d="M911 362l121 -217q21 -40 -10 -63q-65 -52 -158 -80v-143q0 -29 -16 -45.5t-45 -16.5h-367q-29 0 -45 16.5t-16 45.5v157q-155 61 -240.5 199t-85.5 336t85.5 335.5t240.5 198.5v158q0 29 16 45.5t45 16.5h367q29 0 45 -16.5t16 -45.5v-143q93 -28 158 -80q31 -23 10 -64 l-121 -217q-19 -35 -59 -14q-5 2 -24 12.5t-33.5 17t-41 12t-53.5 3.5q-77 -6 -120 -63.5t-43 -155.5q0 -99 43 -156t120 -63q27 -2 53.5 3.5t41 12t33.5 17t24 12.5q38 20 59 -15z" />
<glyph unicode="&#xa3;" horiz-adv-x="1232" d="M1139 391q61 0 61 -61v-269q0 -61 -61 -61h-922q-61 0 -61 61v512h-82q-29 0 -45.5 16.5t-16.5 45.5v223q0 29 16.5 45.5t45.5 16.5h82v153q0 126 37.5 222t106 155.5t161 89t207.5 29.5q251 0 411 -168q24 -25 26.5 -43t-18.5 -43l-143 -141q-24 -24 -40.5 -26.5 t-37.5 15.5q-47 43 -102 43q-46 0 -72 -30t-26 -84v-172h360q29 0 45 -16.5t16 -45.5v-223q0 -29 -16 -45.5t-45 -16.5h-360v-182h473z" />
<glyph unicode="&#xa5;" horiz-adv-x="1497" d="M1427 1536q71 0 37 -61l-424 -781h97q61 0 61 -61v-105q0 -61 -61 -61h-133v-82h133q61 0 61 -61v-105q0 -61 -61 -61h-133v-97q0 -61 -62 -61h-389q-61 0 -61 61v97h-132q-61 0 -61 61v105q0 61 61 61h132v82h-132q-61 0 -61 61v105q0 61 61 61h95l-424 781 q-30 61 37 61h391q50 0 71 -49l218 -440l217 440q24 49 71 49h391z" />
<glyph unicode="&#xa7;" horiz-adv-x="1046" d="M1016 754q0 -155 -64 -248q64 -77 64 -201q0 -175 -135 -275t-379 -100q-144 0 -263.5 36.5t-185.5 80.5q-19 12 -21.5 24.5t9.5 34.5l90 166q35 67 88 41q148 -82 230 -82q36 0 56.5 13t20.5 32q0 24 -34 41.5t-117 44.5q-46 15 -82.5 30t-80.5 44t-73.5 63.5t-50 88 t-20.5 117.5q0 157 73 247q-73 76 -73 201q0 182 143.5 284.5t361.5 102.5q120 0 230.5 -32t171.5 -78q19 -14 20.5 -27.5t-8.5 -32.5l-106 -186q-19 -32 -66 -8q-1 0 -25 12.5t-45.5 22.5t-54.5 19t-61 9q-76 0 -76 -45q0 -29 49 -50q16 -6 98 -34q55 -17 97 -35t85 -47.5 t71 -65.5t45.5 -89.5t17.5 -118.5zM459 748q0 -22 11.5 -37.5t38.5 -25t45 -13.5t58 -10q25 38 25 65q0 21 -12.5 36t-38.5 24t-49 13t-60 9q-18 -32 -18 -61z" />
<glyph unicode="&#xa8;" horiz-adv-x="1253" d="M356 1442q-91 0 -154 62t-63 151q0 90 63.5 154.5t153.5 64.5q88 0 152.5 -65t64.5 -154t-64.5 -151t-152.5 -62zM889 1442q-89 0 -151 62t-62 151q0 90 62 154.5t151 64.5t154 -65t65 -154t-64.5 -151t-154.5 -62z" />
<glyph unicode="&#xa9;" horiz-adv-x="1679" d="M850 -29q-234 0 -418 101.5t-286.5 283t-102.5 412.5t102.5 413t286.5 284t418 102q171 0 317 -59.5t249 -164.5t161.5 -253.5t58.5 -321.5q0 -231 -100 -412.5t-279 -283t-407 -101.5zM848 244q220 0 360 147t140 377t-140 377t-360 147q-227 0 -372.5 -147t-145.5 -377 t145.5 -377t372.5 -147zM858 406q-170 0 -270.5 97t-100.5 269t100.5 269.5t270.5 97.5q97 0 167.5 -32.5t104.5 -74.5q28 -32 7 -53q-74 -74 -86 -84q-25 -29 -52 -18q-6 3 -23.5 13.5t-34 15.5t-38.5 5q-53 0 -89 -35.5t-36 -103.5t36 -103.5t89 -35.5q22 0 38 5.5 t32.5 16t23.5 13.5q6 2 11 2.5t11 -2t8.5 -4t11 -7.5t10.5 -8q6 -4 86 -84q19 -24 -7 -53q-34 -42 -103 -74t-167 -32z" />
<glyph unicode="&#xab;" horiz-adv-x="1081" d="M45 489q-23 23 -23 42.5t23 41.5l430 404q26 19 41.5 11t15.5 -25v-248q0 -58 -40 -88l-107 -90l107 -101q40 -40 40 -86v-250q0 -16 -14.5 -24.5t-42.5 10.5zM551 489q-23 23 -23 42.5t23 41.5l430 404q26 19 41.5 11t15.5 -25v-248q0 -58 -41 -88l-106 -90l106 -101 q41 -41 41 -86v-250q0 -16 -14.5 -24.5t-42.5 10.5z" />
<glyph unicode="&#xad;" horiz-adv-x="851" d="M102 393q-59 0 -59 60v200q0 29 15.5 45.5t43.5 16.5h648q59 0 59 -62v-200q0 -60 -59 -60h-648z" />
<glyph unicode="&#xae;" horiz-adv-x="1679" d="M850 -29q-234 0 -418 101.5t-286.5 283t-102.5 412.5t102.5 413t286.5 284t418 102q171 0 317 -59.5t249 -164.5t161.5 -253.5t58.5 -321.5q0 -231 -100 -412.5t-279 -283t-407 -101.5zM848 244q220 0 360 147t140 377t-140 377t-360 147q-227 0 -372.5 -147t-145.5 -377 t145.5 -377t372.5 -147zM590 406q-25 0 -25 24v682q0 25 25 25h299q114 0 189 -65.5t75 -176.5q0 -91 -43.5 -143t-103.5 -68l165 -254q6 -10 1 -17t-19 -7h-170q-21 0 -33 18l-149 233h-23v-227q0 -24 -26 -24h-162zM778 827h60q45 0 70.5 13.5t25.5 56.5q0 41 -25 53.5 t-71 12.5h-60v-136z" />
<glyph unicode="&#xaf;" horiz-adv-x="786" d="M-18 1655q0 59 59 59h704q62 0 62 -59v-150q0 -59 -62 -59h-704q-59 0 -59 59v150z" />
<glyph unicode="&#xb0;" horiz-adv-x="698" d="M348 905q-127 0 -216 89.5t-89 215.5q0 128 89 218t216 90t216 -90t89 -218q0 -126 -89 -215.5t-216 -89.5zM348 1130q32 0 55 24t23 56q0 34 -23 58t-55 24t-55 -24t-23 -58q0 -32 23 -56t55 -24z" />
<glyph unicode="&#xb4;" horiz-adv-x="1198" d="M190 1505q-25 -18 -42.5 -14t-38.5 31l-86 104q-20 24 -19.5 39.5t21.5 34.5l358 340q42 42 82 -4l129 -154q38 -47 -6 -82z" />
<glyph unicode="&#xb6;" horiz-adv-x="2119" d="M1452 -598q-23 0 -42 19t-19 42v1674h-224v-1674q0 -23 -18 -42t-41 -19h-371q-23 0 -42 19t-19 42v1094h-109q-224 0 -374 140.5t-150 349.5t142 349t354 140h1476q28 0 45 -16.5t17 -44.5v-277q0 -28 -17 -44.5t-45 -16.5h-131v-1674q0 -23 -19 -42t-42 -19h-371z" />
<glyph unicode="&#xb7;" horiz-adv-x="630" d="M309 516q-113 2 -189 81t-73 191q2 111 81 190.5t189 78.5q111 -3 190.5 -85t78.5 -194q-1 -110 -83.5 -187t-193.5 -75z" />
<glyph unicode="&#xb8;" horiz-adv-x="1202" d="M565 -616q-85 0 -139 26q-22 12 -12 41l59 166q10 29 39 16q22 -10 43 -10q34 0 53 18t19 46q0 30 -20 45.5t-48 15.5q-36 0 -61 -29q-11 -19 -45 -12l-111 27q-21 4 -30.5 17.5t-4.5 31.5l82 293l217 -17l-45 -133q39 17 92 17q105 0 171.5 -75t66.5 -190 q0 -94 -47.5 -162.5t-120 -100t-158.5 -31.5z" />
<glyph unicode="&#xbb;" horiz-adv-x="1081" d="M530 489l-430 -403q-28 -19 -42.5 -10.5t-14.5 24.5v250q0 45 41 86l106 101l-106 90q-41 30 -41 88v248q0 17 15.5 25t41.5 -11l430 -404q23 -22 23 -41.5t-23 -42.5zM1036 489l-430 -403q-28 -19 -42.5 -10.5t-14.5 24.5v250q0 45 41 86l106 101l-106 90q-41 30 -41 88 v248q0 17 15.5 25t41.5 -11l430 -404q23 -22 23 -41.5t-23 -42.5z" />
<glyph unicode="&#xbc;" horiz-adv-x="1525" d="M229 856q-24 0 -24 25v379l-51 -54q-16 -16 -29 0l-115 117q-19 19 0 35l193 166q12 12 26 12h213q11 0 18 -8t7 -21v-626q0 -11 -7.5 -18t-17.5 -7h-213zM248 0q-31 0 -48.5 16.5t-6.5 44.5l710 1409q12 25 19.5 36.5t20.5 20.5t32 9h280q35 0 53.5 -20t2.5 -50 l-711 -1400q-13 -27 -19 -37t-19.5 -19.5t-33.5 -9.5h-280zM1192 6q-10 0 -17.5 7t-7.5 18v96h-254q-24 0 -24 25v137q0 26 14 45l256 344q16 20 33 20h213q25 0 25 -26v-344h38q25 0 25 -23v-153q0 -25 -25 -25h-38v-96q0 -25 -25 -25h-213zM1104 328h63v86z" />
<glyph unicode="&#xbd;" horiz-adv-x="1511" d="M229 856q-24 0 -24 25v379l-51 -54q-16 -16 -29 0l-115 117q-19 19 0 35l193 166q12 12 26 12h213q11 0 18 -8t7 -21v-626q0 -11 -7.5 -18t-17.5 -7h-213zM248 0q-31 0 -48.5 16.5t-6.5 44.5l710 1409q12 25 19.5 36.5t20.5 20.5t32 9h280q35 0 53.5 -20t2.5 -50 l-711 -1400q-13 -27 -19 -37t-19.5 -19.5t-33.5 -9.5h-280zM1030 0q-10 0 -17 7t-7 18v139q0 43 22.5 83t55 69.5t64.5 55t54.5 50t22.5 43.5q0 24 -27 24q-28 0 -70 -36q-17 -14 -32 4l-99 121q-12 15 7 34q90 90 229 90q109 0 177.5 -59t68.5 -151q0 -43 -15.5 -79.5 t-39 -60t-51 -44.5t-51 -35t-39 -29t-15.5 -29v-4h188q25 0 25 -25v-161q0 -25 -25 -25h-426z" />
<glyph unicode="&#xbe;" horiz-adv-x="1525" d="M276 844q-85 0 -152 33.5t-99 70.5q-14 16 0 33l86 123q12 18 32 2q51 -41 84 -41q39 0 39 37q0 16 -12.5 28.5t-34.5 12.5q-24 0 -24 24v88q0 11 4 16.5t8.5 7t11.5 1.5q19 0 31 15t12 30q0 12 -9 19.5t-24 7.5q-32 0 -69 -37q-14 -14 -31 6l-80 96q-14 16 2 35 q33 38 95.5 70t138.5 32q96 0 164.5 -50.5t68.5 -135.5q0 -51 -24.5 -91.5t-55.5 -57.5q34 -13 62 -59.5t28 -106.5q0 -94 -73 -151.5t-179 -57.5zM248 0q-31 0 -48.5 16.5t-6.5 44.5l710 1409q12 25 19.5 36.5t20.5 20.5t32 9h280q35 0 53.5 -20t2.5 -50l-711 -1400 q-13 -27 -19 -37t-19.5 -19.5t-33.5 -9.5h-280zM1192 6q-10 0 -17.5 7t-7.5 18v96h-254q-24 0 -24 25v137q0 26 14 45l256 344q16 20 33 20h213q25 0 25 -26v-344h38q25 0 25 -23v-153q0 -25 -25 -25h-38v-96q0 -25 -25 -25h-213zM1104 328h63v86z" />
<glyph unicode="&#xbf;" horiz-adv-x="1216" d="M672 1042q95 0 160 -65t65 -160q0 -97 -65 -164t-160 -67q-97 0 -164.5 67t-67.5 164q0 95 67.5 160t164.5 65zM797 463q33 0 47 -17.5t14 -56.5q0 -56 -23 -107t-56 -90.5t-66.5 -78t-56.5 -85.5t-23 -98q0 -58 29 -89t79 -31q36 0 73 17.5t57.5 35t48.5 45.5 q36 36 73 -8l150 -185q13 -15 15 -28.5t-3 -24.5t-18 -27q-31 -39 -74 -74t-104 -69t-145 -54t-177 -20q-224 0 -359 113t-135 311q0 72 18.5 128t47.5 89t66.5 69t72 67.5t67 85t50.5 120.5q5 18 10.5 29.5t18.5 22t32 10.5h271z" />
<glyph unicode="&#xc0;" horiz-adv-x="1460" d="M713 1657l-396 295q-46 36 -6 82l127 153q40 45 84 4l359 -340q21 -19 21.5 -34t-19.5 -39l-86 -105q-22 -27 -40.5 -30.5t-43.5 14.5zM41 0q-64 0 -43 61l487 1414q21 61 80 61h332q57 0 78 -61l489 -1414q21 -61 -43 -61h-381q-62 0 -77 61l-60 218h-344l-59 -218 q-15 -61 -80 -61h-379zM657 662h146l-72 258z" />
<glyph unicode="&#xc1;" horiz-adv-x="1460" d="M731 1657q-25 -18 -43 -14.5t-39 30.5l-86 105q-20 24 -19.5 39t21.5 34l359 340q42 42 82 -4l129 -153q38 -46 -7 -82zM41 0q-64 0 -43 61l487 1414q21 61 80 61h332q57 0 78 -61l489 -1414q21 -61 -43 -61h-381q-62 0 -77 61l-60 218h-344l-59 -218q-15 -61 -80 -61 h-379zM657 662h146l-72 258z" />
<glyph unicode="&#xc2;" horiz-adv-x="1460" d="M731 1847l-194 -184q-42 -42 -84 -2l-123 121q-46 43 0 82l362 295q22 17 38 17t38 -17l362 -295q46 -39 3 -82l-125 -121q-42 -40 -84 2zM41 0q-64 0 -43 61l487 1414q21 61 80 61h332q57 0 78 -61l489 -1414q21 -61 -43 -61h-381q-62 0 -77 61l-60 218h-344l-59 -218 q-15 -61 -80 -61h-379zM657 662h146l-72 258z" />
<glyph unicode="&#xc3;" horiz-adv-x="1460" d="M915 1673q-67 0 -124 23.5t-106.5 47t-98.5 23.5q-89 0 -142 -69q-18 -22 -36 -22.5t-37 14.5l-117 77q-19 13 -19.5 34.5t13.5 39.5q67 88 138.5 138.5t170.5 50.5q49 0 95.5 -15t76.5 -32.5t71 -32.5t81 -15q83 0 139 70q31 38 72 8l127 -86q18 -13 18.5 -35.5 t-12.5 -40.5q-63 -82 -136.5 -130t-173.5 -48zM41 0q-64 0 -43 61l487 1414q21 61 80 61h332q57 0 78 -61l489 -1414q21 -61 -43 -61h-381q-62 0 -77 61l-60 218h-344l-59 -218q-15 -61 -80 -61h-379zM657 662h146l-72 258z" />
<glyph unicode="&#xc4;" horiz-adv-x="1460" d="M465 1653q-91 0 -154 62t-63 151q0 90 63.5 154.5t153.5 64.5q88 0 152.5 -65t64.5 -154t-64.5 -151t-152.5 -62zM997 1653q-89 0 -151 62t-62 151q0 90 62 154.5t151 64.5t154.5 -65t65.5 -154t-65 -151t-155 -62zM41 0q-64 0 -43 61l487 1414q21 61 80 61h332 q57 0 78 -61l489 -1414q21 -61 -43 -61h-381q-62 0 -77 61l-60 218h-344l-59 -218q-15 -61 -80 -61h-379zM657 662h146l-72 258z" />
<glyph unicode="&#xc5;" horiz-adv-x="1460" d="M731 1616q-127 0 -216 89.5t-89 215.5q0 128 89 217.5t216 89.5t216 -89.5t89 -217.5q0 -126 -89 -215.5t-216 -89.5zM731 1841q32 0 55 24t23 56q0 34 -23 58t-55 24t-55 -24t-23 -58q0 -32 23 -56t55 -24zM41 0q-64 0 -43 61l487 1414q21 61 80 61h332q57 0 78 -61 l489 -1414q21 -61 -43 -61h-381q-62 0 -77 61l-60 218h-344l-59 -218q-15 -61 -80 -61h-379zM657 662h146l-72 258z" />
<glyph unicode="&#xc6;" horiz-adv-x="2052" d="M43 0q-33 0 -44.5 15t3.5 46l776 1414q19 34 35 47.5t43 13.5h1047q61 0 61 -61v-258q0 -62 -61 -62h-476v-186h394q61 0 61 -62v-239q0 -62 -61 -62h-394v-225h496q62 0 62 -62v-258q0 -61 -62 -61h-944q-61 0 -61 61v199h-306l-110 -199q-17 -31 -34 -46t-44 -15h-381z M778 602h140v254z" />
<glyph unicode="&#xc7;" horiz-adv-x="1390" d="M1149 434l186 -215q27 -30 0 -57q-83 -83 -210.5 -136t-297.5 -53q-37 0 -55 2l-22 -69q39 16 92 16q104 0 170.5 -74t66.5 -190q0 -138 -96 -215.5t-229 -77.5q-84 0 -140 27q-22 12 -12 41l60 164q10 29 36 16q22 -10 45 -10q34 0 52 18t18 47t-19 45.5t-46 16.5 q-41 0 -62 -31q-13 -19 -47 -12l-109 26q-46 10 -36 51l69 246q-240 70 -376 267.5t-136 492.5q0 247 96.5 428t271.5 275t408 94q170 0 297.5 -53t210.5 -136q27 -27 0 -57l-186 -215q-20 -23 -57 0q-109 70 -211 70q-145 0 -222 -104.5t-77 -301.5q0 -196 77 -300.5 t222 -104.5q104 0 211 69q37 23 57 0z" />
<glyph unicode="&#xc8;" horiz-adv-x="1222" d="M592 1657l-395 295q-47 37 -7 82l127 153q40 45 84 4l359 -340q21 -19 21.5 -34t-19.5 -39l-86 -105q-22 -27 -40.5 -30.5t-43.5 14.5zM150 0q-62 0 -62 61v1414q0 61 62 61h925q62 0 62 -61v-269q0 -61 -62 -61h-475v-168h393q62 0 62 -59v-261q0 -61 -62 -61h-393v-205 h496q61 0 61 -61v-269q0 -61 -61 -61h-946z" />
<glyph unicode="&#xc9;" horiz-adv-x="1222" d="M610 1657q-25 -18 -43 -14.5t-39 30.5l-86 105q-20 24 -19.5 39t21.5 34l359 340q42 42 82 -4l129 -153q38 -47 -6 -82zM150 0q-62 0 -62 61v1414q0 61 62 61h925q62 0 62 -61v-269q0 -61 -62 -61h-475v-168h393q62 0 62 -59v-261q0 -61 -62 -61h-393v-205h496 q61 0 61 -61v-269q0 -61 -61 -61h-946z" />
<glyph unicode="&#xca;" horiz-adv-x="1222" d="M610 1847l-194 -184q-42 -42 -84 -2l-123 121q-46 43 0 82l362 295q22 17 38 17t38 -17l363 -295q45 -39 2 -82l-125 -121q-42 -40 -84 2zM150 0q-62 0 -62 61v1414q0 61 62 61h925q62 0 62 -61v-269q0 -61 -62 -61h-475v-168h393q62 0 62 -59v-261q0 -61 -62 -61h-393 v-205h496q61 0 61 -61v-269q0 -61 -61 -61h-946z" />
<glyph unicode="&#xcb;" horiz-adv-x="1222" d="M344 1653q-91 0 -154 62t-63 151q0 90 63.5 154.5t153.5 64.5q88 0 152.5 -65t64.5 -154t-64.5 -151t-152.5 -62zM877 1653q-89 0 -151 62t-62 151q0 90 62 154.5t151 64.5t154 -65t65 -154t-64.5 -151t-154.5 -62zM150 0q-62 0 -62 61v1414q0 61 62 61h925q62 0 62 -61 v-269q0 -61 -62 -61h-475v-168h393q62 0 62 -59v-261q0 -61 -62 -61h-393v-205h496q61 0 61 -61v-269q0 -61 -61 -61h-946z" />
<glyph unicode="&#xcc;" horiz-adv-x="688" d="M328 1657l-396 295q-46 36 -6 82l127 153q40 45 84 4l359 -340q21 -19 21.5 -34t-19.5 -39l-86 -105q-22 -27 -40.5 -30.5t-43.5 14.5zM150 0q-62 0 -62 61v1414q0 61 62 61h389q61 0 61 -61v-1414q0 -61 -61 -61h-389z" />
<glyph unicode="&#xcd;" horiz-adv-x="688" d="M346 1657q-25 -18 -43 -14.5t-39 30.5l-86 105q-20 24 -19.5 39t21.5 34l359 340q42 42 82 -4l129 -153q38 -46 -7 -82zM150 0q-62 0 -62 61v1414q0 61 62 61h389q61 0 61 -61v-1414q0 -61 -61 -61h-389z" />
<glyph unicode="&#xce;" horiz-adv-x="688" d="M346 1847l-194 -184q-42 -42 -84 -2l-123 121q-46 43 0 82l362 295q22 17 38 17t38 -17l362 -295q46 -39 3 -82l-125 -121q-42 -40 -84 2zM150 0q-62 0 -62 61v1414q0 61 62 61h389q61 0 61 -61v-1414q0 -61 -61 -61h-389z" />
<glyph unicode="&#xcf;" horiz-adv-x="688" d="M80 1653q-91 0 -154 62t-63 151q0 90 63.5 154.5t153.5 64.5q88 0 152.5 -65t64.5 -154t-64.5 -151t-152.5 -62zM612 1653q-89 0 -151 62t-62 151q0 90 62 154.5t151 64.5t154 -65t65 -154t-64.5 -151t-154.5 -62zM150 0q-62 0 -62 61v1414q0 61 62 61h389q61 0 61 -61 v-1414q0 -61 -61 -61h-389z" />
<glyph unicode="&#xd0;" horiz-adv-x="1554" d="M801 1536q366 0 549.5 -193.5t183.5 -574.5t-183.5 -574.5t-549.5 -193.5h-631q-61 0 -61 61v736h-66q-61 0 -61 61v105q0 59 61 59h66v453q0 61 61 61h631zM782 391q260 0 260 377t-260 377h-161v-123h174q61 0 61 -59v-105q0 -61 -61 -61h-174v-406h161z" />
<glyph unicode="&#xd1;" horiz-adv-x="1597" d="M1001 1673q-53 0 -101 14.5t-78 32.5t-70.5 32.5t-79.5 14.5q-89 0 -142 -69q-18 -22 -36 -22.5t-37 14.5l-117 77q-19 13 -19.5 34.5t13.5 39.5q67 88 138.5 138.5t170.5 50.5q49 0 95.5 -15t76.5 -32.5t71 -32.5t81 -15q83 0 139 70q31 38 72 8l127 -86 q18 -13 18.5 -35.5t-12.5 -40.5q-63 -82 -136.5 -130t-173.5 -48zM150 0q-62 0 -62 61v1414q0 61 62 61h325q40 0 66 -33l475 -622v594q0 61 61 61h371q61 0 61 -61v-1414q0 -61 -61 -61h-326q-38 0 -75 47l-465 610v-596q0 -61 -62 -61h-370z" />
<glyph unicode="&#xd2;" d="M811 1657l-395 295q-46 36 -6 82l127 153q40 45 84 4l358 -340q21 -19 21.5 -34t-19.5 -39l-86 -105q-22 -27 -40.5 -30.5t-43.5 14.5zM827 1567q352 0 562 -213t210 -586t-210 -586t-562 -213q-233 0 -408 94.5t-271.5 276t-96.5 428.5t96.5 428.5t271.5 276t408 94.5z M827 360q116 0 179 102.5t63 305.5t-63 305.5t-179 102.5q-118 0 -181.5 -102.5t-63.5 -305.5t63.5 -305.5t181.5 -102.5z" />
<glyph unicode="&#xd3;" d="M829 1657q-25 -18 -42.5 -14.5t-38.5 30.5l-86 105q-20 24 -19.5 39t21.5 34l358 340q42 42 82 -4l129 -153q38 -47 -6 -82zM827 1567q352 0 562 -213t210 -586t-210 -586t-562 -213q-233 0 -408 94.5t-271.5 276t-96.5 428.5t96.5 428.5t271.5 276t408 94.5zM827 360 q116 0 179 102.5t63 305.5t-63 305.5t-179 102.5q-118 0 -181.5 -102.5t-63.5 -305.5t63.5 -305.5t181.5 -102.5z" />
<glyph unicode="&#xd4;" d="M829 1847l-194 -184q-42 -42 -84 -2l-123 121q-46 43 0 82l363 295q22 17 37.5 17t37.5 -17l363 -295q45 -39 2 -82l-125 -121q-42 -40 -84 2zM827 1567q352 0 562 -213t210 -586t-210 -586t-562 -213q-233 0 -408 94.5t-271.5 276t-96.5 428.5t96.5 428.5t271.5 276 t408 94.5zM827 360q116 0 179 102.5t63 305.5t-63 305.5t-179 102.5q-118 0 -181.5 -102.5t-63.5 -305.5t63.5 -305.5t181.5 -102.5z" />
<glyph unicode="&#xd5;" d="M1012 1673q-53 0 -101 14.5t-78 31.5t-70 31.5t-79 14.5q-88 0 -139 -67q-18 -22 -36.5 -22.5t-37.5 14.5l-115 75q-19 13 -19.5 34.5t13.5 39.5q66 87 136.5 136.5t168.5 49.5q62 0 117 -23t105 -46t100 -23q81 0 137 68q31 38 72 8l125 -84q18 -13 18.5 -35.5 t-12.5 -40.5q-62 -81 -134.5 -128.5t-170.5 -47.5zM827 1567q352 0 562 -213t210 -586t-210 -586t-562 -213q-233 0 -408 94.5t-271.5 276t-96.5 428.5t96.5 428.5t271.5 276t408 94.5zM827 360q116 0 179 102.5t63 305.5t-63 305.5t-179 102.5q-118 0 -181.5 -102.5 t-63.5 -305.5t63.5 -305.5t181.5 -102.5z" />
<glyph unicode="&#xd6;" d="M563 1653q-91 0 -154 62t-63 151q0 90 63.5 154.5t153.5 64.5q88 0 152.5 -65t64.5 -154t-64.5 -151t-152.5 -62zM1096 1653q-89 0 -151 62t-62 151q0 90 62 154.5t151 64.5t154 -65t65 -154t-64.5 -151t-154.5 -62zM827 1567q352 0 562 -213t210 -586t-210 -586 t-562 -213q-233 0 -408 94.5t-271.5 276t-96.5 428.5t96.5 428.5t271.5 276t408 94.5zM827 360q116 0 179 102.5t63 305.5t-63 305.5t-179 102.5q-118 0 -181.5 -102.5t-63.5 -305.5t63.5 -305.5t181.5 -102.5z" />
<glyph unicode="&#xd7;" horiz-adv-x="985" d="M721 758l199 -199q44 -44 0 -88l-142 -141q-43 -43 -86 0l-198 200l-201 -200q-43 -43 -86 0l-141 141q-44 44 0 88l198 199l-201 203q-43 40 0 83l142 142q44 44 88 0l201 -199l198 199q44 44 88 0l142 -142q43 -43 0 -83z" />
<glyph unicode="&#xd8;" d="M1573 1536q33 0 45 -19.5t-12 -50.5l-156 -184q149 -203 149 -514q0 -373 -210 -586t-562 -213q-231 0 -401 92q-18 -22 -23 -27.5t-17.5 -16.5t-23 -14t-24.5 -3h-262q-32 0 -43.5 16t10.5 45l160 191q-152 206 -152 516q0 247 96.5 428.5t271.5 276t408 94.5 q227 0 396 -90q27 32 45 45.5t43 13.5h262zM582 768q0 -41 2 -59l360 432q-46 35 -117 35q-118 0 -181.5 -102.5t-63.5 -305.5zM1069 768q0 39 -2 57l-360 -430q53 -35 120 -35q116 0 179 102.5t63 305.5z" />
<glyph unicode="&#xd9;" horiz-adv-x="1536" d="M754 1657l-396 295q-46 36 -6 82l127 153q40 45 84 4l359 -340q21 -19 21.5 -34t-19.5 -39l-86 -105q-22 -27 -40.5 -30.5t-43.5 14.5zM768 -31q-352 0 -526 165.5t-174 500.5v840q0 61 61 61h391q60 0 60 -61v-895q0 -115 46.5 -167.5t141.5 -52.5t141.5 52.5 t46.5 167.5v895q0 61 60 61h391q61 0 61 -61v-840q0 -335 -174 -500.5t-526 -165.5z" />
<glyph unicode="&#xda;" horiz-adv-x="1536" d="M772 1657q-25 -18 -43 -14.5t-39 30.5l-86 105q-20 24 -19.5 39t21.5 34l359 340q42 42 82 -4l129 -153q38 -46 -7 -82zM768 -31q-352 0 -526 165.5t-174 500.5v840q0 61 61 61h391q60 0 60 -61v-895q0 -115 46.5 -167.5t141.5 -52.5t141.5 52.5t46.5 167.5v895 q0 61 60 61h391q61 0 61 -61v-840q0 -335 -174 -500.5t-526 -165.5z" />
<glyph unicode="&#xdb;" horiz-adv-x="1536" d="M772 1847l-194 -184q-42 -42 -84 -2l-123 121q-46 43 0 82l362 295q22 17 38 17t38 -17l362 -295q46 -39 3 -82l-125 -121q-42 -40 -84 2zM768 -31q-352 0 -526 165.5t-174 500.5v840q0 61 61 61h391q60 0 60 -61v-895q0 -115 46.5 -167.5t141.5 -52.5t141.5 52.5 t46.5 167.5v895q0 61 60 61h391q61 0 61 -61v-840q0 -335 -174 -500.5t-526 -165.5z" />
<glyph unicode="&#xdc;" horiz-adv-x="1536" d="M506 1653q-91 0 -154 62t-63 151q0 90 63.5 154.5t153.5 64.5q88 0 152.5 -65t64.5 -154t-64.5 -151t-152.5 -62zM1038 1653q-89 0 -151 62t-62 151q0 90 62 154.5t151 64.5t154 -65t65 -154t-64.5 -151t-154.5 -62zM768 -31q-352 0 -526 165.5t-174 500.5v840 q0 61 61 61h391q60 0 60 -61v-895q0 -115 46.5 -167.5t141.5 -52.5t141.5 52.5t46.5 167.5v895q0 61 60 61h391q61 0 61 -61v-840q0 -335 -174 -500.5t-526 -165.5z" />
<glyph unicode="&#xdd;" horiz-adv-x="1439" d="M719 1657q-25 -18 -43 -14.5t-39 30.5l-86 105q-20 24 -19.5 39t21.5 34l358 340q42 42 82 -4l129 -153q38 -47 -6 -82zM936 1487q24 49 72 49h391q71 0 37 -61l-461 -850v-564q0 -61 -62 -61h-389q-61 0 -61 61v564l-461 850q-30 61 37 61h391q51 0 72 -49l217 -440z " />
<glyph unicode="&#xde;" horiz-adv-x="1394" d="M774 1290q278 0 435 -132t157 -359q0 -262 -156 -406.5t-436 -144.5h-174v-187q0 -61 -59 -61h-391q-62 0 -62 61v1414q0 61 62 61h391q59 0 59 -61v-185h174zM735 608q144 0 144 160q0 141 -144 141h-135v-301h135z" />
<glyph unicode="&#xdf;" horiz-adv-x="1394" d="M836 -14q-56 -15 -78 39l-107 256q-21 52 35 81l31 15.5l31 15.5t26.5 14.5t25.5 16t20.5 15.5t19 18.5t12.5 19.5t9.5 22.5t2.5 24.5q0 32 -19 65.5t-41.5 59t-41.5 66.5t-19 86q0 54 37 129.5t37 116.5q0 53 -34 84.5t-87 31.5q-62 0 -101.5 -55t-39.5 -125v-922 q0 -61 -61 -61h-369q-29 0 -45.5 16t-16.5 45v889q0 265 180 429.5t468 164.5q133 0 246 -39t188.5 -104.5t117.5 -151.5t42 -180q0 -47 -12 -86.5t-27 -62.5t-27 -55t-12 -66q0 -44 19.5 -87.5t43 -75.5t43 -84t19.5 -110q0 -318 -516 -456z" />
<glyph unicode="&#xe0;" horiz-adv-x="1206" d="M586 1225l-396 295q-46 36 -6 82l127 153q40 45 84 4l359 -340q21 -19 21.5 -34t-19.5 -39l-86 -105q-22 -27 -40.5 -30.5t-43.5 14.5zM590 1133q290 0 421.5 -137.5t131.5 -438.5v-496q0 -27 -16.5 -44t-43.5 -17h-368q-27 0 -43.5 17t-16.5 44v33q-4 -5 -12.5 -13.5 t-37.5 -30t-60 -38t-79.5 -30t-98.5 -13.5q-146 0 -240 97.5t-94 248.5q0 166 113 263.5t300 97.5q52 0 104.5 -8t78.5 -16l26 -7v19q0 107 -163 104q-25 -1 -48.5 -3.5t-49 -7.5t-40 -8.5t-42 -10.5t-33.5 -9q-68 -18 -80 29l-60 211q-11 31 -6.5 53.5t35.5 36.5 q170 74 422 74zM580 272q18 -1 37 4.5t29 11.5l9 5v121q-3 2 -9 4t-24.5 5.5t-35.5 2.5q-40 -1 -62 -22t-22 -56q0 -34 21.5 -54t56.5 -22z" />
<glyph unicode="&#xe1;" horiz-adv-x="1206" d="M604 1225q-25 -18 -43 -14.5t-39 30.5l-86 105q-20 24 -19.5 39t21.5 34l359 340q42 42 82 -4l129 -153q38 -46 -7 -82zM590 1133q290 0 421.5 -137.5t131.5 -438.5v-496q0 -27 -16.5 -44t-43.5 -17h-368q-27 0 -43.5 17t-16.5 44v33q-4 -5 -12.5 -13.5t-37.5 -30 t-60 -38t-79.5 -30t-98.5 -13.5q-146 0 -240 97.5t-94 248.5q0 166 113 263.5t300 97.5q52 0 104.5 -8t78.5 -16l26 -7v19q0 107 -163 104q-25 -1 -48.5 -3.5t-49 -7.5t-40 -8.5t-42 -10.5t-33.5 -9q-68 -18 -80 29l-60 211q-11 31 -6.5 53.5t35.5 36.5q170 74 422 74z M580 272q18 -1 37 4.5t29 11.5l9 5v121q-3 2 -9 4t-24.5 5.5t-35.5 2.5q-40 -1 -62 -22t-22 -56q0 -34 21.5 -54t56.5 -22z" />
<glyph unicode="&#xe2;" horiz-adv-x="1206" d="M604 1415l-194 -184q-42 -42 -84 -2l-123 121q-46 43 0 82l362 294q22 17 38 17t38 -17l363 -294q45 -39 2 -82l-125 -121q-42 -40 -84 2zM590 1133q290 0 421.5 -137.5t131.5 -438.5v-496q0 -27 -16.5 -44t-43.5 -17h-368q-27 0 -43.5 17t-16.5 44v33q-4 -5 -12.5 -13.5 t-37.5 -30t-60 -38t-79.5 -30t-98.5 -13.5q-146 0 -240 97.5t-94 248.5q0 166 113 263.5t300 97.5q52 0 104.5 -8t78.5 -16l26 -7v19q0 107 -163 104q-25 -1 -48.5 -3.5t-49 -7.5t-40 -8.5t-42 -10.5t-33.5 -9q-68 -18 -80 29l-60 211q-11 31 -6.5 53.5t35.5 36.5 q170 74 422 74zM580 272q18 -1 37 4.5t29 11.5l9 5v121q-3 2 -9 4t-24.5 5.5t-35.5 2.5q-40 -1 -62 -22t-22 -56q0 -34 21.5 -54t56.5 -22z" />
<glyph unicode="&#xe3;" horiz-adv-x="1206" d="M788 1241q-67 0 -124 23.5t-106.5 47t-98.5 23.5q-89 0 -142 -69q-30 -38 -73 -9l-117 78q-19 13 -19.5 34.5t13.5 39.5q31 41 59 70t66.5 58.5t84.5 44.5t99 15q62 0 117.5 -23.5t106 -47t100.5 -23.5q83 0 139 70q31 38 72 8l127 -86q18 -13 18.5 -35.5t-12.5 -40.5 q-63 -82 -136.5 -130t-173.5 -48zM590 1133q290 0 421.5 -137.5t131.5 -438.5v-496q0 -27 -16.5 -44t-43.5 -17h-368q-27 0 -43.5 17t-16.5 44v33q-4 -5 -12.5 -13.5t-37.5 -30t-60 -38t-79.5 -30t-98.5 -13.5q-146 0 -240 97.5t-94 248.5q0 166 113 263.5t300 97.5 q52 0 104.5 -8t78.5 -16l26 -7v19q0 107 -163 104q-25 -1 -48.5 -3.5t-49 -7.5t-40 -8.5t-42 -10.5t-33.5 -9q-68 -18 -80 29l-60 211q-11 31 -6.5 53.5t35.5 36.5q170 74 422 74zM580 272q18 -1 37 4.5t29 11.5l9 5v121q-3 2 -9 4t-24.5 5.5t-35.5 2.5q-40 -1 -62 -22 t-22 -56q0 -34 21.5 -54t56.5 -22z" />
<glyph unicode="&#xe4;" horiz-adv-x="1206" d="M338 1221q-91 0 -154 62t-63 151q0 90 63.5 154.5t153.5 64.5q88 0 152.5 -65t64.5 -154t-64.5 -151t-152.5 -62zM870 1221q-89 0 -151 62t-62 151q0 90 62 154.5t151 64.5t154.5 -65t65.5 -154t-65 -151t-155 -62zM590 1133q290 0 421.5 -137.5t131.5 -438.5v-496 q0 -27 -16.5 -44t-43.5 -17h-368q-27 0 -43.5 17t-16.5 44v33q-4 -5 -12.5 -13.5t-37.5 -30t-60 -38t-79.5 -30t-98.5 -13.5q-146 0 -240 97.5t-94 248.5q0 166 113 263.5t300 97.5q52 0 104.5 -8t78.5 -16l26 -7v19q0 107 -163 104q-25 -1 -48.5 -3.5t-49 -7.5t-40 -8.5 t-42 -10.5t-33.5 -9q-68 -18 -80 29l-60 211q-11 31 -6.5 53.5t35.5 36.5q170 74 422 74zM580 272q18 -1 37 4.5t29 11.5l9 5v121q-3 2 -9 4t-24.5 5.5t-35.5 2.5q-40 -1 -62 -22t-22 -56q0 -34 21.5 -54t56.5 -22z" />
<glyph unicode="&#xe5;" horiz-adv-x="1206" d="M604 1184q-127 0 -216 89.5t-89 215.5q0 128 89 217.5t216 89.5t216 -89.5t89 -217.5q0 -126 -89 -215.5t-216 -89.5zM604 1409q32 0 55 24t23 56q0 34 -23 58t-55 24t-55 -24t-23 -58q0 -32 23 -56t55 -24zM590 1133q290 0 421.5 -137.5t131.5 -438.5v-496 q0 -27 -16.5 -44t-43.5 -17h-368q-27 0 -43.5 17t-16.5 44v33q-4 -5 -12.5 -13.5t-37.5 -30t-60 -38t-79.5 -30t-98.5 -13.5q-146 0 -240 97.5t-94 248.5q0 166 113 263.5t300 97.5q52 0 104.5 -8t78.5 -16l26 -7v19q0 107 -163 104q-25 -1 -48.5 -3.5t-49 -7.5t-40 -8.5 t-42 -10.5t-33.5 -9q-68 -18 -80 29l-60 211q-11 31 -6.5 53.5t35.5 36.5q170 74 422 74zM580 272q18 -1 37 4.5t29 11.5l9 5v121q-3 2 -9 4t-24.5 5.5t-35.5 2.5q-40 -1 -62 -22t-22 -56q0 -34 21.5 -54t56.5 -22z" />
<glyph unicode="&#xe6;" horiz-adv-x="1802" d="M420 -31q-183 0 -285 98.5t-102 264.5q0 155 114 249.5t302 94.5q51 0 102.5 -8t77.5 -16l26 -7v12q0 57 -39 84t-122 27q-41 0 -108 -12.5t-107 -26.5q-67 -23 -80 29l-60 211q-11 31 -6.5 53.5t35.5 36.5q170 74 424 74q212 0 340 -76q133 76 295 76q118 0 219 -40.5 t172.5 -113t107.5 -181t25 -237.5q-5 -54 -17 -72t-44 -18h-539q0 -65 42.5 -103t123.5 -38q24 0 45.5 3t49 12t37.5 13t46 19q48 19 70 -23q20 -39 59 -109t55 -100q21 -40 -10 -63q-61 -47 -179 -80t-245 -33q-269 0 -430 158q-176 -158 -395 -158zM1159 672h176 q0 46 -25 72t-63 26q-39 0 -63.5 -26.5t-24.5 -71.5zM580 272q19 0 46 10t44 20l18 9q-24 41 -33 101q0 1 -8.5 4.5t-25.5 6.5t-35 3q-38 0 -61 -21.5t-23 -56.5q0 -34 21.5 -55t56.5 -21z" />
<glyph unicode="&#xe7;" horiz-adv-x="1071" d="M911 362l121 -217q21 -40 -10 -63q-64 -50 -162 -81.5t-221 -31.5l-21 -63q40 16 93 16q105 0 172 -74t67 -190q0 -93 -48 -161.5t-120.5 -100t-158.5 -31.5q-82 0 -138 27q-22 12 -12 41l57 164q10 29 39 16q23 -10 43 -10q35 0 53.5 18t18.5 47t-20 45.5t-48 16.5 q-38 0 -59 -31q-13 -19 -47 -12l-109 26q-46 10 -36 51l65 232q-181 53 -281 196t-100 359q0 273 158 427.5t430 154.5q123 0 222 -31.5t163 -81.5q31 -23 10 -64l-121 -217q-19 -35 -59 -14q-5 2 -24 12.5t-33.5 17t-41 12t-53.5 3.5q-77 -6 -120 -63.5t-43 -155.5 q0 -99 43 -156t120 -63q27 -2 53.5 3.5t41 12t33.5 17t24 12.5q38 20 59 -15z" />
<glyph unicode="&#xe8;" horiz-adv-x="1193" d="M618 1225l-395 295q-46 36 -6 82l127 153q40 45 84 4l358 -340q21 -19 21.5 -34t-19.5 -39l-86 -105q-22 -27 -40.5 -30.5t-43.5 14.5zM639 -31q-264 0 -427 155.5t-163 426.5q0 133 45 244t123 184.5t181 113.5t220 40q119 0 220.5 -40.5t173.5 -113t108 -181t25 -237.5 q-4 -54 -17 -72t-45 -18h-538q0 -65 42 -103t122 -38q33 0 67.5 8t51 14.5t61.5 24.5q45 19 67 -23q23 -42 65 -117t52 -92q21 -40 -10 -63q-62 -47 -180.5 -80t-243.5 -33zM545 672h192q0 46 -27.5 75t-68.5 29t-68.5 -29t-27.5 -75z" />
<glyph unicode="&#xe9;" horiz-adv-x="1193" d="M637 1225q-25 -18 -43 -14.5t-39 30.5l-86 105q-20 24 -19.5 39t21.5 34l358 340q42 42 82 -4l129 -153q38 -47 -6 -82zM639 -31q-264 0 -427 155.5t-163 426.5q0 133 45 244t123 184.5t181 113.5t220 40q119 0 220.5 -40.5t173.5 -113t108 -181t25 -237.5 q-4 -54 -17 -72t-45 -18h-538q0 -65 42 -103t122 -38q33 0 67.5 8t51 14.5t61.5 24.5q45 19 67 -23q23 -42 65 -117t52 -92q21 -40 -10 -63q-62 -47 -180.5 -80t-243.5 -33zM545 672h192q0 46 -27.5 75t-68.5 29t-68.5 -29t-27.5 -75z" />
<glyph unicode="&#xea;" horiz-adv-x="1193" d="M637 1415l-195 -184q-42 -42 -84 -2l-122 121q-46 43 0 82l362 294q22 17 38 17t38 -17l362 -294q45 -39 2 -82l-125 -121q-42 -40 -84 2zM639 -31q-264 0 -427 155.5t-163 426.5q0 133 45 244t123 184.5t181 113.5t220 40q119 0 220.5 -40.5t173.5 -113t108 -181 t25 -237.5q-4 -54 -17 -72t-45 -18h-538q0 -65 42 -103t122 -38q33 0 67.5 8t51 14.5t61.5 24.5q45 19 67 -23q23 -42 65 -117t52 -92q21 -40 -10 -63q-62 -47 -180.5 -80t-243.5 -33zM545 672h192q0 46 -27.5 75t-68.5 29t-68.5 -29t-27.5 -75z" />
<glyph unicode="&#xeb;" horiz-adv-x="1193" d="M371 1221q-91 0 -154 62t-63 151q0 90 63.5 154.5t153.5 64.5q88 0 152.5 -65t64.5 -154t-64.5 -151t-152.5 -62zM903 1221q-89 0 -151 62t-62 151q0 90 62 154.5t151 64.5t154 -65t65 -154t-64.5 -151t-154.5 -62zM639 -31q-264 0 -427 155.5t-163 426.5q0 133 45 244 t123 184.5t181 113.5t220 40q119 0 220.5 -40.5t173.5 -113t108 -181t25 -237.5q-4 -54 -17 -72t-45 -18h-538q0 -65 42 -103t122 -38q33 0 67.5 8t51 14.5t61.5 24.5q45 19 67 -23q23 -42 65 -117t52 -92q21 -40 -10 -63q-62 -47 -180.5 -80t-243.5 -33zM545 672h192 q0 46 -27.5 75t-68.5 29t-68.5 -29t-27.5 -75z" />
<glyph unicode="&#xec;" horiz-adv-x="630" d="M291 1225l-395 295q-47 37 -7 82l127 153q40 45 84 4l359 -340q21 -19 21.5 -34t-19.5 -39l-86 -105q-22 -27 -40.5 -30.5t-43.5 14.5zM131 0q-59 0 -59 61v979q0 62 59 62h367q61 0 61 -62v-979q0 -61 -61 -61h-367z" />
<glyph unicode="&#xed;" horiz-adv-x="630" d="M309 1225q-25 -18 -43 -14.5t-39 30.5l-86 105q-20 24 -19.5 39t21.5 34l359 340q42 42 82 -4l129 -153q38 -47 -6 -82zM131 0q-59 0 -59 61v979q0 62 59 62h367q61 0 61 -62v-979q0 -61 -61 -61h-367z" />
<glyph unicode="&#xee;" horiz-adv-x="630" d="M309 1415l-194 -184q-42 -42 -84 -2l-123 121q-46 43 0 82l362 294q22 17 38 17t38 -17l363 -294q45 -39 2 -82l-125 -121q-42 -40 -84 2zM131 0q-59 0 -59 61v979q0 62 59 62h367q61 0 61 -62v-979q0 -61 -61 -61h-367z" />
<glyph unicode="&#xef;" horiz-adv-x="630" d="M43 1221q-91 0 -154 62t-63 151q0 90 63.5 154.5t153.5 64.5q88 0 152.5 -65t64.5 -154t-64.5 -151t-152.5 -62zM575 1221q-89 0 -151 62t-62 151q0 90 62 154.5t151 64.5t154.5 -65t65.5 -154t-65 -151t-155 -62zM131 0q-59 0 -59 61v979q0 62 59 62h367q61 0 61 -62 v-979q0 -61 -61 -61h-367z" />
<glyph unicode="&#xf0;" horiz-adv-x="1298" d="M932 1360q154 -112 238.5 -284.5t84.5 -395.5q0 -327 -168 -518t-473 -191q-257 0 -411 134.5t-154 367.5q0 84 29 157.5t78 126t112.5 90t133.5 55.5t141 18q67 0 121.5 -14.5t75.5 -29.5l22 -14q0 111 -129 201l-107 -105q-10 -10 -20.5 -8.5t-26.5 17.5l-82 75 q-30 30 -8 52l51 51q-58 10 -102 10q-62 0 -62 59v261q0 32 15 46.5t47 14.5q227 0 418 -78l121 119q19 19 47 -10l80 -78q30 -29 8 -51zM629 334q61 0 95 42.5t32 119.5q0 1 -4 8t-13.5 18.5t-23 21.5t-36.5 17.5t-50 7.5q-57 0 -89 -30.5t-32 -85.5q0 -56 32.5 -87.5 t88.5 -31.5z" />
<glyph unicode="&#xf1;" horiz-adv-x="1337" d="M856 1241q-64 0 -119.5 22.5t-104 45t-95.5 22.5q-85 0 -136 -67q-30 -35 -71 -9l-113 76q-19 11 -19.5 32t13.5 38q30 40 57 68t64 56.5t82 43t96 14.5q59 0 113 -22.5t103 -45t97 -22.5q81 0 133 66q31 38 70 8l123 -82q18 -13 18.5 -34.5t-12.5 -39.5 q-62 -79 -132 -124.5t-167 -45.5zM131 0q-61 0 -61 61v979q0 62 61 62h326q59 0 59 -62v-45q5 6 13.5 15t40 33t66.5 42t91.5 33t116.5 15q70 0 133 -17.5t117.5 -54.5t94 -90t62.5 -129.5t23 -167.5v-613q0 -61 -62 -61h-366q-62 0 -62 61v590q0 56 -28 87.5t-76 31.5 q-36 0 -66 -18t-42 -36l-13 -18v-637q0 -61 -61 -61h-367z" />
<glyph unicode="&#xf2;" horiz-adv-x="1282" d="M623 1225l-396 295q-46 36 -6 82l127 153q40 45 84 4l359 -340q21 -19 21.5 -34t-19.5 -39l-86 -105q-22 -27 -40.5 -30.5t-43.5 14.5zM641 -31q-279 0 -435.5 154t-156.5 428t156.5 428t435.5 154q281 0 437.5 -154t156.5 -428t-156.5 -428t-437.5 -154zM641 332 q52 0 78 49t26 170t-26 170t-78 49t-78 -49t-26 -170t26 -170t78 -49z" />
<glyph unicode="&#xf3;" horiz-adv-x="1282" d="M641 1225q-25 -18 -43 -14.5t-39 30.5l-86 105q-20 24 -19.5 39t21.5 34l359 340q41 41 81 -4l129 -153q38 -47 -6 -82zM641 -31q-279 0 -435.5 154t-156.5 428t156.5 428t435.5 154q281 0 437.5 -154t156.5 -428t-156.5 -428t-437.5 -154zM641 332q52 0 78 49t26 170 t-26 170t-78 49t-78 -49t-26 -170t26 -170t78 -49z" />
<glyph unicode="&#xf4;" horiz-adv-x="1282" d="M641 1415l-195 -184q-42 -42 -84 -2l-122 121q-46 43 0 82l362 294q22 17 38 17t38 -17l362 -294q45 -39 2 -82l-124 -121q-42 -40 -84 2zM641 -31q-279 0 -435.5 154t-156.5 428t156.5 428t435.5 154q281 0 437.5 -154t156.5 -428t-156.5 -428t-437.5 -154zM641 332 q52 0 78 49t26 170t-26 170t-78 49t-78 -49t-26 -170t26 -170t78 -49z" />
<glyph unicode="&#xf5;" horiz-adv-x="1282" d="M819 1241q-64 0 -119.5 22.5t-104 45t-95.5 22.5q-84 0 -135 -67q-31 -35 -72 -9l-113 76q-19 11 -19.5 32t13.5 38q30 40 57 68t64 56.5t82 43t96 14.5q59 0 113 -22.5t103 -45t97 -22.5q82 0 134 66q31 38 69 8l123 -82q18 -13 18.5 -34.5t-12.5 -39.5 q-62 -79 -132 -124.5t-167 -45.5zM641 -31q-279 0 -435.5 154t-156.5 428t156.5 428t435.5 154q281 0 437.5 -154t156.5 -428t-156.5 -428t-437.5 -154zM641 332q52 0 78 49t26 170t-26 170t-78 49t-78 -49t-26 -170t26 -170t78 -49z" />
<glyph unicode="&#xf6;" horiz-adv-x="1282" d="M375 1221q-91 0 -154 62t-63 151q0 90 63.5 154.5t153.5 64.5q88 0 152.5 -65t64.5 -154t-64.5 -151t-152.5 -62zM907 1221q-89 0 -151 62t-62 151q0 90 62 154.5t151 64.5t154 -65t65 -154t-64.5 -151t-154.5 -62zM641 -31q-279 0 -435.5 154t-156.5 428t156.5 428 t435.5 154q281 0 437.5 -154t156.5 -428t-156.5 -428t-437.5 -154zM641 332q52 0 78 49t26 170t-26 170t-78 49t-78 -49t-26 -170t26 -170t78 -49z" />
<glyph unicode="&#xf7;" horiz-adv-x="1097" d="M317 1229q0 96 65.5 163.5t160.5 67.5q96 0 163.5 -67.5t67.5 -163.5q0 -95 -67 -160t-164 -65q-95 0 -160.5 65t-65.5 160zM104 596q-61 0 -61 61v199q0 29 16 45.5t45 16.5h889q60 0 60 -62v-199q0 -61 -60 -61h-889zM317 279q0 97 65.5 164t160.5 67q97 0 164 -67 t67 -164q0 -95 -67 -160.5t-164 -65.5q-95 0 -160.5 65.5t-65.5 160.5z" />
<glyph unicode="&#xf8;" horiz-adv-x="1282" d="M1094 963q141 -150 141 -412q0 -274 -156.5 -428t-437.5 -154q-136 0 -248 39l-10 -12q-31 -45 -70 -45h-200q-32 0 -38 17t17 48l94 127q-137 149 -137 408q0 274 156.5 428t435.5 154q139 0 246 -37l12 16q29 45 90 45h180q32 0 38 -17t-17 -46zM639 840q-28 0 -50 -11 t-43 -39t-33 -83.5t-13 -137.5l190 260q-22 11 -51 11zM639 252q28 0 50.5 11.5t43.5 41t33.5 88.5t13.5 144l-198 -271q25 -14 57 -14z" />
<glyph unicode="&#xf9;" horiz-adv-x="1316" d="M633 1225l-395 295q-47 37 -7 82l127 153q40 45 84 4l359 -340q21 -19 21.5 -34t-19.5 -39l-86 -105q-22 -27 -40.5 -30.5t-43.5 14.5zM1182 1102q61 0 61 -62v-979q0 -61 -61 -61h-326q-59 0 -59 61v45q-5 -6 -13.5 -15t-39 -32.5t-65 -41.5t-89 -33t-111.5 -15 q-84 0 -159 30t-133.5 86.5t-93 147.5t-34.5 205v602q0 62 62 62h366q62 0 62 -62v-589q0 -57 22.5 -88t65.5 -31q29 0 58.5 13t44.5 27l14 13v655q0 62 61 62h367z" />
<glyph unicode="&#xfa;" horiz-adv-x="1316" d="M651 1225q-25 -18 -43 -14.5t-39 30.5l-86 105q-20 24 -19.5 39t21.5 34l359 340q42 42 82 -4l129 -153q38 -47 -6 -82zM1182 1102q61 0 61 -62v-979q0 -61 -61 -61h-326q-59 0 -59 61v45q-5 -6 -13.5 -15t-39 -32.5t-65 -41.5t-89 -33t-111.5 -15q-84 0 -159 30 t-133.5 86.5t-93 147.5t-34.5 205v602q0 62 62 62h366q62 0 62 -62v-589q0 -57 22.5 -88t65.5 -31q29 0 58.5 13t44.5 27l14 13v655q0 62 61 62h367z" />
<glyph unicode="&#xfb;" horiz-adv-x="1316" d="M651 1415l-194 -184q-42 -42 -84 -2l-123 121q-46 43 0 82l362 294q22 17 38 17t38 -17l363 -294q45 -39 2 -82l-125 -121q-42 -40 -84 2zM1182 1102q61 0 61 -62v-979q0 -61 -61 -61h-326q-59 0 -59 61v45q-5 -6 -13.5 -15t-39 -32.5t-65 -41.5t-89 -33t-111.5 -15 q-84 0 -159 30t-133.5 86.5t-93 147.5t-34.5 205v602q0 62 62 62h366q62 0 62 -62v-589q0 -57 22.5 -88t65.5 -31q29 0 58.5 13t44.5 27l14 13v655q0 62 61 62h367z" />
<glyph unicode="&#xfc;" horiz-adv-x="1316" d="M385 1221q-91 0 -154 62t-63 151q0 90 63.5 154.5t153.5 64.5q88 0 152.5 -65t64.5 -154t-64.5 -151t-152.5 -62zM918 1221q-89 0 -151 62t-62 151q0 90 62 154.5t151 64.5t154 -65t65 -154t-64.5 -151t-154.5 -62zM1182 1102q61 0 61 -62v-979q0 -61 -61 -61h-326 q-59 0 -59 61v45q-5 -6 -13.5 -15t-39 -32.5t-65 -41.5t-89 -33t-111.5 -15q-84 0 -159 30t-133.5 86.5t-93 147.5t-34.5 205v602q0 62 62 62h366q62 0 62 -62v-589q0 -57 22.5 -88t65.5 -31q29 0 58.5 13t44.5 27l14 13v655q0 62 61 62h367z" />
<glyph unicode="&#xfd;" horiz-adv-x="1329" d="M674 1225q-25 -18 -43 -14.5t-39 30.5l-86 105q-20 24 -19.5 39t21.5 34l358 340q42 42 82 -4l129 -153q38 -47 -6 -82zM297 -608q-197 0 -334 86q-41 25 -20 71l106 236q8 17 23.5 26.5t36.5 0.5q65 -29 116 -29q37 0 65.5 11t49 34.5t31.5 42.5t26 51l31 74l-410 1046 q-10 25 6 42.5t44 17.5h366q22 0 40 -12.5t24 -34.5l176 -625l174 625q6 22 24.5 34.5t40.5 12.5h367q26 0 41.5 -17.5t5.5 -42.5l-459 -1179q-48 -117 -99.5 -200t-119.5 -146t-155.5 -94t-196.5 -31z" />
<glyph unicode="&#xfe;" horiz-adv-x="1294" d="M115 -512q-60 0 -60 61v1926q0 61 60 61h366q29 0 45.5 -16t16.5 -45v-465l11 11t32.5 24.5t54 31t74 24.5t94.5 11q192 0 315 -152.5t123 -406.5q0 -159 -55.5 -289.5t-159 -207t-235.5 -76.5q-46 0 -89.5 9.5t-72 23.5t-50.5 28t-32 23l-10 10v-525q0 -29 -16.5 -45 t-45.5 -16h-366zM631 340q66 0 105.5 55t39.5 150q0 96 -39 151.5t-96 55.5q-27 0 -51.5 -13t-35.5 -26l-11 -13v-335q39 -25 88 -25z" />
<glyph unicode="&#xff;" horiz-adv-x="1329" d="M408 1221q-91 0 -154.5 62t-63.5 151q0 90 64 154.5t154 64.5q88 0 152.5 -65t64.5 -154t-64.5 -151t-152.5 -62zM940 1221q-89 0 -151 62t-62 151q0 90 62 154.5t151 64.5t154 -65t65 -154t-64.5 -151t-154.5 -62zM297 -608q-197 0 -334 86q-41 25 -20 71l106 236 q8 17 23.5 26.5t36.5 0.5q65 -29 116 -29q37 0 65.5 11t49 34.5t31.5 42.5t26 51l31 74l-410 1046q-10 25 6 42.5t44 17.5h366q22 0 40 -12.5t24 -34.5l176 -625l174 625q6 22 24.5 34.5t40.5 12.5h367q26 0 41.5 -17.5t5.5 -42.5l-459 -1179q-48 -117 -99.5 -200 t-119.5 -146t-155.5 -94t-196.5 -31z" />
<glyph unicode="&#x152;" horiz-adv-x="2207" d="M2079 391q61 0 61 -61v-269q0 -61 -61 -61h-946q-24 0 -35 8q-118 -39 -271 -39q-233 0 -408 94.5t-271.5 276t-96.5 428.5t96.5 428.5t271.5 276t408 94.5q153 0 271 -39q11 8 35 8h925q62 0 62 -61v-269q0 -61 -62 -61h-475v-168h393q62 0 62 -59v-261q0 -61 -62 -61 h-389q-1 -3 -2 -10t-2 -11v-184h496zM827 360q116 0 179 102.5t63 305.5t-63 305.5t-179 102.5q-118 0 -181.5 -102.5t-63.5 -305.5t63.5 -305.5t181.5 -102.5z" />
<glyph unicode="&#x153;" horiz-adv-x="1892" d="M49 551q0 274 156.5 428t435.5 154q208 0 356 -93q142 93 320 93q119 0 220 -40.5t172.5 -113t108 -181t25.5 -237.5q-5 -54 -17 -72t-44 -18h-539q0 -65 42 -103t122 -38q11 0 22 0.5t22.5 2.5t19 3.5t20 5.5t18 5t19.5 6.5t17.5 7t20 8.5t19.5 8q48 19 70 -23 q23 -42 65 -117t52 -92q21 -40 -11 -63q-62 -48 -181 -80.5t-245 -32.5q-200 0 -340 90q-143 -90 -354 -90q-279 0 -435.5 154t-156.5 428zM537 551q0 -121 26 -170t78 -49t78 49t26 170t-26 170t-78 49t-78 -49t-26 -170zM1251 672h176q0 46 -25 72t-63 26 q-39 0 -63.5 -26.5t-24.5 -71.5z" />
<glyph unicode="&#x178;" horiz-adv-x="1439" d="M453 1653q-91 0 -154 62t-63 151q0 90 63.5 154.5t153.5 64.5q88 0 152.5 -65t64.5 -154t-64.5 -151t-152.5 -62zM985 1653q-89 0 -151 62t-62 151q0 90 62 154.5t151 64.5t154 -65t65 -154t-64.5 -151t-154.5 -62zM936 1487q24 49 72 49h391q71 0 37 -61l-461 -850v-564 q0 -61 -62 -61h-389q-61 0 -61 61v564l-461 850q-30 61 37 61h391q51 0 72 -49l217 -440z" />
<glyph unicode="&#x2c6;" horiz-adv-x="1208" d="M594 1509l-195 -184q-42 -42 -84 -2l-122 121q-46 43 0 82l362 295q22 17 38 17t38 -17l362 -295q45 -39 2 -82l-125 -121q-42 -40 -84 2z" />
<glyph unicode="&#x2dc;" horiz-adv-x="1210" d="M678 1450q-53 0 -101.5 14.5t-78.5 32.5t-70.5 32.5t-79.5 14.5q-88 0 -141 -69q-31 -38 -74 -9l-117 78q-19 13 -19.5 34.5t13.5 39.5q31 41 59 70t66.5 58.5t84.5 44.5t99 15q62 0 117.5 -23.5t106 -47t100.5 -23.5q83 0 139 70q31 38 72 8l127 -86q18 -13 18.5 -35.5 t-12.5 -40.5q-63 -82 -136 -130t-173 -48z" />
<glyph unicode="&#x2000;" horiz-adv-x="1114" />
<glyph unicode="&#x2001;" horiz-adv-x="2228" />
<glyph unicode="&#x2002;" horiz-adv-x="1114" />
<glyph unicode="&#x2003;" horiz-adv-x="2228" />
<glyph unicode="&#x2004;" horiz-adv-x="742" />
<glyph unicode="&#x2005;" horiz-adv-x="557" />
<glyph unicode="&#x2006;" horiz-adv-x="371" />
<glyph unicode="&#x2007;" horiz-adv-x="371" />
<glyph unicode="&#x2008;" horiz-adv-x="278" />
<glyph unicode="&#x2009;" horiz-adv-x="445" />
<glyph unicode="&#x200a;" horiz-adv-x="123" />
<glyph unicode="&#x2010;" horiz-adv-x="851" d="M102 393q-59 0 -59 60v200q0 29 15.5 45.5t43.5 16.5h648q59 0 59 -62v-200q0 -60 -59 -60h-648z" />
<glyph unicode="&#x2011;" horiz-adv-x="851" d="M102 393q-59 0 -59 60v200q0 29 15.5 45.5t43.5 16.5h648q59 0 59 -62v-200q0 -60 -59 -60h-648z" />
<glyph unicode="&#x2012;" horiz-adv-x="851" d="M102 393q-59 0 -59 60v200q0 29 15.5 45.5t43.5 16.5h648q59 0 59 -62v-200q0 -60 -59 -60h-648z" />
<glyph unicode="&#x2013;" horiz-adv-x="1343" d="M104 393q-61 0 -61 60v200q0 29 16 45.5t45 16.5h1135q29 0 45 -16.5t16 -45.5v-200q0 -60 -61 -60h-1135z" />
<glyph unicode="&#x2014;" horiz-adv-x="1609" d="M104 393q-61 0 -61 60v200q0 29 16 45.5t45 16.5h1401q29 0 45.5 -16.5t16.5 -45.5v-200q0 -60 -62 -60h-1401z" />
<glyph unicode="&#x2018;" horiz-adv-x="575" d="M522 965q0 -105 -63 -171.5t-164 -66.5q-96 0 -162.5 65.5t-66.5 182.5q0 135 81 305t172 272q33 38 60 19l94 -68q18 -13 19.5 -27t-11.5 -34q-3 -5 -30.5 -43.5t-45.5 -66t-35.5 -65t-17.5 -61.5q0 -16 7 -27.5t14 -16t20 -9.5q129 -53 129 -188z" />
<glyph unicode="&#x2019;" horiz-adv-x="575" d="M53 1331q0 105 63.5 171.5t164.5 66.5q96 0 162.5 -65.5t66.5 -182.5q0 -135 -81.5 -305t-172.5 -273q-32 -37 -59 -18l-95 68q-18 13 -19.5 27t11.5 34q3 5 30.5 43.5t45.5 66t35.5 65t17.5 61.5q0 16 -7 27.5t-14 16t-20 9.5q-129 53 -129 188z" />
<glyph unicode="&#x201a;" horiz-adv-x="565" d="M53 199q0 104 63.5 170.5t164.5 66.5q96 0 162.5 -65.5t66.5 -182.5q0 -135 -81.5 -304.5t-172.5 -272.5q-17 -19 -28.5 -24t-30.5 5l-95 68q-18 13 -19.5 27t11.5 34q3 5 30.5 43.5t45.5 66t35.5 65t17.5 61.5q0 16 -7 27.5t-14 16t-20 9.5q-129 53 -129 189z" />
<glyph unicode="&#x201c;" horiz-adv-x="1118" d="M522 954q0 -105 -63 -171t-164 -66q-96 0 -162.5 65.5t-66.5 182.5q0 135 81 305t172 272q33 38 60 19l94 -68q18 -13 19.5 -27t-11.5 -34q-3 -5 -30.5 -43.5t-45.5 -66t-35.5 -65t-17.5 -61.5q0 -16 7 -27.5t14 -16t20 -9.5q129 -53 129 -189zM1065 954q0 -105 -63 -171 t-164 -66q-97 0 -163.5 65.5t-66.5 182.5q0 135 81.5 304.5t172.5 272.5q33 38 60 19l94 -68q18 -13 19.5 -27t-11.5 -34q-3 -5 -30.5 -43.5t-45.5 -66t-35.5 -65t-17.5 -61.5q0 -16 7 -27.5t14 -16t20 -9.5q129 -53 129 -189z" />
<glyph unicode="&#x201d;" horiz-adv-x="1118" d="M53 1331q0 105 63.5 171.5t164.5 66.5q96 0 162.5 -65.5t66.5 -182.5q0 -135 -81.5 -305t-172.5 -273q-32 -37 -59 -18l-95 68q-18 13 -19.5 27t11.5 34q3 5 30.5 43.5t45.5 66t35.5 65t17.5 61.5q0 16 -7 27.5t-14 16t-20 9.5q-129 53 -129 188zM596 1331 q0 105 63 171.5t164 66.5q97 0 163.5 -65.5t66.5 -182.5q0 -135 -81.5 -305t-172.5 -273q-32 -37 -60 -18l-94 68q-18 13 -19.5 27t11.5 34q3 5 30.5 43.5t45.5 66t35.5 65t17.5 61.5q0 16 -7 27.5t-14 16t-20 9.5q-129 53 -129 188z" />
<glyph unicode="&#x201e;" horiz-adv-x="1118" d="M53 197q0 104 63.5 170.5t164.5 66.5q96 0 162.5 -65.5t66.5 -182.5q0 -135 -81.5 -304.5t-172.5 -272.5q-17 -19 -28.5 -24t-30.5 5l-95 68q-18 13 -19.5 27t11.5 34q3 5 30.5 43.5t45.5 66t35.5 65t17.5 61.5q0 16 -7 27.5t-14 16t-20 9.5q-129 53 -129 189zM596 197 q0 105 63 171t164 66q97 0 163.5 -65.5t66.5 -182.5q0 -135 -81.5 -304.5t-172.5 -272.5q-33 -38 -60 -19l-94 68q-18 13 -19.5 27t11.5 34q3 5 30.5 43.5t45.5 66t35.5 65t17.5 61.5q0 16 -7 27.5t-14 16t-20 9.5q-129 53 -129 189z" />
<glyph unicode="&#x2022;" horiz-adv-x="714" d="M2 713q0 139 98 237.5t238 98.5q138 0 236 -98.5t98 -237.5q0 -140 -97.5 -237t-236.5 -97q-140 0 -238 97t-98 237z" />
<glyph unicode="&#x2026;" horiz-adv-x="1736" d="M53 205q0 97 65.5 164t160.5 67q97 0 164 -67t67 -164q0 -95 -67 -160t-164 -65q-95 0 -160.5 65t-65.5 160zM641 205q0 97 65 164t160 67q96 0 164 -67.5t68 -163.5q0 -95 -68 -160t-164 -65q-95 0 -160 65t-65 160zM1227 205q0 97 65 164t160 67q97 0 164 -67t67 -164 q0 -95 -67 -160t-164 -65q-95 0 -160 65t-65 160z" />
<glyph unicode="&#x202f;" horiz-adv-x="445" />
<glyph unicode="&#x2039;" horiz-adv-x="575" d="M45 489q-23 23 -23 42.5t23 41.5l430 404q26 19 41.5 11t15.5 -25v-248q0 -58 -40 -88l-107 -90l107 -101q40 -40 40 -86v-250q0 -16 -14.5 -24.5t-42.5 10.5z" />
<glyph unicode="&#x203a;" horiz-adv-x="575" d="M530 489l-430 -403q-28 -19 -42.5 -10.5t-14.5 24.5v250q0 45 41 86l106 101l-106 90q-41 30 -41 88v248q0 17 15.5 25t41.5 -11l430 -404q23 -22 23 -41.5t-23 -42.5z" />
<glyph unicode="&#x205f;" horiz-adv-x="557" />
<glyph unicode="&#x20ac;" horiz-adv-x="1488" d="M1249 434l187 -215q27 -30 0 -57q-83 -83 -210.5 -136t-297.5 -53q-284 0 -480.5 139.5t-263.5 393.5h-143q-61 0 -61 61v105q0 61 61 61h111v37v45h-111q-29 0 -45 16.5t-16 45.5v104q0 61 61 61h145q70 250 265 387.5t477 137.5q170 0 297.5 -53t210.5 -136 q27 -27 0 -57l-187 -215q-20 -23 -57 0q-109 70 -211 70q-165 0 -240 -134h258q60 0 60 -61v-104q0 -62 -60 -62h-315q-2 -14 -2 -45v-37h317q60 0 60 -61v-105q0 -61 -60 -61h-264q78 -141 246 -141q104 0 211 69q37 23 57 0z" />
<glyph unicode="&#x2122;" horiz-adv-x="1368" d="M43 1499q0 37 37 37h424q15 0 25 -10t10 -27v-133q0 -15 -10 -25t-25 -10h-109v-336q0 -41 -37 -41h-133q-39 0 -39 41v336h-106q-17 0 -27 10t-10 25v133zM891 954q-27 0 -37 33l-68 215l-24 -207q0 -19 -11 -30t-26 -11h-143q-33 0 -27 39l74 506q6 37 39 37h118 q35 0 48 -37l106 -289l107 289q13 37 47 37h118q33 0 39 -37l74 -506q6 -39 -27 -39h-143q-15 0 -26.5 11t-12.5 30l-22 207l-68 -215q-10 -33 -37 -33h-98z" />
<glyph unicode="&#x25fc;" horiz-adv-x="1105" d="M0 1106h1106v-1106h-1106v1106z" />
<glyph unicode="&#xfb01;" horiz-adv-x="1550" d="M217 0q-61 0 -61 61v695h-82q-29 0 -45.5 16t-16.5 45v223q0 29 16.5 45.5t45.5 16.5h82v57q0 261 187 421.5t493 160.5q325 0 567 -248q24 -25 26.5 -43t-18.5 -43l-184 -182q-24 -24 -40.5 -26.5t-35.5 15.5q-2 2 -23.5 26t-44 43.5t-55.5 43t-75.5 37.5t-86.5 14 q-99 0 -160 -65t-61 -172v-39h780q62 0 62 -62v-979q0 -61 -62 -61h-366q-60 0 -60 61v695h-354v-695q0 -61 -61 -61h-367z" />
<glyph unicode="&#xfb02;" horiz-adv-x="1771" d="M217 0q-61 0 -61 61v695h-82q-29 0 -45.5 16t-16.5 45v223q0 29 16.5 45.5t45.5 16.5h80v57q0 261 187.5 421.5t494.5 160.5q269 0 479 -182l86 53q28 18 57 2.5t29 -51.5v-981q0 -91 47.5 -156.5t132.5 -65.5h6q58 0 58 -59v-240q0 -61 -62 -61h-108 q-265 0 -413.5 149.5t-148.5 415.5v191h-354v-695q0 -61 -61 -61h-367zM645 1102h354v260q-46 16 -94 16q-116 0 -188 -68t-72 -169v-39z" />
<glyph unicode="&#xfb03;" horiz-adv-x="2416" d="M12 817v223q0 29 16.5 45.5t45.5 16.5h82v20q0 151 79 269.5t214.5 182.5t300.5 64q38 0 74 -4t62.5 -9t56 -16t46.5 -18t43 -23t36 -22t35 -23.5t30 -21.5q8 10 22.5 26t67 57.5t113 73t159.5 57.5t207 26q325 0 567 -248q24 -25 26.5 -43t-18.5 -43l-184 -182 q-24 -24 -40.5 -26.5t-37.5 15.5q-2 2 -18.5 20.5t-31 33.5t-41.5 36.5t-53.5 36.5t-63.5 26t-74 11q-99 0 -161.5 -65.5t-62.5 -171.5v-39h783q61 0 61 -62v-979q0 -61 -61 -61h-367q-61 0 -61 61v695h-355v-695q0 -61 -59 -61h-367q-61 0 -61 61v695h-379v-695 q0 -29 -15.5 -45t-43.5 -16h-367q-61 0 -61 61v695h-82q-29 0 -45.5 16t-16.5 45zM643 1102h379v59q-3 5 -8 13t-23.5 28t-40.5 35.5t-58 28t-75 12.5q-78 0 -126 -43t-48 -115v-18z" />
<glyph unicode="&#xfb04;" horiz-adv-x="2637" d="M12 817v223q0 29 16.5 45.5t45.5 16.5h82v20q0 151 79 269.5t214.5 182.5t300.5 64q38 0 74 -4t62.5 -9t56 -16t46.5 -18t43 -23t36 -22t35 -23.5t30 -21.5q8 10 22.5 26t67 57.5t113 73t159.5 57.5t207 26q86 0 162 -16.5t136 -46.5t99.5 -56.5t81.5 -62.5l84 53 q29 18 58.5 2.5t29.5 -51.5v-981q0 -91 47.5 -156.5t132.5 -65.5h7q57 0 57 -59v-240q0 -61 -62 -61h-108q-265 0 -414 149.5t-149 415.5v191h-355v-695q0 -61 -59 -61h-367q-61 0 -61 61v695h-379v-695q0 -29 -15.5 -45t-43.5 -16h-367q-61 0 -61 61v695h-82 q-29 0 -45.5 16t-16.5 45zM1509 1102h355v258q-41 18 -92 18q-116 0 -189.5 -68.5t-73.5 -168.5v-39zM641 1102h379v59q-3 5 -8 13t-23.5 28t-40.5 35.5t-58 28t-75 12.5q-78 0 -126 -43t-48 -115v-18z" />
</font>
</defs>
</svg>
