<?xml version="1.0" standalone="no"?>
<!DOCTYPE svg PUBLIC "-//W3C//DTD SVG 1.1//EN" "http://www.w3.org/Graphics/SVG/1.1/DTD/svg11.dtd" >
<svg xmlns="http://www.w3.org/2000/svg">
<metadata></metadata>
<defs>
<font id="merlo_neuethin_italic" horiz-adv-x="1157" >
<font-face units-per-em="2048" ascent="1536" descent="-512" />
<missing-glyph horiz-adv-x="536" />
<glyph horiz-adv-x="0" />
<glyph horiz-adv-x="682" />
<glyph unicode=" "  horiz-adv-x="536" />
<glyph unicode="&#x09;" horiz-adv-x="536" />
<glyph unicode="&#xa0;" horiz-adv-x="536" />
<glyph unicode="!" horiz-adv-x="458" d="M203 330q-13 0 -16.5 8.5t-0.5 32.5l148 1124q3 25 8.5 33t24.5 8h22q18 0 23 -8.5t2 -32.5l-170 -1124q-3 -22 -9.5 -31.5t-19.5 -9.5h-12zM141 12q-15 10 -17 29.5t9 34.5q9 18 28 25t38 -1q17 -10 19 -29t-9 -34q-9 -19 -29 -26.5t-39 1.5z" />
<glyph unicode="&#x22;" horiz-adv-x="561" d="M338 1538q27 0 18 -39l-71 -309q-2 -11 -10.5 -15.5t-16 0t-6.5 15.5l16 309q2 20 8.5 29.5t22.5 9.5h39zM561 1538q30 0 21 -39l-72 -309q-3 -11 -11.5 -15.5t-16 0t-7.5 15.5l17 309q2 21 8 30t24 9h37z" />
<glyph unicode="#" horiz-adv-x="1599" d="M940 535h-293l-131 -494q-10 -41 -35 -41h-20q-13 0 -16.5 7t1.5 32l129 496h-428q-25 0 -22 22l2 21q0 22 29 22h436l82 311h-420q-24 0 -21 23l3 20q0 23 28 23h428l109 416q10 41 33 41h20q14 0 19 -8t-1 -31l-108 -418h291l110 416q10 41 33 41h21q28 0 16 -39 l-107 -418h404q25 0 22 -23l-2 -20q0 -23 -30 -23h-414l-82 -311h397q13 0 18.5 -5t4.5 -17l-2 -21q0 -22 -29 -22h-405l-129 -494q-10 -41 -35 -41h-21q-14 0 -17 7t3 32zM662 600h294l80 311h-293z" />
<glyph unicode="$" horiz-adv-x="1032" d="M1008 1452q14 -14 4 -31l-15 -22q-12 -18 -34 -2q-131 84 -275 84q-158 0 -258 -98t-100 -230q0 -70 32 -130t82.5 -104t112.5 -85.5t123.5 -84t112 -89.5t82.5 -113t32 -144q0 -154 -112 -274.5t-291 -138.5l-8 -56q-3 -26 -27 -26h-20q-24 0 -21 26l8 54 q-120 4 -214 51.5t-146 99.5q-18 19 0 37l18 19q16 17 35 -2q55 -55 143.5 -96.5t192.5 -41.5q166 0 268.5 102t102.5 238q0 71 -32 131t-83 104t-112.5 85t-123 84t-112.5 89.5t-83 112.5t-32 144q0 154 109.5 271.5t289.5 129.5l7 49q3 27 24 27h23q24 0 18 -27l-6 -47 q48 -3 95 -14t80 -24.5t59 -26.5t39 -22z" />
<glyph unicode="%" horiz-adv-x="1107" d="M436 1229q-58 0 -97.5 41t-39.5 100q0 72 55 125t127 53q60 0 100 -41t40 -100q0 -72 -55.5 -125t-129.5 -53zM162 0q-16 0 -18 7t10 32l798 1456q14 27 21 34t24 7h21q14 0 15.5 -8t-9.5 -31l-799 -1456q-14 -26 -21.5 -33.5t-21.5 -7.5h-20zM444 1282q48 0 85.5 35 t37.5 84q0 39 -26.5 66.5t-67.5 27.5q-47 0 -84 -35.5t-37 -83.5q0 -39 26.5 -66.5t65.5 -27.5zM707 -12q-58 0 -98 41t-40 100q0 72 55.5 125t127.5 53q59 0 99 -41t40 -100q0 -72 -55 -125t-129 -53zM715 41q48 0 85.5 35t37.5 84q0 39 -27 66.5t-68 27.5q-47 0 -83.5 -35 t-36.5 -84q0 -39 26.5 -66.5t65.5 -27.5z" />
<glyph unicode="&#x26;" horiz-adv-x="1163" d="M477 -12q-158 0 -259 102.5t-101 267.5q0 78 21.5 147t54 117t76.5 88t81 63t76 40q-66 33 -119 121t-53 199q0 180 124 297.5t304 117.5q88 0 165 -35.5t128 -101.5q18 -22 0 -37l-19 -14q-19 -11 -32 4q-102 117 -250 117q-145 0 -246.5 -96.5t-101.5 -245.5 q0 -118 65.5 -204t171.5 -89q24 0 21 -23l-2 -20q0 -23 -29 -23q-67 -2 -132 -32t-117 -82.5t-84 -130.5t-32 -168q0 -139 83.5 -225.5t213.5 -86.5q142 0 253 96t132 246l35 246q3 25 27 25h196q23 0 23 -23l-2 -20q-1 -10 -9.5 -16.5t-19.5 -6.5h-151l-29 -205 q-25 -178 -157.5 -293.5t-305.5 -115.5z" />
<glyph unicode="'" horiz-adv-x="337" d="M252 1190l16 309q2 20 8.5 29.5t22.5 9.5h39q27 0 18 -39l-71 -309q-2 -11 -10.5 -15.5t-16 0t-6.5 15.5z" />
<glyph unicode="(" horiz-adv-x="610" d="M258 109q-19 -123 18 -180.5t134 -59.5q14 0 18.5 -4t3.5 -17l-4 -26q-3 -19 -27 -19q-125 2 -181.5 71t-35.5 220l176 1237q40 288 295 291q17 0 22 -4t3 -16l-4 -25q-3 -21 -29 -21q-98 -1 -150 -58.5t-69 -180.5z" />
<glyph unicode=")" horiz-adv-x="612" d="M51 -197q-13 0 -19 4.5t-5 14.5l4 26q2 21 30 21q97 1 149 59t69 181l170 1208q19 123 -17 180t-133 59q-15 0 -21 5t-4 16l5 27q1 12 6.5 15t21.5 3q258 -3 215 -291l-174 -1237q-21 -151 -96.5 -220t-200.5 -71z" />
<glyph unicode="*" horiz-adv-x="569" d="M655 1511q3 -21 -24 -30l-164 -51l78 -134q11 -23 -8 -34l-15 -9q-18 -12 -30 9l-78 133l-117 -133q-20 -23 -37 -9l-12 11q-13 11 2 32l117 134l-150 51q-23 10 -12 32l4 13q13 22 35 14l151 -51l23 164q3 28 28 28h13q23 0 20 -28l-22 -166l164 53q26 5 32 -14z" />
<glyph unicode="+" horiz-adv-x="811" d="M711 788q13 0 18 -4t4 -14l-4 -25q-3 -16 -27 -16h-233l-33 -237q-4 -25 -26 -25h-21q-20 0 -16 25l33 237h-226q-13 0 -18 4.5t-4 16.5l4 22q3 16 26 16h226l32 238q3 25 25 25h23q19 0 16 -25l-33 -238h234z" />
<glyph unicode="," horiz-adv-x="387" d="M66 49q0 32 22 52t51 20t45.5 -20t16.5 -54q0 -52 -33 -117.5t-88 -117.5q-17 -17 -25 -13l-10 8q-7 7 6 25q74 96 74 133q0 20 -21 29q-38 19 -38 55z" />
<glyph unicode="-" horiz-adv-x="739" d="M150 535q-11 0 -16.5 4t-4.5 14l4 25q3 18 25 18h458q11 0 15.5 -4t3.5 -14l-4 -25q-3 -18 -23 -18h-458z" />
<glyph unicode="." horiz-adv-x="376" d="M66 49q0 29 21 50.5t50 21.5q26 0 42 -17t16 -41q0 -29 -22.5 -50t-53.5 -21q-23 0 -38 16t-15 41z" />
<glyph unicode="/" horiz-adv-x="481" d="M76 0q-15 0 -18 7t3 32l369 1456q6 27 12 34t23 7h20q15 0 18 -8t-3 -31l-369 -1456q-6 -25 -13 -33t-22 -8h-20z" />
<glyph unicode="0" horiz-adv-x="1202" d="M539 -10q-188 0 -291 152.5t-103 430.5q0 288 74 509t210.5 343.5t315.5 122.5q187 0 290.5 -156t103.5 -438q0 -289 -73.5 -507.5t-209.5 -337.5t-317 -119zM547 55q154 0 272.5 113t183 316t64.5 466q0 254 -86.5 394.5t-243.5 140.5q-153 0 -272 -114.5t-183.5 -319.5 t-64.5 -467q0 -250 87.5 -389.5t242.5 -139.5z" />
<glyph unicode="1" horiz-adv-x="636" d="M342 0q-26 0 -23 25l201 1413l-301 -264q-23 -23 -39 -7l-12 15q-16 16 10 39l336 297q23 18 41 18h23q15 0 20.5 -6t3.5 -21l-211 -1484q-3 -25 -26 -25h-23z" />
<glyph unicode="2" horiz-adv-x="944" d="M92 0q-17 0 -21.5 5.5t-2.5 21.5l34 231q13 88 57 170.5t104.5 148.5t131.5 129t141.5 122t130.5 117t102 126t52 137q19 119 -43.5 197t-183.5 78q-72 0 -132.5 -30t-133.5 -91q-22 -19 -35 -4l-12 16q-9 15 8 35q148 139 317 139q150 0 229 -94.5t58 -241.5 q-10 -79 -52.5 -154.5t-103 -138t-132 -124.5l-143 -124t-132 -125t-104 -139.5t-54.5 -156.5l-27 -184h586q12 0 18 -5.5t5 -15.5l-4 -27q-3 -18 -27 -18h-631z" />
<glyph unicode="3" horiz-adv-x="978" d="M385 -12q-99 0 -190 43.5t-146 109.5q-17 20 2 35l17 17q18 15 34 -5q47 -54 122.5 -93.5t164.5 -39.5q159 0 277 117.5t118 296.5q0 137 -76 222.5t-184 88.5q-13 0 -18 4t-4 15l4 30q2 17 26 17q86 2 163 57.5t121 141t44 174.5q0 118 -74 190t-194 72 q-148 0 -268 -117q-16 -16 -31 0l-14 16q-13 12 6 31q132 137 317 137q149 0 239.5 -87t90.5 -232q0 -76 -27 -147t-70 -123t-88.5 -89t-89.5 -57q34 -16 65.5 -42.5t62.5 -67t50 -100.5t19 -130q0 -138 -66.5 -250.5t-173.5 -173.5t-229 -61z" />
<glyph unicode="4" horiz-adv-x="929" d="M621 0q-25 0 -19 27l60 430h-601q-15 0 -20 4.5t-2 15.5l2 23q2 13 25 47l735 964q18 25 37 25h24q22 0 19 -27l-140 -987h93q12 0 17.5 -4t4.5 -14l-4 -29q-3 -18 -27 -18h-92l-61 -430q-3 -27 -29 -27h-22zM129 522h541l125 885z" />
<glyph unicode="5" horiz-adv-x="976" d="M498 938q172 0 269 -101.5t97 -285.5q0 -258 -127 -410.5t-344 -152.5q-194 0 -305 139q-15 17 6 35l15 14q18 15 32 -4q39 -56 106 -87.5t154 -31.5q180 0 286 131.5t106 356.5q0 160 -82.5 245.5t-231.5 85.5h-221q-14 0 -18 5.5t-2 21.5l86 610q2 16 7 21.5t21 5.5 h545q14 0 20 -4.5t5 -15.5l-4 -27q-3 -12 -9 -15.5t-20 -3.5h-500l-76 -532h185z" />
<glyph unicode="6" horiz-adv-x="1099" d="M537 -12q-173 0 -278 139.5t-105 380.5q0 294 75 530t215.5 373t323.5 137q194 0 297 -135q9 -16 -4 -29l-21 -18q-10 -13 -28 0q-37 55 -103.5 86t-152.5 31q-130 0 -245 -105t-188.5 -287.5t-84.5 -398.5q64 109 173.5 183.5t237.5 74.5q155 0 250.5 -111t95.5 -292 q0 -248 -128.5 -403.5t-329.5 -155.5zM547 53q158 0 268.5 136t110.5 346q0 157 -80.5 253.5t-210.5 96.5q-120 0 -231 -85t-179 -218q-15 -239 73.5 -384t248.5 -145z" />
<glyph unicode="7" horiz-adv-x="794" d="M825 1470h-602q-25 0 -22 23l2 20q3 23 28 23h648q15 0 20.5 -5.5t3.5 -19.5l-4 -18q-6 -32 -12 -43l-701 -1411q-12 -25 -20 -32t-23 -7h-24q-14 0 -15.5 6.5t11.5 32.5z" />
<glyph unicode="8" horiz-adv-x="1097" d="M487 -12q-169 0 -273.5 108t-104.5 266q0 160 95 284t245 171q-84 37 -130.5 121.5t-46.5 183.5q0 108 51 204.5t151 159t228 62.5q153 0 238.5 -95.5t85.5 -235.5q0 -126 -76.5 -240t-199.5 -160q104 -37 163.5 -129t59.5 -215q0 -129 -62 -240t-174.5 -178t-249.5 -67z M606 852q81 0 148.5 32t110 83.5t66 113.5t23.5 125q0 113 -68 193t-194 80q-80 0 -147.5 -31.5t-110.5 -82.5t-66.5 -113t-23.5 -126q0 -113 67 -193.5t195 -80.5zM492 57q116 0 211.5 58t147.5 152.5t52 201.5q0 136 -82.5 224.5t-224.5 88.5q-180 0 -295 -119t-115 -288 q0 -132 84 -225t222 -93z" />
<glyph unicode="9" horiz-adv-x="1095" d="M410 -12q-192 0 -295 135q-13 16 4 29l20 18q12 15 27 0q83 -117 258 -117q97 0 188 62t160 168t115 252.5t55 308.5q-64 -108 -174.5 -183t-237.5 -75q-157 0 -251.5 110.5t-94.5 292.5q0 248 129 403.5t330 155.5q173 0 278 -139.5t105 -380.5q0 -295 -75 -530.5 t-216 -372.5t-325 -137zM545 651q119 0 229 84.5t180 218.5q15 239 -74 384t-249 145q-157 0 -268 -136t-111 -346q0 -157 80.5 -253.5t212.5 -96.5z" />
<glyph unicode=":" horiz-adv-x="370" d="M176 870q0 29 23 50.5t53 21.5q24 0 39.5 -15.5t15.5 -39.5q0 -30 -22 -52t-52 -22q-26 0 -41.5 16.5t-15.5 40.5zM61 49q0 29 22.5 50.5t51.5 21.5q24 0 39.5 -17t15.5 -41q0 -29 -21 -50t-52 -21q-25 0 -40.5 16t-15.5 41z" />
<glyph unicode=";" horiz-adv-x="403" d="M205 870q0 29 23 50.5t53 21.5q24 0 39.5 -15.5t15.5 -39.5q0 -30 -22 -52t-52 -22q-24 0 -40.5 16.5t-16.5 40.5zM66 49q0 32 22 52t51 20t45.5 -20t16.5 -54q0 -52 -33 -117.5t-88 -117.5q-17 -17 -25 -13l-10 8q-7 7 6 25q74 96 74 133q0 20 -21 29q-38 19 -38 55z " />
<glyph unicode="&#x3c;" horiz-adv-x="616" d="M166 735q-19 23 6 45l379 320q15 15 22 0l2 -37q6 -11 -8 -25l-323 -280l239 -271q18 -18 9 -32l-15 -37q-12 -14 -28 2z" />
<glyph unicode="=" horiz-adv-x="811" d="M197 858q-13 0 -18.5 5t-4.5 16l4 22q3 17 27 17h524q26 0 21 -21l-2 -23q-5 -16 -29 -16h-522zM162 604q-26 0 -21 21l2 22q6 17 29 17h522q13 0 18.5 -5t4.5 -16l-4 -22q-3 -17 -27 -17h-524z" />
<glyph unicode="&#x3e;" horiz-adv-x="616" d="M522 735l-370 -315q-23 -17 -29 -2l-4 37q-6 15 16 32l316 271l-244 280q-11 13 -2 25l12 37q5 6 11.5 6.5t11.5 -6.5l288 -320q19 -23 -6 -45z" />
<glyph unicode="?" horiz-adv-x="825" d="M330 358q-21 0 -21 17q0 116 21 208t55.5 151t76 106t85.5 85t82 75t66.5 88t37.5 114q19 122 -43.5 199.5t-181.5 77.5q-80 0 -140.5 -31t-125.5 -88q-19 -16 -33 -2l-14 14q-12 15 10 37q138 135 313 135q144 0 226.5 -91t64.5 -239q-9 -72 -37.5 -130t-67 -99 t-83.5 -80t-88 -85t-78 -102t-56.5 -142t-21.5 -195q0 -13 -5.5 -18t-19.5 -5h-22zM293 -8q-23 0 -38 16t-15 41q0 29 21 50.5t50 21.5q24 0 41 -17t17 -41q0 -29 -22.5 -50t-53.5 -21z" />
<glyph unicode="@" horiz-adv-x="2062" d="M1163 1438q245 0 431 -102t285 -284.5t99 -418.5q0 -225 -69.5 -412.5t-192.5 -297t-274 -109.5q-106 0 -172.5 60.5t-50.5 174.5l8 57q-142 -118 -285 -118q-155 0 -241.5 102.5t-86.5 286.5q0 263 125.5 420t333.5 157q89 0 147 -31.5t109 -86.5l12 82q3 24 25 24h23 q23 0 20 -24l-121 -857q-7 -52 5.5 -90t39.5 -57t56.5 -27t62.5 -8q129 0 235.5 101.5t166 272t59.5 370.5q0 164 -54 303t-151.5 236.5t-240 152.5t-312.5 55q-208 0 -392.5 -74t-318 -203.5t-211 -312.5t-77.5 -393q0 -221 92 -391.5t264 -265.5t399 -95h4q23 0 23 -22 l-2 -21q0 -22 -31 -22h-4q-244 0 -429 102t-283.5 285t-98.5 420q0 226 83 423.5t226 337t341.5 220t422.5 80.5zM954 51q154 0 283 125l84 590q-100 125 -250 125q-174 0 -281.5 -137.5t-107.5 -366.5q0 -157 72 -246.5t200 -89.5z" />
<glyph unicode="A" d="M25 0q-27 0 -11 29l664 1480q14 27 37 27h22q12 0 21 -7.5t10 -19.5l250 -1482q5 -27 -21 -27h-22q-12 0 -17 6t-8 21l-67 407h-617l-184 -407q-8 -15 -14.5 -21t-18.5 -6h-24zM295 500h575l-157 936z" />
<glyph unicode="B" horiz-adv-x="1138" d="M139 0q-26 0 -20 25l209 1486q3 25 26 25h357q177 0 268.5 -86t91.5 -238q0 -133 -69.5 -241t-198.5 -152q209 -68 209 -338q0 -227 -129.5 -354t-378.5 -127h-365zM305 850h334q88 0 158 30t113.5 80.5t66 113.5t22.5 132q0 123 -72.5 193.5t-213.5 70.5h-320zM197 66 h321q212 0 318 109.5t106 293.5q0 147 -74.5 231t-238.5 84h-332z" />
<glyph unicode="C" horiz-adv-x="1144" d="M639 -12q-227 0 -358 174t-131 481q0 196 53.5 365.5t144.5 288t216 186t265 67.5q216 0 373 -157q14 -14 0 -31l-12 -14q-16 -16 -33 -2q-139 139 -332 139q-124 0 -235 -63t-192.5 -172.5t-129 -266t-47.5 -334.5q0 -278 114 -437t310 -159q187 0 350 140q17 13 29 -5 l10 -18q9 -13 -8 -27q-75 -72 -176 -113.5t-211 -41.5z" />
<glyph unicode="D" horiz-adv-x="1308" d="M139 0q-11 0 -17 7.5t-3 17.5l209 1486q4 25 26 25h369q252 0 391 -160.5t139 -470.5q0 -195 -57 -364.5t-155.5 -287.5t-235.5 -185.5t-293 -67.5h-373zM197 66h317q140 0 263.5 62t212.5 170t140.5 263t51.5 334q0 287 -124.5 431t-348.5 144h-316z" />
<glyph unicode="E" horiz-adv-x="1083" d="M139 0q-11 0 -17 7.5t-3 17.5l209 1486q4 25 26 25h709q12 0 18 -7t4 -16l-4 -24q-3 -19 -26 -19h-662l-88 -622h563q10 0 17 -7t6 -16l-4 -24q-3 -19 -27 -19h-563l-100 -716h665q12 0 18 -7t3 -16l-2 -25q-6 -18 -27 -18h-715z" />
<glyph unicode="F" horiz-adv-x="964" d="M139 0q-11 0 -17 7.5t-3 17.5l209 1486q4 25 26 25h656q12 0 18 -7t4 -16l-4 -24q-3 -19 -27 -19h-608l-88 -626h506q12 0 17.5 -7t2.5 -16l-4 -24q-3 -19 -24 -19h-508l-107 -753q-4 -25 -26 -25h-23z" />
<glyph unicode="G" horiz-adv-x="1298" d="M150 643q0 196 53.5 365.5t144.5 288t216 186t265 67.5q216 0 373 -157q14 -14 0 -31l-12 -14q-16 -16 -33 -2q-139 139 -332 139q-124 0 -235 -63t-192.5 -172.5t-129 -266t-47.5 -334.5q0 -281 113.5 -438.5t318.5 -157.5q166 0 289 93t143 235l48 342h-328 q-11 0 -17.5 5t-5.5 15l4 25q6 20 29 20h373q23 0 20 -24l-53 -389q-25 -168 -169.5 -277.5t-336.5 -109.5q-238 0 -368.5 172.5t-130.5 482.5z" />
<glyph unicode="H" horiz-adv-x="1329" d="M139 0q-11 0 -17 7.5t-3 17.5l209 1486q4 25 26 25h23q11 0 17 -7.5t5 -17.5l-94 -667h821l95 667q4 25 26 25h23q11 0 17 -7.5t5 -17.5l-211 -1486q-4 -25 -26 -25h-23q-11 0 -17 7.5t-3 17.5l104 753h-821l-107 -753q-4 -25 -26 -25h-23z" />
<glyph unicode="I" horiz-adv-x="436" d="M139 0q-11 0 -17 7.5t-3 17.5l209 1486q4 25 26 25h23q11 0 17 -7.5t5 -17.5l-211 -1486q-4 -25 -26 -25h-23z" />
<glyph unicode="J" horiz-adv-x="876" d="M303 -12q-78 0 -148 31.5t-114 86.5q-14 17 4 35l14 17q17 16 37 -4q39 -49 94.5 -75t116.5 -26q112 0 200 75t107 210l166 1173q4 25 27 25h22q11 0 17.5 -7.5t3.5 -17.5l-164 -1167q-23 -160 -131 -258t-252 -98z" />
<glyph unicode="K" horiz-adv-x="1093" d="M139 0q-11 0 -17 7.5t-3 17.5l209 1486q4 25 26 25h23q11 0 17 -7.5t5 -17.5l-116 -827l764 829q21 21 31 22q3 1 7 1h39q12 0 15 -8t-6 -19l-629 -690l465 -792q6 -11 0 -19t-19 -8h-28q-21 0 -35 23l-441 745l-178 -184l-80 -559q-4 -25 -26 -25h-23z" />
<glyph unicode="L" horiz-adv-x="892" d="M139 0q-11 0 -17 7.5t-3 17.5l209 1486q4 25 26 25h23q11 0 17 -7.5t5 -17.5l-202 -1445h518q12 0 17.5 -7t2.5 -16l-2 -25q-6 -18 -26 -18h-568z" />
<glyph unicode="M" horiz-adv-x="1585" d="M84 0q-24 0 -18 27l346 1482q5 27 28 27h21q21 0 24 -23l254 -1413l652 1413q10 23 30 23h21q24 0 24 -27l-73 -1482q0 -27 -27 -27h-23q-20 0 -20 27l68 1347l-623 -1349q-11 -25 -33 -25h-20q-22 0 -25 25l-244 1349l-311 -1347q-6 -27 -26 -27h-25z" />
<glyph unicode="N" horiz-adv-x="1337" d="M137 0q-11 0 -16 7.5t-2 17.5l209 1486q4 25 26 25h15q17 0 28 -20l645 -1366l191 1361q4 25 27 25h20q10 0 16 -7t4 -18l-208 -1486q-7 -25 -29 -25h-16q-16 0 -25 20l-643 1379l-195 -1374q-4 -25 -24 -25h-23z" />
<glyph unicode="O" horiz-adv-x="1437" d="M852 1548q248 0 384 -172t136 -483q0 -195 -51 -362.5t-141.5 -287t-222 -187.5t-287.5 -68q-248 0 -384 171.5t-136 483.5q0 261 86 466t246.5 322t369.5 117zM678 53q186 0 328.5 109.5t217 298t74.5 426.5q0 284 -117.5 440t-336.5 156q-186 0 -328.5 -109 t-218.5 -298t-76 -427q0 -284 119 -440t338 -156z" />
<glyph unicode="P" horiz-adv-x="1107" d="M139 0q-11 0 -17 7.5t-3 17.5l209 1486q4 25 26 25h316q210 0 313.5 -107t103.5 -288q0 -104 -34 -195t-99 -162.5t-171 -113t-240 -41.5h-269l-86 -604q-4 -25 -26 -25h-23zM285 694h264q117 0 208.5 36t146.5 97.5t83.5 138.5t28.5 164q0 156 -88.5 248t-268.5 92h-266 z" />
<glyph unicode="Q" horiz-adv-x="1437" d="M963 57l184 -399q5 -14 0.5 -20.5t-14.5 -6.5h-33q-12 0 -19 5t-14 22l-168 371q-109 -41 -229 -41q-248 0 -384 171.5t-136 483.5q0 261 86 466t246.5 322t369.5 117q248 0 384 -172t136 -483q0 -292 -109 -514t-300 -322zM221 649q0 -284 119 -440t338 -156 q186 0 328.5 109.5t217 298t74.5 426.5q0 284 -117.5 440t-336.5 156q-186 0 -328.5 -109t-218.5 -298t-76 -427z" />
<glyph unicode="R" horiz-adv-x="1153" d="M139 0q-11 0 -17 7.5t-3 17.5l209 1486q3 25 26 25h357q210 0 312.5 -96.5t102.5 -265.5q0 -184 -110 -319t-318 -163l273 -665q4 -13 -3 -20t-20 -7h-24q-23 0 -33 25l-270 661h-338l-95 -661q-4 -25 -26 -25h-23zM293 752h315q89 0 163.5 22.5t126 61.5t87 91.5t52 112 t16.5 123.5q0 143 -84 225t-260 82h-316z" />
<glyph unicode="S" horiz-adv-x="1032" d="M453 -12q-125 0 -223.5 48t-153.5 103q-18 19 0 37l18 19q16 17 35 -2q55 -55 143.5 -96.5t192.5 -41.5q166 0 268.5 102t102.5 238q0 71 -32 131t-83 104t-112.5 85t-123 84t-112.5 89.5t-83 112.5t-32 144q0 77 30.5 149.5t85 129t138 90.5t182.5 34q53 0 104.5 -10 t87.5 -24t65 -28t43 -24l14 -10q14 -14 4 -31l-15 -22q-12 -18 -34 -2q-131 84 -275 84q-158 0 -258 -98t-100 -230q0 -70 32 -130t82.5 -104t112.5 -85.5t123.5 -84t112 -89.5t82.5 -113t32 -144q0 -80 -33 -155t-91 -132.5t-144 -92.5t-186 -35z" />
<glyph unicode="T" horiz-adv-x="1058" d="M453 0q-12 0 -18.5 7t-4.5 18l203 1448h-422q-12 0 -18 6t-5 16l5 23q3 18 24 18h922q12 0 17.5 -7t2.5 -16l-2 -22q-6 -18 -27 -18h-425l-203 -1448q-4 -25 -29 -25h-20z" />
<glyph unicode="U" horiz-adv-x="1298" d="M580 -12q-225 0 -336.5 143.5t-75.5 403.5l139 976q4 25 27 25h22q11 0 17.5 -7.5t5.5 -17.5l-139 -987q-33 -227 63 -350t287 -123t321 123t162 350l139 987q4 25 27 25h23q11 0 17 -7.5t5 -17.5l-139 -976q-36 -260 -187.5 -403.5t-377.5 -143.5z" />
<glyph unicode="V" horiz-adv-x="1101" d="M473 0q-14 0 -19 5t-8 22l-258 1482q-3 15 2.5 21t20.5 6h22q14 0 20 -5t9 -22l236 -1407l632 1407q7 17 15 22t22 5h21q29 0 18 -27l-674 -1482q-7 -17 -14.5 -22t-21.5 -5h-23z" />
<glyph unicode="W" horiz-adv-x="1732" d="M209 1509q-3 27 20 27h27q24 0 27 -27l153 -1398l531 1398q10 27 34 27h25q28 0 31 -27l135 -1398l549 1398q8 27 31 27h26q27 0 17 -27l-590 -1482q-13 -27 -35 -27h-23q-23 0 -26 27l-142 1396l-534 -1396q-10 -27 -35 -27h-20q-22 0 -29 27z" />
<glyph unicode="X" horiz-adv-x="966" d="M-8 0q-25 0 -10 27l503 759l-274 723q-4 15 0.5 21t19.5 6h27q22 0 29 -25l248 -665l434 665q8 16 16 20.5t21 4.5h28q27 0 10 -27l-479 -723l293 -759q11 -27 -18 -27h-27q-23 0 -31 25l-264 704l-461 -704q-17 -25 -37 -25h-28z" />
<glyph unicode="Y" horiz-adv-x="999" d="M1026 1511q14 25 37 25h24q30 0 13 -27l-535 -804l-94 -680q-7 -25 -29 -25h-22q-10 0 -16.5 7t-4.5 18l95 680l-306 804q-7 27 19 27h24q22 0 33 -25l273 -747z" />
<glyph unicode="Z" horiz-adv-x="995" d="M55 0q-10 0 -17 7t-5 16l6 30q5 26 14 39l912 1378h-695q-11 0 -17 5.5t-5 15.5l4 25q2 20 27 20h741q27 0 24 -23l-4 -28q-6 -26 -16 -39l-911 -1380h682q13 0 19 -5.5t3 -15.5l-2 -25q-6 -20 -29 -20h-731z" />
<glyph unicode="[" horiz-adv-x="704" d="M139 -414q-15 0 -18.5 4.5t-1.5 22.5l280 2001q1 17 7 21.5t22 4.5h322q14 0 19.5 -4t4.5 -16l-4 -25q-2 -20 -29 -20h-276l-270 -1923h276q28 0 25 -23l-4 -24q-3 -19 -29 -19h-324z" />
<glyph unicode="\" horiz-adv-x="675" d="M455 0q-14 0 -20 8.5t-9 32.5l-164 1454q-3 23 1 32t18 9h20q17 0 22.5 -7.5t8.5 -33.5l164 -1456q3 -24 -1.5 -31.5t-19.5 -7.5h-20z" />
<glyph unicode="]" horiz-adv-x="704" d="M20 -414q-12 0 -17.5 5.5t-4.5 15.5l4 26q3 19 29 19h276l271 1923h-277q-14 0 -20 4.5t-5 15.5l5 27q3 18 28 18h322q17 0 21 -4.5t3 -21.5l-280 -2001q-3 -17 -9 -22t-22 -5h-324z" />
<glyph unicode="^" horiz-adv-x="835" d="M559 1481l-264 -246q-31 -24 -47 -8l-12 14q-16 16 16 45l301 254q16 16 29 0l229 -254q14 -18 15 -26t-11 -19l-14 -12q-15 -15 -24 -13.5t-23 19.5z" />
<glyph unicode="_" horiz-adv-x="1124" d="M35 -20q0 20 26 20h869q23 0 20 -20l-2 -21q0 -20 -28 -20h-867q-23 0 -20 20z" />
<glyph unicode="`" horiz-adv-x="354" d="M477 1561l-198 180q-28 22 -7 43l17 18q8 12 18.5 11.5t26.5 -17.5l184 -194q20 -17 4 -33l-10 -10q-16 -17 -35 2z" />
<glyph unicode="a" horiz-adv-x="888" d="M817 942q25 0 19 -24l-125 -893q-3 -25 -25 -25h-24q-22 0 -19 25l10 69q-135 -106 -272 -106q-134 0 -214.5 104t-80.5 289q0 258 119.5 415.5t306.5 157.5q147 0 248 -112l10 76q6 24 25 24h22zM664 170l86 600q-98 121 -236 121q-156 0 -258 -138t-102 -362 q0 -158 66.5 -249t176.5 -91q71 0 141.5 34t125.5 85z" />
<glyph unicode="b" horiz-adv-x="950" d="M565 954q141 0 221 -97t80 -288q0 -253 -121.5 -417t-302.5 -164q-84 0 -151.5 33t-100.5 81l-10 -77q-3 -25 -24 -25h-23q-24 0 -18 25l209 1486q3 25 24 25h23q23 0 20 -25l-94 -667q110 110 268 110zM442 51q152 0 254.5 145.5t102.5 362.5q0 165 -66 248.5t-180 83.5 q-79 0 -151 -36t-117 -91l-84 -590q30 -50 96 -86.5t145 -36.5z" />
<glyph unicode="c" horiz-adv-x="858" d="M793 866q14 -11 6 -24l-13 -23q-9 -17 -28 -2q-98 74 -226 74q-157 0 -266.5 -127.5t-109.5 -335.5q0 -172 79.5 -274.5t219.5 -102.5q121 0 239 78q16 12 27 -4l10 -19q8 -13 -6 -24q-128 -94 -279 -94q-167 0 -262.5 118t-95.5 318q0 120 35.5 220.5t96.5 168 t141.5 104.5t170.5 37q140 0 261 -88z" />
<glyph unicode="d" horiz-adv-x="919" d="M899 1536q24 0 21 -25l-211 -1486q-3 -25 -25 -25h-22q-25 0 -19 25l10 69q-135 -106 -272 -106q-134 0 -214.5 104t-80.5 289q0 258 119.5 415.5t306.5 157.5q143 0 246 -110l94 667q3 25 25 25h22zM664 170l84 602q-99 119 -234 119q-156 0 -258 -138t-102 -362 q0 -158 66.5 -249t176.5 -91q71 0 141.5 34t125.5 85z" />
<glyph unicode="e" horiz-adv-x="911" d="M88 422q0 119 36.5 221t96.5 169t137.5 104.5t159.5 37.5q70 0 129.5 -27.5t104.5 -79.5t65.5 -137.5t9.5 -193.5q-4 -47 -11 -59.5t-23 -12.5h-635q-6 -174 73.5 -283.5t223.5 -109.5q125 0 239 78q18 14 27 -4l10 -19q8 -12 -4 -24q-121 -94 -278 -94 q-166 0 -263.5 118t-97.5 316zM164 504h594q25 178 -46 282.5t-200 104.5q-130 0 -228 -109.5t-120 -277.5z" />
<glyph unicode="f" horiz-adv-x="583" d="M743 1462q17 -24 2 -37l-16 -14q-15 -13 -31 6q-61 68 -131 68q-69 0 -123.5 -50t-66.5 -137l-51 -356h227q13 0 18 -4.5t4 -15.5l-4 -23q-3 -16 -26 -16h-228l-120 -858q-3 -25 -25 -25h-22q-24 0 -21 25l121 858h-123q-11 0 -16.5 4.5t-4.5 15.5l5 23q3 16 26 16h121 l51 358q15 112 91 180t173 68q105 0 170 -86z" />
<glyph unicode="g" horiz-adv-x="923" d="M817 942q22 0 19 -24l-156 -1133q-19 -129 -116.5 -213t-237.5 -84q-158 0 -244 94q-20 23 0 37l12 12q16 16 33 -4q80 -76 199 -76q118 0 195 66t91 168l43 313q-135 -110 -274 -110q-134 0 -214.5 104t-80.5 289q0 258 119.5 415.5t306.5 157.5q147 0 248 -112l10 76 q3 24 25 24h22zM666 172l84 598q-98 121 -236 121q-156 0 -258 -138t-102 -362q0 -158 66.5 -249t176.5 -91q138 0 269 121z" />
<glyph unicode="h" horiz-adv-x="942" d="M586 954q131 0 209.5 -87t56.5 -246l-86 -596q-3 -25 -25 -25h-22q-24 0 -21 25l82 581q21 139 -40.5 213t-170.5 74q-42 0 -83.5 -11t-79 -32.5t-63.5 -39.5t-58 -44l-105 -741q-3 -25 -24 -25h-23q-24 0 -18 25l209 1486q3 25 24 25h23q23 0 20 -25l-96 -671 q147 114 291 114z" />
<glyph unicode="i" horiz-adv-x="436" d="M313 1151q-24 0 -40.5 16.5t-16.5 40.5q0 30 22 52t52 22q24 0 40.5 -16.5t16.5 -40.5q0 -30 -22 -52t-52 -22zM139 0q-21 0 -18 25l127 893q3 13 8 18.5t16 5.5h23q24 0 18 -24l-125 -893q-3 -25 -24 -25h-25z" />
<glyph unicode="j" horiz-adv-x="442" d="M319 1151q-24 0 -39.5 16.5t-15.5 40.5q0 30 22 52t52 22q24 0 40.5 -16.5t16.5 -40.5q0 -30 -23 -52t-53 -22zM-109 -512q-110 0 -172 86q-17 23 0 37l17 14q16 12 31 -6q55 -68 127 -68q70 0 125.5 50t68.5 137l166 1180q3 24 25 24h22q24 0 21 -24l-166 -1182 q-17 -112 -93 -180t-172 -68z" />
<glyph unicode="k" horiz-adv-x="835" d="M788 942q11 0 13.5 -8.5t-8.5 -20.5l-347 -346l265 -538q6 -15 0 -22t-19 -7h-26q-8 0 -12 1t-8.5 6.5t-10.5 17.5l-242 491l-166 -158l-47 -333q-3 -25 -24 -25h-23q-24 0 -18 25l209 1486q3 25 24 25h23q23 0 20 -25l-151 -1062l477 469q16 16 24 20t21 4h26z" />
<glyph unicode="l" horiz-adv-x="569" d="M391 0q-140 0 -208 77.5t-48 213.5l170 1220q6 25 27 25h20q24 0 21 -25l-172 -1218q-15 -108 38.5 -169t163.5 -61h7q11 0 16 -4t4 -14l-4 -27q-3 -18 -25 -18h-10z" />
<glyph unicode="m" horiz-adv-x="1462" d="M1096 954q133 0 214 -87.5t58 -245.5l-84 -596q-3 -25 -27 -25h-20q-23 0 -20 25l81 581q19 136 -45 211.5t-176 75.5q-43 0 -82 -11t-75.5 -34.5t-57.5 -40.5t-55 -47q13 -66 2 -139l-84 -596q-3 -25 -27 -25h-20q-24 0 -21 25l82 581q19 135 -42 211t-169 76 q-73 0 -132.5 -30.5t-119.5 -80.5l-106 -757q-3 -25 -25 -25h-24q-22 0 -19 25l127 893q6 24 25 24h22q25 0 19 -24l-8 -62q127 98 258 98q82 0 146 -35t95 -104q144 139 310 139z" />
<glyph unicode="n" horiz-adv-x="929" d="M573 958q132 0 210.5 -87t56.5 -246l-86 -596q-3 -25 -25 -25h-22q-24 0 -21 25l82 581q21 139 -40.5 213t-170.5 74q-55 0 -113 -22.5t-91 -44.5t-79 -58l-104 -747q-3 -25 -25 -25h-24q-22 0 -19 25l127 893q6 24 25 24h22q25 0 19 -24l-10 -74q136 114 288 114z" />
<glyph unicode="o" horiz-adv-x="970" d="M422 -12q-157 0 -246.5 107t-89.5 302q0 250 133.5 403.5t329.5 153.5q157 0 245.5 -106t88.5 -301q0 -249 -133.5 -404t-327.5 -155zM430 51q160 0 272.5 136t112.5 350q0 168 -73.5 261t-200.5 93q-161 0 -273 -134.5t-112 -350.5q0 -169 73.5 -262t200.5 -93z" />
<glyph unicode="p" horiz-adv-x="940" d="M555 954q141 0 221 -97t80 -288q0 -253 -121.5 -417t-302.5 -164q-84 0 -151.5 32.5t-98.5 79.5l-84 -587q-6 -25 -26 -25h-21q-23 0 -20 25l198 1405q3 24 25 24h22q24 0 21 -24l-10 -74q110 110 268 110zM432 51q152 0 254 145.5t102 362.5q0 165 -65.5 248.5 t-179.5 83.5q-78 0 -150 -35.5t-119 -89.5l-81 -594q28 -49 94.5 -85t144.5 -36z" />
<glyph unicode="q" horiz-adv-x="876" d="M815 942q24 0 21 -24l-199 -1405q-6 -25 -27 -25h-20q-24 0 -21 25l82 581q-135 -106 -270 -106q-134 0 -214.5 104t-80.5 289q0 258 119.5 415.5t306.5 157.5q143 0 246 -110l10 74q3 24 25 24h22zM397 51q138 0 265 117l86 604q-96 119 -234 119q-156 0 -258 -138 t-102 -362q0 -158 66.5 -249t176.5 -91z" />
<glyph unicode="r" horiz-adv-x="671" d="M670 889q24 -24 14 -39q-5 -10 -16 -21q-17 -17 -39 2q-66 60 -144 60q-120 0 -211 -115l-104 -751q-3 -25 -25 -25h-24q-22 0 -19 25l127 893q6 24 25 24h22q25 0 19 -24l-8 -64q89 100 213 100q99 0 170 -65z" />
<glyph unicode="s" horiz-adv-x="778" d="M338 -12q-169 0 -287 90q-24 17 -10 35l12 18q14 20 37 4q107 -84 254 -84q114 0 181 58t67 147q0 33 -11 60t-26 44.5t-46 36t-53.5 28.5t-66.5 28q-109 47 -163 100.5t-54 144.5q0 114 79 185t208 71q136 0 227 -71q20 -13 8 -33l-10 -16q-13 -18 -35 -5 q-96 62 -196 62q-95 0 -153 -52t-58 -134q0 -68 45.5 -111.5t140.5 -83.5q46 -20 72 -32.5t61.5 -36t54 -47t32.5 -58.5t14 -78q0 -122 -90.5 -196t-233.5 -74z" />
<glyph unicode="t" horiz-adv-x="688" d="M348 -12q-96 0 -149.5 69t-36.5 181l90 645h-125q-11 0 -16.5 4.5t-4.5 15.5l5 23q3 16 26 16h123l43 303q3 27 27 27h22q22 0 19 -27l-43 -303h225q13 0 18 -4.5t4 -15.5l-4 -23q-3 -16 -26 -16h-226l-92 -643q-12 -86 27 -137.5t106 -51.5q85 0 152 70q18 19 33 4 l10 -12q13 -16 -8 -37q-36 -39 -88.5 -63.5t-110.5 -24.5z" />
<glyph unicode="u" horiz-adv-x="915" d="M834 942q24 0 18 -24l-125 -893q-3 -25 -25 -25h-24q-22 0 -19 25l11 77q-32 -25 -52 -39.5t-56 -35t-76 -30t-85 -9.5q-63 0 -115.5 21.5t-91 61.5t-55 105t-4.5 146l84 596q3 24 27 24h20q24 0 21 -24l-82 -582q-19 -140 41.5 -213.5t169.5 -73.5q40 0 76.5 9.5 t69.5 29.5t53.5 35.5t51.5 41.5q9 7 13 11l106 742q6 24 25 24h23z" />
<glyph unicode="v" horiz-adv-x="856" d="M352 0q-18 0 -23 6.5t-10 30.5l-180 874q-5 31 21 31h22q11 0 16 -4t9 -20l166 -830l401 830q7 16 13.5 20t19.5 4h18q30 0 15 -31l-424 -874q-10 -21 -20 -29t-25 -8h-19z" />
<glyph unicode="w" horiz-adv-x="1404" d="M328 0q-17 0 -22.5 6.5t-10.5 30.5l-148 874q-5 31 23 31h23q9 0 14 -5t8 -19l137 -824l371 811q11 25 17.5 31t19.5 6h18q12 0 16.5 -5.5t8.5 -31.5l143 -811l369 824q10 24 31 24h20q28 0 14 -31l-395 -874q-9 -23 -16.5 -30t-24.5 -7h-20q-15 0 -20.5 7t-10.5 30 l-139 794l-363 -794q-10 -23 -19 -30t-24 -7h-20z" />
<glyph unicode="x" horiz-adv-x="860" d="M31 0q-14 0 -16 9t10 22l364 452l-217 428q-7 13 -2.5 22t16.5 9h27q11 0 17 -4.5t16 -22.5l190 -380l303 380q19 27 39 27h29q12 0 14 -9t-8 -22l-342 -430l238 -450q7 -13 4 -22t-15 -9h-28q-19 0 -33 27l-211 405l-326 -405q-13 -17 -21 -22t-20 -5h-28z" />
<glyph unicode="y" horiz-adv-x="890" d="M27 -512q-37 0 -74 12q-19 6 -24.5 12t-0.5 17l11 25q8 16 34 8q37 -11 60 -11q66 0 107 40t75 110l143 293l-184 917q-5 31 21 31h22q12 0 17 -4t8 -20l166 -828l401 828q10 24 33 24h20q27 0 15 -31l-609 -1241q-89 -182 -241 -182z" />
<glyph unicode="z" horiz-adv-x="886" d="M125 61h557q12 0 16.5 -3t1.5 -13l-2 -29q-5 -16 -26 -16h-606q-26 0 -23 23l4 26q3 20 21 41l688 791h-547q-13 0 -18.5 3t-2.5 13l5 27q3 18 26 18h598q14 0 20 -5t3 -17l-4 -27q-2 -17 -21 -41z" />
<glyph unicode="{" horiz-adv-x="657" d="M412 -414q-257 3 -217 287l92 649q14 101 -13 150t-98 49q-21 0 -28 5t-5 19l2 21q0 14 8.5 19.5t30.5 5.5q76 0 115.5 51t52.5 147l64 447q40 283 295 286q27 0 24 -20l-4 -25q-3 -20 -29 -20q-98 -1 -150 -58.5t-69 -181.5l-61 -444q-21 -151 -119 -217q78 -67 57 -221 l-92 -644q-19 -123 18 -180t134 -59q27 0 24 -23l-4 -24q-3 -19 -28 -19z" />
<glyph unicode="|" horiz-adv-x="434" d="M68 -512q-24 0 -21 25l283 1998q3 25 24 25h23q23 0 20 -25l-282 -1998q-3 -25 -25 -25h-22z" />
<glyph unicode="}" horiz-adv-x="657" d="M-2 -414q-28 0 -25 23l4 24q3 19 29 19q98 1 149 58t68 181l92 644q22 158 119 221q-78 64 -57 217l61 444q19 123 -16.5 181t-132.5 59q-28 0 -25 22l4 25q3 18 29 18q257 -3 217 -286l-63 -447q-14 -97 10 -147.5t98 -50.5q21 0 29 -5.5t6 -19.5l-2 -21q0 -24 -41 -24 q-73 0 -112.5 -49t-53.5 -150l-92 -649q-40 -284 -295 -287z" />
<glyph unicode="~" horiz-adv-x="937" d="M657 688q-45 0 -89 16.5t-74 36t-67.5 36t-70.5 16.5q-73 0 -145 -84q-16 -19 -31 -11l-16 13q-16 8 -2 28q47 64 101.5 89.5t101.5 25.5q43 0 84.5 -16t69 -36t65.5 -36t75 -16q82 0 154 84q13 18 27 10l18 -13q16 -8 2 -28q-47 -64 -101.5 -89.5t-101.5 -25.5z" />
<glyph unicode="&#xa1;" horiz-adv-x="462" d="M283 1012q22 9 39 1.5t22 -26.5q6 -16 -1.5 -34.5t-27.5 -28.5q-20 -8 -37 -1t-20 25q-8 15 -0.5 34.5t25.5 29.5zM256 694h12q13 0 16.5 -9.5t0.5 -31.5l-146 -1124q-3 -24 -10.5 -32.5t-26.5 -8.5h-22q-19 0 -22 9t1 32l168 1124q3 23 9.5 32t19.5 9z" />
<glyph unicode="&#xa2;" horiz-adv-x="858" d="M793 866q14 -11 6 -24l-13 -23q-9 -17 -28 -2q-98 74 -226 74q-157 0 -266.5 -127.5t-109.5 -335.5q0 -172 79.5 -274.5t219.5 -102.5q121 0 239 78q16 12 27 -4l10 -19q8 -13 -6 -24q-128 -94 -279 -94h-4l-8 -54q-3 -26 -26 -26h-21q-23 0 -20 26l8 60 q-136 25 -211.5 138.5t-75.5 291.5q0 231 122.5 376t301.5 154l6 56q3 26 27 26h20q24 0 21 -26l-8 -58q116 -14 215 -86z" />
<glyph unicode="&#xa3;" horiz-adv-x="942" d="M762 66q11 0 18 -7t4 -16l-4 -20q-8 -23 -28 -23h-607q-10 0 -16 7t-4 18l100 714h-116q-13 0 -18.5 4.5t-2.5 14.5l2 24q6 17 29 17h114l70 501q11 73 56 131t103.5 87.5t117.5 29.5q61 0 107.5 -25t72.5 -61q9 -12 8.5 -20.5t-12.5 -18.5l-13 -12q-13 -13 -30 6 q-55 68 -140 68q-66 0 -125.5 -51t-72.5 -136l-70 -499h250q13 0 18.5 -5t4.5 -16l-5 -22q-3 -17 -26 -17h-250l-94 -673h559z" />
<glyph unicode="&#xa5;" horiz-adv-x="999" d="M1100 1509l-535 -804l-18 -127h180q24 0 21 -21l-5 -22q-3 -17 -26 -17h-178l-23 -174h176q13 0 18.5 -4.5t4.5 -15.5l-4 -23q-3 -16 -27 -16h-176l-37 -260q-7 -25 -29 -25h-22q-10 0 -16.5 7t-4.5 18l37 260h-174q-13 0 -18 4t-4 14l4 25q3 16 26 16h174l23 174h-172 q-24 0 -21 21l5 22q3 17 26 17h170l19 127l-306 804q-7 27 19 27h24q22 0 33 -25l273 -747l489 747q14 25 37 25h24q30 0 13 -27z" />
<glyph unicode="&#xa7;" horiz-adv-x="821" d="M793 1350q22 -16 6 -35l-11 -19q-12 -20 -34 -2q-87 62 -215 62q-105 0 -169.5 -56.5t-64.5 -142.5q0 -20 6 -37t12 -29.5t23.5 -27t26.5 -21.5t36 -20.5t36.5 -18t43.5 -18.5q15 -7 23 -10q16 -7 44.5 -19t45.5 -19.5t42 -20t40 -23.5t32.5 -27.5t27 -34t16 -41.5 t6.5 -51q0 -102 -61.5 -171.5t-163.5 -96.5q78 -35 119.5 -78t41.5 -119q0 -130 -100 -208t-252 -78q-84 0 -164.5 24t-136.5 64q-20 14 -8 35l10 16q6 11 18 13t21 -5q123 -84 272 -84q116 0 193.5 59.5t77.5 149.5q0 21 -6.5 40t-13.5 32.5t-26.5 29t-29.5 23.5t-39 21.5 t-39.5 18t-44.5 18.5q-16 7 -24 10q-114 50 -148 72q-89 61 -90 161q0 104 65 172.5t173 87.5q-87 38 -130.5 82t-43.5 123q0 122 87.5 195t225.5 73q137 0 244 -69zM696 725q0 35 -14.5 62.5t-45.5 49.5t-58 35.5t-74 32.5q-133 -3 -198.5 -64t-65.5 -149q0 -27 10.5 -49.5 t23 -37.5t42 -32.5t47 -25.5t58.5 -26q16 -7 25 -11q109 6 179.5 67.5t70.5 147.5z" />
<glyph unicode="&#xa8;" horiz-adv-x="557" d="M352 1556q-24 0 -39.5 16.5t-15.5 39.5q0 29 22 50t52 21q23 0 38 -16.5t15 -38.5q0 -29 -22 -50.5t-50 -21.5zM641 1556q-23 0 -39 17t-16 39q0 29 22.5 50t50.5 21q23 0 39.5 -16.5t16.5 -38.5q0 -29 -23 -50.5t-51 -21.5z" />
<glyph unicode="&#xa9;" horiz-adv-x="1667" d="M776 2q-199 0 -350.5 84.5t-233 236t-81.5 347.5q0 187 68.5 351t186 279t280.5 181.5t347 66.5q294 0 470.5 -184t176.5 -481q0 -249 -115 -451.5t-312.5 -316t-436.5 -113.5zM784 55q164 0 311.5 62.5t254 170t169 260.5t62.5 326q0 275 -163 446t-431 171 q-170 0 -321 -61.5t-260 -168.5t-172.5 -259.5t-63.5 -325.5q0 -276 167.5 -448.5t446.5 -172.5zM827 289q-156 0 -239.5 101t-83.5 282q0 256 124.5 410.5t334.5 154.5q197 0 282 -135q12 -19 -2 -33q-4 -2 -14 -12q-19 -16 -35 4q-39 53 -102 84t-136 31 q-178 0 -283.5 -135t-105.5 -361q0 -155 71.5 -243.5t201.5 -88.5q74 0 144.5 31t123.5 84q24 24 35 6l12 -12q13 -16 -6 -35q-130 -133 -322 -133z" />
<glyph unicode="&#xab;" horiz-adv-x="972" d="M147 489q-20 23 7 46l378 319q15 15 23 0l2 -37q5 -11 -8 -24l-324 -281l240 -270q17 -17 8 -33l-14 -37q-12 -15 -29 2zM506 489q-20 23 6 46l379 319q15 15 22 0l2 -37q5 -11 -8 -24l-323 -281l239 -270q17 -17 8 -33l-14 -37q-12 -15 -29 2z" />
<glyph unicode="&#xad;" horiz-adv-x="739" d="M150 535q-11 0 -16.5 4t-4.5 14l4 25q3 18 25 18h458q11 0 15.5 -4t3.5 -14l-4 -25q-3 -18 -23 -18h-458z" />
<glyph unicode="&#xae;" horiz-adv-x="1667" d="M774 2q-297 0 -480 187.5t-183 482.5q0 246 117.5 447.5t319.5 315t445 113.5q291 0 469 -186t178 -481q0 -185 -68 -349t-184 -280t-276 -183t-338 -67zM784 55q217 0 399.5 106.5t289 294.5t106.5 416q0 180 -73 320.5t-208.5 219.5t-312.5 79q-224 0 -410.5 -105 t-295.5 -292t-109 -416q0 -274 168.5 -448.5t445.5 -174.5zM559 289q-23 0 -20 22l127 903q3 23 26 23h293q134 0 204.5 -61t70.5 -172q0 -59 -15 -107.5t-39 -81t-58.5 -57t-70 -38t-76.5 -20.5l150 -387q8 -24 -18 -24h-23q-24 0 -33 22l-147 383h-273l-53 -383 q-3 -22 -26 -22h-19zM668 756h254q272 0 272 239q0 89 -53.5 136t-159.5 47h-256z" />
<glyph unicode="&#xaf;" horiz-adv-x="530" d="M256 1612q3 16 29 16h420q13 0 18 -4.5t4 -15.5l-4 -23q-3 -16 -27 -16h-422q-22 0 -20 20z" />
<glyph unicode="&#xb0;" horiz-adv-x="563" d="M365 1069q-58 0 -98 41t-40 100q0 72 55.5 125.5t127.5 53.5q59 0 99 -41.5t40 -100.5q0 -72 -55 -125t-129 -53zM373 1122q48 0 85.5 35t37.5 84q0 39 -27 66.5t-68 27.5q-47 0 -83.5 -35t-36.5 -83q0 -39 26.5 -67t65.5 -28z" />
<glyph unicode="&#xb4;" horiz-adv-x="350" d="M283 1561q-24 -17 -35 0l-8 10q-10 14 14 31l240 194q17 13 25 15t20 -9l12 -18q17 -19 -19 -43z" />
<glyph unicode="&#xb6;" horiz-adv-x="1636" d="M1122 -598q-23 0 -20 27l287 2041h-447l-287 -2041q-3 -27 -28 -27h-23q-23 0 -20 27l176 1247h-223q-158 0 -263.5 108.5t-105.5 270.5q0 126 64 237t170.5 177.5t226.5 66.5h1048q26 0 23 -23l-2 -18q0 -25 -29 -25h-209l-286 -2041q-3 -27 -29 -27h-23z" />
<glyph unicode="&#xb7;" horiz-adv-x="354" d="M150 745q0 30 22.5 52t52.5 22q26 0 43 -16.5t17 -40.5q0 -30 -23.5 -52t-54.5 -22q-24 0 -40.5 16.5t-16.5 40.5z" />
<glyph unicode="&#xb8;" horiz-adv-x="493" d="M162 -500q-59 0 -103 33q-13 8 -2 25l13 22q9 13 24 4q32 -22 74 -22q67 0 117.5 46.5t50.5 115.5q0 53 -37 87.5t-90 34.5q-70 0 -127 -63q-11 -19 -23 -12l-18 6q-17 6 -10 20l108 238l60 -2l-74 -166q51 33 108 33q70 0 117 -48.5t47 -119.5q0 -100 -70 -166t-165 -66 z" />
<glyph unicode="&#xbb;" horiz-adv-x="972" d="M524 489l-370 -315q-23 -17 -29 -2l-4 37q-6 16 16 33l316 270l-244 281q-10 13 -2 24l12 37q5 6 11.5 6.5t11.5 -6.5l288 -319q20 -23 -6 -46zM885 489l-371 -315q-23 -17 -29 -2l-4 37q-6 15 17 33l315 270l-244 281q-10 13 -2 24l13 37q12 16 22 0l289 -319 q20 -23 -6 -46z" />
<glyph unicode="&#xbc;" horiz-adv-x="905" d="M10 0q-16 0 -17 7t13 32l901 1456q15 27 23.5 34t25.5 7h21q15 0 16 -8t-14 -31l-901 -1456q-15 -25 -24.5 -33t-22.5 -8h-21zM209 1016q-15 0 -12 16l59 420l-70 -63q-10 -10 -20 0l-19 20q-6 9 5 18l112 101q8 8 21 8h39q12 0 10 -14l-68 -490q-3 -16 -16 -16h-41z M662 0q-13 0 -13 14l19 121h-209q-8 0 -11 3t-2 9l5 23q1 6 10 23l254 315q9 12 18 12h39q13 0 10 -14l-43 -318h29q8 0 10.5 -2.5t1.5 -9.5l-4 -29q-2 -12 -14 -12h-31l-16 -121q0 -14 -17 -14h-36zM526 188h148l33 232z" />
<glyph unicode="&#xbd;" horiz-adv-x="866" d="M-27 0q-16 0 -17 7t13 32l901 1456q15 26 24 33.5t26 7.5h20q15 0 16 -8t-14 -31l-901 -1456q-15 -25 -24.5 -33t-22.5 -8h-21zM209 1016q-15 0 -12 16l59 420l-70 -63q-10 -10 -20 0l-19 20q-6 9 5 18l112 101q8 8 21 8h39q12 0 10 -14l-68 -490q-3 -16 -16 -16h-41z M457 0q-16 0 -13 14l13 78q6 43 33 81.5t61.5 66t68.5 52.5t57 53.5t23 57.5q0 27 -16.5 45.5t-46.5 18.5q-39 0 -84 -39q-10 -10 -16 0l-17 21q-8 8 2 18q58 55 127 55q54 0 85.5 -30t31.5 -78q0 -41 -23.5 -77t-57.5 -63t-69 -53.5t-62 -59.5t-32 -69l-6 -37h191 q15 0 12 -12l-4 -31q-2 -12 -15 -12h-243z" />
<glyph unicode="&#xbe;" horiz-adv-x="923" d="M250 1016q-83 0 -129 55q-6 8 2 19l22 20q11 10 21 0q32 -35 84 -35q45 0 76.5 30.5t31.5 78.5q0 39 -20.5 60.5t-52.5 21.5q-8 0 -10 2.5t-1 9.5l2 29q2 12 17 12q36 0 63 28.5t27 65.5q0 30 -20 49t-52 19q-41 0 -82 -33q-8 -10 -18 0l-18 20q-6 9 4 19q53 53 129 53 q55 0 90 -32t35 -83q0 -79 -82 -133q55 -33 55 -110q0 -73 -49.5 -119.5t-124.5 -46.5zM31 0q-16 0 -17 7t13 32l901 1456q15 27 23.5 34t25.5 7h20q15 0 16 -8t-14 -31l-901 -1456q-15 -25 -24.5 -33t-22.5 -8h-20zM662 0q-13 0 -13 14l19 121h-209q-8 0 -11 3t-2 9l5 23 q1 6 10 23l254 315q9 12 18 12h39q13 0 10 -14l-43 -318h29q8 0 10.5 -2.5t1.5 -9.5l-4 -29q-2 -12 -14 -12h-31l-16 -121q0 -14 -17 -14h-36zM526 188h148l33 232z" />
<glyph unicode="&#xbf;" horiz-adv-x="860" d="M578 1030q23 0 38 -16t15 -41q0 -29 -21.5 -50.5t-50.5 -21.5q-24 0 -40.5 16.5t-16.5 40.5q0 29 22.5 50.5t53.5 21.5zM541 664q20 0 20 -17q0 -116 -21 -208t-55.5 -151t-76 -106t-85.5 -85t-82 -75t-66.5 -88t-37.5 -114q-19 -122 43.5 -199.5t181.5 -77.5 q80 0 141 31t126 88q19 16 33 2l14 -14q12 -15 -10 -37q-138 -135 -314 -135q-144 0 -226.5 90.5t-64.5 238.5q9 72 37.5 130t67 99t83.5 80.5t88 85t78.5 102t57 142.5t21.5 195q0 13 5 18t19 5h23z" />
<glyph unicode="&#xc0;" d="M758 1649l-199 180q-16 13 -16.5 23t10.5 20l16 18q8 12 18.5 11.5t26.5 -17.5l185 -194q20 -17 4 -33l-10 -10q-17 -17 -35 2zM25 0q-27 0 -11 29l664 1480q14 27 37 27h22q12 0 21 -7.5t10 -19.5l250 -1482q5 -27 -21 -27h-22q-12 0 -17 6t-8 21l-67 407h-617 l-184 -407q-8 -15 -14.5 -21t-18.5 -6h-24zM295 500h575l-157 936z" />
<glyph unicode="&#xc1;" d="M725 1649q-24 -17 -35 0l-8 10q-10 14 14 31l240 194q17 13 25 15t20 -9l12 -18q17 -20 -18 -43zM25 0q-27 0 -11 29l664 1480q14 27 37 27h22q12 0 21 -7.5t10 -19.5l250 -1482q5 -27 -21 -27h-22q-12 0 -17 6t-8 21l-67 407h-617l-184 -407q-8 -15 -14.5 -21t-18.5 -6 h-24zM295 500h575l-157 936z" />
<glyph unicode="&#xc2;" d="M768 1839l-197 -180q-18 -17 -28 -19t-17 9l-12 14q-9 12 -6.5 21t20.5 24l230 190q18 15 30 0l177 -190q20 -22 0 -45l-15 -12q-22 -19 -43 8zM25 0q-27 0 -11 29l664 1480q14 27 37 27h22q12 0 21 -7.5t10 -19.5l250 -1482q5 -27 -21 -27h-22q-12 0 -17 6t-8 21 l-67 407h-617l-184 -407q-8 -15 -14.5 -21t-18.5 -6h-24zM295 500h575l-157 936z" />
<glyph unicode="&#xc3;" d="M883 1647q-35 1 -69 16.5t-56.5 34.5t-51 35.5t-53.5 17.5q-28 1 -55.5 -14t-41 -29t-38.5 -43q-16 -19 -29 -8l-18 10q-16 10 -2 29q86 118 186 114q33 -1 65 -16.5t54 -34.5t52.5 -35.5t60.5 -17.5q26 -1 53 14t42 30t38 42q9 11 14.5 12.5t16.5 -4.5l16 -10 q18 -9 4 -29q-85 -114 -188 -114zM25 0q-27 0 -11 29l664 1480q14 27 37 27h22q12 0 21 -7.5t10 -19.5l250 -1482q5 -27 -21 -27h-22q-12 0 -17 6t-8 21l-67 407h-617l-184 -407q-8 -15 -14.5 -21t-18.5 -6h-24zM295 500h575l-157 936z" />
<glyph unicode="&#xc4;" d="M602 1645q-24 0 -39.5 16.5t-15.5 38.5q0 29 22.5 50.5t51.5 21.5q23 0 38 -17t15 -39q0 -29 -22 -50t-50 -21zM891 1645q-23 0 -39 16.5t-16 38.5q0 29 22.5 50.5t50.5 21.5q23 0 39.5 -17t16.5 -39q0 -29 -23 -50t-51 -21zM25 0q-27 0 -11 29l664 1480q14 27 37 27h22 q12 0 21 -7.5t10 -19.5l250 -1482q5 -27 -21 -27h-22q-12 0 -17 6t-8 21l-67 407h-617l-184 -407q-8 -15 -14.5 -21t-18.5 -6h-24zM295 500h575l-157 936z" />
<glyph unicode="&#xc5;" d="M737 1632q-58 0 -97.5 41.5t-39.5 100.5q0 72 55 125t127 53q59 0 99.5 -41.5t40.5 -100.5q0 -72 -55.5 -125t-129.5 -53zM745 1686q48 0 85.5 34.5t37.5 83.5q0 39 -26.5 66.5t-67.5 27.5q-47 0 -84 -35t-37 -83q0 -39 26.5 -66.5t65.5 -27.5zM25 0q-27 0 -11 29 l664 1480q14 27 37 27h22q12 0 21 -7.5t10 -19.5l250 -1482q5 -27 -21 -27h-22q-12 0 -17 6t-8 21l-67 407h-617l-184 -407q-8 -15 -14.5 -21t-18.5 -6h-24zM295 500h575l-157 936z" />
<glyph unicode="&#xc6;" horiz-adv-x="1771" d="M27 0q-12 0 -17 6t4 21l983 1482q17 27 37 27h717q24 0 21 -23l-3 -20q0 -10 -8 -16.5t-20 -6.5h-660l-90 -622h563q23 0 23 -23l-2 -20q0 -10 -8.5 -16.5t-20.5 -6.5h-563l-100 -716h663q13 0 20.5 -7t4.5 -16l-4 -20q-11 -23 -27 -23h-713q-30 0 -24 27l59 407h-500 l-272 -407q-8 -12 -12 -16.5t-9.5 -7.5t-13.5 -3h-28zM406 500h466l127 903z" />
<glyph unicode="&#xc7;" horiz-adv-x="1144" d="M1202 1393q14 -14 0 -31l-12 -14q-16 -16 -33 -2q-139 139 -332 139q-124 0 -235 -63t-192.5 -172.5t-129 -266t-47.5 -334.5q0 -278 114 -437t310 -159q187 0 350 140q17 13 29 -5l10 -18q9 -13 -8 -27q-75 -72 -176 -113.5t-211 -41.5q-27 0 -39 2l-41 -123 q51 33 111 33q74 0 120 -52t46 -127q0 -98 -68.5 -159.5t-161.5 -61.5q-66 0 -108 33q-14 11 -4 25l10 22q10 16 26 4q36 -22 80 -22q66 0 114 43t48 112q0 55 -33 92t-88 37q-71 0 -131 -63q-13 -16 -24 -12l-19 6q-14 7 -8 20l74 199q-185 36 -289 205t-104 442 q0 196 53.5 365.5t144.5 288t216 186t265 67.5q216 0 373 -157z" />
<glyph unicode="&#xc8;" horiz-adv-x="1083" d="M737 1649l-198 180q-28 22 -7 43l17 18q8 12 18.5 11.5t26.5 -17.5l184 -194q20 -17 4 -33l-10 -10q-16 -17 -35 2zM139 0q-11 0 -17 7.5t-3 17.5l209 1486q4 25 26 25h709q12 0 18 -7t4 -16l-4 -24q-3 -19 -26 -19h-662l-88 -622h563q10 0 17 -7t6 -16l-4 -24 q-3 -19 -27 -19h-563l-100 -716h665q12 0 18 -7t3 -16l-2 -25q-6 -18 -27 -18h-715z" />
<glyph unicode="&#xc9;" horiz-adv-x="1083" d="M705 1649q-24 -17 -35 0l-8 10q-10 14 14 31l239 194q16 13 25 15t21 -9l12 -18q17 -19 -19 -43zM139 0q-11 0 -17 7.5t-3 17.5l209 1486q4 25 26 25h709q12 0 18 -7t4 -16l-4 -24q-3 -19 -26 -19h-662l-88 -622h563q10 0 17 -7t6 -16l-4 -24q-3 -19 -27 -19h-563 l-100 -716h665q12 0 18 -7t3 -16l-2 -25q-6 -18 -27 -18h-715z" />
<glyph unicode="&#xca;" horiz-adv-x="1083" d="M748 1839l-197 -180q-18 -17 -28 -19t-17 9l-12 14q-9 12 -6.5 21t20.5 24l229 190q19 16 31 0l176 -190q20 -22 0 -45l-14 -12q-22 -19 -43 8zM139 0q-11 0 -17 7.5t-3 17.5l209 1486q4 25 26 25h709q12 0 18 -7t4 -16l-4 -24q-3 -19 -26 -19h-662l-88 -622h563 q10 0 17 -7t6 -16l-4 -24q-3 -19 -27 -19h-563l-100 -716h665q12 0 18 -7t3 -16l-2 -25q-6 -18 -27 -18h-715z" />
<glyph unicode="&#xcb;" horiz-adv-x="1083" d="M582 1645q-24 0 -40 16.5t-16 38.5q0 29 22.5 50.5t51.5 21.5q23 0 38 -17t15 -39q0 -29 -21.5 -50t-49.5 -21zM870 1645q-23 0 -39 16.5t-16 38.5q0 29 23 50.5t51 21.5q23 0 39 -17t16 -39q0 -29 -23 -50t-51 -21zM139 0q-11 0 -17 7.5t-3 17.5l209 1486q4 25 26 25 h709q12 0 18 -7t4 -16l-4 -24q-3 -19 -26 -19h-662l-88 -622h563q10 0 17 -7t6 -16l-4 -24q-3 -19 -27 -19h-563l-100 -716h665q12 0 18 -7t3 -16l-2 -25q-6 -18 -27 -18h-715z" />
<glyph unicode="&#xcc;" horiz-adv-x="436" d="M399 1649l-198 180q-16 13 -16.5 23t10.5 20l16 18q8 12 18.5 11.5t26.5 -17.5l184 -194q20 -17 4 -33l-10 -10q-16 -17 -35 2zM139 0q-11 0 -17 7.5t-3 17.5l209 1486q4 25 26 25h23q11 0 17 -7.5t5 -17.5l-211 -1486q-4 -25 -26 -25h-23z" />
<glyph unicode="&#xcd;" horiz-adv-x="436" d="M367 1649q-24 -17 -35 0l-8 10q-10 14 14 31l240 194q17 13 25 15t20 -9l12 -18q17 -19 -19 -43zM139 0q-11 0 -17 7.5t-3 17.5l209 1486q4 25 26 25h23q11 0 17 -7.5t5 -17.5l-211 -1486q-4 -25 -26 -25h-23z" />
<glyph unicode="&#xce;" horiz-adv-x="436" d="M410 1839l-197 -180q-18 -17 -28 -19t-17 9l-12 14q-9 12 -6.5 21t20.5 24l229 190q19 16 31 0l176 -190q20 -22 0 -45l-14 -12q-22 -19 -43 8zM139 0q-11 0 -17 7.5t-3 17.5l209 1486q4 25 26 25h23q11 0 17 -7.5t5 -17.5l-211 -1486q-4 -25 -26 -25h-23z" />
<glyph unicode="&#xcf;" horiz-adv-x="436" d="M244 1645q-24 0 -40 16.5t-16 38.5q0 29 22.5 50.5t51.5 21.5q23 0 38 -17t15 -39q0 -29 -21.5 -50t-49.5 -21zM532 1645q-23 0 -39 16.5t-16 38.5q0 29 23 50.5t51 21.5q23 0 39 -17t16 -39q0 -29 -23 -50t-51 -21zM139 0q-11 0 -17 7.5t-3 17.5l209 1486q4 25 26 25h23 q11 0 17 -7.5t5 -17.5l-211 -1486q-4 -25 -26 -25h-23z" />
<glyph unicode="&#xd0;" horiz-adv-x="1300" d="M717 1536q252 0 391 -160.5t139 -470.5q0 -195 -57 -364.5t-155.5 -287.5t-235.5 -185.5t-293 -67.5h-373q-11 0 -17 7.5t-3 17.5l120 866h-73q-13 0 -18.5 4.5t-2.5 15.5l2 17q3 16 27 16h74l80 567q4 25 26 25h369zM508 66q140 0 263.5 62t212.5 170t140.5 263 t51.5 334q0 286 -125 430.5t-349 144.5h-315l-74 -526h271q13 0 18 -4.5t4 -15.5l-2 -17q-3 -16 -29 -16h-270l-115 -825h318z" />
<glyph unicode="&#xd1;" horiz-adv-x="1337" d="M979 1647q-44 1 -85 26t-77 50.5t-67 27.5q-28 1 -55.5 -14t-42 -29.5t-38.5 -42.5q-15 -18 -28 -8l-19 10q-16 10 -2 29q86 118 187 114q33 -1 65 -16.5t53.5 -34.5t52 -35.5t60.5 -17.5q26 -1 53 14t42 30t38 42q9 11 14.5 12.5t16.5 -4.5l16 -10q18 -9 4 -29 q-85 -114 -188 -114zM137 0q-11 0 -16 7.5t-2 17.5l209 1486q4 25 26 25h15q17 0 28 -20l645 -1366l191 1361q4 25 27 25h20q10 0 16 -7t4 -18l-208 -1486q-7 -25 -29 -25h-16q-16 0 -25 20l-643 1379l-195 -1374q-4 -25 -24 -25h-23z" />
<glyph unicode="&#xd2;" horiz-adv-x="1437" d="M897 1649l-199 180q-16 13 -16.5 23t10.5 20l17 18q8 12 18.5 11.5t26.5 -17.5l184 -194q20 -17 4 -33l-10 -10q-16 -17 -35 2zM852 1548q248 0 384 -172t136 -483q0 -195 -51 -362.5t-141.5 -287t-222 -187.5t-287.5 -68q-248 0 -384 171.5t-136 483.5q0 261 86 466 t246.5 322t369.5 117zM678 53q186 0 328.5 109.5t217 298t74.5 426.5q0 284 -117.5 440t-336.5 156q-186 0 -328.5 -109t-218.5 -298t-76 -427q0 -284 119 -440t338 -156z" />
<glyph unicode="&#xd3;" horiz-adv-x="1437" d="M864 1649q-24 -17 -35 0l-8 10q-10 13 15 31l239 194q17 13 25 15t20 -9l13 -18q17 -19 -19 -43zM852 1548q248 0 384 -172t136 -483q0 -195 -51 -362.5t-141.5 -287t-222 -187.5t-287.5 -68q-248 0 -384 171.5t-136 483.5q0 261 86 466t246.5 322t369.5 117zM678 53 q186 0 328.5 109.5t217 298t74.5 426.5q0 284 -117.5 440t-336.5 156q-186 0 -328.5 -109t-218.5 -298t-76 -427q0 -284 119 -440t338 -156z" />
<glyph unicode="&#xd4;" horiz-adv-x="1437" d="M907 1839l-196 -180q-18 -17 -28 -19t-17 9l-13 14q-9 12 -6 21t21 24l229 190q19 16 31 0l176 -190q20 -22 0 -45l-14 -12q-22 -19 -43 8zM852 1548q248 0 384 -172t136 -483q0 -195 -51 -362.5t-141.5 -287t-222 -187.5t-287.5 -68q-248 0 -384 171.5t-136 483.5 q0 261 86 466t246.5 322t369.5 117zM678 53q186 0 328.5 109.5t217 298t74.5 426.5q0 284 -117.5 440t-336.5 156q-186 0 -328.5 -109t-218.5 -298t-76 -427q0 -284 119 -440t338 -156z" />
<glyph unicode="&#xd5;" horiz-adv-x="1437" d="M1022 1645q-44 1 -85 26t-76.5 50.5t-65.5 27.5q-28 1 -55.5 -14t-42 -29.5t-38.5 -42.5q-9 -11 -13.5 -12.5t-12.5 4.5l-19 10q-16 10 -2 29q84 118 185 114q32 -1 63.5 -16.5t53 -34.5t52 -35.5t60.5 -17.5q26 -1 52 14t41 30t38 42q9 11 14.5 12.5t16.5 -4.5l16 -10 q18 -9 4 -29q-86 -114 -186 -114zM852 1548q248 0 384 -172t136 -483q0 -195 -51 -362.5t-141.5 -287t-222 -187.5t-287.5 -68q-248 0 -384 171.5t-136 483.5q0 261 86 466t246.5 322t369.5 117zM678 53q186 0 328.5 109.5t217 298t74.5 426.5q0 284 -117.5 440t-336.5 156 q-186 0 -328.5 -109t-218.5 -298t-76 -427q0 -284 119 -440t338 -156z" />
<glyph unicode="&#xd6;" horiz-adv-x="1437" d="M741 1645q-24 0 -39.5 16.5t-15.5 38.5q0 29 22.5 50.5t51.5 21.5q23 0 38 -17t15 -39q0 -29 -22 -50t-50 -21zM1030 1645q-23 0 -39 16.5t-16 38.5q0 29 23 50.5t51 21.5q23 0 39 -17t16 -39q0 -29 -23 -50t-51 -21zM852 1548q248 0 384 -172t136 -483 q0 -195 -51 -362.5t-141.5 -287t-222 -187.5t-287.5 -68q-248 0 -384 171.5t-136 483.5q0 261 86 466t246.5 322t369.5 117zM678 53q186 0 328.5 109.5t217 298t74.5 426.5q0 284 -117.5 440t-336.5 156q-186 0 -328.5 -109t-218.5 -298t-76 -427q0 -284 119 -440t338 -156z " />
<glyph unicode="&#xd7;" horiz-adv-x="669" d="M612 958q12 -15 -8 -30l-188 -166l143 -166q14 -17 -2 -33l-14 -12q-17 -13 -31 4l-143 166l-189 -166q-17 -17 -30 -4l-13 12q-11 14 8 33l189 166l-144 166q-12 15 3 30l14 13q18 14 31 -4l143 -166l188 166q18 21 31 4z" />
<glyph unicode="&#xd8;" horiz-adv-x="1431" d="M1421 1536q30 0 -6 -39l-147 -174q100 -165 100 -430q0 -195 -51 -362.5t-141.5 -287t-222 -187.5t-287.5 -68q-245 0 -381 168l-97 -115q-21 -26 -30.5 -33.5t-22.5 -7.5h-24q-8 0 -12.5 2.5t-1 12t17.5 24.5l137 162q-107 170 -107 442q0 261 86 466t247 322t370 117 q252 0 389 -178l104 125q23 28 31.5 34.5t24.5 6.5h24zM217 649q0 -240 84 -387l887 1051q-119 170 -348 170q-186 0 -328.5 -109t-218.5 -298t-76 -427zM1294 887q0 230 -77 375l-883 -1049q120 -160 340 -160q186 0 328.5 109.5t217 298t74.5 426.5z" />
<glyph unicode="&#xd9;" horiz-adv-x="1298" d="M831 1649l-198 180q-16 13 -16.5 23t10.5 20l16 18q8 12 18.5 11.5t26.5 -17.5l184 -194q20 -18 5 -33l-11 -10q-16 -17 -35 2zM580 -12q-225 0 -336.5 143.5t-75.5 403.5l139 976q4 25 27 25h22q11 0 17.5 -7.5t5.5 -17.5l-139 -987q-33 -227 63 -350t287 -123t321 123 t162 350l139 987q4 25 27 25h23q11 0 17 -7.5t5 -17.5l-139 -976q-36 -260 -187.5 -403.5t-377.5 -143.5z" />
<glyph unicode="&#xda;" horiz-adv-x="1298" d="M799 1649q-24 -17 -35 0l-8 10q-10 14 14 31l240 194q17 13 25 15t20 -9l12 -18q17 -20 -18 -43zM580 -12q-225 0 -336.5 143.5t-75.5 403.5l139 976q4 25 27 25h22q11 0 17.5 -7.5t5.5 -17.5l-139 -987q-33 -227 63 -350t287 -123t321 123t162 350l139 987q4 25 27 25 h23q11 0 17 -7.5t5 -17.5l-139 -976q-36 -260 -187.5 -403.5t-377.5 -143.5z" />
<glyph unicode="&#xdb;" horiz-adv-x="1298" d="M842 1839l-197 -180q-18 -17 -28 -19t-17 9l-12 14q-9 12 -6.5 21t20.5 24l229 190q19 16 31 0l176 -190q20 -22 0 -45l-14 -12q-22 -19 -43 8zM580 -12q-225 0 -336.5 143.5t-75.5 403.5l139 976q4 25 27 25h22q11 0 17.5 -7.5t5.5 -17.5l-139 -987q-33 -227 63 -350 t287 -123t321 123t162 350l139 987q4 25 27 25h23q11 0 17 -7.5t5 -17.5l-139 -976q-36 -260 -187.5 -403.5t-377.5 -143.5z" />
<glyph unicode="&#xdc;" horiz-adv-x="1298" d="M676 1645q-24 0 -39.5 16.5t-15.5 38.5q0 29 22 50.5t51 21.5q23 0 38.5 -17t15.5 -39q0 -29 -22 -50t-50 -21zM965 1645q-23 0 -39.5 16.5t-16.5 38.5q0 29 23 50.5t51 21.5q23 0 39 -17t16 -39q0 -29 -22.5 -50t-50.5 -21zM580 -12q-225 0 -336.5 143.5t-75.5 403.5 l139 976q4 25 27 25h22q11 0 17.5 -7.5t5.5 -17.5l-139 -987q-33 -227 63 -350t287 -123t321 123t162 350l139 987q4 25 27 25h23q11 0 17 -7.5t5 -17.5l-139 -976q-36 -260 -187.5 -403.5t-377.5 -143.5z" />
<glyph unicode="&#xdd;" horiz-adv-x="999" d="M649 1649q-24 -17 -35 0l-8 10q-10 13 15 31l239 194q17 13 25 15t20 -9l13 -18q17 -19 -19 -43zM1026 1511q14 25 37 25h24q30 0 13 -27l-535 -804l-94 -680q-7 -25 -29 -25h-22q-10 0 -16.5 7t-4.5 18l95 680l-306 804q-7 27 19 27h24q22 0 33 -25l273 -747z" />
<glyph unicode="&#xde;" horiz-adv-x="1146" d="M668 1223q208 0 312.5 -105t104.5 -278q0 -107 -34 -200.5t-99.5 -166.5t-171.5 -115.5t-239 -42.5h-310l-43 -290q-3 -25 -26 -25h-23q-26 0 -20 25l164 1173l2 8l43 305q3 25 26 25h23q25 0 22 -25l-41 -288h310zM547 381q117 0 208 36.5t146 99.5t83 142t28 170 q0 148 -88.5 238t-268.5 90h-305l-110 -776h307z" />
<glyph unicode="&#xdf;" horiz-adv-x="1046" d="M594 4q-30 -10 -33 10l-6 27q-1 8 4.5 13t20.5 12q108 43 184 118t76 166q0 43 -21 84.5t-51 76t-59.5 70.5t-50.5 83t-21 98q0 59 25 112t61 94l72 82t61 95t25 115q0 99 -68.5 159t-167.5 60q-116 0 -207 -81t-112 -231l-162 -1142q-3 -25 -27 -25h-20q-24 0 -21 25 l164 1165q24 170 136.5 262t258.5 92q125 0 210 -73.5t85 -198.5q0 -68 -25 -128.5t-61 -105t-71.5 -85.5t-60.5 -88t-25 -95q0 -43 21 -84t50.5 -75.5t59 -70t50.5 -82t21 -96.5q0 -107 -90.5 -208.5t-224.5 -149.5z" />
<glyph unicode="&#xe0;" horiz-adv-x="888" d="M395 1337q-16 13 -16.5 23t10.5 20l17 19q8 12 18.5 11.5t26.5 -17.5l184 -195q20 -17 4 -33l-10 -10q-17 -17 -35 2zM817 942q25 0 19 -24l-125 -893q-3 -25 -25 -25h-24q-22 0 -19 25l10 69q-135 -106 -272 -106q-134 0 -214.5 104t-80.5 289q0 258 119.5 415.5 t306.5 157.5q147 0 248 -112l10 76q6 24 25 24h22zM664 170l86 600q-98 121 -236 121q-156 0 -258 -138t-102 -362q0 -158 66.5 -249t176.5 -91q71 0 141.5 34t125.5 85z" />
<glyph unicode="&#xe1;" horiz-adv-x="888" d="M526 1157l-8 10q-10 14 14 31l240 195q17 13 25 15t20 -9l12 -19q17 -20 -18 -43l-250 -180q-24 -17 -35 0zM817 942q25 0 19 -24l-125 -893q-3 -25 -25 -25h-24q-22 0 -19 25l10 69q-135 -106 -272 -106q-134 0 -214.5 104t-80.5 289q0 258 119.5 415.5t306.5 157.5 q147 0 248 -112l10 76q6 24 25 24h22zM664 170l86 600q-98 121 -236 121q-156 0 -258 -138t-102 -362q0 -158 66.5 -249t176.5 -91q71 0 141.5 34t125.5 85z" />
<glyph unicode="&#xe2;" horiz-adv-x="888" d="M362 1157l-12 14q-9 12 -6 21.5t21 24.5l229 190q19 15 31 0l176 -190q20 -22 0 -46l-15 -12q-22 -19 -43 8l-139 181l-196 -181q-32 -30 -46 -10zM817 942q25 0 19 -24l-125 -893q-3 -25 -25 -25h-24q-22 0 -19 25l10 69q-135 -106 -272 -106q-134 0 -214.5 104 t-80.5 289q0 258 119.5 415.5t306.5 157.5q147 0 248 -112l10 76q6 24 25 24h22zM664 170l86 600q-98 121 -236 121q-156 0 -258 -138t-102 -362q0 -158 66.5 -249t176.5 -91q71 0 141.5 34t125.5 85z" />
<glyph unicode="&#xe3;" horiz-adv-x="888" d="M903 1298q18 -9 4 -28q-86 -115 -188 -115q-35 1 -69 17t-56.5 35t-51 35.5t-53.5 17.5q-28 1 -55.5 -14t-41 -29t-38.5 -43q-16 -19 -28 -9l-19 11q-15 9 -2 28q87 119 187 115q33 -1 65 -17t53.5 -35t52 -35.5t60.5 -17.5q26 -1 53 14t42 30t38 42q9 11 14.5 13 t16.5 -4zM817 942q25 0 19 -24l-125 -893q-3 -25 -25 -25h-24q-22 0 -19 25l10 69q-135 -106 -272 -106q-134 0 -214.5 104t-80.5 289q0 258 119.5 415.5t306.5 157.5q147 0 248 -112l10 76q6 24 25 24h22zM664 170l86 600q-98 121 -236 121q-156 0 -258 -138t-102 -362 q0 -158 66.5 -249t176.5 -91q71 0 141.5 34t125.5 85z" />
<glyph unicode="&#xe4;" horiz-adv-x="888" d="M438 1153q-24 0 -39.5 16.5t-15.5 38.5q0 29 22.5 50.5t51.5 21.5q23 0 38 -16.5t15 -38.5q0 -29 -22 -50.5t-50 -21.5zM727 1153q-23 0 -39 16.5t-16 38.5q0 29 22.5 50.5t50.5 21.5q23 0 39.5 -16.5t16.5 -38.5q0 -29 -23 -50.5t-51 -21.5zM817 942q25 0 19 -24 l-125 -893q-3 -25 -25 -25h-24q-22 0 -19 25l10 69q-135 -106 -272 -106q-134 0 -214.5 104t-80.5 289q0 258 119.5 415.5t306.5 157.5q147 0 248 -112l10 76q6 24 25 24h22zM664 170l86 600q-98 121 -236 121q-156 0 -258 -138t-102 -362q0 -158 66.5 -249t176.5 -91 q71 0 141.5 34t125.5 85z" />
<glyph unicode="&#xe5;" horiz-adv-x="888" d="M573 1141q-58 0 -97.5 41t-39.5 100q0 72 55 125t127 53q60 0 100 -41t40 -100q0 -72 -55.5 -125t-129.5 -53zM610 1407q-47 0 -84 -35.5t-37 -83.5q0 -39 27 -66.5t66 -27.5q48 0 85.5 35t37.5 84q0 39 -27 66.5t-68 27.5zM817 942q25 0 19 -24l-125 -893 q-3 -25 -25 -25h-24q-22 0 -19 25l10 69q-135 -106 -272 -106q-134 0 -214.5 104t-80.5 289q0 258 119.5 415.5t306.5 157.5q147 0 248 -112l10 76q6 24 25 24h22zM664 170l86 600q-98 121 -236 121q-156 0 -258 -138t-102 -362q0 -158 66.5 -249t176.5 -91q71 0 141.5 34 t125.5 85z" />
<glyph unicode="&#xe6;" horiz-adv-x="1488" d="M338 -12q-125 0 -201 72t-76 190q0 144 101 237t248 93q81 0 151 -30t105 -75l16 133q13 139 -47 211t-178 72q-89 0 -228 -62q-21 -7 -24 11l-6 26q-3 17 12 23q142 65 260 65q112 0 184.5 -59t87.5 -162q61 104 155.5 162.5t197.5 58.5q70 0 129.5 -27.5t104.5 -79.5 t65.5 -137.5t9.5 -193.5q-4 -46 -12 -59t-25 -13h-635q4 -205 79 -299t226 -94q46 0 90.5 12.5t72 26t71.5 39.5q18 11 26 -4l11 -19q7 -14 -6 -24q-127 -94 -279 -94q-106 0 -184 49t-121 141q-30 -32 -65 -61.5t-84 -60.5t-109.5 -49.5t-122.5 -18.5zM739 504h594 q26 178 -44 282.5t-199 104.5q-130 0 -228 -107.5t-123 -279.5zM362 47q90 0 169 51t161 138q-26 102 -26 174q-43 51 -110.5 80.5t-141.5 29.5q-119 0 -202 -73.5t-83 -186.5q0 -95 64.5 -154t168.5 -59z" />
<glyph unicode="&#xe7;" horiz-adv-x="858" d="M793 866q14 -11 6 -24l-13 -23q-9 -17 -28 -2q-98 74 -226 74q-157 0 -266.5 -127.5t-109.5 -335.5q0 -172 79.5 -274.5t219.5 -102.5q121 0 239 78q16 12 27 -4l10 -19q8 -13 -6 -24q-128 -94 -279 -94h-24l-41 -121q51 33 108 33q75 0 120.5 -52t45.5 -127 q0 -98 -67 -159.5t-160 -61.5q-67 0 -111 33q-14 11 -4 25l13 22q10 15 24 4q39 -22 80 -22q66 0 114 43t48 112q0 54 -32.5 91.5t-86.5 37.5q-70 0 -133 -63q-13 -17 -25 -12l-18 6q-14 7 -8 20l73 199q-130 29 -202 142.5t-72 285.5q0 120 35.5 220.5t96.5 168 t141.5 104.5t170.5 37q140 0 261 -88z" />
<glyph unicode="&#xe8;" horiz-adv-x="911" d="M584 1157l-199 180q-16 13 -16.5 23t10.5 20l16 19q8 12 18.5 11.5t26.5 -17.5l185 -195q20 -17 4 -33l-11 -10q-16 -16 -34 2zM88 422q0 119 36.5 221t96.5 169t137.5 104.5t159.5 37.5q70 0 129.5 -27.5t104.5 -79.5t65.5 -137.5t9.5 -193.5q-4 -47 -11 -59.5 t-23 -12.5h-635q-6 -174 73.5 -283.5t223.5 -109.5q125 0 239 78q18 14 27 -4l10 -19q8 -12 -4 -24q-121 -94 -278 -94q-166 0 -263.5 118t-97.5 316zM164 504h594q25 178 -46 282.5t-200 104.5q-130 0 -228 -109.5t-120 -277.5z" />
<glyph unicode="&#xe9;" horiz-adv-x="911" d="M551 1157q-24 -17 -35 0l-8 10q-10 14 14 31l240 195q17 13 25 15t20 -9l12 -19q17 -20 -18 -43zM88 422q0 119 36.5 221t96.5 169t137.5 104.5t159.5 37.5q70 0 129.5 -27.5t104.5 -79.5t65.5 -137.5t9.5 -193.5q-4 -47 -11 -59.5t-23 -12.5h-635q-6 -174 73.5 -283.5 t223.5 -109.5q125 0 239 78q18 14 27 -4l10 -19q8 -12 -4 -24q-121 -94 -278 -94q-166 0 -263.5 118t-97.5 316zM164 504h594q25 178 -46 282.5t-200 104.5q-130 0 -228 -109.5t-120 -277.5z" />
<glyph unicode="&#xea;" horiz-adv-x="911" d="M594 1348l-197 -181q-18 -17 -28 -19t-17 9l-12 14q-10 12 -7 21.5t21 24.5l230 190q18 15 30 0l177 -190q20 -22 0 -46l-15 -12q-22 -19 -43 8zM88 422q0 119 36.5 221t96.5 169t137.5 104.5t159.5 37.5q70 0 129.5 -27.5t104.5 -79.5t65.5 -137.5t9.5 -193.5 q-4 -47 -11 -59.5t-23 -12.5h-635q-6 -174 73.5 -283.5t223.5 -109.5q125 0 239 78q18 14 27 -4l10 -19q8 -12 -4 -24q-121 -94 -278 -94q-166 0 -263.5 118t-97.5 316zM164 504h594q25 178 -46 282.5t-200 104.5q-130 0 -228 -109.5t-120 -277.5z" />
<glyph unicode="&#xeb;" horiz-adv-x="911" d="M428 1153q-24 0 -39.5 16.5t-15.5 38.5q0 29 22 50.5t51 21.5q23 0 38.5 -16.5t15.5 -38.5q0 -29 -22 -50.5t-50 -21.5zM717 1153q-23 0 -39 16.5t-16 38.5q0 29 22.5 50.5t50.5 21.5q23 0 39.5 -16.5t16.5 -38.5q0 -29 -23 -50.5t-51 -21.5zM88 422q0 119 36.5 221 t96.5 169t137.5 104.5t159.5 37.5q70 0 129.5 -27.5t104.5 -79.5t65.5 -137.5t9.5 -193.5q-4 -47 -11 -59.5t-23 -12.5h-635q-6 -174 73.5 -283.5t223.5 -109.5q125 0 239 78q18 14 27 -4l10 -19q8 -12 -4 -24q-121 -94 -278 -94q-166 0 -263.5 118t-97.5 316zM164 504h594 q25 178 -46 282.5t-200 104.5q-130 0 -228 -109.5t-120 -277.5z" />
<glyph unicode="&#xec;" horiz-adv-x="442" d="M317 1157l-198 180q-16 13 -16.5 23t10.5 20l16 19q8 12 18.5 11.5t26.5 -17.5l184 -195q20 -17 4 -33l-10 -10q-16 -17 -35 2zM147 0q-13 0 -17 6t-1 21l123 888q5 27 29 27h20q21 0 18 -27l-124 -888q-3 -16 -8.5 -21.5t-18.5 -5.5h-21z" />
<glyph unicode="&#xed;" horiz-adv-x="438" d="M311 1157q-24 -17 -35 0l-8 10q-10 13 15 31l239 195q17 13 25 15t20 -9l13 -19q17 -19 -19 -43zM145 0q-14 0 -18 5.5t-2 21.5l123 888q3 15 9 21t19 6h21q12 0 16 -6t2 -21l-122 -888q-5 -27 -29 -27h-19z" />
<glyph unicode="&#xee;" horiz-adv-x="442" d="M348 1348l-196 -181q-32 -30 -46 -10l-12 14q-9 12 -6 21.5t21 24.5l229 190q19 15 31 0l176 -190q20 -22 0 -46l-15 -12q-22 -19 -43 8zM147 0q-14 0 -18 5.5t-2 21.5l123 888q5 27 29 27h20q12 0 16 -6t2 -21l-122 -888q-5 -27 -29 -27h-19z" />
<glyph unicode="&#xef;" horiz-adv-x="456" d="M178 1153q-24 0 -39.5 16.5t-15.5 38.5q0 29 22.5 50.5t51.5 21.5q23 0 38 -16.5t15 -38.5q0 -29 -22 -50.5t-50 -21.5zM467 1153q-23 0 -39 16.5t-16 38.5q0 29 22.5 50.5t50.5 21.5q23 0 39.5 -16.5t16.5 -38.5q0 -29 -23 -50.5t-51 -21.5zM145 0q-14 0 -18 5.5 t-2 21.5l123 888q3 15 9 21t19 6h21q12 0 16 -6t2 -21l-122 -888q-5 -27 -29 -27h-19z" />
<glyph unicode="&#xf0;" horiz-adv-x="999" d="M946 1479q12 -15 -6 -31l-111 -94q113 -183 113 -520q0 -250 -58.5 -440t-174.5 -298t-275 -108q-162 0 -256 107t-94 300q0 120 38 224.5t101.5 176.5t147.5 113t174 41q116 0 202.5 -64t116.5 -161q14 155 -6 311.5t-86 266.5l-168 -146q-16 -15 -29 -2l-10 12 q-13 13 4 29l172 152q-94 122 -252 125q-23 0 -20 20l2 23q3 20 31 20q189 0 297 -139l106 92q17 14 31 0zM434 53q161 0 276.5 152.5t139.5 431.5q-38 115 -120 181.5t-183 66.5q-72 0 -142.5 -36t-126 -98.5t-90 -154.5t-34.5 -195q0 -158 76.5 -253t203.5 -95z" />
<glyph unicode="&#xf1;" horiz-adv-x="929" d="M918 1296q18 -9 4 -28q-87 -113 -187 -113q-35 1 -69 17t-56 35t-50 35.5t-52 17.5q-28 1 -55.5 -14t-41 -29t-38.5 -43q-16 -19 -29 -9l-18 11q-15 9 -2 28q87 117 186 113q32 -1 63.5 -16.5t53 -34t52 -35t60.5 -17.5q16 -1 33 5t27 11.5t27 21.5t21.5 21l22.5 25 q9 11 14.5 13t16.5 -4zM573 958q132 0 210.5 -87t56.5 -246l-86 -596q-3 -25 -25 -25h-22q-24 0 -21 25l82 581q21 139 -40.5 213t-170.5 74q-55 0 -113 -22.5t-91 -44.5t-79 -58l-104 -747q-3 -25 -25 -25h-24q-22 0 -19 25l127 893q6 24 25 24h22q25 0 19 -24l-10 -74 q136 114 288 114z" />
<glyph unicode="&#xf2;" horiz-adv-x="970" d="M598 1157l-199 180q-16 13 -16.5 23t10.5 20l17 19q8 12 18.5 11.5t26.5 -17.5l184 -195q20 -17 4 -33l-10 -10q-17 -17 -35 2zM422 -12q-157 0 -246.5 107t-89.5 302q0 250 133.5 403.5t329.5 153.5q157 0 245.5 -106t88.5 -301q0 -249 -133.5 -404t-327.5 -155zM430 51 q160 0 272.5 136t112.5 350q0 168 -73.5 261t-200.5 93q-161 0 -273 -134.5t-112 -350.5q0 -169 73.5 -262t200.5 -93z" />
<glyph unicode="&#xf3;" horiz-adv-x="970" d="M565 1157q-24 -17 -35 0l-8 10q-10 13 15 31l239 195q17 13 25 15t20 -9l13 -19q17 -19 -19 -43zM422 -12q-157 0 -246.5 107t-89.5 302q0 250 133.5 403.5t329.5 153.5q157 0 245.5 -106t88.5 -301q0 -249 -133.5 -404t-327.5 -155zM430 51q160 0 272.5 136t112.5 350 q0 168 -73.5 261t-200.5 93q-161 0 -273 -134.5t-112 -350.5q0 -169 73.5 -262t200.5 -93z" />
<glyph unicode="&#xf4;" horiz-adv-x="970" d="M608 1348l-196 -181q-18 -17 -28 -19t-17 9l-13 14q-9 12 -6 21.5t21 24.5l229 190q19 15 31 0l176 -190q20 -22 0 -46l-14 -12q-22 -19 -43 8zM422 -12q-157 0 -246.5 107t-89.5 302q0 250 133.5 403.5t329.5 153.5q157 0 245.5 -106t88.5 -301q0 -249 -133.5 -404 t-327.5 -155zM430 51q160 0 272.5 136t112.5 350q0 168 -73.5 261t-200.5 93q-161 0 -273 -134.5t-112 -350.5q0 -169 73.5 -262t200.5 -93z" />
<glyph unicode="&#xf5;" horiz-adv-x="970" d="M723 1155q-35 1 -69 17t-56 35t-50 35.5t-52 17.5q-28 1 -55.5 -14t-42 -29.5t-38.5 -42.5q-16 -19 -28 -9l-19 11q-15 9 -2 28q87 117 187 113q32 -1 63.5 -16.5t53 -34t52 -35t60.5 -17.5q16 -1 33 5t27 11.5t27 21.5t21.5 21l22.5 25q9 11 14.5 13t16.5 -4l16 -11 q18 -9 4 -28q-87 -113 -186 -113zM422 -12q-157 0 -246.5 107t-89.5 302q0 250 133.5 403.5t329.5 153.5q157 0 245.5 -106t88.5 -301q0 -249 -133.5 -404t-327.5 -155zM430 51q160 0 272.5 136t112.5 350q0 168 -73.5 261t-200.5 93q-161 0 -273 -134.5t-112 -350.5 q0 -169 73.5 -262t200.5 -93z" />
<glyph unicode="&#xf6;" horiz-adv-x="970" d="M442 1153q-24 0 -39.5 16.5t-15.5 38.5q0 29 22.5 50.5t51.5 21.5q23 0 38 -16.5t15 -38.5q0 -29 -22 -50.5t-50 -21.5zM731 1153q-23 0 -39 16.5t-16 38.5q0 29 23 50.5t51 21.5q23 0 39 -16.5t16 -38.5q0 -29 -23 -50.5t-51 -21.5zM422 -12q-157 0 -246.5 107 t-89.5 302q0 250 133.5 403.5t329.5 153.5q157 0 245.5 -106t88.5 -301q0 -249 -133.5 -404t-327.5 -155zM430 51q160 0 272.5 136t112.5 350q0 168 -73.5 261t-200.5 93q-161 0 -273 -134.5t-112 -350.5q0 -169 73.5 -262t200.5 -93z" />
<glyph unicode="&#xf7;" horiz-adv-x="811" d="M424 1049q0 29 21.5 51t50.5 22q26 0 41.5 -16.5t15.5 -40.5q0 -29 -22.5 -50.5t-51.5 -21.5q-24 0 -39.5 16t-15.5 40zM180 733q-13 0 -18 4.5t-4 16.5l4 22q3 17 26 17h523q13 0 18 -4.5t4 -16.5l-4 -22q-3 -17 -27 -17h-522zM340 461q0 29 23 50t51 21 q26 0 41.5 -16.5t15.5 -40.5q0 -29 -22.5 -50.5t-51.5 -21.5q-26 0 -41.5 16.5t-15.5 41.5z" />
<glyph unicode="&#xf8;" horiz-adv-x="972" d="M940 963q8 0 10 -6.5t-6 -16.5l-119 -137q58 -103 58 -256q0 -249 -133.5 -404t-327.5 -155q-142 0 -229 90l-54 -62q-33 -38 -40 -42q-6 -3 -19 -3h-31q-23 0 2 29l105 121q-70 106 -70 276q0 250 133.5 403.5t329.5 153.5q157 0 242 -102l57 66q5 6 10.5 12.5t8.5 9.5 t6 7.5t5.5 6t4 3.5t3.5 3t3.5 2t4 1h4h5.5h37zM156 406q0 -140 51 -228l536 619q-76 94 -202 94q-161 0 -273 -134.5t-112 -350.5zM815 537q0 124 -41 208l-534 -614q74 -80 190 -80q160 0 272.5 136t112.5 350z" />
<glyph unicode="&#xf9;" horiz-adv-x="915" d="M391 1337q-16 13 -16.5 23t10.5 20l16 19q8 12 18.5 11.5t26.5 -17.5l185 -195q20 -17 4 -33l-10 -10q-17 -17 -35 2zM834 942q24 0 18 -24l-125 -893q-3 -25 -25 -25h-24q-22 0 -19 25l11 77q-32 -25 -52 -39.5t-56 -35t-76 -30t-85 -9.5q-63 0 -115.5 21.5t-91 61.5 t-55 105t-4.5 146l84 596q3 24 27 24h20q24 0 21 -24l-82 -582q-19 -140 41.5 -213.5t169.5 -73.5q40 0 76.5 9.5t69.5 29.5t53.5 35.5t51.5 41.5q9 7 13 11l106 742q6 24 25 24h23z" />
<glyph unicode="&#xfa;" horiz-adv-x="915" d="M522 1157l-8 10q-10 14 14 31l240 195q17 13 25 15t20 -9l12 -19q17 -20 -18 -43l-250 -180q-24 -17 -35 0zM834 942q24 0 18 -24l-125 -893q-3 -25 -25 -25h-24q-22 0 -19 25l11 77q-32 -25 -52 -39.5t-56 -35t-76 -30t-85 -9.5q-63 0 -115.5 21.5t-91 61.5t-55 105 t-4.5 146l84 596q3 24 27 24h20q24 0 21 -24l-82 -582q-19 -140 41.5 -213.5t169.5 -73.5q40 0 76.5 9.5t69.5 29.5t53.5 35.5t51.5 41.5q9 7 13 11l106 742q6 24 25 24h23z" />
<glyph unicode="&#xfb;" horiz-adv-x="915" d="M358 1157l-12 14q-10 12 -7 21.5t21 24.5l230 190q19 15 31 0l176 -190q20 -22 0 -46l-15 -12q-22 -19 -43 8l-139 181l-197 -181q-18 -17 -28 -19t-17 9zM834 942q24 0 18 -24l-125 -893q-3 -25 -25 -25h-24q-22 0 -19 25l11 77q-32 -25 -52 -39.5t-56 -35t-76 -30 t-85 -9.5q-63 0 -115.5 21.5t-91 61.5t-55 105t-4.5 146l84 596q3 24 27 24h20q24 0 21 -24l-82 -582q-19 -140 41.5 -213.5t169.5 -73.5q40 0 76.5 9.5t69.5 29.5t53.5 35.5t51.5 41.5q9 7 13 11l106 742q6 24 25 24h23z" />
<glyph unicode="&#xfc;" horiz-adv-x="915" d="M434 1153q-24 0 -39.5 16.5t-15.5 38.5q0 29 22.5 50.5t51.5 21.5q23 0 38 -16.5t15 -38.5q0 -29 -22 -50.5t-50 -21.5zM723 1153q-23 0 -39 16.5t-16 38.5q0 29 22.5 50.5t50.5 21.5q23 0 39.5 -16.5t16.5 -38.5q0 -29 -23 -50.5t-51 -21.5zM834 942q24 0 18 -24 l-125 -893q-3 -25 -25 -25h-24q-22 0 -19 25l11 77q-32 -25 -52 -39.5t-56 -35t-76 -30t-85 -9.5q-63 0 -115.5 21.5t-91 61.5t-55 105t-4.5 146l84 596q3 24 27 24h20q24 0 21 -24l-82 -582q-19 -140 41.5 -213.5t169.5 -73.5q40 0 76.5 9.5t69.5 29.5t53.5 35.5t51.5 41.5 q9 7 13 11l106 742q6 24 25 24h23z" />
<glyph unicode="&#xfd;" horiz-adv-x="890" d="M541 1157q-24 -17 -35 0l-8 10q-10 14 14 31l240 195q17 13 25 15t20 -9l12 -19q17 -20 -18 -43zM27 -512q-37 0 -74 12q-19 6 -24.5 12t-0.5 17l11 25q8 16 34 8q37 -11 60 -11q66 0 107 40t75 110l143 293l-184 917q-5 31 21 31h22q12 0 17 -4t8 -20l166 -828l401 828 q10 24 33 24h20q27 0 15 -31l-609 -1241q-89 -182 -241 -182z" />
<glyph unicode="&#xfe;" horiz-adv-x="997" d="M68 -512q-26 0 -21 27l281 1994q2 15 7.5 21t18.5 6h21q23 0 20 -27l-94 -673q67 55 134 86.5t157 31.5q151 0 236 -98.5t85 -280.5q0 -259 -129 -422t-335 -163q-87 0 -144 31.5t-108 84.5l-84 -591q-2 -15 -6.5 -21t-16.5 -6h-22zM453 53q175 0 283 140t108 364 q0 156 -72.5 245t-200.5 89q-147 0 -280 -125l-82 -590q93 -123 244 -123z" />
<glyph unicode="&#xff;" horiz-adv-x="890" d="M418 1153q-24 0 -40 16.5t-16 38.5q0 29 22.5 50.5t51.5 21.5q23 0 38 -16.5t15 -38.5q0 -29 -21.5 -50.5t-49.5 -21.5zM707 1153q-23 0 -39.5 16.5t-16.5 38.5q0 29 23 50.5t51 21.5q23 0 39 -16.5t16 -38.5q0 -29 -22.5 -50.5t-50.5 -21.5zM27 -512q-37 0 -74 12 q-19 6 -24.5 12t-0.5 17l11 25q8 16 34 8q37 -11 60 -11q66 0 107 40t75 110l143 293l-184 917q-5 31 21 31h22q12 0 17 -4t8 -20l166 -828l401 828q10 24 33 24h20q27 0 15 -31l-609 -1241q-89 -182 -241 -182z" />
<glyph unicode="&#x152;" horiz-adv-x="2174" d="M2154 1536q12 0 18.5 -7t4.5 -16l-4 -24q-3 -19 -27 -19h-661l-88 -622h563q10 0 17 -7t5 -16l-4 -24q-3 -19 -26 -19h-563l-101 -716h666q12 0 17.5 -7t2.5 -16l-2 -25q-6 -18 -26 -18h-715q-11 0 -17.5 7.5t-3.5 17.5l50 348q-92 -182 -244.5 -283.5t-345.5 -101.5 q-248 0 -384 171.5t-136 483.5q0 261 86 466t246.5 322t369.5 117q208 0 338.5 -122.5t167.5 -348.5l61 434q4 25 27 25h708zM678 53q186 0 328.5 109.5t217 298t74.5 426.5q0 284 -117.5 440t-336.5 156q-186 0 -328.5 -109t-218.5 -298t-76 -427q0 -284 119 -440t338 -156 z" />
<glyph unicode="&#x153;" horiz-adv-x="1634" d="M1241 954q70 0 129.5 -27.5t104.5 -79.5t65.5 -137.5t9.5 -193.5q-4 -47 -11 -59.5t-23 -12.5h-635q-6 -174 73.5 -283.5t223.5 -109.5q125 0 239 78q18 14 27 -4l10 -19q8 -12 -4 -24q-52 -41 -125 -67.5t-154 -26.5q-130 0 -220 75t-124 207q-58 -133 -166 -207.5 t-239 -74.5q-157 0 -246.5 107t-89.5 302q0 250 133.5 403.5t329.5 153.5q123 0 205.5 -67.5t111.5 -194.5q58 123 159.5 192.5t215.5 69.5zM430 51q160 0 272.5 136t112.5 350q0 168 -73.5 261t-200.5 93q-161 0 -273 -134.5t-112 -350.5q0 -169 73.5 -262t200.5 -93z M1481 504q25 178 -46 282.5t-200 104.5q-130 0 -228 -109.5t-120 -277.5h594z" />
<glyph unicode="&#x178;" horiz-adv-x="999" d="M526 1645q-24 0 -39.5 16.5t-15.5 38.5q0 29 22.5 50.5t51.5 21.5q23 0 38 -17t15 -39q0 -29 -22 -50t-50 -21zM815 1645q-23 0 -39 16.5t-16 38.5q0 29 23 50.5t51 21.5q23 0 39 -17t16 -39q0 -29 -23 -50t-51 -21zM1026 1511q14 25 37 25h24q30 0 13 -27l-535 -804 l-94 -680q-7 -25 -29 -25h-22q-10 0 -16.5 7t-4.5 18l95 680l-306 804q-7 27 19 27h24q22 0 33 -25l273 -747z" />
<glyph unicode="&#x2c6;" horiz-adv-x="630" d="M561 1749l-196 -180q-32 -30 -46 -10l-12 14q-9 12 -6 21t21 24l229 190q19 16 31 0l176 -190q20 -22 0 -45l-15 -12q-22 -19 -43 8z" />
<glyph unicode="&#x2dc;" horiz-adv-x="681" d="M686 1552q-35 1 -69 17t-56 35t-50.5 35.5t-53.5 17.5q-28 1 -55.5 -14t-41 -29t-38.5 -43q-16 -19 -29 -8l-19 10q-16 10 -2 29q86 118 187 114q33 -1 65 -16.5t53.5 -34.5t52 -35.5t60.5 -17.5q26 -1 53 14t42 30t38 42q9 11 14.5 12.5t16.5 -4.5l16 -10q18 -9 4 -29 q-86 -115 -188 -115z" />
<glyph unicode="&#x2000;" horiz-adv-x="976" />
<glyph unicode="&#x2001;" horiz-adv-x="1952" />
<glyph unicode="&#x2002;" horiz-adv-x="976" />
<glyph unicode="&#x2003;" horiz-adv-x="1952" />
<glyph unicode="&#x2004;" horiz-adv-x="650" />
<glyph unicode="&#x2005;" horiz-adv-x="488" />
<glyph unicode="&#x2006;" horiz-adv-x="325" />
<glyph unicode="&#x2007;" horiz-adv-x="325" />
<glyph unicode="&#x2008;" horiz-adv-x="244" />
<glyph unicode="&#x2009;" horiz-adv-x="390" />
<glyph unicode="&#x200a;" horiz-adv-x="108" />
<glyph unicode="&#x2010;" horiz-adv-x="739" d="M150 535q-11 0 -16.5 4t-4.5 14l4 25q3 18 25 18h458q11 0 15.5 -4t3.5 -14l-4 -25q-3 -18 -23 -18h-458z" />
<glyph unicode="&#x2011;" horiz-adv-x="739" d="M150 535q-11 0 -16.5 4t-4.5 14l4 25q3 18 25 18h458q11 0 15.5 -4t3.5 -14l-4 -25q-3 -18 -23 -18h-458z" />
<glyph unicode="&#x2012;" horiz-adv-x="739" d="M150 535q-11 0 -16.5 4t-4.5 14l4 25q3 18 25 18h458q11 0 15.5 -4t3.5 -14l-4 -25q-3 -18 -23 -18h-458z" />
<glyph unicode="&#x2013;" horiz-adv-x="1142" d="M152 535q-12 0 -18 3t-5 13l4 27q3 18 27 18h856q13 0 18 -4t4 -14l-4 -27q-2 -16 -26 -16h-856z" />
<glyph unicode="&#x2014;" horiz-adv-x="1392" d="M152 535q-12 0 -18 3t-5 13l4 27q3 18 27 18h1106q13 0 18 -4t4 -14l-4 -27q-2 -16 -27 -16h-1105z" />
<glyph unicode="&#x2018;" horiz-adv-x="389" d="M377 1292q0 -32 -22 -51.5t-52 -19.5q-29 0 -45 19.5t-16 53.5q0 52 33 118.5t87 117.5q16 16 25 12l10 -8q7 -7 -6 -25q-74 -96 -74 -133q0 -19 21 -28q39 -20 39 -56z" />
<glyph unicode="&#x2019;" horiz-adv-x="387" d="M266 1477q0 32 22 51.5t52 19.5q29 0 45 -19.5t16 -53.5q0 -52 -33 -118.5t-87 -117.5q-16 -16 -25 -12l-10 8q-7 7 6 25q74 96 74 133q0 19 -21 28q-39 19 -39 56z" />
<glyph unicode="&#x201a;" horiz-adv-x="387" d="M66 49q0 32 22 52t51 20t45.5 -20t16.5 -54q0 -52 -33 -117.5t-88 -117.5q-17 -17 -25 -13l-10 8q-7 7 6 25q74 96 74 133q0 20 -21 29q-38 19 -38 55z" />
<glyph unicode="&#x201c;" horiz-adv-x="618" d="M377 1296q0 -32 -22 -51.5t-52 -19.5q-29 0 -45 19.5t-16 53.5q0 52 33 118.5t87 117.5q16 16 25 12l10 -8q7 -7 -6 -25q-74 -96 -74 -133q0 -19 21 -28q39 -20 39 -56zM608 1296q0 -32 -22 -51.5t-51 -19.5t-45.5 19.5t-16.5 53.5q0 52 33.5 118.5t87.5 117.5 q16 16 24 12l11 -8q7 -7 -6 -25q-74 -96 -74 -133q0 -19 20 -28q39 -20 39 -56z" />
<glyph unicode="&#x201d;" horiz-adv-x="618" d="M266 1477q0 32 22 51.5t52 19.5q29 0 45 -19.5t16 -53.5q0 -52 -33 -118.5t-87 -117.5q-16 -16 -25 -12l-10 8q-7 7 6 25q74 96 74 133q0 19 -21 28q-39 19 -39 56zM498 1477q0 32 22 51.5t51 19.5t45.5 -19.5t16.5 -53.5q0 -52 -33.5 -118.5t-87.5 -117.5 q-16 -16 -25 -12l-10 8q-7 7 6 25q74 96 74 133q0 19 -20 28q-39 19 -39 56z" />
<glyph unicode="&#x201e;" horiz-adv-x="620" d="M66 41q0 32 22 52t51 20t45.5 -20t16.5 -54q0 -52 -33.5 -118.5t-87.5 -117.5q-16 -16 -25 -12l-10 8q-7 7 6 25q74 96 74 133q0 20 -21 29q-38 19 -38 55zM297 41q0 32 22.5 52t51.5 20t45 -20t16 -54q0 -52 -33.5 -118.5t-87.5 -117.5q-16 -16 -24 -12l-11 8q-6 6 7 25 q73 95 73 133q0 20 -20 29q-39 20 -39 55z" />
<glyph unicode="&#x2022;" horiz-adv-x="499" d="M143 735q0 64 50 112t116 48q54 0 89.5 -36.5t35.5 -90.5q0 -64 -50 -112t-116 -48q-54 0 -89.5 36.5t-35.5 90.5z" />
<glyph unicode="&#x2026;" horiz-adv-x="1130" d="M66 49q0 29 21 50.5t50 21.5q26 0 42 -17t16 -41q0 -29 -22.5 -50t-53.5 -21q-23 0 -38 16t-15 41zM442 49q0 29 21.5 50.5t50.5 21.5q24 0 40.5 -17t16.5 -41q0 -29 -22 -50t-53 -21q-23 0 -38.5 16t-15.5 41zM819 49q0 29 21.5 50.5t50.5 21.5q25 0 41 -17t16 -41 q0 -29 -22.5 -50t-53.5 -21q-23 0 -38 16t-15 41z" />
<glyph unicode="&#x202f;" horiz-adv-x="390" />
<glyph unicode="&#x2039;" horiz-adv-x="614" d="M147 489q-20 23 7 46l378 319q15 15 23 0l2 -37q5 -11 -8 -24l-324 -281l240 -270q17 -17 8 -33l-14 -37q-12 -15 -29 2z" />
<glyph unicode="&#x203a;" horiz-adv-x="614" d="M524 489l-370 -315q-23 -17 -29 -2l-4 37q-6 16 16 33l316 270l-244 281q-10 13 -2 24l12 37q5 6 11.5 6.5t11.5 -6.5l288 -319q20 -23 -6 -46z" />
<glyph unicode="&#x205f;" horiz-adv-x="488" />
<glyph unicode="&#x20ac;" horiz-adv-x="1169" d="M1225 1393q14 -14 0 -31l-13 -14q-15 -15 -32 -2q-139 139 -332 139q-196 0 -351 -148t-218 -395h620q23 0 23 -20l-2 -17q0 -22 -29 -22h-625q-19 -88 -22 -211h616q23 0 23 -21l-2 -16q0 -23 -27 -23h-610q7 -262 120.5 -410.5t303.5 -148.5q187 0 350 140q17 13 29 -5 l10 -18q9 -13 -8 -27q-75 -72 -176 -113.5t-211 -41.5q-221 0 -352 165.5t-138 458.5h-111q-22 0 -22 23l2 16q0 21 27 21h104q3 114 23 211h-97q-23 0 -20 22l2 17q0 20 26 20h101q67 277 243 442.5t402 165.5q216 0 373 -157z" />
<glyph unicode="&#x2122;" horiz-adv-x="1198" d="M266 1524q0 12 17 12h301q14 0 14 -12l-4 -25q0 -10 -16 -10h-123l-74 -518q-3 -17 -19 -17h-24q-11 0 -8 17l73 518h-127q-14 0 -14 10zM866 954q-11 0 -16 13l-98 438l-97 -430q-6 -21 -22 -21h-19q-4 0 -6.5 1.5t-3 4.5t-1 5.5t0.5 6.5v3l121 545q4 16 16 16h15 q13 0 16 -10l113 -500l254 500q3 10 14 10h16q5 0 8.5 -4t4.5 -8v-4l-31 -545q-3 -21 -21 -21h-18q-6 0 -9 5t-3 11v5l24 434l-225 -442q-5 -13 -20 -13h-13z" />
<glyph unicode="&#x25fc;" horiz-adv-x="942" d="M0 942h942v-942h-942v942z" />
<glyph unicode="&#xfb01;" horiz-adv-x="931" d="M156 0q-24 0 -21 25l121 858h-129q-11 0 -16.5 4.5t-4.5 15.5l5 23q3 16 26 16h129l39 272q20 149 120.5 241.5t244.5 92.5q57 0 103 -14t78 -39.5t48.5 -44t34.5 -45.5q18 -24 0 -37l-16 -14q-15 -13 -31 6q-1 1 -9.5 12t-12 15.5t-13.5 16t-16.5 17t-19 15.5 t-22.5 15.5t-25 13t-30 11.5t-33.5 6.5t-37.5 2.5q-116 0 -197.5 -77.5t-99.5 -195.5l-39 -270h520q21 0 18 -24l-125 -893q-3 -25 -26 -25h-21q-23 0 -20 25l121 858h-475l-121 -858q-3 -25 -25 -25h-22z" />
<glyph unicode="&#xfb02;" horiz-adv-x="1153" d="M156 0q-24 0 -21 25l121 858h-129q-11 0 -16.5 4.5t-4.5 15.5l5 23q3 16 26 16h129l39 272q20 149 118.5 241.5t231.5 92.5q146 0 236 -112l37 90q9 13 19.5 9t8.5 -15l-172 -1227q-15 -107 39 -168.5t164 -61.5h8q21 0 19 -20l-4 -25q-3 -18 -27 -18h-10 q-140 0 -208 77.5t-48 213.5l82 592h-475l-121 -858q-3 -25 -25 -25h-22zM332 942h475l59 418l-8 11q-8 11 -18 24t-29.5 29.5t-41 29.5t-53 22t-65.5 9q-104 0 -182.5 -75.5t-97.5 -197.5z" />
<glyph unicode="&#xfb03;" horiz-adv-x="1472" d="M106 903l5 23q3 16 26 16h125l29 203q20 144 119.5 234.5t230.5 90.5q46 0 87.5 -12.5t67.5 -30t46 -35t28 -30.5l9 -12q3 8 10 21.5t34.5 47.5t61.5 60t92.5 47.5t126.5 21.5q59 0 107 -14.5t81 -41t49 -44t34 -43.5q15 -24 0 -37l-19 -14q-15 -13 -31 6q-1 1 -9.5 12 t-12 15.5t-13.5 16t-16.5 17t-19 15.5t-23 15.5t-25.5 13t-30 11.5t-33.5 6.5t-38.5 2.5q-109 0 -191.5 -69.5t-99.5 -186.5l-41 -287h519q24 0 18 -24l-125 -893q-3 -25 -24 -25h-23q-23 0 -20 25l120 858h-473l-121 -858q-6 -25 -26 -25h-21q-23 0 -20 25l121 858h-475 l-121 -858q-6 -25 -27 -25h-20q-24 0 -21 25l121 858h-127q-11 0 -16.5 5t-4.5 15zM330 942h475l47 332q-2 5 -7.5 14t-24 32t-41 40.5t-61 32t-81.5 14.5q-103 0 -183.5 -74t-95.5 -190z" />
<glyph unicode="&#xfb04;" horiz-adv-x="1693" d="M106 903l5 23q3 16 26 16h125l29 203q20 144 117.5 234.5t226.5 90.5q46 0 88 -12.5t68.5 -30t46 -35t28.5 -30.5l8 -12q3 8 9 21.5t31.5 47.5t58 60t91.5 47.5t128 21.5q149 0 235 -112l41 90q7 13 18 9t9 -15l-172 -1227q-15 -107 39.5 -168.5t163.5 -61.5h6 q13 0 18 -4t4 -14l-4 -27q-3 -18 -28 -18h-9q-141 0 -209 77t-49 214l84 592h-475l-121 -858q-6 -25 -26 -25h-21q-23 0 -20 25l121 858h-475l-121 -858q-6 -25 -27 -25h-20q-24 0 -21 25l121 858h-127q-11 0 -16.5 5t-4.5 15zM872 942h476l57 418q-1 1 -12 16t-27.5 32 t-40.5 35t-59.5 30t-75.5 12q-102 0 -183.5 -65.5t-95.5 -180.5zM330 942h475l45 334q-3 5 -8 14t-24.5 31.5t-42.5 40t-62 31.5t-82 14q-103 0 -180.5 -73.5t-92.5 -190.5z" />
</font>
</defs>
</svg>
