<?xml version="1.0" standalone="no"?>
<!DOCTYPE svg PUBLIC "-//W3C//DTD SVG 1.1//EN" "http://www.w3.org/Graphics/SVG/1.1/DTD/svg11.dtd" >
<svg xmlns="http://www.w3.org/2000/svg">
<metadata></metadata>
<defs>
<font id="merlo_neuemedium" horiz-adv-x="1511" >
<font-face units-per-em="2048" ascent="1536" descent="-512" />
<missing-glyph horiz-adv-x="466" />
<glyph horiz-adv-x="0" />
<glyph horiz-adv-x="682" />
<glyph unicode=" "  horiz-adv-x="466" />
<glyph unicode="&#x09;" horiz-adv-x="466" />
<glyph unicode="&#xa0;" horiz-adv-x="466" />
<glyph unicode="!" horiz-adv-x="471" d="M199 387q-25 0 -35 9.5t-10 33.5l-25 1063q0 23 10 33t33 10h125q25 0 35 -10t8 -33l-23 -1063q-2 -25 -11 -34t-34 -9h-73zM104 121q0 55 38 93t94 38t94.5 -38t38.5 -93t-38.5 -93t-94.5 -38t-94 38t-38 93z" />
<glyph unicode="&#x22;" horiz-adv-x="618" d="M252 1536q16 0 25 -11.5t6 -31.5l-56 -340q-5 -28 -28 -39.5t-45.5 0t-26.5 39.5l-57 340q-6 43 32 43h150zM545 1536q18 0 27 -11.5t6 -31.5l-58 -340q-4 -28 -26.5 -39.5t-45.5 0t-28 39.5l-55 340q-6 43 30 43h150z" />
<glyph unicode="#" horiz-adv-x="1599" d="M868 459h-190l-51 -412q-6 -47 -49 -47h-105q-47 0 -41 43l51 416h-344q-25 0 -35 10t-10 35v106q0 23 10 33t35 10h369l24 205h-337q-25 0 -35 10t-10 33v107q0 25 10 35t35 10h360l43 333q6 48 49 48h105q47 0 41 -43l-43 -338h190l43 333q6 48 49 48h105q47 0 41 -43 l-43 -338h325q25 0 35 -10t10 -35v-107q0 -23 -10 -33t-35 -10h-348l-27 -205h320q25 0 35 -10t10 -33v-106q0 -25 -10 -35t-35 -10h-342l-51 -412q-6 -47 -49 -47h-105q-47 0 -41 43zM700 653h193l25 205h-191z" />
<glyph unicode="$" horiz-adv-x="1132" d="M1055 395q0 -152 -93.5 -260t-256.5 -143v-105q0 -23 -10 -33t-33 -10h-125q-23 0 -33 10t-10 33v95q-208 20 -402 176q-13 12 -13 27t11 28l68 92q24 27 55 2q173 -137 352 -137q124 0 197.5 61t73.5 156q0 53 -24.5 98t-65.5 80t-94 67t-111.5 62t-117.5 61.5 t-112 70.5t-94 83.5t-65.5 105.5t-24.5 132q0 150 98 260.5t269 140.5v99q0 23 10 33t33 10h125q23 0 33 -10t10 -33v-95q82 -10 154 -37.5t101.5 -46.5t34.5 -26q26 -20 9 -53l-52 -95q-14 -28 -47 -12q-158 84 -291 84q-114 0 -191 -58.5t-77 -146.5q0 -45 24.5 -84.5 t65.5 -71t94 -61.5t111.5 -60.5t117.5 -64t112 -75.5t94 -90.5t65.5 -115t24.5 -143.5z" />
<glyph unicode="%" horiz-adv-x="1216" d="M371 1153q-85 0 -144 59t-59 144t59 144t144 59t143.5 -59t58.5 -144t-58.5 -144t-143.5 -59zM260 0q-25 0 -36.5 11t-4.5 32l610 1446q10 27 19.5 37t30.5 10h120q24 0 36 -12t5 -33l-610 -1444q-7 -19 -11.5 -27t-13.5 -14t-24 -6h-121zM371 1282q29 0 50 22t21 52 t-21 52t-50 22t-50.5 -22.5t-21.5 -51.5t21.5 -51.5t50.5 -22.5zM1024 37q-62 -52 -142 -46t-134 68q-53 63 -46 144t70 135q63 53 144 45.5t133 -70.5q53 -63 45.5 -143.5t-70.5 -132.5zM944 133q22 17 24.5 46.5t-16.5 51.5t-48.5 25.5t-51.5 -14.5q-22 -19 -23.5 -48.5 t17.5 -52.5q19 -22 47.5 -24.5t50.5 16.5z" />
<glyph unicode="&#x26;" horiz-adv-x="1271" d="M580 -23q-138 0 -248.5 53.5t-175 155t-64.5 232.5q0 130 62 233.5t147 163.5q-76 55 -129 146.5t-53 209.5q0 171 120.5 279.5t309.5 108.5q109 0 205.5 -39.5t156.5 -112.5q26 -35 0 -61l-69 -68q-28 -32 -58 -2q-91 88 -215 88q-105 0 -171 -58.5t-66 -150.5t62 -165 t155 -85q25 -3 34 -11t9 -32v-102q0 -24 -9 -32t-34 -11q-97 -10 -170.5 -84.5t-73.5 -196.5q0 -119 77.5 -190.5t201.5 -71.5q125 0 202.5 71.5t77.5 190.5v240q0 43 43 43h301q43 0 43 -43v-98q0 -43 -43 -43h-143v-115q0 -195 -134.5 -319t-350.5 -124z" />
<glyph unicode="'" horiz-adv-x="352" d="M127 1153l-57 340q-6 43 32 43h150q16 0 25 -11.5t6 -31.5l-56 -340q-5 -28 -28 -39.5t-45.5 0t-26.5 39.5z" />
<glyph unicode="(" horiz-adv-x="636" d="M371 197q0 -27 0.5 -40.5t3 -41t8 -43.5t17 -37.5t27.5 -33.5t41.5 -22t57.5 -12q25 -2 35 -11t10 -32v-104q0 -24 -10.5 -34t-34.5 -9q-366 13 -366 362v1147q0 350 366 363q24 1 34.5 -9t10.5 -34v-105q0 -23 -10 -32t-35 -11q-51 -4 -84.5 -26t-47.5 -60t-18.5 -70 t-4.5 -77v-1028z" />
<glyph unicode=")" horiz-adv-x="636" d="M111 -223q-24 -1 -34.5 9t-10.5 34v104q0 23 10 32t35 11q45 3 76 20.5t46 38t23 57t9 56.5t1 58v1028q0 45 -4.5 77t-18.5 70t-47.5 60t-84.5 26q-25 2 -35 11t-10 32v105q0 24 10.5 34t34.5 9q366 -13 366 -363v-1147q0 -349 -366 -362z" />
<glyph unicode="*" horiz-adv-x="614" d="M600 1503q9 -28 2 -42t-35 -23l-110 -37l67 -92q17 -25 14.5 -40.5t-24.5 -33.5l-49 -37q-23 -17 -40 -14t-34 26l-67 95l-68 -95q-19 -24 -33.5 -26.5t-38.5 14.5l-49 37q-25 17 -28 33t14 41l69 92l-110 37q-28 9 -35.5 23.5t2.5 43.5l19 58q9 28 23 34.5t42 -2.5 l111 -34v114q0 29 11 40t40 11h61q29 0 40.5 -11t11.5 -40v-116l110 34q28 9 42.5 2t23.5 -34z" />
<glyph unicode="+" horiz-adv-x="925" d="M786 842q23 0 33 -10t10 -33v-82q0 -23 -10 -33t-33 -10h-229v-258q0 -24 -9.5 -33.5t-33.5 -9.5h-102q-25 0 -35 10t-10 33v258h-228q-25 0 -35 10t-10 33v82q0 23 10 33t35 10h228v258q0 24 10 33.5t35 9.5h102q25 0 34 -9t9 -34v-258h229z" />
<glyph unicode="," horiz-adv-x="411" d="M70 123q0 56 35.5 92.5t95.5 36.5q58 0 96.5 -38t38.5 -116q0 -80 -42 -174t-112 -178q-1 -1 -7 -7.5t-8 -8t-7 -5t-9 -3t-8 3.5l-43 30q-17 10 2 39q84 121 84 170q0 27 -24 35q-92 38 -92 123z" />
<glyph unicode="-" horiz-adv-x="718" d="M127 473q-19 0 -26 9t-7 34v96q0 24 7 33.5t26 9.5h465q19 0 26 -9.5t7 -33.5v-96q0 -25 -7 -34t-26 -9h-465z" />
<glyph unicode="." horiz-adv-x="399" d="M70 121q0 55 37.5 93t91.5 38q56 0 94.5 -38t38.5 -93t-38.5 -93t-94.5 -38q-54 0 -91.5 38t-37.5 93z" />
<glyph unicode="/" horiz-adv-x="512" d="M109 0q-44 0 -41 43l168 1446q6 47 49 47h121q43 0 40 -45l-167 -1444q-6 -47 -50 -47h-120z" />
<glyph unicode="0" horiz-adv-x="1226" d="M614 -23q-526 0 -526 791t526 791q527 0 527 -791t-527 -791zM614 168q157 0 234.5 145.5t77.5 452.5q0 315 -77.5 463.5t-234.5 148.5q-158 0 -235.5 -148.5t-77.5 -463.5q0 -308 77.5 -453t235.5 -145z" />
<glyph unicode="1" horiz-adv-x="718" d="M387 0q-24 0 -33.5 9.5t-9.5 33.5v1219l-164 -166q-31 -28 -59 0l-70 69q-30 30 0 60l293 293q18 18 43 18h127q24 0 33.5 -9.5t9.5 -33.5v-1450q0 -24 -9.5 -33.5t-33.5 -9.5h-127z" />
<glyph unicode="2" horiz-adv-x="1024" d="M145 0q-23 0 -33 10t-10 33v227q0 92 33 177.5t85.5 152.5t116.5 130t128 119t116.5 108.5t85.5 111t33 115.5q0 79 -54.5 130.5t-141.5 51.5q-117 0 -221 -104q-26 -29 -58 0l-65 71q-27 27 0 62q61 74 154.5 119t207.5 45q174 0 282.5 -101t108.5 -262q0 -82 -33 -159 t-85.5 -140t-116 -123.5t-127 -120t-116 -118t-85.5 -129t-33 -142.5v-74h562q23 0 33 -10t10 -33v-104q0 -23 -10 -33t-33 -10h-734z" />
<glyph unicode="3" horiz-adv-x="1036" d="M461 -23q-227 0 -387 160q-33 35 0 68l67 65q33 33 66 0q96 -96 235 -96q124 0 200.5 71.5t76.5 190.5q0 123 -73.5 197t-170.5 84q-25 3 -34 11t-9 32v102q0 24 9 32t34 11q92 12 154.5 84.5t62.5 163.5q0 94 -65 152.5t-170 58.5q-122 0 -217 -88q-30 -30 -58 2l-69 68 q-26 26 0 61q60 73 157.5 112.5t206.5 39.5q189 0 308.5 -107.5t119.5 -277.5q0 -118 -53.5 -211t-128.5 -148q85 -60 147 -164.5t62 -234.5q0 -196 -130.5 -317.5t-340.5 -121.5z" />
<glyph unicode="4" horiz-adv-x="1081" d="M723 0q-23 0 -33 10t-10 33v336h-621q-23 0 -33 10t-10 33v67q0 37 19 68l629 948q25 31 55 31h133q23 0 33 -10t10 -33v-926h88q24 0 33.5 -9.5t9.5 -33.5v-102q0 -24 -9.5 -33.5t-33.5 -9.5h-88v-336q0 -23 -10 -33t-33 -10h-129zM276 567h404v629z" />
<glyph unicode="5" horiz-adv-x="1095" d="M512 973q215 0 343 -130t128 -362q0 -233 -133.5 -368.5t-355.5 -135.5q-77 0 -140.5 15t-111 44t-73 49.5t-58.5 53.5q-30 30 0 60l77 80q31 31 58 0q49 -53 113 -82t130 -29q125 0 204 85t79 230t-89.5 226.5t-238.5 81.5h-239q-24 0 -33.5 9.5t-9.5 33.5v659 q0 24 9.5 33.5t33.5 9.5h659q25 0 35 -10t10 -33v-104q0 -23 -10 -33t-35 -10h-489v-373h137z" />
<glyph unicode="6" horiz-adv-x="1136" d="M588 -20q-85 0 -157 23.5t-134.5 77t-106.5 134.5t-69.5 201t-26.5 272q-1 189 34.5 347.5t104 275.5t174 182.5t238.5 65.5q105 0 196 -39.5t156 -104.5q27 -27 0 -57l-69 -80q-24 -27 -58 0q-117 90 -225 90q-81 0 -146.5 -47t-105.5 -125.5t-61.5 -176t-22.5 -204.5 q4 7 12 18t37.5 39.5t64 50.5t91.5 40t121 18q189 0 309.5 -135t120.5 -352q0 -228 -131 -371t-346 -143zM594 166q117 0 188.5 91t71.5 232q0 136 -71.5 220t-184.5 84q-54 0 -103 -20t-84.5 -52.5t-59.5 -63.5t-40 -63q-3 -200 75 -314t208 -114z" />
<glyph unicode="7" horiz-adv-x="911" d="M662 1343h-578q-25 0 -35 10t-10 33v107q0 23 10 33t35 10h764q23 0 33 -10t10 -33v-72q0 -37 -6 -53l-537 -1325q-16 -43 -49 -43h-133q-20 0 -30.5 10t-2.5 33z" />
<glyph unicode="8" horiz-adv-x="1155" d="M578 -20q-222 0 -358 121t-136 323q0 128 63.5 238t167.5 157q-81 47 -130.5 139.5t-49.5 194.5q0 183 121.5 294.5t321.5 111.5q199 0 320.5 -111.5t121.5 -294.5q0 -102 -49.5 -194.5t-130.5 -139.5q104 -47 167.5 -157t63.5 -238q0 -202 -135 -323t-358 -121zM578 909 q104 0 169.5 63.5t65.5 164.5q0 106 -65 169.5t-170 63.5t-170.5 -63.5t-65.5 -169.5q0 -101 66 -164.5t170 -63.5zM578 168q131 0 207.5 74t76.5 200q0 123 -78.5 199t-205.5 76t-206 -76t-79 -199q0 -126 78 -200t207 -74z" />
<glyph unicode="9" horiz-adv-x="1136" d="M483 -20q-215 0 -360 141q-27 27 0 57l70 80q23 26 57 0q126 -97 256 -88q77 6 139.5 53.5t101.5 124t60 172t22 201.5q-4 -7 -12 -18t-37 -39.5t-63.5 -50.5t-91.5 -40t-121 -18q-189 0 -309.5 135t-120.5 352q0 229 131 373t346 144q107 0 193.5 -39t154 -121 t105 -221.5t38.5 -327.5q2 -191 -31.5 -348t-100.5 -274.5t-175.5 -182.5t-251.5 -65zM541 743q53 0 102 20t84.5 52.5t59.5 64t40 62.5q3 201 -74.5 314.5t-207.5 113.5q-118 0 -189 -90.5t-71 -232.5q0 -136 71 -220t185 -84z" />
<glyph unicode=":" horiz-adv-x="399" d="M70 866q0 56 37.5 94.5t91.5 38.5q55 0 94 -38.5t39 -94.5q0 -55 -38.5 -93t-94.5 -38q-54 0 -91.5 38t-37.5 93zM70 121q0 56 37.5 94.5t91.5 38.5q55 0 94 -39t39 -94t-38.5 -93t-94.5 -38q-54 0 -91.5 38t-37.5 93z" />
<glyph unicode=";" horiz-adv-x="409" d="M70 866q0 56 37.5 94.5t91.5 38.5q55 0 94 -38.5t39 -94.5q0 -55 -38.5 -93t-94.5 -38q-54 0 -91.5 38t-37.5 93zM70 123q0 56 35.5 92.5t95.5 36.5q58 0 96.5 -38t38.5 -116q0 -80 -42 -174t-112 -178q-1 -1 -7 -7.5t-8 -8t-7 -5t-9 -3t-8 3.5l-43 30q-17 10 2 39 q84 121 84 170q0 27 -24 35q-92 38 -92 123z" />
<glyph unicode="&#x3c;" horiz-adv-x="636" d="M106 735q-24 25 0 49l398 385q15 12 27 7.5t12 -19.5v-162q0 -30 -23 -53l-190 -182l190 -182q23 -23 23 -52v-161q0 -15 -12 -21t-27 8z" />
<glyph unicode="=" horiz-adv-x="925" d="M139 838q-25 0 -35 10t-10 33v82q0 25 10 35t35 10h647q23 0 33 -10t10 -35v-82q0 -23 -10 -33t-33 -10h-647zM139 522q-25 0 -35 10t-10 33v82q0 25 10 35t35 10h647q23 0 33 -10t10 -35v-82q0 -23 -10 -33t-33 -10h-647z" />
<glyph unicode="&#x3e;" horiz-adv-x="636" d="M532 735l-397 -383q-15 -14 -27 -8t-12 21v161q0 29 23 52l190 182l-190 182q-23 23 -23 53v162q0 15 12 19.5t27 -7.5l397 -385q24 -24 0 -49z" />
<glyph unicode="?" horiz-adv-x="876" d="M358 387q-25 0 -35 9.5t-10 35.5q0 105 16.5 190.5t43 141.5t58 102t63.5 81t58.5 67t43 71t16.5 84q0 89 -57.5 140t-148.5 51q-118 0 -211 -90q-27 -31 -58 0l-65 71q-25 25 0 62q63 74 157.5 112.5t202.5 38.5q178 0 285.5 -93.5t107.5 -258.5q0 -63 -17.5 -116 t-45.5 -93t-62 -79t-68.5 -84t-63.5 -97.5t-47.5 -130.5t-20.5 -172q-2 -24 -11.5 -33.5t-33.5 -9.5h-97zM406 -10q-56 0 -94 38t-38 93t38 93t94 38t94.5 -38t38.5 -93t-38.5 -93t-94.5 -38z" />
<glyph unicode="@" horiz-adv-x="2228" d="M1114 1468q290 0 515 -121.5t349.5 -344t124.5 -510.5q0 -327 -128.5 -519t-336.5 -192q-140 0 -228.5 84t-88.5 227v19q-3 -5 -10 -13t-31 -29t-52 -37t-73.5 -29t-95.5 -13q-199 0 -312.5 135t-113.5 373q0 239 113 374.5t311 135.5q53 0 99.5 -12.5t75 -30t50 -35.5 t30.5 -30l9 -13v57q0 23 9 32t32 9h117q23 0 32 -9t9 -32v-846q0 -57 36.5 -93t94.5 -36q120 0 189 142.5t69 377.5t-99.5 414.5t-280.5 277t-417 97.5q-234 0 -413 -98t-277 -276.5t-98 -411.5q0 -177 57.5 -326t160.5 -253.5t250 -163t322 -58.5h2q23 0 32 -9t9 -32v-105 q0 -23 -9 -32t-32 -9h-4q-221 0 -405.5 72t-312 200.5t-198.5 312.5t-71 403q0 217 72 399.5t201.5 309t313.5 197t402 70.5zM1096 170q61 0 117 29t82 57l26 29v426q-3 5 -9.5 12.5t-29 27t-48 34.5t-66 27.5t-83.5 12.5q-116 0 -183.5 -86.5t-67.5 -240.5 q0 -155 69 -241.5t193 -86.5z" />
<glyph unicode="A" horiz-adv-x="1236" d="M66 0q-41 0 -29 43l463 1450q12 43 57 43h125q45 0 57 -43l463 -1450q12 -43 -28 -43h-134q-22 0 -31 9.5t-16 33.5l-112 358h-523l-112 -358q-7 -24 -16 -33.5t-31 -9.5h-133zM416 592h407l-202 647z" />
<glyph unicode="B" horiz-adv-x="1259" d="M205 0q-43 0 -43 43v1450q0 43 43 43h440q231 0 348 -106t117 -297q0 -99 -33 -181.5t-96 -130.5q176 -109 176 -372q0 -215 -125.5 -332t-367.5 -117h-459zM379 905h291q63 0 109.5 20t71 53.5t35.5 69.5t11 76q0 39 -11.5 75t-35.5 70t-70.5 54t-109.5 20h-291v-438z M379 193h278q287 0 287 260q0 121 -68.5 191.5t-218.5 70.5h-278v-522z" />
<glyph unicode="C" horiz-adv-x="1280" d="M756 -20q-304 0 -486 210t-182 578t182 579.5t486 211.5q273 0 450 -177q27 -27 0 -57l-69 -80q-24 -27 -58 0q-74 64 -149.5 92.5t-167.5 28.5q-202 0 -328.5 -160.5t-126.5 -437.5t126.5 -437.5t328.5 -160.5q92 0 167.5 28.5t149.5 92.5q14 12 30 12.5t28 -12.5 l69 -80q27 -30 0 -57q-178 -174 -450 -174z" />
<glyph unicode="D" horiz-adv-x="1423" d="M205 0q-43 0 -43 43v1450q0 43 43 43h442q110 0 206.5 -23.5t185.5 -79.5t152 -142t100.5 -219.5t37.5 -303.5t-37.5 -303.5t-100.5 -219.5t-152 -142t-185.5 -79.5t-206.5 -23.5h-442zM379 193h266q81 0 148 16t128 56.5t102.5 104t66 165t24.5 233.5t-24.5 233.5 t-66 165t-102.5 104t-128 56.5t-148 16h-266v-1150z" />
<glyph unicode="E" horiz-adv-x="1146" d="M205 0q-43 0 -43 43v1450q0 43 43 43h772q43 0 43 -43v-104q0 -46 -43 -46h-598v-444h516q43 0 43 -43v-102q0 -45 -43 -45h-516v-516h618q43 0 43 -46v-104q0 -43 -43 -43h-792z" />
<glyph unicode="F" horiz-adv-x="1056" d="M205 0q-43 0 -43 43v1450q0 43 43 43h749q43 0 43 -43v-104q0 -46 -43 -46h-575v-466h475q43 0 43 -46v-102q0 -43 -43 -43h-475v-643q0 -43 -43 -43h-131z" />
<glyph unicode="G" horiz-adv-x="1392" d="M756 -23q-304 0 -486 211.5t-182 579.5t182 579.5t486 211.5q275 0 452 -177q27 -27 0 -57l-69 -80q-24 -27 -58 0q-138 121 -319 121q-202 0 -328.5 -160.5t-126.5 -437.5q0 -278 126 -438t329 -160q131 0 227 63.5t96 147.5v248h-280q-43 0 -43 43v102q0 45 43 45h436 q43 0 43 -45l2 -432q0 -63 -38 -127t-104 -117.5t-168.5 -87t-219.5 -33.5z" />
<glyph unicode="H" horiz-adv-x="1472" d="M205 0q-43 0 -43 43v1450q0 43 43 43h131q43 0 43 -43v-610h715v610q0 43 43 43h129q45 0 45 -43v-1450q0 -43 -45 -43h-129q-43 0 -43 43v647h-715v-647q0 -43 -43 -43h-131z" />
<glyph unicode="I" horiz-adv-x="540" d="M205 0q-43 0 -43 43v1450q0 43 43 43h131q43 0 43 -43v-1450q0 -43 -43 -43h-131z" />
<glyph unicode="J" horiz-adv-x="987" d="M406 -23q-97 0 -190.5 37t-156.5 109q-28 31 0 59l80 80q28 28 56 0q50 -47 96.5 -69.5t105.5 -22.5q91 0 156 60.5t65 156.5v1106q0 43 44 43h131q43 0 43 -43v-1100q0 -170 -123.5 -293t-306.5 -123z" />
<glyph unicode="K" horiz-adv-x="1216" d="M205 0q-43 0 -43 43v1450q0 43 43 43h131q43 0 43 -43v-662l512 682q19 23 45 23h174q20 0 26 -11t-8 -30l-510 -682l549 -768q13 -20 8 -32.5t-22 -12.5h-176q-28 0 -49 25l-455 639l-94 -113v-508q0 -43 -43 -43h-131z" />
<glyph unicode="L" horiz-adv-x="1009" d="M205 0q-43 0 -43 43v1450q0 43 43 43h131q43 0 43 -43v-1300h528q43 0 43 -46v-104q0 -43 -43 -43h-702z" />
<glyph unicode="M" horiz-adv-x="1714" d="M147 0q-46 0 -43 43l138 1450q3 43 45 43h123q32 0 41 -27l405 -1177l408 1177q6 27 41 27h122q40 0 43 -43l140 -1450q3 -43 -43 -43h-129q-40 0 -43 43l-92 997l-351 -1009q-9 -31 -47 -31h-98q-38 0 -47 31l-350 1009l-91 -997q-3 -43 -43 -43h-129z" />
<glyph unicode="N" horiz-adv-x="1458" d="M205 0q-43 0 -43 43v1450q0 43 43 43h98q22 0 41 -25l741 -1065v1047q0 43 43 43h125q43 0 43 -43v-1450q0 -43 -43 -43h-96q-23 0 -43 27l-741 1081v-1065q0 -43 -43 -43h-125z" />
<glyph unicode="O" d="M756 1559q303 0 485 -211.5t182 -579.5t-182 -579.5t-485 -211.5q-304 0 -486 211.5t-182 579.5t182 579.5t486 211.5zM756 170q199 0 323.5 159.5t124.5 438.5t-124.5 438.5t-323.5 159.5q-201 0 -325 -159.5t-124 -438.5t124 -438.5t325 -159.5z" />
<glyph unicode="P" horiz-adv-x="1212" d="M205 0q-43 0 -43 43v1448q0 43 43 43h434q240 0 374 -137t134 -348q0 -138 -56.5 -247t-173.5 -175t-278 -66h-260v-518q0 -43 -43 -43h-131zM379 754h237q161 0 239.5 79.5t78.5 215.5q0 135 -78.5 213.5t-239.5 78.5h-237v-587z" />
<glyph unicode="Q" d="M1083 53l224 -379q9 -20 2 -31.5t-23 -11.5h-151q-33 0 -58 45l-182 314q-70 -13 -139 -13q-316 0 -492 209t-176 582t176 582t492 209q315 0 491 -209.5t176 -581.5q0 -259 -88 -443t-252 -272zM307 768q1 -284 119.5 -441t329.5 -157t329.5 157t118.5 441t-118.5 441 t-329.5 157t-329.5 -157t-119.5 -441z" />
<glyph unicode="R" horiz-adv-x="1269" d="M205 0q-43 0 -43 43v1450q0 43 43 43h467q245 0 376.5 -123t131.5 -336q0 -176 -81 -285.5t-237 -144.5l326 -604q11 -22 3.5 -33.5t-30.5 -11.5h-153q-37 0 -54 31l-317 592h-258v-578q0 -43 -43 -43h-131zM379 809h301q151 0 219 74t68 194q0 118 -68 192t-219 74h-301 v-534z" />
<glyph unicode="S" horiz-adv-x="1130" d="M557 -23q-244 0 -465 181q-13 12 -13 27t11 28l68 92q24 27 55 2q173 -137 352 -137q124 0 197.5 61t73.5 156q0 53 -24.5 98t-65.5 80t-94 67t-111.5 62t-117.5 61.5t-112 70.5t-94 83.5t-65.5 105.5t-24.5 132q0 175 130.5 293.5t352.5 118.5q68 0 132 -11.5t107 -27.5 t77.5 -34t50.5 -29.5t18 -14.5q26 -20 9 -53l-52 -95q-14 -28 -47 -12q-158 84 -291 84q-114 0 -191 -58.5t-77 -146.5q0 -45 24.5 -84.5t65.5 -71t94 -61.5t111.5 -60.5t117.5 -64t112 -75.5t94 -90.5t65.5 -115t24.5 -143.5q0 -185 -136 -301.5t-362 -116.5z" />
<glyph unicode="T" horiz-adv-x="1183" d="M526 0q-43 0 -43 43v1309h-422q-45 0 -45 43v98q0 43 45 43h1061q45 0 45 -43v-98q0 -43 -45 -43h-422v-1309q0 -43 -43 -43h-131z" />
<glyph unicode="U" horiz-adv-x="1439" d="M719 -23q-133 0 -238.5 38t-181.5 114.5t-117 198t-41 282.5v883q0 43 43 43h131q43 0 43 -43v-905q0 -115 27.5 -198.5t78 -130t113.5 -68t142 -21.5t142 21.5t114 68t78.5 130t27.5 198.5v905q0 43 43 43h129q45 0 45 -43v-883q0 -317 -153.5 -475t-425.5 -158z" />
<glyph unicode="V" horiz-adv-x="1286" d="M573 0q-24 0 -34.5 7t-20.5 34l-498 1452q-14 43 29 43h137q28 0 39 -7t21 -36l397 -1214l395 1214q10 29 21 36t41 7h135q43 0 29 -43l-498 -1452q-8 -27 -19.5 -34t-35.5 -7h-138z" />
<glyph unicode="W" horiz-adv-x="1882" d="M41 1493q-12 43 31 43h147q23 0 33.5 -10t15.5 -33l271 -1131l284 1133q9 41 56 41h125q46 0 55 -41l284 -1133l271 1131q5 23 15.5 33t33.5 10h145q46 0 31 -43l-371 -1450q-12 -43 -55 -43h-127q-43 0 -55 41l-291 1137l-291 -1137q-12 -41 -53 -41h-127q-46 0 -55 43z " />
<glyph unicode="X" horiz-adv-x="1126" d="M49 0q-46 0 -22 43l409 735l-389 715q-24 43 23 43h151q36 0 49 -31l293 -561l293 561q13 31 49 31h154q44 0 20 -43l-389 -713l410 -737q24 -43 -21 -43h-149q-40 0 -53 31l-314 581l-313 -581q-16 -31 -53 -31h-148z" />
<glyph unicode="Y" horiz-adv-x="1138" d="M899 1505q15 31 53 31h140q44 0 20 -43l-434 -799v-651q0 -43 -43 -43h-131q-43 0 -43 43v651l-434 799q-12 22 -8 32.5t28 10.5h139q40 0 56 -31l327 -631z" />
<glyph unicode="Z" horiz-adv-x="1081" d="M111 0q-45 0 -45 43v119q0 21 12 45l708 1139h-684q-45 0 -45 43v104q0 43 45 43h879q43 0 43 -43v-121q0 -27 -12 -45l-711 -1137h676q43 0 43 -43v-104q0 -43 -43 -43h-866z" />
<glyph unicode="[" horiz-adv-x="724" d="M203 -440q-24 0 -33.5 9.5t-9.5 33.5v2021q0 24 9.5 33.5t33.5 9.5h411q24 0 33.5 -9.5t9.5 -33.5v-104q0 -24 -9.5 -33.5t-33.5 -9.5h-243v-1727h243q24 0 33.5 -9.5t9.5 -33.5v-104q0 -24 -9.5 -33.5t-33.5 -9.5h-411z" />
<glyph unicode="\" horiz-adv-x="512" d="M283 0q-44 0 -50 47l-167 1438q-7 51 40 51h119q43 0 49 -47l168 -1446q3 -43 -41 -43h-118z" />
<glyph unicode="]" horiz-adv-x="724" d="M111 -440q-25 0 -35 10t-10 33v104q0 23 10 33t35 10h241v1727h-241q-25 0 -35 10t-10 33v104q0 23 10 33t35 10h411q23 0 33 -10t10 -33v-2021q0 -23 -10 -33t-33 -10h-411z" />
<glyph unicode="^" horiz-adv-x="921" d="M461 1386l-228 -262q-26 -33 -59 0l-53 54q-31 28 0 59l311 307q28 32 60 0l309 -307q32 -29 2 -59l-53 -54q-33 -33 -62 0z" />
<glyph unicode="_" horiz-adv-x="1134" d="M94 -43q0 23 10 33t35 10h856q24 0 33.5 -9.5t9.5 -33.5v-96q0 -25 -9 -34t-34 -9h-856q-25 0 -35 9.5t-10 33.5v96z" />
<glyph unicode="`" horiz-adv-x="452" d="M309 1556l-278 213q-35 26 -4 64l53 63q30 38 63 5l258 -234q16 -17 14.5 -27.5t-16.5 -29.5l-30 -37q-33 -37 -60 -17z" />
<glyph unicode="a" horiz-adv-x="1030" d="M510 1020q198 0 296.5 -114.5t98.5 -309.5v-553q0 -23 -10 -33t-33 -10h-125q-23 0 -33 10t-10 33v49q-5 -5 -13.5 -12.5t-38 -27.5t-61 -35t-80.5 -27.5t-98 -12.5q-139 0 -233 86.5t-94 229.5q0 147 99.5 236t270.5 89q67 0 129 -14t91 -28l28 -15v49q0 98 -51.5 159.5 t-165.5 61.5q-101 0 -233 -49q-42 -14 -54 23l-28 100q-9 35 20 47q163 68 328 68zM463 139q36 0 73 12t64.5 28.5t49 33.5t32.5 29l12 12v160q-11 6 -31 14.5t-76.5 22t-105.5 12.5q-93 0 -144.5 -44t-51.5 -116q0 -74 52 -119t126 -45z" />
<glyph unicode="b" horiz-adv-x="1130" d="M354 899q3 5 9.5 13t31 29t53 37t77 29t102.5 13q200 0 315 -138.5t115 -381.5q0 -244 -115.5 -383.5t-318.5 -139.5q-52 0 -98.5 12.5t-76 30.5t-52 36.5t-32.5 31.5l-10 12v-57q0 -24 -9.5 -33.5t-33.5 -9.5h-123q-24 0 -33.5 9.5t-9.5 33.5v1450q0 24 9.5 33.5 t33.5 9.5h123q24 0 33.5 -9.5t9.5 -33.5v-594zM354 281q4 -5 10.5 -12.5t29.5 -27.5t48 -35t63 -27.5t77 -12.5q125 0 194.5 87.5t69.5 246.5q0 157 -70 244t-194 87q-41 0 -79 -12t-64 -29.5t-46 -35t-29 -29.5l-10 -12v-432z" />
<glyph unicode="c" horiz-adv-x="950" d="M547 -23q-221 0 -346 138.5t-125 384.5q0 244 125 382t346 138q207 0 336 -115q24 -21 6 -53l-49 -86q-20 -33 -62 -8q-43 25 -63 35.5t-65.5 24t-90.5 13.5q-130 -1 -201 -88t-71 -243q0 -157 71 -245t201 -89q45 0 91 14t64.5 24t63.5 36q41 25 62 -9l49 -86 q18 -32 -6 -53q-135 -115 -336 -115z" />
<glyph unicode="d" horiz-adv-x="1130" d="M776 901v592q0 23 10 33t33 10h125q23 0 33 -10t10 -33v-1450q0 -23 -10 -33t-33 -10h-125q-23 0 -33 10t-10 33v57q-3 -5 -10 -13.5t-31.5 -29.5t-52.5 -37t-74.5 -29.5t-97.5 -13.5q-204 0 -319 139t-115 384q0 243 115.5 381.5t316.5 138.5q53 0 100.5 -12.5t76.5 -30 t51 -34.5t31 -29zM776 281v436q-3 5 -9.5 12.5t-28.5 27t-46 34.5t-62 27.5t-77 12.5q-126 0 -196 -87t-70 -244q0 -158 69.5 -246t194.5 -88q62 0 118 29t81 57z" />
<glyph unicode="e" horiz-adv-x="1064" d="M571 -23q-229 0 -362 138.5t-133 382.5q0 241 131.5 381.5t337.5 140.5q213 0 330 -140t114 -380q0 -42 -7 -54t-36 -12l-651 -2q0 -110 75.5 -188t202.5 -78q118 0 242 82q45 27 62 -10q38 -69 53 -93q11 -21 9.5 -30.5t-15.5 -22.5q-60 -51 -151.5 -83t-201.5 -32z M295 590l487 2q0 105 -66 172t-169 67q-107 0 -179.5 -72t-72.5 -169z" />
<glyph unicode="f" horiz-adv-x="704" d="M199 811h-101q-23 0 -33 10t-10 33v100q0 23 10 33t33 10h101v207q0 177 86.5 274.5t234.5 100.5q155 3 254 -104q25 -28 28 -43.5t-16 -38.5l-59 -58q-30 -33 -59 0q-47 56 -121 56q-62 0 -99.5 -47t-37.5 -138v-209h200q23 0 33 -10t10 -33v-100q0 -23 -10 -33t-33 -10 h-200v-768q0 -23 -10 -33t-33 -10h-125q-23 0 -33 10t-10 33v768z" />
<glyph unicode="g" horiz-adv-x="1118" d="M76 172q-4 143 135 246q-57 100 -57 203q0 167 117.5 283t287.5 116q137 0 250 -100v34q0 25 9 34t32 9h84q23 0 33 -10t10 -33l4 -336q1 -167 -119 -282t-293 -115q-131 0 -229 74q-57 -37 -57 -109q0 -57 40 -91t107 -34h289q155 0 245.5 -67.5t90.5 -194.5 q0 -149 -131 -236t-355 -87q-128 0 -234.5 30.5t-178.5 100.5t-72 170q0 38 10.5 72.5t25.5 56t30 37.5t26 23l10 7q-31 27 -51 49.5t-39 63t-20 86.5zM375 606q5 -85 63.5 -138.5t141.5 -47.5q84 4 135 65.5t45 147.5q-5 84 -63 138t-142 48q-84 -4 -135 -65.5t-45 -147.5z M295 -213q0 -40 23.5 -66t67 -38t85.5 -16.5t98 -4.5t98 4t85.5 16t67.5 38t24 65q0 94 -129 94h-295q-125 0 -125 -92z" />
<glyph unicode="h" horiz-adv-x="1142" d="M188 0q-24 0 -33.5 9.5t-9.5 33.5v1450q0 24 9.5 33.5t33.5 9.5h119q23 0 33 -10t10 -33v-578q4 4 11.5 11t34.5 25.5t58 32t81.5 25t105.5 11.5q160 0 268.5 -98t108.5 -256v-623q0 -23 -10 -33t-33 -10h-125q-23 0 -33 10t-10 33v575q0 104 -64 162t-157 58 q-65 0 -123 -25t-83 -49l-26 -25v-696q0 -24 -9.5 -33.5t-33.5 -9.5h-123z" />
<glyph unicode="i" horiz-adv-x="524" d="M260 1182q-60 0 -102.5 42.5t-42.5 102.5q0 62 42.5 106t102.5 44q62 0 106 -44.5t44 -105.5q0 -60 -44 -102.5t-106 -42.5zM199 0q-24 0 -33.5 9.5t-9.5 33.5v911q0 24 9.5 33.5t33.5 9.5h123q25 0 35 -10t10 -33v-911q0 -23 -10 -33t-35 -10h-123z" />
<glyph unicode="j" horiz-adv-x="565" d="M301 1182q-61 0 -104 42.5t-43 102.5q0 62 43 106t104 44t105.5 -44.5t44.5 -105.5q0 -60 -44 -102.5t-106 -42.5zM78 -524q-150 0 -246 104q-25 28 -28 44t16 38l59 57q31 34 60 0q46 -55 118 -55q58 0 99 40.5t41 109.5v1140q0 23 10 33t33 10h125q23 0 33 -10t10 -33 v-1138q0 -149 -96.5 -244.5t-233.5 -95.5z" />
<glyph unicode="k" horiz-adv-x="997" d="M188 0q-24 0 -33.5 9.5t-9.5 33.5v1450q0 24 9.5 33.5t33.5 9.5h123q24 0 33.5 -9.5t9.5 -33.5v-905l351 379q28 30 59 30h149q19 0 25.5 -14t-8.5 -29l-334 -362l367 -547q13 -19 6.5 -32t-27.5 -13h-154q-13 0 -20.5 1.5t-16.5 9t-18 22.5l-268 411l-111 -120v-281 q0 -24 -9.5 -33.5t-33.5 -9.5h-123z" />
<glyph unicode="l" horiz-adv-x="641" d="M500 0q-176 0 -273.5 98t-97.5 273v1122q0 24 9.5 33.5t33.5 9.5h123q24 0 33.5 -9.5t9.5 -33.5v-1120q0 -85 50.5 -135t139.5 -50h13q23 0 32 -9.5t9 -33.5v-102q0 -24 -9.5 -33.5t-33.5 -9.5h-39z" />
<glyph unicode="m" horiz-adv-x="1705" d="M1233 1020q162 0 255 -95t93 -257v-625q0 -24 -9.5 -33.5t-33.5 -9.5h-123q-24 0 -33.5 9.5t-9.5 33.5v580q0 105 -55.5 160t-147.5 55q-113 0 -208 -88q8 -36 8 -84v-623q0 -24 -9.5 -33.5t-33.5 -9.5h-123q-25 0 -35 10t-10 33v580q0 105 -55 160t-146 55 q-36 0 -71.5 -10t-60 -24t-43.5 -28.5t-28 -24.5l-10 -10v-698q0 -24 -9.5 -33.5t-33.5 -9.5h-123q-24 0 -33.5 9.5t-9.5 33.5v911q0 24 9.5 33.5t33.5 9.5h111q24 0 33.5 -9.5t9.5 -33.5v-43q5 4 13.5 11.5t38 26.5t62 33t82 26t99.5 12q182 0 274 -125q138 125 332 125z " />
<glyph unicode="n" horiz-adv-x="1132" d="M178 0q-24 0 -33.5 9.5t-9.5 33.5v911q0 24 9.5 33.5t33.5 9.5h109q25 0 35 -10t10 -33v-47q5 5 13.5 12.5t38 27t61.5 34.5t82 27t102 12q162 0 270.5 -98t108.5 -256v-623q0 -23 -10 -33t-33 -10h-125q-23 0 -33 10t-10 33v575q0 104 -64.5 162t-157.5 58 q-37 0 -74 -10.5t-64 -25t-49 -29.5t-33 -25l-11 -11v-694q0 -24 -9.5 -33.5t-33.5 -9.5h-123z" />
<glyph unicode="o" horiz-adv-x="1095" d="M547 -23q-222 0 -346.5 138.5t-124.5 384.5q0 245 124.5 382.5t346.5 137.5q224 0 348.5 -137.5t124.5 -382.5q0 -246 -124.5 -384.5t-348.5 -138.5zM547 166q125 0 194.5 87.5t69.5 246.5q0 158 -69.5 244.5t-194.5 86.5q-123 0 -191.5 -86.5t-68.5 -244.5 q0 -159 68.5 -246.5t191.5 -87.5z" />
<glyph unicode="p" horiz-adv-x="1120" d="M344 899q3 5 9.5 13t30.5 29t52.5 37t77 29t102.5 13q200 0 315.5 -139t115.5 -381q0 -244 -116 -383.5t-319 -139.5q-52 0 -98.5 12.5t-76 30.5t-51.5 36.5t-32 31.5l-10 12v-569q0 -24 -9.5 -33.5t-33.5 -9.5h-123q-24 0 -33.5 9.5t-9.5 33.5v1421q0 24 9.5 33.5 t33.5 9.5h123q24 0 33.5 -9.5t9.5 -33.5v-53zM344 281q4 -5 10.5 -12.5t29 -27.5t47.5 -35t63 -27.5t77 -12.5q125 0 195 87.5t70 246.5q0 157 -70.5 244t-194.5 87q-41 0 -79 -12t-64 -29.5t-45.5 -35t-28.5 -29.5l-10 -12v-432z" />
<glyph unicode="q" horiz-adv-x="1101" d="M776 899v53q0 23 10 33t33 10h125q23 0 33 -10t10 -33v-1421q0 -23 -10 -33t-33 -10h-125q-23 0 -33 10t-10 33v569q-3 -5 -10 -13.5t-31.5 -29.5t-52.5 -37t-74.5 -29.5t-97.5 -13.5q-204 0 -319 139t-115 384q0 243 115 381.5t315 138.5q54 0 101.5 -12.5t77 -30 t51.5 -35.5t31 -30zM776 281v432q-3 5 -9.5 13t-28.5 28t-46 35.5t-62.5 28.5t-78.5 13q-125 0 -194.5 -86.5t-69.5 -244.5q0 -159 69 -246.5t193 -87.5q62 0 118.5 29t82.5 57z" />
<glyph unicode="r" horiz-adv-x="821" d="M340 954v-36q3 4 9.5 11t28 24.5t45 31t59.5 24.5t73 11q111 0 209 -90q42 -36 18 -66q-15 -19 -65 -86q-10 -13 -24.5 -17t-28.5 7q-67 61 -148 61q-48 0 -91 -24t-62 -48l-19 -24v-690q0 -24 -9.5 -33.5t-33.5 -9.5h-123q-24 0 -33.5 9.5t-9.5 33.5v911q0 24 9.5 33.5 t33.5 9.5h119q24 0 33.5 -9.5t9.5 -33.5z" />
<glyph unicode="s" horiz-adv-x="935" d="M461 -23q-181 0 -365 107q-30 19 -12 59l41 80q21 43 65 21q172 -84 285 -84q77 0 128.5 30t51.5 84q0 30 -18.5 55t-52 43t-74.5 34.5t-90 33.5q-13 4 -19 6q-51 17 -82.5 30t-72 36.5t-63 50t-38.5 67.5t-16 93q0 140 107.5 218.5t269.5 78.5q145 0 303 -86 q35 -18 12 -60l-41 -81q-5 -11 -12 -16t-16.5 -4.5t-17.5 3.5t-19 8q-118 54 -219 54q-158 0 -158 -105q0 -14 2 -25t9 -21t12 -17t19 -15.5t21.5 -13t28 -12.5t30.5 -11.5t36.5 -12.5t38.5 -13q43 -15 67 -24t64.5 -26.5t64 -33t53.5 -39.5t45.5 -49.5t27 -60t11.5 -74.5 q0 -137 -111 -222.5t-296 -85.5z" />
<glyph unicode="t" horiz-adv-x="817" d="M522 -10q-140 2 -231.5 97t-91.5 241v483h-101q-23 0 -33 10t-10 33v100q0 23 10 33t33 10h101v275q0 23 10 33t33 10h125q23 0 33 -10t10 -33v-275h204q24 0 33.5 -9.5t9.5 -33.5v-100q0 -24 -9.5 -33.5t-33.5 -9.5h-204v-485q0 -65 40 -107.5t101 -42.5q69 0 117 57 q29 33 59 0l59 -59q19 -22 16 -37t-28 -43q-95 -107 -252 -104z" />
<glyph unicode="u" horiz-adv-x="1112" d="M934 997q23 0 33 -10t10 -33v-911q0 -23 -10 -33t-33 -10h-111q-23 0 -33 10t-10 33v47q-5 -5 -13.5 -12.5t-37.5 -27t-61 -34.5t-81.5 -27t-99.5 -12q-157 0 -259.5 98.5t-102.5 256.5v622q0 24 9.5 33.5t33.5 9.5h123q24 0 33.5 -9.5t9.5 -33.5v-575q0 -98 59 -158.5 t148 -60.5q56 0 112 24.5t85 49.5l28 24v696q0 23 10 33t33 10h125z" />
<glyph unicode="v" horiz-adv-x="980" d="M430 0q-20 0 -29.5 7t-19.5 32l-342 922q-2 13 -2.5 20.5t8 11t14.5 4t17 0.5h125q22 0 31 -5t16 -27l241 -695l244 695q7 22 16 27t31 5h123q11 0 17 -0.5t14.5 -4t8 -11t-2.5 -20.5l-342 -922q-9 -25 -18 -32t-29 -7h-121z" />
<glyph unicode="w" horiz-adv-x="1519" d="M369 0q-22 0 -33 8t-17 31l-270 922q-5 16 0.5 24.5t13.5 10t23 1.5h125q23 0 32 -5t15 -27l172 -648l236 641q9 24 18.5 31.5t30.5 7.5h90q21 0 30.5 -7.5t18.5 -31.5l233 -641l175 648q6 22 15 27t32 5h125q11 0 16.5 -0.5t13.5 -4t7.5 -11t-1.5 -20.5l-270 -922 q-6 -23 -16 -31t-31 -8h-113q-20 0 -29 7.5t-18 31.5l-233 625l-234 -625q-9 -24 -18 -31.5t-29 -7.5h-110z" />
<glyph unicode="x" horiz-adv-x="1026" d="M76 0q-21 0 -26.5 14t5.5 29l332 471l-313 440q-13 15 -7 29t27 14h150q23 0 34.5 -8.5t30.5 -34.5l205 -295l205 295q19 26 30.5 34.5t34.5 8.5h150q21 0 26 -14t-6 -29l-313 -440l332 -471q11 -15 5.5 -29t-26.5 -14h-153q-21 0 -31.5 8t-30.5 35l-223 317l-223 -317 q-19 -26 -30.5 -34.5t-33.5 -8.5h-151z" />
<glyph unicode="y" horiz-adv-x="997" d="M190 -524q-78 0 -153 35q-23 10 -28.5 23t1.5 30l37 94q11 32 45 20q56 -18 88 -18q48 0 80.5 28t56.5 87l86 239l-348 947q-7 21 1.5 28.5t35.5 7.5h125q22 0 31 -5t16 -27l242 -693l244 693q7 22 16 27t31 5h123q11 0 17 -0.5t14 -4t7.5 -11t-2.5 -20.5l-454 -1260 q-41 -110 -124.5 -167.5t-187.5 -57.5z" />
<glyph unicode="z" horiz-adv-x="987" d="M344 186h520q24 0 33.5 -10t9.5 -35v-98q0 -24 -9.5 -33.5t-33.5 -9.5h-743q-23 0 -33 10t-10 33v102q0 40 14 54l531 612h-482q-23 0 -33 10t-10 35v98q0 23 10 33t33 10h713q25 0 34 -9.5t9 -33.5v-92q0 -36 -23 -63z" />
<glyph unicode="{" horiz-adv-x="700" d="M592 -440q-170 6 -269.5 93.5t-99.5 254.5v575q-1 29 -1 39t-2.5 35t-6.5 35t-12 27t-19 24t-28.5 13t-40.5 6q-25 0 -34 9t-9 34v102q0 25 9 34t34 9q31 0 52 11t32 24.5t17 42t7 46.5t2 54v373q0 168 100 255.5t269 92.5q23 1 33 -9t10 -34v-104q0 -23 -9.5 -32 t-33.5 -11q-42 -2 -72.5 -19t-46 -38.5t-24.5 -55t-11 -59t-2 -60.5v-364q-1 -79 -21.5 -121t-64.5 -86q42 -42 64 -93t22 -131v-552q0 -26 0.5 -40.5t3.5 -41.5t8.5 -43t17 -37.5t27.5 -33.5t41.5 -22t57.5 -12q24 -2 33.5 -11t9.5 -32v-104q0 -24 -10 -34t-33 -9z" />
<glyph unicode="|" horiz-adv-x="536" d="M197 -524q-23 0 -33 10t-10 33v1974q0 23 10 33t33 10h125q23 0 33 -10t10 -33v-1974q0 -23 -10 -33t-33 -10h-125z" />
<glyph unicode="}" horiz-adv-x="700" d="M111 -440q-24 -1 -34.5 9t-10.5 34v104q0 23 10 32t35 11q45 3 76 20.5t46 38t23 57t9 56.5t1 58v552q0 80 21.5 131.5t62.5 92.5q-44 44 -64 86t-20 121v364q0 44 -4.5 76t-18.5 70.5t-47.5 60.5t-84.5 25q-25 2 -35 11t-10 32v104q0 24 10.5 34t34.5 9q168 -5 267 -93 t99 -255v-373q1 -36 2 -54t7 -46.5t17.5 -42t33 -24.5t53.5 -11q24 0 33.5 -9.5t9.5 -33.5v-102q0 -24 -9.5 -33.5t-33.5 -9.5q-31 0 -53 -11t-33.5 -25t-17.5 -42t-7 -46.5t-2 -54.5v-575q0 -167 -99 -254.5t-267 -93.5z" />
<glyph unicode="~" horiz-adv-x="999" d="M666 659q-67 0 -122 20.5t-101.5 41t-92.5 20.5q-30 0 -64.5 -16t-56.5 -49q-15 -21 -39 -6l-81 51q-22 16 -9 37q40 66 103 100.5t131 34.5q64 0 117.5 -20t100 -40t93.5 -20q32 0 66.5 15.5t58.5 50.5q14 20 37 6l84 -54q19 -14 8 -36q-40 -66 -103 -101t-130 -35z" />
<glyph unicode="&#xa1;" horiz-adv-x="475" d="M106 903q0 55 38 93t94 38t94.5 -38t38.5 -93t-38.5 -93t-94.5 -38t-94 38t-38 93zM201 637h73q25 0 34 -9t11 -34l23 -1063q2 -23 -8 -33t-35 -10h-125q-23 0 -33 10t-10 33l25 1063q0 24 10 33.5t35 9.5z" />
<glyph unicode="&#xa2;" horiz-adv-x="950" d="M840 231l49 -86q18 -32 -6 -53q-98 -84 -236 -106v-99q0 -23 -10 -33t-33 -10h-125q-23 0 -33 10t-10 33v101q-171 32 -265.5 165.5t-94.5 346.5q0 211 94.5 344.5t265.5 165.5v98q0 24 9.5 33.5t33.5 9.5h125q24 0 33.5 -9.5t9.5 -33.5v-96q137 -22 236 -107 q24 -21 6 -53l-49 -86q-20 -33 -62 -8q-43 25 -63 35.5t-65.5 24t-90.5 13.5q-130 -1 -201 -88t-71 -243q0 -157 71 -245t201 -89q45 0 91 14t64.5 24t63.5 36q41 25 62 -9z" />
<glyph unicode="&#xa3;" horiz-adv-x="1046" d="M944 193q43 0 43 -46v-104q0 -43 -43 -43h-702q-43 0 -43 43v631h-101q-23 0 -33 10t-10 33v86q0 23 10 33t33 10h101v373q0 145 100 242.5t236 97.5q149 0 245 -107q25 -26 28.5 -42t-15.5 -38l-60 -59q-31 -31 -59 2q-46 55 -119 55q-58 0 -98.5 -40t-40.5 -109v-375 h323q25 0 35 -10t10 -33v-86q0 -23 -10 -33t-35 -10h-323v-481h528z" />
<glyph unicode="&#xa5;" horiz-adv-x="1146" d="M1116 1493l-434 -799v-51h162q23 0 33 -10t10 -35v-70q0 -23 -10 -33t-33 -10h-162v-118h162q23 0 33 -10t10 -33v-70q0 -25 -10 -35t-33 -10h-162v-166q0 -43 -43 -43h-131q-43 0 -43 43v166h-162q-24 0 -33.5 10t-9.5 35v70q0 24 9.5 33.5t33.5 9.5h162v118h-162 q-24 0 -33.5 9.5t-9.5 33.5v70q0 25 9.5 35t33.5 10h162v51l-434 799q-12 22 -8 32.5t28 10.5h139q40 0 56 -31l327 -631l330 631q15 31 53 31h140q44 0 20 -43z" />
<glyph unicode="&#xa7;" horiz-adv-x="923" d="M741 489q119 -76 119 -208q0 -137 -110 -222.5t-297 -85.5t-363 107q-21 12 -21.5 28.5t9.5 30.5l39 80q21 43 65 21q172 -86 285 -86q77 0 129.5 30.5t52.5 83.5q0 25 -13 46t-31.5 36t-53 31.5t-61 26.5t-72.5 26q-15 5 -23 8q-52 17 -84 30t-72.5 37t-63 51 t-38.5 69.5t-16 95.5q0 146 121 223q-121 72 -121 217q0 136 107 213.5t266 77.5q157 0 309 -86q31 -17 12 -59l-43 -82q-5 -11 -12 -16t-16.5 -4t-17 3.5t-19.5 8.5q-120 55 -220 55q-69 0 -113 -24.5t-44 -80.5q0 -12 2.5 -23t5.5 -19.5t11.5 -17t14 -14.5t19 -13t21 -11 t26 -11t28.5 -10.5t33 -11.5t35 -12q51 -17 79.5 -28.5t74 -32t72.5 -42t54.5 -51.5t40.5 -68.5t13 -84.5q0 -148 -119 -232zM319 729q0 -19 4 -33.5t16 -26.5t22 -20t33 -18t36.5 -15t46 -15.5t49.5 -16.5q4 -1 11.5 -4.5t11.5 -4.5q48 18 80.5 56t32.5 80q0 39 -35.5 70 t-70 45.5t-112.5 40.5q-9 3 -14 5q-46 -14 -78.5 -54t-32.5 -89z" />
<glyph unicode="&#xa8;" horiz-adv-x="696" d="M145 1524q-54 0 -91.5 37.5t-37.5 91.5t37.5 92.5t91.5 38.5t92.5 -38.5t38.5 -92.5t-38.5 -91.5t-92.5 -37.5zM547 1524q-54 0 -91.5 37.5t-37.5 91.5t37.5 92.5t91.5 38.5t92.5 -38.5t38.5 -92.5t-38.5 -91.5t-92.5 -37.5z" />
<glyph unicode="&#xa9;" horiz-adv-x="1753" d="M877 -20q-226 0 -404 100.5t-277.5 280t-99.5 407.5q0 229 99.5 409.5t277.5 281t404 100.5q165 0 306.5 -59t241.5 -162.5t156.5 -251t56.5 -318.5q0 -228 -96.5 -407.5t-270.5 -280t-394 -100.5zM877 125q178 0 317.5 81.5t217 228.5t77.5 333t-77.5 333t-217 228.5 t-317.5 81.5q-278 0 -455.5 -180t-177.5 -463t177.5 -463t455.5 -180zM872 315q-192 0 -299.5 119.5t-107.5 333.5q0 215 107.5 334t299.5 119q193 0 308 -125q11 -14 11.5 -29.5t-11.5 -26.5q-32 -32 -56 -53q-23 -26 -51 -2q-94 80 -194 80q-114 0 -178 -78.5t-64 -218.5 q0 -139 64 -217t178 -78q104 0 194 80q27 22 51 -2q15 -17 56 -53q10 -12 10 -28t-10 -28q-117 -127 -308 -127z" />
<glyph unicode="&#xab;" horiz-adv-x="987" d="M84 489q-25 25 0 50l397 385q15 12 27 7t12 -20v-161q0 -32 -22 -54l-191 -182l191 -182q22 -22 22 -51v-162q0 -15 -12 -21t-27 8zM465 489q-25 25 0 50l397 385q15 12 27 7t12 -20v-161q0 -32 -22 -54l-191 -182l191 -182q22 -22 22 -51v-162q0 -15 -12 -21t-27 8z" />
<glyph unicode="&#xad;" horiz-adv-x="718" d="M127 473q-19 0 -26 9t-7 34v96q0 24 7 33.5t26 9.5h465q19 0 26 -9.5t7 -33.5v-96q0 -25 -7 -34t-26 -9h-465z" />
<glyph unicode="&#xae;" horiz-adv-x="1753" d="M877 -20q-163 0 -308 61.5t-248.5 166.5t-164 251t-60.5 309q0 219 102.5 400.5t282 286t396.5 104.5q212 0 387 -104.5t274.5 -286t99.5 -400.5q0 -163 -58.5 -309t-159.5 -251t-242.5 -166.5t-300.5 -61.5zM877 125q128 0 242 50.5t195 136.5t128 205t47 251t-47 251 t-128 205t-195 136.5t-242 50.5q-176 0 -321.5 -85.5t-228.5 -233t-83 -324.5t83 -324.5t228.5 -233t321.5 -85.5zM594 315q-33 0 -33 33v844q0 31 33 31h328q137 0 222 -76t85 -201q0 -99 -58 -170.5t-153 -91.5l188 -336q16 -33 -22 -33h-103q-30 0 -39 25l-186 332h-141 v-324q0 -33 -33 -33h-88zM715 811h209q70 0 111.5 36.5t41.5 100.5q0 62 -41.5 98.5t-111.5 36.5h-209v-272z" />
<glyph unicode="&#xaf;" horiz-adv-x="561" d="M16 1636q0 25 9 34t34 9h443q25 0 35 -9.5t10 -33.5v-61q0 -23 -10 -33t-35 -10h-443q-24 0 -33.5 9.5t-9.5 33.5v61z" />
<glyph unicode="&#xb0;" horiz-adv-x="634" d="M315 1024q-85 0 -143.5 59t-58.5 144t58.5 144t143.5 59t144 -59t59 -144t-59 -144t-144 -59zM315 1153q29 0 50.5 22.5t21.5 51.5t-21.5 51t-50.5 22t-50 -22t-21 -51q0 -30 21 -52t50 -22z" />
<glyph unicode="&#xb4;" horiz-adv-x="452" d="M94 1556q-9 -6 -16.5 -8t-15.5 2.5t-12.5 8.5t-14.5 14l-31 37q-15 19 -16.5 29.5t14.5 27.5l258 234q34 34 64 -5l53 -63q31 -38 -4 -64z" />
<glyph unicode="&#xb6;" horiz-adv-x="1701" d="M1262 -598q-23 0 -33 10t-10 33v1901h-328v-1901q0 -23 -10 -33t-33 -10h-129q-23 0 -33 10t-10 33v1217h-160q-181 0 -309.5 126.5t-128.5 309.5q0 181 118.5 309.5t290.5 128.5h1094q25 0 35 -10t10 -33v-104q0 -23 -10 -33t-35 -10h-147v-1901q0 -43 -45 -43h-127z " />
<glyph unicode="&#xb7;" horiz-adv-x="407" d="M92 725q-13 46 9.5 87.5t68.5 55.5q46 12 87.5 -10t53.5 -67q14 -46 -8 -88.5t-67 -55.5q-46 -14 -88.5 9t-55.5 69z" />
<glyph unicode="&#xb8;" horiz-adv-x="559" d="M262 -547q-56 0 -112 29q-20 10 -9 31l31 92q10 20 33 10t49 -10q49 0 76.5 27t27.5 75q0 46 -26 73t-68 27q-56 0 -86 -43q-11 -14 -31 -10l-81 21q-31 7 -25 30l80 267l149 -13l-43 -155q31 20 90 20q93 0 148 -59t55 -160q0 -118 -69.5 -185t-188.5 -67z" />
<glyph unicode="&#xbb;" horiz-adv-x="987" d="M526 489l-397 -383q-15 -14 -27 -8t-12 21v162q0 28 23 51l190 182l-190 182q-23 23 -23 54v161q0 15 12 20t27 -7l397 -385q25 -25 0 -50zM905 489l-397 -383q-15 -14 -27 -8t-12 21v162q0 28 23 51l190 182l-190 182q-23 23 -23 54v161q0 15 12 20t27 -7l397 -385 q25 -25 0 -50z" />
<glyph unicode="&#xbc;" horiz-adv-x="1107" d="M170 952q-20 0 -20 23v375l-46 -45q-12 -12 -24 0l-66 65q-16 13 0 29l133 127q10 10 23 10h133q21 0 21 -23v-538q0 -9 -6 -16t-15 -7h-133zM98 0q-51 0 -30 43l698 1446q13 26 25 36.5t34 10.5h111q24 0 32.5 -11.5t-1.5 -33.5l-699 -1444q-13 -26 -25 -36.5t-34 -10.5 h-111zM852 6q-9 0 -15 6t-6 15v94h-229q-20 0 -20 22v74q0 21 12 39l229 317q10 17 29 17h133q21 0 21 -23v-315h32q21 0 21 -21v-88q0 -22 -21 -22h-32v-94q0 -21 -21 -21h-133zM752 252h79v125z" />
<glyph unicode="&#xbd;" horiz-adv-x="1040" d="M170 952q-20 0 -20 23v375l-46 -45q-12 -12 -24 0l-66 65q-16 13 0 29l133 127q10 10 23 10h133q21 0 21 -23v-538q0 -9 -6 -16t-15 -7h-133zM98 0q-51 0 -30 43l698 1446q13 26 25 36.5t34 10.5h111q24 0 32.5 -11.5t-1.5 -33.5l-699 -1444q-13 -26 -25 -36.5t-34 -10.5 h-111zM625 0q-21 0 -21 20v107q0 44 21 82t51 63.5t59.5 47.5t50.5 45t21 45q0 18 -11 30.5t-32 12.5q-13 0 -26.5 -7t-20 -12t-23.5 -20q-14 -14 -26 4l-56 65q-14 13 4 31q82 78 183 78q83 0 132.5 -45t49.5 -119q0 -44 -21 -80.5t-50.5 -60t-59.5 -44.5t-51 -45t-21 -51 v-10h185q20 0 20 -20v-97q0 -20 -20 -20h-338z" />
<glyph unicode="&#xbe;" horiz-adv-x="1105" d="M217 946q-65 0 -115 23.5t-73 52.5q-13 16 0 29l59 65q12 15 29 2q2 -1 9.5 -7t9.5 -7t8 -5.5t8.5 -5.5t8.5 -4t9.5 -3.5t9 -1.5t10.5 -1q28 0 44 15t16 43q0 29 -17 45t-45 16q-20 0 -20 21v67q0 8 3.5 13t6.5 6t10 2q54 10 54 53q0 45 -47 45q-33 0 -64 -31 q-11 -12 -27 4l-55 58q-11 13 2 30q25 30 70 52t100 22q81 0 138 -42.5t57 -110.5q0 -41 -21 -75t-49 -54q32 -20 55 -59t23 -89q0 -74 -58.5 -121t-148.5 -47zM98 0q-51 0 -30 43l698 1446q13 26 25 36.5t34 10.5h111q24 0 32.5 -11.5t-1.5 -33.5l-699 -1444 q-13 -26 -25 -36.5t-34 -10.5h-111zM852 6q-9 0 -15 6t-6 15v94h-229q-20 0 -20 22v74q0 21 12 39l229 317q10 17 29 17h133q21 0 21 -23v-315h32q21 0 21 -21v-88q0 -22 -21 -22h-32v-94q0 -21 -21 -21h-133zM752 252h79v125z" />
<glyph unicode="&#xbf;" horiz-adv-x="907" d="M489 1032q56 0 94 -38t38 -93t-38 -93t-94 -38t-94.5 38t-38.5 93t38.5 93t94.5 38zM537 635q25 0 35 -9.5t10 -35.5q0 -105 -16.5 -190.5t-43 -141.5t-58.5 -102t-63.5 -81t-58 -67t-43 -71t-16.5 -84q0 -89 57.5 -140t148.5 -51q118 0 211 90q27 31 58 0l65 -71 q25 -25 0 -62q-63 -74 -157.5 -112.5t-202.5 -38.5q-178 0 -285.5 93.5t-107.5 258.5q0 63 17.5 116t45.5 93t62 79t68.5 84t63.5 97.5t47.5 130.5t20.5 172q2 24 11.5 33.5t33.5 9.5h97z" />
<glyph unicode="&#xc0;" horiz-adv-x="1236" d="M674 1673l-279 213q-35 26 -4 64l53 63q30 38 64 4l258 -233q16 -17 14.5 -28t-16.5 -30l-31 -36q-8 -9 -13.5 -14t-13 -8.5t-15.5 -2t-17 7.5zM66 0q-41 0 -29 43l463 1450q12 43 57 43h125q45 0 57 -43l463 -1450q12 -43 -28 -43h-134q-22 0 -31 9.5t-16 33.5l-112 358 h-523l-112 -358q-7 -24 -16 -33.5t-31 -9.5h-133zM416 592h407l-202 647z" />
<glyph unicode="&#xc1;" horiz-adv-x="1236" d="M606 1669q-9 -6 -16.5 -8t-15.5 2.5t-12.5 8.5t-14.5 14l-31 36q-15 19 -16.5 30t14.5 28l258 233q34 34 64 -4l53 -63q31 -38 -4 -64zM66 0q-41 0 -29 43l463 1450q12 43 57 43h125q45 0 57 -43l463 -1450q12 -43 -28 -43h-134q-22 0 -31 9.5t-16 33.5l-112 358h-523 l-112 -358q-7 -24 -16 -33.5t-31 -9.5h-133zM416 592h407l-202 647z" />
<glyph unicode="&#xc2;" horiz-adv-x="1236" d="M623 1855l-166 -178q-31 -31 -62 0l-53 54q-31 31 0 59l250 223q30 27 59 0l250 -223q31 -28 0 -59l-53 -54q-31 -31 -62 0zM66 0q-41 0 -29 43l463 1450q12 43 57 43h125q45 0 57 -43l463 -1450q12 -43 -28 -43h-134q-22 0 -31 9.5t-16 33.5l-112 358h-523l-112 -358 q-7 -24 -16 -33.5t-31 -9.5h-133zM416 592h407l-202 647z" />
<glyph unicode="&#xc3;" horiz-adv-x="1236" d="M766 1667q-52 0 -104 20t-95 40t-73 20q-58 0 -103 -66q-15 -21 -39 -6l-82 54q-21 12 -8 34q78 138 213 138q49 0 100 -20.5t95 -41t75 -20.5q59 0 105 65q14 20 37 6l84 -53q20 -14 8 -37q-75 -133 -213 -133zM66 0q-41 0 -29 43l463 1450q12 43 57 43h125q45 0 57 -43 l463 -1450q12 -43 -28 -43h-134q-22 0 -31 9.5t-16 33.5l-112 358h-523l-112 -358q-7 -24 -16 -33.5t-31 -9.5h-133zM416 592h407l-202 647z" />
<glyph unicode="&#xc4;" horiz-adv-x="1236" d="M418 1665q-54 0 -91.5 37.5t-37.5 91.5t37.5 92.5t91.5 38.5t92.5 -38.5t38.5 -92.5t-38.5 -91.5t-92.5 -37.5zM819 1665q-54 0 -91.5 37.5t-37.5 91.5t37.5 92.5t91.5 38.5t92.5 -38.5t38.5 -92.5t-38.5 -91.5t-92.5 -37.5zM66 0q-41 0 -29 43l463 1450q12 43 57 43h125 q45 0 57 -43l463 -1450q12 -43 -28 -43h-134q-22 0 -31 9.5t-16 33.5l-112 358h-523l-112 -358q-7 -24 -16 -33.5t-31 -9.5h-133zM416 592h407l-202 647z" />
<glyph unicode="&#xc5;" horiz-adv-x="1236" d="M616 1647q-85 0 -143.5 58.5t-58.5 143.5t58.5 144t143.5 59t144 -59t59 -144t-59 -143.5t-144 -58.5zM616 1776q29 0 50.5 22t21.5 51t-21.5 51.5t-50.5 22.5t-50 -22t-21 -52q0 -29 21 -51t50 -22zM66 0q-41 0 -29 43l463 1450q12 43 57 43h125q45 0 57 -43l463 -1450 q12 -43 -28 -43h-134q-22 0 -31 9.5t-16 33.5l-112 358h-523l-112 -358q-7 -24 -16 -33.5t-31 -9.5h-133zM416 592h407l-202 647z" />
<glyph unicode="&#xc6;" horiz-adv-x="1853" d="M68 0q-23 0 -31 10.5t2 32.5l784 1450q21 43 58 43h800q43 0 43 -43v-104q0 -43 -43 -43h-598v-447h516q43 0 43 -43v-102q0 -43 -43 -43h-514l2 -521h615q43 0 43 -43v-104q0 -43 -43 -43h-791q-45 0 -45 43v356h-409l-193 -356q-9 -17 -13.5 -24t-14.5 -13t-25 -6h-143 zM551 584h315v594z" />
<glyph unicode="&#xc7;" horiz-adv-x="1280" d="M1137 291l69 -80q27 -30 0 -57q-178 -174 -450 -174q-29 0 -41 2l-23 -80q31 20 90 20q93 0 148 -59t55 -160q0 -119 -69 -185.5t-187 -66.5q-59 0 -115 29q-16 8 -6 31l31 92q8 21 31 10q22 -10 51 -10q48 0 75 26.5t27 75.5q0 47 -25.5 73.5t-68.5 26.5q-56 0 -86 -43 q-11 -14 -31 -10l-82 21q-18 4 -22.5 10.5t-1.5 19.5l59 201q-223 61 -350 260t-127 504q0 368 182 579.5t486 211.5q273 0 450 -177q27 -27 0 -57l-69 -80q-24 -27 -58 0q-74 64 -149.5 92.5t-167.5 28.5q-202 0 -328.5 -160.5t-126.5 -437.5t126.5 -437.5t328.5 -160.5 q92 0 167.5 28.5t149.5 92.5q14 12 30 12.5t28 -12.5z" />
<glyph unicode="&#xc8;" horiz-adv-x="1146" d="M641 1673l-279 213q-35 26 -4 64l54 63q29 38 63 4l258 -233q16 -17 14.5 -28t-16.5 -30l-31 -36q-8 -9 -13.5 -14t-13 -8.5t-15.5 -2t-17 7.5zM205 0q-43 0 -43 43v1450q0 43 43 43h772q43 0 43 -43v-104q0 -46 -43 -46h-598v-444h516q43 0 43 -43v-102q0 -45 -43 -45 h-516v-516h618q43 0 43 -46v-104q0 -43 -43 -43h-792z" />
<glyph unicode="&#xc9;" horiz-adv-x="1146" d="M573 1669q-9 -6 -16.5 -8t-15.5 2.5t-12.5 8.5t-14.5 14l-31 36q-15 19 -16.5 30t14.5 28l258 233q34 34 64 -4l53 -63q31 -38 -4 -64zM205 0q-43 0 -43 43v1450q0 43 43 43h772q43 0 43 -43v-104q0 -46 -43 -46h-598v-444h516q43 0 43 -43v-102q0 -45 -43 -45h-516v-516 h618q43 0 43 -46v-104q0 -43 -43 -43h-792z" />
<glyph unicode="&#xca;" horiz-adv-x="1146" d="M590 1855l-166 -178q-31 -31 -62 0l-53 54q-31 31 0 59l250 223q30 27 59 0l250 -223q31 -28 0 -59l-53 -54q-31 -31 -61 0zM205 0q-43 0 -43 43v1450q0 43 43 43h772q43 0 43 -43v-104q0 -46 -43 -46h-598v-444h516q43 0 43 -43v-102q0 -45 -43 -45h-516v-516h618 q43 0 43 -46v-104q0 -43 -43 -43h-792z" />
<glyph unicode="&#xcb;" horiz-adv-x="1146" d="M385 1665q-54 0 -91.5 37.5t-37.5 91.5t37.5 92.5t91.5 38.5t92.5 -38.5t38.5 -92.5t-38.5 -91.5t-92.5 -37.5zM786 1665q-54 0 -91.5 37.5t-37.5 91.5t37.5 92.5t91.5 38.5t93 -38.5t39 -92.5t-39 -91.5t-93 -37.5zM205 0q-43 0 -43 43v1450q0 43 43 43h772q43 0 43 -43 v-104q0 -46 -43 -46h-598v-444h516q43 0 43 -43v-102q0 -45 -43 -45h-516v-516h618q43 0 43 -46v-104q0 -43 -43 -43h-792z" />
<glyph unicode="&#xcc;" horiz-adv-x="540" d="M326 1673l-279 213q-35 26 -4 64l53 63q30 38 64 4l258 -233q16 -17 14.5 -28t-16.5 -30l-31 -36q-8 -9 -13.5 -14t-13 -8.5t-15.5 -2t-17 7.5zM205 0q-43 0 -43 43v1450q0 43 43 43h131q43 0 43 -43v-1450q0 -43 -43 -43h-131z" />
<glyph unicode="&#xcd;" horiz-adv-x="540" d="M258 1669q-9 -6 -16.5 -8t-15.5 2.5t-12.5 8.5t-14.5 14l-31 36q-15 19 -16.5 30t14.5 28l258 233q34 34 63 -4l54 -63q31 -38 -4 -64zM205 0q-43 0 -43 43v1450q0 43 43 43h131q43 0 43 -43v-1450q0 -43 -43 -43h-131z" />
<glyph unicode="&#xce;" horiz-adv-x="540" d="M274 1855l-165 -178q-31 -31 -62 0l-53 54q-31 31 0 59l250 223q29 27 59 0l250 -223q31 -28 0 -59l-53 -54q-31 -31 -62 0zM205 0q-43 0 -43 43v1450q0 43 43 43h131q43 0 43 -43v-1450q0 -43 -43 -43h-131z" />
<glyph unicode="&#xcf;" horiz-adv-x="540" d="M70 1665q-54 0 -91.5 37.5t-37.5 91.5t37.5 92.5t91.5 38.5t92.5 -38.5t38.5 -92.5t-38.5 -91.5t-92.5 -37.5zM471 1665q-54 0 -91.5 37.5t-37.5 91.5t37.5 92.5t91.5 38.5t92.5 -38.5t38.5 -92.5t-38.5 -91.5t-92.5 -37.5zM205 0q-43 0 -43 43v1450q0 43 43 43h131 q43 0 43 -43v-1450q0 -43 -43 -43h-131z" />
<glyph unicode="&#xd0;" horiz-adv-x="1404" d="M649 1536q110 0 206.5 -23.5t185.5 -79.5t152 -142t100.5 -219.5t37.5 -303.5t-37.5 -303.5t-100.5 -219.5t-152 -142t-185.5 -79.5t-206.5 -23.5h-442q-43 0 -43 43v823h-76q-24 0 -33.5 9.5t-9.5 33.5v45q0 24 9.5 33.5t33.5 9.5h76v496q0 43 43 43h442zM647 193 q81 0 148 16t128 56.5t102.5 104t66 165t24.5 233.5t-24.5 233.5t-66 165t-102.5 104t-128 56.5t-148 16h-266v-346h215q25 0 35 -10t10 -33v-45q0 -23 -10 -33t-35 -10h-215v-673h266z" />
<glyph unicode="&#xd1;" horiz-adv-x="1458" d="M860 1667q-52 0 -104 20t-95 40t-73 20q-58 0 -103 -66q-15 -21 -39 -6l-81 54q-21 12 -9 34q78 138 213 138q49 0 100 -20.5t95.5 -41t75.5 -20.5q58 0 104 65q14 20 37 6l84 -53q20 -14 8 -37q-75 -133 -213 -133zM205 0q-43 0 -43 43v1450q0 43 43 43h98q22 0 41 -25 l741 -1065v1047q0 43 43 43h125q43 0 43 -43v-1450q0 -43 -43 -43h-96q-23 0 -43 27l-741 1081v-1065q0 -43 -43 -43h-125z" />
<glyph unicode="&#xd2;" d="M811 1673l-279 213q-35 26 -4 64l54 63q29 38 63 4l258 -233q16 -17 14.5 -28t-16.5 -30l-31 -36q-8 -9 -13.5 -14t-13 -8.5t-15.5 -2t-17 7.5zM756 1559q303 0 485 -211.5t182 -579.5t-182 -579.5t-485 -211.5q-304 0 -486 211.5t-182 579.5t182 579.5t486 211.5z M756 170q199 0 323.5 159.5t124.5 438.5t-124.5 438.5t-323.5 159.5q-201 0 -325 -159.5t-124 -438.5t124 -438.5t325 -159.5z" />
<glyph unicode="&#xd3;" d="M743 1669q-9 -6 -16.5 -8t-15.5 2.5t-12.5 8.5t-14.5 14l-31 36q-15 19 -16.5 30t14.5 28l258 233q34 34 64 -4l53 -63q31 -38 -4 -64zM756 1559q303 0 485 -211.5t182 -579.5t-182 -579.5t-485 -211.5q-304 0 -486 211.5t-182 579.5t182 579.5t486 211.5zM756 170 q199 0 323.5 159.5t124.5 438.5t-124.5 438.5t-323.5 159.5q-201 0 -325 -159.5t-124 -438.5t124 -438.5t325 -159.5z" />
<glyph unicode="&#xd4;" d="M760 1855l-166 -178q-31 -31 -62 0l-53 54q-31 31 0 59l250 223q29 27 59 0l250 -223q31 -28 0 -59l-53 -54q-31 -31 -61 0zM756 1559q303 0 485 -211.5t182 -579.5t-182 -579.5t-485 -211.5q-304 0 -486 211.5t-182 579.5t182 579.5t486 211.5zM756 170 q199 0 323.5 159.5t124.5 438.5t-124.5 438.5t-323.5 159.5q-201 0 -325 -159.5t-124 -438.5t124 -438.5t325 -159.5z" />
<glyph unicode="&#xd5;" d="M903 1667q-52 0 -104 19.5t-94.5 39t-71.5 19.5q-57 0 -103 -64q-15 -21 -36 -6l-82 51q-22 12 -9 35q76 135 211 135q61 0 147.5 -39.5t121.5 -39.5q56 0 102 65q14 17 37 6l84 -53q17 -14 6 -37q-71 -131 -209 -131zM756 1559q303 0 485 -211.5t182 -579.5t-182 -579.5 t-485 -211.5q-304 0 -486 211.5t-182 579.5t182 579.5t486 211.5zM756 170q199 0 323.5 159.5t124.5 438.5t-124.5 438.5t-323.5 159.5q-201 0 -325 -159.5t-124 -438.5t124 -438.5t325 -159.5z" />
<glyph unicode="&#xd6;" d="M555 1665q-54 0 -91.5 37.5t-37.5 91.5t37.5 92.5t91.5 38.5t92.5 -38.5t38.5 -92.5t-38.5 -91.5t-92.5 -37.5zM956 1665q-54 0 -91.5 37.5t-37.5 91.5t37.5 92.5t91.5 38.5t92.5 -38.5t38.5 -92.5t-38.5 -91.5t-92.5 -37.5zM756 1559q303 0 485 -211.5t182 -579.5 t-182 -579.5t-485 -211.5q-304 0 -486 211.5t-182 579.5t182 579.5t486 211.5zM756 170q199 0 323.5 159.5t124.5 438.5t-124.5 438.5t-323.5 159.5q-201 0 -325 -159.5t-124 -438.5t124 -438.5t325 -159.5z" />
<glyph unicode="&#xd7;" horiz-adv-x="800" d="M520 766l170 -170q16 -20 16.5 -31.5t-16.5 -29.5l-59 -60q-31 -31 -62 0l-168 170l-170 -170q-26 -30 -61 0l-57 60q-18 18 -18 30t18 31l168 170l-168 170q-18 18 -18 29.5t18 29.5l57 60q35 30 61 0l170 -170l168 170q31 31 62 0l59 -60q17 -18 16.5 -29.5 t-16.5 -29.5z" />
<glyph unicode="&#xd8;" d="M1260 1325q163 -212 163 -557q0 -368 -182 -579.5t-485 -211.5q-234 0 -396 125l-41 -55q-20 -27 -33 -37t-36 -10h-107q-50 0 -20 43l125 172q-160 209 -160 553q0 368 182 579.5t486 211.5q225 0 389 -121l39 51q28 35 41 41q11 6 26 6h107q25 0 32 -11.5t-8 -33.5z M307 768q0 -214 78 -367l637 867q-110 98 -266 98q-201 0 -325 -159.5t-124 -438.5zM756 170q199 0 323.5 159.5t124.5 438.5q0 222 -82 371l-637 -867q111 -102 271 -102z" />
<glyph unicode="&#xd9;" horiz-adv-x="1439" d="M776 1673l-278 213q-35 26 -4 64l53 63q29 38 63 4l258 -233q16 -17 14.5 -28t-16.5 -30l-30 -36q-33 -37 -60 -17zM719 -23q-133 0 -238.5 38t-181.5 114.5t-117 198t-41 282.5v883q0 43 43 43h131q43 0 43 -43v-905q0 -115 27.5 -198.5t78 -130t113.5 -68t142 -21.5 t142 21.5t114 68t78.5 130t27.5 198.5v905q0 43 43 43h129q45 0 45 -43v-883q0 -317 -153.5 -475t-425.5 -158z" />
<glyph unicode="&#xda;" horiz-adv-x="1439" d="M709 1669q-9 -6 -16.5 -8t-15.5 2.5t-13 8.5t-15 14l-31 36q-15 19 -16.5 30t14.5 28l258 233q34 34 64 -4l53 -63q31 -38 -4 -64zM719 -23q-133 0 -238.5 38t-181.5 114.5t-117 198t-41 282.5v883q0 43 43 43h131q43 0 43 -43v-905q0 -115 27.5 -198.5t78 -130 t113.5 -68t142 -21.5t142 21.5t114 68t78.5 130t27.5 198.5v905q0 43 43 43h129q45 0 45 -43v-883q0 -317 -153.5 -475t-425.5 -158z" />
<glyph unicode="&#xdb;" horiz-adv-x="1439" d="M725 1855l-166 -178q-31 -31 -61 0l-54 54q-31 31 0 59l250 223q30 27 60 0l250 -223q31 -28 0 -59l-54 -54q-30 -31 -61 0zM719 -23q-133 0 -238.5 38t-181.5 114.5t-117 198t-41 282.5v883q0 43 43 43h131q43 0 43 -43v-905q0 -115 27.5 -198.5t78 -130t113.5 -68 t142 -21.5t142 21.5t114 68t78.5 130t27.5 198.5v905q0 43 43 43h129q45 0 45 -43v-883q0 -317 -153.5 -475t-425.5 -158z" />
<glyph unicode="&#xdc;" horiz-adv-x="1439" d="M520 1665q-54 0 -91.5 37.5t-37.5 91.5t37.5 92.5t91.5 38.5t92.5 -38.5t38.5 -92.5t-38.5 -91.5t-92.5 -37.5zM922 1665q-54 0 -91.5 37.5t-37.5 91.5t37.5 92.5t91.5 38.5t92.5 -38.5t38.5 -92.5t-38.5 -91.5t-92.5 -37.5zM719 -23q-133 0 -238.5 38t-181.5 114.5 t-117 198t-41 282.5v883q0 43 43 43h131q43 0 43 -43v-905q0 -115 27.5 -198.5t78 -130t113.5 -68t142 -21.5t142 21.5t114 68t78.5 130t27.5 198.5v905q0 43 43 43h129q45 0 45 -43v-883q0 -317 -153.5 -475t-425.5 -158z" />
<glyph unicode="&#xdd;" horiz-adv-x="1138" d="M557 1669q-9 -6 -16.5 -8t-15.5 2.5t-12.5 8.5t-14.5 14l-31 36q-15 19 -16.5 30t14.5 28l258 233q34 34 63 -4l54 -63q31 -38 -4 -64zM899 1505q15 31 53 31h140q44 0 20 -43l-434 -799v-651q0 -43 -43 -43h-131q-43 0 -43 43v651l-434 799q-12 22 -8 32.5t28 10.5h139 q40 0 56 -31l327 -631z" />
<glyph unicode="&#xde;" horiz-adv-x="1210" d="M639 1253q241 0 373.5 -133t132.5 -342q0 -100 -33 -188.5t-95 -158t-159.5 -110t-218.5 -40.5h-260v-238q0 -43 -43 -43h-131q-43 0 -43 43v1450q0 43 43 43h131q43 0 43 -43v-240h260zM616 469q158 0 238 87t80 220q0 134 -78.5 211.5t-239.5 77.5h-237v-596h237z" />
<glyph unicode="&#xdf;" horiz-adv-x="1153" d="M711 -4q-28 -8 -37.5 -2t-18.5 26l-39 97q-6 23 0 35.5t31 25.5q88 45 140.5 91.5t52.5 103.5q0 40 -25.5 76.5t-61.5 68t-72 66.5t-61.5 85.5t-25.5 110.5q0 49 17 94.5t41 81t48 69.5t41 74t17 81q0 80 -51 128t-136 48q-104 0 -167.5 -79.5t-63.5 -207.5v-1026 q0 -23 -10 -33t-35 -10h-123q-24 0 -33.5 9.5t-9.5 33.5v1079q0 189 121.5 305.5t320.5 116.5q179 0 288.5 -100.5t109.5 -261.5q0 -50 -17 -98.5t-41 -87t-48 -74t-41 -72.5t-17 -70q0 -41 25 -77.5t61 -67.5t72 -66.5t61 -89t25 -119.5q0 -65 -28 -123t-78 -102.5 t-106.5 -77.5t-125.5 -61z" />
<glyph unicode="&#xe0;" horiz-adv-x="1030" d="M559 1190l-278 213q-35 26 -5 63l54 64q29 38 63 4l258 -234q16 -17 14.5 -27.5t-16.5 -29.5l-31 -37q-16 -18 -27 -22.5t-32 6.5zM510 1020q198 0 296.5 -114.5t98.5 -309.5v-553q0 -23 -10 -33t-33 -10h-125q-23 0 -33 10t-10 33v49q-5 -5 -13.5 -12.5t-38 -27.5 t-61 -35t-80.5 -27.5t-98 -12.5q-139 0 -233 86.5t-94 229.5q0 147 99.5 236t270.5 89q67 0 129 -14t91 -28l28 -15v49q0 98 -51.5 159.5t-165.5 61.5q-101 0 -233 -49q-42 -14 -54 23l-28 100q-9 35 20 47q163 68 328 68zM463 139q36 0 73 12t64.5 28.5t49 33.5t32.5 29 l12 12v160q-11 6 -31 14.5t-76.5 22t-105.5 12.5q-93 0 -144.5 -44t-51.5 -116q0 -74 52 -119t126 -45z" />
<glyph unicode="&#xe1;" horiz-adv-x="1030" d="M492 1186q-9 -7 -16.5 -8.5t-15.5 2.5t-13.5 8.5t-14.5 13.5l-31 37q-15 19 -16.5 29.5t14.5 27.5l258 234q34 34 64 -4l53 -64q30 -38 -4 -63zM510 1020q198 0 296.5 -114.5t98.5 -309.5v-553q0 -23 -10 -33t-33 -10h-125q-23 0 -33 10t-10 33v49q-5 -5 -13.5 -12.5 t-38 -27.5t-61 -35t-80.5 -27.5t-98 -12.5q-139 0 -233 86.5t-94 229.5q0 147 99.5 236t270.5 89q67 0 129 -14t91 -28l28 -15v49q0 98 -51.5 159.5t-165.5 61.5q-101 0 -233 -49q-42 -14 -54 23l-28 100q-9 35 20 47q163 68 328 68zM463 139q36 0 73 12t64.5 28.5t49 33.5 t32.5 29l12 12v160q-11 6 -31 14.5t-76.5 22t-105.5 12.5q-93 0 -144.5 -44t-51.5 -116q0 -74 52 -119t126 -45z" />
<glyph unicode="&#xe2;" horiz-adv-x="1030" d="M508 1372l-166 -178q-30 -30 -61 0l-54 53q-31 31 0 60l250 223q30 27 60 0l249 -223q31 -29 0 -60l-53 -53q-31 -30 -61 0zM510 1020q198 0 296.5 -114.5t98.5 -309.5v-553q0 -23 -10 -33t-33 -10h-125q-23 0 -33 10t-10 33v49q-5 -5 -13.5 -12.5t-38 -27.5t-61 -35 t-80.5 -27.5t-98 -12.5q-139 0 -233 86.5t-94 229.5q0 147 99.5 236t270.5 89q67 0 129 -14t91 -28l28 -15v49q0 98 -51.5 159.5t-165.5 61.5q-101 0 -233 -49q-42 -14 -54 23l-28 100q-9 35 20 47q163 68 328 68zM463 139q36 0 73 12t64.5 28.5t49 33.5t32.5 29l12 12v160 q-11 6 -31 14.5t-76.5 22t-105.5 12.5q-93 0 -144.5 -44t-51.5 -116q0 -74 52 -119t126 -45z" />
<glyph unicode="&#xe3;" horiz-adv-x="1030" d="M651 1184q-52 0 -104 20t-95 40t-73 20q-58 0 -103 -66q-15 -21 -38 -6l-82 53q-22 12 -9 35q77 137 213 137q49 0 100 -20.5t95.5 -41t75.5 -20.5q57 0 104 66q14 20 37 6l84 -53q20 -14 8 -37q-75 -133 -213 -133zM510 1020q198 0 296.5 -114.5t98.5 -309.5v-553 q0 -23 -10 -33t-33 -10h-125q-23 0 -33 10t-10 33v49q-5 -5 -13.5 -12.5t-38 -27.5t-61 -35t-80.5 -27.5t-98 -12.5q-139 0 -233 86.5t-94 229.5q0 147 99.5 236t270.5 89q67 0 129 -14t91 -28l28 -15v49q0 98 -51.5 159.5t-165.5 61.5q-101 0 -233 -49q-42 -14 -54 23 l-28 100q-9 35 20 47q163 68 328 68zM463 139q36 0 73 12t64.5 28.5t49 33.5t32.5 29l12 12v160q-11 6 -31 14.5t-76.5 22t-105.5 12.5q-93 0 -144.5 -44t-51.5 -116q0 -74 52 -119t126 -45z" />
<glyph unicode="&#xe4;" horiz-adv-x="1030" d="M303 1182q-54 0 -91.5 37.5t-37.5 91.5t37.5 92.5t91.5 38.5t92.5 -38.5t38.5 -92.5t-38.5 -91.5t-92.5 -37.5zM705 1182q-54 0 -92 37.5t-38 91.5t38 92.5t92 38.5t92.5 -38.5t38.5 -92.5t-38.5 -91.5t-92.5 -37.5zM510 1020q198 0 296.5 -114.5t98.5 -309.5v-553 q0 -23 -10 -33t-33 -10h-125q-23 0 -33 10t-10 33v49q-5 -5 -13.5 -12.5t-38 -27.5t-61 -35t-80.5 -27.5t-98 -12.5q-139 0 -233 86.5t-94 229.5q0 147 99.5 236t270.5 89q67 0 129 -14t91 -28l28 -15v49q0 98 -51.5 159.5t-165.5 61.5q-101 0 -233 -49q-42 -14 -54 23 l-28 100q-9 35 20 47q163 68 328 68zM463 139q36 0 73 12t64.5 28.5t49 33.5t32.5 29l12 12v160q-11 6 -31 14.5t-76.5 22t-105.5 12.5q-93 0 -144.5 -44t-51.5 -116q0 -74 52 -119t126 -45z" />
<glyph unicode="&#xe5;" horiz-adv-x="1030" d="M502 1163q-85 0 -144 59t-59 144t59 144t144 59t144 -59t59 -144t-59 -144t-144 -59zM502 1292q29 0 50 22t21 52t-21 52t-50 22t-50.5 -22.5t-21.5 -51.5t21.5 -51.5t50.5 -22.5zM510 1020q198 0 296.5 -114.5t98.5 -309.5v-553q0 -23 -10 -33t-33 -10h-125 q-23 0 -33 10t-10 33v49q-5 -5 -13.5 -12.5t-38 -27.5t-61 -35t-80.5 -27.5t-98 -12.5q-139 0 -233 86.5t-94 229.5q0 147 99.5 236t270.5 89q67 0 129 -14t91 -28l28 -15v49q0 98 -51.5 159.5t-165.5 61.5q-101 0 -233 -49q-42 -14 -54 23l-28 100q-9 35 20 47 q163 68 328 68zM463 139q36 0 73 12t64.5 28.5t49 33.5t32.5 29l12 12v160q-11 6 -31 14.5t-76.5 22t-105.5 12.5q-93 0 -144.5 -44t-51.5 -116q0 -74 52 -119t126 -45z" />
<glyph unicode="&#xe6;" horiz-adv-x="1685" d="M412 -23q-146 0 -241 83t-95 227t98 237.5t260 93.5q72 0 137 -19t94 -37l29 -19v47q0 109 -58 175t-171 66q-98 0 -221 -49q-42 -14 -54 23l-28 100q-9 35 20 47q163 68 312 68q220 0 327 -156q128 156 344 156q213 0 331 -140t116 -380q-2 -42 -9.5 -54t-35.5 -12 l-652 -2q0 -110 76 -188t203 -78q118 0 242 82q44 27 61 -10q38 -68 53 -93q11 -21 9.5 -30.5t-15.5 -22.5q-60 -51 -151 -83t-199 -32q-264 0 -399 181q-17 -18 -36.5 -36t-58.5 -46t-79 -48.5t-96.5 -35.5t-112.5 -15zM915 590l488 2q0 105 -66.5 172t-169.5 67 q-107 0 -179.5 -72t-72.5 -169zM459 139q49 0 98.5 19t85.5 46t56.5 46.5t29.5 30.5q-20 67 -24 104q-1 1 -17.5 10t-29.5 16t-37 17.5t-45.5 17.5t-48.5 12t-52 5q-88 0 -139 -48t-51 -120q0 -73 51 -114.5t123 -41.5z" />
<glyph unicode="&#xe7;" horiz-adv-x="950" d="M840 231l49 -86q18 -32 -6 -53q-126 -110 -318 -115l-20 -75q33 20 90 20q93 0 149 -59t56 -160q0 -119 -70 -185.5t-188 -66.5q-59 0 -115 29q-16 8 -6 31l31 92q10 20 30 10q22 -10 51 -10q50 0 76.5 26.5t26.5 75.5q0 47 -25.5 73.5t-68.5 26.5q-52 0 -86 -43 q-11 -14 -31 -10l-82 21q-31 7 -25 30l58 189q-162 38 -251 170.5t-89 337.5q0 244 125 382t346 138q207 0 336 -115q24 -21 6 -53l-49 -86q-20 -33 -62 -8q-43 25 -63 35.5t-65.5 24t-90.5 13.5q-130 -1 -201 -88t-71 -243q0 -157 71 -245t201 -89q45 0 91 14t64.5 24 t63.5 36q41 25 62 -9z" />
<glyph unicode="&#xe8;" horiz-adv-x="1064" d="M596 1190l-279 213q-34 25 -4 63l54 64q29 38 63 4l258 -234q16 -17 14.5 -27.5t-16.5 -29.5l-31 -37q-16 -18 -27 -22.5t-32 6.5zM571 -23q-229 0 -362 138.5t-133 382.5q0 241 131.5 381.5t337.5 140.5q213 0 330 -140t114 -380q0 -42 -7 -54t-36 -12l-651 -2 q0 -110 75.5 -188t202.5 -78q118 0 242 82q45 27 62 -10q38 -69 53 -93q11 -21 9.5 -30.5t-15.5 -22.5q-60 -51 -151.5 -83t-201.5 -32zM295 590l487 2q0 105 -66 172t-169 67q-107 0 -179.5 -72t-72.5 -169z" />
<glyph unicode="&#xe9;" horiz-adv-x="1064" d="M528 1186q-9 -7 -16.5 -8.5t-15.5 2.5t-12.5 8t-14.5 14l-31 37q-15 19 -16.5 29.5t14.5 27.5l258 234q34 34 64 -4l53 -64q30 -38 -4 -63zM571 -23q-229 0 -362 138.5t-133 382.5q0 241 131.5 381.5t337.5 140.5q213 0 330 -140t114 -380q0 -42 -7 -54t-36 -12l-651 -2 q0 -110 75.5 -188t202.5 -78q118 0 242 82q45 27 62 -10q38 -69 53 -93q11 -21 9.5 -30.5t-15.5 -22.5q-60 -51 -151.5 -83t-201.5 -32zM295 590l487 2q0 105 -66 172t-169 67q-107 0 -179.5 -72t-72.5 -169z" />
<glyph unicode="&#xea;" horiz-adv-x="1064" d="M545 1372l-166 -178q-31 -31 -62 0l-53 53q-31 31 0 60l250 223q30 27 59 0l250 -223q31 -29 0 -60l-53 -53q-30 -30 -61 0zM571 -23q-229 0 -362 138.5t-133 382.5q0 241 131.5 381.5t337.5 140.5q213 0 330 -140t114 -380q0 -42 -7 -54t-36 -12l-651 -2 q0 -110 75.5 -188t202.5 -78q118 0 242 82q45 27 62 -10q38 -69 53 -93q11 -21 9.5 -30.5t-15.5 -22.5q-60 -51 -151.5 -83t-201.5 -32zM295 590l487 2q0 105 -66 172t-169 67q-107 0 -179.5 -72t-72.5 -169z" />
<glyph unicode="&#xeb;" horiz-adv-x="1064" d="M340 1182q-54 0 -91.5 37.5t-37.5 91.5t37.5 92.5t91.5 38.5t92.5 -38.5t38.5 -92.5t-38.5 -91.5t-92.5 -37.5zM741 1182q-54 0 -91.5 37.5t-37.5 91.5t37.5 92.5t91.5 38.5t92.5 -38.5t38.5 -92.5t-38.5 -91.5t-92.5 -37.5zM571 -23q-229 0 -362 138.5t-133 382.5 q0 241 131.5 381.5t337.5 140.5q213 0 330 -140t114 -380q0 -42 -7 -54t-36 -12l-651 -2q0 -110 75.5 -188t202.5 -78q118 0 242 82q45 27 62 -10q38 -69 53 -93q11 -21 9.5 -30.5t-15.5 -22.5q-60 -51 -151.5 -83t-201.5 -32zM295 590l487 2q0 105 -66 172t-169 67 q-107 0 -179.5 -72t-72.5 -169z" />
<glyph unicode="&#xec;" horiz-adv-x="516" d="M317 1190l-278 213q-34 25 -4 63l53 64q30 38 64 4l258 -234q16 -17 14.5 -27.5t-16.5 -29.5l-31 -37q-32 -36 -60 -16zM197 0q-25 0 -35 10t-10 33v911q0 23 10 33t35 10h122q24 0 33.5 -9.5t9.5 -33.5v-911q0 -24 -9.5 -33.5t-33.5 -9.5h-122z" />
<glyph unicode="&#xed;" horiz-adv-x="516" d="M250 1186q-9 -7 -16.5 -8.5t-15.5 2.5t-13.5 8.5t-14.5 13.5l-30 37q-15 19 -16.5 29.5t14.5 27.5l258 234q34 34 63 -4l53 -64q30 -38 -4 -63zM197 0q-25 0 -35 10t-10 33v911q0 23 10 33t35 10h122q24 0 33.5 -9.5t9.5 -33.5v-911q0 -24 -9.5 -33.5t-33.5 -9.5h-122z " />
<glyph unicode="&#xee;" horiz-adv-x="516" d="M266 1372l-166 -178q-30 -30 -61 0l-53 53q-31 31 0 60l250 223q30 27 59 0l250 -223q31 -29 0 -60l-53 -53q-31 -31 -62 0zM197 0q-25 0 -35 10t-10 33v911q0 23 10 33t35 10h122q24 0 33.5 -9.5t9.5 -33.5v-911q0 -24 -9.5 -33.5t-33.5 -9.5h-122z" />
<glyph unicode="&#xef;" horiz-adv-x="516" d="M61 1182q-54 0 -91.5 37.5t-37.5 91.5t37.5 92.5t91.5 38.5t93 -38.5t39 -92.5t-39 -91.5t-93 -37.5zM463 1182q-54 0 -91.5 37.5t-37.5 91.5t37.5 92.5t91.5 38.5t92.5 -38.5t38.5 -92.5t-38.5 -91.5t-92.5 -37.5zM197 0q-25 0 -35 10t-10 33v911q0 23 10 33t35 10h122 q24 0 33.5 -9.5t9.5 -33.5v-911q0 -24 -9.5 -33.5t-33.5 -9.5h-122z" />
<glyph unicode="&#xf0;" horiz-adv-x="1126" d="M829 1327q100 -114 155.5 -281t55.5 -376q0 -183 -35 -318t-100 -215.5t-151.5 -118.5t-196.5 -38q-221 0 -351 140.5t-130 368.5q0 216 122 349t314 133q60 0 114.5 -14t89 -33.5t60.5 -39.5t38 -34l11 -14q0 86 -38.5 179.5t-104.5 168.5l-129 -125q-19 -16 -39 4 l-51 51q-28 28 -8 45l120 119q-92 61 -194 61q-43 0 -43 45v109q0 43 43 43q188 0 342 -111l86 84q17 17 45 -10l51 -49q25 -24 6 -43zM549 166q135 0 206 117.5t68 339.5q-31 58 -106 109.5t-174 51.5q-122 0 -191 -81t-69 -216q0 -142 72.5 -231.5t193.5 -89.5z" />
<glyph unicode="&#xf1;" horiz-adv-x="1132" d="M743 1182q-50 0 -100.5 19.5t-92.5 39t-71 19.5q-55 0 -98 -64q-15 -21 -39 -6l-78 51q-22 12 -8 33q74 133 205 133q48 0 97.5 -20t91.5 -40t73 -20q55 0 100 64q14 20 37 6l80 -51q20 -14 8 -35q-73 -129 -205 -129zM178 0q-24 0 -33.5 9.5t-9.5 33.5v911 q0 24 9.5 33.5t33.5 9.5h109q25 0 35 -10t10 -33v-47q5 5 13.5 12.5t38 27t61.5 34.5t82 27t102 12q162 0 270.5 -98t108.5 -256v-623q0 -23 -10 -33t-33 -10h-125q-23 0 -33 10t-10 33v575q0 104 -64.5 162t-157.5 58q-37 0 -74 -10.5t-64 -25t-49 -29.5t-33 -25l-11 -11 v-694q0 -24 -9.5 -33.5t-33.5 -9.5h-123z" />
<glyph unicode="&#xf2;" horiz-adv-x="1095" d="M602 1190l-278 213q-35 26 -5 63l54 64q29 38 63 4l258 -234q16 -17 14.5 -27.5t-16.5 -29.5l-30 -37q-32 -36 -60 -16zM547 -23q-222 0 -346.5 138.5t-124.5 384.5q0 245 124.5 382.5t346.5 137.5q224 0 348.5 -137.5t124.5 -382.5q0 -246 -124.5 -384.5t-348.5 -138.5z M547 166q125 0 194.5 87.5t69.5 246.5q0 158 -69.5 244.5t-194.5 86.5q-123 0 -191.5 -86.5t-68.5 -244.5q0 -159 68.5 -246.5t191.5 -87.5z" />
<glyph unicode="&#xf3;" horiz-adv-x="1095" d="M535 1186q-9 -7 -16.5 -8.5t-15.5 2.5t-13.5 8.5t-14.5 13.5l-31 37q-15 19 -16.5 29.5t14.5 27.5l258 234q34 34 64 -4l53 -64q30 -38 -4 -63zM547 -23q-222 0 -346.5 138.5t-124.5 384.5q0 245 124.5 382.5t346.5 137.5q224 0 348.5 -137.5t124.5 -382.5 q0 -246 -124.5 -384.5t-348.5 -138.5zM547 166q125 0 194.5 87.5t69.5 246.5q0 158 -69.5 244.5t-194.5 86.5q-123 0 -191.5 -86.5t-68.5 -244.5q0 -159 68.5 -246.5t191.5 -87.5z" />
<glyph unicode="&#xf4;" horiz-adv-x="1095" d="M551 1372l-166 -178q-31 -30 -61 0l-54 53q-31 31 0 60l250 223q30 27 60 0l249 -223q31 -29 0 -60l-53 -53q-30 -30 -61 0zM547 -23q-222 0 -346.5 138.5t-124.5 384.5q0 245 124.5 382.5t346.5 137.5q224 0 348.5 -137.5t124.5 -382.5q0 -246 -124.5 -384.5 t-348.5 -138.5zM547 166q125 0 194.5 87.5t69.5 246.5q0 158 -69.5 244.5t-194.5 86.5q-123 0 -191.5 -86.5t-68.5 -244.5q0 -159 68.5 -246.5t191.5 -87.5z" />
<glyph unicode="&#xf5;" horiz-adv-x="1095" d="M690 1182q-50 0 -100.5 19.5t-92.5 39t-71 19.5q-55 0 -98 -64q-15 -21 -39 -6l-78 51q-22 12 -8 33q74 133 205 133q48 0 97.5 -20t91.5 -40t73 -20q55 0 100 64q14 20 37 6l80 -51q20 -14 8 -35q-73 -129 -205 -129zM547 -23q-222 0 -346.5 138.5t-124.5 384.5 q0 245 124.5 382.5t346.5 137.5q224 0 348.5 -137.5t124.5 -382.5q0 -246 -124.5 -384.5t-348.5 -138.5zM547 166q125 0 194.5 87.5t69.5 246.5q0 158 -69.5 244.5t-194.5 86.5q-123 0 -191.5 -86.5t-68.5 -244.5q0 -159 68.5 -246.5t191.5 -87.5z" />
<glyph unicode="&#xf6;" horiz-adv-x="1095" d="M346 1182q-54 0 -91.5 37.5t-37.5 91.5t37.5 92.5t91.5 38.5t92.5 -38.5t38.5 -92.5t-38.5 -91.5t-92.5 -37.5zM748 1182q-54 0 -92 37.5t-38 91.5t38 92.5t92 38.5t92.5 -38.5t38.5 -92.5t-38.5 -91.5t-92.5 -37.5zM547 -23q-222 0 -346.5 138.5t-124.5 384.5 q0 245 124.5 382.5t346.5 137.5q224 0 348.5 -137.5t124.5 -382.5q0 -246 -124.5 -384.5t-348.5 -138.5zM547 166q125 0 194.5 87.5t69.5 246.5q0 158 -69.5 244.5t-194.5 86.5q-123 0 -191.5 -86.5t-68.5 -244.5q0 -159 68.5 -246.5t191.5 -87.5z" />
<glyph unicode="&#xf7;" horiz-adv-x="925" d="M332 1159q0 54 38 92.5t93 38.5q54 0 92.5 -38.5t38.5 -92.5q0 -55 -38.5 -93t-92.5 -38q-55 0 -93 38t-38 93zM139 688q-25 0 -35 9.5t-10 33.5v82q0 23 10 33t35 10h647q23 0 33 -10t10 -33v-82q0 -24 -9.5 -33.5t-33.5 -9.5h-647zM332 383q0 56 38 94.5t93 38.5 q54 0 92.5 -39t38.5 -94t-38.5 -93t-92.5 -38q-55 0 -93 38t-38 93z" />
<glyph unicode="&#xf8;" horiz-adv-x="1095" d="M911 862q109 -133 109 -362q0 -246 -124.5 -384.5t-348.5 -138.5q-137 0 -244 58l-14 -21q-23 -33 -33 -39t-37 -6h-115q-18 0 -23.5 12t5.5 31l94 127q-104 138 -104 361q0 245 124.5 382.5t346.5 137.5q137 0 237 -53l15 18q23 32 33 38.5t38 6.5h113q18 0 24.5 -13 t-6.5 -32zM283 500q0 -105 28 -181l361 492q-60 29 -125 29q-124 0 -194 -88t-70 -252zM547 156q126 0 197 89.5t71 254.5q0 105 -33 186l-366 -498q51 -32 131 -32z" />
<glyph unicode="&#xf9;" horiz-adv-x="1112" d="M598 1190l-279 213q-34 25 -4 63l54 64q29 38 63 4l258 -234q16 -17 14.5 -27.5t-16.5 -29.5l-31 -37q-16 -18 -27 -22.5t-32 6.5zM934 997q23 0 33 -10t10 -33v-911q0 -23 -10 -33t-33 -10h-111q-23 0 -33 10t-10 33v47q-5 -5 -13.5 -12.5t-37.5 -27t-61 -34.5 t-81.5 -27t-99.5 -12q-157 0 -259.5 98.5t-102.5 256.5v622q0 24 9.5 33.5t33.5 9.5h123q24 0 33.5 -9.5t9.5 -33.5v-575q0 -98 59 -158.5t148 -60.5q56 0 112 24.5t85 49.5l28 24v696q0 23 10 33t33 10h125z" />
<glyph unicode="&#xfa;" horiz-adv-x="1112" d="M530 1186q-9 -7 -16.5 -8.5t-15.5 2.5t-12.5 8t-14.5 14l-31 37q-15 19 -16.5 29.5t14.5 27.5l258 234q34 34 64 -4l53 -64q30 -38 -4 -63zM934 997q23 0 33 -10t10 -33v-911q0 -23 -10 -33t-33 -10h-111q-23 0 -33 10t-10 33v47q-5 -5 -13.5 -12.5t-37.5 -27t-61 -34.5 t-81.5 -27t-99.5 -12q-157 0 -259.5 98.5t-102.5 256.5v622q0 24 9.5 33.5t33.5 9.5h123q24 0 33.5 -9.5t9.5 -33.5v-575q0 -98 59 -158.5t148 -60.5q56 0 112 24.5t85 49.5l28 24v696q0 23 10 33t33 10h125z" />
<glyph unicode="&#xfb;" horiz-adv-x="1112" d="M547 1372l-166 -178q-31 -31 -62 0l-53 53q-31 31 0 60l250 223q30 27 59 0l250 -223q31 -29 0 -60l-53 -53q-30 -30 -61 0zM934 997q23 0 33 -10t10 -33v-911q0 -23 -10 -33t-33 -10h-111q-23 0 -33 10t-10 33v47q-5 -5 -13.5 -12.5t-37.5 -27t-61 -34.5t-81.5 -27 t-99.5 -12q-157 0 -259.5 98.5t-102.5 256.5v622q0 24 9.5 33.5t33.5 9.5h123q24 0 33.5 -9.5t9.5 -33.5v-575q0 -98 59 -158.5t148 -60.5q56 0 112 24.5t85 49.5l28 24v696q0 23 10 33t33 10h125z" />
<glyph unicode="&#xfc;" horiz-adv-x="1112" d="M342 1182q-54 0 -91.5 37.5t-37.5 91.5t37.5 92.5t91.5 38.5t92.5 -38.5t38.5 -92.5t-38.5 -91.5t-92.5 -37.5zM743 1182q-54 0 -91.5 37.5t-37.5 91.5t37.5 92.5t91.5 38.5t92.5 -38.5t38.5 -92.5t-38.5 -91.5t-92.5 -37.5zM934 997q23 0 33 -10t10 -33v-911 q0 -23 -10 -33t-33 -10h-111q-23 0 -33 10t-10 33v47q-5 -5 -13.5 -12.5t-37.5 -27t-61 -34.5t-81.5 -27t-99.5 -12q-157 0 -259.5 98.5t-102.5 256.5v622q0 24 9.5 33.5t33.5 9.5h123q24 0 33.5 -9.5t9.5 -33.5v-575q0 -98 59 -158.5t148 -60.5q56 0 112 24.5t85 49.5 l28 24v696q0 23 10 33t33 10h125z" />
<glyph unicode="&#xfd;" horiz-adv-x="997" d="M494 1186q-9 -7 -16.5 -8.5t-15.5 2.5t-13.5 8.5t-14.5 13.5l-31 37q-15 19 -16.5 29.5t14.5 27.5l258 234q34 34 64 -4l53 -64q30 -38 -4 -63zM190 -524q-78 0 -153 35q-23 10 -28.5 23t1.5 30l37 94q11 32 45 20q56 -18 88 -18q48 0 80.5 28t56.5 87l86 239l-348 947 q-7 21 1.5 28.5t35.5 7.5h125q22 0 31 -5t16 -27l242 -693l244 693q7 22 16 27t31 5h123q11 0 17 -0.5t14 -4t7.5 -11t-2.5 -20.5l-454 -1260q-41 -110 -124.5 -167.5t-187.5 -57.5z" />
<glyph unicode="&#xfe;" horiz-adv-x="1118" d="M176 -512q-24 0 -33.5 9.5t-9.5 33.5v1962q0 24 9.5 33.5t33.5 9.5h123q25 0 35 -10t10 -33v-596q3 5 9.5 13t30 28.5t52 36t76.5 28.5t102 13q200 0 315 -137t115 -379t-115.5 -381t-318.5 -139q-50 0 -96 12t-75.5 29.5t-52 35t-32.5 29.5l-10 12v-567q0 -23 -10 -33 t-35 -10h-123zM569 168q126 0 196.5 87.5t70.5 242.5q0 156 -71 243.5t-196 87.5q-41 0 -79 -12t-63.5 -29.5t-45 -35t-28.5 -29.5l-9 -12v-428q4 -5 10.5 -12.5t28.5 -27.5t46.5 -35t62.5 -27.5t77 -12.5z" />
<glyph unicode="&#xff;" horiz-adv-x="997" d="M305 1182q-54 0 -91.5 37.5t-37.5 91.5t37.5 92.5t91.5 38.5t92.5 -38.5t38.5 -92.5t-38.5 -91.5t-92.5 -37.5zM707 1182q-54 0 -91.5 37.5t-37.5 91.5t37.5 92.5t91.5 38.5t92.5 -38.5t38.5 -92.5t-38.5 -91.5t-92.5 -37.5zM190 -524q-78 0 -153 35q-23 10 -28.5 23 t1.5 30l37 94q11 32 45 20q56 -18 88 -18q48 0 80.5 28t56.5 87l86 239l-348 947q-7 21 1.5 28.5t35.5 7.5h125q22 0 31 -5t16 -27l242 -693l244 693q7 22 16 27t31 5h123q11 0 17 -0.5t14 -4t7.5 -11t-2.5 -20.5l-454 -1260q-41 -110 -124.5 -167.5t-187.5 -57.5z" />
<glyph unicode="&#x152;" horiz-adv-x="2189" d="M2040 193q43 0 43 -46v-104q0 -43 -43 -43h-793q-43 0 -43 43v107q-176 -173 -448 -173q-304 0 -486 211.5t-182 579.5t182 579.5t486 211.5q272 0 448 -173v107q0 43 43 43h772q43 0 43 -43v-104q0 -46 -43 -46h-598v-444h516q43 0 43 -43v-102q0 -45 -43 -45h-516v-15 v-501h619zM756 170q199 0 323.5 159.5t124.5 438.5t-124.5 438.5t-323.5 159.5q-201 0 -325 -159.5t-124 -438.5t124 -438.5t325 -159.5z" />
<glyph unicode="&#x153;" horiz-adv-x="1800" d="M76 500q0 245 124.5 382.5t346.5 137.5q124 0 219 -45.5t154 -130.5q62 85 155 130.5t205 45.5q213 0 331 -140t115 -380q0 -42 -8 -54t-35 -12l-653 -2q0 -110 76.5 -188t204.5 -78q115 0 239 82q45 27 64 -10q2 -5 51 -93q11 -21 10 -30.5t-14 -22.5 q-61 -51 -152.5 -83t-199.5 -32q-257 0 -389 177q-125 -177 -373 -177q-222 0 -346.5 138.5t-124.5 384.5zM287 500q0 -159 68.5 -246.5t191.5 -87.5q125 0 194.5 87.5t69.5 246.5q0 158 -69.5 244.5t-194.5 86.5q-123 0 -191.5 -86.5t-68.5 -244.5zM1032 590l486 2 q0 105 -66 172t-168 67q-108 0 -180 -71.5t-72 -169.5z" />
<glyph unicode="&#x178;" horiz-adv-x="1138" d="M369 1665q-54 0 -91.5 37.5t-37.5 91.5t37.5 92.5t91.5 38.5t92.5 -38.5t38.5 -92.5t-38.5 -91.5t-92.5 -37.5zM770 1665q-54 0 -91.5 37.5t-37.5 91.5t37.5 92.5t91.5 38.5t92.5 -38.5t38.5 -92.5t-38.5 -91.5t-92.5 -37.5zM899 1505q15 31 53 31h140q44 0 20 -43 l-434 -799v-651q0 -43 -43 -43h-131q-43 0 -43 43v651l-434 799q-12 22 -8 32.5t28 10.5h139q40 0 56 -31l327 -631z" />
<glyph unicode="&#x2c6;" horiz-adv-x="702" d="M350 1706l-166 -178q-30 -30 -61 0l-53 53q-31 31 0 59l249 224q30 27 60 0l250 -224q31 -28 0 -59l-54 -53q-31 -30 -61 0z" />
<glyph unicode="&#x2dc;" horiz-adv-x="747" d="M510 1518q-52 0 -104 20t-95 39.5t-73 19.5q-58 0 -103 -65q-15 -21 -39 -6l-82 53q-21 12 -8 35q77 137 213 137q49 0 100 -20.5t95 -41t75 -20.5q58 0 105 66q14 20 37 6l84 -53q20 -14 8 -37q-75 -133 -213 -133z" />
<glyph unicode="&#x2000;" horiz-adv-x="1026" />
<glyph unicode="&#x2001;" horiz-adv-x="2052" />
<glyph unicode="&#x2002;" horiz-adv-x="1026" />
<glyph unicode="&#x2003;" horiz-adv-x="2052" />
<glyph unicode="&#x2004;" horiz-adv-x="684" />
<glyph unicode="&#x2005;" horiz-adv-x="513" />
<glyph unicode="&#x2006;" horiz-adv-x="342" />
<glyph unicode="&#x2007;" horiz-adv-x="342" />
<glyph unicode="&#x2008;" horiz-adv-x="256" />
<glyph unicode="&#x2009;" horiz-adv-x="410" />
<glyph unicode="&#x200a;" horiz-adv-x="114" />
<glyph unicode="&#x2010;" horiz-adv-x="718" d="M127 473q-19 0 -26 9t-7 34v96q0 24 7 33.5t26 9.5h465q19 0 26 -9.5t7 -33.5v-96q0 -25 -7 -34t-26 -9h-465z" />
<glyph unicode="&#x2011;" horiz-adv-x="718" d="M127 473q-19 0 -26 9t-7 34v96q0 24 7 33.5t26 9.5h465q19 0 26 -9.5t7 -33.5v-96q0 -25 -7 -34t-26 -9h-465z" />
<glyph unicode="&#x2012;" horiz-adv-x="718" d="M127 473q-19 0 -26 9t-7 34v96q0 24 7 33.5t26 9.5h465q19 0 26 -9.5t7 -33.5v-96q0 -25 -7 -34t-26 -9h-465z" />
<glyph unicode="&#x2013;" horiz-adv-x="1187" d="M139 471q-25 0 -35 9.5t-10 33.5v96q0 23 10 33t35 10h910q23 0 33 -10t10 -33v-96q0 -24 -9.5 -33.5t-33.5 -9.5h-910z" />
<glyph unicode="&#x2014;" horiz-adv-x="1454" d="M139 471q-25 0 -35 9.5t-10 33.5v96q0 23 10 33t35 10h1176q23 0 33 -10t10 -33v-96q0 -24 -9.5 -33.5t-33.5 -9.5h-1176z" />
<glyph unicode="&#x2018;" horiz-adv-x="411" d="M340 1151q0 -56 -35.5 -92.5t-95.5 -36.5q-58 0 -96.5 38t-38.5 116q0 80 42 174t111 178q1 1 7 7.5t8 8t7 5t9 3t8 -3.5l43 -30q17 -10 -2 -39q-84 -121 -84 -170q0 -27 25 -35q92 -38 92 -123z" />
<glyph unicode="&#x2019;" horiz-adv-x="411" d="M70 1427q0 56 35.5 92.5t95.5 36.5q58 0 96.5 -37.5t38.5 -115.5q0 -80 -42 -174t-112 -178q-2 -2 -7.5 -8t-7.5 -7.5t-7.5 -6t-8 -2.5t-8.5 3l-43 31q-17 10 2 39q84 121 84 170q0 27 -24 35q-92 38 -92 122z" />
<glyph unicode="&#x201a;" horiz-adv-x="409" d="M70 123q0 56 35.5 92.5t95.5 36.5q58 0 96.5 -38t38.5 -116q0 -80 -42 -174t-112 -178q-1 -1 -7 -7.5t-8 -8t-7 -5t-9 -3t-8 3.5l-43 30q-17 10 2 39q84 121 84 170q0 27 -24 35q-92 38 -92 123z" />
<glyph unicode="&#x201c;" horiz-adv-x="706" d="M334 1157q0 -56 -35.5 -92.5t-95.5 -36.5q-58 0 -96.5 38t-38.5 116q0 80 42 174t111 178q1 1 7 7.5t8 8t7 5t9 3t8 -3.5l43 -30q17 -10 -2 -39q-84 -121 -84 -170q0 -27 25 -35q92 -38 92 -123zM639 1157q0 -56 -35.5 -92.5t-95.5 -36.5q-58 0 -96.5 38t-38.5 116 q0 80 42 174t111 178q2 2 6 6.5t6.5 6.5t6.5 5t6.5 4t6.5 0.5t7 -2.5l43 -30q17 -10 -2 -39q-84 -121 -84 -170q0 -27 25 -35q92 -38 92 -123z" />
<glyph unicode="&#x201d;" horiz-adv-x="716" d="M70 1427q0 56 35.5 92.5t95.5 36.5q58 0 96.5 -37.5t38.5 -115.5q0 -80 -42 -174t-112 -178q-2 -2 -7.5 -8t-7.5 -7.5t-7.5 -6t-8 -2.5t-8.5 3l-43 31q-17 10 2 39q84 121 84 170q0 27 -24 35q-92 38 -92 122zM375 1427q0 56 35.5 92.5t95.5 36.5q58 0 96.5 -37.5 t38.5 -115.5q0 -80 -42 -174t-112 -178q-2 -2 -7 -7.5t-7.5 -8t-7.5 -6t-7.5 -2t-8.5 2.5l-43 31q-17 10 2 39q84 121 84 170q0 27 -25 35q-92 38 -92 122z" />
<glyph unicode="&#x201e;" horiz-adv-x="716" d="M70 98q0 56 35.5 92.5t95.5 36.5q58 0 96.5 -37.5t38.5 -115.5q0 -80 -42 -174.5t-112 -178.5q-1 -1 -7 -7.5t-8 -8t-7 -5t-9 -3t-8 3.5l-43 31q-17 10 2 39q84 121 84 170q0 26 -24 34q-92 38 -92 123zM375 98q0 56 35.5 92.5t95.5 36.5q58 0 96.5 -37.5t38.5 -115.5 q0 -80 -42 -174.5t-112 -178.5q-2 -2 -7 -7.5t-7.5 -8t-7 -5t-8.5 -2.5t-8 3l-43 31q-17 10 2 39q84 121 84 170q0 26 -25 34q-92 38 -92 123z" />
<glyph unicode="&#x2022;" horiz-adv-x="542" d="M37 748q0 97 67 164t164 67t164.5 -67t67.5 -164t-67.5 -164.5t-164.5 -67.5t-164 67.5t-67 164.5z" />
<glyph unicode="&#x2026;" horiz-adv-x="1204" d="M70 121q0 55 37.5 93t91.5 38q56 0 94.5 -38t38.5 -93t-38.5 -93t-94.5 -38q-54 0 -91.5 38t-37.5 93zM471 121q0 56 37 93.5t92 37.5q56 0 94.5 -38t38.5 -93t-38.5 -93t-94.5 -38q-55 0 -92 37.5t-37 93.5zM874 121q0 55 38 93t92 38q56 0 94.5 -38t38.5 -93t-38.5 -93 t-94.5 -38q-54 0 -92 38t-38 93z" />
<glyph unicode="&#x202f;" horiz-adv-x="410" />
<glyph unicode="&#x2039;" horiz-adv-x="608" d="M84 489q-25 25 0 50l397 385q15 12 27 7t12 -20v-161q0 -32 -22 -54l-191 -182l191 -182q22 -22 22 -51v-162q0 -15 -12 -21t-27 8z" />
<glyph unicode="&#x203a;" horiz-adv-x="608" d="M526 489l-397 -383q-15 -14 -27 -8t-12 21v162q0 28 23 51l190 182l-190 182q-23 23 -23 54v161q0 15 12 20t27 -7l397 -385q25 -25 0 -50z" />
<glyph unicode="&#x205f;" horiz-adv-x="513" />
<glyph unicode="&#x20ac;" horiz-adv-x="1363" d="M1219 291l69 -80q27 -30 0 -57q-178 -174 -450 -174q-256 0 -428.5 151.5t-221.5 425.5h-147q-23 0 -33 10t-10 35v70q0 23 10 33t33 10h131q-2 18 -2 53q0 46 2 66h-131q-23 0 -33 10t-10 33v69q0 25 10 35t33 10h149q52 269 223.5 418.5t424.5 149.5q273 0 450 -177 q27 -27 0 -57l-69 -80q-24 -27 -58 0q-74 64 -149.5 92.5t-167.5 28.5q-157 0 -270.5 -98.5t-157.5 -276.5h375q24 0 33.5 -10t9.5 -35v-69q0 -24 -9.5 -33.5t-33.5 -9.5h-400q-2 -20 -2 -66q0 -37 2 -53h400q24 0 33.5 -9.5t9.5 -33.5v-70q0 -25 -9.5 -35t-33.5 -10h-379 q44 -185 158 -286t274 -101q92 0 167.5 28.5t149.5 92.5q14 12 30 12.5t28 -12.5z" />
<glyph unicode="&#x2122;" horiz-adv-x="1300" d="M94 1518q0 18 21 18h370q19 0 19 -18v-82q0 -19 -19 -19h-125v-440q0 -23 -20 -23h-80q-22 0 -22 23v440h-123q-21 0 -21 19v82zM868 954q-14 0 -20 15l-133 319l-27 -311q0 -3 -1 -7t-6.5 -10t-14.5 -6h-78q-22 0 -19 21l49 543q0 2 1 5.5t6 8t12 4.5h65q14 0 21 -14 l166 -398l166 398q3 14 18 14h66q18 0 18 -18l49 -541q0 -23 -18 -23h-78q-9 0 -14.5 5.5t-7 10.5t-1.5 7l-28 311l-131 -319q-6 -15 -21 -15h-39z" />
<glyph unicode="&#x25fc;" horiz-adv-x="993" d="M0 993h993v-993h-993v993z" />
<glyph unicode="&#xfb01;" horiz-adv-x="1169" d="M256 0q-23 0 -33 10t-10 33v782h-115q-23 0 -33 10t-10 33v86q0 23 10 33t33 10h115v148q0 195 118 314.5t310 119.5q225 0 356 -152q25 -26 28.5 -41.5t-15.5 -37.5l-64 -64q-33 -33 -59 0q-95 107 -223 107q-108 0 -174 -69.5t-66 -184.5v-140h577q23 0 33 -10t10 -33 v-911q0 -23 -10 -33t-33 -10h-124q-23 0 -33 10t-10 33v782h-410v-782q0 -23 -10 -33t-33 -10h-125z" />
<glyph unicode="&#xfb02;" horiz-adv-x="1347" d="M256 0q-23 0 -33 10t-10 33v782h-115q-23 0 -33 10t-10 33v86q0 23 10 33t33 10h115v148q0 195 118 314.5t310 119.5q162 0 281 -84l63 45q22 13 40.5 2.5t18.5 -35.5v-1134q0 -85 50 -135t139 -50h12q24 0 33.5 -9.5t9.5 -33.5v-102q0 -23 -10 -33t-33 -10h-41 q-175 0 -272.5 98t-97.5 273v454h-410v-782q0 -23 -10 -33t-33 -10h-125zM424 997h410v340q-70 54 -166 54q-110 0 -177 -70t-67 -184v-140z" />
<glyph unicode="&#xfb03;" horiz-adv-x="1777" d="M55 868v86q0 23 10 33t33 10h101v119q0 178 109 287.5t284 109.5q43 0 84.5 -8t71.5 -20t57 -27t43 -27t28 -22t13 -10q5 7 14.5 19.5t43.5 43.5t74 54.5t106 43t139 19.5q206 0 342 -152q25 -26 28 -41.5t-16 -37.5l-66 -64q-30 -33 -59 0q-90 107 -217 107 q-107 0 -176.5 -70t-69.5 -184v-140h578q24 0 33.5 -9.5t9.5 -33.5v-911q0 -24 -9.5 -33.5t-33.5 -9.5h-123q-24 0 -33.5 9.5t-9.5 33.5v782h-412v-782q0 -24 -9.5 -33.5t-33.5 -9.5h-123q-24 0 -33.5 9.5t-9.5 33.5v782h-413v-782q0 -23 -10 -33t-33 -10h-125q-23 0 -33 10 t-10 33v782h-101q-23 0 -33 10t-10 33zM410 997h413v201q-3 5 -9 13.5t-26 30.5t-43 39t-59.5 30.5t-75.5 13.5q-91 0 -145.5 -57.5t-54.5 -151.5v-119z" />
<glyph unicode="&#xfb04;" horiz-adv-x="1955" d="M55 868v86q0 23 10 33t33 10h101v119q0 178 109 287.5t284 109.5q43 0 84.5 -8t71.5 -20t57 -27t43 -27t28 -22t13 -10q5 7 14.5 19.5t44 43.5t74.5 54.5t106 43t138 19.5q151 0 266 -84l63 45q20 13 39 2.5t19 -35.5v-1134q0 -85 50.5 -135t139.5 -50h10q24 0 33.5 -9.5 t9.5 -33.5v-102q0 -24 -9.5 -33.5t-33.5 -9.5h-38q-176 0 -273.5 98t-97.5 273v454h-412v-782q0 -24 -9.5 -33.5t-33.5 -9.5h-123q-24 0 -33.5 9.5t-9.5 33.5v782h-413v-782q0 -23 -10 -33t-33 -10h-125q-23 0 -33 10t-10 33v782h-101q-23 0 -33 10t-10 33zM1032 997h412 v338q-70 56 -164 56q-107 0 -177.5 -70.5t-70.5 -183.5v-140zM410 997h411v201q-3 5 -8.5 13.5t-25.5 30.5t-42.5 39t-59 30.5t-75.5 13.5q-91 0 -145.5 -57.5t-54.5 -151.5v-119z" />
</font>
</defs>
</svg>
