<?xml version="1.0" standalone="no"?>
<!DOCTYPE svg PUBLIC "-//W3C//DTD SVG 1.1//EN" "http://www.w3.org/Graphics/SVG/1.1/DTD/svg11.dtd" >
<svg xmlns="http://www.w3.org/2000/svg">
<metadata></metadata>
<defs>
<font id="merlo_neuebold" horiz-adv-x="1603" >
<font-face units-per-em="2048" ascent="1536" descent="-512" />
<missing-glyph horiz-adv-x="442" />
<glyph horiz-adv-x="0" />
<glyph horiz-adv-x="682" />
<glyph unicode=" "  horiz-adv-x="442" />
<glyph unicode="&#x09;" horiz-adv-x="442" />
<glyph unicode="&#xa0;" horiz-adv-x="442" />
<glyph unicode="!" horiz-adv-x="524" d="M174 502q-57 0 -57 53l-43 926q-3 55 51 55h274q54 0 54 -55l-43 -926q-3 -53 -58 -53h-178zM72 176q0 84 55.5 141.5t136.5 57.5q83 0 140 -58t57 -141q0 -82 -57 -137t-140 -55q-82 0 -137 55t-55 137z" />
<glyph unicode="&#x22;" horiz-adv-x="761" d="M295 1536q56 0 47 -61l-61 -388q-6 -33 -31 -51.5t-53.5 -18.5t-53 18.5t-28.5 51.5l-62 388q-9 61 45 61h197zM674 1536q53 0 47 -61l-62 -388q-5 -33 -29.5 -51.5t-53 -18.5t-53 18.5t-29.5 51.5l-64 388q-6 61 47 61h197z" />
<glyph unicode="#" horiz-adv-x="1599" d="M856 356h-190l-37 -297q-6 -59 -64 -59h-188q-60 0 -51 55l36 301h-247q-54 0 -54 56v186q0 55 54 55h284l25 205h-254q-53 0 -53 55v187q0 55 53 55h291l26 219q9 60 64 60h188q29 0 43 -15t9 -41l-29 -223h190l29 219q6 60 63 60h191q28 0 41 -15t8 -41l-27 -223h228 q53 0 53 -55v-187q0 -55 -53 -55h-264l-27 -205h236q53 0 53 -55v-186q0 -56 -53 -56h-271l-35 -297q-9 -59 -63 -59h-191q-57 0 -51 55zM700 653h193l25 205h-191z" />
<glyph unicode="$" horiz-adv-x="1214" d="M1165 459q0 -166 -89.5 -283.5t-246.5 -167.5v-141q0 -53 -53 -53h-284q-56 0 -56 53v121q-123 23 -221.5 69.5t-148.5 85.5q-25 20 -3 56l119 198q21 37 60 9q153 -111 311 -111q90 0 138 35t48 92q0 35 -22 66t-59 55t-85 47.5t-100.5 48.5t-105.5 53.5t-101 66.5 t-85 83.5t-59 109t-22 138.5q0 159 90 273.5t246 164.5v127q0 55 56 55h284q53 0 53 -55v-107q105 -21 179 -58.5t102 -62.5q23 -20 6 -53l-112 -203q-14 -29 -50 -10q-154 80 -260 80q-74 0 -121 -33.5t-47 -83.5q0 -29 22 -54.5t59 -46.5t85 -42t101 -45.5t105.5 -53 t100.5 -69t85 -88.5t59 -116.5t22 -149.5z" />
<glyph unicode="%" horiz-adv-x="1380" d="M317 1022q-113 0 -191.5 79t-78.5 191q0 113 79 193t191 80q113 0 192 -80t79 -193t-78.5 -191.5t-192.5 -78.5zM205 0q-29 0 -45 15t-6 40l673 1422q15 33 27.5 46t36.5 13h278q33 0 49 -16t3 -43l-674 -1418q-9 -19 -13 -26.5t-11.5 -17t-16.5 -12.5t-23 -3h-278z M317 1214q32 0 54 23.5t22 54.5q0 32 -22 55t-54 23q-31 0 -53 -23t-22 -55q0 -31 22.5 -54.5t52.5 -23.5zM1143 8q-101 -25 -191 29.5t-116 155.5q-25 102 28 192t154 115q102 26 191.5 -28.5t115.5 -156.5q26 -101 -26.5 -191t-155.5 -116zM1098 184q29 6 44 32t7 54 q-8 30 -32.5 45.5t-53.5 8.5q-28 -6 -43 -32.5t-8 -55.5q8 -28 33.5 -43.5t52.5 -8.5z" />
<glyph unicode="&#x26;" horiz-adv-x="1398" d="M635 -27q-112 0 -214 29t-182.5 83.5t-128 141.5t-47.5 195q0 131 62 232t147 161q-75 54 -128.5 142.5t-53.5 201.5q0 121 69.5 215t183 142.5t249.5 48.5q139 0 249 -51t169 -130q31 -46 2 -77l-125 -131q-37 -40 -68 -9q-90 86 -174 86q-70 0 -115 -38.5t-45 -102.5 q0 -69 45 -119t117 -57q25 -2 39 -13t14 -40v-160q0 -30 -13.5 -41.5t-39.5 -13.5q-80 -3 -134 -59t-54 -142q0 -84 58 -134t147 -50q90 0 148.5 51.5t59.5 132.5l5 278q0 56 55 56h391q55 0 55 -56v-178q0 -55 -55 -55h-119v-72q0 -93 -38.5 -177t-108.5 -149t-179.5 -103 t-242.5 -38z" />
<glyph unicode="'" horiz-adv-x="395" d="M115 1087l-62 388q-9 61 45 61h197q56 0 47 -61l-61 -388q-6 -33 -31 -51.5t-53.5 -18.5t-53 18.5t-28.5 51.5z" />
<glyph unicode="(" horiz-adv-x="753" d="M481 289q0 -31 2.5 -53.5t12 -50t27 -45.5t49.5 -31.5t77 -16.5q53 -3 53 -53v-207q0 -55 -53 -55q-278 1 -415.5 123.5t-137.5 353.5v917q0 229 137 351.5t416 126.5q53 0 53 -56v-207q0 -50 -53 -53q-81 -6 -124.5 -61.5t-43.5 -149.5v-833z" />
<glyph unicode=")" horiz-adv-x="753" d="M104 -223q-53 0 -53 55v207q0 50 53 53q45 3 77 16.5t49.5 31.5t27 45.5t12 50t2.5 53.5v833q0 94 -43.5 149.5t-124.5 61.5q-53 3 -53 53v207q0 56 53 56q279 -4 416 -126.5t137 -351.5v-917q0 -231 -137.5 -353.5t-415.5 -123.5z" />
<glyph unicode="*" horiz-adv-x="839" d="M805 1483q19 -55 -37 -74l-117 -37l72 -100q15 -22 12 -43.5t-24 -36.5l-133 -98q-46 -32 -80 14l-72 98l-72 -98q-38 -47 -82 -14l-133 96q-48 36 -12 82l72 100l-117 39q-26 8 -36 27t-1 45l51 155q18 56 72 37l117 -37v123q0 58 59 58h164q57 0 57 -58v-123l115 37 q55 18 74 -37z" />
<glyph unicode="+" horiz-adv-x="1038" d="M924 893q53 0 53 -55v-160q0 -55 -53 -55h-265v-275q0 -55 -55 -55h-168q-55 0 -55 55v275h-266q-54 0 -54 55v160q0 55 54 55h266v276q0 54 55 54h168q55 0 55 -54v-276h265z" />
<glyph unicode="," horiz-adv-x="520" d="M59 174q0 87 54 144t141 57q82 0 139.5 -57t57.5 -160q0 -116 -68.5 -261t-153.5 -241q-29 -33 -51 -18l-76 55q-27 19 -4 53q1 1 37 53.5t56 92.5t20 67q0 32 -37 47q-115 46 -115 168z" />
<glyph unicode="-" horiz-adv-x="806" d="M113 420q-52 0 -52 55v164q0 55 52 55h583q49 0 49 -55v-164q0 -55 -49 -55h-583z" />
<glyph unicode="." horiz-adv-x="507" d="M59 176q0 83 55.5 141t137.5 58q83 0 141 -58t58 -141q0 -81 -57.5 -136.5t-141.5 -55.5q-82 0 -137.5 55t-55.5 137z" />
<glyph unicode="/" horiz-adv-x="655" d="M100 0q-55 0 -49 55l174 1422q9 59 64 59h278q59 0 49 -59l-174 -1418q-6 -59 -63 -59h-279z" />
<glyph unicode="0" horiz-adv-x="1316" d="M657 -27q-285 0 -439.5 207t-154.5 588q0 382 154 588.5t440 206.5q287 0 441.5 -206t154.5 -589q0 -382 -154.5 -588.5t-441.5 -206.5zM657 289q68 0 110 41t65.5 147.5t23.5 288.5q0 187 -23.5 296.5t-65.5 152t-110 42.5q-67 0 -108 -42.5t-64.5 -152t-23.5 -296.5 q0 -182 23.5 -288.5t64.5 -147.5t108 -41z" />
<glyph unicode="1" horiz-adv-x="868" d="M414 0q-56 0 -56 55v1045l-125 -121q-32 -32 -67 0l-141 139q-41 35 0 72l327 321q25 25 62 25h286q54 0 54 -55v-1426q0 -55 -54 -55h-286z" />
<glyph unicode="2" horiz-adv-x="1083" d="M119 0q-56 0 -56 55v260q0 89 30.5 169.5t79.5 140.5t108 114t117.5 99.5t107.5 88t79.5 89.5t30.5 94q0 57 -38 94t-101 37q-52 0 -96 -26t-94 -76q-35 -35 -68 6l-123 145q-30 37 6 76q180 197 453 197q210 0 333.5 -111.5t123.5 -298.5q0 -86 -30.5 -161.5t-79 -131.5 t-107.5 -106.5t-117.5 -96t-107 -90t-79 -98.5t-30.5 -113v-41h504q55 0 55 -53v-207q0 -55 -55 -55h-846z" />
<glyph unicode="3" horiz-adv-x="1114" d="M520 -27q-159 0 -280.5 55.5t-190.5 131.5q-35 43 0 78l137 137q36 36 74 2q54 -47 100 -70.5t103 -23.5q88 0 139 49t51 135q0 89 -53 143.5t-133 57.5q-26 2 -39.5 13.5t-13.5 41.5v160q0 29 14 40t39 13q71 7 115.5 56.5t44.5 115.5q0 65 -43 105t-111 40 q-92 0 -178 -86q-19 -17 -34 -14.5t-34 23.5l-125 131q-29 31 2 77q59 78 173 129.5t253 51.5q136 0 248 -48.5t179 -140t67 -209.5q0 -110 -54.5 -204.5t-127.5 -147.5q82 -58 145.5 -166t63.5 -237q0 -196 -148.5 -317.5t-382.5 -121.5z" />
<glyph unicode="4" horiz-adv-x="1241" d="M719 0q-55 0 -55 55v267h-609q-55 0 -55 55v158q0 53 29 92l610 868q27 41 76 41h291q55 0 55 -55v-856h88q55 0 55 -56v-192q0 -55 -55 -55h-88v-267q0 -55 -55 -55h-287zM408 625h256v401z" />
<glyph unicode="5" horiz-adv-x="1165" d="M614 1014q219 0 351.5 -135.5t132.5 -370.5q0 -239 -157.5 -387t-414.5 -148q-78 0 -147 13.5t-112.5 30.5t-87 46t-62 45.5t-45.5 43.5q-36 36 0 71l157 160q32 32 64 0q45 -50 100 -72t105 -22q92 0 148 61t56 164t-64 164t-169 61h-276q-56 0 -56 56v686q0 55 56 55 h763q56 0 56 -55v-207q0 -53 -56 -53h-419v-207h77z" />
<glyph unicode="6" horiz-adv-x="1243" d="M664 -27q-284 0 -439 182.5t-164 526.5q-9 265 64.5 464t222.5 308t354 109q149 0 263 -53.5t188 -127.5q27 -27 0 -57l-147 -168q-22 -25 -58 0q-131 90 -237 90q-120 0 -186 -102t-66 -260q3 4 9 11t29 24.5t50 31t73.5 24.5t98.5 11q204 0 342.5 -136t138.5 -351 q0 -232 -152.5 -379.5t-383.5 -147.5zM649 276q79 0 126.5 58t47.5 151q0 90 -48.5 144.5t-127.5 54.5q-45 0 -84.5 -21.5t-58 -42.5t-41.5 -53q-2 -136 47 -213.5t139 -77.5z" />
<glyph unicode="7" horiz-adv-x="1013" d="M598 1206h-510q-53 0 -53 56v219q0 55 53 55h858q53 0 53 -55v-185q0 -50 -10 -75l-483 -1166q-24 -55 -64 -55h-280q-29 0 -41 14t-2 41z" />
<glyph unicode="8" horiz-adv-x="1214" d="M608 -27q-249 0 -400 124.5t-151 328.5q0 128 64 237t168 156q-82 48 -131 134.5t-49 187.5q0 186 135 304t364 118q228 0 363 -118t135 -304q0 -101 -49 -187.5t-131 -134.5q104 -47 167.5 -156t63.5 -237q0 -204 -151 -328.5t-398 -124.5zM608 971q63 0 104.5 40 t41.5 107q0 70 -41 110t-105 40q-65 0 -106 -40t-41 -110q0 -68 41.5 -107.5t105.5 -39.5zM608 283q82 0 132.5 49.5t50.5 132.5q0 82 -50.5 132t-132.5 50q-83 0 -133.5 -50t-50.5 -132q0 -83 50.5 -132.5t133.5 -49.5z" />
<glyph unicode="9" horiz-adv-x="1243" d="M537 -27q-151 0 -265 53.5t-188 129.5q-12 11 -12.5 26.5t12.5 30.5l147 168q22 25 58 0q137 -94 250 -90q79 3 135 51.5t83 127.5t27 181q-3 -4 -9 -11t-29 -24t-50 -30t-73.5 -24t-98.5 -11q-204 0 -342.5 136t-138.5 351q0 231 153.5 378t385.5 147 q283 0 437.5 -181.5t164.5 -527.5q8 -266 -65 -464t-222.5 -307.5t-359.5 -109.5zM596 852q106 0 184 119q3 136 -46.5 213.5t-139.5 77.5q-79 0 -126.5 -58t-47.5 -151q0 -90 49 -145.5t127 -55.5z" />
<glyph unicode=":" horiz-adv-x="507" d="M59 854q0 83 55.5 141t137.5 58q83 0 141 -58t58 -141q0 -81 -57.5 -136.5t-141.5 -55.5q-82 0 -137.5 55t-55.5 137zM59 178q0 82 56 139.5t137 57.5q83 0 141 -57.5t58 -139.5q0 -81 -57.5 -136.5t-141.5 -55.5q-82 0 -137.5 55t-55.5 137z" />
<glyph unicode=";" horiz-adv-x="512" d="M59 854q0 83 55.5 141t137.5 58q83 0 141 -58t58 -141q0 -81 -57.5 -136.5t-141.5 -55.5q-82 0 -137.5 55t-55.5 137zM59 174q0 87 54 144t141 57q82 0 139.5 -57t57.5 -160q0 -116 -68.5 -261t-153.5 -241q-29 -33 -51 -18l-76 55q-27 19 -4 53q1 1 37 53.5t56 92.5 t20 67q0 32 -37 47q-115 46 -115 168z" />
<glyph unicode="&#x3c;" horiz-adv-x="610" d="M78 735q-36 36 0 74l420 395q22 17 36.5 9.5t14.5 -23.5v-219q0 -46 -35 -74l-135 -123l135 -127q35 -35 35 -76v-219q0 -16 -14 -23t-37 11z" />
<glyph unicode="=" horiz-adv-x="1038" d="M115 850q-54 0 -54 55v160q0 55 54 55h809q53 0 53 -55v-160q0 -55 -53 -55h-809zM115 397q-54 0 -54 56v159q0 56 54 56h809q53 0 53 -56v-159q0 -56 -53 -56h-809z" />
<glyph unicode="&#x3e;" horiz-adv-x="610" d="M530 735l-419 -395q-23 -18 -37.5 -11t-14.5 23v219q0 41 35 76l135 127l-135 123q-35 28 -35 74v219q0 16 15 23.5t37 -9.5l419 -395q36 -38 0 -74z" />
<glyph unicode="?" horiz-adv-x="929" d="M334 502q-29 0 -41 14t-12 47q0 86 25.5 156t62.5 117t73.5 88.5t62 90.5t25.5 103q0 68 -39.5 107t-103.5 39q-91 0 -188 -97q-33 -33 -68 7l-123 143q-16 24 -14 39t18 37q68 82 184.5 138t268.5 56q209 0 335 -106.5t126 -292.5q0 -63 -15 -113.5t-40 -86.5 t-55.5 -68.5t-63.5 -67t-62.5 -73t-53 -96.5t-34.5 -128q-5 -26 -16.5 -39.5t-38.5 -13.5h-213zM434 -16q-82 0 -137 55t-55 137q0 84 55.5 141.5t136.5 57.5q83 0 140 -58t57 -141q0 -82 -57 -137t-140 -55z" />
<glyph unicode="@" horiz-adv-x="2396" d="M1196 1561q231 0 436.5 -80.5t354.5 -220.5t236 -339.5t87 -426.5q0 -175 -45 -316.5t-122.5 -233t-181 -140t-222.5 -48.5q-90 0 -169 24.5t-140.5 71t-97.5 119.5t-36 164v21q-3 -5 -8 -13t-25 -28.5t-44 -36t-65 -28.5t-87 -13q-179 0 -284 132.5t-105 358.5 q0 227 106.5 360.5t286.5 133.5q48 0 88.5 -11t64.5 -27t41.5 -31.5t24.5 -26.5l6 -11v33q0 49 47 49h240q49 0 49 -49v-772q0 -51 35 -84t90 -33q57 0 99 39t64 104t32 133.5t10 141.5q0 234 -97 412.5t-270.5 274.5t-398.5 96q-169 0 -311.5 -56.5t-241.5 -156.5 t-154 -242.5t-55 -310.5q0 -167 57.5 -311t157.5 -246t241.5 -160t305.5 -58h2q24 0 33.5 -9.5t9.5 -33.5l2 -221q-2 -25 -11 -34t-34 -9h-2q-256 0 -466 80.5t-351 224.5t-218 343t-77 434q0 232 85 431.5t233 338.5t353.5 218t440.5 79zM1174 295q32 0 62.5 13.5 t45.5 27.5l14 14v357q-6 6 -16 15t-43.5 24.5t-69.5 15.5q-71 0 -113 -61.5t-42 -172.5q0 -110 42.5 -171.5t119.5 -61.5z" />
<glyph unicode="A" horiz-adv-x="1384" d="M49 0q-57 0 -39 55l482 1426q18 55 71 55h260q54 0 72 -55l479 -1426q18 -55 -37 -55h-297q-52 0 -67 55l-78 267h-406l-75 -267q-15 -55 -68 -55h-297zM575 637h236l-119 391z" />
<glyph unicode="B" horiz-adv-x="1333" d="M168 0q-53 0 -53 55v1426q0 55 53 55h588q232 0 348.5 -103.5t116.5 -295.5q0 -97 -33.5 -182.5t-95.5 -133.5q176 -111 176 -360q0 -215 -127 -338t-367 -123h-606zM526 950h158q67 0 102 38.5t35 92.5q0 56 -34.5 93.5t-102.5 37.5h-158v-262zM526 324h164q86 0 128 42 t42 117q0 74 -42.5 117t-127.5 43h-164v-319z" />
<glyph unicode="C" horiz-adv-x="1353" d="M803 -25q-166 0 -303 54.5t-233.5 155t-150 250.5t-53.5 335t53.5 334.5t150 250t233.5 154.5t303 54q302 0 489 -183q25 -29 0 -57l-147 -170q-22 -25 -58 0q-121 88 -247 88q-164 0 -257.5 -123.5t-93.5 -347.5q0 -225 93.5 -348t257.5 -123q129 0 247 86q36 25 58 0 l147 -168q25 -32 0 -57q-185 -185 -489 -185z" />
<glyph unicode="D" horiz-adv-x="1515" d="M168 0q-53 0 -53 55v1426q0 55 53 55h567q168 0 298.5 -45.5t224.5 -138.5t143 -240t49 -344t-49 -344t-143 -240t-224.5 -138.5t-298.5 -45.5h-567zM524 324h197q332 0 332 444t-332 444h-197v-888z" />
<glyph unicode="E" horiz-adv-x="1198" d="M168 0q-53 0 -53 55v1426q0 55 53 55h874q54 0 54 -55v-213q0 -56 -54 -56h-518v-262h437q53 0 53 -53v-207q0 -55 -53 -55h-437v-311h539q53 0 53 -56v-213q0 -55 -53 -55h-895z" />
<glyph unicode="F" horiz-adv-x="1120" d="M168 0q-53 0 -53 55v1426q0 55 53 55h840q55 0 55 -55v-213q0 -56 -55 -56h-484v-303h396q53 0 53 -53v-207q0 -55 -53 -55h-396l2 -539q0 -55 -55 -55h-303z" />
<glyph unicode="G" horiz-adv-x="1472" d="M803 -27q-337 0 -538.5 212.5t-201.5 584.5q0 185 53.5 334.5t150 250t233.5 154.5t303 54q317 0 504 -183q25 -29 0 -57l-148 -170q-22 -25 -57 0q-121 88 -262 88q-164 0 -257.5 -124t-93.5 -349q0 -223 93 -348t260 -125q98 0 163.5 37.5t65.5 73.5v141h-221 q-55 0 -55 55v207q0 53 55 53h481q55 0 55 -53l5 -510q0 -51 -41.5 -107t-114.5 -105.5t-187.5 -81.5t-244.5 -32z" />
<glyph unicode="H" horiz-adv-x="1556" d="M168 0q-53 0 -53 55v1426q0 55 53 55h301q55 0 55 -55v-533h508v533q0 55 55 55h302q53 0 53 -55v-1426q0 -55 -53 -55h-302q-55 0 -55 55v570h-508v-570q0 -55 -55 -55h-301z" />
<glyph unicode="I" horiz-adv-x="638" d="M168 0q-53 0 -53 55v1426q0 55 53 55h301q55 0 55 -55v-1426q0 -55 -55 -55h-301z" />
<glyph unicode="J" horiz-adv-x="1134" d="M469 -27q-137 0 -252 45t-182 121q-12 13 -12 30.5t12 29.5l184 184q26 26 55 0q50 -44 89.5 -66t91.5 -22q72 0 117.5 46.5t45.5 127.5v1012q0 55 56 55h301q55 0 55 -55v-996q0 -232 -152 -372t-409 -140z" />
<glyph unicode="K" horiz-adv-x="1472" d="M168 0q-53 0 -53 55v1426q0 55 53 55h303q55 0 55 -55v-512l398 536q24 31 57 31h379q27 0 35 -15t-9 -38l-483 -637l520 -780q19 -29 12.5 -47.5t-34.5 -18.5h-379q-40 0 -59 31l-328 481l-109 -135v-322q0 -55 -55 -55h-303z" />
<glyph unicode="L" horiz-adv-x="1114" d="M168 0q-53 0 -53 55v1426q0 55 53 55h301q55 0 55 -55v-1157h492q55 0 55 -56v-213q0 -55 -55 -55h-848z" />
<glyph unicode="M" horiz-adv-x="1953" d="M121 0q-61 0 -55 55l161 1426q3 55 54 55h317q39 0 53 -39l326 -899l326 899q14 39 53 39h317q50 0 56 -55l159 -1426q6 -55 -55 -55h-287q-49 0 -55 55l-70 779l-268 -791q-15 -43 -59 -43h-234q-44 0 -59 43l-269 791l-69 -779q-3 -55 -55 -55h-287z" />
<glyph unicode="N" horiz-adv-x="1550" d="M168 0q-53 0 -53 55v1426q0 55 53 55h250q33 0 55 -31l567 -772v748q0 55 56 55h286q56 0 56 -55v-1426q0 -55 -56 -55h-249q-33 0 -64 39l-559 772v-756q0 -55 -55 -55h-287z" />
<glyph unicode="O" d="M803 1563q335 0 536 -212t201 -583t-201 -583t-536 -212q-166 0 -303 54.5t-233.5 155t-150 250.5t-53.5 335t53.5 335t150 250.5t233.5 155t303 54.5zM803 295q144 0 227.5 122t83.5 351t-83.5 351t-227.5 122q-146 0 -230 -122t-84 -351t84 -351t230 -122z" />
<glyph unicode="P" horiz-adv-x="1345" d="M168 0q-53 0 -53 55v1424q0 55 53 55h561q265 0 420.5 -143t155.5 -367q0 -226 -155.5 -368t-420.5 -142h-203v-459q0 -55 -55 -55h-303zM526 836h168q103 0 153 49.5t50 138.5q0 88 -50 137t-153 49h-168v-374z" />
<glyph unicode="Q" d="M1198 68l229 -381q14 -28 4 -42t-32 -14h-279q-52 0 -78 45l-176 299q-20 -2 -63 -2q-349 0 -544.5 210t-195.5 585t195.5 585t544.5 210q347 0 542 -210t195 -585q0 -249 -88 -427t-254 -273zM489 768q0 -231 82 -352t232 -121q149 0 230 121t81 352t-81 352t-230 121 q-150 0 -232 -121t-82 -352z" />
<glyph unicode="R" horiz-adv-x="1404" d="M168 0q-53 0 -53 55v1426q0 53 53 53h559q267 0 422.5 -133.5t155.5 -356.5q0 -146 -65 -245.5t-179 -145.5l287 -606q11 -24 -0.5 -38.5t-32.5 -14.5h-344q-47 0 -64 39l-243 542h-138v-520q0 -55 -55 -55h-303zM526 879h191q92 0 136 44t44 121t-44.5 122.5 t-135.5 45.5h-191v-333z" />
<glyph unicode="S" horiz-adv-x="1214" d="M594 -27q-94 0 -185.5 19.5t-160 50t-111 54.5t-71.5 46q-25 20 -3 56l119 198q21 37 60 9q153 -111 311 -111q90 0 138 35t48 92q0 35 -22 66t-59 55t-85 47.5t-100.5 48.5t-105.5 53.5t-101 66.5t-85 83.5t-59 109t-22 138.5q0 214 158.5 343.5t409.5 129.5 q90 0 173 -17t137.5 -42.5t85.5 -44t46 -32.5q23 -20 6 -53l-112 -203q-14 -29 -50 -10q-154 80 -260 80q-74 0 -121 -33.5t-47 -83.5q0 -29 22 -54.5t59 -46.5t85 -42t101 -45.5t105.5 -53t100.5 -69t85 -88.5t59 -116.5t22 -149.5q0 -224 -157.5 -355t-413.5 -131z" />
<glyph unicode="T" horiz-adv-x="1222" d="M459 0q-56 0 -56 55v1162h-346q-55 0 -55 53v211q0 55 55 55h1108q56 0 56 -55v-211q0 -53 -56 -53h-350v-1162q0 -55 -55 -55h-301z" />
<glyph unicode="U" horiz-adv-x="1503" d="M752 -27q-658 0 -658 654v854q0 55 53 55h304q55 0 55 -55v-897q0 -289 246 -289q245 0 245 289v897q0 55 56 55h303q53 0 53 -55v-854q0 -654 -657 -654z" />
<glyph unicode="V" horiz-adv-x="1456" d="M567 0q-54 0 -67 41l-494 1440q-20 55 37 55h297q58 0 74 -55l313 -1086l313 1086q16 55 74 55h297q56 0 39 -55l-496 -1440q-13 -41 -67 -41h-320z" />
<glyph unicode="W" horiz-adv-x="2084" d="M25 1481q-15 55 49 55h309q46 0 55 -55l172 -867l221 875q12 47 62 47h297q49 0 61 -47l222 -875l172 867q9 55 55 55h309q64 0 49 -55l-360 -1426q-12 -55 -62 -55h-307q-41 0 -53 43l-234 899l-235 -899q-12 -43 -53 -43h-308q-49 0 -61 55z" />
<glyph unicode="X" horiz-adv-x="1345" d="M43 0q-65 0 -31 55l410 723l-389 703q-34 55 30 55h322q45 0 66 -43l221 -430l223 430q19 43 63 43h322q63 0 33 -55l-389 -703l409 -723q30 -55 -33 -55h-319q-44 0 -66 43l-243 453l-242 -453q-22 -43 -65 -43h-322z" />
<glyph unicode="Y" horiz-adv-x="1337" d="M924 1493q21 43 65 43h305q63 0 33 -55l-453 -832v-594q0 -55 -55 -55h-303q-53 0 -53 55v594l-453 832q-27 55 33 55h305q46 0 64 -43l256 -504z" />
<glyph unicode="Z" horiz-adv-x="1165" d="M104 0q-53 0 -53 55v209q0 39 23 72l616 885h-594q-53 0 -53 53v207q0 55 53 55h971q55 0 55 -55v-224q0 -42 -18 -65l-623 -877h582q55 0 55 -53v-207q0 -55 -55 -55h-959z" />
<glyph unicode="[" horiz-adv-x="817" d="M152 -440q-56 0 -56 55v1997q0 55 56 55h561q55 0 55 -55v-207q0 -53 -55 -53h-232v-1477h232q55 0 55 -53v-207q0 -55 -55 -55h-561z" />
<glyph unicode="\" horiz-adv-x="655" d="M276 0q-54 0 -63 59l-174 1414q-10 63 49 63h279q54 0 63 -59l174 -1422q6 -55 -49 -55h-279z" />
<glyph unicode="]" horiz-adv-x="817" d="M104 -440q-53 0 -53 55v207q0 53 53 53h234v1477h-234q-53 0 -53 53v207q0 55 53 55h562q55 0 55 -55v-1997q0 -55 -55 -55h-562z" />
<glyph unicode="^" horiz-adv-x="1101" d="M551 1286l-246 -276q-33 -42 -76 -2l-100 96q-39 38 2 76l385 366q35 32 70 0l385 -366q40 -38 2 -76l-101 -96q-39 -37 -75 2z" />
<glyph unicode="_" horiz-adv-x="1179" d="M61 -55q0 55 54 55h950q53 0 53 -55v-164q0 -55 -53 -55h-950q-54 0 -54 55v164z" />
<glyph unicode="`" horiz-adv-x="944" d="M295 1524l-356 266q-42 36 -5 76l103 123q34 43 76 4l323 -303q35 -32 0 -70l-65 -80q-21 -24 -36.5 -28t-39.5 12z" />
<glyph unicode="a" horiz-adv-x="1146" d="M563 1094q258 0 379 -130t121 -395v-514q0 -55 -55 -55h-285q-55 0 -55 55v39q-5 -5 -13.5 -13t-37.5 -29t-60.5 -37t-80 -29t-97.5 -13q-143 0 -237.5 93t-94.5 241q0 159 108.5 253.5t290.5 94.5q56 0 111.5 -9.5t82.5 -19.5l28 -10v29q0 68 -44.5 107t-138.5 39 q-93 -2 -217 -43q-61 -15 -71 26l-50 172q-10 27 -5 46.5t32 29.5q77 33 183 52.5t206 19.5zM539 227q33 -1 65 12.5t48 27.5l16 14v133q-6 3 -16.5 7t-41.5 11t-59 6q-58 -1 -90.5 -29.5t-32.5 -74.5q0 -48 31.5 -76.5t79.5 -30.5z" />
<glyph unicode="b" horiz-adv-x="1255" d="M496 985q3 4 10 11.5t30.5 26.5t51.5 33t74 26t96 12q199 0 319.5 -152.5t120.5 -409.5t-120.5 -408t-323.5 -151q-52 0 -98 12t-74 29.5t-48.5 34.5t-29.5 29l-8 12v-35q0 -55 -56 -55h-282q-56 0 -56 55v1426q0 55 56 55h282q56 0 56 -55v-496zM496 330q6 -6 18 -15.5 t48.5 -25t72.5 -15.5q81 0 125.5 63.5t44.5 194.5q0 259 -170 259q-38 0 -73 -18t-50 -36l-16 -18v-389z" />
<glyph unicode="c" horiz-adv-x="1030" d="M606 -27q-256 0 -402.5 148t-146.5 411q0 264 146.5 413t402.5 149q117 0 212 -31.5t157 -81.5q30 -22 8 -59l-96 -174q-19 -34 -62 -13q-3 2 -18.5 11t-23.5 13.5t-25.5 12t-31.5 11.5t-34 6.5t-41 1.5q-94 -3 -147 -71t-53 -188q0 -118 53 -185.5t147 -72.5 q30 -1 60 5.5t44.5 13t41 21.5t28.5 16q44 21 62 -13l96 -172q22 -37 -8 -59q-61 -51 -156 -82t-213 -31z" />
<glyph unicode="d" horiz-adv-x="1251" d="M760 999v482q0 55 55 55h283q55 0 55 -55v-1426q0 -55 -55 -55h-283q-55 0 -55 55v35q-3 -5 -9 -13t-28.5 -28t-49.5 -35.5t-73 -28t-98 -12.5q-203 0 -324 151t-121 408t122 409.5t327 152.5q77 0 140.5 -24t88.5 -48zM760 330v401q-6 7 -17 17t-46.5 26.5t-71.5 16.5 q-82 0 -128 -67.5t-46 -191.5q0 -123 46 -190.5t128 -67.5q36 0 69.5 14t49.5 28z" />
<glyph unicode="e" horiz-adv-x="1150" d="M616 -27q-254 0 -406.5 148.5t-152.5 410.5q0 129 42 236t115 177.5t171 109.5t209 39q234 0 374.5 -151t123.5 -402q-3 -49 -14 -65.5t-42 -16.5h-577q0 -80 54.5 -132.5t150.5 -52.5q54 0 98 15t100 45q48 21 68 -21l94 -168q12 -18 11 -32t-19 -27q-61 -49 -170 -81 t-230 -32zM459 643l293 2q0 67 -40.5 108.5t-101.5 41.5q-65 0 -108 -44t-43 -108z" />
<glyph unicode="f" horiz-adv-x="864" d="M170 774h-88q-55 0 -55 55v183q0 55 55 55h88v164q0 213 117 333t317 122q221 0 359 -146q24 -27 27 -43.5t-17 -40.5l-117 -115q-21 -21 -36.5 -22.5t-33.5 16.5q-47 47 -110 47q-52 0 -82.5 -36.5t-30.5 -102.5v-176h201q55 0 55 -55v-183q0 -55 -55 -55h-201v-719 q0 -55 -53 -55h-285q-55 0 -55 55v719z" />
<glyph unicode="g" horiz-adv-x="1271" d="M57 190q0 23 4 45.5t10 41t15.5 36t18.5 31t21 27t21 22t20 17.5t17 13.5t14 9.5l7 5q0 1 -5.5 10t-9.5 16t-11 21.5t-12 27.5t-11 31.5t-10 36.5t-6.5 40.5t-2.5 44.5q0 187 136.5 306.5t349.5 119.5q168 0 278 -88v14q0 28 10 38.5t37 10.5h168q53 0 53 -55l2 -363 q0 -188 -139.5 -307t-359.5 -119q-78 0 -129.5 16t-73.5 33q-13 -7 -26 -24t-13 -41q0 -39 37.5 -60.5t99.5 -21.5h242q196 0 306 -87t110 -243q0 -176 -152 -275.5t-430 -99.5q-170 0 -298 38t-201.5 115t-73.5 185q0 46 13.5 84.5t33 61t38.5 38t33 21.5l13 6q-2 2 -21 14 t-37.5 27.5t-39 40t-33 60.5t-13.5 79zM584 580q33 -31 73.5 -31.5t71.5 31.5t30.5 74t-32.5 73q-33 31 -73.5 31.5t-71.5 -31.5t-30 -74t32 -73zM457 -207q0 -86 192 -86q187 0 187 84q0 64 -86 64h-211q-82 0 -82 -62z" />
<glyph unicode="h" horiz-adv-x="1277" d="M158 0q-29 0 -42.5 13t-13.5 42v1426q0 29 13.5 42t42.5 13h254q29 0 42 -13t13 -42v-506q4 5 12.5 13t38 28.5t63 36t88 28.5t113.5 13q175 0 293.5 -111t118.5 -311v-617q0 -55 -55 -55h-285q-55 0 -55 55v586q0 72 -40.5 113t-105.5 41q-45 0 -84.5 -19t-56.5 -38 l-16 -19v-664q0 -29 -13.5 -42t-42.5 -13h-282z" />
<glyph unicode="i" horiz-adv-x="614" d="M305 1210q-95 0 -162 67.5t-67 162.5q0 96 67 164.5t162 68.5t164.5 -69t69.5 -164t-69 -162.5t-165 -67.5zM168 0q-28 0 -40.5 13t-12.5 42v957q0 55 53 55h285q55 0 55 -55v-957q0 -29 -13 -42t-42 -13h-285z" />
<glyph unicode="j" horiz-adv-x="628" d="M319 1208q-95 0 -162 67.5t-67 162.5q0 96 67 164.5t162 68.5t164.5 -69t69.5 -164t-69 -162.5t-165 -67.5zM86 -580q-218 0 -356 146q-16 18 -22.5 30.5t-4 26t17.5 27.5l115 114q20 20 36.5 22t35.5 -15q47 -50 108 -50q51 0 82 34.5t31 94.5v1162q0 55 55 55h285 q53 0 53 -55v-1149q0 -204 -119.5 -323.5t-316.5 -119.5z" />
<glyph unicode="k" horiz-adv-x="1222" d="M158 0q-26 0 -41 14.5t-15 40.5v1426q0 26 15 40.5t41 14.5h282q26 0 41 -14.5t15 -40.5v-752l266 301q19 22 31 29.5t34 7.5h312q21 0 28.5 -18.5t-8.5 -38.5l-334 -383l383 -568q15 -23 6.5 -41t-34.5 -18h-301q-29 0 -44 10.5t-32 36.5l-207 313l-100 -112v-193 q0 -26 -15 -40.5t-41 -14.5h-282z" />
<glyph unicode="l" horiz-adv-x="770" d="M582 0q-234 0 -365 132t-131 368v981q0 29 13 42t42 13h283q29 0 42 -13t13 -42v-971q0 -88 49.5 -147.5t135.5 -59.5h8q51 0 51 -55v-193q0 -29 -13 -42t-42 -13h-86z" />
<glyph unicode="m" horiz-adv-x="1904" d="M1427 1094q171 0 282.5 -110t111.5 -312v-617q0 -55 -56 -55h-284q-56 0 -56 55v592q0 72 -35.5 110t-95.5 38q-35 0 -67.5 -13.5t-48 -26t-25.5 -24.5q2 -14 2 -47v-629q0 -29 -12.5 -42t-40.5 -13h-285q-29 0 -42 13t-13 42v592q0 72 -36.5 110t-96.5 38q-39 0 -75 -17 t-52 -34l-17 -17v-672q0 -29 -13 -42t-42 -13h-283q-29 0 -42 13t-13 42v957q0 55 55 55h252q56 0 56 -55v-31q5 5 14.5 12.5t41 27t65.5 34.5t86 27t104 12q199 0 305 -133q35 28 76.5 53.5t121.5 52.5t158 27z" />
<glyph unicode="n" horiz-adv-x="1267" d="M147 0q-29 0 -42 13t-13 42v957q0 55 55 55h252q54 0 54 -55v-45l13.5 13.5t39 30.5t64.5 39t88.5 30.5t111.5 13.5q85 0 159 -27t131.5 -78.5t90.5 -133t33 -183.5v-617q0 -55 -56 -55h-284q-56 0 -56 55v586q0 72 -40 113t-103 41q-27 0 -54 -8.5t-45 -21t-32.5 -25 t-21.5 -20.5l-7 -9v-656q0 -29 -13 -42t-42 -13h-283z" />
<glyph unicode="o" horiz-adv-x="1218" d="M610 -27q-261 0 -407 147.5t-146 411.5t146 413t407 149q259 0 405 -149t146 -413t-145.5 -411.5t-405.5 -147.5zM610 274q158 0 158 258q0 259 -158 259q-159 0 -159 -259q0 -258 159 -258z" />
<glyph unicode="p" horiz-adv-x="1245" d="M485 985q3 4 10 11.5t31 26.5t51.5 33t74 26t96.5 12q199 0 319.5 -152.5t120.5 -409.5t-121 -408t-324 -151q-52 0 -98 12t-74 29.5t-48.5 34.5t-28.5 29l-9 12v-547q0 -55 -55 -55h-283q-55 0 -55 55v1469q0 53 55 53h283q55 0 55 -53v-27zM485 330q7 -6 18.5 -15.5 t48.5 -25t73 -15.5q81 0 125.5 63.5t44.5 194.5q0 259 -170 259q-38 0 -73 -18t-51 -36l-16 -18v-389z" />
<glyph unicode="q" horiz-adv-x="1226" d="M760 985v27q0 53 55 53h283q55 0 55 -53v-1469q0 -55 -55 -55h-283q-55 0 -55 55v547q-3 -5 -9 -13t-28.5 -28t-49.5 -35.5t-73 -28t-98 -12.5q-203 0 -324 151t-121 408t121 409.5t320 152.5q51 0 96.5 -11t74.5 -27t50.5 -32.5t30.5 -27.5zM760 330v389q-6 8 -17 20 t-47.5 32t-74.5 20q-170 0 -170 -259q0 -131 44.5 -194.5t125.5 -63.5q36 0 71 14t52 28z" />
<glyph unicode="r" horiz-adv-x="962" d="M459 1014v-45q4 5 10.5 13.5t30.5 30t50.5 38t68.5 30t86 13.5q80 0 144 -34t105 -79q36 -45 15 -72q-65 -73 -148 -180q-26 -34 -53 -10q-59 59 -133 59q-30 0 -56 -11.5t-42.5 -27.5t-29 -32t-17.5 -27l-5 -12v-613q0 -55 -55 -55h-283q-55 0 -55 55v957q0 55 55 55 h256q56 0 56 -53z" />
<glyph unicode="s" horiz-adv-x="1028" d="M500 -27q-127 0 -236.5 33t-183.5 80q-19 11 -21 25t9 34l71 138q33 56 82 32q156 -82 248 -82q50 0 81.5 19t31.5 49q0 19 -12.5 34.5t-42 30.5t-55 24.5t-75.5 25.5q-49 16 -83 30.5t-78 42t-71 59t-46 80.5t-19 109q0 167 131.5 262t331.5 95q106 0 203.5 -29 t163.5 -74q20 -14 21.5 -27.5t-9.5 -31.5l-84 -152q-19 -32 -65 -8q-119 62 -199 62q-45 0 -73.5 -16.5t-28.5 -51.5q0 -32 31 -50t107 -44q16 -5 25 -8q56 -17 96.5 -34t86 -45.5t74 -61.5t47 -82.5t18.5 -110.5q0 -165 -126.5 -261t-350.5 -96z" />
<glyph unicode="t" horiz-adv-x="987" d="M606 -23q-199 0 -317.5 119.5t-118.5 321.5v356h-88q-55 0 -55 55v183q0 55 55 55h88v238q0 55 55 55h285q53 0 53 -55v-238h230q55 0 55 -55v-183q0 -55 -55 -55h-230v-368q0 -58 32 -92.5t83 -34.5q58 0 108 47q30 33 70 -7l117 -112q20 -24 17 -40.5t-27 -43.5 q-140 -148 -357 -146z" />
<glyph unicode="u" horiz-adv-x="1247" d="M1098 1067q55 0 55 -55v-957q0 -55 -55 -55h-252q-29 0 -42 13t-13 42v45l-13.5 -13.5t-38.5 -30.5t-63.5 -39t-86.5 -30.5t-108 -13.5q-81 0 -153 28t-127 81t-87 135t-32 184v611q0 55 55 55h283q55 0 55 -55v-586q0 -70 35 -112t94 -42q38 0 76.5 17.5t57.5 34.5 l20 18v670q0 55 55 55h285z" />
<glyph unicode="v" horiz-adv-x="1200" d="M446 0q-43 0 -61 51l-371 963q-10 25 4.5 39t40.5 14h285q46 0 57 -43l199 -649l199 649q11 43 57 43h285q25 0 39 -14t6 -39l-371 -963q-18 -51 -61 -51h-308z" />
<glyph unicode="w" horiz-adv-x="1851" d="M373 0q-46 0 -62 51l-288 967q-7 25 7 37t40 12h284q50 0 62 -45l135 -612l176 606q16 51 61 51h275q48 0 61 -51l176 -606l138 612q9 45 61 45h283q26 0 40 -12t7 -37l-289 -967q-16 -51 -61 -51h-318q-45 0 -61 51l-174 533l-174 -533q-13 -51 -62 -51h-317z" />
<glyph unicode="x" horiz-adv-x="1198" d="M76 0q-28 0 -33 18.5t10 38.5l332 490l-324 461q-15 20 -9 39.5t32 19.5h307q27 0 43 -13t37 -46l129 -201l127 201q21 33 37 46t45 13h307q26 0 31 -19.5t-10 -39.5l-324 -461l332 -490q15 -20 10.5 -38.5t-33.5 -18.5h-317q-17 0 -29 8t-17.5 16t-21.5 33l-137 213 l-139 -213q-26 -42 -38 -50q-12 -7 -28 -7h-319z" />
<glyph unicode="y" horiz-adv-x="1216" d="M260 -580q-155 0 -272 68q-40 22 -21 68l82 186q5 16 19 24.5t34 0.5q60 -25 109 -25q61 0 96.5 33.5t63.5 95.5l47 131l-387 1012q-9 25 4 39t41 14h284q47 0 58 -43l198 -647l199 647q11 43 57 43h285q25 0 39 -14t6 -39l-459 -1207q-76 -194 -191 -290.5t-292 -96.5z " />
<glyph unicode="z" horiz-adv-x="1089" d="M563 289h410q55 0 55 -56v-178q0 -55 -55 -55h-856q-56 0 -56 55v183q0 38 15 53l432 487h-371q-55 0 -55 53v181q0 55 55 55h826q55 0 55 -55v-162q0 -45 -23 -76z" />
<glyph unicode="{" horiz-adv-x="899" d="M795 -440q-275 1 -413 123t-138 348l-2 389q0 90 -27 134t-96 44q-56 0 -56 55v205q0 55 56 55q68 0 94.5 44t28.5 135l2 188q3 226 139.5 347t411.5 124q55 0 55 -55v-207q0 -52 -55 -55q-81 -4 -123.5 -59t-44.5 -150l-2 -250q0 -78 -24.5 -125.5t-70.5 -93.5 q95 -95 95 -236l2 -448q0 -31 2.5 -53.5t12 -50t27 -45.5t49.5 -31.5t77 -16.5q55 -3 55 -53v-207q0 -55 -55 -55z" />
<glyph unicode="|" horiz-adv-x="612" d="M160 -580q-54 0 -54 56v2005q0 55 54 55h284q56 0 56 -55v-2005q0 -56 -56 -56h-284z" />
<glyph unicode="}" horiz-adv-x="899" d="M104 -440q-53 0 -53 55v207q0 50 53 53q45 3 77 16.5t49.5 31.5t27 45.5t12 50t2.5 53.5l2 448q0 139 97 236q-30 30 -48 53.5t-33.5 67.5t-15.5 98l-2 250q-2 95 -44.5 150t-123.5 59q-53 3 -53 55v207q0 55 53 55q275 -3 411.5 -124t141.5 -347v-188q2 -91 28.5 -135 t94.5 -44q56 0 56 -55v-205q0 -55 -56 -55q-68 0 -94.5 -43.5t-28.5 -134.5v-389q-2 -227 -140 -348.5t-413 -122.5z" />
<glyph unicode="~" horiz-adv-x="1114" d="M745 633q-67 0 -130.5 22.5t-118.5 45t-103 22.5q-96 0 -149 -70q-22 -31 -60 -8l-106 70q-30 21 -6 61q53 75 130.5 122.5t166.5 47.5q63 0 124.5 -22.5t117 -45t104.5 -22.5q37 0 78.5 16t68.5 54q25 32 62 6l110 -74q34 -24 8 -61q-54 -75 -130.5 -119.5t-166.5 -44.5 z" />
<glyph unicode="&#xa1;" horiz-adv-x="528" d="M74 848q0 82 55 137t137 55q83 0 140 -55t57 -137q0 -83 -57 -141t-140 -58q-81 0 -136.5 57.5t-55.5 141.5zM176 522h178q55 0 58 -53l43 -926q0 -55 -54 -55h-274q-54 0 -51 55l43 926q0 53 57 53z" />
<glyph unicode="&#xa2;" horiz-adv-x="1030" d="M887 317l96 -172q22 -37 -8 -59q-76 -62 -184 -90v-129q0 -53 -56 -53h-284q-56 0 -56 53v137q-161 55 -249.5 190.5t-88.5 337.5q0 203 88.5 339.5t249.5 191.5v135q0 55 56 55h284q56 0 56 -55v-127q108 -28 184 -90q30 -22 8 -59l-96 -174q-19 -34 -62 -13 q-3 2 -18.5 11t-23.5 13.5t-25.5 12t-31.5 11.5t-34 6.5t-41 1.5q-94 -3 -147 -71t-53 -188q0 -118 53 -185.5t147 -72.5q30 -1 60 5.5t44.5 13t41 21.5t28.5 16q44 21 62 -13z" />
<glyph unicode="&#xa3;" horiz-adv-x="1169" d="M1073 324q55 0 55 -56v-213q0 -55 -55 -55h-848q-55 0 -55 55v553h-88q-55 0 -55 56v176q0 53 55 53h88v229q0 214 125 328.5t328 114.5q220 0 354 -146q25 -26 27.5 -43.5t-17.5 -40.5l-115 -114q-21 -21 -36.5 -23t-34.5 16q-45 48 -109 48q-50 0 -81 -34t-31 -93v-242 h350q53 0 53 -53v-176q0 -56 -53 -56h-350v-284h493z" />
<glyph unicode="&#xa5;" horiz-adv-x="1378" d="M1315 1536q63 0 33 -55l-439 -805h127q56 0 56 -53v-95q0 -55 -56 -55h-141v-94h141q56 0 56 -55v-95q0 -53 -56 -53h-141v-121q0 -55 -55 -55h-303q-54 0 -54 55v121h-143q-53 0 -53 53v95q0 55 53 55h143v94h-143q-53 0 -53 55v95q0 53 53 53h129l-438 805 q-14 28 -7 41.5t39 13.5h306q45 0 63 -43l256 -504l256 504q21 43 66 43h305z" />
<glyph unicode="&#xa7;" horiz-adv-x="1003" d="M883 502q80 -77 80 -205q0 -162 -127 -257t-351 -95q-237 0 -419 112q-35 21 -13 60l72 137q33 58 82 33q122 -60 184 -74q34 -8 64 -8q51 0 81.5 19t30.5 50q0 19 -12 34.5t-41.5 30t-55.5 24.5t-75 26q-48 15 -83 30t-78 42t-70.5 59t-46.5 82t-19 111q0 151 86 237 q-86 76 -86 207q0 111 63 192.5t166 121.5t232 40q108 0 205 -29t163 -73q20 -13 22 -27t-9 -32l-84 -152q-19 -32 -66 -8q-117 61 -198 61q-45 0 -74 -16t-29 -49q0 -34 31.5 -52.5t111.5 -45.5q14 -5 21 -7q46 -14 81 -28t74 -34.5t67 -46t52 -58t36 -76t12 -95.5 q0 -153 -80 -241zM412 741q0 -22 9.5 -38t32.5 -27t40 -16.5t54 -14t54 -12.5q43 47 43 88q0 15 -5 27t-18 22t-23 16.5t-33.5 13.5t-35 10t-41.5 10t-40 9q-37 -41 -37 -88z" />
<glyph unicode="&#xa8;" horiz-adv-x="1062" d="M285 1470q-78 0 -132.5 53.5t-54.5 131.5q0 77 54.5 132.5t132.5 55.5q75 0 131.5 -56t56.5 -132q0 -77 -56 -131t-132 -54zM772 1470q-77 0 -130.5 53.5t-53.5 131.5q0 77 54 132.5t130 55.5q78 0 134.5 -55.5t56.5 -132.5t-56 -131t-135 -54z" />
<glyph unicode="&#xa9;" horiz-adv-x="1705" d="M858 -25q-231 0 -412.5 100.5t-283 281.5t-101.5 411q0 172 59.5 320t163.5 252.5t252.5 163.5t321.5 59q169 0 314 -59t247 -163.5t159.5 -252.5t57.5 -320t-57.5 -319.5t-159.5 -251.5t-247 -163t-314 -59zM858 203q237 0 388 158t151 407t-151 407t-388 158 q-245 0 -401 -158t-156 -407t156 -407t401 -158zM864 375q-180 0 -282.5 104.5t-102.5 290.5q0 187 103 292t282 105q98 0 170 -32.5t113 -79.5q25 -31 4 -56q-6 -5 -74 -73q-28 -28 -53 -13q-26 18 -38.5 25.5t-38 16t-52.5 8.5q-73 0 -119.5 -50.5t-46.5 -142.5 q0 -91 46.5 -141.5t119.5 -50.5q27 0 52 9t38 17t37 25q4 2 8 3t7 2t7 0t5.5 -1.5t6 -3.5t5 -3.5t6 -4.5t6.5 -5q8 -6 38.5 -36t37.5 -39q10 -8 10 -23t-14 -31q-40 -47 -111 -79.5t-170 -32.5z" />
<glyph unicode="&#xab;" horiz-adv-x="1050" d="M57 489q-36 36 0 74l420 395q22 17 36.5 9.5t14.5 -23.5v-219q0 -47 -34 -74l-136 -123l136 -127q34 -34 34 -75v-220q0 -16 -14 -23t-37 11zM520 489q-36 36 0 74l420 395q22 17 36.5 9.5t14.5 -23.5v-219q0 -46 -35 -74l-135 -123l135 -127q35 -35 35 -75v-220 q0 -16 -14 -23t-37 11z" />
<glyph unicode="&#xad;" horiz-adv-x="806" d="M113 420q-52 0 -52 55v164q0 55 52 55h583q49 0 49 -55v-164q0 -55 -49 -55h-583z" />
<glyph unicode="&#xae;" horiz-adv-x="1705" d="M858 -25q-227 0 -409.5 102.5t-285 283.5t-102.5 407q0 227 102.5 408.5t285 284t409.5 102.5q223 0 401 -102.5t277.5 -284t99.5 -408.5q0 -226 -99.5 -407t-277.5 -283.5t-401 -102.5zM858 203q233 0 386 160t153 405t-153 405t-386 160q-241 0 -399 -160t-158 -405 t158 -405t399 -160zM592 375q-29 0 -29 26v738q0 26 29 26h307q123 0 201 -68.5t78 -183.5q0 -95 -48 -154t-120 -75l172 -283q7 -11 1.5 -18.5t-20.5 -7.5h-147q-22 0 -35 20l-162 269h-63v-263q0 -26 -29 -26h-135zM756 821h110q117 0 117 92q0 91 -117 91h-110v-183z" />
<glyph unicode="&#xaf;" horiz-adv-x="710" d="M-8 1649q0 55 55 55h617q53 0 53 -55v-119q0 -55 -53 -55h-617q-55 0 -55 55v119z" />
<glyph unicode="&#xb0;" horiz-adv-x="675" d="M338 946q-112 0 -191 79t-79 192t79 192.5t191 79.5q113 0 191.5 -79.5t78.5 -192.5t-78 -192t-192 -79zM338 1139q32 0 54 23.5t22 54.5q0 32 -22 54.5t-54 22.5q-31 0 -53.5 -22.5t-22.5 -54.5q0 -31 22.5 -54.5t53.5 -23.5z" />
<glyph unicode="&#xb4;" horiz-adv-x="944" d="M158 1524q-23 -16 -39 -12t-37 28l-66 80q-35 38 0 70l324 303q42 39 76 -4l104 -123q36 -42 -6 -76z" />
<glyph unicode="&#xb6;" horiz-adv-x="1976" d="M1386 -598q-23 0 -38 16t-15 39v1751h-260v-1751q0 -23 -16 -39t-39 -16h-287q-23 0 -39 16t-16 39v1135h-127q-138 0 -251.5 62t-179 170.5t-65.5 240.5q0 198 134.5 334.5t332.5 136.5h1348q55 0 55 -55v-217q0 -26 -14.5 -41t-40.5 -15h-137v-1751q0 -23 -16.5 -39 t-39.5 -16h-289z" />
<glyph unicode="&#xb7;" horiz-adv-x="555" d="M236 588q-78 17 -121.5 83t-26.5 144q17 79 83.5 124t143.5 28q78 -17 123.5 -86.5t28.5 -147.5q-17 -76 -85.5 -119t-145.5 -26z" />
<glyph unicode="&#xb8;" horiz-adv-x="983" d="M463 -592q-72 0 -131 27q-19 13 -10 37l49 141q9 24 37 14q22 -10 45 -10q39 0 60.5 21t21.5 57q0 35 -22 54.5t-54 19.5q-46 0 -70 -35q-13 -16 -41 -10l-100 24q-40 9 -31 43l80 283l195 -15l-43 -141q35 19 90 19q101 0 164 -69.5t63 -180.5q0 -131 -87.5 -205 t-215.5 -74z" />
<glyph unicode="&#xbb;" horiz-adv-x="1050" d="M528 489l-419 -395q-23 -18 -37.5 -11t-14.5 23v220q0 40 35 75l135 127l-135 123q-35 28 -35 74v219q0 16 15 23.5t37 -9.5l419 -395q36 -38 0 -74zM993 489l-420 -395q-23 -18 -37 -11t-14 23v220q0 40 35 75l135 127l-135 123q-35 28 -35 74v219q0 16 14.5 23.5 t36.5 -9.5l420 -395q36 -38 0 -74z" />
<glyph unicode="&#xbc;" horiz-adv-x="1382" d="M209 889q-23 0 -23 22v379l-49 -51q-16 -13 -26 0l-99 100q-20 17 0 33l172 152q12 12 25 12h186q9 0 16 -7.5t7 -19.5v-598q0 -9 -7 -15.5t-16 -6.5h-186zM197 0q-29 0 -43.5 15t-3.5 40l706 1422q15 33 28.5 46t39.5 13h223q31 0 45.5 -16t1.5 -43l-707 -1418 q-11 -23 -17 -33.5t-18.5 -18t-31.5 -7.5h-223zM1077 6q-10 0 -17 7t-7 16v96h-246q-23 0 -23 22v117q0 25 13 43l247 336q15 19 33 19h185q24 0 24 -25v-334h37q23 0 23 -24v-132q0 -22 -23 -22h-37v-96q0 -23 -24 -23h-185zM983 303h70v98z" />
<glyph unicode="&#xbd;" horiz-adv-x="1351" d="M209 889q-23 0 -23 22v379l-49 -51q-16 -13 -26 0l-99 100q-20 17 0 33l172 152q12 12 25 12h186q9 0 16 -7.5t7 -19.5v-598q0 -9 -7 -15.5t-16 -6.5h-186zM197 0q-29 0 -43.5 15t-3.5 40l706 1422q15 33 28.5 46t39.5 13h223q31 0 45.5 -16t1.5 -43l-707 -1418 q-11 -23 -17 -33.5t-18.5 -18t-31.5 -7.5h-223zM893 0q-10 0 -17.5 7t-7.5 16v129q0 43 22 82.5t54 67.5t63.5 52t53.5 47.5t22 44.5q0 31 -32 31q-24 0 -70 -37q-16 -16 -31 4l-84 103q-14 13 6 33q84 84 213 84q101 0 162.5 -54t61.5 -141q0 -48 -21.5 -87.5t-51.5 -64 t-60.5 -44.5t-52 -40t-21.5 -40v-9h186q23 0 23 -22v-139q0 -9 -6.5 -16t-16.5 -7h-395z" />
<glyph unicode="&#xbe;" horiz-adv-x="1382" d="M256 879q-78 0 -139 31t-90 65q-14 14 0 31l75 102q12 19 33 2q49 -39 80 -39q20 0 32.5 12t12.5 31q0 22 -14 35.5t-37 13.5t-23 23v80q0 11 4 16.5t8 6.5t11 1q20 1 32.5 15.5t12.5 31.5q0 15 -10 25t-25 10q-32 0 -67 -35q-14 -13 -31 4l-72 84q-14 17 2 33 q30 35 86.5 63.5t124.5 28.5q92 0 156.5 -47t64.5 -127q0 -49 -22.5 -87.5t-52.5 -55.5q33 -15 59.5 -59t26.5 -101q0 -87 -68.5 -140.5t-169.5 -53.5zM197 0q-29 0 -43.5 15t-3.5 40l706 1422q15 33 28.5 46t39.5 13h223q31 0 45.5 -16t1.5 -43l-707 -1418 q-11 -23 -17 -33.5t-18.5 -18t-31.5 -7.5h-223zM1077 6q-10 0 -17 7t-7 16v96h-246q-23 0 -23 22v117q0 25 13 43l247 336q15 19 33 19h185q24 0 24 -25v-334h37q23 0 23 -24v-132q0 -22 -23 -22h-37v-96q0 -23 -24 -23h-185zM983 303h70v98z" />
<glyph unicode="&#xbf;" horiz-adv-x="1110" d="M610 1038q82 0 137.5 -55t55.5 -137q0 -83 -55.5 -141t-137.5 -58q-83 0 -139.5 57.5t-56.5 141.5q0 82 56.5 137t139.5 55zM711 520q29 0 41 -14t12 -47q0 -86 -26 -156t-62.5 -117t-73 -88.5t-62.5 -90.5t-26 -103q0 -68 39.5 -107t103.5 -39q92 0 189 97q33 33 67 -7 l123 -143q16 -24 14 -39t-18 -37q-68 -82 -184 -138t-268 -56q-209 0 -335 106.5t-126 292.5q0 63 15 113.5t40 86.5t55.5 68.5t63.5 67t62 73t52.5 96.5t34.5 128q5 25 17 39t39 14h213z" />
<glyph unicode="&#xc0;" horiz-adv-x="1384" d="M698 1665l-356 266q-42 36 -4 76l102 123q34 43 76 4l324 -303q35 -32 0 -70l-66 -80q-21 -24 -36.5 -28t-39.5 12zM49 0q-57 0 -39 55l482 1426q18 55 71 55h260q54 0 72 -55l479 -1426q18 -55 -37 -55h-297q-52 0 -67 55l-78 267h-406l-75 -267q-15 -55 -68 -55h-297z M575 637h236l-119 391z" />
<glyph unicode="&#xc1;" horiz-adv-x="1384" d="M688 1663q-23 -16 -39 -12t-37 28l-65 80q-35 38 0 70l323 303q42 39 76 -4l105 -123q36 -42 -7 -76zM49 0q-57 0 -39 55l482 1426q18 55 71 55h260q54 0 72 -55l479 -1426q18 -55 -37 -55h-297q-52 0 -67 55l-78 267h-406l-75 -267q-15 -55 -68 -55h-297zM575 637h236 l-119 391z" />
<glyph unicode="&#xc2;" horiz-adv-x="1384" d="M692 1853l-184 -182q-38 -38 -76 -2l-100 98q-42 39 2 74l323 270q35 28 70 0l324 -270q44 -35 2 -74l-101 -98q-22 -20 -39 -18.5t-36 20.5zM49 0q-57 0 -39 55l482 1426q18 55 71 55h260q54 0 72 -55l479 -1426q18 -55 -37 -55h-297q-52 0 -67 55l-78 267h-406 l-75 -267q-15 -55 -68 -55h-297zM575 637h236l-119 391z" />
<glyph unicode="&#xc3;" horiz-adv-x="1384" d="M864 1673q-62 0 -117.5 22.5t-103.5 45t-90 22.5q-77 0 -127 -67q-24 -30 -61 -8l-105 67q-16 11 -17.5 29.5t9.5 32.5q121 172 276 172q46 0 90.5 -14t74 -31.5t68.5 -31.5t75 -14q74 0 127 68q22 31 59 8l113 -76q30 -21 6 -61q-115 -164 -277 -164zM49 0q-57 0 -39 55 l482 1426q18 55 71 55h260q54 0 72 -55l479 -1426q18 -55 -37 -55h-297q-52 0 -67 55l-78 267h-406l-75 -267q-15 -55 -68 -55h-297zM575 637h236l-119 391z" />
<glyph unicode="&#xc4;" horiz-adv-x="1384" d="M449 1661q-78 0 -132.5 53t-54.5 131q0 77 55 133t132 56q75 0 131.5 -56.5t56.5 -132.5q0 -77 -56 -130.5t-132 -53.5zM936 1661q-77 0 -130.5 53t-53.5 131q0 77 54 133t130 56q78 0 134 -56t56 -133t-55.5 -130.5t-134.5 -53.5zM49 0q-57 0 -39 55l482 1426 q18 55 71 55h260q54 0 72 -55l479 -1426q18 -55 -37 -55h-297q-52 0 -67 55l-78 267h-406l-75 -267q-15 -55 -68 -55h-297zM575 637h236l-119 391z" />
<glyph unicode="&#xc5;" horiz-adv-x="1384" d="M690 1628q-112 0 -191 79t-79 191q0 113 79 193t191 80q113 0 192 -80t79 -193t-78.5 -191.5t-192.5 -78.5zM690 1821q32 0 54 23t22 54q0 32 -22 55t-54 23q-31 0 -53.5 -23t-22.5 -55q0 -31 22.5 -54t53.5 -23zM49 0q-57 0 -39 55l482 1426q18 55 71 55h260 q54 0 72 -55l479 -1426q18 -55 -37 -55h-297q-52 0 -67 55l-78 267h-406l-75 -267q-15 -55 -68 -55h-297zM575 637h236l-119 391z" />
<glyph unicode="&#xc6;" horiz-adv-x="1984" d="M53 0q-31 0 -42 13.5t3 41.5l779 1426q17 31 31.5 43t41.5 12h963q53 0 53 -55v-207q0 -53 -53 -53h-518v-277h436q53 0 53 -55v-193q0 -55 -53 -55h-436l2 -326h536q54 0 54 -53v-207q0 -55 -54 -55h-895q-53 0 -53 55v252h-342l-137 -252q-15 -29 -29.5 -42t-40.5 -13 h-299zM702 596h199v369z" />
<glyph unicode="&#xc7;" horiz-adv-x="1353" d="M1145 385l147 -168q25 -32 0 -57q-185 -185 -489 -185q-35 0 -51 2l-23 -73q37 18 92 18q101 0 164.5 -70t63.5 -180q0 -131 -88 -204.5t-218 -73.5q-75 0 -129 26q-20 12 -10 39l49 140q9 27 37 14q22 -10 45 -10q39 0 60.5 21.5t21.5 56.5t-21.5 54t-54.5 19 q-43 0 -69 -33q-13 -18 -41 -12l-101 25q-39 9 -32 43l65 231q-234 67 -367 265.5t-133 496.5q0 185 53.5 334.5t150 250t233.5 154.5t303 54q302 0 489 -183q25 -29 0 -57l-147 -170q-22 -25 -58 0q-121 88 -247 88q-164 0 -257.5 -123.5t-93.5 -347.5q0 -225 93.5 -348 t257.5 -123q129 0 247 86q36 25 58 0z" />
<glyph unicode="&#xc8;" horiz-adv-x="1198" d="M608 1665l-356 266q-42 36 -4 76l102 123q34 43 76 4l324 -303q35 -32 0 -70l-66 -80q-21 -24 -36.5 -28t-39.5 12zM168 0q-53 0 -53 55v1426q0 55 53 55h874q54 0 54 -55v-213q0 -56 -54 -56h-518v-262h437q53 0 53 -53v-207q0 -55 -53 -55h-437v-311h539q53 0 53 -56 v-213q0 -55 -53 -55h-895z" />
<glyph unicode="&#xc9;" horiz-adv-x="1198" d="M598 1663q-23 -16 -39 -12t-37 28l-65 80q-35 38 0 70l323 303q42 39 76 -4l105 -123q36 -42 -7 -76zM168 0q-53 0 -53 55v1426q0 55 53 55h874q54 0 54 -55v-213q0 -56 -54 -56h-518v-262h437q53 0 53 -53v-207q0 -55 -53 -55h-437v-311h539q53 0 53 -56v-213 q0 -55 -53 -55h-895z" />
<glyph unicode="&#xca;" horiz-adv-x="1198" d="M602 1853l-184 -182q-38 -38 -76 -2l-100 98q-42 39 2 74l323 270q35 28 70 0l324 -270q44 -35 2 -74l-101 -98q-38 -36 -76 2zM168 0q-53 0 -53 55v1426q0 55 53 55h874q54 0 54 -55v-213q0 -56 -54 -56h-518v-262h437q53 0 53 -53v-207q0 -55 -53 -55h-437v-311h539 q53 0 53 -56v-213q0 -55 -53 -55h-895z" />
<glyph unicode="&#xcb;" horiz-adv-x="1198" d="M358 1661q-78 0 -132 53t-54 131q0 77 54.5 133t131.5 56q75 0 132 -56.5t57 -132.5q0 -77 -56.5 -130.5t-132.5 -53.5zM846 1661q-77 0 -130.5 53t-53.5 131q0 77 54 133t130 56q78 0 134 -56t56 -133t-55.5 -130.5t-134.5 -53.5zM168 0q-53 0 -53 55v1426q0 55 53 55 h874q54 0 54 -55v-213q0 -56 -54 -56h-518v-262h437q53 0 53 -53v-207q0 -55 -53 -55h-437v-311h539q53 0 53 -56v-213q0 -55 -53 -55h-895z" />
<glyph unicode="&#xcc;" horiz-adv-x="638" d="M328 1665l-357 266q-42 36 -4 76l103 123q34 42 75 4l324 -303q35 -32 0 -70l-66 -80q-21 -24 -36 -28t-39 12zM168 0q-53 0 -53 55v1426q0 55 53 55h301q55 0 55 -55v-1426q0 -55 -55 -55h-301z" />
<glyph unicode="&#xcd;" horiz-adv-x="638" d="M317 1663q-23 -16 -38.5 -12t-36.5 28l-66 80q-35 38 0 70l324 303q41 38 75 -4l105 -123q36 -42 -6 -76zM168 0q-53 0 -53 55v1426q0 55 53 55h301q55 0 55 -55v-1426q0 -55 -55 -55h-301z" />
<glyph unicode="&#xce;" horiz-adv-x="638" d="M322 1853l-185 -182q-38 -38 -76 -2l-100 98q-42 39 2 74l324 270q35 28 69 0l324 -270q44 -35 2 -74l-100 -98q-38 -36 -76 2zM168 0q-53 0 -53 55v1426q0 55 53 55h301q55 0 55 -55v-1426q0 -55 -55 -55h-301z" />
<glyph unicode="&#xcf;" horiz-adv-x="638" d="M78 1661q-78 0 -132.5 53t-54.5 131q0 77 55 133t132 56q75 0 131.5 -56.5t56.5 -132.5q0 -77 -56 -130.5t-132 -53.5zM565 1661q-77 0 -130.5 53t-53.5 131q0 77 54 133t130 56q78 0 134.5 -56t56.5 -133t-56 -130.5t-135 -53.5zM168 0q-53 0 -53 55v1426q0 55 53 55 h301q55 0 55 -55v-1426q0 -55 -55 -55h-301z" />
<glyph unicode="&#xd0;" horiz-adv-x="1503" d="M750 1536q168 0 298.5 -45.5t224 -138.5t142.5 -240t49 -344t-49 -344t-142.5 -240t-224 -138.5t-298.5 -45.5h-568q-53 0 -53 55v766h-72q-53 0 -53 56v81q0 56 53 56h72v467q0 55 53 55h568zM735 324q332 0 332 444t-332 444h-196v-198h188q55 0 55 -56v-81 q0 -56 -55 -56h-188v-497h196z" />
<glyph unicode="&#xd1;" horiz-adv-x="1550" d="M954 1673q-62 0 -117.5 22.5t-103.5 45t-90 22.5q-77 0 -127 -67q-24 -30 -61 -8l-105 67q-16 11 -17.5 29.5t9.5 32.5q121 172 276 172q46 0 90.5 -14t74 -31.5t68.5 -31.5t75 -14q74 0 127 68q22 31 59 8l113 -76q30 -21 6 -61q-115 -164 -277 -164zM168 0 q-53 0 -53 55v1426q0 55 53 55h250q33 0 55 -31l567 -772v748q0 55 56 55h286q56 0 56 -55v-1426q0 -55 -56 -55h-249q-33 0 -64 39l-559 772v-756q0 -55 -55 -55h-287z" />
<glyph unicode="&#xd2;" d="M809 1665l-356 266q-42 36 -4 76l102 123q34 43 76 4l323 -303q35 -32 0 -70l-65 -80q-21 -24 -36.5 -28t-39.5 12zM803 1563q335 0 536 -212t201 -583t-201 -583t-536 -212q-166 0 -303 54.5t-233.5 155t-150 250.5t-53.5 335t53.5 335t150 250.5t233.5 155t303 54.5z M803 295q144 0 227.5 122t83.5 351t-83.5 351t-227.5 122q-146 0 -230 -122t-84 -351t84 -351t230 -122z" />
<glyph unicode="&#xd3;" d="M799 1663q-23 -16 -39 -12t-37 28l-66 80q-35 38 0 70l324 303q42 39 76 -4l104 -123q36 -42 -6 -76zM803 1563q335 0 536 -212t201 -583t-201 -583t-536 -212q-166 0 -303 54.5t-233.5 155t-150 250.5t-53.5 335t53.5 335t150 250.5t233.5 155t303 54.5zM803 295 q144 0 227.5 122t83.5 351t-83.5 351t-227.5 122q-146 0 -230 -122t-84 -351t84 -351t230 -122z" />
<glyph unicode="&#xd4;" d="M803 1853l-185 -182q-19 -19 -36 -20.5t-39 18.5l-101 98q-42 39 2 74l324 270q35 28 70 0l323 -270q44 -35 2 -74l-100 -98q-38 -36 -76 2zM803 1563q335 0 536 -212t201 -583t-201 -583t-536 -212q-166 0 -303 54.5t-233.5 155t-150 250.5t-53.5 335t53.5 335 t150 250.5t233.5 155t303 54.5zM803 295q144 0 227.5 122t83.5 351t-83.5 351t-227.5 122q-146 0 -230 -122t-84 -351t84 -351t230 -122z" />
<glyph unicode="&#xd5;" d="M973 1673q-61 0 -116 22t-103 44t-90 22q-75 0 -125 -65q-25 -31 -62 -8l-102 65q-16 11 -17.5 29.5t9.5 32.5q119 170 274 170q57 0 110.5 -22.5t101.5 -44.5t91 -22q74 0 125 66q22 31 59 8l113 -74q30 -21 6 -61q-114 -162 -274 -162zM803 1563q335 0 536 -212 t201 -583t-201 -583t-536 -212q-166 0 -303 54.5t-233.5 155t-150 250.5t-53.5 335t53.5 335t150 250.5t233.5 155t303 54.5zM803 295q144 0 227.5 122t83.5 351t-83.5 351t-227.5 122q-146 0 -230 -122t-84 -351t84 -351t230 -122z" />
<glyph unicode="&#xd6;" d="M559 1661q-78 0 -132 53t-54 131q0 77 54.5 133t131.5 56q75 0 132 -56.5t57 -132.5q0 -77 -56.5 -130.5t-132.5 -53.5zM1047 1661q-77 0 -131 53t-54 131q0 77 54.5 133t130.5 56q78 0 134 -56t56 -133t-55.5 -130.5t-134.5 -53.5zM803 1563q335 0 536 -212t201 -583 t-201 -583t-536 -212q-166 0 -303 54.5t-233.5 155t-150 250.5t-53.5 335t53.5 335t150 250.5t233.5 155t303 54.5zM803 295q144 0 227.5 122t83.5 351t-83.5 351t-227.5 122q-146 0 -230 -122t-84 -351t84 -351t230 -122z" />
<glyph unicode="&#xd7;" horiz-adv-x="923" d="M653 760l189 -189q38 -39 0 -77l-113 -115q-41 -37 -78 0l-188 190l-191 -190q-38 -39 -77 0l-113 115q-38 38 0 77l188 189l-190 190q-38 40 0 78l115 113q37 40 77 0l191 -189l188 189q39 39 78 0l115 -113q38 -38 0 -78z" />
<glyph unicode="&#xd8;" d="M1530 1477l-146 -181q156 -207 156 -528q0 -371 -201 -583t-536 -212q-227 0 -397 101l-13 -15q-19 -24 -28 -34t-23.5 -17.5t-32.5 -7.5h-211q-28 0 -38 14.5t10 40.5l149 185q-156 207 -156 528q0 185 53.5 335t150 250.5t233.5 155t303 54.5q221 0 395 -99l10 13 q25 34 40.5 46.5t41.5 12.5h209q31 0 41.5 -16.5t-10.5 -42.5zM489 768q0 -93 15 -170l469 586q-72 57 -170 57q-146 0 -230 -122t-84 -351zM1114 768q0 101 -14 172l-471 -586q74 -59 174 -59q144 0 227.5 122t83.5 351z" />
<glyph unicode="&#xd9;" horiz-adv-x="1503" d="M760 1665l-357 266q-42 36 -4 76l103 123q34 43 76 4l323 -303q35 -32 0 -70l-65 -80q-21 -24 -36.5 -28t-39.5 12zM752 -27q-658 0 -658 654v854q0 55 53 55h304q55 0 55 -55v-897q0 -289 246 -289q245 0 245 289v897q0 55 56 55h303q53 0 53 -55v-854q0 -654 -657 -654 z" />
<glyph unicode="&#xda;" horiz-adv-x="1503" d="M750 1663q-23 -16 -39 -12t-37 28l-66 80q-35 38 0 70l324 303q42 39 76 -4l104 -123q36 -42 -6 -76zM752 -27q-658 0 -658 654v854q0 55 53 55h304q55 0 55 -55v-897q0 -289 246 -289q245 0 245 289v897q0 55 56 55h303q53 0 53 -55v-854q0 -654 -657 -654z" />
<glyph unicode="&#xdb;" horiz-adv-x="1503" d="M754 1853l-185 -182q-19 -19 -36 -20.5t-39 18.5l-101 98q-42 39 2 74l324 270q35 28 69 0l324 -270q44 -35 2 -74l-100 -98q-38 -36 -76 2zM752 -27q-658 0 -658 654v854q0 55 53 55h304q55 0 55 -55v-897q0 -289 246 -289q245 0 245 289v897q0 55 56 55h303 q53 0 53 -55v-854q0 -654 -657 -654z" />
<glyph unicode="&#xdc;" horiz-adv-x="1503" d="M510 1661q-78 0 -132 53t-54 131q0 77 54.5 133t131.5 56q75 0 131.5 -56.5t56.5 -132.5q0 -77 -56 -130.5t-132 -53.5zM997 1661q-77 0 -130.5 53t-53.5 131q0 77 54 133t130 56q78 0 134.5 -56t56.5 -133t-56 -130.5t-135 -53.5zM752 -27q-658 0 -658 654v854 q0 55 53 55h304q55 0 55 -55v-897q0 -289 246 -289q245 0 245 289v897q0 55 56 55h303q53 0 53 -55v-854q0 -654 -657 -654z" />
<glyph unicode="&#xdd;" horiz-adv-x="1337" d="M664 1663q-23 -16 -39 -12t-37 28l-66 80q-35 38 0 70l324 303q42 39 76 -4l104 -123q36 -42 -6 -76zM924 1493q21 43 65 43h305q63 0 33 -55l-453 -832v-594q0 -55 -55 -55h-303q-53 0 -53 55v594l-453 832q-27 55 33 55h305q46 0 64 -43l256 -504z" />
<glyph unicode="&#xde;" horiz-adv-x="1331" d="M729 1278q265 0 414 -132.5t149 -354.5q0 -243 -149 -388t-414 -145h-203v-203q0 -55 -55 -55h-303q-53 0 -53 55v1426q0 55 53 55h303q55 0 55 -55v-203h203zM694 561q102 0 152.5 55.5t50.5 153.5q0 193 -203 193h-168v-402h168z" />
<glyph unicode="&#xdf;" horiz-adv-x="1312" d="M793 -10q-51 -17 -70 33l-82 202q-18 51 33 74q47 24 70.5 37.5t53.5 36t43 47t13 53.5q0 31 -16.5 61t-40.5 55.5t-48 53t-40.5 66.5t-16.5 84q0 44 16.5 87t36 72t36 67t16.5 73q0 62 -40 99.5t-104 37.5q-75 0 -123.5 -63.5t-48.5 -153.5v-957q0 -55 -55 -55h-285 q-55 0 -55 55v953q0 241 159.5 388.5t418.5 147.5q118 0 217.5 -35t166.5 -94.5t104.5 -139t37.5 -167.5q0 -52 -16.5 -99t-37 -75.5t-37 -66.5t-16.5 -74q0 -37 17 -72t41.5 -65t49 -62t41.5 -79t17 -101q0 -286 -456 -424z" />
<glyph unicode="&#xe0;" horiz-adv-x="1146" d="M575 1214l-356 267q-41 35 -4 75l102 123q34 43 76 4l324 -303q35 -32 0 -69l-66 -80q-21 -25 -36.5 -29t-39.5 12zM563 1094q258 0 379 -130t121 -395v-514q0 -55 -55 -55h-285q-55 0 -55 55v39q-5 -5 -13.5 -13t-37.5 -29t-60.5 -37t-80 -29t-97.5 -13 q-143 0 -237.5 93t-94.5 241q0 159 108.5 253.5t290.5 94.5q56 0 111.5 -9.5t82.5 -19.5l28 -10v29q0 68 -44.5 107t-138.5 39q-93 -2 -217 -43q-61 -15 -71 26l-50 172q-10 27 -5 46.5t32 29.5q77 33 183 52.5t206 19.5zM539 227q33 -1 65 12.5t48 27.5l16 14v133 q-6 3 -16.5 7t-41.5 11t-59 6q-58 -1 -90.5 -29.5t-32.5 -74.5q0 -48 31.5 -76.5t79.5 -30.5z" />
<glyph unicode="&#xe1;" horiz-adv-x="1146" d="M565 1212q-23 -16 -39 -11.5t-37 28.5l-65 80q-19 20 -19 36t19 33l324 303q41 38 75 -4l105 -123q36 -42 -6 -75zM563 1094q258 0 379 -130t121 -395v-514q0 -55 -55 -55h-285q-55 0 -55 55v39q-5 -5 -13.5 -13t-37.5 -29t-60.5 -37t-80 -29t-97.5 -13q-143 0 -237.5 93 t-94.5 241q0 159 108.5 253.5t290.5 94.5q56 0 111.5 -9.5t82.5 -19.5l28 -10v29q0 68 -44.5 107t-138.5 39q-93 -2 -217 -43q-61 -15 -71 26l-50 172q-10 27 -5 46.5t32 29.5q77 33 183 52.5t206 19.5zM539 227q33 -1 65 12.5t48 27.5l16 14v133q-6 3 -16.5 7t-41.5 11 t-59 6q-58 -1 -90.5 -29.5t-32.5 -74.5q0 -48 31.5 -76.5t79.5 -30.5z" />
<glyph unicode="&#xe2;" horiz-adv-x="1146" d="M569 1403l-184 -182q-38 -38 -76 -2l-100 98q-42 39 2 74l324 270q35 28 69 0l324 -270q44 -35 2 -74l-101 -98q-22 -20 -39 -18.5t-36 20.5zM563 1094q258 0 379 -130t121 -395v-514q0 -55 -55 -55h-285q-55 0 -55 55v39q-5 -5 -13.5 -13t-37.5 -29t-60.5 -37t-80 -29 t-97.5 -13q-143 0 -237.5 93t-94.5 241q0 159 108.5 253.5t290.5 94.5q56 0 111.5 -9.5t82.5 -19.5l28 -10v29q0 68 -44.5 107t-138.5 39q-93 -2 -217 -43q-61 -15 -71 26l-50 172q-10 27 -5 46.5t32 29.5q77 33 183 52.5t206 19.5zM539 227q33 -1 65 12.5t48 27.5l16 14 v133q-6 3 -16.5 7t-41.5 11t-59 6q-58 -1 -90.5 -29.5t-32.5 -74.5q0 -48 31.5 -76.5t79.5 -30.5z" />
<glyph unicode="&#xe3;" horiz-adv-x="1146" d="M741 1223q-62 0 -117.5 22.5t-103.5 45t-90 22.5q-76 0 -127 -68q-24 -30 -61 -8l-105 68q-34 24 -8 61q121 172 277 172q58 0 112 -22.5t102 -45t93 -22.5q74 0 127 68q22 31 59 8l113 -76q31 -21 6 -62q-114 -163 -277 -163zM563 1094q258 0 379 -130t121 -395v-514 q0 -55 -55 -55h-285q-55 0 -55 55v39q-5 -5 -13.5 -13t-37.5 -29t-60.5 -37t-80 -29t-97.5 -13q-143 0 -237.5 93t-94.5 241q0 159 108.5 253.5t290.5 94.5q56 0 111.5 -9.5t82.5 -19.5l28 -10v29q0 68 -44.5 107t-138.5 39q-93 -2 -217 -43q-61 -15 -71 26l-50 172 q-10 27 -5 46.5t32 29.5q77 33 183 52.5t206 19.5zM539 227q33 -1 65 12.5t48 27.5l16 14v133q-6 3 -16.5 7t-41.5 11t-59 6q-58 -1 -90.5 -29.5t-32.5 -74.5q0 -48 31.5 -76.5t79.5 -30.5z" />
<glyph unicode="&#xe4;" horiz-adv-x="1146" d="M326 1210q-78 0 -132.5 53.5t-54.5 131.5q0 77 54.5 132.5t132.5 55.5q75 0 131.5 -56t56.5 -132q0 -77 -56 -131t-132 -54zM813 1210q-77 0 -130.5 53.5t-53.5 131.5q0 77 54 132.5t130 55.5q78 0 134.5 -55.5t56.5 -132.5t-56 -131t-135 -54zM563 1094q258 0 379 -130 t121 -395v-514q0 -55 -55 -55h-285q-55 0 -55 55v39q-5 -5 -13.5 -13t-37.5 -29t-60.5 -37t-80 -29t-97.5 -13q-143 0 -237.5 93t-94.5 241q0 159 108.5 253.5t290.5 94.5q56 0 111.5 -9.5t82.5 -19.5l28 -10v29q0 68 -44.5 107t-138.5 39q-93 -2 -217 -43q-61 -15 -71 26 l-50 172q-10 27 -5 46.5t32 29.5q77 33 183 52.5t206 19.5zM539 227q33 -1 65 12.5t48 27.5l16 14v133q-6 3 -16.5 7t-41.5 11t-59 6q-58 -1 -90.5 -29.5t-32.5 -74.5q0 -48 31.5 -76.5t79.5 -30.5z" />
<glyph unicode="&#xe5;" horiz-adv-x="1146" d="M567 1178q-113 0 -191.5 79t-78.5 191q0 113 79 192.5t191 79.5q114 0 192.5 -79.5t78.5 -192.5t-78.5 -191.5t-192.5 -78.5zM567 1370q32 0 54 23.5t22 54.5q0 32 -22 55t-54 23q-31 0 -53 -23t-22 -55q0 -31 22.5 -54.5t52.5 -23.5zM563 1094q258 0 379 -130t121 -395 v-514q0 -55 -55 -55h-285q-55 0 -55 55v39q-5 -5 -13.5 -13t-37.5 -29t-60.5 -37t-80 -29t-97.5 -13q-143 0 -237.5 93t-94.5 241q0 159 108.5 253.5t290.5 94.5q56 0 111.5 -9.5t82.5 -19.5l28 -10v29q0 68 -44.5 107t-138.5 39q-93 -2 -217 -43q-61 -15 -71 26l-50 172 q-10 27 -5 46.5t32 29.5q77 33 183 52.5t206 19.5zM539 227q33 -1 65 12.5t48 27.5l16 14v133q-6 3 -16.5 7t-41.5 11t-59 6q-58 -1 -90.5 -29.5t-32.5 -74.5q0 -48 31.5 -76.5t79.5 -30.5z" />
<glyph unicode="&#xe6;" horiz-adv-x="1761" d="M416 -27q-169 0 -269 92.5t-100 251.5q0 150 108.5 244t286.5 94q58 0 114.5 -11.5t83.5 -22.5l28 -11v25q0 74 -45.5 115t-137.5 41q-45 0 -109.5 -13t-107.5 -30q-59 -19 -71 26l-50 172q-10 27 -5 46.5t32 29.5q166 72 385 72q211 0 336 -103q127 103 311 103 q114 0 209.5 -39t161.5 -109.5t100 -175t27 -229.5q-3 -50 -13.5 -66t-41.5 -16h-578q0 -80 54 -132.5t149 -52.5q37 0 75.5 9.5t62.5 20t63 30.5q44 20 67 -21l94 -168q10 -18 9 -32t-17 -27q-61 -49 -170.5 -81t-230.5 -32q-266 0 -418 164q-176 -164 -393 -164zM1077 643 l281 2q0 66 -38.5 106t-98.5 40q-63 0 -103.5 -42.5t-40.5 -105.5zM539 227q34 0 74.5 18.5t60.5 33t28 22.5q-21 43 -30 102q-70 35 -125 35t-87 -30t-32 -78t31.5 -75.5t79.5 -27.5z" />
<glyph unicode="&#xe7;" horiz-adv-x="1030" d="M887 317l96 -172q22 -37 -8 -59q-60 -49 -152.5 -80.5t-206.5 -32.5l-22 -69q37 18 92 18q101 0 163 -69.5t62 -180.5q0 -131 -87 -204.5t-216 -73.5q-75 0 -129 26q-20 12 -10 39l49 140q9 27 35 14q23 -10 47 -10q39 0 60.5 21.5t21.5 56.5t-21.5 54t-54.5 19 q-46 0 -69 -33q-13 -18 -41 -12l-101 25q-43 9 -33 43l64 219q-175 46 -272 185t-97 351q0 264 146.5 413t402.5 149q117 0 212 -31.5t157 -81.5q30 -22 8 -59l-96 -174q-19 -34 -62 -13q-3 2 -18.5 11t-23.5 13.5t-25.5 12t-31.5 11.5t-34 6.5t-41 1.5q-94 -3 -147 -71 t-53 -188q0 -118 53 -185.5t147 -72.5q30 -1 60 5.5t44.5 13t41 21.5t28.5 16q44 21 62 -13z" />
<glyph unicode="&#xe8;" horiz-adv-x="1150" d="M610 1214l-356 267q-41 35 -4 75l102 123q34 43 76 4l324 -303q35 -32 0 -69l-66 -80q-21 -25 -36.5 -29t-39.5 12zM616 -27q-254 0 -406.5 148.5t-152.5 410.5q0 129 42 236t115 177.5t171 109.5t209 39q234 0 374.5 -151t123.5 -402q-3 -49 -14 -65.5t-42 -16.5h-577 q0 -80 54.5 -132.5t150.5 -52.5q54 0 98 15t100 45q48 21 68 -21l94 -168q12 -18 11 -32t-19 -27q-61 -49 -170 -81t-230 -32zM459 643l293 2q0 67 -40.5 108.5t-101.5 41.5q-65 0 -108 -44t-43 -108z" />
<glyph unicode="&#xe9;" horiz-adv-x="1150" d="M600 1212q-23 -16 -39 -11.5t-37 28.5l-65 80q-35 37 0 69l323 303q42 39 76 -4l105 -123q36 -41 -7 -75zM616 -27q-254 0 -406.5 148.5t-152.5 410.5q0 129 42 236t115 177.5t171 109.5t209 39q234 0 374.5 -151t123.5 -402q-3 -49 -14 -65.5t-42 -16.5h-577 q0 -80 54.5 -132.5t150.5 -52.5q54 0 98 15t100 45q48 21 68 -21l94 -168q12 -18 11 -32t-19 -27q-61 -49 -170 -81t-230 -32zM459 643l293 2q0 67 -40.5 108.5t-101.5 41.5q-65 0 -108 -44t-43 -108z" />
<glyph unicode="&#xea;" horiz-adv-x="1150" d="M604 1403l-184 -182q-38 -38 -76 -2l-100 98q-42 39 2 74l323 270q35 28 70 0l324 -270q44 -35 2 -74l-101 -98q-38 -36 -76 2zM616 -27q-254 0 -406.5 148.5t-152.5 410.5q0 129 42 236t115 177.5t171 109.5t209 39q234 0 374.5 -151t123.5 -402q-3 -49 -14 -65.5 t-42 -16.5h-577q0 -80 54.5 -132.5t150.5 -52.5q54 0 98 15t100 45q48 21 68 -21l94 -168q12 -18 11 -32t-19 -27q-61 -49 -170 -81t-230 -32zM459 643l293 2q0 67 -40.5 108.5t-101.5 41.5q-65 0 -108 -44t-43 -108z" />
<glyph unicode="&#xeb;" horiz-adv-x="1150" d="M360 1210q-78 0 -132 53.5t-54 131.5q0 77 54.5 132.5t131.5 55.5q75 0 132 -56t57 -132q0 -77 -56.5 -131t-132.5 -54zM848 1210q-77 0 -130.5 53.5t-53.5 131.5q0 77 54 132.5t130 55.5q78 0 134 -55.5t56 -132.5q0 -78 -56 -131.5t-134 -53.5zM616 -27 q-254 0 -406.5 148.5t-152.5 410.5q0 129 42 236t115 177.5t171 109.5t209 39q234 0 374.5 -151t123.5 -402q-3 -49 -14 -65.5t-42 -16.5h-577q0 -80 54.5 -132.5t150.5 -52.5q54 0 98 15t100 45q48 21 68 -21l94 -168q12 -18 11 -32t-19 -27q-61 -49 -170 -81t-230 -32z M459 643l293 2q0 67 -40.5 108.5t-101.5 41.5q-65 0 -108 -44t-43 -108z" />
<glyph unicode="&#xec;" horiz-adv-x="591" d="M299 1214l-356 267q-41 35 -4 75l102 123q34 43 76 4l323 -303q35 -32 0 -69l-65 -80q-21 -25 -36.5 -29t-39.5 12zM154 0q-56 0 -56 55v957q0 55 56 55h284q54 0 54 -55v-957q0 -55 -54 -55h-284z" />
<glyph unicode="&#xed;" horiz-adv-x="591" d="M289 1212q-23 -16 -39 -11.5t-37 28.5l-66 80q-19 20 -19 36t19 33l324 303q42 39 76 -4l104 -123q36 -42 -6 -75zM154 0q-56 0 -56 55v957q0 55 56 55h284q54 0 54 -55v-957q0 -55 -54 -55h-284z" />
<glyph unicode="&#xee;" horiz-adv-x="591" d="M293 1403l-184 -182q-38 -38 -76 -2l-101 98q-42 39 2 74l324 270q35 28 70 0l323 -270q44 -35 2 -74l-100 -98q-38 -36 -76 2zM154 0q-56 0 -56 55v957q0 55 56 55h284q54 0 54 -55v-957q0 -55 -54 -55h-284z" />
<glyph unicode="&#xef;" horiz-adv-x="591" d="M49 1210q-78 0 -132 53.5t-54 131.5q0 77 54.5 132.5t131.5 55.5q75 0 132 -56t57 -132q0 -77 -56.5 -131t-132.5 -54zM537 1210q-77 0 -131 53.5t-54 131.5q0 77 54.5 132.5t130.5 55.5q78 0 134 -55.5t56 -132.5q0 -78 -56 -131.5t-134 -53.5zM154 0q-56 0 -56 55v957 q0 55 56 55h284q54 0 54 -55v-957q0 -55 -54 -55h-284z" />
<glyph unicode="&#xf0;" horiz-adv-x="1239" d="M897 1350q135 -112 210 -284t75 -390q0 -338 -154.5 -520.5t-433.5 -182.5q-245 0 -391 137.5t-146 368.5q0 106 40 194t107 145t151.5 88.5t176.5 31.5q48 0 91.5 -8.5t71.5 -21t49 -25t30 -21.5l10 -8q0 66 -36.5 131t-100.5 119l-112 -111q-10 -10 -20 -9t-26 15 l-69 68q-28 29 -8 49l77 78q-67 25 -137 25q-55 0 -55 53v209q0 55 55 55q212 0 396 -88l106 106q11 9 20.5 6t24.5 -18l72 -65q27 -29 6 -50zM602 276q86 0 132.5 68.5t45.5 194.5q-63 104 -180 104q-79 0 -123.5 -48t-44.5 -132t45.5 -135.5t124.5 -51.5z" />
<glyph unicode="&#xf1;" horiz-adv-x="1267" d="M817 1221q-60 0 -114 21.5t-100 43t-87 21.5q-76 0 -123 -64q-24 -30 -59 -8l-101 65q-16 10 -17.5 27.5t9.5 30.5q114 166 267 166q56 0 108 -21.5t98.5 -43t89.5 -21.5q73 0 123 65q24 30 58 6l110 -71q28 -21 4 -60q-110 -157 -266 -157zM147 0q-29 0 -42 13t-13 42 v957q0 55 55 55h252q54 0 54 -55v-45l13.5 13.5t39 30.5t64.5 39t88.5 30.5t111.5 13.5q85 0 159 -27t131.5 -78.5t90.5 -133t33 -183.5v-617q0 -55 -56 -55h-284q-56 0 -56 55v586q0 72 -40 113t-103 41q-27 0 -54 -8.5t-45 -21t-32.5 -25t-21.5 -20.5l-7 -9v-656 q0 -29 -13 -42t-42 -13h-283z" />
<glyph unicode="&#xf2;" horiz-adv-x="1218" d="M616 1214l-356 267q-41 35 -4 75l102 123q34 43 76 4l324 -303q19 -17 19 -33t-19 -36l-66 -80q-21 -25 -36.5 -29t-39.5 12zM610 -27q-261 0 -407 147.5t-146 411.5t146 413t407 149q259 0 405 -149t146 -413t-145.5 -411.5t-405.5 -147.5zM610 274q158 0 158 258 q0 259 -158 259q-159 0 -159 -259q0 -258 159 -258z" />
<glyph unicode="&#xf3;" horiz-adv-x="1218" d="M606 1212q-23 -16 -39 -11.5t-37 28.5l-65 80q-35 37 0 69l323 303q42 39 76 -4l105 -123q36 -42 -6 -75zM610 -27q-261 0 -407 147.5t-146 411.5t146 413t407 149q259 0 405 -149t146 -413t-145.5 -411.5t-405.5 -147.5zM610 274q158 0 158 258q0 259 -158 259 q-159 0 -159 -259q0 -258 159 -258z" />
<glyph unicode="&#xf4;" horiz-adv-x="1218" d="M610 1403l-184 -182q-38 -38 -76 -2l-100 98q-42 39 2 74l323 270q35 28 70 0l324 -270q44 -35 2 -74l-101 -98q-22 -20 -39 -18.5t-36 20.5zM610 -27q-261 0 -407 147.5t-146 411.5t146 413t407 149q259 0 405 -149t146 -413t-145.5 -411.5t-405.5 -147.5zM610 274 q158 0 158 258q0 259 -158 259q-159 0 -159 -259q0 -258 159 -258z" />
<glyph unicode="&#xf5;" horiz-adv-x="1218" d="M776 1221q-60 0 -114 21.5t-100 43t-87 21.5q-76 0 -123 -64q-24 -30 -59 -8l-100 65q-17 10 -18.5 27.5t9.5 30.5q114 166 267 166q56 0 108.5 -21.5t99 -43t89.5 -21.5q72 0 122 65q24 30 58 6l110 -71q28 -21 4 -60q-110 -157 -266 -157zM610 -27q-261 0 -407 147.5 t-146 411.5t146 413t407 149q259 0 405 -149t146 -413t-145.5 -411.5t-405.5 -147.5zM610 274q158 0 158 258q0 259 -158 259q-159 0 -159 -259q0 -258 159 -258z" />
<glyph unicode="&#xf6;" horiz-adv-x="1218" d="M367 1210q-78 0 -132.5 53.5t-54.5 131.5q0 77 54.5 132.5t132.5 55.5q75 0 131.5 -56t56.5 -132q0 -77 -56 -131t-132 -54zM854 1210q-77 0 -130.5 53.5t-53.5 131.5q0 77 54 132.5t130 55.5q78 0 134 -55.5t56 -132.5q0 -78 -56 -131.5t-134 -53.5zM610 -27 q-261 0 -407 147.5t-146 411.5t146 413t407 149q259 0 405 -149t146 -413t-145.5 -411.5t-405.5 -147.5zM610 274q158 0 158 258q0 259 -158 259q-159 0 -159 -259q0 -258 159 -258z" />
<glyph unicode="&#xf7;" horiz-adv-x="1038" d="M324 1204q0 84 55.5 141.5t136.5 57.5q82 0 139.5 -58t57.5 -141q0 -81 -57.5 -136.5t-139.5 -55.5t-137 55t-55 137zM115 627q-54 0 -54 55v160q0 55 54 55h809q53 0 53 -55v-160q0 -55 -53 -55h-809zM324 313q0 84 55.5 141.5t136.5 57.5q82 0 139.5 -58t57.5 -141 q0 -81 -57.5 -136.5t-139.5 -55.5t-137 55t-55 137z" />
<glyph unicode="&#xf8;" horiz-adv-x="1218" d="M1032 928q129 -147 129 -396q0 -264 -145.5 -411.5t-405.5 -147.5q-141 0 -248 43l-10 -14q-34 -45 -69 -45h-172q-28 0 -34.5 15.5t13.5 41.5l94 127q-127 149 -127 391q0 264 146 413t407 149q136 0 242 -41l12 16q18 26 37 35.5t47 9.5h158q28 0 33.5 -15.5 t-13.5 -41.5zM426 535q0 -42 2 -60l256 348q-33 17 -76 17q-182 0 -182 -305zM608 219q183 0 183 316q0 34 -3 61l-262 -356q38 -21 82 -21z" />
<glyph unicode="&#xf9;" horiz-adv-x="1247" d="M621 1214l-357 267q-41 35 -4 75l102 123q34 43 76 4l324 -303q19 -17 19 -33t-19 -36l-66 -80q-21 -25 -36 -29t-39 12zM1098 1067q55 0 55 -55v-957q0 -55 -55 -55h-252q-29 0 -42 13t-13 42v45l-13.5 -13.5t-38.5 -30.5t-63.5 -39t-86.5 -30.5t-108 -13.5 q-81 0 -153 28t-127 81t-87 135t-32 184v611q0 55 55 55h283q55 0 55 -55v-586q0 -70 35 -112t94 -42q38 0 76.5 17.5t57.5 34.5l20 18v670q0 55 55 55h285z" />
<glyph unicode="&#xfa;" horiz-adv-x="1247" d="M610 1212q-23 -16 -38.5 -11.5t-36.5 28.5l-66 80q-35 37 0 69l324 303q41 38 75 -4l105 -123q36 -42 -6 -75zM1098 1067q55 0 55 -55v-957q0 -55 -55 -55h-252q-29 0 -42 13t-13 42v45l-13.5 -13.5t-38.5 -30.5t-63.5 -39t-86.5 -30.5t-108 -13.5q-81 0 -153 28t-127 81 t-87 135t-32 184v611q0 55 55 55h283q55 0 55 -55v-586q0 -70 35 -112t94 -42q38 0 76.5 17.5t57.5 34.5l20 18v670q0 55 55 55h285z" />
<glyph unicode="&#xfb;" horiz-adv-x="1247" d="M614 1403l-184 -182q-38 -38 -76 -2l-100 98q-42 39 2 74l324 270q34 28 69 0l324 -270q44 -35 2 -74l-101 -98q-22 -20 -39 -18.5t-36 20.5zM1098 1067q55 0 55 -55v-957q0 -55 -55 -55h-252q-29 0 -42 13t-13 42v45l-13.5 -13.5t-38.5 -30.5t-63.5 -39t-86.5 -30.5 t-108 -13.5q-81 0 -153 28t-127 81t-87 135t-32 184v611q0 55 55 55h283q55 0 55 -55v-586q0 -70 35 -112t94 -42q38 0 76.5 17.5t57.5 34.5l20 18v670q0 55 55 55h285z" />
<glyph unicode="&#xfc;" horiz-adv-x="1247" d="M371 1210q-78 0 -132.5 53.5t-54.5 131.5q0 77 54.5 132.5t132.5 55.5q75 0 131.5 -56t56.5 -132q0 -77 -56 -131t-132 -54zM858 1210q-77 0 -130.5 53.5t-53.5 131.5q0 77 54 132.5t130 55.5q78 0 134.5 -55.5t56.5 -132.5t-56 -131t-135 -54zM1098 1067q55 0 55 -55 v-957q0 -55 -55 -55h-252q-29 0 -42 13t-13 42v45l-13.5 -13.5t-38.5 -30.5t-63.5 -39t-86.5 -30.5t-108 -13.5q-81 0 -153 28t-127 81t-87 135t-32 184v611q0 55 55 55h283q55 0 55 -55v-586q0 -70 35 -112t94 -42q38 0 76.5 17.5t57.5 34.5l20 18v670q0 55 55 55h285z" />
<glyph unicode="&#xfd;" horiz-adv-x="1216" d="M612 1212q-23 -16 -38.5 -11.5t-36.5 28.5l-66 80q-19 20 -19 36t19 33l324 303q41 38 75 -4l105 -123q36 -42 -6 -75zM260 -580q-155 0 -272 68q-40 22 -21 68l82 186q5 16 19 24.5t34 0.5q60 -25 109 -25q61 0 96.5 33.5t63.5 95.5l47 131l-387 1012q-9 25 4 39t41 14 h284q47 0 58 -43l198 -647l199 647q11 43 57 43h285q25 0 39 -14t6 -39l-459 -1207q-76 -194 -191 -290.5t-292 -96.5z" />
<glyph unicode="&#xfe;" horiz-adv-x="1234" d="M135 -512q-53 0 -53 55v1938q0 55 53 55h285q55 0 55 -55v-510q4 4 11 11.5t31.5 26t53 33t75.5 26t97 11.5q194 0 314.5 -147.5t120.5 -396.5q0 -242 -122.5 -398.5t-322.5 -156.5q-48 0 -92.5 10.5t-73 26t-50.5 31t-32 26.5l-10 10v-541q0 -55 -55 -55h-285zM610 283 q87 0 137 65t50 180q0 117 -50.5 183.5t-130.5 66.5q-40 0 -75 -18t-51 -36l-15 -19v-369q6 -6 17.5 -15t46.5 -23.5t71 -14.5z" />
<glyph unicode="&#xff;" horiz-adv-x="1216" d="M373 1210q-78 0 -132.5 53.5t-54.5 131.5q0 77 54.5 132.5t132.5 55.5q75 0 131.5 -56t56.5 -132q0 -77 -56 -131t-132 -54zM860 1210q-77 0 -130.5 53.5t-53.5 131.5q0 77 54 132.5t130 55.5q78 0 134.5 -55.5t56.5 -132.5t-56 -131t-135 -54zM260 -580q-155 0 -272 68 q-40 22 -21 68l82 186q5 16 19 24.5t34 0.5q60 -25 109 -25q61 0 96.5 33.5t63.5 95.5l47 131l-387 1012q-9 25 4 39t41 14h284q47 0 58 -43l198 -647l199 647q11 43 57 43h285q25 0 39 -14t6 -39l-459 -1207q-76 -194 -191 -290.5t-292 -96.5z" />
<glyph unicode="&#x152;" horiz-adv-x="2201" d="M2066 324q54 0 54 -56v-213q0 -55 -54 -55h-895q-42 0 -51 35q-142 -62 -317 -62q-166 0 -303 54.5t-233.5 155t-150 250.5t-53.5 335t53.5 335t150 250.5t233.5 155t303 54.5q175 0 317 -62q9 35 51 35h875q53 0 53 -55v-213q0 -56 -53 -56h-518v-262h436q53 0 53 -53 v-207q0 -55 -53 -55h-432q0 -13 -4 -37v-274h538zM803 295q144 0 227.5 122t83.5 351t-83.5 351t-227.5 122q-146 0 -230 -122t-84 -351t84 -351t230 -122z" />
<glyph unicode="&#x153;" horiz-adv-x="1861" d="M57 532q0 264 146 413t407 149q224 0 361 -121q137 121 334 121q115 0 210 -39t161 -109.5t99.5 -175t26.5 -229.5q-3 -50 -13 -66t-40 -16h-578q0 -80 53.5 -132.5t149.5 -52.5q37 0 75.5 9.5t62.5 20t63 30.5q44 21 65 -21l95 -168q11 -18 10 -32t-19 -27 q-61 -49 -169.5 -81t-229.5 -32q-221 0 -358 119q-134 -119 -359 -119q-261 0 -407 147.5t-146 411.5zM451 532q0 -258 159 -258q158 0 158 258q0 259 -158 259q-159 0 -159 -259zM1176 643l282 2q0 66 -38.5 106t-98.5 40q-63 0 -104 -42.5t-41 -105.5z" />
<glyph unicode="&#x178;" horiz-adv-x="1337" d="M424 1661q-78 0 -132 53t-54 131q0 77 54.5 133t131.5 56q75 0 131.5 -56.5t56.5 -132.5q0 -77 -56 -130.5t-132 -53.5zM911 1661q-77 0 -130.5 53t-53.5 131q0 77 54 133t130 56q78 0 134.5 -56t56.5 -133t-56 -130.5t-135 -53.5zM924 1493q21 43 65 43h305q63 0 33 -55 l-453 -832v-594q0 -55 -55 -55h-303q-53 0 -53 55v594l-453 832q-27 55 33 55h305q46 0 64 -43l256 -504z" />
<glyph unicode="&#x2c6;" horiz-adv-x="1036" d="M510 1577l-184 -182q-38 -38 -76 -2l-100 98q-42 39 2 74l323 270q35 28 70 0l323 -270q44 -35 2 -74l-100 -98q-38 -36 -76 2z" />
<glyph unicode="&#x2dc;" horiz-adv-x="1052" d="M621 1473q-49 0 -95.5 14t-76 31t-68 31t-72.5 14q-76 0 -127 -68q-24 -30 -61 -8l-105 67q-16 11 -17.5 29.5t9.5 32.5q121 172 277 172q58 0 112 -22.5t102 -45t93 -22.5q75 0 127 67q22 31 59 9l113 -76q31 -21 6 -62q-114 -163 -276 -163z" />
<glyph unicode="&#x2000;" horiz-adv-x="1085" />
<glyph unicode="&#x2001;" horiz-adv-x="2171" />
<glyph unicode="&#x2002;" horiz-adv-x="1085" />
<glyph unicode="&#x2003;" horiz-adv-x="2171" />
<glyph unicode="&#x2004;" horiz-adv-x="723" />
<glyph unicode="&#x2005;" horiz-adv-x="542" />
<glyph unicode="&#x2006;" horiz-adv-x="361" />
<glyph unicode="&#x2007;" horiz-adv-x="361" />
<glyph unicode="&#x2008;" horiz-adv-x="271" />
<glyph unicode="&#x2009;" horiz-adv-x="434" />
<glyph unicode="&#x200a;" horiz-adv-x="120" />
<glyph unicode="&#x2010;" horiz-adv-x="806" d="M113 420q-52 0 -52 55v164q0 55 52 55h583q49 0 49 -55v-164q0 -55 -49 -55h-583z" />
<glyph unicode="&#x2011;" horiz-adv-x="806" d="M113 420q-52 0 -52 55v164q0 55 52 55h583q49 0 49 -55v-164q0 -55 -49 -55h-583z" />
<glyph unicode="&#x2012;" horiz-adv-x="806" d="M113 420q-52 0 -52 55v164q0 55 52 55h583q49 0 49 -55v-164q0 -55 -49 -55h-583z" />
<glyph unicode="&#x2013;" horiz-adv-x="1290" d="M115 420q-54 0 -54 53v166q0 55 54 55h1059q55 0 55 -55v-166q0 -53 -55 -53h-1059z" />
<glyph unicode="&#x2014;" horiz-adv-x="1556" d="M115 420q-54 0 -54 53v166q0 55 54 55h1325q55 0 55 -55v-166q0 -53 -55 -53h-1325z" />
<glyph unicode="&#x2018;" horiz-adv-x="520" d="M459 1026q0 -87 -54 -144t-141 -57q-82 0 -139 57t-57 160q0 116 68 261.5t153 240.5q30 34 51 19l76 -56q27 -19 4 -53q-1 -1 -37 -53.5t-56 -92.5t-20 -67q0 -32 37 -47q115 -46 115 -168z" />
<glyph unicode="&#x2019;" horiz-adv-x="520" d="M59 1364q0 87 54 144t141 57q82 0 139.5 -57t57.5 -160q0 -116 -68.5 -261t-153.5 -241q-30 -34 -51 -19l-76 56q-27 19 -4 53q1 1 37 53.5t56 92.5t20 67q0 32 -37 47q-115 46 -115 168z" />
<glyph unicode="&#x201a;" horiz-adv-x="512" d="M59 174q0 87 54 144t141 57q82 0 139.5 -57t57.5 -160q0 -116 -68.5 -261t-153.5 -241q-29 -33 -51 -18l-76 55q-27 19 -4 53q1 1 37 53.5t56 92.5t20 67q0 32 -37 47q-115 46 -115 168z" />
<glyph unicode="&#x201c;" horiz-adv-x="976" d="M457 1022q0 -87 -54 -144t-141 -57q-82 0 -139 57t-57 160q0 116 68 261.5t153 240.5q30 34 51 19l76 -56q27 -19 4 -53q-1 -1 -37 -53.5t-56 -92.5t-20 -67q0 -32 37 -47q115 -46 115 -168zM920 1022q0 -87 -54 -144t-141 -57q-82 0 -139.5 57t-57.5 160q0 116 68.5 261 t153.5 241q30 34 51 19l76 -56q27 -19 4 -53q-1 -1 -37 -53.5t-56 -92.5t-20 -67q0 -32 37 -47q115 -46 115 -168z" />
<glyph unicode="&#x201d;" horiz-adv-x="980" d="M59 1364q0 87 54 144t141 57q82 0 139.5 -57t57.5 -160q0 -116 -68.5 -261t-153.5 -241q-30 -34 -51 -19l-76 56q-27 19 -4 53q1 1 37 53.5t56 92.5t20 67q0 32 -37 47q-115 46 -115 168zM522 1364q0 87 54 144t141 57q82 0 139 -57t57 -160q0 -116 -68 -261.5 t-153 -240.5q-30 -34 -51 -19l-76 56q-27 19 -4 53q1 1 37 53.5t56 92.5t20 67q0 32 -37 47q-115 46 -115 168z" />
<glyph unicode="&#x201e;" horiz-adv-x="980" d="M59 164q0 87 54 144t141 57q82 0 139.5 -57.5t57.5 -160.5q0 -116 -68.5 -260.5t-153.5 -240.5q-30 -34 -51 -19l-76 56q-27 19 -4 53q1 1 37 53.5t56 92.5t20 67q0 32 -37 47q-115 46 -115 168zM522 164q0 87 54 144t141 57q82 0 139 -57.5t57 -160.5q0 -116 -68 -261 t-153 -240q-30 -34 -51 -19l-76 56q-27 19 -4 53q1 1 37 53.5t56 92.5t20 67q0 32 -37 47q-115 46 -115 168z" />
<glyph unicode="&#x2022;" horiz-adv-x="655" d="M12 723q0 126 88 213.5t213 87.5t213 -87.5t88 -213.5q0 -125 -88 -211t-213 -86t-213 86t-88 211z" />
<glyph unicode="&#x2026;" horiz-adv-x="1556" d="M59 176q0 83 55.5 141t137.5 58q83 0 141 -58t58 -141q0 -81 -57.5 -136.5t-141.5 -55.5q-82 0 -137.5 55t-55.5 137zM582 176q0 83 56 141t138 58t139.5 -58t57.5 -141q0 -81 -57.5 -136.5t-139.5 -55.5t-138 55t-56 137zM1106 176q0 83 56 141t138 58t139.5 -58 t57.5 -141q0 -81 -57.5 -136.5t-139.5 -55.5t-138 55t-56 137z" />
<glyph unicode="&#x202f;" horiz-adv-x="434" />
<glyph unicode="&#x2039;" horiz-adv-x="585" d="M57 489q-36 36 0 74l420 395q22 17 36.5 9.5t14.5 -23.5v-219q0 -47 -34 -74l-136 -123l136 -127q34 -34 34 -75v-220q0 -16 -14 -23t-37 11z" />
<glyph unicode="&#x203a;" horiz-adv-x="585" d="M528 489l-419 -395q-23 -18 -37.5 -11t-14.5 23v220q0 40 35 75l135 127l-135 123q-35 28 -35 74v219q0 16 15 23.5t37 -9.5l419 -395q36 -38 0 -74z" />
<glyph unicode="&#x205f;" horiz-adv-x="542" />
<glyph unicode="&#x20ac;" horiz-adv-x="1445" d="M1239 385l147 -168q25 -32 0 -57q-185 -185 -489 -185q-276 0 -464 144.5t-249 404.5h-143q-55 0 -55 54v94q0 55 55 55h117v43q0 35 2 51h-119q-55 0 -55 56v94q0 53 55 53h145q63 257 250.5 398t460.5 141q302 0 489 -183q25 -29 0 -57l-147 -170q-22 -25 -57 0 q-121 88 -248 88q-109 0 -188.5 -55.5t-120.5 -161.5h303q55 0 55 -53v-94q0 -56 -55 -56h-342q-2 -16 -2 -51v-43h344q55 0 55 -55v-94q0 -54 -55 -54h-305q40 -110 119 -167.5t192 -57.5q130 0 248 86q35 25 57 0z" />
<glyph unicode="&#x2122;" horiz-adv-x="1345" d="M61 1505q0 31 29 31h408q30 0 30 -31v-114q0 -14 -8.5 -22.5t-21.5 -8.5h-113v-371q0 -35 -33 -35h-116q-31 0 -31 35v371h-115q-13 0 -21 8.5t-8 22.5v114zM883 954q-22 0 -31 27l-90 250l-25 -242q-2 -14 -10.5 -24.5t-21.5 -10.5h-121q-29 0 -23 33l64 518q4 31 32 31 h101q27 0 37 -29l127 -325l127 325q10 29 36 29h101q27 0 35 -31l63 -518q2 -13 -3.5 -23t-18.5 -10h-121q-14 0 -23.5 10.5t-9.5 24.5l-25 242l-90 -250q-9 -27 -32 -27h-78z" />
<glyph unicode="&#x25fc;" horiz-adv-x="1064" d="M0 1065h1065v-1065h-1065v1065z" />
<glyph unicode="&#xfb01;" horiz-adv-x="1421" d="M229 0q-53 0 -53 55v725h-94q-55 0 -55 56v176q0 55 55 55h94v86q0 239 163.5 386t430.5 147q292 0 496 -216q16 -18 22.5 -30.5t3.5 -26t-18 -27.5l-141 -141q-21 -21 -37 -22.5t-35 16.5q-1 1 -11 12.5t-16.5 17.5t-20 19.5t-25.5 22.5t-29 21t-34.5 19.5t-37.5 15.5 t-43 11.5t-47 3.5q-102 0 -165 -66.5t-63 -176.5v-72h713q55 0 55 -55v-957q0 -55 -55 -55h-285q-55 0 -55 55v725h-373v-725q0 -55 -55 -55h-285z" />
<glyph unicode="&#xfb02;" horiz-adv-x="1628" d="M229 0q-53 0 -53 55v725h-94q-55 0 -55 56v176q0 55 55 55h92v86q0 239 164 386t432 147q226 0 412 -150l78 51q26 17 51.5 3t25.5 -46v-1034q0 -89 48.5 -148t134.5 -59h8q53 0 53 -55v-193q0 -55 -55 -55h-86q-235 0 -366.5 132t-131.5 368v280h-373v-725 q0 -55 -55 -55h-285zM569 1067h373v285q-48 30 -117 30q-114 0 -185 -68.5t-71 -174.5v-72z" />
<glyph unicode="&#xfb03;" horiz-adv-x="2199" d="M27 836v176q0 55 55 55h88v53q0 211 149.5 343t376.5 132q41 0 79 -4.5t70 -14.5t56 -19t50 -24.5t38.5 -23.5t34 -24t25.5 -19q7 9 19.5 24t59 52.5t100 66.5t141 53t183.5 24q288 0 492 -216q16 -18 22.5 -30.5t3.5 -26t-18 -27.5l-141 -141q-21 -21 -37 -22.5 t-35 16.5q-1 1 -10 11t-14 15.5t-17 17t-21.5 19.5t-24.5 19.5t-28.5 19t-31.5 16t-35.5 13.5t-38 8.5t-41.5 3.5q-101 0 -165 -67t-64 -176v-72h712q56 0 56 -55v-957q0 -55 -56 -55h-284q-56 0 -56 55v725h-372v-725q0 -55 -56 -55h-282q-56 0 -56 55v725h-391v-725 q0 -55 -53 -55h-285q-55 0 -55 55v725h-88q-55 0 -55 56zM563 1067h391v107q-3 5 -8 13t-24.5 28.5t-41 36.5t-57.5 29t-75 13q-83 0 -134 -48.5t-51 -127.5v-51z" />
<glyph unicode="&#xfb04;" horiz-adv-x="2406" d="M27 836v176q0 55 55 55h88v53q0 211 149.5 343t376.5 132q41 0 79 -4.5t70 -14.5t56 -19t50 -24.5t38.5 -23.5t34 -24t25.5 -19q7 9 19.5 24t59 52.5t100 66.5t141 53t183.5 24q232 0 408 -150l78 51q26 17 52 3t26 -46v-1034q0 -89 48 -148t134 -59h8q53 0 53 -55v-193 q0 -55 -55 -55h-86q-235 0 -366.5 132t-131.5 368v280h-372v-725q0 -55 -56 -55h-282q-56 0 -56 55v725h-391v-725q0 -55 -53 -55h-285q-55 0 -55 55v725h-88q-55 0 -55 56zM1348 1067h372v285q-46 30 -116 30q-113 0 -184.5 -69t-71.5 -174v-72zM563 1067h389v107 q-3 5 -8 13t-24 28.5t-41 36.5t-58.5 29t-75.5 13q-82 0 -132 -48.5t-50 -127.5v-51z" />
</font>
</defs>
</svg>
