<?xml version="1.0" standalone="no"?>
<!DOCTYPE svg PUBLIC "-//W3C//DTD SVG 1.1//EN" "http://www.w3.org/Graphics/SVG/1.1/DTD/svg11.dtd" >
<svg xmlns="http://www.w3.org/2000/svg">
<metadata></metadata>
<defs>
<font id="kaleidossmooth" horiz-adv-x="1028" >
<font-face units-per-em="2048" ascent="1556" descent="-492" />
<missing-glyph horiz-adv-x="391" />
<glyph horiz-adv-x="0" />
<glyph horiz-adv-x="682" />
<glyph unicode="&#xd;" horiz-adv-x="1228" />
<glyph unicode=" "  horiz-adv-x="391" />
<glyph unicode="&#x09;" horiz-adv-x="391" />
<glyph unicode="&#xa0;" horiz-adv-x="391" />
<glyph unicode="!" horiz-adv-x="653" d="M383 382q-23 0 -40.5 24t-17.5 60q0 25 8 48q27 73 203.5 489t197.5 475q12 32 45 32q45 0 96 -44.5t51 -87.5q0 -14 -6 -24q-45 -78 -241.5 -452t-250.5 -485q-17 -35 -45 -35zM209 -2q-46 0 -75.5 36.5t-29.5 84.5q0 62 45.5 98t101.5 36q46 0 71.5 -26t25.5 -69 q0 -64 -42.5 -112t-96.5 -48z" />
<glyph unicode="&#x22;" horiz-adv-x="632" d="M492 1097q-22 0 -48.5 21t-26.5 40q0 6 11 26q20 40 100 181t98 186q11 20 33 20q26 0 67.5 -26.5t42.5 -58.5q0 -21 -55 -116t-123.5 -184t-98.5 -89zM745 1097q-20 0 -45.5 21t-25.5 40q0 9 11 26q78 117 209 367q11 20 33 20q27 0 67 -26.5t39 -58.5q0 -21 -58 -116 t-129 -184t-101 -89z" />
<glyph unicode="#" horiz-adv-x="1228" d="M398 123q-20 0 -37.5 30.5t-17.5 68.5q0 32 11 52l76 143q8 17 8 19q0 7 -12 7h-67q-30 0 -52 34t-22 67q0 35 41 35h175q13 0 20 13l73 140l9 21q0 7 -9 7h-71q-24 0 -51 31t-27 60q0 45 45 45h180q14 0 21 13l152 292q7 15 25 15q25 0 48.5 -35t16.5 -70 q-4 -18 -11 -31l-80 -155q-10 -17 -10 -21q0 -8 10 -8h163q14 0 21 13l153 292q7 15 24 15q23 0 45 -25t22 -61q0 -12 -2 -19q-4 -18 -11 -31l-80 -155q-10 -20 -10 -23q0 -6 10 -6h28q44 0 68.5 -36t24.5 -72q0 -28 -28 -28h-170q-13 0 -20 -13l-71 -136q0 -1 -3 -6.5 t-5 -11t-2 -7.5q0 -7 10 -7h32q34 0 63.5 -38t29.5 -72q0 -26 -28 -26h-173q-14 0 -21 -13l-151 -287q-9 -20 -27 -20q-20 0 -38 30.5t-18 68.5q0 32 11 52l80 152q4 7 4 12t-8 5h-167q-14 0 -21 -13l-151 -287q-9 -20 -28 -20zM674 579h162q13 0 20 13l77 145q5 9 5 15 q0 8 -13 8h-160q-13 0 -20 -13l-69 -133q-11 -24 -11 -27q0 -8 9 -8z" />
<glyph unicode="$" horiz-adv-x="864" d="M324 -81q-20 0 -40.5 28t-20.5 61q0 12 3 22q10 39 44 123q1 2 1 4q0 7 -8 10q-76 24 -105 71t-29 90q0 62 41 96t73 34q9 0 14 -5t5 -10q0 -7 -16 -22.5t-16 -36.5q0 -32 33 -55t63 -23q8 0 11 8q37 85 40 92q45 102 72 167q1 2 1 6q0 6 -6 9q-72 42 -114 97t-42 140 t42 171t108.5 151t151 108.5t166.5 48.5q8 0 13 9q71 158 87 189q9 17 19 17q15 0 27.5 -27t12.5 -61q0 -24 -5 -40q-3 -10 -39 -98q-4 -9 5 -15q39 -27 54 -73q2 -5 4 -5q3 0 7 5q31 49 39 55q8 7 19 7q29 0 61.5 -37t32.5 -67q0 -11 -7 -20q-39 -48 -107.5 -162 t-111.5 -216q-7 -18 -24 -18q-22 0 -45 28t-23 59q0 84 120 302q1 2 1 4q0 4 -5 7q-32 18 -64 18q-10 0 -13 -8q-14 -33 -87 -206t-114 -271q-2 -4 -2 -5q0 -7 7 -10q40 -21 65.5 -37t54 -42.5t42.5 -61t14 -77.5q0 -124 -113 -207.5t-278 -88.5q-10 0 -13 -9 q-34 -83 -86 -207q-7 -16 -20 -16zM549 727q6 0 9 7q15 34 72.5 168t88.5 205q1 2 1 4q0 6 -7 6q-6 0 -13 -4q-87 -53 -151.5 -136t-64.5 -149q0 -58 58 -99q2 -2 7 -2zM513 312q4 0 7 1q67 16 110.5 49.5t43.5 76.5q0 46 -74 87q-4 2 -6 2q-6 0 -9 -7q-10 -24 -82 -198 q-1 -1 -1 -4q0 -7 11 -7z" />
<glyph unicode="%" horiz-adv-x="1265" d="M378 69q-15 0 -25 21.5t-10 52.5q0 59 29 105q26 41 75.5 110t125.5 174.5t133 186.5q97 141 159 228q3 5 3 8q0 4 -4 4q-1 0 -7 -2q-53 -28 -107 -31q-9 0 -14 -8q-59 -89 -127 -144t-132 -55q-62 0 -107.5 51.5t-45.5 130.5q0 91 54.5 216.5t143.5 221.5t171 96 q84 0 121 -87q2 -5 9 -12q32 -28 32 -96q0 -79 -47 -188q-1 -2 -1 -5q-2 -7 5 -7q4 0 6 1q56 24 125 77.5t118 106.5q103 143 153 209q22 28 35 28q21 0 21 -49q0 -40 -13 -67q-6 -13 -15.5 -30t-26 -43.5t-33 -52t-45 -67.5t-52.5 -77.5t-65 -95t-73 -105.5t-85.5 -124 t-94.5 -137q-141 -205 -356 -521q-18 -24 -33 -24zM492 815q61 0 151 147q2 3 2 9v6q-3 9 -3 21q0 42 29.5 93.5t67.5 83.5q5 5 8 12q18 53 18 86q0 38 -30 38q-47 0 -114.5 -84t-116 -190t-48.5 -168q0 -54 36 -54zM860 48q-62 0 -107.5 52t-45.5 131q0 91 54.5 216.5 t143.5 221.5t171 96q84 0 122 -88q1 -3 9 -11q31 -27 31 -96q0 -93 -57.5 -216t-148 -214.5t-172.5 -91.5zM875 145q44 0 108 85t112.5 194.5t53.5 178.5v4q0 33 -30 33q-47 0 -114.5 -83.5t-116 -189.5t-48.5 -168q0 -54 35 -54z" />
<glyph unicode="&#x26;" horiz-adv-x="1155" d="M519 -54q-91 0 -161.5 27.5t-112 74t-62.5 102.5t-21 118q0 106 58 200.5t148.5 151t190.5 66.5q8 1 8 4t-6 6q-116 65 -116 213q0 98 50.5 203t128.5 186.5t177 134.5t191 53q101 0 170 -92q2 -3 6 -3q6 0 9 5q45 79 48 84q13 22 37 22q40 0 84.5 -48t44.5 -89 q0 -16 -8 -25q-62 -78 -160 -262t-141 -318q-7 -15 -23 -15q-35 0 -65.5 34t-30.5 83q0 65 46 185t108 241q1 2 1 5q0 14 -31 14q-83 0 -167.5 -49.5t-144.5 -121.5t-98 -153t-38 -143q0 -31 10.5 -51.5t29.5 -29.5t37.5 -12.5t43.5 -3.5q12 0 31 1t26 1q30 0 30 -36 q0 -30 -22.5 -61.5t-51.5 -31.5q-92 -13 -173 -57t-133.5 -103.5t-82.5 -125t-30 -123.5q0 -60 36 -105.5t107 -45.5q56 0 114 30t103 76.5t79.5 101t50.5 105.5v4q0 8 -8 8h-3q-100 -18 -112 -18q-33 0 -60.5 37.5t-27.5 72.5q0 33 30 33q62 0 208 17q174 21 244 21 q35 0 65 -44t30 -77q0 -21 -15 -21h-5q-6 0 -19.5 0.5t-34.5 1t-60 0.5h-87q-8 0 -42 -4q-9 -2 -9 -6t5 -8q46 -38 46 -90t-33.5 -112t-92 -113.5t-150 -89t-194.5 -35.5z" />
<glyph unicode="'" horiz-adv-x="368" d="M492 1097q-22 0 -48.5 21t-26.5 40q0 6 11 26q20 40 100 181t98 186q11 20 33 20q26 0 67.5 -26.5t42.5 -58.5q0 -21 -55 -116t-123.5 -184t-98.5 -89z" />
<glyph unicode="(" horiz-adv-x="559" d="M242 -56q-74 0 -112.5 68t-38.5 197q0 175 60 381t161 406q129 255 280.5 424.5t262.5 169.5q57 0 94.5 -42t37.5 -83q0 -14 -11 -17q-121 -32 -261.5 -194t-253.5 -393q-90 -185 -142.5 -377.5t-52.5 -362.5q0 -71 15 -136q4 -10 4 -16q0 -25 -43 -25z" />
<glyph unicode=")" horiz-adv-x="837" d="M194 -56q-57 0 -95 42t-38 83q0 14 12 17q108 28 232.5 161.5t232.5 330.5q110 201 177 421t67 414q0 71 -15 136q-4 10 -4 16q0 25 43 25q74 0 112.5 -67.5t38.5 -196.5q0 -198 -76 -435t-198 -453q-123 -218 -256.5 -356t-232.5 -138z" />
<glyph unicode="*" horiz-adv-x="651" d="M596 1058q-24 0 -50 22.5t-17 36.5q13 21 29.5 44.5t32.5 46.5t22 32q1 2 1 5q0 4 -9 4h-58q-43 0 -73.5 27t-30.5 50q0 15 15 18q45 5 145 10q9 0 9 3t-5 10l-78 117q-8 14 -8 18q0 15 23 15q36 0 82 -52l61 -71q3 -4 7 -4q6 0 10 6q66 106 100 151q6 9 15 9 q15 0 28.5 -22.5t13.5 -45.5q0 -11 -5 -19l-57 -95q-6 -9 -6 -13q0 -6 11 -6l69 -3q26 -2 47.5 -25t21.5 -52q0 -16 -28 -16l-125 -4q-11 0 -11 -9q0 -5 4 -10q43 -60 76 -119q3 -6 3 -9q0 -21 -44 -21q-39 0 -54 21q-9 12 -27 40.5t-27 41.5q-4 5 -8 5q-5 0 -8 -5 q-48 -80 -77 -123q-6 -9 -20 -9z" />
<glyph unicode="+" horiz-adv-x="1124" d="M572 177q-31 9 -60.5 42t-29.5 67q0 13 6 25l63 148q1 2 1 6q0 7 -10 7q-41 -1 -93.5 -2t-84.5 -2t-40 -1q-22 0 -22 38q0 41 29.5 88t68.5 47h220q8 0 12 9l44 101q15 35 37.5 97.5t34.5 87.5q8 17 29 17q34 0 73.5 -34t39.5 -67q0 -7 -4 -17q-28 -63 -79 -180 q-1 -2 -1 -6q0 -8 10 -8h44q28 0 86 2t85 2t27 -39q0 -43 -24.5 -88.5t-56.5 -45.5q-17 0 -96 2t-140 2q-10 0 -13 -9q-109 -270 -114 -280q-6 -13 -24 -13q-10 0 -18 4z" />
<glyph unicode="," horiz-adv-x="493" d="M78 -145q-23 0 -51 18.5t-28 40.5q0 12 10 23q30 31 71.5 122t74.5 179q9 23 37 23q40 0 85 -32t45 -69q0 -41 -46 -115t-105 -132t-93 -58z" />
<glyph unicode="-" horiz-adv-x="985" d="M367 478q-23 0 -23 40q0 43 30.5 91t70.5 48h270q29 0 89 2t88 2q26 0 26 -41q0 -44 -24.5 -91t-57.5 -47q-23 0 -104.5 2t-130.5 2q-60 0 -143.5 -4t-90.5 -4z" />
<glyph unicode="." horiz-adv-x="493" d="M207 -2q-46 0 -75.5 36.5t-29.5 84.5q0 62 45.5 98t101.5 36q46 0 71.5 -26t25.5 -69q0 -64 -42.5 -112t-96.5 -48z" />
<glyph unicode="/" horiz-adv-x="669" d="M143 -84q-26 0 -51 43t-25 101q0 50 30 106q44 82 318 532q36 59 146 246t196.5 326t156.5 232q17 23 32 23q20 0 30.5 -33.5t10.5 -85.5q0 -83 -34 -144q-19 -34 -62.5 -106t-144 -240.5t-223.5 -377.5q-354 -599 -361 -611q-9 -11 -19 -11z" />
<glyph unicode="0" horiz-adv-x="935" d="M397 -2q-51 0 -97.5 18t-88 55.5t-66 106t-24.5 159.5q0 124 43.5 282t119.5 311.5t169.5 284t204.5 211t213 80.5q53 0 102.5 -22t91 -63.5t66.5 -111t25 -155.5q0 -95 -30 -219t-81 -251.5t-124.5 -251.5t-155.5 -220t-178.5 -155t-189.5 -59zM393 186q85 0 190 118.5 t188.5 282t141 339.5t57.5 288q0 119 -82 119q-84 0 -190 -121.5t-189.5 -287t-141.5 -340.5t-58 -279q0 -119 84 -119z" />
<glyph unicode="1" horiz-adv-x="632" d="M320 -13q-43 0 -87.5 40.5t-44.5 87.5q0 21 9 38q51 101 211 424.5t164 336.5q3 9 3 15t-5 6q-1 0 -19 -12q-125 -98 -234 -98q-29 0 -44.5 16.5t-15.5 29.5q0 21 24 39q349 207 534 583q10 24 38 24q50 0 100.5 -49t50.5 -83q0 -13 -6 -24q-3 -7 -89 -182t-181.5 -372 t-203.5 -430t-161 -364q-10 -26 -43 -26z" />
<glyph unicode="2" horiz-adv-x="874" d="M102 -9q-46 0 -80.5 43t-34.5 104q0 58 35 74q56 30 112 69q391 275 623.5 551.5t232.5 468.5q0 41 -13 58t-46 17q-73 0 -161.5 -65t-163 -172t-107.5 -221q-9 -54 -53 -54q-36 0 -69.5 40.5t-33.5 100.5q0 50 26.5 115.5t77 133t115 124.5t149.5 93.5t171 36.5 q75 0 133.5 -27.5t91.5 -72t49.5 -94t16.5 -100.5q0 -190 -215 -456t-574 -503q-13 -12 -13 -18q0 -8 11 -8q10 0 71.5 6.5t101.5 6.5q34 0 59 -4q54 -8 88.5 -58t34.5 -98q0 -50 -37 -50q-14 0 -28 3q-43 13 -149 13q-215 0 -363 -44q-43 -13 -58 -13z" />
<glyph unicode="3" horiz-adv-x="911" d="M318 -19q-49 0 -92.5 6.5t-87 24t-75 44t-51 70.5t-19.5 101q0 49 19.5 77.5t43.5 28.5q14 0 27 -10t16 -27q5 -35 26 -60.5t52 -37.5t61 -17.5t62 -5.5q103 0 200.5 48t159 128.5t61.5 167.5q0 24 -5.5 43t-13.5 31t-22 21t-24.5 13t-28 6t-26 2.5t-25.5 0t-20 -0.5 q-45 0 -122 -17q-16 -5 -28 -5q-20 0 -33.5 17.5t-13.5 39.5q0 65 38.5 107t82.5 42q18 0 84 6q81 7 155 41t126 82.5t90.5 104.5t57 107.5t18.5 90.5q1 40 -22.5 73.5t-83.5 32.5q-102 1 -216 -95t-149 -190q-9 -44 -54 -44q-35 0 -63 37t-28 99q0 80 65 156.5t170.5 124.5 t215.5 48q150 0 250 -87.5t99 -204.5q0 -52 -23 -112t-70 -125t-131.5 -129t-195.5 -113q-8 -3 -8 -9q0 -1 6 -7q156 -106 156 -248q0 -82 -48 -167t-128 -154t-195.5 -112.5t-239.5 -43.5z" />
<glyph unicode="4" horiz-adv-x="964" d="M575 2q-39 0 -80 42t-41 99q0 18 21 60q56 107 89 197q8 20 8 24q0 12 -23 12q-25 0 -313 -32q-1 0 -20.5 -3t-29.5 -3q-32 0 -58 46.5t-26 76.5t43 73q16 16 192 198.5t391 408.5t279 298q21 24 41 24q49 0 105.5 -75t56.5 -108q0 -22 -7 -35q-62 -124 -124.5 -257 t-118.5 -257t-61 -136q-5 -9 -5 -18q0 -8 9 -13q24 -6 35 -15q35 -26 60.5 -65t25.5 -67q0 -16 -10.5 -26t-30.5 -10q-7 0 -61 1t-105 1q-17 0 -28 -24q-2 -6 -36 -85t-72.5 -168.5t-54.5 -124.5q-14 -39 -51 -39zM372 594q28 0 157 11q121 11 123 11q16 2 28 28 q7 14 115 261t115 264q4 12 4 15q0 8 -5 8t-17 -12q-44 -47 -173.5 -187t-237.5 -257.5t-112 -122.5q-6 -6 -6 -12q0 -7 9 -7z" />
<glyph unicode="5" horiz-adv-x="919" d="M274 9q-108 0 -182.5 63.5t-74.5 150.5q0 27 6 46.5t15.5 28t17.5 12t17 3.5q11 0 19.5 -6.5t12 -11t10.5 -19t8 -15.5q14 -26 39 -41t80 -15q111 0 233.5 79t204 199t81.5 230q0 46 -16.5 72.5t-64.5 26.5q-59 0 -119.5 -31.5t-137.5 -102.5q-25 -24 -62 -24 q-50 0 -83.5 28.5t-33.5 62.5q0 21 7 31q29 59 122.5 235t156.5 287q6 16 6 29q0 5 -1 22t-1 27q0 9 1.5 17.5t5 14.5t7 11t9.5 9t10 7t11 5.5t10 3.5t9.5 3t7.5 2q66 18 285 31q189 10 327 10q20 0 33.5 -9.5t13.5 -29.5q0 -36 -38.5 -82.5t-88.5 -55.5 q-44 -9 -102.5 -14.5t-145.5 -11t-130 -9.5q-26 -2 -37 -19q-3 -3 -28.5 -49t-61.5 -117t-59 -123q-11 -20 -11 -28q0 -13 11 -13q3 0 33.5 4.5t43.5 4.5q128 0 216.5 -87.5t88.5 -221.5q0 -80 -31.5 -166.5t-93 -167t-142.5 -145t-189.5 -103t-224.5 -38.5z" />
<glyph unicode="6" horiz-adv-x="911" d="M404 -20q-61 0 -110.5 22t-82.5 57.5t-55.5 82t-32 94.5t-9.5 97q0 108 41.5 240.5t109.5 261.5t160 252t188.5 216t199.5 149.5t189 56.5q55 0 93.5 -38.5t38.5 -101.5q0 -29 -12.5 -45t-28.5 -16q-8 0 -25 7.5t-33 7.5q-123 0 -277 -140t-250 -319q-11 -16 -11 -27 q0 -8 7 -8t17 9q109 89 226 89q34 0 71.5 -17.5t73 -51.5t59 -93.5t23.5 -133.5q0 -73 -29 -161t-83 -174t-122.5 -157t-157 -115t-178.5 -44zM372 140q45 0 100.5 34t108.5 93.5t98 132t72 157t27 160.5t-56 76q-46 0 -107 -36.5t-124 -101.5q-102 -106 -173 -244 q-22 -41 -22 -154q0 -117 76 -117z" />
<glyph unicode="7" horiz-adv-x="845" d="M264 -2q-44 0 -84 41.5t-40 92.5q0 30 26 75q88 153 312 460t453 584q13 15 13 24q0 10 -15 10t-195 -22.5t-224 -22.5q-40 0 -60 32t-20 82q0 39 14.5 60t32.5 21q5 0 17 -0.5t16 -0.5q91 0 305 21.5t256 28.5q12 2 29.5 6.5t24.5 4.5q37 0 62.5 -28t34.5 -59t9 -58 q0 -38 -25 -63q-190 -221 -486 -627.5t-402 -612.5q-26 -49 -54 -49z" />
<glyph unicode="8" horiz-adv-x="940" d="M388 -7q-151 0 -244 83t-93 213q0 262 432 478q15 8 15 12q0 7 -7 14q-125 92 -125 229q0 79 41.5 165t110 156.5t167 116.5t202.5 46q154 0 246 -83t92 -184q0 -239 -437 -483q-10 -6 -14 -8q-15 -9 -15 -15q0 -8 11 -15q42 -28 65.5 -46.5t50.5 -48t39 -65.5t12 -81 q0 -92 -47 -181t-122.5 -155t-176.5 -107t-203 -41zM636 871q6 0 15 6q69 40 127.5 82t121 96.5t99 115t36.5 116.5q0 27 -21.5 52t-69.5 25q-80 0 -169.5 -53.5t-152 -142t-62.5 -176.5q0 -35 16.5 -64.5t33.5 -43t26 -13.5zM397 167q72 0 154 47.5t137 118t56 132.5 q0 39 -28 79t-102 91q-4 3 -8 3q-1 0 -13 -4q-41 -16 -90.5 -44t-107 -71t-95.5 -101t-38 -117t35.5 -96.5t99.5 -37.5z" />
<glyph unicode="9" horiz-adv-x="917" d="M333 -6q-116 0 -184.5 63t-68.5 146q0 34 13 51.5t32 17.5q16 0 26.5 -9.5t29.5 -42.5q2 -5 16.5 -14t43.5 -17t61 -8q62 0 125 27.5t114.5 69.5t101.5 101t86 112.5t70 112.5q18 33 18 37q0 8 -7 8q-4 0 -22 -17q-46 -42 -115.5 -69.5t-128.5 -27.5q-52 0 -94 16.5 t-68 43t-43.5 62.5t-24.5 72.5t-7 76.5q0 82 27.5 177t79 185t117 164.5t149 119.5t168.5 45q134 0 226.5 -103t92.5 -264q0 -78 -22 -177.5t-63.5 -207t-98 -215.5t-130 -204t-154.5 -170.5t-176 -118t-190 -43.5zM581 678q88 0 185 96t159 225.5t62 227.5q0 116 -94 116 q-69 0 -142 -62.5t-126.5 -151.5t-88.5 -186t-36 -167q0 -98 81 -98z" />
<glyph unicode=":" horiz-adv-x="643" d="M486 575q-45 0 -74.5 36.5t-29.5 84.5q0 62 45.5 98t101.5 36q46 0 71.5 -26t25.5 -69q0 -64 -43 -112t-97 -48zM281 -2q-45 0 -74.5 36.5t-29.5 84.5q0 62 45.5 98t101.5 36q46 0 71.5 -26t25.5 -69q0 -64 -43 -112t-97 -48z" />
<glyph unicode=";" horiz-adv-x="643" d="M486 575q-45 0 -74.5 36.5t-29.5 84.5q0 62 45.5 98t101.5 36q46 0 71.5 -26t25.5 -69q0 -64 -43 -112t-97 -48zM153 -145q-23 0 -51.5 18.5t-28.5 40.5q0 10 11 23q54 56 145 301q9 23 37 23q40 0 85.5 -32t45.5 -69q0 -41 -46 -115t-105 -132t-93 -58z" />
<glyph unicode="=" horiz-adv-x="1097" d="M452 758q-22 0 -22 37q0 43 29.5 89.5t69.5 46.5h460q28 0 86 2t85 2q26 0 26 -39q0 -42 -24.5 -88.5t-55.5 -46.5q-17 0 -105.5 2t-158.5 2q-58 0 -221 -3.5t-169 -3.5zM324 467q-22 0 -22 38q0 41 29.5 88t68.5 47h460q28 0 86 2t85 2t27 -39q0 -43 -24.5 -88.5 t-56.5 -45.5q-17 0 -105.5 2t-158.5 2q-58 0 -220.5 -4t-168.5 -4z" />
<glyph unicode="?" horiz-adv-x="917" d="M410 417q-35 0 -71.5 42.5t-36.5 95.5q0 39 25 78.5t75 81.5t98 75.5t122 83.5t118 83q109 81 170.5 157.5t61.5 160.5q0 59 -28 82t-67 23q-95 0 -209.5 -95.5t-159.5 -210.5v-2q-1 -3 -1.5 -5t-2 -5t-2.5 -5.5t-3 -5.5t-4.5 -5.5t-5.5 -5t-6.5 -4t-8 -2.5t-9.5 -1 q-37 0 -72.5 40.5t-35.5 84.5q0 45 37 104.5t97.5 114.5t151.5 93t187 38q151 0 238.5 -87t87.5 -218q0 -67 -24.5 -128.5t-71 -114.5t-96.5 -94.5t-118 -87.5q-36 -24 -101.5 -66t-104 -67.5t-84 -61t-73 -69.5t-40.5 -69q-10 -28 -33 -28zM207 -2q-46 0 -75.5 36.5 t-29.5 84.5q0 62 45.5 98t101.5 36q46 0 71.5 -26t25.5 -69q0 -64 -42.5 -112t-96.5 -48z" />
<glyph unicode="@" horiz-adv-x="1646" d="M786 -249q-98 0 -190.5 27t-172.5 82t-140.5 131.5t-95 182.5t-34.5 228q0 110 28 230t80.5 239t135 226t184 189t234.5 130.5t280 48.5q98 0 190 -23t171.5 -69.5t139.5 -111.5t94 -155t34 -194q0 -137 -59 -271.5t-149.5 -231t-200 -156t-209.5 -59.5q-154 0 -166 238 q0 7 -5 7q-3 0 -6 -5q-65 -108 -123.5 -169.5t-118.5 -61.5q-56 0 -86.5 46t-30.5 122q0 87 39.5 202t100 216t139 171t149.5 70q45 0 92 -27.5t72 -64.5q3 -4 6 -4q4 0 9 8l37 71q11 20 35 20q34 0 69.5 -35t35.5 -75q0 -20 -14 -40q-273 -425 -273 -516q0 -37 44 -37 q35 0 89 32.5t113.5 93t111.5 137t86 176t34 197.5q0 96 -32.5 170t-88.5 117t-124.5 64.5t-148.5 21.5q-106 0 -210 -39t-190.5 -106t-161 -157.5t-126 -191.5t-80.5 -210t-29 -211q0 -227 138.5 -355.5t386.5 -128.5q59 0 111 9q43 8 70.5 23.5t36.5 29t17.5 23.5t17.5 10 q10 0 18 -10t8 -27q0 -22 -11.5 -51.5t-40 -64.5t-69.5 -63.5t-106.5 -48t-144.5 -19.5zM750 346q36 0 156.5 171t218.5 336q2 4 2 6q0 5 -4 9q-32 37 -67 37q-59 0 -137 -112t-130 -238.5t-52 -182.5q0 -26 13 -26z" />
<glyph unicode="A" horiz-adv-x="1183" d="M-35 -37q-72 0 -116.5 53.5t-44.5 104.5q0 37 25 37q5 0 24 -11t41 -11q51 0 137 56t181 158q5 7 5 9q0 6 -10 6q-6 0 -20.5 -1t-17.5 -1q-29 0 -59 39t-30 69q0 19 22 19q1 0 21 -1t43 -1q70 0 186 5q7 0 15 8q204 216 415 482.5t333 463.5q21 37 62 37q51 0 99 -49.5 t48 -103.5q0 -22 -10 -41q-124 -293 -242 -769v-4q0 -7 6 -11q23 -20 41.5 -44.5t18.5 -35.5t-13 -13l-69 -5q-9 -2 -12 -10q-55 -207 -55 -301q0 -26 5 -41.5t5 -18.5q0 -16 -16.5 -25.5t-42.5 -9.5q-54 0 -100.5 38t-46.5 109q0 90 41 235q3 11 -9 11t-129 -6 q-147 -8 -218 -13q-8 0 -13 -5q-339 -408 -500 -408zM590 505q202 14 270 22q8 3 11 11q30 107 200 624v4q0 7 -6 7t-13 -11q-238 -355 -464 -643q-4 -4 -4 -9t6 -5z" />
<glyph unicode="B" horiz-adv-x="1118" d="M592 -19q-201 0 -264 136q-2 6 -7 6t-8 -8q-29 -72 -37 -96q-9 -25 -43 -25q-46 0 -94.5 37t-48.5 85q0 26 14 48q27 44 117 230.5t216.5 452.5t199.5 412q2 3 2 6q0 6 -6 6q-4 0 -6 -1q-91 -32 -176 -87t-142 -112.5t-91 -113.5t-34 -93q0 -25 15.5 -41t31 -26.5 t15.5 -21.5q0 -30 -37 -30q-72 0 -122 83.5t-50 167.5q0 83 63 162.5t163.5 138t222 99.5t240.5 54q8 1 13 10l13 26q13 26 50 26q28 0 59.5 -14.5t52.5 -37.5q5 -5 22 -8q98 -17 175.5 -61.5t122 -103t67.5 -119.5t23 -120q0 -135 -114 -264.5t-307 -200.5q-7 -3 -7 -7 t5 -8q63 -42 101.5 -109.5t38.5 -143.5q0 -99 -66.5 -177t-168 -117.5t-214.5 -39.5zM564 621l2 1h2q127 25 237.5 80.5t183 124t113.5 143.5t41 143q0 89 -66.5 141.5t-164.5 52.5q-8 0 -13 -6q-97 -173 -340 -666q-2 -4 -2 -6q0 -8 7 -8zM469 169q182 0 299.5 65.5 t117.5 165.5q0 60 -36.5 85t-110.5 25q-111 0 -229 -48q-10 -5 -19 -5q-4 0 -8.5 2t-7.5 2q-6 0 -11 -7q-39 -68 -112 -249q-1 -2 -1 -6q0 -5 5 -7q54 -23 113 -23z" />
<glyph unicode="C" horiz-adv-x="847" d="M389 -24q-151 0 -241 115t-90 302q0 135 49 292t130 295.5t176 254t195 183.5t180 68q101 0 169 -91q3 -4 7 -4q6 0 8 5q45 79 48 84q15 22 38 22q40 0 84 -49t44 -91q0 -12 -7 -22q-62 -78 -160.5 -262t-141.5 -318q-7 -15 -22 -15q-35 0 -66 34t-31 83q0 65 46 185 t108 241q2 4 2 6q0 13 -31 13q-90 0 -202.5 -96t-205 -235.5t-156.5 -308t-64 -302.5q0 -114 47 -169t132 -55q143 0 293 137t288 377q3 6 7 6q13 0 31 -20.5t18 -37.5q0 -5 -2 -9q-36 -78 -85 -159t-117 -164.5t-141 -148t-162 -105.5t-175 -41z" />
<glyph unicode="D" horiz-adv-x="1179" d="M546 -19q-181 0 -231 131q-3 7 -7 7q-3 0 -6 -7q-28 -66 -34 -84q-10 -30 -43 -30q-49 0 -94 41.5t-45 89.5q0 18 7 33q66 142 549 1098q3 4 3 7q0 6 -7 6q-3 0 -5 -1q-103 -32 -191.5 -85.5t-142.5 -110t-84.5 -110.5t-30.5 -93q0 -19 9.5 -33t21.5 -21t21.5 -15.5 t9.5 -17.5q0 -30 -37 -30q-72 0 -122 83.5t-50 165.5q0 69 43.5 135.5t115 117.5t161.5 92.5t186.5 66t186.5 31.5q10 1 13 8l11 22q12 26 47 26q27 0 61 -17t54 -44q6 -5 13 -8q177 -44 265.5 -180.5t88.5 -327.5q0 -122 -41 -256.5t-113.5 -255.5t-164 -219.5 t-201.5 -156.5t-217 -58zM467 169q93 0 188.5 54.5t173 145t139 199.5t95.5 225t34 216q0 136 -61.5 211.5t-128.5 75.5q-9 0 -13 -6q-94 -171 -272 -519.5t-278 -565.5q-2 -6 -2 -7q0 -6 6 -8q57 -21 119 -21z" />
<glyph unicode="E" horiz-adv-x="907" d="M382 -17q-88 0 -157 24.5t-109.5 61.5t-66.5 85t-35.5 90t-9.5 82q0 70 34.5 137t92 119.5t126 93t142.5 66.5q8 3 8 8q0 3 -4 7q-130 125 -130 248q0 83 55 168.5t138 148.5t183 103t187 40q79 0 123.5 -30t62.5 -74q1 -4 5 -4q6 0 16 16q29 48 46 66q12 14 31 14 q37 0 77.5 -39t40.5 -76q0 -20 -15 -33q-23 -27 -45 -58.5t-38 -56.5t-35.5 -62t-29.5 -56t-27 -58.5t-21.5 -50t-20.5 -50t-16 -40.5q-8 -17 -24 -17q-35 0 -54.5 35.5t-19.5 87.5q0 98 86 274q1 2 1 6q0 6 -8 9q-18 7 -55 7q-106 0 -223.5 -56.5t-193 -136t-75.5 -144.5 q0 -55 55 -93.5t158 -38.5q55 0 113 11q35 4 55.5 -27.5t20.5 -73.5q0 -36 -16.5 -62.5t-46.5 -27.5q-121 -10 -220.5 -37t-163 -62.5t-107 -77.5t-62 -81.5t-18.5 -75.5q0 -22 8 -43.5t28.5 -46.5t67.5 -40t114 -15q197 0 360.5 130.5t305.5 377.5q3 6 8 6q13 0 28.5 -20 t15.5 -38q0 -5 -2 -9q-38 -83 -82.5 -159t-114 -161.5t-147 -147t-182.5 -102.5t-218 -41z" />
<glyph unicode="F" horiz-adv-x="1013" d="M623 -77q-42 0 -91 43.5t-49 92.5q0 21 10 40q76 131 209 387q2 6 2 7q0 6 -8 6h-3q-67 -9 -138 -22t-111 -20.5t-53 -7.5q-26 0 -54 41.5t-28 77.5q0 15 13 15h58q109 0 385 35q6 1 11 9q64 122 100 195t76.5 164.5t59 159.5t18.5 122q0 55 -24 77t-86 22 q-100 0 -230.5 -48.5t-238.5 -116.5t-183.5 -145.5t-75.5 -131.5q0 -18 9.5 -31.5t21 -20t21 -15.5t9.5 -18q0 -30 -37 -30q-49 0 -89.5 43.5t-61 99.5t-20.5 105q0 81 80 165.5t198 146t255 101t249 39.5q94 0 169.5 -28.5t120.5 -75.5t69 -103t24 -115q0 -95 -56.5 -235.5 t-155.5 -328.5q-2 -4 -2 -6q0 -5 6 -11q31 -37 31 -56q0 -10 -16.5 -15t-61.5 -11q-9 -1 -13 -7q-218 -420 -285 -576q-8 -19 -34 -19z" />
<glyph unicode="G" horiz-adv-x="1013" d="M700 -123q-41 0 -85.5 33t-44.5 68q0 14 5 22q8 14 33.5 54t40 64.5t35.5 64.5t37 76q3 7 3 15q0 7 -5 7t-17 -15q-87 -127 -182 -193t-181 -66q-123 0 -205 110.5t-82 284.5q0 108 34.5 233t92.5 243t137.5 229t165 193.5t179.5 132t177 49.5q43 0 77.5 -11.5 t61.5 -34.5t38.5 -36.5t30.5 -38.5q4 -5 8 -5t7 5q16 28 37 58q14 20 34 20q38 0 78.5 -49.5t40.5 -89.5q0 -18 -7 -25q-122 -122 -259 -437q-7 -15 -24 -15q-28 0 -56 38t-28 87q0 47 38.5 144.5t91.5 177.5q3 3 3 7q0 11 -22 20.5t-48 9.5q-114 0 -240 -94t-223.5 -233 t-161.5 -304.5t-64 -301.5q0 -101 36.5 -157.5t105.5 -56.5q172 0 400 378q3 3 3 7q0 6 -10 6q-32 -5 -80.5 -14t-82 -15t-40.5 -6q-24 0 -53 40t-29 68q0 18 17 18q145 8 245 17q38 3 85 8.5t78.5 9t43.5 3.5q27 0 62 -40.5t35 -67.5q0 -17 -17 -17l-13 1q-13 0 -37.5 0.5 t-51.5 0.5q-11 0 -11 -6q0 -5 5 -7q22 -15 36 -35.5t12 -37.5q0 -11 -11 -24q-61 -106 -138.5 -288t-92.5 -248q-8 -34 -48 -34z" />
<glyph unicode="H" horiz-adv-x="1300" d="M392 -70q-42 0 -94 44.5t-52 93.5q0 20 11 38q30 49 162 302q2 4 2 6q0 7 -11 7q-74 -8 -80 -8q-52 0 -84 44t-32 83q0 22 19 22q79 0 260 17q18 3 25 15q268 492 268 655q0 92 -92 92q-70 0 -163 -50.5t-170 -121t-130.5 -148.5t-53.5 -129q0 -22 15.5 -37.5t30.5 -26.5 t15 -22q0 -30 -37 -30q-49 0 -89.5 43.5t-61 99.5t-20.5 105q0 66 40 134t105 124t143 101t160.5 70t150.5 25q95 0 172 -49t117.5 -123t40.5 -154q0 -92 -51.5 -214.5t-157.5 -321.5q-1 -2 -1 -6q0 -7 11 -7l287 25q10 1 13.5 2t9.5 7.5t12 19.5q352 738 370 821 q7 33 42 33q44 0 97.5 -46t53.5 -88q0 -11 -7 -23q-28 -48 -139.5 -276t-222.5 -466q-2 -4 -2 -6q0 -4 5 -9q43 -39 43 -64q0 -19 -15 -19q-44 0 -69 -1q-8 0 -13 -9q-175 -377 -210 -476q-11 -30 -45 -30q-43 0 -88 41t-45 88q0 19 8 35q33 65 153 316q2 6 2 7q0 7 -10 7 q-135 -14 -314 -38q-10 -1 -13 -9q-193 -366 -239 -495q-7 -20 -32 -20z" />
<glyph unicode="I" horiz-adv-x="788" d="M456 -50q-7 -20 -32 -20q-42 0 -93 44.5t-51 93.5q0 21 10 38q20 34 56 104.5t89.5 177t93.5 182.5q272 517 272 681q0 97 -95 97q-70 0 -161.5 -49t-166.5 -118t-127.5 -145.5t-51.5 -128.5q1 -22 17 -37.5t31.5 -26.5t15.5 -22q0 -30 -38 -30q-50 0 -91.5 44t-62.5 101 t-21 106q0 81 60.5 165t149.5 145.5t193 101t189 39.5q145 0 244 -103t99 -230q0 -52 -17 -117t-57 -155t-69 -149t-88 -175q-22 -44 -70 -138.5t-74 -146.5t-60.5 -122t-57 -120t-36.5 -87z" />
<glyph unicode="J" horiz-adv-x="1017" d="M175 -244q-83 0 -150.5 59.5t-67.5 158.5q0 92 68 183t179.5 162.5t247 127.5t276.5 87q5 2 11 10q128 201 212 398.5t84 314.5q0 50 -21 74t-74 24q-81 0 -187.5 -62t-193 -146.5t-147 -173.5t-60.5 -141q0 -18 9.5 -31.5t21 -20t21 -15.5t9.5 -18q0 -30 -37 -30 q-49 0 -89.5 43t-61 99t-20.5 105q0 109 112 235t270.5 210t287.5 84q145 0 236.5 -98t91.5 -241q0 -100 -56.5 -251.5t-154.5 -323.5q-2 -3 -2 -9q0 -4 4 -4q27 0 43.5 -19.5t16.5 -39.5t-15 -20q-1 0 -3 0.5t-3 0.5q-5 0 -85 -10q-15 -3 -19 -9q-117 -189 -247.5 -346.5 t-268 -262t-238.5 -104.5zM147 -84q76 0 217 138t286 344q2 4 2 7q0 7 -7 7q-3 0 -5 -1q-127 -44 -234 -108.5t-170.5 -127.5t-98.5 -119t-35 -93q0 -47 45 -47z" />
<glyph unicode="K" horiz-adv-x="1241" d="M369 -22q-41 0 -90.5 44.5t-49.5 92.5q0 22 11 40q47 78 216 411q154 301 202 418q74 180 74 282q0 38 -12 54.5t-42 16.5q-58 0 -146 -56.5t-165 -133.5t-132.5 -161t-55.5 -135q0 -22 15.5 -37.5t30.5 -26.5t15 -22q0 -30 -37 -30q-49 0 -89.5 43.5t-61 99.5t-20.5 105 q0 108 100 225.5t239 192t251 74.5q127 0 205 -98t78 -223q0 -83 -35.5 -179t-111.5 -245q-1 -2 -1 -5q0 -9 8 -9q4 0 8 3q181 144 386.5 368t281.5 360q8 11 23 11q34 0 74.5 -48t40.5 -94q0 -49 -70.5 -142.5t-178.5 -198t-229.5 -208t-230.5 -182.5q-7 -5 -7 -10l1 -2v-4 q26 -183 79 -305.5t111 -122.5q19 0 40.5 17t30.5 17q20 0 20 -22q0 -14 -18 -41t-46 -54t-68.5 -47t-79.5 -20q-124 0 -193.5 147.5t-69.5 388.5q0 9 -7 9t-10 -7q-205 -396 -253 -531q-7 -20 -31 -20z" />
<glyph unicode="L" horiz-adv-x="1052" d="M817 -140q-17 0 -22 25q-10 51 -159 148.5t-286 143.5q-2 1 -5 1q-5 0 -12 -5q-84 -76 -177 -76q-74 0 -120.5 33.5t-46.5 85.5q0 56 57.5 83t156.5 27q7 0 21.5 -1t19.5 -1q8 0 13 7q41 73 94.5 199.5t98.5 245.5t105.5 248.5t119 225t135.5 157.5t158 62q51 0 86.5 -25 t66.5 -76q3 -5 7 -5q6 0 8 5q27 53 50 86q13 22 37 22q40 0 84.5 -48t44.5 -89q0 -16 -8 -25q-65 -88 -162.5 -272t-144.5 -320q-6 -20 -26 -20q-31 0 -65 39t-34 88q0 47 29.5 131.5t59.5 148.5t79 163q2 3 2 8q0 10 -15 10q-66 0 -127.5 -49t-108 -125.5t-97.5 -184 t-91 -208.5t-93 -215.5t-101 -190.5q-2 -4 -2 -6q0 -7 9 -8q132 -24 241.5 -64.5t177 -93t67.5 -104.5q0 -51 -44.5 -116t-80.5 -65z" />
<glyph unicode="M" horiz-adv-x="1597" d="M1375 -86q-58 0 -117 43t-59 114q0 75 89.5 360.5t197.5 542.5q1 2 1 6q0 6 -5 6q-3 0 -6 -5q-245 -406 -597 -907q-17 -31 -56 -31q-45 0 -86 40.5t-41 95.5q0 17 6 37q16 55 60 203t88.5 300t78.5 277q1 2 1 5q0 5 -3 5q-4 0 -7 -6q-84 -168 -167 -317t-176 -291.5 t-177.5 -244t-169 -163.5t-152.5 -62q-66 0 -109 50t-43 97q0 33 24 33q4 0 22 -11t47 -11q58 0 141.5 69t178 189t190.5 259.5t195.5 305t176 299t147.5 265.5q11 21 41 21q48 0 100 -45t52 -98q0 -26 -16 -51q-31 -55 -131 -370t-135 -488q0 -1 -0.5 -3t-0.5 -3q0 -7 4 -7 q5 0 8 5q430 639 653 1030q15 23 55 23q54 0 115 -38.5t61 -75.5q0 -7 -3 -15q-132 -266 -288 -737.5t-156 -623.5q0 -17 5 -32t5 -22q0 -23 -42 -23z" />
<glyph unicode="N" horiz-adv-x="1193" d="M58 -37q-73 0 -123 56.5t-50 118.5q0 26 18 26q5 0 24 -11t41 -11q60 0 132.5 62t147 171.5t148 239t147 285.5t131 288t112.5 268q10 24 41 24q48 0 107.5 -47.5t59.5 -106.5q0 -26 -7 -43q-7 -26 -18.5 -160t-28.5 -352t-28 -341v-4q0 -9 6 -9q3 0 9 11 q137 293 283 630.5t157 389.5q9 32 41 32q43 0 95.5 -44.5t52.5 -85.5q0 -16 -9 -26q-59 -80 -308.5 -612t-300.5 -684q-18 -41 -62 -41q-59 0 -119 69t-53 141q6 57 28 359.5t37 472.5v5q0 7 -5 7q-3 0 -6 -6q-51 -121 -80.5 -189.5t-80.5 -184t-87 -184.5t-85.5 -161 t-91.5 -146t-89.5 -106.5t-94 -76.5t-91.5 -24z" />
<glyph unicode="O" d="M413 -28q-44 0 -88 12.5t-88 43.5t-77.5 77t-54.5 118t-21 162q0 127 40 276.5t106 283t144.5 245.5t163.5 178t155 66q24 0 46 -10q3 -1 7 -1q5 0 8 2q82 46 156 46q118 0 196 -110.5t78 -260.5q0 -94 -30 -215t-81.5 -245.5t-126 -245t-157.5 -214t-182 -151 t-194 -57.5zM397 125q88 0 202 123t206.5 292.5t156.5 353t64 299.5q0 75 -28.5 107.5t-72.5 32.5q-79 0 -180 -101t-187 -254.5t-132 -309.5q-2 -23 -18 -23q-28 0 -52 49q-4 6 -5 6q-5 0 -10 -15q-29 -73 -48 -166.5t-19 -175.5q0 -98 30 -158t93 -60z" />
<glyph unicode="P" horiz-adv-x="1026" d="M197 -2q-46 0 -93.5 41.5t-47.5 88.5q0 21 7 34q377 768 536 1117q2 4 2 5q0 7 -7 7q-4 0 -6 -1q-82 -29 -159 -85t-129.5 -116.5t-84 -118.5t-31.5 -97q0 -19 9.5 -33t21.5 -21t21.5 -15.5t9.5 -17.5q0 -30 -37 -30q-72 0 -122 83.5t-50 165.5q0 80 57.5 155t149 130.5 t200.5 94t217 54.5q11 1 13 9q2 6 5 17t4 13q9 34 41 34q25 0 56 -16.5t56 -41.5q6 -6 13 -6q81 -8 148.5 -36.5t112 -68.5t75 -90t44 -100t13.5 -99q0 -145 -108.5 -299.5t-271 -254.5t-311.5 -100q-74 0 -112 45q-3 5 -7 5t-8 -7q-136 -291 -182 -415q-10 -30 -45 -30z M490 558h1q1 1 2 1q122 22 231 84t181 141.5t114 167.5t42 165q0 89 -61.5 145t-139.5 56q-4 0 -7 -1.5t-4 -2.5t-3.5 -5.5t-3.5 -5.5q-122 -224 -358 -733q-1 -2 -1 -6q0 -6 7 -6z" />
<glyph unicode="Q" d="M696 -209q-116 0 -202 181q-3 7 -10 7h-5q-31 -7 -66 -7q-44 0 -88 12.5t-88 43.5t-77.5 77t-54.5 118t-21 162q0 127 40 276.5t106 283t144.5 245.5t163.5 178t155 66q24 0 46 -10q3 -1 7 -1q5 0 8 2q82 46 156 46q118 0 196 -110.5t78 -260.5q0 -147 -67 -345 t-187.5 -388.5t-257.5 -294.5q-5 -3 -5 -8q0 -4 2 -7q37 -53 74 -84t65 -31q16 0 37.5 17t31.5 17q9 0 14.5 -7t5.5 -16q0 -38 -64.5 -100t-136.5 -62zM397 125q39 0 39 13v2q-1 1 -1 2q-20 86 -20 139q0 67 33 104.5t68 37.5q31 0 31 -28q7 -76 31 -150q3 -8 8 -8q4 0 8 4 q159 167 295.5 469.5t136.5 482.5q0 75 -28.5 107.5t-72.5 32.5q-79 0 -180 -101t-187 -254.5t-132 -309.5q-2 -23 -18 -23q-28 0 -52 49q-4 6 -5 6q-5 0 -10 -15q-29 -73 -48 -166.5t-19 -175.5q0 -98 30 -158t93 -60z" />
<glyph unicode="R" horiz-adv-x="1050" d="M728 -13q-53 0 -98 34.5t-74.5 87.5t-51 121t-32 130.5t-14.5 121.5q0 8 -6 8t-9 -8q-172 -368 -207 -463q-11 -30 -44 -30q-44 0 -92 41.5t-48 88.5q0 19 8 34q365 742 543 1137q1 2 1 5q0 7 -6 7q-3 0 -6 -1q-86 -32 -165 -89.5t-130.5 -119t-82 -120t-30.5 -97.5 q0 -19 9.5 -33t21.5 -21t21.5 -15.5t9.5 -17.5q0 -30 -37 -30q-72 0 -122 83.5t-50 165.5q0 106 97.5 202t238.5 157t292 84q10 3 13 12q1 3 2.5 10t2.5 10q10 30 41 30q46 0 101 -45q5 -5 20 -5q103 -8 185 -48.5t129 -99.5t71.5 -123t24.5 -126q0 -118 -83.5 -241.5 t-221 -214.5t-289.5 -121q-8 -2 -8 -8v-5q36 -148 93.5 -237t108.5 -89q20 0 41.5 19.5t34.5 21.5q19 0 19 -24q0 -17 -18 -46.5t-47 -59t-72 -51.5t-85 -22zM522 635h5q116 27 221 85.5t176 129t112.5 148t41.5 143.5q0 78 -64.5 129.5t-153.5 51.5q-9 0 -15 -11 q-103 -188 -327 -663q-2 -4 -2 -5q0 -8 6 -8z" />
<glyph unicode="S" horiz-adv-x="972" d="M380 -19q-85 0 -148.5 18t-97.5 43t-55 59t-26.5 59t-5.5 50q0 42 17.5 76.5t42.5 53.5t47.5 28.5t37.5 9.5q24 0 24 -19q0 -9 -20.5 -30t-20.5 -48q0 -51 57 -78.5t144 -27.5q123 0 223.5 51.5t100.5 127.5q0 32 -25 60t-64.5 50t-87 45t-95.5 53.5t-87.5 68t-64.5 95 t-25 127.5q0 113 58 228t148 200.5t205 139.5t224 54q85 0 132.5 -38t65.5 -91q2 -6 6 -6t7 4q44 69 52 75q9 8 23 8q37 0 79 -48t42 -88q0 -16 -8 -25q-51 -61 -140 -209t-145 -281q-10 -23 -31 -23q-29 0 -57.5 36.5t-28.5 76.5q0 105 154 391q2 4 2 5q0 13 -34.5 22.5 t-68.5 9.5q-94 0 -209 -72.5t-194 -176t-79 -187.5q0 -44 25 -79t65 -60t88 -48.5t96.5 -50t88.5 -59t65 -83t25 -113.5q0 -109 -71 -197.5t-191.5 -137.5t-264.5 -49z" />
<glyph unicode="T" horiz-adv-x="780" d="M339 -2q-45 0 -92.5 42t-47.5 90q0 17 8 32q85 166 266.5 537t276.5 582q2 4 2 5q0 6 -9 8q-93 17 -242 17q-148 0 -233.5 -56.5t-85.5 -148.5q0 -23 8.5 -39t18.5 -22t18.5 -13.5t8.5 -16.5q0 -28 -41 -28q-50 0 -106.5 81.5t-56.5 165.5q0 117 85 183.5t257 66.5 q122 0 430 -58h4q9 0 13 10q4 11 13 39q10 31 41 31q63 0 138 -100q12 -14 20 -15q34 -3 65 -3q135 0 218 62q12 10 24 10q34 0 34 -58q0 -79 -63 -123.5t-170 -44.5q-54 0 -165 23q-8 1 -13 -8q-119 -230 -327 -665.5t-252 -555.5q-11 -30 -45 -30z" />
<glyph unicode="U" horiz-adv-x="1257" d="M966 -40q-41 0 -81 42t-40 87q0 15 6 28q5 12 77.5 176.5t112.5 259.5q3 9 3 15q0 10 -7 10t-13 -10q-80 -128 -144.5 -220.5t-135 -176.5t-134 -127.5t-117.5 -43.5q-75 0 -128.5 75t-53.5 173q0 80 44 194t107 227.5t126 226t107 219.5t44 177q0 36 -13 51.5t-43 15.5 q-93 0 -213.5 -91t-203 -206t-82.5 -185q0 -22 15.5 -37.5t31 -26.5t15.5 -22q0 -30 -37 -30q-49 0 -89 41.5t-59.5 96t-19.5 103.5q0 82 61 172t149.5 159t192 114.5t185.5 45.5q65 0 117.5 -28.5t83.5 -74t47.5 -98t16.5 -104.5q0 -69 -43 -179.5t-105 -225t-123.5 -225 t-104.5 -204t-43 -138.5q0 -37 33 -37q83 0 245 181.5t350 481.5t342 627q13 27 42 27q43 0 93 -46t50 -86q0 -17 -12 -29q-85 -113 -227 -423.5t-245 -570.5t-122 -328q-15 -53 -58 -53z" />
<glyph unicode="V" horiz-adv-x="1116" d="M532 -19q-48 0 -117.5 59.5t-69.5 134.5q0 28 12 58q77 179 200.5 578t123.5 496q0 57 -44 57q-45 0 -122.5 -55.5t-150 -133.5t-126.5 -169.5t-54 -154.5q0 -22 15.5 -37.5t31 -26.5t15.5 -22q0 -30 -37 -30q-49 0 -90 43t-61.5 99.5t-20.5 105.5q0 81 60 174.5t146 166 t184 121t171 48.5q74 0 132.5 -50t87.5 -121t29 -143q0 -213 -296 -948q-1 -2 -1 -7q0 -7 6 -7q7 0 14 8q106 152 165 238.5t158.5 234.5t157.5 243.5t120.5 204.5t91.5 183.5t29 118.5q0 13 -5.5 25.5t-5.5 15.5q0 15 22 15q47 0 99 -65t52 -136q0 -65 -52 -170 t-156 -250.5t-199 -268.5t-245 -311.5t-229 -291.5q-17 -30 -41 -30z" />
<glyph unicode="W" horiz-adv-x="1595" d="M516 -19q-48 0 -117 59.5t-69 134.5q0 30 11 56q5 12 36 89.5t50 124t54 137.5t57.5 155.5t51 151t45.5 149.5t29 126t12 105q0 90 -52 90q-42 0 -116 -57t-144 -135t-122 -168t-52 -148q0 -22 15 -37.5t30.5 -26.5t15.5 -22q0 -30 -37 -30q-49 0 -89.5 43.5t-61 99.5 t-20.5 105q0 82 56 175t138.5 165.5t181 121t179.5 48.5q79 0 139 -46t89.5 -117.5t29.5 -154.5q0 -56 -20 -138.5t-65 -205t-75 -200t-95.5 -233.5t-81.5 -195q-2 -3 -2 -9q0 -8 7 -8q5 0 8 6q191 295 384 653t313 603q9 28 35 28q37 0 82 -47t45 -88q0 -14 -8 -27 q-90 -156 -214.5 -532t-124.5 -525q-3 -73 34 -73q49 0 127 99.5t157.5 252t152.5 319t122.5 316.5t56.5 229q2 23 -14 46.5t-16 31.5q0 33 36 33q56 0 127 -64t71 -147q0 -68 -56 -222.5t-149 -338.5t-200 -354t-224 -284t-206 -114q-80 0 -142.5 90.5t-62.5 214.5 q0 33 13 86.5t26 93.5t42 121.5t40 115.5q0 1 1 3v3q0 9 -6 9q-4 0 -8 -7q-143 -263 -409 -706q-8 -18 -17 -24t-24 -6z" />
<glyph unicode="X" horiz-adv-x="1140" d="M141 -66q-36 0 -79 46.5t-43 87.5q0 21 14 34q364 339 589 564q5 5 5 14q11 270 64 610q1 7 1 20q0 57 -52 57q-79 0 -191 -104.5t-191 -232.5t-79 -198q0 -22 15.5 -37.5t30.5 -26t15 -21.5q0 -30 -37 -30q-49 0 -89.5 43t-61 99t-20.5 105q0 76 57.5 170.5t141.5 173 t186 132t184 53.5q62 0 115.5 -30.5t87.5 -77.5t53 -100.5t19 -102.5q0 -18 -3 -35q-5 -28 -15.5 -84t-18 -100.5t-11.5 -83.5q0 -18 6 -18q5 0 15 10q131 131 323 354.5t215 247.5q14 14 32 14q35 0 69 -47t34 -87q0 -20 -10 -29q-404 -368 -680 -667q-5 -5 -5 -13 q-5 -233 28 -387.5t93 -154.5q13 0 30.5 10.5t26.5 10.5q17 0 17 -20q0 -37 -47.5 -83t-114.5 -46q-61 0 -105.5 36t-70.5 103.5t-40 149t-18 186.5q0 8 -7 8q-3 0 -6 -3q-8 -8 -47.5 -49.5t-51 -54t-48 -51t-51.5 -55t-47 -51t-48 -53.5t-42 -49t-42.5 -51t-34.5 -45 t-32 -45q-10 -16 -28 -16z" />
<glyph unicode="Y" horiz-adv-x="1271" d="M802 -412q-44 0 -89 47t-45 94q0 15 8 31q27 52 89.5 186t146.5 316t125 269q10 21 10 31q0 6 -4 6q-9 0 -26 -26q-83 -128 -145.5 -215t-132 -167.5t-130.5 -120t-116 -39.5q-75 0 -128.5 75t-53.5 173q0 80 44 194t107 227.5t126 226t107 219.5t44 177q0 36 -13 51.5 t-43 15.5q-93 0 -213.5 -91t-203 -206t-82.5 -185q0 -22 15.5 -37.5t31 -26.5t15.5 -22q0 -30 -37 -30q-49 0 -89 41.5t-59.5 96t-19.5 103.5q0 82 61 172t149.5 159t192 114.5t185.5 45.5q65 0 117.5 -28.5t83.5 -74t47.5 -98t16.5 -104.5q0 -69 -43 -179.5t-105 -225 t-123.5 -225t-104.5 -204t-43 -138.5q0 -37 33 -37q83 0 249.5 181t360.5 483t347 626q13 26 43 26q44 0 94.5 -45t50.5 -85q0 -18 -13 -30q-124 -169 -418 -828.5t-362 -869.5q-17 -49 -58 -49z" />
<glyph unicode="Z" horiz-adv-x="909" d="M110 -3q-39 0 -80 66t-41 124q0 29 15 49q93 116 385.5 443.5t556.5 616.5q3 4 3 9q0 6 -7 6q-5 0 -9 -2q-139 -52 -285.5 -84.5t-213.5 -32.5q-84 0 -125 57t-41 147q0 38 26 38q10 0 17.5 -5t14 -11t31.5 -11t66 -5q112 0 320 22t329 62q9 3 19 3q45 0 93.5 -65 t48.5 -130q0 -38 -23 -56q-152 -118 -429.5 -420.5t-504.5 -577.5q-5 -5 -5 -9q0 -5 5 -5q3 0 5 1q214 69 328 69q55 0 95 -18.5t60 -49t28.5 -61.5t8.5 -65q0 -35 -10 -59t-24 -24q-15 0 -24 24q0 46 -140 46q-113 0 -258 -28t-218 -59q-8 -5 -17 -5z" />
<glyph unicode="[" horiz-adv-x="727" d="M315 -4q-62 0 -105.5 27.5t-43.5 88.5q0 74 93 272q449 979 510 1087q21 38 52.5 57t88.5 19h84q53 0 83 -23.5t30 -50.5q0 -14 -9.5 -23t-25.5 -9h-61q-40 0 -67 -46q-42 -72 -314.5 -645.5t-272.5 -622.5q0 -14 7.5 -19.5t30.5 -5.5h80q23 0 23 -24q0 -26 -24 -54 t-55 -28h-104z" />
<glyph unicode="\" horiz-adv-x="874" d="M680 -73q-37 0 -97.5 65.5t-72.5 128.5q-31 172 -175 1367q-4 30 -4 33q0 22 36 22q50 0 104 -42t63 -118q133 -1208 160 -1396q4 -22 4 -35q0 -25 -18 -25z" />
<glyph unicode="]" horiz-adv-x="690" d="M166 -4q-53 0 -83 23.5t-30 50.5q0 14 9 23t25 9h62q39 0 67 47q41 72 313.5 645.5t272.5 622.5q0 14 -7 19t-30 5h-80q-23 0 -23 25q0 26 24 53.5t55 27.5h104q62 0 105.5 -27t43.5 -88q0 -74 -93 -272q-449 -979 -510 -1087q-21 -38 -53 -57.5t-89 -19.5h-83z" />
<glyph unicode="^" horiz-adv-x="802" d="M782 916q-20 0 -30.5 8t-6.5 22q90 340 107 454q2 10 -6 10q-2 0 -7 -3q-58 -47 -186 -191.5t-199 -245.5q-10 -8 -32 -1t-44 33.5t-22 55.5q0 39 63 127.5t145 176t167.5 154.5t126.5 67q46 0 107 -47.5t57 -98.5q-10 -113 -93 -445q-8 -30 -57 -53t-90 -23z" />
<glyph unicode="_" horiz-adv-x="1097" d="M-7 -229q-16 0 -27 16.5t-11 48.5q0 57 27.5 97t79.5 61.5t113 30.5t140 9q135 0 273.5 -21t240.5 -66t102 -102q0 -22 -11 -42.5t-28 -20.5q-12 0 -28 9q-31 14 -200.5 29.5t-329.5 15.5q-274 0 -310 -48q-17 -17 -31 -17z" />
<glyph unicode="a" horiz-adv-x="839" d="M156 0q-67 0 -104 56t-37 148q0 70 22 157.5t58.5 175t88 171.5t107.5 148t119.5 103t121.5 39q55 0 111 -33t87 -77q3 -5 8 -5q4 0 7 5l48 89q15 25 43 25q41 0 83 -41.5t42 -90.5q0 -29 -15 -51q-71 -108 -187.5 -339t-116.5 -286q0 -21 17 -21q15 0 41 25.5t59 70.5 t66 93t70 108t61.5 100.5t51 85t27.5 46.5q4 6 9 6q17 0 36.5 -16.5t19.5 -30.5q0 -3 -2 -7q-1 -2 -24 -44t-36.5 -67t-44 -78t-53 -89.5t-57 -89t-62 -88.5t-62.5 -76.5t-64 -65t-60.5 -40.5t-57.5 -16q-54 0 -91 46t-37 118q0 56 13 112q1 3 1 5q0 5 -3 5q-2 0 -9 -9 q-43 -65 -73 -106t-69 -85t-77 -65t-76 -21zM233 173q30 0 119 112.5t177 247.5t156 251q1 2 1 6t-3 9q-37 48 -82 48q-54 0 -124.5 -82.5t-126.5 -191.5t-95 -215.5t-39 -154.5q0 -30 17 -30z" />
<glyph unicode="b" horiz-adv-x="811" d="M73 -4q-44 0 -87.5 32.5t-43.5 82.5q0 17 6 36q54 158 263 617.5t320 676.5q11 23 40 23q44 0 92.5 -42.5t48.5 -86.5q0 -20 -10 -34q-20 -28 -69.5 -122.5t-132.5 -258.5t-129 -252q-5 -10 -5 -14q0 -6 5 -6t14 11q84 106 137.5 169t115 117.5t94.5 54.5q18 0 40 -8.5 t47.5 -29.5t42.5 -66.5t17 -109.5q0 -116 -55.5 -256.5t-138 -256.5t-187 -194.5t-195.5 -78.5q-32 0 -57 10t-41.5 29.5t-26 36.5t-18.5 41q-4 11 -8 11t-7 -7q-9 -23 -19.5 -62.5t-11.5 -41.5q-8 -21 -41 -21zM235 164q55 0 122.5 57t127 143t110 180t80 176.5t29.5 124.5 q0 26 -13 26q-20 0 -120 -113t-219.5 -277t-178.5 -280q-3 -6 -3 -11q0 -3 3 -6q31 -20 62 -20z" />
<glyph unicode="c" horiz-adv-x="638" d="M261 0q-105 0 -167 70.5t-62 188.5q0 104 48 235.5t118.5 241.5t156.5 186t155 76q36 0 60.5 -20t49.5 -66q5 -8 8 -8q4 0 9 6q25 41 40 57t36 16q33 0 63 -28.5t30 -60.5q0 -19 -17 -36q-43 -43 -109.5 -145.5t-102.5 -174.5q-9 -17 -24 -17q-20 0 -37 23.5t-17 58.5 q0 73 91 233q4 8 4 9q0 4 -6 4q-63 0 -149 -111.5t-146 -253t-60 -227.5q0 -104 87 -104q73 0 148 59t159 168q91 119 203 314q3 6 10 6q12 0 27.5 -16.5t15.5 -31.5q0 -47 -149 -281q-236 -371 -473 -371z" />
<glyph unicode="d" horiz-adv-x="847" d="M151 0q-63 0 -99.5 56t-36.5 148q0 70 22 157.5t58.5 175t88 171.5t107.5 148t119.5 103t121.5 39q55 0 111 -33t87 -77q3 -5 8 -5q4 0 7 5q45 89 137.5 290t109.5 244q11 27 40 27q43 0 94 -46t51 -87q0 -22 -10 -35q-45 -56 -216 -401.5t-253 -525.5 q-19 -43 -34.5 -92.5t-15.5 -67.5q0 -21 17 -21q15 0 41 25.5t59 70.5t66 93t70 108t61.5 100.5t51 85t27.5 46.5q3 5 9 5q17 0 36.5 -16t19.5 -30q0 -4 -2 -8q-114 -209 -170 -298q-222 -355 -351 -355q-54 0 -90.5 46.5t-36.5 121.5q0 64 13 121v3q0 6 -3 6q-5 0 -8 -6 q-44 -70 -75 -113.5t-71.5 -89t-80 -67.5t-80.5 -22zM233 173q30 0 118.5 112.5t176 246.5t155.5 250q3 5 3 7q0 4 -3 8q-36 46 -80 46q-55 0 -126.5 -82.5t-128 -191t-95.5 -214t-37 -152.5q0 -30 17 -30z" />
<glyph unicode="e" horiz-adv-x="665" d="M266 0q-103 0 -168.5 72.5t-65.5 192.5q0 98 46.5 226.5t116.5 240t162.5 189t174.5 77.5q76 0 143.5 -56.5t67.5 -143.5q0 -91 -62.5 -181.5t-158 -147t-188.5 -56.5q-20 0 -40 3l-19 3q-8 0 -11 -8q-31 -88 -31 -156q0 -104 85 -104q64 0 155 62t175 167 q102 130 184 273q3 6 8 6q13 0 29.5 -16t16.5 -34q0 -42 -134 -246q-46 -70 -98.5 -130.5t-115 -115t-133.5 -86t-139 -31.5zM335 512q55 0 121.5 64t108.5 140t42 118q0 26 -21 26q-47 0 -125 -96.5t-144 -227.5l-2 -4q-2 -5 -2 -7q0 -13 22 -13z" />
<glyph unicode="f" horiz-adv-x="577" d="M7 -469q-68 0 -117 56t-49 160q0 119 54 279t155 378q18 38 63 135.5t83.5 177t69.5 136.5q1 2 1 6q0 5 -5 10q-34 32 -34 62q0 24 25 30q15 4 67 7q12 1 15 8q178 345 240 458q13 24 39 24q40 0 83 -44t43 -87q0 -19 -13 -35q-51 -54 -182 -298q-4 -8 -4 -11 q0 -11 23 -11q161 0 199 -9q31 -6 31 -28q0 -28 -37.5 -58t-88.5 -35q-60 -6 -127 -6q-10 0 -10 -8l1 -1v-2q15 -68 15 -168q0 -166 -47 -364.5t-121 -366.5t-174.5 -281.5t-197.5 -113.5zM31 -313q51 0 126.5 119.5t141 287t110 364.5t37.5 337q0 8 -5 8t-10 -8 q-111 -206 -266.5 -587t-159.5 -487q0 -34 26 -34z" />
<glyph unicode="g" horiz-adv-x="794" d="M87 -428q-109 0 -190 59.5t-81 117.5q0 23 15 43t35 20q27 0 45 -41q13 -25 42 -45t71 -20q67 0 133 49.5t125 139.5t105 181.5t95 208.5q3 6 3 13q0 9 -5 9q-3 0 -7 -5q-10 -13 -33 -44.5t-35 -47.5t-34.5 -44.5t-37 -44.5t-35.5 -38t-37.5 -34.5t-36 -25t-38.5 -18 t-37 -5.5q-66 0 -100 55t-34 149q0 70 22 157.5t58.5 175t88 171.5t107.5 148t119.5 103t121.5 39q51 0 103 -28.5t86 -70.5q3 -5 8 -5q3 0 6 5l36 82q9 20 36 20q43 0 92.5 -39.5t49.5 -86.5q0 -17 -9 -35q-65 -123 -129 -263t-143 -325.5t-109 -253.5 q-91 -204 -211.5 -315t-260.5 -111zM233 171q30 0 119 113.5t177 248t156 251.5q1 3 1 6q0 4 -3 9q-37 48 -82 48q-54 0 -124.5 -83t-126.5 -192t-95 -216t-39 -155q0 -30 17 -30z" />
<glyph unicode="h" horiz-adv-x="835" d="M562 0q-51 0 -93.5 48.5t-42.5 137.5q0 74 46.5 190t93.5 199.5t116 197.5q12 20 18 29q2 4 2 7q0 6 -6 6t-11 -5q-124 -119 -306.5 -358t-283.5 -424q-7 -28 -40 -28q-38 0 -75.5 35.5t-37.5 84.5q0 22 8 42q53 143 261.5 599t319.5 682q11 22 39 22q44 0 94.5 -44 t50.5 -88q0 -16 -11 -33q-37 -51 -160.5 -292.5t-234.5 -478.5q-1 -2 -1 -5q0 -8 8 -8q6 0 12 7q136 189 274 332t195 143q50 0 91 -51t41 -111q0 -23 -26 -65q-91 -148 -183.5 -338t-92.5 -239q0 -21 17 -21q65 0 384 529q3 5 9 5q17 0 36.5 -16t19.5 -30q0 -4 -2 -8 q-168 -308 -286 -460q-148 -193 -243 -193z" />
<glyph unicode="i" horiz-adv-x="399" d="M534 1097q-40 0 -71 38t-31 86q0 72 50 133t121 61q99 0 99 -95q0 -71 -54.5 -147t-113.5 -76zM132 0q-60 0 -100.5 52t-40.5 127q0 99 69 255q93 214 255 529q10 22 39 22q44 0 98 -42.5t54 -78.5q0 -20 -13 -36q-27 -32 -98 -158t-135.5 -270.5t-64.5 -198.5 q0 -28 19 -28q15 0 41 25.5t59 70.5t66 93t70 108t61.5 100.5t51 85t27.5 46.5q3 5 9 5q17 0 36.5 -16t19.5 -30q0 -4 -2 -8q-114 -209 -170 -298q-222 -355 -351 -355z" />
<glyph unicode="j" horiz-adv-x="374" d="M544 1097q-40 0 -71.5 37.5t-31.5 86.5q0 75 41.5 134.5t111.5 59.5q52 0 84.5 -35t32.5 -79q0 -70 -53.5 -137t-113.5 -67zM-326 -426q-118 0 -182 70q-22 25 -22 54q0 22 12 38.5t29 16.5q13 0 25 -12q3 -2 11.5 -10.5t11.5 -11t10.5 -8t12.5 -7.5t13 -4t16 -2 q80 0 154.5 73t161.5 236.5t215 465.5q1 2 1 6q0 5 -4 5t-7 -2q-18 -8 -36 -8q-26 0 -26 16q0 9 10 22q30 43 112 187t145 269q12 18 39 18q44 0 91.5 -36t47.5 -78q0 -15 -7 -29q-94 -184 -228 -492.5t-181 -404.5q-91 -188 -194 -280t-231 -92z" />
<glyph unicode="k" horiz-adv-x="804" d="M60 0q-40 0 -79.5 36.5t-39.5 87.5q0 20 7 38q48 130 237.5 543t343.5 738q11 23 39 23q44 0 94 -44t50 -89q0 -19 -10 -33q-37 -53 -139 -248t-193 -391q-2 -4 -2 -9q0 -6 5 -6q6 0 12 9q258 343 375 343q39 0 66.5 -33t38 -73.5t10.5 -81.5q0 -115 -104.5 -242 t-264.5 -175q-9 -3 -9 -11q7 -68 31.5 -137.5t63.5 -69.5q33 0 87.5 56t116 146t109.5 168t93 157q3 5 9 5q17 0 36.5 -16t19.5 -30q0 -4 -2 -8q-17 -37 -53.5 -105.5t-98 -165t-125.5 -179.5t-138.5 -142t-133.5 -59q-62 0 -112.5 59.5t-76 144t-23.5 166.5q0 15 -21 15 q-6 0 -9 -5q-106 -175 -169 -354q-7 -28 -41 -28zM335 456q53 0 125 49.5t130.5 115t99.5 129.5t41 93q0 17 -16 17q-42 0 -154 -109.5t-237 -283.5q-2 -4 -2 -5q0 -6 13 -6z" />
<glyph unicode="l" horiz-adv-x="569" d="M227 0q-72 0 -127 66.5t-55 160.5t51.5 259t136.5 344.5t182 341.5t201 267.5t181 105.5q52 0 95 -42t43 -107q0 -107 -117 -317.5t-270.5 -407.5t-268.5 -297q-11 -12 -15 -22q-29 -77 -29 -132q0 -65 50 -65q82 0 213 156t258 374q4 8 11 8q12 0 28.5 -20t16.5 -36 q0 -7 -4 -15q-18 -38 -53 -101t-98 -157t-129.5 -172.5t-148 -135t-152.5 -56.5zM341 566q8 0 16 11q170 201 324.5 465.5t154.5 342.5q0 23 -15 23q-35 0 -121 -124.5t-187.5 -318.5t-175.5 -380q-3 -6 -3 -11q0 -8 7 -8z" />
<glyph unicode="m" horiz-adv-x="1202" d="M931 0q-48 0 -92 46t-44 129q0 106 83 293t180 340q2 2 2 7q0 8 -8 8q-5 0 -11 -6q-115 -130 -279 -359t-239 -393q-20 -55 -71 -55q-45 0 -85 37.5t-40 82.5q0 22 12 43q29 50 144 272t187 369q2 6 2 7q0 6 -6 6q-5 0 -9 -4q-97 -102 -295 -374.5t-276 -420.5 q-7 -26 -38 -26q-37 0 -74 36t-37 87q0 23 9 48q30 79 166 381t193 412q11 23 39 23q39 0 81 -40t42 -83q0 -19 -11 -36q-76 -115 -164 -312q-6 -12 -6 -19q0 -6 4 -6q6 0 15 12q53 73 87 119t83 110t84 103t73.5 77.5t69.5 56.5t54 18q41 0 70.5 -48t29.5 -98 q0 -58 -95 -232q-3 -5 -3 -12q0 -6 4 -6q9 0 18 14q76 99 122 156t99.5 116t92.5 84.5t70 25.5q46 0 87 -50t41 -112q0 -24 -26 -66q-90 -146 -179 -331.5t-89 -235.5q0 -21 15 -21q16 0 43.5 25t61.5 70.5t67 93t71 109t62 100.5t51 84.5t27 46.5q3 5 10 5q17 0 36.5 -16 t19.5 -30q0 -4 -2 -8q-4 -7 -14 -26q-337 -627 -515 -627z" />
<glyph unicode="n" horiz-adv-x="829" d="M559 0q-51 0 -93 48.5t-42 137.5q0 28 5.5 59.5t18.5 68.5t24.5 68.5t34 76t36.5 72t41.5 76t40 69.5t41.5 69.5t36 60.5q2 4 2 6q0 6 -6 6q-5 0 -11 -6q-128 -115 -322.5 -369.5t-280.5 -414.5q-7 -26 -38 -26q-37 0 -74 36t-37 87q0 23 9 48q29 77 169.5 386t191.5 407 q12 22 39 22q40 0 83 -38.5t43 -79.5q0 -20 -12 -36q-59 -83 -181 -342q-2 -5 -2 -13q0 -5 3 -5q7 0 20 18q140 201 291.5 353.5t216.5 152.5q47 0 84 -50.5t37 -111.5q0 -23 -26 -65q-91 -147 -183 -337t-92 -240q0 -21 14 -21q65 0 384 529q3 5 9 5q17 0 36.5 -16 t19.5 -30q0 -4 -2 -8q-155 -284 -263 -430q-163 -223 -265 -223z" />
<glyph unicode="o" horiz-adv-x="727" d="M236 0q-88 0 -151 71.5t-63 183.5q0 94 47 223.5t118.5 246.5t168 198.5t184.5 81.5q52 0 98 -30.5t74 -96.5q1 -3 9 -11q44 -37 44 -135q0 -132 -84 -308q-1 -2 -1 -5q-2 -8 6 -8q3 0 5 1q15 6 30.5 16t31 26.5t28 29.5t29 36.5t26 36t26 40.5t22 37t21.5 38t18 32 q3 3 8 3q15 0 36.5 -15t21.5 -27q0 -5 -4 -13q-193 -390 -385 -390q-13 0 -17 -6q-81 -115 -172 -185.5t-175 -70.5zM278 168q85 0 208 199q4 7 4 14q2 69 43 152.5t92 132.5q4 4 7 12q15 47 15 107q0 63 -43 63q-49 0 -115.5 -69.5t-122 -165.5t-95.5 -200t-43 -170 q-3 -75 50 -75z" />
<glyph unicode="p" horiz-adv-x="819" d="M-151 -435q-44 0 -89 37t-45 86q0 19 9 40q63 138 287.5 617t312.5 660q12 23 38 23q40 0 83 -41t43 -84q0 -20 -11 -37q-26 -37 -72.5 -120t-86.5 -174q-1 -2 -1 -6q0 -5 5 -5q7 0 15 11q20 26 63 85t65.5 88.5t60 77t62 73t54 53t54 39.5t45.5 12q17 0 40 -11 t48.5 -33.5t43 -67t17.5 -102.5q0 -155 -92.5 -341t-231 -315.5t-259.5 -129.5q-117 0 -160 140q-3 8 -6 8t-7 -7l-76 -152q-16 -31 -85.5 -193.5t-80.5 -203.5q-7 -27 -43 -27zM242 173q66 0 152 85.5t154.5 198.5t116.5 225t48 165q0 26 -13 26q-30 0 -213 -233.5 t-306 -429.5q-3 -6 -3 -9q0 -4 3 -7q27 -21 61 -21z" />
<glyph unicode="q" horiz-adv-x="813" d="M295 -505q-45 0 -92.5 35.5t-47.5 85.5q0 20 11 45q40 88 288 579q3 6 3 9q0 10 -9 10q-7 0 -14 -10q-42 -54 -63 -80t-56 -65t-58 -57t-51.5 -32.5t-54.5 -14.5q-66 0 -101 55.5t-35 148.5q0 70 22 157.5t58.5 175t88 171.5t107.5 148t119.5 103t121.5 39 q54 0 109.5 -32.5t88.5 -77.5q2 -3 5 -3t12 11q10 17 46 89q13 26 41 26q41 0 85 -44.5t44 -93.5q0 -22 -10 -39q-87 -156 -310 -627.5t-312 -690.5q-4 -21 -36 -21zM233 182q44 0 192.5 206.5t259.5 395.5q2 4 2 5q0 2 -4 10q-37 48 -80 48q-72 0 -167.5 -134 t-158.5 -285.5t-61 -215.5q0 -30 17 -30z" />
<glyph unicode="r" horiz-adv-x="651" d="M346 0q-64 0 -104.5 52.5t-40.5 122.5q0 68 43.5 167t96 180.5t96 159.5t43.5 109q0 29 -34 40.5t-70 11.5q-9 0 -15 -11q-114 -208 -184 -324q-6 -11 -41 -11q-52 0 -52 17q0 2 2 4q103 173 195 359q2 4 2 7q0 2 -2 8q-11 20 -11 50q0 88 60.5 148.5t120.5 60.5 q55 0 55 -58q0 -56 -50 -138q-3 -5 -3 -7q0 -6 9 -8q49 -16 85 -31.5t73.5 -38t57.5 -51t20 -61.5q0 -46 -31 -95q-1 -2 -86 -135t-127.5 -213.5t-42.5 -117.5q0 -24 21 -24q22 0 52 22t65 64t67.5 85t71.5 103t63.5 99t56.5 91.5t39 64.5q3 7 11 7q13 0 33.5 -17t20.5 -29 q0 -7 -3 -13q-9 -18 -23.5 -45t-52.5 -94t-77 -128.5t-93.5 -134t-104.5 -125t-107 -88t-105 -35.5z" />
<glyph unicode="s" horiz-adv-x="583" d="M216 -19q-62 0 -111.5 31t-79 80.5t-44.5 106.5t-15 114q0 71 23.5 123t65.5 54q9 0 13 7q13 21 61.5 103.5t71.5 118.5q80 128 121 186q60 84 107.5 126.5t102.5 42.5t98.5 -36.5t43.5 -73.5q0 -21 -17 -35q-30 -22 -50 -63t-34.5 -128t-19 -128t-15.5 -171 q-4 -43 -6 -65q-9 -103 -40 -181t-75.5 -123t-95 -67t-105.5 -22zM190 127q40 0 71.5 51.5t52 138.5t34.5 173t28.5 185.5t25.5 145.5q2 7 2 11q0 6 -6 6q-5 0 -9 -4q-31 -27 -149 -221q-18 -30 -76.5 -128t-83.5 -135q-4 -7 -4 -14q1 -81 33 -145t81 -64z" />
<glyph unicode="t" horiz-adv-x="489" d="M194 0q-66 0 -107.5 52.5t-41.5 141.5q0 53 21 130q1 2 1 5q0 4 -5 4h-5q-25 -7 -48 -7q-37 0 -37 14q0 4 2 6q47 67 139 218.5t159 283.5q2 4 2 5q0 5 -9 9q-29 9 -48.5 33t-19.5 46q0 23 23 27q34 8 123 11q10 0 14 8q119 228 172 311q17 26 46 26q41 0 85 -43.5 t44 -81.5q0 -16 -10 -26q-25 -25 -116 -182q-2 -4 -2 -7q0 -7 10 -7q77 -3 103 -7q33 -6 33 -28q0 -25 -36.5 -53t-86.5 -34q-29 -3 -92 -5q-9 0 -13 -8q-105 -193 -185 -379.5t-80 -250.5q0 -15 8 -27t24 -12q33 0 85.5 49.5t113 132.5t115.5 167.5t110 179.5q3 5 9 5 q17 0 36.5 -16t19.5 -30q0 -4 -2 -8q-17 -33 -41.5 -78t-71.5 -126.5t-99 -154t-110.5 -142t-119.5 -111t-112 -41.5z" />
<glyph unicode="u" horiz-adv-x="827" d="M143 0q-57 0 -101 50.5t-44 134.5q0 92 64 257.5t139 305t129 215.5q14 18 40 18q44 0 94 -40.5t50 -76.5q0 -19 -13 -35q-54 -66 -176 -312.5t-122 -320.5q0 -23 13 -23q20 0 63.5 40t102 111.5t133.5 189t146 253.5q86 173 110 209q11 18 35 18q41 0 89.5 -46t48.5 -84 q0 -19 -13 -35q-38 -46 -122.5 -209.5t-138.5 -291.5q-18 -41 -28.5 -82.5t-10.5 -57.5q0 -15 13 -15q15 0 41 25.5t59 70.5t66 93t70 108t61.5 100.5t51 85t27.5 46.5q4 6 10 6q17 0 36 -16.5t19 -30.5q0 -5 -1 -7q-4 -7 -14 -26q-338 -628 -508 -628q-59 0 -91.5 52 t-32.5 123q0 42 11 86v3q0 6 -4 6q-3 0 -7 -6q-172 -264 -295 -264z" />
<glyph unicode="v" horiz-adv-x="739" d="M225 0q-23 0 -50 12.5t-54.5 37.5t-46 71.5t-18.5 105.5q0 150 89.5 387t174.5 336q22 26 61 26q46 0 92 -33t46 -61q0 -9 -7 -16q-73 -70 -174.5 -314.5t-101.5 -344.5q0 -38 19 -38q61 0 171.5 165.5t195.5 356t89 268.5q8 36 40 36q38 0 80 -43.5t42 -89.5 q0 -50 -44 -154t-117 -223.5t-156.5 -229.5t-173.5 -182.5t-157 -72.5z" />
<glyph unicode="w" horiz-adv-x="1083" d="M182 0q-58 0 -102.5 62t-40.5 173q4 149 104.5 379t191.5 336q23 26 62 26q45 0 90 -32t45 -61q0 -10 -7 -17q-76 -73 -189.5 -318.5t-113.5 -338.5q0 -34 18 -34q46 0 151.5 179t202.5 396q83 188 87 200q10 31 45 31q49 0 104.5 -52.5t37.5 -81.5q-81 -133 -173 -345.5 t-92 -292.5q0 -34 21 -34q46 0 149 163.5t190 353.5t96 267q3 37 34 37q37 0 79 -44t42 -92q0 -60 -64.5 -201.5t-155.5 -288t-203.5 -258.5t-194.5 -112q-24 0 -45.5 9.5t-43 31t-34.5 66t-13 105.5v32q0 14 -7 14q-5 0 -8 -7q-135 -251 -263 -251z" />
<glyph unicode="x" horiz-adv-x="768" d="M18 -93q-28 0 -53.5 22t-25.5 47q0 14 9 24q3 4 43 47.5t117.5 128.5t150.5 168q5 5 3 17q-17 109 -17 237q0 10 -5 10q-3 0 -8 -7q-52 -88 -55 -93q-6 -11 -41 -11q-23 0 -39 6t-11 15q97 157 195 364q9 39 53.5 68t88.5 29q58 0 58 -51q0 -9 -3 -21q-34 -157 -31 -332 q0 -10 6 -10q4 0 9 5q250 295 310 357q74 77 99 77q23 0 50 -27.5t27 -53.5q0 -12 -8 -20q-12 -11 -88.5 -83t-106 -100.5t-89.5 -87t-104.5 -105t-84.5 -91.5q-4 -4 -4 -11q0 -1 0.5 -3t0.5 -4q7 -96 35.5 -168.5t64.5 -72.5q16 0 36.5 13.5t45.5 41t48 55.5t53 72.5t51 76 t51 81t43.5 72.5t39 66t27.5 47q3 7 9 7q12 0 30.5 -20.5t18.5 -36.5q0 -7 -4 -15t-35 -67.5t-57.5 -106.5t-69 -119.5t-84 -127.5t-88 -107t-94 -80.5t-90.5 -28.5q-65 0 -116.5 61t-82.5 162q-2 7 -7 7t-8 -5q-57 -70 -111 -141.5t-79.5 -108.5t-32.5 -48q-13 -20 -40 -20 z" />
<glyph unicode="y" horiz-adv-x="798" d="M87 -428q-109 0 -190 59.5t-81 117.5q0 22 15.5 42.5t35.5 20.5q28 0 47 -47q38 -59 110 -59q60 0 119 41.5t114.5 120.5t102.5 167.5t98 206.5q6 13 6 20q0 5 -4 5q-8 0 -21 -19q-74 -108 -152.5 -178t-148.5 -70q-58 0 -99 52.5t-41 138.5q0 130 117 385.5t211 386.5 q14 18 40 18q44 0 94 -40.5t50 -76.5q0 -20 -13 -36q-54 -69 -173.5 -305t-119.5 -309q0 -24 16 -24q20 0 65.5 37.5t107 107.5t141 192t153.5 270q1 2 32 68t52 116q9 20 36 20q44 0 94 -40t50 -87q0 -16 -9 -34q-65 -123 -128.5 -260.5t-146 -330.5t-108.5 -251 q-91 -204 -211.5 -315t-260.5 -111z" />
<glyph unicode="z" horiz-adv-x="768" d="M190 0q-45 0 -81 47t-36 104q0 47 26 80q53 70 224.5 253t328.5 322q5 4 5 10q0 8 -7 8h-2l-2 -1q-214 -60 -318 -65q-9 0 -13 -8q-92 -165 -138 -242q-6 -11 -41 -11q-23 0 -39 6t-11 15q75 119 160 290q2 6 2 13v6q-8 38 -8 50q0 41 14.5 67t43.5 26q9 0 17.5 -9 t16.5 -19t32 -19t62 -9q60 0 141 18t141.5 36.5t71.5 18.5q52 0 91 -52.5t39 -109.5q0 -49 -33 -69q-392 -356 -572 -555q-3 -3 -3 -9q0 -7 9 -7q5 0 9 1q108 36 168 36q49 0 86.5 -18.5t56 -47t27.5 -56.5t9 -55q0 -39 -30 -39q-22 0 -49 20q-42 28 -117 28 q-64 0 -143.5 -15.5t-102.5 -29.5q-17 -9 -35 -9z" />
<glyph unicode="{" horiz-adv-x="645" d="M376 -22q-76 0 -143 41t-67 111q0 28 16 75t29 76t48 103q12 26 37 77.5t44.5 92.5t39.5 84.5t31.5 72.5t11.5 39q0 14 -34.5 46t-34.5 53q0 30 33 33q64 5 97 27.5t62 90.5q116 270 197 437q62 129 177 129q68 0 128 -26.5t60 -66.5q0 -32 -36 -32q-15 0 -33 1t-28 1 q-39 0 -67 -48q-11 -19 -54.5 -114t-94 -206t-69.5 -150q-6 -13 -14 -24.5t-15 -20.5t-16.5 -17.5t-16 -14.5t-17.5 -12.5t-16 -9.5t-16.5 -8t-15 -6.5t-14.5 -6t-12 -4.5q-26 -10 -26 -19q0 -12 22.5 -50t22.5 -65q0 -44 -59 -172.5t-118 -246t-59 -134.5q0 -14 15.5 -28.5 t34.5 -24.5t34.5 -22.5t15.5 -23.5q0 -15 -21.5 -26t-58.5 -11z" />
<glyph unicode="|" horiz-adv-x="595" d="M190 -177q-30 0 -67 55.5t-37 123.5q0 28 15 71q27 76 225 532q24 53 184.5 433.5t211.5 482.5q9 19 28 19q29 0 48 -60t19 -112q0 -40 -15 -87q-8 -25 -25 -68.5t-50 -124.5t-64 -156.5t-92 -222.5t-109 -264q-154 -376 -255 -611q-6 -11 -17 -11z" />
<glyph unicode="}" horiz-adv-x="720" d="M233 -30q-64 0 -133.5 27t-69.5 68q0 32 35 32q15 0 35 -1t30 -1q39 0 67 48q14 25 109 235.5t115 250.5q39 82 138 119q40 15 40 25q0 11 -19 43q-25 42 -25 68q0 48 60.5 181.5t121 255t60.5 139.5q0 14 -17.5 25.5t-38 18t-36.5 16t-14 20.5q8 44 84 44 q46 0 92.5 -13.5t83 -47t36.5 -80.5q0 -62 -99 -272q-12 -26 -37 -78t-44.5 -92.5t-39.5 -84.5t-31.5 -73t-11.5 -39q0 -14 34.5 -45.5t34.5 -52.5q0 -11 -8 -22t-25 -12q-64 -5 -97 -27t-62 -90q-120 -279 -197 -438q-40 -84 -79.5 -115.5t-91.5 -31.5z" />
<glyph unicode="&#xa1;" horiz-adv-x="628" d="M560 750q-46 0 -71 26t-25 69q0 64 42.5 112t96.5 48q45 0 74.5 -36.5t29.5 -84.5q0 -62 -45.5 -98t-101.5 -36zM52 -506q-45 0 -95 45t-50 90q0 14 4 21q389 773 491 936q21 34 45 34q18 0 30.5 -19.5t12.5 -51.5q0 -25 -12 -59q-23 -63 -191.5 -482t-189.5 -483 q-10 -31 -45 -31z" />
<glyph unicode="&#xa2;" horiz-adv-x="739" d="M345 123q-17 0 -34 24.5t-17 52.5q0 29 47 145q1 2 1 5q0 6 -6 10q-100 60 -100 210q0 96 38.5 203t97 191.5t131.5 140t137 55.5h6q10 0 14 8q68 158 92 204q7 14 18 14q15 0 29 -26.5t14 -57.5q0 -15 -3 -27q-8 -28 -70 -175q-2 -6 -2 -8q0 -5 3.5 -11t7.5 -6t8 4 q2 2 6.5 9t7.5 10q14 18 34 18q29 0 57 -30.5t28 -56.5q0 -10 -6 -16q-48 -52 -98 -131t-84 -147q-8 -14 -22 -14q-23 0 -36.5 24.5t-13.5 57.5q0 66 85 208q2 2 2 6q0 5 -4 5q-59 0 -129.5 -80t-116.5 -187.5t-46 -186.5q0 -95 86 -95q71 0 161 78q10 8 18 8q11 0 19.5 -13 t8.5 -32q0 -46 -40 -90q-36 -40 -99 -65.5t-123 -27.5q-10 0 -13 -8q-50 -126 -76 -187q-6 -13 -18 -13z" />
<glyph unicode="&#xa3;" horiz-adv-x="917" d="M668 147q-20 0 -20 19q-6 39 -98.5 87.5t-184.5 74.5h-5q-4 0 -11 -5q-70 -60 -139 -60q-58 0 -95 27t-37 69q0 86 170 86q6 0 17 -1t14 -1q6 0 11 8q33 57 64 128q1 2 1 6q0 7 -10 7q-62 -2 -66 -2q-20 0 -20 24q0 30 27 66.5t57 36.5q36 0 58 -1q10 0 13 8 q101 251 157 350q130 221 267 226q42 0 69.5 -19.5t51.5 -60.5q3 -5 6 -5q4 0 7 4q40 86 69 86q33 0 67.5 -38.5t34.5 -71.5q0 -11 -5 -18q-128 -174 -190 -365q-6 -16 -22 -16q-25 0 -52 31t-27 72q0 68 80 244q2 4 2 6q0 7 -13 7q-41 0 -79 -24t-64.5 -52t-61 -92 t-51.5 -101t-53 -122q-11 -25 -16 -37q-2 -4 -2 -6q0 -7 10 -7q26 1 71 2.5t77.5 2.5t47.5 1q19 0 19 -23q0 -31 -31.5 -67.5t-73.5 -36.5q-17 0 -70.5 2t-96.5 2q-10 0 -14 -9q-48 -99 -83 -150l-2 -4q0 -5 8 -7q54 -9 102.5 -20.5t99.5 -29t81.5 -41.5t30.5 -52 q0 -35 -34.5 -86.5t-62.5 -51.5z" />
<glyph unicode="&#xa7;" horiz-adv-x="874" d="M354 0q-67 0 -118 14t-78.5 34t-44.5 47t-21.5 47t-4.5 40q0 44 24 76.5t49.5 44.5t44.5 12q18 0 18 -13q0 -8 -16.5 -25t-16.5 -39q0 -40 45 -61.5t115 -21.5q99 0 179 40.5t80 100.5q0 30 -34 60t-82 58t-96 60.5t-82 79.5t-34 103q0 68 44.5 124.5t113.5 89.5q7 3 7 8 q0 1 -2 7q-31 52 -31 123q0 120 77 236.5t194.5 187.5t233.5 71q121 0 158 -102q2 -5 5 -5q2 0 4 3q7 9 21 33q20 34 39 34q29 0 63 -38.5t34 -69.5q0 -12 -8 -20q-38 -38 -108 -157.5t-117 -231.5q-9 -19 -24 -19q-23 0 -46 28t-23 61q0 85 121 309q0 1 1.5 3t1.5 3 q0 10 -25 18t-56 8q-75 0 -166.5 -56.5t-154.5 -138.5t-63 -149q0 -46 33 -81t80.5 -59.5t95 -49.5t80.5 -63.5t33 -89.5q0 -68 -46.5 -123.5t-125.5 -89.5q-7 -3 -7 -8q0 -3 3 -7q52 -59 52 -141q0 -132 -121.5 -218.5t-297.5 -86.5zM608 533q2 0 8 2q118 41 118 111 q0 35 -27.5 58.5t-89 51.5t-88.5 45q-4 3 -8 3q-3 0 -7 -3q-71 -51 -71 -112q0 -12 2.5 -23t9 -21.5t11 -18t17 -17.5t18.5 -15.5t23 -15t23 -13.5t26 -15t26 -14q5 -3 9 -3z" />
<glyph unicode="&#xa9;" horiz-adv-x="1507" d="M696 -45q-218 0 -360 148.5t-142 389.5q0 178 79 366t213 331q113 121 251 189.5t287 68.5q99 0 189 -32t163.5 -93.5t117.5 -163t44 -228.5q0 -162 -63 -333.5t-175 -314.5q-119 -150 -275 -239t-329 -89zM676 112q148 0 277.5 81.5t226.5 219.5q89 126 139.5 278 t50.5 292q0 328 -292 328q-149 0 -283.5 -82t-237.5 -220q-90 -122 -141 -266.5t-51 -280.5q0 -173 84 -261.5t227 -88.5zM763 315q-93 0 -146 61.5t-53 165.5q0 121 60.5 254t151 220.5t172.5 87.5q64 0 97 -78q2 -6 7 -6q4 0 7 6q7 12 12 18q12 17 33 17q28 0 54 -28.5 t26 -53.5q0 -10 -5 -15q-31 -32 -61 -76t-69.5 -114t-43.5 -76q-9 -13 -22 -13q-16 0 -30.5 19t-14.5 52v7q0 20 8.5 47t17.5 46t27.5 54.5t26.5 52.5q0 1 1 3t1 3q0 3 -3 3q-57 0 -123.5 -76t-110.5 -178t-44 -178q0 -91 82 -91q104 0 153 74q5 8 16 8q12 0 20 -12t8 -31 q0 -40 -41 -84q-35 -40 -95.5 -64.5t-118.5 -24.5z" />
<glyph unicode="&#xab;" horiz-adv-x="1136" d="M553 279q-72 0 -97 28q-42 46 -128 196q-19 40 -19 52q0 6 2 12t6 11t7 8.5t7.5 7.5t5.5 5q63 62 171 140t192 125q20 11 41 11q31 0 56.5 -20t25.5 -40q0 -14 -19 -26q-6 -5 -67 -50.5t-125 -94.5t-93 -72q-14 -11 -14 -19t5 -17q9 -22 43.5 -98.5t44.5 -102.5 q9 -20 7 -30q0 -26 -52 -26zM903 279q-72 0 -97 28q-42 46 -128 196q-19 33 -19 52q0 6 2 12t6 11t7 8.5t7.5 7.5t5.5 5q60 60 168.5 138t194.5 127q20 11 39 11q31 0 57.5 -20t26.5 -40q0 -14 -19 -26q-6 -5 -67 -50.5t-125 -94.5t-93 -72q-15 -12 -15 -21q0 -2 2 -7.5 t2 -7.5q70 -153 90 -201q7 -16 7 -30q0 -26 -52 -26z" />
<glyph unicode="&#xad;" horiz-adv-x="985" d="M367 478q-23 0 -23 40q0 43 30.5 91t70.5 48h270q29 0 89 2t88 2q26 0 26 -41q0 -44 -24.5 -91t-57.5 -47q-23 0 -104.5 2t-130.5 2q-60 0 -143.5 -4t-90.5 -4z" />
<glyph unicode="&#xae;" horiz-adv-x="987" d="M687 667q-139 0 -217.5 83.5t-78.5 213.5q0 96 41 199t110 185q146 168 318 168q131 0 217.5 -77.5t86.5 -211.5q0 -93 -36.5 -189t-99.5 -176q-71 -89 -160.5 -142t-180.5 -53zM661 754q94 -1 178.5 57.5t145.5 158.5q80 129 80 268q0 91 -42 147t-124 56 q-175 0 -305 -184q-52 -73 -81 -155.5t-29 -155.5q0 -88 44 -140.5t133 -51.5zM613 864q-16 0 -37 15t-21 30q0 5 2 9q7 15 76 157.5t98 203.5q4 8 -5 14q-11 8 -11 20q0 20 34 28q9 2 13 8q6 12 16 12q16 0 33 -10q8 -5 15 -5q55 -3 99.5 -41t44.5 -89q0 -68 -59.5 -122.5 t-130.5 -66.5q-9 -1 -9 -8v-4q9 -32 35 -64.5t47 -32.5q16 0 -3 -20q-29 -29 -57 -30q-31 0 -57 50.5t-34 104.5q-2 5 -4 5q-3 0 -5 -4q-7 -16 -18.5 -39t-18.5 -37.5t-14.5 -30t-11 -26t-3.5 -16.5q0 -11 -14 -11zM730 1075q66 5 116.5 54.5t50.5 99.5q0 57 -65 63 q-9 0 -13 -8l-97 -196q-2 -4 -2 -5q0 -8 7 -8h3z" />
<glyph unicode="&#xb0;" horiz-adv-x="669" d="M676 968q-96 0 -163.5 62.5t-67.5 162.5q0 51 19.5 106t54 102t88 77t114.5 30q90 0 161 -60t71 -169q0 -117 -78 -214t-199 -97zM668 1100q59 0 101.5 57t42.5 130q0 44 -19 70t-58 26q-63 0 -106 -59.5t-43 -128.5q0 -46 22.5 -70.5t59.5 -24.5z" />
<glyph unicode="&#xb6;" horiz-adv-x="1097" d="M465 -114q-38 0 -74.5 31.5t-36.5 76.5q0 20 5 34q35 94 193 427q2 4 2 5q0 6 -8 9q-48 14 -94 49q-49 38 -85.5 109t-36.5 131q0 114 94.5 225.5t232 180t263.5 70.5q10 0 14 8q10 21 26 53l21 42q11 20 36 20q36 0 74.5 -34.5t38.5 -71.5q0 -20 -9 -32 q-41 -56 -293.5 -592.5t-321.5 -715.5q-9 -25 -41 -25zM674 -114q-26 0 -50 28t-24 69q0 22 9 45q47 123 282.5 614.5t339.5 694.5q11 20 29 20q26 0 50.5 -30t24.5 -65q0 -24 -13 -43q-41 -56 -293 -592.5t-321 -715.5q-9 -25 -34 -25z" />
<glyph unicode="&#xb7;" horiz-adv-x="735" d="M482 484q-45 0 -74.5 36.5t-29.5 84.5q0 62 45.5 98t101.5 36q46 0 71.5 -26t25.5 -69q0 -64 -43 -112t-97 -48z" />
<glyph unicode="&#xbb;" horiz-adv-x="1097" d="M300 279q-31 0 -57.5 20t-26.5 40q0 14 19 26q3 2 66 50t126 96.5t92 71.5q15 12 15 21q0 8 -3 14q-70 153 -90 201q-7 16 -7 30q0 26 52 26q72 0 97 -28q43 -48 128 -195q19 -33 19 -53q0 -6 -2 -12t-6 -11t-7 -8.5t-7.5 -7.5t-5.5 -5q-60 -60 -168.5 -138t-194.5 -127 q-20 -11 -39 -11zM648 279q-31 0 -56.5 20t-25.5 40q0 14 19 26q3 2 66 50t126 96.5t92 71.5q15 12 15 18q0 8 -5 17q-9 22 -43.5 98.5t-44.5 102.5q-9 20 -7 30q0 26 52 26q72 0 97 -28q43 -48 128 -195q19 -40 19 -53q0 -6 -2 -12t-6 -11t-7 -8.5t-7.5 -7.5t-5.5 -5 q-63 -62 -171 -140t-192 -125q-20 -11 -41 -11z" />
<glyph unicode="&#xbf;" horiz-adv-x="806" d="M793 748q-46 0 -71.5 26t-25.5 69q0 64 43 112.5t97 48.5q45 0 74.5 -36.5t29.5 -84.5q0 -62 -45.5 -98.5t-101.5 -36.5zM212 -506q-151 0 -238.5 87t-87.5 218q0 53 14.5 101.5t45 92t63 79.5t83 75t89 65t95.5 63q161 104 210 144q89 72 113 138q10 28 34 28 q35 0 71.5 -42.5t36.5 -95.5q0 -25 -10.5 -50.5t-34 -52.5t-46.5 -49t-64 -52t-69 -50t-78 -53.5t-77 -52.5q-88 -62 -145.5 -111t-101.5 -116.5t-44 -133.5q0 -104 95 -104t209 95t159 210v3q1 2 1.5 4t2 5t2.5 5.5t3 5.5t4.5 5.5t5.5 5t6.5 4t8 2.5t9.5 1q37 0 72.5 -40 t35.5 -84q0 -45 -37 -104.5t-97.5 -114.5t-151.5 -93t-187 -38z" />
<glyph unicode="&#xc0;" horiz-adv-x="1183" d="M1398 1526q-43 0 -116 46.5t-128.5 105.5t-55.5 90q0 32 45 65t73 33q15 0 26 -17q40 -68 112 -138.5t117 -100.5q17 -11 17 -27q0 -20 -29 -38.5t-61 -18.5zM-35 -37q-72 0 -116.5 53.5t-44.5 104.5q0 37 25 37q5 0 24 -11t41 -11q51 0 137 56t181 158q5 7 5 9 q0 6 -10 6q-6 0 -20.5 -1t-17.5 -1q-29 0 -59 39t-30 69q0 19 22 19q1 0 21 -1t43 -1q70 0 186 5q7 0 15 8q204 216 415 482.5t333 463.5q21 37 62 37q51 0 99 -49.5t48 -103.5q0 -22 -10 -41q-124 -293 -242 -769v-4q0 -7 6 -11q23 -20 41.5 -44.5t18.5 -35.5t-13 -13 l-69 -5q-9 -2 -12 -10q-55 -207 -55 -301q0 -26 5 -41.5t5 -18.5q0 -16 -16.5 -25.5t-42.5 -9.5q-54 0 -100.5 38t-46.5 109q0 90 41 235q3 11 -9 11t-129 -6q-147 -8 -218 -13q-8 0 -13 -5q-339 -408 -500 -408zM590 505q202 14 270 22q8 3 11 11q30 107 200 624v4 q0 7 -6 7t-13 -11q-238 -355 -464 -643q-4 -4 -4 -9t6 -5z" />
<glyph unicode="&#xc1;" horiz-adv-x="1183" d="M1158 1566q-32 0 -59.5 25.5t-27.5 48.5q0 18 24 28q47 18 140 76t143 108q10 10 26 10q25 0 61 -42.5t36 -78.5q0 -29 -65 -71.5t-147.5 -73t-130.5 -30.5zM-35 -37q-72 0 -116 53.5t-44 104.5q0 37 24 37q5 0 24 -11t41 -11q51 0 137 56t181 158q5 7 5 9q0 6 -10 6 q-6 0 -20.5 -1t-17.5 -1q-29 0 -59 39t-30 69q0 19 22 19q1 0 21 -1t43 -1q70 0 186 5q7 0 15 8q204 216 415 482.5t333 463.5q21 37 62 37q51 0 99 -49.5t48 -103.5q0 -22 -10 -41q-124 -293 -242 -769v-4q0 -7 6 -11q23 -20 41.5 -44.5t18.5 -35.5t-13 -13l-69 -5 q-9 -2 -12 -10q-55 -207 -55 -301q0 -26 5 -41.5t5 -18.5q0 -16 -16.5 -25.5t-42.5 -9.5q-54 0 -100.5 38t-46.5 109q0 90 41 235q3 11 -9 11t-129 -6q-147 -8 -218 -13q-8 0 -13 -5q-339 -408 -500 -408zM590 505q202 14 270 22q8 3 11 11q30 107 200 624v4q0 7 -6 7 t-13 -11q-238 -355 -464 -643q-4 -4 -4 -9t6 -5z" />
<glyph unicode="&#xc2;" horiz-adv-x="1183" d="M1439 1523q-20 0 -52.5 35t-64.5 70t-52 35q-21 0 -102 -48t-97 -49h-3q-15 0 -24 12.5t-9 26.5q0 21 57 77t126.5 104t101.5 48q33 0 68 -48t56 -109.5t21 -106.5q0 -47 -26 -47zM-35 -37q-72 0 -116.5 53.5t-44.5 104.5q0 37 25 37q5 0 24 -11t41 -11q51 0 137 56 t181 158q5 7 5 9q0 6 -10 6q-6 0 -20.5 -1t-17.5 -1q-29 0 -59 39t-30 69q0 19 22 19q1 0 21 -1t43 -1q70 0 186 5q7 0 15 8q204 216 415 482.5t333 463.5q21 37 62 37q51 0 99 -49.5t48 -103.5q0 -22 -10 -41q-124 -293 -242 -769v-4q0 -7 6 -11q23 -20 41.5 -44.5 t18.5 -35.5t-13 -13l-69 -5q-9 -2 -12 -10q-55 -207 -55 -301q0 -26 5 -41.5t5 -18.5q0 -16 -16.5 -25.5t-42.5 -9.5q-54 0 -100.5 38t-46.5 109q0 90 41 235q3 11 -9 11t-129 -6q-147 -8 -218 -13q-8 0 -13 -5q-339 -408 -500 -408zM590 505q202 14 270 22q8 3 11 11 q30 107 200 624v4q0 7 -6 7t-13 -11q-238 -355 -464 -643q-4 -4 -4 -9t6 -5z" />
<glyph unicode="&#xc3;" horiz-adv-x="1183" d="M1363 1549q-38 0 -74.5 24.5t-69 48.5t-59.5 24q-15 0 -28.5 -5t-25.5 -13.5t-19.5 -15.5t-16 -17t-9.5 -11q-14 -14 -22 -14q-20 0 -30.5 28.5t-10.5 56.5q0 63 52.5 110t114.5 47q31 0 62.5 -15t53 -32.5t47.5 -32.5t46 -15q42 0 93 59q14 17 26 17q23 0 38.5 -25 t15.5 -57q0 -64 -61 -113t-123 -49zM-35 -37q-72 0 -116 53.5t-44 104.5q0 37 24 37q5 0 24 -11t41 -11q51 0 137 56t181 158q5 7 5 9q0 6 -10 6q-6 0 -20.5 -1t-17.5 -1q-29 0 -59 39t-30 69q0 19 22 19q1 0 21 -1t43 -1q70 0 186 5q7 0 15 8q204 216 415 482.5t333 463.5 q21 37 62 37q51 0 99 -49.5t48 -103.5q0 -22 -10 -41q-124 -293 -242 -769v-4q0 -7 6 -11q23 -20 41.5 -44.5t18.5 -35.5t-13 -13l-69 -5q-9 -2 -12 -10q-55 -207 -55 -301q0 -26 5 -41.5t5 -18.5q0 -16 -16.5 -25.5t-42.5 -9.5q-54 0 -100.5 38t-46.5 109q0 90 41 235 q3 11 -9 11t-129 -6q-147 -8 -218 -13q-8 0 -13 -5q-339 -408 -500 -408zM590 505q202 14 270 22q8 3 11 11q30 107 200 624v4q0 7 -6 7t-13 -11q-238 -355 -464 -643q-4 -4 -4 -9t6 -5z" />
<glyph unicode="&#xc4;" horiz-adv-x="1183" d="M1089 1573q-34 0 -59.5 31.5t-25.5 71.5q0 60 40.5 111t97.5 51q85 0 85 -80q0 -58 -45 -121.5t-93 -63.5zM1372 1558q-34 0 -59 32t-25 73q0 60 41.5 110t100.5 50q82 0 82 -78q0 -60 -45 -123.5t-95 -63.5zM-35 -37q-72 0 -116.5 53.5t-44.5 104.5q0 37 25 37 q5 0 24 -11t41 -11q51 0 137 56t181 158q5 7 5 9q0 6 -10 6q-6 0 -20.5 -1t-17.5 -1q-29 0 -59 39t-30 69q0 19 22 19q1 0 21 -1t43 -1q70 0 186 5q7 0 15 8q204 216 415 482.5t333 463.5q21 37 62 37q51 0 99 -49.5t48 -103.5q0 -22 -10 -41q-124 -293 -242 -769v-4 q0 -7 6 -11q23 -20 41.5 -44.5t18.5 -35.5t-13 -13l-69 -5q-9 -2 -12 -10q-55 -207 -55 -301q0 -26 5 -41.5t5 -18.5q0 -16 -16.5 -25.5t-42.5 -9.5q-54 0 -100.5 38t-46.5 109q0 90 41 235q3 11 -9 11t-129 -6q-147 -8 -218 -13q-8 0 -13 -5q-339 -408 -500 -408zM590 505 q202 14 270 22q8 3 11 11q30 107 200 624v4q0 7 -6 7t-13 -11q-238 -355 -464 -643q-4 -4 -4 -9t6 -5z" />
<glyph unicode="&#xc5;" horiz-adv-x="1183" d="M1253 1551q-76 0 -117 46.5t-41 104.5q0 75 56.5 148t136.5 73q65 0 114.5 -52t49.5 -112q0 -66 -55.5 -137t-143.5 -71zM1240 1646q41 0 75.5 45t34.5 87q0 45 -43 45t-75.5 -44t-32.5 -87q0 -46 41 -46zM-35 -37q-72 0 -116.5 53.5t-44.5 104.5q0 37 25 37q5 0 24 -11 t41 -11q51 0 137 56t181 158q5 7 5 9q0 6 -10 6q-6 0 -20.5 -1t-17.5 -1q-29 0 -59 39t-30 69q0 19 22 19q1 0 21 -1t43 -1q70 0 186 5q7 0 15 8q204 216 415 482.5t333 463.5q21 37 62 37q51 0 99 -49.5t48 -103.5q0 -22 -10 -41q-124 -293 -242 -769v-4q0 -7 6 -11 q23 -20 41.5 -44.5t18.5 -35.5t-13 -13l-69 -5q-9 -2 -12 -10q-55 -207 -55 -301q0 -26 5 -41.5t5 -18.5q0 -16 -16.5 -25.5t-42.5 -9.5q-54 0 -100.5 38t-46.5 109q0 90 41 235q3 11 -9 11t-129 -6q-147 -8 -218 -13q-8 0 -13 -5q-339 -408 -500 -408zM590 505 q202 14 270 22q8 3 11 11q30 107 200 624v4q0 7 -6 7t-13 -11q-238 -355 -464 -643q-4 -4 -4 -9t6 -5z" />
<glyph unicode="&#xc6;" horiz-adv-x="1730" d="M-35 -37q-72 0 -116 53.5t-44 104.5q0 37 24 37q5 0 24 -11t41 -11q51 0 137 56t181 158q5 7 5 9q0 6 -10 6q-6 0 -20.5 -1t-17.5 -1q-29 0 -59 39t-30 69q0 19 22 19q1 0 21 -1t43 -1q70 0 186 5q7 0 15 8q239 252 450.5 507.5t316.5 438.5q21 37 61 37q45 0 83.5 -43 t44.5 -95q2 -8 6 -8t7 2q76 58 162.5 91.5t164.5 33.5q140 0 182 -104q3 -6 6 -6q4 0 8 5q52 77 53 79q10 13 30 13q36 0 77.5 -38.5t41.5 -74.5q0 -19 -15 -34q-23 -27 -45 -58.5t-38 -56.5t-35.5 -62t-29.5 -56t-27 -58.5t-21.5 -50t-20.5 -50t-16 -40.5q-8 -17 -24 -17 q-34 0 -54 36t-20 87q0 96 86 274q2 4 2 7q-1 15 -66 15q-86 0 -179.5 -34t-164.5 -84.5t-117.5 -110t-46.5 -108.5q0 -54 61 -93t168 -39q47 0 115 11q34 4 54.5 -27t20.5 -73q0 -38 -15.5 -64t-46.5 -27q-121 -10 -221 -37t-164.5 -62.5t-109 -77.5t-63.5 -81.5t-19 -75.5 q0 -22 8.5 -43.5t30.5 -46t69.5 -40t115.5 -15.5q197 0 360.5 130.5t305.5 377.5q3 6 8 6q13 0 28.5 -20t15.5 -38q0 -5 -2 -9q-38 -83 -82.5 -159t-114 -161.5t-147 -147t-182.5 -102.5t-218 -41q-127 0 -212 48q-4 2 -6 2q-7 0 -7 -10q0 -7 0.5 -14t0.5 -10 q0 -16 -16.5 -25t-39.5 -9q-52 0 -92 51.5t-40 128.5q0 94 41 239q3 11 -9 11t-129 -6q-147 -8 -218 -13q-8 0 -13 -5q-339 -408 -500 -408zM590 505q202 14 270 22q8 3 11 11q34 120 116.5 343t101.5 281l1 2v2q0 7 -6 7t-13 -11q-127 -190 -483 -643q-4 -4 -4 -9t6 -5z M1109 694q5 0 8 2q46 24 106 46q7 3 7 8q0 3 -4 7q-40 42 -62 92q-3 7 -7 7q-5 0 -6 -7q-19 -56 -46 -144q-3 -9 4 -11z" />
<glyph unicode="&#xc7;" horiz-adv-x="847" d="M758 862q0 65 46 185t108 241q2 4 2 6q0 13 -31 13q-90 0 -202.5 -96t-205 -235.5t-156.5 -308t-64 -302.5q0 -223 179 -223q143 0 293.5 136.5t287.5 376.5q3 6 7 6q13 0 31 -20.5t18 -37.5q0 -5 -2 -9q-34 -76 -81 -154t-112.5 -159.5t-136 -146t-155.5 -108 t-168 -49.5q8 -33 8 -74q0 -85 -44 -142t-123 -57q-69 0 -108 41t-39 84q0 33 22 33q12 0 21 -5q37 -15 65 -15q46 0 77 36t39 102q-128 21 -202 132.5t-74 280.5q0 135 49 292t130 295.5t176 254t195 183.5t180 68q101 0 169 -91q3 -4 7 -4q6 0 8 5q45 79 48 84 q15 22 38 22q40 0 84 -49t44 -91q0 -12 -7 -22q-62 -78 -160.5 -262t-141.5 -318q-7 -15 -22 -15q-35 0 -66 34t-31 83z" />
<glyph unicode="&#xc8;" horiz-adv-x="907" d="M1029 1526q-43 0 -115.5 46.5t-128 105t-55.5 90.5t44.5 65t72.5 33q15 0 26 -17q40 -68 112 -138.5t117 -100.5q17 -11 17 -27q0 -20 -29 -38.5t-61 -18.5zM382 -17q-88 0 -157 24.5t-109.5 61.5t-66.5 85t-35.5 90t-9.5 82q0 70 34.5 137t92 119.5t126 93t142.5 66.5 q8 3 8 8q0 3 -4 7q-130 125 -130 248q0 83 55 168.5t138 148.5t183 103t187 40q79 0 123.5 -30t62.5 -74q1 -4 5 -4q6 0 16 16q29 48 46 66q12 14 31 14q37 0 77.5 -39t40.5 -76q0 -20 -15 -33q-23 -27 -45 -58.5t-38 -56.5t-35.5 -62t-29.5 -56t-27 -58.5t-21.5 -50 t-20.5 -50t-16 -40.5q-8 -17 -24 -17q-35 0 -54.5 35.5t-19.5 87.5q0 98 86 274q1 2 1 6q0 6 -8 9q-18 7 -55 7q-106 0 -223.5 -56.5t-193 -136t-75.5 -144.5q0 -55 55 -93.5t158 -38.5q55 0 113 11q35 4 55.5 -27.5t20.5 -73.5q0 -36 -16.5 -62.5t-46.5 -27.5 q-121 -10 -220.5 -37t-163 -62.5t-107 -77.5t-62 -81.5t-18.5 -75.5q0 -22 8 -43.5t28.5 -46.5t67.5 -40t114 -15q197 0 360.5 130.5t305.5 377.5q3 6 8 6q13 0 28.5 -20t15.5 -38q0 -5 -2 -9q-38 -83 -82.5 -159t-114 -161.5t-147 -147t-182.5 -102.5t-218 -41z" />
<glyph unicode="&#xc9;" horiz-adv-x="907" d="M789 1566q-32 0 -59.5 25.5t-27.5 48.5q0 18 24 28q47 18 140 76t143 108q10 10 26 10q25 0 61 -42.5t36 -78.5q0 -29 -65 -71.5t-147.5 -73t-130.5 -30.5zM382 -17q-88 0 -157 24.5t-109.5 61.5t-66.5 85t-35.5 90t-9.5 82q0 70 34.5 137t92 119.5t126 93t142.5 66.5 q8 3 8 8q0 3 -4 7q-130 125 -130 248q0 83 55 168.5t138 148.5t183 103t187 40q79 0 123.5 -30t62.5 -74q1 -4 5 -4q6 0 16 16q29 48 46 66q12 14 31 14q37 0 77.5 -39t40.5 -76q0 -20 -15 -33q-23 -27 -45 -58.5t-38 -56.5t-35.5 -62t-29.5 -56t-27 -58.5t-21.5 -50 t-20.5 -50t-16 -40.5q-8 -17 -24 -17q-35 0 -54.5 35.5t-19.5 87.5q0 98 86 274q1 2 1 6q0 6 -8 9q-18 7 -55 7q-106 0 -223.5 -56.5t-193 -136t-75.5 -144.5q0 -55 55 -93.5t158 -38.5q55 0 113 11q35 4 55.5 -27.5t20.5 -73.5q0 -36 -16.5 -62.5t-46.5 -27.5 q-121 -10 -220.5 -37t-163 -62.5t-107 -77.5t-62 -81.5t-18.5 -75.5q0 -22 8 -43.5t28.5 -46.5t67.5 -40t114 -15q197 0 360.5 130.5t305.5 377.5q3 6 8 6q13 0 28.5 -20t15.5 -38q0 -5 -2 -9q-38 -83 -82.5 -159t-114 -161.5t-147 -147t-182.5 -102.5t-218 -41z" />
<glyph unicode="&#xca;" horiz-adv-x="907" d="M1071 1523q-20 0 -52.5 35l-65 70t-52.5 35q-21 0 -102 -48t-97 -49h-3q-15 0 -23.5 12.5t-8.5 26.5q0 21 56.5 77t126 104t101.5 48q33 0 68.5 -48t56.5 -109.5t21 -106.5q0 -47 -26 -47zM382 -17q-88 0 -157 24.5t-109.5 61.5t-66.5 85t-35.5 90t-9.5 82q0 70 34.5 137 t92 119.5t126 93t142.5 66.5q8 3 8 8q0 3 -4 7q-130 125 -130 248q0 83 55 168.5t138 148.5t183 103t187 40q79 0 123.5 -30t62.5 -74q1 -4 5 -4q6 0 16 16q29 48 46 66q12 14 31 14q37 0 77.5 -39t40.5 -76q0 -20 -15 -33q-23 -27 -45 -58.5t-38 -56.5t-35.5 -62t-29.5 -56 t-27 -58.5t-21.5 -50t-20.5 -50t-16 -40.5q-8 -17 -24 -17q-35 0 -54.5 35.5t-19.5 87.5q0 98 86 274q1 2 1 6q0 6 -8 9q-18 7 -55 7q-106 0 -223.5 -56.5t-193 -136t-75.5 -144.5q0 -55 55 -93.5t158 -38.5q55 0 113 11q35 4 55.5 -27.5t20.5 -73.5q0 -36 -16.5 -62.5 t-46.5 -27.5q-121 -10 -220.5 -37t-163 -62.5t-107 -77.5t-62 -81.5t-18.5 -75.5q0 -22 8 -43.5t28.5 -46.5t67.5 -40t114 -15q197 0 360.5 130.5t305.5 377.5q3 6 8 6q13 0 28.5 -20t15.5 -38q0 -5 -2 -9q-38 -83 -82.5 -159t-114 -161.5t-147 -147t-182.5 -102.5t-218 -41 z" />
<glyph unicode="&#xcb;" horiz-adv-x="907" d="M721 1573q-34 0 -60 31.5t-26 71.5q0 60 41 111t98 51q84 0 84 -80q0 -58 -44.5 -121.5t-92.5 -63.5zM1004 1558q-34 0 -59 32t-25 73q0 60 41 110t100 50q82 0 82 -78q0 -60 -44.5 -123.5t-94.5 -63.5zM382 -17q-88 0 -157 24.5t-109.5 61.5t-66.5 85t-35.5 90t-9.5 82 q0 70 34.5 137t92 119.5t126 93t142.5 66.5q8 3 8 8q0 3 -4 7q-130 125 -130 248q0 83 55 168.5t138 148.5t183 103t187 40q79 0 123.5 -30t62.5 -74q1 -4 5 -4q6 0 16 16q29 48 46 66q12 14 31 14q37 0 77.5 -39t40.5 -76q0 -20 -15 -33q-23 -27 -45 -58.5t-38 -56.5 t-35.5 -62t-29.5 -56t-27 -58.5t-21.5 -50t-20.5 -50t-16 -40.5q-8 -17 -24 -17q-35 0 -54.5 35.5t-19.5 87.5q0 98 86 274q1 2 1 6q0 6 -8 9q-18 7 -55 7q-106 0 -223.5 -56.5t-193 -136t-75.5 -144.5q0 -55 55 -93.5t158 -38.5q55 0 113 11q35 4 55.5 -27.5t20.5 -73.5 q0 -36 -16.5 -62.5t-46.5 -27.5q-121 -10 -220.5 -37t-163 -62.5t-107 -77.5t-62 -81.5t-18.5 -75.5q0 -22 8 -43.5t28.5 -46.5t67.5 -40t114 -15q197 0 360.5 130.5t305.5 377.5q3 6 8 6q13 0 28.5 -20t15.5 -38q0 -5 -2 -9q-38 -83 -82.5 -159t-114 -161.5t-147 -147 t-182.5 -102.5t-218 -41z" />
<glyph unicode="&#xcc;" horiz-adv-x="788" d="M914 1526q-43 0 -116 46.5t-128.5 105.5t-55.5 90q0 32 45 65t73 33q15 0 26 -17q40 -68 112 -138.5t117 -100.5q17 -11 17 -27q0 -20 -29 -38.5t-61 -18.5zM456 -50q-7 -20 -32 -20q-42 0 -93 44.5t-51 93.5q0 21 10 38q20 34 56 104.5t89.5 177t93.5 182.5 q272 517 272 681q0 97 -95 97q-70 0 -161.5 -49t-166.5 -118t-127.5 -145.5t-51.5 -128.5q1 -22 17 -37.5t31.5 -26.5t15.5 -22q0 -30 -38 -30q-50 0 -91.5 44t-62.5 101t-21 106q0 81 60.5 165t149.5 145.5t193 101t189 39.5q145 0 244 -103t99 -230q0 -52 -17 -117 t-57 -155t-69 -149t-88 -175q-22 -44 -70 -138.5t-74 -146.5t-60.5 -122t-57 -120t-36.5 -87z" />
<glyph unicode="&#xcd;" horiz-adv-x="788" d="M674 1566q-32 0 -60 25.5t-28 48.5q0 18 25 28q47 18 140 76t143 108q10 10 26 10q25 0 61 -42.5t36 -78.5q0 -29 -65 -71.5t-147.5 -73t-130.5 -30.5zM456 -50q-7 -20 -32 -20q-42 0 -93 44.5t-51 93.5q0 21 10 38q20 34 56 104.5t89.5 177t93.5 182.5q272 517 272 681 q0 97 -95 97q-70 0 -161.5 -49t-166.5 -118t-127.5 -145.5t-51.5 -128.5q1 -22 17 -37.5t31.5 -26.5t15.5 -22q0 -30 -38 -30q-50 0 -91.5 44t-62.5 101t-21 106q0 81 60.5 165t149.5 145.5t193 101t189 39.5q145 0 244 -103t99 -230q0 -52 -17 -117t-57 -155t-69 -149 t-88 -175q-22 -44 -70 -138.5t-74 -146.5t-60.5 -122t-57 -120t-36.5 -87z" />
<glyph unicode="&#xce;" horiz-adv-x="788" d="M955 1523q-20 0 -52.5 35t-64.5 70t-52 35q-21 0 -102.5 -48t-97.5 -49h-2q-15 0 -24 12.5t-9 26.5q0 21 57 77t126.5 104t101.5 48q33 0 68 -48t56 -109.5t21 -106.5q0 -47 -26 -47zM456 -50q-7 -20 -32 -20q-42 0 -93 44.5t-51 93.5q0 21 10 38q20 34 56 104.5 t89.5 177t93.5 182.5q272 517 272 681q0 97 -95 97q-70 0 -161.5 -49t-166.5 -118t-127.5 -145.5t-51.5 -128.5q1 -22 17 -37.5t31.5 -26.5t15.5 -22q0 -30 -38 -30q-50 0 -91.5 44t-62.5 101t-21 106q0 81 60.5 165t149.5 145.5t193 101t189 39.5q145 0 244 -103t99 -230 q0 -52 -17 -117t-57 -155t-69 -149t-88 -175q-22 -44 -70 -138.5t-74 -146.5t-60.5 -122t-57 -120t-36.5 -87z" />
<glyph unicode="&#xcf;" horiz-adv-x="788" d="M605 1573q-34 0 -60 31.5t-26 71.5q0 60 41 111t98 51q85 0 85 -80q0 -58 -45 -121.5t-93 -63.5zM888 1558q-34 0 -59 32t-25 73q0 60 41.5 110t100.5 50q82 0 82 -78q0 -60 -45 -123.5t-95 -63.5zM456 -50q-7 -20 -32 -20q-42 0 -93 44.5t-51 93.5q0 21 10 38 q20 34 56 104.5t89.5 177t93.5 182.5q272 517 272 681q0 97 -95 97q-70 0 -161.5 -49t-166.5 -118t-127.5 -145.5t-51.5 -128.5q1 -22 17 -37.5t31.5 -26.5t15.5 -22q0 -30 -38 -30q-50 0 -91.5 44t-62.5 101t-21 106q0 81 60.5 165t149.5 145.5t193 101t189 39.5 q145 0 244 -103t99 -230q0 -52 -17 -117t-57 -155t-69 -149t-88 -175q-22 -44 -70 -138.5t-74 -146.5t-60.5 -122t-57 -120t-36.5 -87z" />
<glyph unicode="&#xd0;" horiz-adv-x="1179" d="M929 1435q177 -44 265.5 -180.5t88.5 -327.5q0 -101 -29.5 -213t-80 -216t-122 -199t-152 -165t-173 -111.5t-181.5 -41.5q-180 0 -230 131q-3 7 -7 7q-3 0 -6 -7q-28 -66 -34 -84q-10 -30 -43 -30q-49 0 -94 41.5t-45 89.5q0 18 7 33q33 73 193 391q-25 14 -44.5 47.5 t-19.5 58.5q0 26 24 26q25 0 109 6q53 106 152 301.5t135 267.5q3 4 3 7q0 6 -7 6q-3 0 -5 -1q-103 -32 -191.5 -85.5t-142.5 -110t-84.5 -110.5t-30.5 -93q0 -19 9.5 -33t21.5 -21t21.5 -15.5t9.5 -17.5q0 -30 -37 -30q-72 0 -122 83.5t-50 165.5q0 69 43.5 135.5 t115 117.5t161.5 92.5t186.5 66t186.5 31.5q10 1 13 8l11 22q12 26 47 26q27 0 61 -17t54 -44q6 -5 13 -8zM467 169q93 0 188.5 54.5t173 145t139 199.5t95.5 225t34 216q0 136 -61.5 211.5t-128.5 75.5q-9 0 -13 -6q-107 -194 -302 -578q90 10 129 10q28 0 58.5 -43 t30.5 -76q0 -28 -26 -28q-20 0 -269 -17q-99 -197 -171 -353q-2 -6 -2 -7q0 -6 6 -8q57 -21 119 -21z" />
<glyph unicode="&#xd1;" horiz-adv-x="1193" d="M1355 1549q-38 0 -74.5 24.5t-69 48.5t-59.5 24q-15 0 -28.5 -5t-25 -13.5t-19 -15.5t-15.5 -16.5t-10 -11.5q-14 -14 -23 -14q-20 0 -30.5 28.5t-10.5 56.5q0 63 53 110t115 47q31 0 62.5 -15t53 -32.5t47.5 -32.5t46 -15q42 0 93 59q14 17 26 17q23 0 38.5 -25 t15.5 -57q0 -63 -61 -112.5t-124 -49.5zM58 -37q-73 0 -123 56.5t-50 118.5q0 26 18 26q5 0 24 -11t41 -11q60 0 132.5 62t147 171.5t148 239t147 285.5t131 288t112.5 268q10 24 41 24q48 0 107.5 -47.5t59.5 -106.5q0 -26 -7 -43q-7 -26 -18.5 -160t-28.5 -352t-28 -341 v-4q0 -9 6 -9q3 0 9 11q137 293 283 630.5t157 389.5q9 32 41 32q43 0 95.5 -44.5t52.5 -85.5q0 -16 -9 -26q-59 -80 -308.5 -612t-300.5 -684q-18 -41 -62 -41q-59 0 -119 69t-53 141q6 57 28 359.5t37 472.5v5q0 7 -5 7q-3 0 -6 -6q-51 -121 -80.5 -189.5t-80.5 -184 t-87 -184.5t-85.5 -161t-91.5 -146t-89.5 -106.5t-94 -76.5t-91.5 -24z" />
<glyph unicode="&#xd2;" d="M1110 1526q-43 0 -116 46.5t-128.5 105.5t-55.5 90q0 32 44.5 65t72.5 33q15 0 26 -17q40 -68 112 -138.5t117 -100.5q17 -11 17 -27q0 -20 -28.5 -38.5t-60.5 -18.5zM413 -28q-44 0 -88 12.5t-88 43.5t-77.5 77t-54.5 118t-21 162q0 127 40 276.5t106 283t144.5 245.5 t163.5 178t155 66q24 0 46 -10q3 -1 7 -1q5 0 8 2q82 46 156 46q118 0 196 -110.5t78 -260.5q0 -94 -30 -215t-81.5 -245.5t-126 -245t-157.5 -214t-182 -151t-194 -57.5zM397 125q88 0 202 123t206.5 292.5t156.5 353t64 299.5q0 75 -28.5 107.5t-72.5 32.5 q-79 0 -180 -101t-187 -254.5t-132 -309.5q-2 -23 -18 -23q-28 0 -52 49q-4 6 -5 6q-5 0 -10 -15q-29 -73 -48 -166.5t-19 -175.5q0 -98 30 -158t93 -60z" />
<glyph unicode="&#xd3;" d="M869 1566q-32 0 -59.5 25.5t-27.5 48.5q0 18 24 28q47 18 140 76t143 108q10 10 26 10q25 0 61 -42.5t36 -78.5q0 -29 -65 -71.5t-147.5 -73t-130.5 -30.5zM413 -28q-44 0 -88 12.5t-88 43.5t-77.5 77t-54.5 118t-21 162q0 127 40 276.5t106 283t144.5 245.5t163.5 178 t155 66q24 0 46 -10q3 -1 7 -1q5 0 8 2q82 46 156 46q118 0 196 -110.5t78 -260.5q0 -94 -30 -215t-81.5 -245.5t-126 -245t-157.5 -214t-182 -151t-194 -57.5zM397 125q88 0 202 123t206.5 292.5t156.5 353t64 299.5q0 75 -28.5 107.5t-72.5 32.5q-79 0 -180 -101 t-187 -254.5t-132 -309.5q-2 -23 -18 -23q-28 0 -52 49q-4 6 -5 6q-5 0 -10 -15q-29 -73 -48 -166.5t-19 -175.5q0 -98 30 -158t93 -60z" />
<glyph unicode="&#xd4;" d="M1151 1523q-20 0 -52.5 35l-65 70t-52.5 35q-21 0 -102 -48t-97 -49h-3q-15 0 -23.5 12.5t-8.5 26.5q0 21 56.5 77t126 104t101.5 48q33 0 68.5 -48t56.5 -109.5t21 -106.5q0 -47 -26 -47zM413 -28q-44 0 -88 12.5t-88 43.5t-77.5 77t-54.5 118t-21 162q0 127 40 276.5 t106 283t144.5 245.5t163.5 178t155 66q24 0 46 -10q3 -1 7 -1q5 0 8 2q82 46 156 46q118 0 196 -110.5t78 -260.5q0 -94 -30 -215t-81.5 -245.5t-126 -245t-157.5 -214t-182 -151t-194 -57.5zM397 125q88 0 202 123t206.5 292.5t156.5 353t64 299.5q0 75 -28.5 107.5 t-72.5 32.5q-79 0 -180 -101t-187 -254.5t-132 -309.5q-2 -23 -18 -23q-28 0 -52 49q-4 6 -5 6q-5 0 -10 -15q-29 -73 -48 -166.5t-19 -175.5q0 -98 30 -158t93 -60z" />
<glyph unicode="&#xd5;" d="M1074 1549q-38 0 -74.5 24.5t-69 48.5t-59.5 24q-15 0 -28.5 -5t-25 -13.5t-19 -15.5t-15.5 -16.5t-10 -11.5q-14 -14 -23 -14q-20 0 -30.5 28.5t-10.5 56.5q0 63 53 110t115 47q39 0 78 -24t72 -47.5t58 -23.5q43 0 94 59q14 17 26 17q23 0 38.5 -25t15.5 -57 q0 -63 -61 -112.5t-124 -49.5zM413 -28q-44 0 -88 12.5t-88 43.5t-77.5 77t-54.5 118t-21 162q0 127 40 276.5t106 283t144.5 245.5t163.5 178t155 66q24 0 46 -10q3 -1 7 -1q5 0 8 2q82 46 156 46q118 0 196 -110.5t78 -260.5q0 -94 -30 -215t-81.5 -245.5t-126 -245 t-157.5 -214t-182 -151t-194 -57.5zM397 125q88 0 202 123t206.5 292.5t156.5 353t64 299.5q0 75 -28.5 107.5t-72.5 32.5q-79 0 -180 -101t-187 -254.5t-132 -309.5q-2 -23 -18 -23q-28 0 -52 49q-4 6 -5 6q-5 0 -10 -15q-29 -73 -48 -166.5t-19 -175.5q0 -98 30 -158 t93 -60z" />
<glyph unicode="&#xd6;" d="M801 1573q-34 0 -60 31.5t-26 71.5q0 60 41 111t98 51q84 0 84 -80q0 -58 -44.5 -121.5t-92.5 -63.5zM1084 1558q-34 0 -59 32t-25 73q0 60 41 110t100 50q82 0 82 -78q0 -60 -44.5 -123.5t-94.5 -63.5zM413 -28q-44 0 -88 12.5t-88 43.5t-77.5 77t-54.5 118t-21 162 q0 127 40 276.5t106 283t144.5 245.5t163.5 178t155 66q24 0 46 -10q3 -1 7 -1q5 0 8 2q82 46 156 46q118 0 196 -110.5t78 -260.5q0 -94 -30 -215t-81.5 -245.5t-126 -245t-157.5 -214t-182 -151t-194 -57.5zM397 125q88 0 202 123t206.5 292.5t156.5 353t64 299.5 q0 75 -28.5 107.5t-72.5 32.5q-79 0 -180 -101t-187 -254.5t-132 -309.5q-2 -23 -18 -23q-28 0 -52 49q-4 6 -5 6q-5 0 -10 -15q-29 -73 -48 -166.5t-19 -175.5q0 -98 30 -158t93 -60z" />
<glyph unicode="&#xd7;" horiz-adv-x="1005" d="M732 223q-36 0 -63.5 15t-35.5 47q-4 16 -15.5 74.5t-20.5 96.5q-2 9 -8 9q-1 0 -7 -4q-196 -180 -243 -221q-5 -5 -13 -5q-15 0 -28 13q-15 15 -25.5 41.5t-10.5 53.5q0 40 27 61l254 226q5 4 5 11v4q-10 36 -41 147.5t-42 151.5q-8 27 27.5 46t79.5 19q62 0 68 -37 q12 -68 44 -199q2 -8 8 -8q2 0 7 3l53 47q30 27 101.5 93t94.5 86q12 10 20 10q25 0 47 -35t22 -73q0 -31 -19 -47q-88 -80 -281 -248q-5 -5 -5 -9q0 -3 1 -5q73 -242 99 -306q10 -22 -22.5 -40t-77.5 -18z" />
<glyph unicode="&#xd8;" d="M40 -103q-24 0 -48 31.5t-24 64.5q0 24 13 37q20 21 128 155q4 4 4 9q0 4 -1 6q-28 79 -28 185q0 127 40 276.5t106 283t144.5 245.5t163.5 178t155 66q24 0 46 -10q3 -1 7 -1q5 0 8 2q82 46 156 46q68 0 128 -42q3 -2 7 -2q5 0 9 5q63 91 71 110q14 32 35 32 q23 0 43 -33.5t20 -71.5q0 -39 -20 -60q-30 -33 -67 -79q-3 -4 -3 -9q0 -3 2 -7q49 -95 49 -214q0 -94 -30 -215t-81.5 -245.5t-126 -245t-157.5 -214t-182 -151t-194 -57.5q-60 0 -120.5 25t-107.5 77q-4 4 -8 4q-5 0 -8 -5q-81 -113 -104 -159q-9 -17 -25 -17zM284 413 q5 0 9 5q404 521 674 893q3 3 3 7q0 15 -45 15q-79 0 -180 -101t-187 -254.5t-132 -309.5q-2 -23 -18 -23q-28 0 -52 49q-4 6 -5 6q-5 0 -10 -15q-48 -122 -62 -261q-2 -11 5 -11zM397 125q86 0 196.5 117t201.5 280.5t157 343.5t73 301q0 11 -6 11q-4 0 -9 -5 q-404 -509 -719 -933q-3 -4 -3 -10v-6q28 -99 109 -99z" />
<glyph unicode="&#xd9;" horiz-adv-x="1257" d="M1327 1526q-43 0 -115.5 46.5t-128 105t-55.5 90.5t44.5 65t72.5 33q15 0 26 -17q40 -68 112 -138.5t117 -100.5q17 -11 17 -27q0 -20 -29 -38.5t-61 -18.5zM966 -40q-41 0 -81 42t-40 87q0 15 6 28q5 12 77.5 176.5t112.5 259.5q3 9 3 15q0 10 -7 10t-13 -10 q-80 -128 -144.5 -220.5t-135 -176.5t-134 -127.5t-117.5 -43.5q-75 0 -128.5 75t-53.5 173q0 80 44 194t107 227.5t126 226t107 219.5t44 177q0 36 -13 51.5t-43 15.5q-93 0 -213.5 -91t-203 -206t-82.5 -185q0 -22 15.5 -37.5t31 -26.5t15.5 -22q0 -30 -37 -30 q-49 0 -89 41.5t-59.5 96t-19.5 103.5q0 82 61 172t149.5 159t192 114.5t185.5 45.5q65 0 117.5 -28.5t83.5 -74t47.5 -98t16.5 -104.5q0 -69 -43 -179.5t-105 -225t-123.5 -225t-104.5 -204t-43 -138.5q0 -37 33 -37q83 0 245 181.5t350 481.5t342 627q13 27 42 27 q43 0 93 -46t50 -86q0 -17 -12 -29q-85 -113 -227 -423.5t-245 -570.5t-122 -328q-15 -53 -58 -53z" />
<glyph unicode="&#xda;" horiz-adv-x="1257" d="M1087 1566q-32 0 -59.5 25.5t-27.5 48.5q0 18 24 28q47 18 140 76t143 108q10 10 26 10q25 0 61 -42.5t36 -78.5q0 -29 -65 -71.5t-147.5 -73t-130.5 -30.5zM966 -40q-41 0 -81 42t-40 87q0 15 6 28q5 12 77.5 176.5t112.5 259.5q3 9 3 15q0 10 -7 10t-13 -10 q-80 -128 -144.5 -220.5t-135 -176.5t-134 -127.5t-117.5 -43.5q-75 0 -128.5 75t-53.5 173q0 80 44 194t107 227.5t126 226t107 219.5t44 177q0 36 -13 51.5t-43 15.5q-93 0 -213.5 -91t-203 -206t-82.5 -185q0 -22 15.5 -37.5t31 -26.5t15.5 -22q0 -30 -37 -30 q-49 0 -89 41.5t-59.5 96t-19.5 103.5q0 82 61 172t149.5 159t192 114.5t185.5 45.5q65 0 117.5 -28.5t83.5 -74t47.5 -98t16.5 -104.5q0 -69 -43 -179.5t-105 -225t-123.5 -225t-104.5 -204t-43 -138.5q0 -37 33 -37q83 0 245 181.5t350 481.5t342 627q13 27 42 27 q43 0 93 -46t50 -86q0 -17 -12 -29q-85 -113 -227 -423.5t-245 -570.5t-122 -328q-15 -53 -58 -53z" />
<glyph unicode="&#xdb;" horiz-adv-x="1257" d="M1368 1523q-20 0 -52 35t-64.5 70t-52.5 35q-21 0 -102 -48t-97 -49h-3q-15 0 -24 12.5t-9 26.5q0 21 57 77t126.5 104t101.5 48q33 0 68.5 -48t56.5 -109.5t21 -106.5q0 -47 -27 -47zM966 -40q-41 0 -81 42t-40 87q0 15 6 28q5 12 77.5 176.5t112.5 259.5q3 9 3 15 q0 10 -7 10t-13 -10q-80 -128 -144.5 -220.5t-135 -176.5t-134 -127.5t-117.5 -43.5q-75 0 -128.5 75t-53.5 173q0 80 44 194t107 227.5t126 226t107 219.5t44 177q0 36 -13 51.5t-43 15.5q-93 0 -213.5 -91t-203 -206t-82.5 -185q0 -22 15.5 -37.5t31 -26.5t15.5 -22 q0 -30 -37 -30q-49 0 -89 41.5t-59.5 96t-19.5 103.5q0 82 61 172t149.5 159t192 114.5t185.5 45.5q65 0 117.5 -28.5t83.5 -74t47.5 -98t16.5 -104.5q0 -69 -43 -179.5t-105 -225t-123.5 -225t-104.5 -204t-43 -138.5q0 -37 33 -37q83 0 245 181.5t350 481.5t342 627 q13 27 42 27q43 0 93 -46t50 -86q0 -17 -12 -29q-85 -113 -227 -423.5t-245 -570.5t-122 -328q-15 -53 -58 -53z" />
<glyph unicode="&#xdc;" horiz-adv-x="1257" d="M1018 1573q-34 0 -59.5 31.5t-25.5 71.5q0 60 41 111t98 51q84 0 84 -80q0 -58 -45 -121.5t-93 -63.5zM1301 1558q-33 0 -58 31.5t-25 73.5q0 60 41 110t100 50q82 0 82 -78q0 -60 -45 -123.5t-95 -63.5zM966 -40q-41 0 -81 42t-40 87q0 15 6 28q5 12 77.5 176.5 t112.5 259.5q3 9 3 15q0 10 -7 10t-13 -10q-80 -128 -144.5 -220.5t-135 -176.5t-134 -127.5t-117.5 -43.5q-75 0 -128.5 75t-53.5 173q0 80 44 194t107 227.5t126 226t107 219.5t44 177q0 36 -13 51.5t-43 15.5q-93 0 -213.5 -91t-203 -206t-82.5 -185q0 -22 15.5 -37.5 t31 -26.5t15.5 -22q0 -30 -37 -30q-49 0 -89 41.5t-59.5 96t-19.5 103.5q0 82 61 172t149.5 159t192 114.5t185.5 45.5q65 0 117.5 -28.5t83.5 -74t47.5 -98t16.5 -104.5q0 -69 -43 -179.5t-105 -225t-123.5 -225t-104.5 -204t-43 -138.5q0 -37 33 -37q83 0 245 181.5 t350 481.5t342 627q13 27 42 27q43 0 93 -46t50 -86q0 -17 -12 -29q-85 -113 -227 -423.5t-245 -570.5t-122 -328q-15 -53 -58 -53z" />
<glyph unicode="&#xdd;" horiz-adv-x="1271" d="M1065 1566q-32 0 -60 25.5t-28 48.5q0 18 25 28q47 18 140 76t143 108q10 10 26 10q25 0 61 -42.5t36 -78.5q0 -29 -65 -71.5t-147.5 -73t-130.5 -30.5zM802 -412q-44 0 -89 47t-45 94q0 15 8 31q27 52 89.5 186t146.5 316t125 269q10 21 10 31q0 6 -4 6q-9 0 -26 -26 q-83 -128 -145.5 -215t-132 -167.5t-130.5 -120t-116 -39.5q-75 0 -128.5 75t-53.5 173q0 80 44 194t107 227.5t126 226t107 219.5t44 177q0 36 -13 51.5t-43 15.5q-93 0 -213.5 -91t-203 -206t-82.5 -185q0 -22 15.5 -37.5t31 -26.5t15.5 -22q0 -30 -37 -30q-49 0 -89 41.5 t-59.5 96t-19.5 103.5q0 82 61 172t149.5 159t192 114.5t185.5 45.5q65 0 117.5 -28.5t83.5 -74t47.5 -98t16.5 -104.5q0 -69 -43 -179.5t-105 -225t-123.5 -225t-104.5 -204t-43 -138.5q0 -37 33 -37q83 0 249.5 181t360.5 483t347 626q13 26 43 26q44 0 94.5 -45t50.5 -85 q0 -18 -13 -30q-124 -169 -418 -828.5t-362 -869.5q-17 -49 -58 -49z" />
<glyph unicode="&#xde;" horiz-adv-x="1036" d="M197 -2q-45 0 -93 42t-48 89q0 18 7 33q234 473 457 946q2 4 2 5q0 7 -7 7q-3 0 -5 -1q-158 -58 -279 -194t-121 -221q0 -19 9.5 -33.5t21 -21t21 -15.5t9.5 -18q0 -30 -37 -30q-49 0 -89.5 43t-61 99.5t-20.5 107.5q0 80 57.5 155t149.5 130.5t200.5 94.5t217.5 55 q9 2 13 9q100 217 108 254q7 33 42 33q45 0 99.5 -45.5t54.5 -87.5q0 -12 -8 -25q-12 -16 -67 -125q-5 -11 7 -14q84 -16 148.5 -55t102 -90.5t56 -107t18.5 -112.5q0 -108 -66.5 -212.5t-165 -177t-212.5 -117t-210 -44.5q-63 0 -104 18q-2 1 -6 1q-6 0 -9 -7 q-122 -268 -147 -338q-11 -30 -45 -30zM472 519h3q111 21 208.5 71.5t162.5 115t102 135t37 133.5q0 75 -53 123.5t-159 54.5q-10 0 -13 -7q-107 -216 -294 -614q-2 -4 -2 -6q0 -6 8 -6z" />
<glyph unicode="&#xdf;" horiz-adv-x="815" d="M-123 -315q-50 0 -91 39.5t-41 85.5q0 23 9 37q49 74 147 268t249 510.5t157 329.5q32 61 51.5 96.5t54 94.5t60.5 94.5t63 79.5t69.5 68.5t72 41.5t78.5 17q106 0 185 -88.5t79 -222.5q0 -164 -122.5 -348t-318.5 -296q-8 -5 -9 -12.5t7 -12.5q121 -81 121 -216 q0 -115 -87.5 -190.5t-239.5 -75.5q-93 0 -145.5 28t-52.5 65q0 49 45 49q19 0 42.5 -15t57.5 -15q62 0 118.5 61.5t56.5 126.5q0 35 -18.5 63.5t-40 43.5t-40 34t-18.5 39q0 24 19.5 45t73.5 63q97 76 172 167.5t118 178t64.5 163.5t21.5 139q0 53 -16.5 79.5t-44.5 26.5 q-27 0 -57 -25t-55 -71q-54 -101 -397.5 -790t-354.5 -730q-8 -26 -43 -26z" />
<glyph unicode="&#xe0;" horiz-adv-x="839" d="M881 1042q-43 0 -116 46.5t-128.5 105.5t-55.5 90q0 32 44.5 64.5t72.5 32.5q15 0 26 -16q40 -68 112 -138.5t117 -100.5q17 -11 17 -28q0 -20 -28.5 -38t-60.5 -18zM156 0q-67 0 -104 56t-37 148q0 70 22 157.5t58.5 175t88 171.5t107.5 148t119.5 103t121.5 39 q55 0 111 -33t87 -77q3 -5 8 -5q4 0 7 5l48 89q15 25 43 25q41 0 83 -41.5t42 -90.5q0 -29 -15 -51q-71 -108 -187.5 -339t-116.5 -286q0 -21 17 -21q15 0 41 25.5t59 70.5t66 93t70 108t61.5 100.5t51 85t27.5 46.5q4 6 9 6q17 0 36.5 -16.5t19.5 -30.5q0 -3 -2 -7 q-1 -2 -24 -44t-36.5 -67t-44 -78t-53 -89.5t-57 -89t-62 -88.5t-62.5 -76.5t-64 -65t-60.5 -40.5t-57.5 -16q-54 0 -91 46t-37 118q0 56 13 112q1 3 1 5q0 5 -3 5q-2 0 -9 -9q-43 -65 -73 -106t-69 -85t-77 -65t-76 -21zM233 173q30 0 119 112.5t177 247.5t156 251q1 2 1 6 t-3 9q-37 48 -82 48q-54 0 -124.5 -82.5t-126.5 -191.5t-95 -215.5t-39 -154.5q0 -30 17 -30z" />
<glyph unicode="&#xe1;" horiz-adv-x="839" d="M640 1082q-32 0 -59.5 25.5t-27.5 48.5q0 18 24 28q47 18 140 76t143 108q10 10 26 10q25 0 61 -42.5t36 -78.5q0 -29 -65 -71.5t-147.5 -73t-130.5 -30.5zM156 0q-67 0 -104 56t-37 148q0 70 22 157.5t58.5 175t88 171.5t107.5 148t119.5 103t121.5 39q55 0 111 -33 t87 -77q3 -5 8 -5q4 0 7 5l48 89q15 25 43 25q41 0 83 -41.5t42 -90.5q0 -29 -15 -51q-71 -108 -187.5 -339t-116.5 -286q0 -21 17 -21q15 0 41 25.5t59 70.5t66 93t70 108t61.5 100.5t51 85t27.5 46.5q4 6 9 6q17 0 36.5 -16.5t19.5 -30.5q0 -3 -2 -7q-1 -2 -24 -44 t-36.5 -67t-44 -78t-53 -89.5t-57 -89t-62 -88.5t-62.5 -76.5t-64 -65t-60.5 -40.5t-57.5 -16q-54 0 -91 46t-37 118q0 56 13 112q1 3 1 5q0 5 -3 5q-2 0 -9 -9q-43 -65 -73 -106t-69 -85t-77 -65t-76 -21zM233 173q30 0 119 112.5t177 247.5t156 251q1 2 1 6t-3 9 q-37 48 -82 48q-54 0 -124.5 -82.5t-126.5 -191.5t-95 -215.5t-39 -154.5q0 -30 17 -30z" />
<glyph unicode="&#xe2;" horiz-adv-x="839" d="M922 1039q-20 0 -52.5 35l-65 70t-52.5 35q-21 0 -102 -48t-97 -49h-3q-15 0 -23.5 12.5t-8.5 26.5q0 21 56.5 77t126 104t101.5 48q33 0 68.5 -48.5t56.5 -110.5t21 -106q0 -46 -26 -46zM156 0q-67 0 -104 56t-37 148q0 70 22 157.5t58.5 175t88 171.5t107.5 148 t119.5 103t121.5 39q55 0 111 -33t87 -77q3 -5 8 -5q4 0 7 5l48 89q15 25 43 25q41 0 83 -41.5t42 -90.5q0 -29 -15 -51q-71 -108 -187.5 -339t-116.5 -286q0 -21 17 -21q15 0 41 25.5t59 70.5t66 93t70 108t61.5 100.5t51 85t27.5 46.5q4 6 9 6q17 0 36.5 -16.5t19.5 -30.5 q0 -3 -2 -7q-1 -2 -24 -44t-36.5 -67t-44 -78t-53 -89.5t-57 -89t-62 -88.5t-62.5 -76.5t-64 -65t-60.5 -40.5t-57.5 -16q-54 0 -91 46t-37 118q0 56 13 112q1 3 1 5q0 5 -3 5q-2 0 -9 -9q-43 -65 -73 -106t-69 -85t-77 -65t-76 -21zM233 173q30 0 119 112.5t177 247.5 t156 251q1 2 1 6t-3 9q-37 48 -82 48q-54 0 -124.5 -82.5t-126.5 -191.5t-95 -215.5t-39 -154.5q0 -30 17 -30z" />
<glyph unicode="&#xe3;" horiz-adv-x="839" d="M845 1065q-38 0 -74.5 24.5t-69 48.5t-59.5 24q-15 0 -28.5 -5t-25 -13.5t-19 -15.5t-15.5 -16.5t-10 -11.5q-15 -15 -23 -15q-20 0 -30.5 29t-10.5 57q0 63 53 110t115 47q39 0 78 -24t72 -47.5t58 -23.5q43 0 94 59q14 17 26 17q23 0 38.5 -25t15.5 -57 q0 -63 -61 -112.5t-124 -49.5zM156 0q-67 0 -104 56t-37 148q0 70 22 157.5t58.5 175t88 171.5t107.5 148t119.5 103t121.5 39q55 0 111 -33t87 -77q3 -5 8 -5q4 0 7 5l48 89q15 25 43 25q41 0 83 -41.5t42 -90.5q0 -29 -15 -51q-71 -108 -187.5 -339t-116.5 -286 q0 -21 17 -21q15 0 41 25.5t59 70.5t66 93t70 108t61.5 100.5t51 85t27.5 46.5q4 6 9 6q17 0 36.5 -16.5t19.5 -30.5q0 -3 -2 -7q-1 -2 -24 -44t-36.5 -67t-44 -78t-53 -89.5t-57 -89t-62 -88.5t-62.5 -76.5t-64 -65t-60.5 -40.5t-57.5 -16q-54 0 -91 46t-37 118 q0 56 13 112q1 3 1 5q0 5 -3 5q-2 0 -9 -9q-43 -65 -73 -106t-69 -85t-77 -65t-76 -21zM233 173q30 0 119 112.5t177 247.5t156 251q1 2 1 6t-3 9q-37 48 -82 48q-54 0 -124.5 -82.5t-126.5 -191.5t-95 -215.5t-39 -154.5q0 -30 17 -30z" />
<glyph unicode="&#xe4;" horiz-adv-x="839" d="M572 1089q-34 0 -60 31.5t-26 71.5q0 60 41 111t98 51q84 0 84 -81q0 -58 -44.5 -121t-92.5 -63zM855 1074q-34 0 -59 32t-25 73q0 60 41 110t100 50q82 0 82 -79q0 -60 -44.5 -123t-94.5 -63zM156 0q-67 0 -104 56t-37 148q0 70 22 157.5t58.5 175t88 171.5t107.5 148 t119.5 103t121.5 39q55 0 111 -33t87 -77q3 -5 8 -5q4 0 7 5l48 89q15 25 43 25q41 0 83 -41.5t42 -90.5q0 -29 -15 -51q-71 -108 -187.5 -339t-116.5 -286q0 -21 17 -21q15 0 41 25.5t59 70.5t66 93t70 108t61.5 100.5t51 85t27.5 46.5q4 6 9 6q17 0 36.5 -16.5t19.5 -30.5 q0 -3 -2 -7q-1 -2 -24 -44t-36.5 -67t-44 -78t-53 -89.5t-57 -89t-62 -88.5t-62.5 -76.5t-64 -65t-60.5 -40.5t-57.5 -16q-54 0 -91 46t-37 118q0 56 13 112q1 3 1 5q0 5 -3 5q-2 0 -9 -9q-43 -65 -73 -106t-69 -85t-77 -65t-76 -21zM233 173q30 0 119 112.5t177 247.5 t156 251q1 2 1 6t-3 9q-37 48 -82 48q-54 0 -124.5 -82.5t-126.5 -191.5t-95 -215.5t-39 -154.5q0 -30 17 -30z" />
<glyph unicode="&#xe5;" horiz-adv-x="839" d="M735 1067q-76 0 -117 46.5t-41 104.5q0 75 57 148t137 73q65 0 114.5 -52t49.5 -112q0 -66 -56 -137t-144 -71zM722 1162q41 0 75.5 45t34.5 87q0 45 -43 45t-75.5 -44t-32.5 -87q0 -46 41 -46zM156 0q-67 0 -104 56t-37 148q0 70 22 157.5t58.5 175t88 171.5t107.5 148 t119.5 103t121.5 39q55 0 111 -33t87 -77q3 -5 8 -5q4 0 7 5l48 89q15 25 43 25q41 0 83 -41.5t42 -90.5q0 -29 -15 -51q-71 -108 -187.5 -339t-116.5 -286q0 -21 17 -21q15 0 41 25.5t59 70.5t66 93t70 108t61.5 100.5t51 85t27.5 46.5q4 6 9 6q17 0 36.5 -16.5t19.5 -30.5 q0 -3 -2 -7q-1 -2 -24 -44t-36.5 -67t-44 -78t-53 -89.5t-57 -89t-62 -88.5t-62.5 -76.5t-64 -65t-60.5 -40.5t-57.5 -16q-54 0 -91 46t-37 118q0 56 13 112q1 3 1 5q0 5 -3 5q-2 0 -9 -9q-43 -65 -73 -106t-69 -85t-77 -65t-76 -21zM233 173q30 0 119 112.5t177 247.5 t156 251q1 2 1 6t-3 9q-37 48 -82 48q-54 0 -124.5 -82.5t-126.5 -191.5t-95 -215.5t-39 -154.5q0 -30 17 -30z" />
<glyph unicode="&#xe6;" horiz-adv-x="1136" d="M151 0q-63 0 -99.5 57.5t-36.5 146.5q0 70 22 157.5t58.5 175t88 171.5t107.5 148t119.5 103t121.5 39q55 0 111 -33t87 -77q4 -6 7 -6q5 0 8 6l48 89q15 25 43 25q30 0 62 -24q4 -3 9 -3t7 1q47 22 90 22q76 0 143 -56.5t67 -143.5q0 -67 -36.5 -138t-93 -126 t-128.5 -90.5t-139 -35.5q-34 0 -69 11h-3q-8 0 -10 -8q-31 -88 -31 -156q0 -104 85 -104q65 0 158 62.5t176 166.5q87 111 180 273q3 6 11 6q7 0 25 -15.5t18 -32.5q0 -22 -40 -97t-92 -151q-47 -69 -99.5 -129.5t-115.5 -115t-134 -86.5t-139 -32q-103 0 -168.5 73.5 t-65.5 195.5v22q0 10 -4 10q-3 0 -8 -6q-75 -121 -166.5 -208t-173.5 -87zM806 512q55 0 121.5 64t108.5 140t42 118q0 26 -20 26q-47 0 -126 -96.5t-144 -227.5l-2 -4q-2 -5 -2 -7q0 -13 22 -13zM233 173q30 0 119 112.5t177 247.5t156 251q1 1 1 5q0 5 -3 10 q-37 48 -82 48q-54 0 -124.5 -82.5t-126.5 -191.5t-95 -215.5t-39 -154.5q0 -30 17 -30z" />
<glyph unicode="&#xe7;" horiz-adv-x="638" d="M840 700q12 0 27 -16.5t15 -31.5q0 -48 -148 -281q-221 -345 -439 -369q16 -48 16 -99q0 -85 -44.5 -142t-123.5 -57q-69 0 -108 41t-39 84q0 33 23 33q11 0 20 -5q37 -15 65 -15q50 0 82.5 42t36.5 119q-89 13 -140 81t-51 175q0 104 48 235.5t118.5 241.5t156.5 186 t155 76q36 0 60.5 -20t49.5 -66q5 -8 8 -8q4 0 9 6q25 41 40 57t36 16q33 0 63 -28.5t30 -60.5q0 -19 -17 -36q-43 -43 -109.5 -145.5t-102.5 -174.5q-9 -17 -24 -17q-20 0 -37 23.5t-17 58.5q0 73 91 233q4 8 4 9q0 4 -6 4q-63 0 -149 -111.5t-146 -253t-60 -227.5 q0 -104 87 -104q73 0 148 59t159 168q91 119 203 314q3 6 10 6z" />
<glyph unicode="&#xe8;" horiz-adv-x="665" d="M793 1042q-43 0 -116 46.5t-128.5 105.5t-55.5 90q0 32 45 64.5t73 32.5q15 0 26 -16q40 -68 112 -138.5t117 -100.5q17 -11 17 -28q0 -20 -29 -38t-61 -18zM266 0q-103 0 -168.5 72.5t-65.5 192.5q0 98 46.5 226.5t116.5 240t162.5 189t174.5 77.5q76 0 143.5 -56.5 t67.5 -143.5q0 -91 -62.5 -181.5t-158 -147t-188.5 -56.5q-20 0 -40 3l-19 3q-8 0 -11 -8q-31 -88 -31 -156q0 -104 85 -104q64 0 155 62t175 167q102 130 184 273q3 6 8 6q13 0 29.5 -16t16.5 -34q0 -42 -134 -246q-46 -70 -98.5 -130.5t-115 -115t-133.5 -86t-139 -31.5z M335 512q55 0 121.5 64t108.5 140t42 118q0 26 -21 26q-47 0 -125 -96.5t-144 -227.5l-2 -4q-2 -5 -2 -7q0 -13 22 -13z" />
<glyph unicode="&#xe9;" horiz-adv-x="665" d="M553 1082q-32 0 -60 25.5t-28 48.5q0 18 25 28q47 18 140 76t143 108q10 10 26 10q25 0 61 -42.5t36 -78.5q0 -29 -65 -71.5t-147.5 -73t-130.5 -30.5zM266 0q-103 0 -168.5 72.5t-65.5 192.5q0 98 46.5 226.5t116.5 240t162.5 189t174.5 77.5q76 0 143.5 -56.5 t67.5 -143.5q0 -91 -62.5 -181.5t-158 -147t-188.5 -56.5q-20 0 -40 3l-19 3q-8 0 -11 -8q-31 -88 -31 -156q0 -104 85 -104q64 0 155 62t175 167q102 130 184 273q3 6 8 6q13 0 29.5 -16t16.5 -34q0 -42 -134 -246q-46 -70 -98.5 -130.5t-115 -115t-133.5 -86t-139 -31.5z M335 512q55 0 121.5 64t108.5 140t42 118q0 26 -21 26q-47 0 -125 -96.5t-144 -227.5l-2 -4q-2 -5 -2 -7q0 -13 22 -13z" />
<glyph unicode="&#xea;" horiz-adv-x="665" d="M834 1039q-20 0 -52 35t-64.5 70t-52.5 35q-21 0 -102.5 -48t-97.5 -49h-2q-15 0 -24 12.5t-9 26.5q0 21 57 77t126.5 104t101.5 48q33 0 68 -48.5t56 -110.5t21 -106q0 -46 -26 -46zM266 0q-103 0 -168.5 72.5t-65.5 192.5q0 98 46.5 226.5t116.5 240t162.5 189 t174.5 77.5q76 0 143.5 -56.5t67.5 -143.5q0 -91 -62.5 -181.5t-158 -147t-188.5 -56.5q-20 0 -40 3l-19 3q-8 0 -11 -8q-31 -88 -31 -156q0 -104 85 -104q64 0 155 62t175 167q102 130 184 273q3 6 8 6q13 0 29.5 -16t16.5 -34q0 -42 -134 -246q-46 -70 -98.5 -130.5 t-115 -115t-133.5 -86t-139 -31.5zM335 512q55 0 121.5 64t108.5 140t42 118q0 26 -21 26q-47 0 -126 -96.5t-144 -227.5q-3 -9 -3 -11q0 -13 22 -13z" />
<glyph unicode="&#xeb;" horiz-adv-x="665" d="M484 1089q-34 0 -60 31.5t-26 71.5q0 60 41 111t98 51q85 0 85 -81q0 -58 -45 -121t-93 -63zM767 1074q-34 0 -59 32t-25 73q0 60 41.5 110t100.5 50q82 0 82 -79q0 -60 -45 -123t-95 -63zM266 0q-103 0 -168.5 72.5t-65.5 192.5q0 98 46.5 226.5t116.5 240t162.5 189 t174.5 77.5q76 0 143.5 -56.5t67.5 -143.5q0 -91 -62.5 -181.5t-158 -147t-188.5 -56.5q-20 0 -40 3l-19 3q-8 0 -11 -8q-31 -88 -31 -156q0 -104 85 -104q64 0 155 62t175 167q102 130 184 273q3 6 8 6q13 0 29.5 -16t16.5 -34q0 -42 -134 -246q-46 -70 -98.5 -130.5 t-115 -115t-133.5 -86t-139 -31.5zM335 512q55 0 121.5 64t108.5 140t42 118q0 26 -21 26q-47 0 -125 -96.5t-144 -227.5l-2 -4q-2 -5 -2 -7q0 -13 22 -13z" />
<glyph unicode="&#xec;" horiz-adv-x="399" d="M672 1042q-43 0 -116 46.5t-128.5 105.5t-55.5 90q0 32 45 64.5t73 32.5q15 0 26 -16q40 -68 112 -138.5t117 -100.5q16 -10 16 -28q0 -20 -28.5 -38t-60.5 -18zM132 0q-60 0 -100.5 52t-40.5 127q0 99 69 255q93 214 255 529q10 22 39 22q44 0 98 -42.5t54 -78.5 q0 -20 -13 -36q-27 -32 -98 -158t-135.5 -270.5t-64.5 -198.5q0 -28 19 -28q15 0 41 25.5t59 70.5t66 93t70 108t61.5 100.5t51 85t27.5 46.5q3 5 9 5q17 0 36.5 -16t19.5 -30q0 -4 -2 -8q-114 -209 -170 -298q-222 -355 -351 -355z" />
<glyph unicode="&#xed;" horiz-adv-x="399" d="M432 1082q-32 0 -60 25.5t-28 48.5q0 18 25 28q47 18 140 76t143 108q10 10 26 10q25 0 61 -42.5t36 -78.5q0 -29 -65 -71.5t-147.5 -73t-130.5 -30.5zM132 0q-60 0 -100.5 52t-40.5 127q0 99 69 255q93 214 255 529q10 22 39 22q44 0 98 -42.5t54 -78.5q0 -20 -13 -36 q-27 -32 -98 -158t-135.5 -270.5t-64.5 -198.5q0 -28 19 -28q15 0 41 25.5t59 70.5t66 93t70 108t61.5 100.5t51 85t27.5 46.5q3 5 9 5q17 0 36.5 -16t19.5 -30q0 -4 -2 -8q-114 -209 -170 -298q-222 -355 -351 -355z" />
<glyph unicode="&#xee;" horiz-adv-x="399" d="M713 1039q-20 0 -52.5 35t-64.5 70t-52 35q-21 0 -102.5 -48t-97.5 -49h-2q-15 0 -24 12.5t-9 26.5q0 21 57 77t126.5 104t101.5 48q33 0 68 -48.5t56 -110.5t21 -106q0 -46 -26 -46zM132 0q-60 0 -100.5 52t-40.5 127q0 99 69 255q93 214 255 529q10 22 39 22 q44 0 98 -42.5t54 -78.5q0 -20 -13 -36q-27 -32 -98 -158t-135.5 -270.5t-64.5 -198.5q0 -28 19 -28q15 0 41 25.5t59 70.5t66 93t70 108t61.5 100.5t51 85t27.5 46.5q3 5 9 5q17 0 36.5 -16t19.5 -30q0 -4 -2 -8q-114 -209 -170 -298q-222 -355 -351 -355z" />
<glyph unicode="&#xef;" horiz-adv-x="399" d="M363 1089q-34 0 -60 31.5t-26 71.5q0 60 41 111t98 51q85 0 85 -81q0 -58 -45 -121t-93 -63zM646 1074q-34 0 -59 32t-25 73q0 60 41.5 110t100.5 50q82 0 82 -79q0 -60 -45 -123t-95 -63zM132 0q-60 0 -100.5 52t-40.5 127q0 99 69 255q93 214 255 529q10 22 39 22 q44 0 98 -42.5t54 -78.5q0 -20 -13 -36q-27 -32 -98 -158t-135.5 -270.5t-64.5 -198.5q0 -28 19 -28q15 0 41 25.5t59 70.5t66 93t70 108t61.5 100.5t51 85t27.5 46.5q3 5 9 5q17 0 36.5 -16t19.5 -30q0 -4 -2 -8q-114 -209 -170 -298q-222 -355 -351 -355z" />
<glyph unicode="&#xf0;" horiz-adv-x="747" d="M274 0q-92 0 -172 73t-80 182q0 94 47 223.5t118.5 246.5t168 198.5t184.5 81.5q24 0 58 -10.5t54 -26.5q2 -2 6 -2q5 0 5 10q0 93 -52 197q-3 7 -9 7q-4 0 -8 -3q-64 -38 -106 -80q-6 -6 -15 -6q-22 0 -45.5 33t-23.5 58q0 40 128 101q7 3 7 8q0 3 -3 7q-39 45 -76 56 q-22 8 -22 26q0 33 45.5 66.5t101.5 33.5q72 0 139 -108q5 -6 10 -6q3 0 5 1q54 14 75 14q17 0 27 -9.5t10 -23.5q0 -28 -28 -34q-3 -1 -45 -18q-6 -2 -6 -10q0 -3 1 -5q69 -167 69 -354q0 -131 -35.5 -269t-95 -253.5t-132.5 -208t-153.5 -144.5t-151.5 -52zM274 162 q51 0 119.5 77.5t125 181.5t97 210t41.5 162q0 63 -43 63q-65 0 -159.5 -117.5t-162.5 -266t-69 -236.5q-3 -74 51 -74z" />
<glyph unicode="&#xf1;" horiz-adv-x="829" d="M784 1065q-38 0 -74.5 24.5t-69 48.5t-59.5 24q-15 0 -28.5 -5t-25.5 -13.5t-19.5 -15.5t-16 -17t-9.5 -11q-15 -15 -22 -15q-20 0 -30.5 29t-10.5 57q0 63 52.5 110t114.5 47q31 0 62.5 -15t53 -32.5t47.5 -32.5t46 -15q42 0 93 59q14 17 26 17q23 0 38.5 -25t15.5 -57 q0 -64 -61 -113t-123 -49zM559 0q-51 0 -93 48.5t-42 137.5q0 28 5.5 59.5t18.5 68.5t24.5 68.5t34 76t36.5 72t41.5 76t40 69.5t41.5 69.5t36 60.5q2 4 2 6q0 6 -6 6q-5 0 -11 -6q-128 -115 -322.5 -369.5t-280.5 -414.5q-7 -26 -38 -26q-37 0 -74 36t-37 87q0 23 9 48 q29 77 169.5 386t191.5 407q12 22 39 22q40 0 83 -38.5t43 -79.5q0 -20 -12 -36q-59 -83 -181 -342q-2 -5 -2 -13q0 -5 3 -5q7 0 20 18q140 201 291.5 353.5t216.5 152.5q47 0 84 -50.5t37 -111.5q0 -23 -26 -65q-91 -147 -183 -337t-92 -240q0 -21 14 -21q65 0 384 529 q3 5 9 5q17 0 36.5 -16t19.5 -30q0 -4 -2 -8q-155 -284 -263 -430q-163 -223 -265 -223z" />
<glyph unicode="&#xf2;" horiz-adv-x="727" d="M791 1042q-43 0 -116 46.5t-128.5 105.5t-55.5 90q0 32 45 64.5t73 32.5q15 0 26 -16q40 -68 112 -138.5t117 -100.5q17 -11 17 -28q0 -20 -29 -38t-61 -18zM236 0q-88 0 -151 71.5t-63 183.5q0 94 47 223.5t118.5 246.5t168 198.5t184.5 81.5q52 0 98 -30.5t74 -96.5 q1 -3 9 -11q44 -37 44 -135q0 -132 -84 -308q-1 -2 -1 -5q-2 -8 6 -8q3 0 5 1q15 6 30.5 16t31 26.5t28 29.5t29 36.5t26 36t26 40.5t22 37t21.5 38t18 32q3 3 8 3q15 0 36.5 -15t21.5 -27q0 -5 -4 -13q-193 -390 -385 -390q-13 0 -17 -6q-81 -115 -172 -185.5t-175 -70.5z M278 168q85 0 208 199q4 7 4 14q2 69 43 152.5t92 132.5q4 4 7 12q15 47 15 107q0 63 -43 63q-49 0 -115.5 -69.5t-122 -165.5t-95.5 -200t-43 -170q-3 -75 50 -75z" />
<glyph unicode="&#xf3;" horiz-adv-x="727" d="M551 1082q-32 0 -59.5 25.5t-27.5 48.5q0 18 24 28q47 18 140 76t143 108q10 10 26 10q25 0 61 -42.5t36 -78.5q0 -29 -65 -71.5t-147.5 -73t-130.5 -30.5zM236 0q-88 0 -151 71.5t-63 183.5q0 94 47 223.5t118.5 246.5t168 198.5t184.5 81.5q52 0 98 -30.5t74 -96.5 q1 -3 9 -11q44 -37 44 -135q0 -132 -84 -308q-1 -2 -1 -5q-2 -8 6 -8q3 0 5 1q15 6 30.5 16t31 26.5t28 29.5t29 36.5t26 36t26 40.5t22 37t21.5 38t18 32q3 3 8 3q15 0 36.5 -15t21.5 -27q0 -5 -4 -13q-193 -390 -385 -390q-13 0 -17 -6q-81 -115 -172 -185.5t-175 -70.5z M278 168q85 0 208 199q4 7 4 14q2 69 43 152.5t92 132.5q4 4 7 12q15 47 15 107q0 63 -43 63q-49 0 -115.5 -69.5t-122 -165.5t-95.5 -200t-43 -170q-3 -75 50 -75z" />
<glyph unicode="&#xf4;" horiz-adv-x="727" d="M832 1039q-20 0 -52 35t-64.5 70t-52.5 35q-21 0 -102 -48t-97 -49h-3q-15 0 -24 12.5t-9 26.5q0 21 57 77t126.5 104t101.5 48q33 0 68 -48.5t56 -110.5t21 -106q0 -46 -26 -46zM236 0q-88 0 -151 71.5t-63 183.5q0 94 47 223.5t118.5 246.5t168 198.5t184.5 81.5 q52 0 98 -30.5t74 -96.5q1 -3 9 -11q44 -37 44 -135q0 -132 -84 -308q-1 -2 -1 -5q-2 -8 6 -8q3 0 5 1q15 6 30.5 16t31 26.5t28 29.5t29 36.5t26 36t26 40.5t22 37t21.5 38t18 32q3 3 8 3q15 0 36.5 -15t21.5 -27q0 -5 -4 -13q-193 -390 -385 -390q-13 0 -17 -6 q-81 -115 -172 -185.5t-175 -70.5zM278 168q85 0 208 199q4 7 4 14q2 69 43 152.5t92 132.5q4 4 7 12q15 47 15 107q0 63 -43 63q-49 0 -115.5 -69.5t-122 -165.5t-95.5 -200t-43 -170q-3 -75 50 -75z" />
<glyph unicode="&#xf5;" horiz-adv-x="727" d="M756 1065q-38 0 -74.5 24.5t-69 48.5t-59.5 24q-15 0 -28.5 -5t-25.5 -13.5t-19.5 -15.5t-16 -17t-9.5 -11q-15 -15 -22 -15q-20 0 -30.5 29t-10.5 57q0 63 52.5 110t114.5 47q31 0 62.5 -15t53 -32.5t47.5 -32.5t46 -15q42 0 93 59q14 17 26 17q23 0 38.5 -25t15.5 -57 q0 -64 -61 -113t-123 -49zM236 0q-88 0 -151 71.5t-63 183.5q0 94 47 223.5t118.5 246.5t168 198.5t184.5 81.5q52 0 98 -30.5t74 -96.5q1 -3 9 -11q44 -37 44 -135q0 -132 -84 -308q-1 -2 -1 -5q-2 -8 6 -8q3 0 5 1q15 6 30.5 16t31 26.5t28 29.5t29 36.5t26 36t26 40.5 t22 37t21.5 38t18 32q3 3 8 3q15 0 36.5 -15t21.5 -27q0 -5 -4 -13q-193 -390 -385 -390q-13 0 -17 -6q-81 -115 -172 -185.5t-175 -70.5zM278 168q85 0 208 199q4 7 4 14q2 69 43 152.5t92 132.5q4 4 7 12q15 47 15 107q0 63 -43 63q-49 0 -115.5 -69.5t-122 -165.5 t-95.5 -200t-43 -170q-3 -75 50 -75z" />
<glyph unicode="&#xf6;" horiz-adv-x="727" d="M482 1089q-34 0 -59.5 31.5t-25.5 71.5q0 60 41 111t98 51q84 0 84 -81q0 -58 -45 -121t-93 -63zM765 1074q-34 0 -59 32t-25 73q0 60 41.5 110t100.5 50q82 0 82 -79q0 -60 -45 -123t-95 -63zM236 0q-88 0 -151 71.5t-63 183.5q0 94 47 223.5t118.5 246.5t168 198.5 t184.5 81.5q52 0 98 -30.5t74 -96.5q1 -3 9 -11q44 -37 44 -135q0 -132 -84 -308q-1 -2 -1 -5q-2 -8 6 -8q3 0 5 1q15 6 30.5 16t31 26.5t28 29.5t29 36.5t26 36t26 40.5t22 37t21.5 38t18 32q3 3 8 3q15 0 36.5 -15t21.5 -27q0 -5 -4 -13q-193 -390 -385 -390q-13 0 -17 -6 q-81 -115 -172 -185.5t-175 -70.5zM278 168q85 0 208 199q4 7 4 14q2 69 43 152.5t92 132.5q4 4 7 12q15 47 15 107q0 63 -43 63q-49 0 -115.5 -69.5t-122 -165.5t-95.5 -200t-43 -170q-3 -75 50 -75z" />
<glyph unicode="&#xf8;" horiz-adv-x="727" d="M65 -86q-10 -18 -25 -18q-21 0 -42.5 27.5t-21.5 57.5q0 22 15 39q6 6 71 84q-40 66 -40 151q0 94 47 223.5t118.5 246.5t168 198.5t184.5 81.5t142 -73q53 79 63 103q14 33 35 33t38.5 -29t17.5 -64q0 -40 -22 -63q-46 -53 -67 -79q18 -36 18 -101q0 -132 -84 -308 q-1 -2 -1 -5q-2 -8 6 -8q3 0 5 1q15 6 30.5 16t31 26.5t28 29.5t29 36.5t26 36t26 40.5t22 37t21.5 38t18 32q3 3 8 3q15 0 36.5 -15t21.5 -27q0 -5 -4 -13q-193 -390 -385 -390q-13 0 -17 -6q-81 -115 -172 -185.5t-175 -70.5q-54 0 -100 29q-50 -72 -71 -115zM240 343 q6 0 12 9q291 382 368 491q3 5 3 8q0 5 -7 5q-57 0 -136.5 -88t-143 -199.5t-99.5 -208.5q-2 -6 -2 -9q0 -8 5 -8zM274 162q45 0 108.5 64t116 148.5t90 167.5t37.5 120q0 8 -5 8q-3 0 -11 -9q-225 -286 -364 -477q-3 -4 -3 -8t4 -7q10 -7 27 -7z" />
<glyph unicode="&#xf9;" horiz-adv-x="827" d="M840 1042q-43 0 -116 46.5t-128.5 105.5t-55.5 90q0 32 44.5 64.5t72.5 32.5q15 0 26 -16q40 -68 112 -138.5t117 -100.5q17 -11 17 -28q0 -20 -28.5 -38t-60.5 -18zM143 0q-57 0 -101 50.5t-44 134.5q0 92 64 257.5t139 305t129 215.5q14 18 40 18q44 0 94 -40.5 t50 -76.5q0 -19 -13 -35q-54 -66 -176 -312.5t-122 -320.5q0 -23 13 -23q20 0 63.5 40t102 111.5t133.5 189t146 253.5q86 173 110 209q11 18 35 18q41 0 89.5 -46t48.5 -84q0 -19 -13 -35q-38 -46 -122.5 -209.5t-138.5 -291.5q-18 -41 -28.5 -82.5t-10.5 -57.5 q0 -15 13 -15q15 0 41 25.5t59 70.5t66 93t70 108t61.5 100.5t51 85t27.5 46.5q4 6 10 6q17 0 36 -16.5t19 -30.5q0 -5 -1 -7q-4 -7 -14 -26q-338 -628 -508 -628q-59 0 -91.5 52t-32.5 123q0 42 11 86v3q0 6 -4 6q-3 0 -7 -6q-172 -264 -295 -264z" />
<glyph unicode="&#xfa;" horiz-adv-x="827" d="M599 1082q-32 0 -59.5 25.5t-27.5 48.5q0 18 24 28q47 18 140 76t143 108q10 10 26 10q25 0 61 -42.5t36 -78.5q0 -29 -65 -71.5t-147.5 -73t-130.5 -30.5zM143 0q-57 0 -101 50.5t-44 134.5q0 92 64 257.5t139 305t129 215.5q14 18 40 18q44 0 94 -40.5t50 -76.5 q0 -19 -13 -35q-54 -66 -176 -312.5t-122 -321.5q0 -22 13 -22q20 0 63.5 40t102 111.5t133.5 189t146 253.5q86 173 110 209q11 18 35 18q41 0 89.5 -46t48.5 -84q0 -19 -13 -35q-38 -46 -122.5 -209.5t-138.5 -291.5q-18 -41 -28.5 -82.5t-10.5 -57.5q0 -15 13 -15 q15 0 41 25.5t59 70.5t66 93t70 108t61.5 100.5t51 85t27.5 46.5q3 5 10 5q17 0 36 -16t19 -30q0 -5 -1 -7q-4 -7 -14 -26q-338 -628 -508 -628q-59 0 -91.5 52t-32.5 123q0 42 11 86v3q0 6 -4 6q-3 0 -7 -6q-172 -264 -295 -264z" />
<glyph unicode="&#xfb;" horiz-adv-x="827" d="M881 1039q-20 0 -52.5 35l-65 70t-52.5 35q-21 0 -102 -48t-97 -49h-3q-15 0 -23.5 12.5t-8.5 26.5q0 21 56.5 77t126 104t101.5 48q33 0 68.5 -48.5t56.5 -110.5t21 -106q0 -46 -26 -46zM143 0q-57 0 -101 50.5t-44 134.5q0 92 64 257.5t139 305t129 215.5q14 18 40 18 q44 0 94 -40.5t50 -76.5q0 -19 -13 -35q-54 -66 -176 -312.5t-122 -320.5q0 -23 13 -23q20 0 63.5 40t102 111.5t133.5 189t146 253.5q86 173 110 209q11 18 35 18q41 0 89.5 -46t48.5 -84q0 -19 -13 -35q-38 -46 -122.5 -209.5t-138.5 -291.5q-18 -41 -28.5 -82.5 t-10.5 -57.5q0 -15 13 -15q15 0 41 25.5t59 70.5t66 93t70 108t61.5 100.5t51 85t27.5 46.5q4 6 10 6q17 0 36 -16.5t19 -30.5q0 -5 -1 -7q-4 -7 -14 -26q-338 -628 -508 -628q-59 0 -91.5 52t-32.5 123q0 42 11 86v3q0 6 -4 6q-3 0 -7 -6q-172 -264 -295 -264z" />
<glyph unicode="&#xfc;" horiz-adv-x="827" d="M531 1089q-34 0 -60 31.5t-26 71.5q0 60 41 111t98 51q84 0 84 -81q0 -58 -44.5 -121t-92.5 -63zM814 1074q-34 0 -59 32t-25 73q0 60 41 110t100 50q82 0 82 -79q0 -60 -44.5 -123t-94.5 -63zM143 0q-57 0 -101 50.5t-44 134.5q0 92 64 257.5t139 305t129 215.5 q14 18 40 18q44 0 94 -40.5t50 -76.5q0 -19 -13 -35q-54 -66 -176 -312.5t-122 -320.5q0 -23 13 -23q20 0 63.5 40t102 111.5t133.5 189t146 253.5q86 173 110 209q11 18 35 18q41 0 89.5 -46t48.5 -84q0 -19 -13 -35q-38 -46 -122.5 -209.5t-138.5 -291.5 q-18 -41 -28.5 -82.5t-10.5 -57.5q0 -15 13 -15q15 0 41 25.5t59 70.5t66 93t70 108t61.5 100.5t51 85t27.5 46.5q4 6 10 6q17 0 36 -16.5t19 -30.5q0 -5 -1 -7q-4 -7 -14 -26q-338 -628 -508 -628q-59 0 -91.5 52t-32.5 123q0 42 11 86v3q0 6 -4 6q-3 0 -7 -6 q-172 -264 -295 -264z" />
<glyph unicode="&#xfd;" horiz-adv-x="798" d="M603 1082q-32 0 -59.5 25.5t-27.5 48.5q0 18 24 28q47 18 140 76t143 108q10 10 26 10q25 0 61 -42.5t36 -78.5q0 -29 -65 -71.5t-147.5 -73t-130.5 -30.5zM87 -428q-109 0 -190 59.5t-81 117.5q0 22 15.5 42.5t35.5 20.5q28 0 47 -47q38 -59 110 -59q60 0 119 41.5 t114.5 120.5t102.5 167.5t98 206.5q6 13 6 20q0 5 -4 5q-8 0 -21 -19q-74 -108 -152.5 -178t-148.5 -70q-58 0 -99 52.5t-41 138.5q0 130 117 385.5t211 386.5q14 18 40 18q44 0 94 -40.5t50 -76.5q0 -20 -13 -36q-54 -69 -173.5 -305t-119.5 -309q0 -24 16 -24 q20 0 65.5 37.5t107 107.5t141 192t153.5 270q1 2 32 68t52 116q9 20 36 20q44 0 94 -40t50 -87q0 -16 -9 -34q-65 -123 -128.5 -260.5t-146 -330.5t-108.5 -251q-91 -204 -211.5 -315t-260.5 -111z" />
<glyph unicode="&#xfe;" horiz-adv-x="819" d="M-151 -435q-44 0 -89 37t-45 86q0 19 9 40q60 132 388.5 823t419.5 877q12 23 39 23q42 0 89 -42t47 -86q0 -20 -11 -35q-23 -32 -180 -327t-198 -389q-1 -2 -1 -6q0 -5 5 -5q7 0 15 11q20 26 63 85t65.5 88.5t60 77t62 73t54 53t54 39.5t45.5 12q17 0 40 -11t48.5 -33.5 t43 -67t17.5 -102.5q0 -155 -92.5 -341t-231 -315.5t-259.5 -129.5q-117 0 -160 140q-2 8 -6 8q-3 0 -7 -7l-76 -152q-16 -31 -85.5 -193.5t-80.5 -203.5q-7 -27 -43 -27zM242 173q66 0 152 85.5t154.5 198.5t116.5 225t48 165q0 26 -13 26q-30 0 -213 -233.5t-306 -429.5 q-3 -6 -3 -9q0 -11 22 -19.5t42 -8.5z" />
<glyph unicode="&#xff;" horiz-adv-x="798" d="M534 1089q-34 0 -59.5 31.5t-25.5 71.5q0 60 41 111t98 51q84 0 84 -81q0 -58 -45 -121t-93 -63zM817 1074q-33 0 -58 31.5t-25 73.5q0 60 41 110t100 50q82 0 82 -79q0 -60 -45 -123t-95 -63zM87 -428q-109 0 -190 59.5t-81 117.5q0 22 15.5 42.5t35.5 20.5q28 0 47 -47 q38 -59 110 -59q60 0 119 41.5t114.5 120.5t102.5 167.5t98 206.5q6 13 6 20q0 5 -4 5q-8 0 -21 -19q-74 -108 -152.5 -178t-148.5 -70q-58 0 -99 52.5t-41 138.5q0 130 117 385.5t211 386.5q14 18 40 18q44 0 94 -40.5t50 -76.5q0 -20 -13 -36q-54 -69 -173.5 -305 t-119.5 -309q0 -24 16 -24q20 0 65.5 37.5t107 107.5t141 192t153.5 270q1 2 32 68t52 116q9 20 36 20q44 0 94 -40t50 -87q0 -16 -9 -34q-65 -123 -128.5 -260.5t-146 -330.5t-108.5 -251q-91 -204 -211.5 -315t-260.5 -111z" />
<glyph unicode="&#x152;" horiz-adv-x="1638" d="M376 -28q-56 0 -105.5 21.5t-92.5 67.5t-68.5 129t-25.5 195q0 127 40 276.5t106 283t144.5 245.5t163.5 178t155 66q24 0 46 -10q6 -2 7 -2q4 0 8 3q81 46 156 46q80 0 134 -53.5t80 -143.5q2 -8 7 -8q4 0 8 4q89 86 207 140.5t222 54.5q79 0 123.5 -30t62.5 -74 q1 -4 5 -4q6 0 16 16q19 31 46 66q12 13 30 13q37 0 78 -38.5t41 -75.5q0 -20 -15 -33q-42 -50 -77.5 -105t-67 -122t-43.5 -95t-38 -93q-5 -12 -7 -17q-8 -17 -24 -17q-35 0 -55 35.5t-20 87.5q0 98 86 274q2 4 2 6q0 6 -8 9q-18 7 -55 7q-106 0 -223.5 -56.5t-193 -136 t-75.5 -144.5q0 -55 55 -93.5t158 -38.5q55 0 113 11q35 4 55 -27t20 -74q0 -36 -16 -62.5t-46 -27.5q-121 -10 -220.5 -37t-163.5 -62.5t-107.5 -77.5t-62 -81.5t-18.5 -75.5q0 -22 8 -43.5t28.5 -46.5t67.5 -40t114 -15q197 0 361 130.5t306 377.5q3 6 7 6q13 0 29 -20 t16 -38q0 -5 -2 -9q-38 -83 -82.5 -159t-114.5 -161.5t-147.5 -147t-182.5 -102.5t-218 -41q-140 0 -223.5 55t-122.5 141q-3 6 -8 6q-3 0 -7 -4q-191 -209 -376 -209zM397 125q88 0 202 123t206.5 292.5t156.5 353t64 299.5q0 75 -28.5 107.5t-72.5 32.5q-79 0 -180 -101 t-187 -254.5t-132 -309.5q-2 -23 -18 -23q-12 0 -26 13t-26 36q-4 6 -5 6q-5 0 -10 -15q-29 -73 -48 -166.5t-19 -175.5q0 -98 30 -158t93 -60zM1076 721q2 0 6 2q10 4 49 19q7 3 7 8q0 3 -4 7q-20 20 -30 31q-5 5 -8 5q-4 0 -7 -8q-3 -9 -9 -26.5t-9 -26.5q-3 -11 5 -11z " />
<glyph unicode="&#x153;" horiz-adv-x="1150" d="M236 0q-88 0 -151 71.5t-63 183.5q0 94 47 223.5t118.5 246.5t168 198.5t184.5 81.5q52 0 98 -30.5t74 -96.5q1 -3 9 -11q13 -10 23 -29q3 -6 8 -6q4 0 7 4q137 162 259 162q76 0 143.5 -56.5t67.5 -143.5q0 -91 -62.5 -181.5t-158 -147t-188.5 -56.5q-20 0 -40 3l-19 3 q-8 0 -11 -8q-31 -88 -31 -156q0 -104 85 -104q64 0 155 62t175 167q102 130 184 273q3 6 8 6q13 0 29.5 -16t16.5 -34q0 -42 -134 -246q-46 -70 -98.5 -130.5t-115 -115t-133.5 -86t-139 -31.5q-79 0 -138 44.5t-83 122.5q-1 7 -7 7q-3 0 -7 -4q-148 -170 -281 -170z M821 512q55 0 121.5 64t108.5 140t42 118q0 26 -21 26q-47 0 -126 -96.5t-144 -227.5q-3 -9 -3 -11q0 -13 22 -13zM274 162q51 0 119.5 77.5t125 181.5t97 210t41.5 162q0 63 -43 63q-65 0 -159.5 -117.5t-162.5 -266t-69 -236.5q-3 -74 51 -74z" />
<glyph unicode="&#x178;" horiz-adv-x="1271" d="M996 1573q-34 0 -60 31.5t-26 71.5q0 60 41 111t98 51q85 0 85 -80q0 -58 -45 -121.5t-93 -63.5zM1279 1558q-34 0 -59 32t-25 73q0 60 41.5 110t100.5 50q82 0 82 -78q0 -60 -45 -123.5t-95 -63.5zM802 -412q-44 0 -89 47t-45 94q0 15 8 31q27 52 89.5 186t146.5 316 t125 269q10 21 10 31q0 6 -4 6q-9 0 -26 -26q-83 -128 -145.5 -215t-132 -167.5t-130.5 -120t-116 -39.5q-75 0 -128.5 75t-53.5 173q0 80 44 194t107 227.5t126 226t107 219.5t44 177q0 36 -13 51.5t-43 15.5q-93 0 -213.5 -91t-203 -206t-82.5 -185q0 -22 15.5 -37.5 t31 -26.5t15.5 -22q0 -30 -37 -30q-49 0 -89 41.5t-59.5 96t-19.5 103.5q0 82 61 172t149.5 159t192 114.5t185.5 45.5q65 0 117.5 -28.5t83.5 -74t47.5 -98t16.5 -104.5q0 -69 -43 -179.5t-105 -225t-123.5 -225t-104.5 -204t-43 -138.5q0 -37 33 -37q83 0 249.5 181 t360.5 483t347 626q13 26 43 26q44 0 94.5 -45t50.5 -85q0 -18 -13 -30q-124 -169 -418 -828.5t-362 -869.5q-17 -49 -58 -49z" />
<glyph unicode="&#x2000;" horiz-adv-x="961" />
<glyph unicode="&#x2001;" horiz-adv-x="1923" />
<glyph unicode="&#x2002;" horiz-adv-x="961" />
<glyph unicode="&#x2003;" horiz-adv-x="1923" />
<glyph unicode="&#x2004;" horiz-adv-x="641" />
<glyph unicode="&#x2005;" horiz-adv-x="480" />
<glyph unicode="&#x2006;" horiz-adv-x="320" />
<glyph unicode="&#x2007;" horiz-adv-x="320" />
<glyph unicode="&#x2008;" horiz-adv-x="240" />
<glyph unicode="&#x2009;" horiz-adv-x="384" />
<glyph unicode="&#x200a;" horiz-adv-x="106" />
<glyph unicode="&#x2010;" horiz-adv-x="985" d="M367 478q-23 0 -23 40q0 43 30.5 91t70.5 48h270q29 0 89 2t88 2q26 0 26 -41q0 -44 -24.5 -91t-57.5 -47q-23 0 -104.5 2t-130.5 2q-60 0 -143.5 -4t-90.5 -4z" />
<glyph unicode="&#x2011;" horiz-adv-x="985" d="M367 478q-23 0 -23 40q0 43 30.5 91t70.5 48h270q29 0 89 2t88 2q26 0 26 -41q0 -44 -24.5 -91t-57.5 -47q-23 0 -104.5 2t-130.5 2q-60 0 -143.5 -4t-90.5 -4z" />
<glyph unicode="&#x2012;" horiz-adv-x="985" d="M367 478q-23 0 -23 40q0 43 30.5 91t70.5 48h270q29 0 89 2t88 2q26 0 26 -41q0 -44 -24.5 -91t-57.5 -47q-23 0 -104.5 2t-130.5 2q-60 0 -143.5 -4t-90.5 -4z" />
<glyph unicode="&#x2013;" horiz-adv-x="1282" d="M367 478q-23 0 -23 40q0 43 30.5 91t70.5 48h568q29 0 89 2t88 2q26 0 26 -41q0 -44 -24.5 -91t-57.5 -47q-6 0 -120 2t-245 2q-60 0 -227.5 -4t-174.5 -4z" />
<glyph unicode="&#x2014;" horiz-adv-x="1505" d="M367 478q-23 0 -23 40q0 43 30.5 91t70.5 48h791q29 0 89 2t88 2q26 0 26 -41q0 -44 -24.5 -91t-57.5 -47q-6 0 -166.5 2t-291.5 2q-86 0 -211.5 -2t-218.5 -4t-102 -2z" />
<glyph unicode="&#x2018;" horiz-adv-x="358" d="M540 1097q-44 0 -83.5 24t-39.5 59q0 44 61 141t135.5 177.5t108.5 80.5q16 0 33.5 -13.5t17.5 -33.5q0 -4 -12 -26q-152 -294 -182 -381q-3 -14 -11 -21t-28 -7z" />
<glyph unicode="&#x2019;" horiz-adv-x="372" d="M465 1097q-16 0 -33 13t-17 33q0 6 11 26q154 298 183 382q3 14 11 21t28 7q44 0 83.5 -24.5t39.5 -59.5q0 -44 -61.5 -141t-136 -177t-108.5 -80z" />
<glyph unicode="&#x201a;" horiz-adv-x="493" d="M78 -145q-23 0 -51 18.5t-28 40.5q0 12 10 23q30 31 71.5 122t74.5 179q9 23 37 23q40 0 85 -32t45 -69q0 -41 -46 -115t-105 -132t-93 -58z" />
<glyph unicode="&#x201c;" horiz-adv-x="632" d="M540 1097q-44 0 -83.5 24t-39.5 59q0 44 61 141t135.5 177.5t108.5 80.5q16 0 33.5 -13.5t17.5 -33.5q0 -4 -12 -26q-152 -294 -182 -381q-3 -14 -11 -21t-28 -7zM819 1097q-44 0 -83.5 24t-39.5 59q0 44 61.5 141t136 177.5t108.5 80.5q15 0 32.5 -13.5t17.5 -33.5 q0 -6 -11 -26q-155 -301 -183 -381q-3 -14 -11 -21t-28 -7z" />
<glyph unicode="&#x201d;" horiz-adv-x="651" d="M465 1097q-16 0 -33 13t-17 33q0 6 11 26q154 298 183 382q3 14 11 21t28 7q44 0 83.5 -24.5t39.5 -59.5q0 -44 -61.5 -141t-136 -177t-108.5 -80zM745 1097q-16 0 -33.5 13t-17.5 33q0 4 12 26q150 292 182 382q3 14 11 21t28 7q44 0 83.5 -24.5t39.5 -59.5 q0 -44 -61 -141t-135.5 -177t-108.5 -80z" />
<glyph unicode="&#x201e;" horiz-adv-x="753" d="M192 261q40 0 85 -32t45 -69q0 -41 -46 -115t-105 -132t-93 -58q-23 0 -51 18.5t-28 40.5q0 12 10 23q30 31 71.5 122t74.5 179q9 23 37 23zM452 261q40 0 85.5 -32t45.5 -69q0 -41 -46 -115t-105 -132t-93 -58q-23 0 -51 18.5t-28 40.5q0 12 10 23q54 56 145 301 q9 23 37 23z" />
<glyph unicode="&#x2022;" horiz-adv-x="911" d="M568 406q-74 0 -121 58.5t-47 136.5q0 100 73.5 158t163.5 58q75 0 115.5 -41.5t40.5 -110.5q0 -102 -69 -180.5t-156 -78.5z" />
<glyph unicode="&#x2026;" horiz-adv-x="1177" d="M207 4q-46 0 -75.5 36.5t-29.5 84.5q0 62 45.5 98t101.5 36q46 0 71.5 -26t25.5 -69q0 -64 -42.5 -112t-96.5 -48zM547 4q-45 0 -74.5 36.5t-29.5 84.5q0 62 45.5 98t101.5 36q46 0 71.5 -26t25.5 -69q0 -64 -43 -112t-97 -48zM890 4q-45 0 -74.5 36.5t-29.5 84.5 q0 62 45.5 98t101.5 36q46 0 71.5 -26t25.5 -69q0 -64 -43 -112t-97 -48z" />
<glyph unicode="&#x202f;" horiz-adv-x="384" />
<glyph unicode="&#x2039;" horiz-adv-x="786" d="M553 279q-72 0 -97 28q-42 46 -128 196q-19 40 -19 52q0 6 2 12t6 11t7 8.5t7.5 7.5t5.5 5q63 62 171 140t192 125q20 11 41 11q31 0 56.5 -20t25.5 -40q0 -14 -19 -26q-6 -5 -67 -50.5t-125 -94.5t-93 -72q-14 -11 -14 -19t5 -17q9 -22 43.5 -98.5t44.5 -102.5 q9 -20 7 -30q0 -26 -52 -26z" />
<glyph unicode="&#x203a;" horiz-adv-x="747" d="M300 279q-31 0 -57.5 20t-26.5 40q0 14 19 26q3 2 66 50t126 96.5t92 71.5q15 12 15 21q0 8 -3 14q-70 153 -90 201q-7 16 -7 30q0 26 52 26q72 0 97 -28q43 -48 128 -195q19 -33 19 -53q0 -6 -2 -12t-6 -11t-7 -8.5t-7.5 -7.5t-5.5 -5q-60 -60 -168.5 -138t-194.5 -127 q-20 -11 -39 -11z" />
<glyph unicode="&#x205f;" horiz-adv-x="480" />
<glyph unicode="&#x20ac;" horiz-adv-x="837" d="M529 145q-122 0 -204.5 90t-82.5 238q0 29 3 59q1 11 -11 11q-20 -1 -44 -1q-21 0 -21 31q0 27 16 52t40 25h31q9 0 12 9q2 6 5.5 17.5t4.5 17.5v3l1 2q0 7 -11 7h-26q-20 0 -20 31q0 27 15.5 52t39.5 25h35q9 0 13 8q88 198 225.5 340.5t255.5 142.5q75 0 132 -71 q1 -2 5 -2q3 0 6 4q27 48 38 65q10 19 33 19q32 0 66.5 -32t34.5 -59q0 -11 -6 -17q-96 -125 -184 -337q-3 -11 -17 -11q-28 0 -55 27.5t-27 56.5q0 54 68 197q5 7 5 12q0 10 -24 10q-83 0 -183.5 -97.5t-178.5 -242.5q-2 -4 -2 -6q0 -7 10 -7h45q26 0 80 1.5t78 1.5 q17 0 17 -22q0 -27 -20 -56.5t-46 -29.5q-15 0 -88 2t-119 2q-10 0 -13 -9q-2 -5 -15 -41q-1 -2 -1 -5q0 -8 10 -8h64q27 0 81 2t78 2q16 0 16 -23q0 -27 -19.5 -56t-45.5 -29q-16 0 -87.5 1.5t-116.5 1.5q-11 0 -12 -10q-9 -48 -9 -92q0 -87 35 -122.5t103 -35.5 q90 0 214 95q16 12 28.5 -5.5t12.5 -47.5q0 -37 -21 -65q-45 -58 -110.5 -89.5t-136.5 -31.5z" />
<glyph unicode="&#x2122;" horiz-adv-x="907" d="M469 983q-20 0 -41.5 22t-21.5 47q0 15 5 24q24 41 135 257l1 4q5 9 -5 9q-3 0 -26 -3.5t-28 -3.5q-16 0 -31.5 22t-15.5 45q0 30 32 33q45 4 154 21t120 18q18 3 33 -21t15 -48q0 -29 -22 -29q-43 -3 -86 -13q-6 -1 -13 -12l-188 -363q-6 -9 -17 -9zM698 979 q-22 0 -42.5 18.5t-20.5 41.5q0 14 7 22q32 52 67 118.5t80.5 156.5t66.5 131q6 11 15 11q22 0 54 -22.5t26 -49.5l-46 -220q-3 -11 2 -11q2 0 9 7l235 285q9 11 15 11q20 0 48 -25t28 -49q0 -8 -6 -19l-199 -393q-9 -13 -19 -13q-20 0 -49 22.5t-19 42.5q10 19 87 159 q0 1 0.5 1t0.5 1q0 7 -5 7q-4 0 -7 -4q-14 -17 -59 -77.5t-71 -93.5q-7 -7 -17 -7q-20 0 -42.5 15t-21.5 29q2 18 15 84l10 39v3q0 6 -4 6t-9 -7l-106 -207q-9 -13 -23 -13z" />
<glyph unicode="&#x25fc;" horiz-adv-x="1003" d="M0 1004h1004v-1004h-1004v1004z" />
</font>
</defs>
</svg>
