<?xml version="1.0" standalone="no"?>
<!DOCTYPE svg PUBLIC "-//W3C//DTD SVG 1.1//EN" "http://www.w3.org/Graphics/SVG/1.1/DTD/svg11.dtd" >
<svg xmlns="http://www.w3.org/2000/svg">
<metadata></metadata>
<defs>
<font id="merlo_neueextra_light" horiz-adv-x="954" >
<font-face units-per-em="2048" ascent="1536" descent="-512" />
<missing-glyph horiz-adv-x="518" />
<glyph horiz-adv-x="0" />
<glyph horiz-adv-x="682" />
<glyph unicode=" "  horiz-adv-x="518" />
<glyph unicode="&#x09;" horiz-adv-x="518" />
<glyph unicode="&#xa0;" horiz-adv-x="518" />
<glyph unicode="!" horiz-adv-x="458" d="M217 338q-15 0 -21 9t-6 32l-14 1116q0 24 6.5 32.5t26.5 8.5h41q20 0 26.5 -8.5t6.5 -32.5l-15 -1116q0 -22 -5.5 -31.5t-20.5 -9.5h-25zM180 41q-12 20 -6.5 43.5t25.5 36.5q22 12 45 5.5t35 -26.5t6.5 -42.5t-25.5 -34.5q-22 -14 -45 -9t-35 27z" />
<glyph unicode="&#x22;" horiz-adv-x="565" d="M203 1538q32 0 26 -39l-34 -315q-2 -15 -13.5 -21t-22.5 0t-12 21l-34 315q-6 39 26 39h64zM442 1538q30 0 27 -39l-37 -315q-1 -15 -12 -21t-22 0t-13 21l-35 315q-3 39 27 39h65z" />
<glyph unicode="#" horiz-adv-x="1599" d="M915 520h-266l-57 -479q-5 -41 -35 -41h-39q-16 0 -21.5 8.5t-2.5 30.5l57 481h-412q-28 0 -28 27v41q0 15 6.5 20.5t21.5 5.5h424l33 283h-401q-29 0 -29 27v41q0 26 29 26h413l49 402q5 41 35 41h37q32 0 27 -39l-49 -404h266l49 402q5 41 33 41h39q16 0 22.5 -8.5 t3.5 -30.5l-49 -404h389q31 0 31 -26v-41q0 -27 -31 -27h-401l-35 -283h381q31 0 31 -26v-41q0 -27 -31 -27h-393l-58 -479q-5 -41 -32 -41h-39q-32 0 -27 39zM659 614h267l35 283h-267z" />
<glyph unicode="$" horiz-adv-x="1089" d="M983 377q0 -145 -95.5 -252t-260.5 -133v-70q0 -31 -29 -31h-39q-29 0 -29 31v64q-92 1 -182.5 32t-140 62.5t-86.5 64.5q-25 22 -4 43l24 29q19 22 43 0q165 -137 363 -137q153 0 244.5 86t91.5 209q0 61 -24.5 113t-66.5 90.5t-96.5 73.5t-114 66.5t-119.5 63.5 t-114.5 70t-96.5 81.5t-66.5 103t-24.5 128.5q0 148 99.5 257t270.5 126v62q0 28 29 28h39q29 0 29 -28v-62q52 -3 102.5 -14t85 -25t62 -27.5t40.5 -22.5l13 -9q21 -12 8 -39l-16 -31q-9 -21 -39 -6q-154 84 -295 84q-145 0 -236.5 -83t-91.5 -201q0 -74 40 -135 t103.5 -105t141 -85.5t154.5 -86t140.5 -95.5t103.5 -125.5t40 -164.5z" />
<glyph unicode="%" horiz-adv-x="1208" d="M397 1219q-69 0 -117.5 48t-48.5 117t48.5 117.5t117.5 48.5t118.5 -48.5t49.5 -117.5t-49.5 -117t-118.5 -48zM295 0q-20 0 -25.5 8t2.5 31l596 1456q10 26 16.5 33.5t24.5 7.5h37q35 0 19 -39l-594 -1456q-10 -26 -16.5 -33.5t-22.5 -7.5h-37zM397 1288q40 0 68.5 28 t28.5 68t-28.5 68.5t-68.5 28.5t-68 -28.5t-28 -68.5t28 -68t68 -28zM895 8q-60 -20 -116.5 8t-78.5 88q-20 61 8.5 118t90.5 77q60 20 117 -7.5t79 -88.5q20 -60 -9.5 -117.5t-90.5 -77.5zM874 70q35 10 52 43t6 69q-12 35 -45 51.5t-68 4.5q-35 -10 -51.5 -43.5 t-5.5 -69.5q12 -35 45 -51t67 -4z" />
<glyph unicode="&#x26;" horiz-adv-x="1183" d="M551 -14q-186 0 -309 119.5t-123 310.5q0 79 23 148t61 117t76.5 79.5t78.5 52.5q-80 43 -144 141.5t-64 223.5q0 166 107.5 270t277.5 104q93 0 177 -34.5t144 -106.5q18 -25 0 -43l-25 -25q-18 -16 -40 3q-110 110 -254 110q-125 0 -207 -78t-82 -202q0 -121 76 -215.5 t190 -100.5q29 0 29 -26v-41q0 -24 -29 -27q-121 -10 -208 -102t-87 -244q0 -151 94 -244.5t236 -93.5q140 0 232.5 90.5t92.5 233.5v243q0 29 29 29h219q29 0 29 -29v-37q0 -26 -29 -26h-149v-183q0 -183 -119.5 -300t-302.5 -117z" />
<glyph unicode="'" horiz-adv-x="342" d="M147 1184l-34 315q-3 39 26 39h66q29 0 26 -39l-34 -315q-3 -23 -25 -23t-25 23z" />
<glyph unicode="(" horiz-adv-x="610" d="M309 129q0 -116 40 -177.5t136 -64.5q17 0 24 -5.5t7 -20.5v-37q0 -29 -31 -29q-274 7 -274 303v1229q0 296 274 303q18 0 24.5 -6t6.5 -22v-37q0 -27 -31 -27q-96 -3 -136 -64t-40 -176v-1169z" />
<glyph unicode=")" horiz-adv-x="610" d="M125 -205q-31 0 -31 29v37q0 26 31 26q97 3 136.5 64t39.5 178v1169q0 115 -39.5 176t-136.5 64q-31 0 -31 27v37q0 16 6.5 22t24.5 6q276 -6 276 -303v-1229q0 -297 -276 -303z" />
<glyph unicode="*" horiz-adv-x="563" d="M522 1513q12 -31 -22 -43l-144 -47l88 -123q19 -25 -4 -45l-14 -10q-27 -21 -47 8l-88 121l-90 -121q-22 -27 -47 -8l-15 8q-28 19 -6 47l88 123l-143 47q-34 12 -21 43l4 17q12 30 43 20l144 -45v150q0 35 33 35h16q19 0 27 -8t8 -27v-152l143 47q18 5 27.5 0t15.5 -22z " />
<glyph unicode="+" horiz-adv-x="837" d="M694 801q29 0 29 -27v-31q0 -26 -29 -26h-229v-242q0 -29 -27 -29h-39q-26 0 -26 29v242h-230q-28 0 -28 26v31q0 27 28 27h230v241q0 29 26 29h39q27 0 27 -29v-241h229z" />
<glyph unicode="," horiz-adv-x="387" d="M111 72q0 35 22.5 56.5t56.5 21.5q38 0 62 -27.5t24 -77.5q0 -55 -28 -121.5t-74 -124.5l-4 -4t-4 -4.5t-3.5 -3.5t-4 -2.5t-3.5 -1t-4 0t-4 1.5l-18 12q-9 7 2 27q62 94 62 137q0 27 -25 35q-57 22 -57 76z" />
<glyph unicode="-" horiz-adv-x="729" d="M139 520q-24 0 -24 27v37q0 26 24 26h453q22 0 22 -26v-37q0 -27 -22 -27h-453z" />
<glyph unicode="." horiz-adv-x="376" d="M111 70q0 34 22.5 57t54.5 23q34 0 57 -23t23 -57q0 -32 -23 -55t-57 -23q-32 0 -54.5 23t-22.5 55z" />
<glyph unicode="/" horiz-adv-x="483" d="M135 0q-17 0 -22 8t-2 31l163 1456q3 25 9.5 33t25.5 8h39q17 0 22.5 -8.5t2.5 -30.5l-164 -1456q-3 -23 -10.5 -32t-24.5 -9h-39z" />
<glyph unicode="0" horiz-adv-x="1212" d="M606 -14q-243 0 -372.5 200t-129.5 578q0 382 129.5 584t372.5 202q245 0 374.5 -202t129.5 -584q0 -378 -129.5 -578t-374.5 -200zM606 80q195 0 299.5 176.5t104.5 507.5q0 339 -104.5 518.5t-299.5 179.5q-194 0 -297.5 -179.5t-103.5 -518.5q0 -331 103.5 -507.5 t297.5 -176.5z" />
<glyph unicode="1" horiz-adv-x="649" d="M399 0q-28 0 -28 29v1370l-238 -240q-25 -25 -43 -4l-24 25q-20 20 4 45l290 293q18 18 39 18h41q19 0 25 -6t6 -25v-1476q0 -29 -29 -29h-43z" />
<glyph unicode="2" horiz-adv-x="976" d="M156 0q-19 0 -25 6t-6 25v227q0 89 33 172.5t86 150t117.5 130t129 123t118.5 117.5t88 125.5t36 135.5q3 104 -67.5 175t-186.5 71q-124 0 -241 -117q-19 -22 -39 -2l-25 25q-17 17 2 43q127 143 309 143q157 0 252.5 -95.5t93.5 -240.5q-1 -80 -35 -156.5t-87.5 -139.5 t-118 -124.5t-129 -123.5t-117.5 -125t-86 -139.5t-33 -157.5v-156h596q31 0 31 -29v-34q0 -29 -31 -29h-665z" />
<glyph unicode="3" horiz-adv-x="995" d="M446 -14q-215 0 -356 153q-23 26 0 45l25 23q18 21 41 -2q123 -123 286 -123q147 0 241.5 93t94.5 245t-87 244t-208 102q-28 3 -28 27v41q0 26 28 26q114 6 190.5 100.5t76.5 215.5q0 123 -83.5 201.5t-209.5 78.5q-140 0 -250 -110q-22 -19 -41 -3l-25 25q-18 18 0 43 q60 72 144 106.5t176 34.5q171 0 279 -103.5t108 -270.5q0 -125 -64.5 -223.5t-144.5 -141.5q40 -21 78 -52.5t76 -79.5t61 -117t23 -148q0 -193 -120 -311.5t-311 -118.5z" />
<glyph unicode="4" horiz-adv-x="970" d="M707 0q-29 0 -29 31v407h-615q-18 0 -24 6.5t-6 24.5v23q0 30 16 53l617 966q17 20 27 23q5 2 12 2h45q15 0 20.5 -7t5.5 -24v-975h92q31 0 31 -26v-37q0 -29 -31 -29h-92v-407q0 -17 -6.5 -24t-21.5 -7h-41zM156 530h522v830z" />
<glyph unicode="5" horiz-adv-x="1021" d="M465 946q203 0 320.5 -125t117.5 -350q0 -226 -118.5 -355.5t-319.5 -129.5q-208 0 -334 145q-18 21 0 39l29 27q18 22 39 -2q48 -55 117.5 -86t146.5 -31q156 0 249 104.5t93 288.5q0 183 -97.5 283t-263.5 100h-227q-19 0 -25 6t-6 23v622q0 19 6 25t25 6h576 q17 0 23.5 -7t6.5 -22v-34q0 -15 -6.5 -22t-23.5 -7h-506v-498h178z" />
<glyph unicode="6" horiz-adv-x="1101" d="M565 -14q-96 0 -174.5 38.5t-140.5 119t-96.5 218t-34.5 322.5q0 399 134 632.5t370 233.5q184 0 319 -135q17 -17 0 -37l-29 -30q-14 -14 -34 2q-117 108 -258 108q-126 0 -219.5 -98t-139.5 -264t-43 -373q14 33 43 69.5t74 75.5t112.5 64.5t143.5 25.5 q180 0 296 -133.5t116 -349.5q0 -223 -124 -356t-315 -133zM569 78q143 0 239.5 106.5t96.5 290.5q0 173 -91.5 282t-231.5 109q-126 0 -223.5 -84.5t-137.5 -193.5q3 -235 96 -372.5t252 -137.5z" />
<glyph unicode="7" horiz-adv-x="849" d="M713 1444h-629q-31 0 -31 29v34q0 29 31 29h702q19 0 25 -6t6 -23v-26q0 -29 -6 -45l-545 -1397q-9 -24 -17 -31.5t-22 -7.5h-47q-15 0 -19 7t3 32z" />
<glyph unicode="8" horiz-adv-x="1128" d="M565 -14q-205 0 -330.5 123t-125.5 309q0 140 72 248t192 151q-97 43 -155 141t-58 207q0 164 108.5 274.5t296.5 110.5q94 0 171.5 -30.5t127.5 -83.5t77.5 -122.5t27.5 -148.5q0 -109 -57.5 -207t-153.5 -141q119 -43 190.5 -151t71.5 -248q0 -185 -126 -308.5 t-329 -123.5zM565 864q144 0 223.5 87t79.5 208q0 124 -80 210.5t-223 86.5q-74 0 -133 -24.5t-96 -66.5t-56.5 -94.5t-19.5 -111.5q0 -122 80 -208.5t225 -86.5zM565 80q161 0 258 99.5t97 244.5q0 151 -95.5 247.5t-259.5 96.5q-165 0 -260.5 -96.5t-95.5 -247.5 q0 -145 97 -244.5t259 -99.5z" />
<glyph unicode="9" horiz-adv-x="1101" d="M473 -14q-185 0 -323 135q-18 19 0 37l28 30q15 18 35 -2q49 -45 120.5 -78t153.5 -30q122 4 213.5 102t138 263t44.5 372q-15 -34 -44 -70.5t-74 -75.5t-113 -64t-144 -25q-179 0 -294.5 132.5t-115.5 348.5q0 223 121.5 356t308.5 133q94 0 173.5 -38.5t143.5 -119 t100 -218.5t36 -322q0 -266 -57 -459t-172.5 -300t-278.5 -107zM520 672q125 0 222 84t137 192q-3 232 -100.5 371t-254.5 139q-138 0 -233.5 -107t-95.5 -290q0 -173 92 -281t233 -108z" />
<glyph unicode=":" horiz-adv-x="372" d="M109 877q0 33 22 55t55 22t56.5 -22.5t23.5 -54.5q0 -33 -23.5 -56.5t-56.5 -23.5t-55 23t-22 57zM109 70q0 34 22 57t55 23t56.5 -23.5t23.5 -56.5q0 -32 -24 -55t-56 -23q-33 0 -55 22.5t-22 55.5z" />
<glyph unicode=";" horiz-adv-x="387" d="M111 877q0 32 22.5 54.5t54.5 22.5q34 0 57 -22.5t23 -54.5q0 -34 -23 -57t-57 -23q-32 0 -54.5 23t-22.5 57zM111 72q0 35 22.5 56.5t56.5 21.5q38 0 62 -27.5t24 -77.5q0 -55 -28 -121.5t-74 -124.5l-4 -4t-4 -4.5t-3.5 -3.5t-4 -2.5t-3.5 -1t-4 0t-4 1.5l-18 12 q-9 7 2 27q62 94 62 137q0 27 -25 35q-57 22 -57 76z" />
<glyph unicode="&#x3c;" horiz-adv-x="618" d="M125 735q-23 23 0 45l346 336q12 11 23.5 6.5t11.5 -18.5v-64q0 -18 -21 -41l-252 -241l252 -242q21 -23 21 -41v-63q0 -14 -11.5 -19t-23.5 6z" />
<glyph unicode="=" horiz-adv-x="837" d="M143 852q-28 0 -28 27v30q0 27 28 27h551q29 0 29 -27v-30q0 -27 -29 -27h-551zM143 590q-28 0 -28 26v29q0 27 28 27h551q29 0 29 -27v-29q0 -26 -29 -26h-551z" />
<glyph unicode="&#x3e;" horiz-adv-x="618" d="M494 735l-347 -336q-12 -11 -23 -6t-11 19v63q0 19 20 41l252 242l-252 241q-20 22 -20 41v64q0 14 11 18.5t23 -6.5l347 -336q22 -22 0 -45z" />
<glyph unicode="?" horiz-adv-x="862" d="M381 358q-17 0 -23 6.5t-6 24.5q0 116 17 210t43.5 155.5t59.5 110.5t65.5 87t60 73.5t45.5 80.5t19 98q3 108 -68 178t-186 70q-129 0 -240 -111q-20 -21 -41 0l-25 23q-17 20 4 43q119 139 308 139q153 0 251 -89t95 -243q-1 -63 -19 -116t-45.5 -93t-61.5 -80 t-67 -88.5t-61 -106.5t-45 -145.5t-17 -195.5q0 -17 -6.5 -24t-21.5 -7h-35zM399 -8q-32 0 -54.5 23t-22.5 55q0 34 22.5 57t54.5 23q34 0 57 -23t23 -57q0 -32 -23 -55t-57 -23z" />
<glyph unicode="@" horiz-adv-x="2088" d="M1044 1440q206 0 381.5 -69t299 -191.5t193 -297t69.5 -380.5q0 -314 -118.5 -505.5t-314.5 -191.5q-112 0 -189 66.5t-77 185.5v47q-27 -24 -42.5 -36.5t-52 -35.5t-80 -34.5t-93.5 -11.5q-187 0 -293 129.5t-106 361.5q0 233 104 362.5t289 129.5q53 0 97 -11 t81.5 -35.5t51 -35.5t44.5 -39v76q0 28 29 28h39q28 0 28 -28v-858q0 -87 52 -127.5t123 -40.5q153 0 244 165.5t91 438.5q0 185 -62.5 342.5t-174 268t-269.5 173t-344 62.5t-344 -62.5t-268.5 -173t-172.5 -268t-62 -342.5q0 -249 106.5 -443.5t299.5 -302.5t441 -108h5 q28 0 28 -27v-37q0 -26 -28 -26h-5q-206 0 -381.5 69.5t-298.5 192.5t-192.5 299t-69.5 383q0 206 69.5 380.5t192.5 297t298.5 191.5t381.5 69zM1030 76q143 0 258 127v549q-115 125 -264 125q-142 0 -224.5 -106t-82.5 -294q0 -189 82.5 -295t230.5 -106z" />
<glyph unicode="A" horiz-adv-x="1200" d="M86 0q-29 0 -18 31l473 1474q9 31 39 31h41q32 0 41 -31l473 -1474q8 -31 -19 -31h-43q-15 0 -22 6.5t-13 24.5l-127 399h-620l-129 -399q-5 -18 -11.5 -24.5t-21.5 -6.5h-43zM322 522h559l-281 873z" />
<glyph unicode="B" horiz-adv-x="1206" d="M209 0q-29 0 -29 29v1478q0 29 29 29h409q210 0 318 -103t108 -282q0 -113 -49 -202t-143 -130q235 -85 235 -389q0 -211 -115 -320.5t-341 -109.5h-422zM279 862h370q62 0 113 17t84.5 45t56.5 65.5t33 78t10 83.5q0 128 -76.5 210.5t-230.5 82.5h-360v-582zM279 92h360 q350 0 350 338q0 72 -17.5 130.5t-55.5 107t-107 75.5t-164 27h-366v-678z" />
<glyph unicode="C" horiz-adv-x="1216" d="M733 -14q-285 0 -457 208t-172 574t172 574t457 208q248 0 412 -164q18 -18 0 -36l-29 -31q-15 -15 -35 2q-146 137 -350 137q-238 0 -382 -185t-144 -505t144 -505t382 -185q204 0 350 137q20 17 35 2l29 -31q18 -18 0 -36q-164 -164 -412 -164z" />
<glyph unicode="D" horiz-adv-x="1359" d="M209 0q-29 0 -29 29v1478q0 29 29 29h414q132 0 245.5 -47t201 -139t137.5 -241t50 -341t-50 -341t-137.5 -241t-201 -139t-245.5 -47h-414zM279 92h337q117 0 214.5 40.5t171 121.5t114.5 212t41 302t-41 302t-114.5 212t-171 121.5t-214.5 40.5h-337v-1352z" />
<glyph unicode="E" horiz-adv-x="1126" d="M209 0q-29 0 -29 29v1478q0 29 29 29h749q29 0 29 -29v-34q0 -29 -29 -29h-679v-586h585q29 0 29 -27v-36q0 -29 -29 -29h-585v-674h688q28 0 28 -29v-34q0 -29 -28 -29h-758z" />
<glyph unicode="F" horiz-adv-x="1015" d="M209 0q-29 0 -29 29v1478q0 29 29 29h704q29 0 29 -29v-34q0 -29 -29 -29h-634v-594h532q29 0 29 -27v-37q0 -28 -29 -28h-532v-729q0 -29 -29 -29h-41z" />
<glyph unicode="G" horiz-adv-x="1351" d="M733 -14q-285 0 -457 208t-172 574t172 574t457 208q248 0 412 -164q18 -18 0 -36l-29 -31q-15 -15 -35 2q-146 137 -350 137q-238 0 -382 -185t-144 -505t144 -505t382 -185q87 0 163 27t126 69.5t79 95.5t29 105v325h-352q-14 0 -22.5 8t-8.5 21v37q0 27 31 27h422 q14 0 22.5 -8t8.5 -21v-402q0 -65 -34.5 -131t-96 -121t-157.5 -89.5t-208 -34.5z" />
<glyph unicode="H" horiz-adv-x="1392" d="M209 0q-29 0 -29 29v1478q0 29 29 29h41q29 0 29 -29v-657h835v657q0 29 29 29h41q28 0 28 -29v-1478q0 -29 -28 -29h-41q-29 0 -29 29v729h-835v-729q0 -29 -29 -29h-41z" />
<glyph unicode="I" horiz-adv-x="458" d="M209 0q-29 0 -29 29v1478q0 29 29 29h41q29 0 29 -29v-1478q0 -29 -29 -29h-41z" />
<glyph unicode="J" horiz-adv-x="915" d="M379 -14q-83 0 -161 32t-132 93q-20 23 0 43l27 26q17 17 41 -4q98 -98 223 -98q108 0 188 72.5t80 195.5v1161q0 13 8.5 21t22.5 8h41q28 0 28 -29v-1155q0 -159 -107 -262.5t-259 -103.5z" />
<glyph unicode="K" horiz-adv-x="1128" d="M209 0q-29 0 -29 29v1478q0 29 29 29h41q29 0 29 -29v-792l647 798q20 23 41 23h59q13 0 16 -8.5t-6 -20.5l-553 -690l586 -786q9 -12 4.5 -21.5t-18.5 -9.5h-58q-21 0 -41 23l-542 727l-135 -164v-557q0 -29 -29 -29h-41z" />
<glyph unicode="L" horiz-adv-x="946" d="M209 0q-29 0 -29 29v1478q0 29 29 29h41q29 0 29 -29v-1415h552q14 0 22.5 -8t8.5 -21v-34q0 -13 -8.5 -21t-22.5 -8h-622z" />
<glyph unicode="M" horiz-adv-x="1636" d="M152 0q-30 0 -27 31l135 1474q3 31 31 31h37q24 0 30 -23l461 -1366l459 1366q9 23 31 23h37q27 0 30 -31l135 -1474q3 -31 -26 -31h-43q-26 0 -29 31l-115 1263l-428 -1269q-9 -25 -34 -25h-35q-24 0 -33 25l-430 1269l-113 -1263q-3 -31 -30 -31h-43z" />
<glyph unicode="N" horiz-adv-x="1394" d="M207 0q-27 0 -27 29v1478q0 29 29 29h29q16 0 30 -20l852 -1305v1296q0 29 27 29h41q26 0 26 -29v-1478q0 -29 -28 -29h-29q-17 0 -31 20l-852 1319v-1310q0 -29 -26 -29h-41z" />
<glyph unicode="O" horiz-adv-x="1462" d="M731 1550q284 0 455.5 -208.5t171.5 -573.5t-171.5 -573.5t-455.5 -208.5t-455.5 208.5t-171.5 573.5t171.5 573.5t455.5 208.5zM731 78q238 0 383.5 185t145.5 505t-145.5 505t-383.5 185q-237 0 -381.5 -185t-144.5 -505t144.5 -505t381.5 -185z" />
<glyph unicode="P" horiz-adv-x="1155" d="M209 0q-29 0 -29 29v1476q0 14 8 22.5t21 8.5h371q119 0 212 -36t150.5 -99t87 -145.5t29.5 -180.5t-29.5 -181.5t-87 -146.5t-150.5 -99t-212 -36h-301v-583q0 -29 -29 -29h-41zM279 705h290q196 0 294 102t98 268q0 165 -98 267t-294 102h-290v-739z" />
<glyph unicode="Q" horiz-adv-x="1462" d="M1028 55l234 -393q8 -15 3.5 -23t-16.5 -8h-57q-14 0 -22.5 6.5t-18.5 26.5l-209 354q-88 -32 -211 -32q-296 0 -461.5 206t-165.5 572q0 371 165.5 578.5t461.5 207.5t461.5 -207.5t165.5 -578.5q0 -260 -85.5 -442t-244.5 -267zM205 766q0 -324 139 -505t387 -181 q249 0 389 181t140 505q0 326 -140 509t-389 183q-247 0 -386.5 -183t-139.5 -509z" />
<glyph unicode="R" horiz-adv-x="1208" d="M209 0q-29 0 -29 29v1478q0 29 29 29h409q237 0 356.5 -115.5t119.5 -316.5q0 -169 -89.5 -283t-265.5 -141l357 -649q8 -15 1.5 -23t-22.5 -8h-49q-24 0 -41 25l-352 647h-354v-643q0 -29 -29 -29h-41zM279 764h348q185 0 276.5 96t91.5 244q0 155 -90 247.5t-278 92.5 h-348v-680z" />
<glyph unicode="S" horiz-adv-x="1089" d="M537 -14q-94 0 -186 31t-142.5 63t-87.5 65q-25 22 -4 43l24 29q19 22 43 0q165 -137 363 -137q153 0 244.5 86t91.5 209q0 61 -24.5 113t-66.5 90.5t-96.5 73.5t-114 66.5t-119.5 63.5t-114.5 70t-96.5 81.5t-66.5 103t-24.5 128.5q0 161 115.5 273t310.5 112 q59 0 115.5 -10.5t96 -25t71 -29t46.5 -25.5l15 -10q21 -12 8 -39l-16 -31q-9 -21 -39 -6q-154 84 -295 84q-145 0 -236.5 -83t-91.5 -201q0 -74 40 -135t103.5 -105t141 -85.5t154.5 -86t140.5 -95.5t103.5 -125.5t40 -164.5q0 -166 -121 -278.5t-325 -112.5z" />
<glyph unicode="T" horiz-adv-x="1097" d="M528 0q-30 0 -30 29v1419h-443q-28 0 -28 27v32q0 29 28 29h985q14 0 22.5 -8t8.5 -21v-32q0 -27 -31 -27h-442v-1419q0 -29 -29 -29h-41z" />
<glyph unicode="U" horiz-adv-x="1363" d="M682 -14q-245 0 -383.5 145.5t-138.5 421.5v954q0 29 28 29h41q29 0 29 -29v-964q0 -231 113.5 -349t310.5 -118q196 0 310 118t114 349v964q0 29 29 29h41q28 0 28 -29v-954q0 -275 -139 -421t-383 -146z" />
<glyph unicode="V" horiz-adv-x="1175" d="M565 0q-16 0 -23 5t-14 26l-489 1474q-6 18 0 24.5t22 6.5h43q19 0 26 -5t13 -26l445 -1362l442 1362q7 21 14.5 26t26.5 5h43q33 0 23 -31l-490 -1474q-7 -21 -14 -26t-23 -5h-45z" />
<glyph unicode="W" horiz-adv-x="1792" d="M57 1505q-6 31 23 31h49q27 0 35 -31l334 -1341l338 1341q6 31 38 31h44q29 0 38 -31l338 -1341l334 1341q5 31 35 31h49q30 0 21 -31l-379 -1474q-6 -31 -37 -31h-41q-31 0 -37 31l-344 1339l-342 -1339q-9 -31 -37 -31h-41q-31 0 -37 31z" />
<glyph unicode="X" horiz-adv-x="1032" d="M55 0q-28 0 -12 31l416 753l-396 721q-16 31 17 31h51q25 0 39 -25l346 -645l346 645q12 25 37 25h53q31 0 15 -31l-396 -721l418 -753q16 -31 -16 -31h-49q-25 0 -39 25l-369 680l-369 -680q-14 -25 -38 -25h-54z" />
<glyph unicode="Y" horiz-adv-x="1056" d="M915 1511q11 25 39 25h45q34 0 17 -31l-438 -800v-676q0 -29 -29 -29h-41q-29 0 -29 29v676l-438 800q-14 31 16 31h47q25 0 39 -25l385 -725z" />
<glyph unicode="Z" horiz-adv-x="1040" d="M117 0q-12 0 -20.5 8t-8.5 21v43q0 21 10 41l750 1331h-727q-29 0 -29 29v34q0 29 29 29h805q30 0 30 -29v-43q0 -21 -10 -41l-751 -1331h714q31 0 31 -29v-34q0 -29 -31 -29h-792z" />
<glyph unicode="[" horiz-adv-x="704" d="M240 -422q-17 0 -23 6.5t-6 24.5v2009q0 18 6 24.5t23 6.5h338q17 0 23.5 -7t6.5 -22v-37q0 -27 -30 -27h-269v-1886h269q17 0 23.5 -6t6.5 -20v-37q0 -15 -6.5 -22t-23.5 -7h-338z" />
<glyph unicode="\" horiz-adv-x="481" d="M309 0q-17 0 -24.5 9t-10.5 32l-163 1452q-3 24 2 33.5t22 9.5h37q19 0 25.5 -8t9.5 -33l166 -1456q1 -23 -4.5 -31t-22.5 -8h-37z" />
<glyph unicode="]" horiz-adv-x="704" d="M127 -422q-31 0 -31 29v37q0 26 31 26h268v1886h-268q-31 0 -31 27v37q0 29 31 29h338q17 0 23 -6.5t6 -24.5v-2009q0 -18 -6 -24.5t-23 -6.5h-338z" />
<glyph unicode="^" horiz-adv-x="737" d="M369 1460l-228 -248q-25 -29 -49 -8l-20 21q-14 13 -13 23t19 28l272 266q18 18 37 0l272 -266q17 -17 18.5 -27t-9.5 -20l-21 -21q-13 -14 -23.5 -13.5t-27.5 17.5z" />
<glyph unicode="_" horiz-adv-x="1124" d="M115 -39q-10 19 6 27l348 2q21 9 31 -6l510 -35q10 -19 -6 -27l-349 -2q-20 -9 -30 6z" />
<glyph unicode="`" horiz-adv-x="352" d="M272 1563l-233 184q-19 14 -20.5 26t10.5 23l22 27q10 13 19 13.5t30 -15.5l219 -203q24 -19 7 -39l-13 -14q-20 -20 -41 -2z" />
<glyph unicode="a" d="M465 969q163 0 254.5 -99.5t91.5 -267.5v-573q0 -29 -27 -29h-41q-26 0 -26 29v77q-40 -42 -121.5 -81t-181.5 -39q-139 0 -230.5 83.5t-91.5 217.5t92.5 217.5t245.5 83.5q95 0 173.5 -31t113.5 -68v113q0 128 -69.5 201.5t-190.5 73.5q-115 0 -242 -58q-27 -10 -33 12 l-12 41q-10 20 12 31q153 66 283 66zM436 68q81 0 157.5 41t123.5 88v211q-38 38 -115.5 68t-157.5 30q-117 0 -187.5 -60t-70.5 -157q0 -99 71 -160t179 -61z" />
<glyph unicode="b" horiz-adv-x="1019" d="M266 848q25 23 33.5 30.5t39.5 29.5t55 32t64 19.5t83 9.5q185 0 289 -129.5t104 -362.5q0 -232 -106 -361.5t-293 -129.5q-49 0 -93 11.5t-80 34t-53.5 36t-42.5 36.5v-73q0 -17 -5.5 -24t-20.5 -7h-41q-27 0 -27 31v1476q0 29 27 29h41q26 0 26 -29v-659zM266 203 q115 -127 260 -127q146 0 229 106t83 295t-83 294.5t-231 105.5q-143 0 -258 -125v-549z" />
<glyph unicode="c" horiz-adv-x="880" d="M512 -14q-191 0 -307.5 131.5t-116.5 359.5t116.5 360t307.5 132q166 0 295 -105q14 -11 4 -30l-18 -33q-12 -22 -37 -6q-121 84 -244 84q-145 0 -237.5 -109t-92.5 -293t92.5 -292.5t237.5 -108.5q123 0 244 84q25 16 37 -6l18 -33q10 -20 -4 -31q-128 -104 -295 -104z " />
<glyph unicode="d" horiz-adv-x="997" d="M754 848v659q0 29 28 29h39q29 0 29 -29v-1478q0 -29 -29 -29h-39q-28 0 -28 29v75q-26 -24 -42 -36.5t-52.5 -35.5t-80.5 -34.5t-94 -11.5q-187 0 -292 129.5t-105 361.5q0 233 104 362.5t289 129.5q52 0 95.5 -11t81 -35t52.5 -36t44 -39zM754 203v549 q-110 125 -258 125q-147 0 -230.5 -106t-83.5 -294t83.5 -294.5t230.5 -106.5q85 0 151 40t107 87z" />
<glyph unicode="e" horiz-adv-x="972" d="M518 -14q-196 0 -313 130.5t-117 360.5t112.5 361t297.5 131q186 0 287.5 -130.5t101.5 -359.5q0 -25 -5 -32t-24 -7l-672 -2q0 -159 92 -260.5t238 -101.5q123 0 256 88q25 17 35 -6q3 -4 10.5 -18.5t9.5 -18.5q13 -18 -4 -31q-133 -104 -305 -104zM186 524h602 q0 163 -80 258t-210 95q-135 0 -223.5 -99t-88.5 -254z" />
<glyph unicode="f" horiz-adv-x="608" d="M199 864h-121q-29 0 -29 27v35q0 26 29 26h121v314q0 130 72.5 206t177.5 78q125 3 204 -88q15 -17 16.5 -27t-10.5 -24l-20 -20q-19 -19 -41 4q-59 65 -141 65q-67 0 -115.5 -51.5t-48.5 -142.5v-314h217q31 0 31 -26v-35q0 -27 -31 -27h-217v-835q0 -29 -27 -29h-41 q-26 0 -26 29v835z" />
<glyph unicode="g" horiz-adv-x="1040" d="M88 180q-1 78 37.5 136t91.5 92q-57 90 -57 194q0 152 107 259.5t259 107.5q89 0 160.5 -41.5t118.5 -110.5v109q0 28 29 28h28q29 0 29 -28l2 -324q0 -152 -107.5 -259t-259.5 -107q-153 0 -252 104q-39 -22 -65.5 -63t-26.5 -91q0 -70 49 -114.5t123 -44.5h346 q123 0 194 -61.5t71 -168.5q0 -138 -119 -223.5t-318 -85.5q-188 0 -311 80.5t-123 216.5q0 41 11.5 76t28 57t33.5 37.5t29 22.5l11 6q-119 64 -119 196zM254 602q0 -116 78.5 -196t193.5 -80t194 80t79 196t-79 195.5t-194 79.5t-193.5 -79.5t-78.5 -195.5zM188 -211 q0 -99 95.5 -154t244.5 -55q147 0 244.5 55.5t97.5 153.5q0 66 -42.5 104.5t-122.5 38.5h-355q-77 0 -119.5 -38.5t-42.5 -104.5z" />
<glyph unicode="h" horiz-adv-x="1044" d="M199 0q-27 0 -27 29v1478q0 29 27 29h41q26 0 26 -29v-659q26 23 43.5 35.5t58 36.5t90.5 36.5t107 12.5q143 0 239.5 -89.5t96.5 -246.5v-604q0 -29 -29 -29h-38q-29 0 -29 29v579q0 132 -74 202.5t-188 70.5q-49 0 -94.5 -12.5t-82.5 -35.5t-56.5 -38t-43.5 -37v-729 q0 -29 -26 -29h-41z" />
<glyph unicode="i" horiz-adv-x="454" d="M199 1186q-23 12 -30 36.5t5 47.5q11 22 35 29t47 -5q22 -11 29.5 -35.5t-4.5 -46.5q-10 -23 -35.5 -30t-46.5 4zM207 0q-29 0 -29 29v895q0 28 29 28h39q28 0 28 -28v-895q0 -29 -28 -29h-39z" />
<glyph unicode="j" horiz-adv-x="477" d="M250 1157q-34 0 -58 24.5t-24 59.5q0 34 24 58t58 24t59 -24t25 -58q0 -35 -25 -59.5t-59 -24.5zM43 -512q-64 0 -116 25t-85 63q-14 18 -15.5 28t9.5 23l21 21q19 18 41 -4q63 -66 141 -66q64 0 114 48.5t50 129.5v1168q0 28 28 28h39q29 0 29 -28v-1170 q0 -117 -78 -191.5t-178 -74.5z" />
<glyph unicode="k" horiz-adv-x="894" d="M199 0q-27 0 -27 29v1478q0 29 27 29h41q26 0 26 -29v-1030l430 451q24 24 47 24h50q14 0 18 -9t-6 -21l-338 -355l375 -536q10 -13 4.5 -22t-19.5 -9h-53q-9 0 -13 1t-10.5 6.5t-15.5 17.5l-332 475l-137 -144v-327q0 -29 -26 -29h-41z" />
<glyph unicode="l" horiz-adv-x="583" d="M465 0q-146 0 -227.5 81t-81.5 224v1202q0 29 26 29h41q27 0 27 -29v-1200q0 -101 59.5 -159t163.5 -58h8q29 0 29 -27v-36q0 -27 -29 -27h-16z" />
<glyph unicode="m" horiz-adv-x="1603" d="M1137 969q149 0 237 -87.5t88 -246.5v-606q0 -29 -28 -29h-39q-29 0 -29 29v581q0 134 -69 202.5t-187 68.5q-80 0 -149 -32t-111 -73q24 -62 24 -145v-602q0 -29 -28 -29h-39q-29 0 -29 29v581q0 133 -70.5 202t-183.5 69q-139 0 -268 -123v-729q0 -29 -27 -29h-41 q-26 0 -26 29v895q0 17 6 22.5t20 5.5h39q15 0 21 -5.5t6 -22.5v-80q139 125 299 125q175 0 262 -125q137 125 322 125z" />
<glyph unicode="n" horiz-adv-x="1034" d="M188 0q-26 0 -26 29v895q0 28 26 28h37q27 0 27 -28v-80q131 125 301 125q144 0 241 -89.5t97 -246.5v-604q0 -29 -29 -29h-39q-28 0 -28 29v579q0 132 -73 202.5t-187 70.5q-143 0 -279 -123v-729q0 -29 -27 -29h-41z" />
<glyph unicode="o" horiz-adv-x="1019" d="M510 -14q-195 0 -308.5 130.5t-113.5 360.5q0 231 113.5 361.5t308.5 130.5t308.5 -130.5t113.5 -361.5t-113.5 -361t-308.5 -130zM510 76q151 0 239.5 107t88.5 294t-88.5 293.5t-239.5 106.5t-239.5 -106.5t-88.5 -293.5t88.5 -294t239.5 -107z" />
<glyph unicode="p" horiz-adv-x="1009" d="M256 848q63 57 104 80q76 41 170 41q185 0 289.5 -129.5t104.5 -362.5q0 -232 -106.5 -361.5t-293.5 -129.5q-49 0 -93 11.5t-80 34.5t-52.5 36t-42.5 36v-587q0 -29 -27 -29h-41q-26 0 -26 29v1407q0 28 26 28h41q27 0 27 -28v-76zM256 203q113 -125 260 -125t229 105 t82 294t-82.5 294.5t-230.5 105.5q-143 0 -258 -125v-549z" />
<glyph unicode="q" horiz-adv-x="983" d="M754 848v76q0 28 28 28h39q29 0 29 -28v-1407q0 -29 -29 -29h-39q-28 0 -28 29v587q-26 -24 -42 -36.5t-52.5 -35.5t-80.5 -34.5t-94 -11.5q-187 0 -292 129.5t-105 361.5q0 233 104 362.5t289 129.5q52 0 95.5 -11t81 -35t52.5 -36t44 -39zM754 203v549 q-110 125 -258 125q-147 0 -230.5 -106t-83.5 -294t83.5 -293.5t230.5 -105.5q85 0 151.5 39.5t106.5 85.5z" />
<glyph unicode="r" horiz-adv-x="737" d="M256 924v-72q3 5 9 13t27.5 28t45 35.5t61 28t76.5 12.5q90 0 187 -72q31 -27 18 -47l-25 -31q-6 -10 -17.5 -11t-23.5 9q-72 60 -153 60q-36 0 -70.5 -12t-58 -29.5t-41.5 -34.5t-27 -29l-8 -12v-731q0 -29 -27 -29h-41q-26 0 -26 29v895q0 28 26 28h41q27 0 27 -28z " />
<glyph unicode="s" horiz-adv-x="843" d="M428 -14q-167 0 -324 92q-26 17 -12 41l14 31q7 14 20.5 16t25.5 -6q148 -84 282 -84q102 0 168 48.5t66 125.5q0 17 -4 32.5t-9.5 27.5t-17.5 25t-20.5 21.5t-27.5 19.5t-29.5 16.5t-35 16t-35 14.5t-39 15t-38.5 15q-126 49 -165 73q-98 60 -107 164q-1 12 -1 25 q0 118 84.5 186t220.5 68q123 0 258 -74q24 -14 13 -43l-15 -31q-12 -22 -45 -4q-106 60 -221 60q-91 0 -144.5 -43t-53.5 -119q0 -18 3 -33t11.5 -28.5t15 -23.5t23 -21t25.5 -17.5t32.5 -17t34 -15t40 -16t40.5 -15.5q12 -5 47 -18t49 -19t44.5 -19t44.5 -23t37 -26 t34.5 -32t24 -37t17.5 -46t5 -54q0 -123 -93 -195.5t-243 -72.5z" />
<glyph unicode="t" horiz-adv-x="714" d="M451 -10q-103 2 -177.5 77.5t-74.5 192.5v604h-121q-29 0 -29 27v35q0 26 29 26h121v299q0 29 26 29h41q27 0 27 -29v-299h217q31 0 31 -26v-35q0 -27 -31 -27h-217v-604q0 -79 50.5 -128.5t115.5 -49.5q80 0 139 65q23 23 41 5l20 -23q22 -19 -6 -47q-84 -92 -202 -92z " />
<glyph unicode="u" horiz-adv-x="1013" d="M831 952q29 0 29 -28v-895q0 -29 -29 -29h-34q-29 0 -29 29v82q-45 -45 -119 -85t-168 -40q-142 0 -235.5 90t-93.5 246v602q0 28 26 28h41q27 0 27 -28v-578q0 -129 71.5 -200.5t184.5 -71.5q126 0 262 123v727q0 28 29 28h38z" />
<glyph unicode="v" horiz-adv-x="942" d="M453 0q-17 0 -23.5 6.5t-15.5 30.5l-328 885q-5 13 -1 19.5t9 8.5t15 2h41q10 0 13.5 -0.5t8.5 -6t10 -17.5l289 -797l291 797q4 12 9 17.5t9 6t15 0.5h39q7 0 11.5 -1t9 -4t4.5 -9t-3 -16l-326 -885q-9 -23 -16.5 -30t-24.5 -7h-36z" />
<glyph unicode="w" horiz-adv-x="1482" d="M406 0q-19 0 -26 7t-13 30l-271 885q-6 14 -0.5 20.5t10.5 8t13 1.5h41q14 0 20 -4t10 -20l234 -778l268 765q9 25 15 31t22 6h27q14 0 20 -6t15 -31l268 -765l233 778q6 16 12.5 20t20.5 4h39q9 0 14 -1.5t11 -8t0 -20.5l-271 -885q-8 -23 -15 -30t-24 -7h-32 q-18 0 -25 6.5t-16 30.5l-265 754l-264 -754q-9 -24 -15.5 -30.5t-23.5 -6.5h-32z" />
<glyph unicode="x" horiz-adv-x="925" d="M92 0q-15 0 -18.5 10t6.5 25l326 452l-306 433q-9 14 -4.5 23t19.5 9h51q14 0 21.5 -5t19.5 -23l256 -367l256 367q13 18 21 23t22 5h51q14 0 18 -9t-6 -23l-303 -433l324 -452q10 -15 7 -25t-17 -10h-54q-13 0 -21 6t-22 25l-276 387l-277 -387q-12 -19 -20 -25t-23 -6 h-51z" />
<glyph unicode="y" d="M184 -512q-49 0 -90 16q-37 10 -28 35l12 35q8 23 37 14q37 -12 67 -12q103 0 152 139l102 283l-336 924q-7 19 -2 24.5t23 5.5h41q11 0 15 -0.5t9 -6t9 -17.5l290 -797l289 797q5 12 10 17.5t9 6t14 0.5h39q8 0 12.5 -1t9 -4t4.5 -9t-2 -16l-454 -1250 q-33 -88 -94.5 -136t-137.5 -48z" />
<glyph unicode="z" horiz-adv-x="937" d="M213 90h584q28 0 28 -27v-36q0 -27 -28 -27h-668q-29 0 -29 31v41q0 26 13 41l604 751h-565q-31 0 -31 27v35q0 26 31 26h651q17 0 24 -6.5t7 -21.5v-37q0 -23 -17 -47z" />
<glyph unicode="{" horiz-adv-x="657" d="M532 -422q-128 3 -201 75t-73 222v639q-2 97 -31 146t-100 49q-22 0 -30.5 5.5t-8.5 22.5v37q0 17 8.5 23t30.5 6q74 0 101.5 49.5t29.5 144.5v437q0 150 73 222t201 75q31 0 31 -29v-37q0 -27 -31 -27q-96 -3 -136 -63.5t-40 -175.5v-428q0 -146 -86 -215 q86 -69 86 -221v-623q0 -116 40 -177.5t136 -64.5q31 0 31 -26v-37q0 -29 -31 -29z" />
<glyph unicode="|" horiz-adv-x="460" d="M207 -512q-29 0 -29 29v1990q0 29 29 29h39q28 0 28 -29v-1990q0 -29 -28 -29h-39z" />
<glyph unicode="}" horiz-adv-x="657" d="M125 -422q-31 0 -31 29v37q0 26 31 26q97 3 136.5 64t39.5 178v623q0 149 86 221q-86 72 -86 215v428q0 115 -39.5 175.5t-136.5 63.5q-31 0 -31 27v37q0 29 31 29q130 -3 203 -75t73 -222v-437q0 -95 27.5 -144.5t101.5 -49.5q23 0 31 -6t8 -23v-37q0 -17 -8 -22.5 t-31 -5.5q-71 0 -100 -49t-29 -146v-639q0 -150 -73 -222t-203 -75z" />
<glyph unicode="~" horiz-adv-x="946" d="M631 682q-47 0 -93 15.5t-77 33.5t-69.5 33.5t-72.5 15.5q-75 0 -129 -80q-13 -18 -30 -8l-35 21q-17 11 -6 30q37 65 90.5 92t103.5 27q57 0 111 -24.5t103.5 -49t95.5 -24.5q77 0 135 80q12 15 28 8l35 -23q17 -9 6 -28q-36 -65 -90 -92t-106 -27z" />
<glyph unicode="&#xa1;" horiz-adv-x="462" d="M182 983q12 22 35 27t45 -9q20 -12 25.5 -34.5t-6.5 -42.5t-35 -26.5t-45 5.5q-20 13 -25.5 36.5t6.5 43.5zM219 686h25q15 0 20.5 -9.5t5.5 -31.5l15 -1116q0 -24 -6.5 -32.5t-26.5 -8.5h-41q-20 0 -26.5 8.5t-6.5 32.5l15 1116q0 23 5.5 32t20.5 9z" />
<glyph unicode="&#xa2;" horiz-adv-x="880" d="M793 154l18 -33q10 -20 -4 -31q-114 -96 -266 -104v-64q0 -31 -27 -31h-41q-27 0 -27 31v68q-164 24 -261 152t-97 335t97 335.5t261 152.5v65q0 17 6 24t21 7h41q27 0 27 -31v-61q150 -8 266 -105q14 -11 4 -30l-18 -33q-12 -22 -37 -6q-121 84 -244 84 q-145 0 -237.5 -109t-92.5 -293t92.5 -292.5t237.5 -108.5q123 0 244 84q25 16 37 -6z" />
<glyph unicode="&#xa3;" horiz-adv-x="960" d="M846 92q28 0 28 -29v-34q0 -29 -28 -29h-625q-28 0 -28 29v696h-115q-29 0 -29 27v30q0 27 29 27h115v475q0 114 79.5 190t180.5 76q124 0 200 -88q14 -18 15.5 -27.5t-9.5 -23.5l-22 -20q-19 -19 -39 4q-62 65 -141 65q-64 0 -114 -48.5t-50 -129.5v-473h268 q31 0 31 -27v-30q0 -27 -31 -27h-268v-633h553z" />
<glyph unicode="&#xa5;" horiz-adv-x="1058" d="M1018 1505l-438 -800v-111h176q28 0 28 -27v-30q0 -27 -28 -27h-176v-162h176q28 0 28 -26v-29q0 -27 -28 -27h-176v-237q0 -29 -29 -29h-41q-29 0 -29 29v237h-176q-29 0 -29 27v29q0 26 29 26h176v162h-176q-29 0 -29 27v30q0 27 29 27h176v111l-438 800q-14 31 16 31 h47q25 0 39 -25l385 -725l388 725q11 25 38 25h45q34 0 17 -31z" />
<glyph unicode="&#xa7;" horiz-adv-x="835" d="M590 475q79 -37 123.5 -88t44.5 -135q0 -121 -93 -193.5t-241 -72.5q-169 0 -326 92q-26 17 -12 41l14 31q15 29 45 10q148 -84 285 -84q101 0 166.5 48.5t65.5 125.5q0 17 -4 32.5t-9.5 27.5t-17.5 25t-20.5 21.5t-27.5 19.5t-29.5 16.5t-35 16t-35 14.5t-39 15 t-38.5 15q-124 49 -163 73q-99 60 -109 167q-1 14 -1 28q0 86 47.5 144.5t130.5 82.5q-42 19 -71.5 37.5t-55 45.5t-38.5 63.5t-13 83.5q0 116 83 181.5t216 65.5q145 0 264 -73q25 -13 13 -41l-15 -31q-11 -23 -45 -4q-89 59 -223 59q-90 0 -143.5 -43t-53.5 -116 q0 -16 3.5 -31t7.5 -26.5t14.5 -23.5t17 -19.5t23.5 -17.5t25 -15.5t30.5 -15t31.5 -13.5t36.5 -14.5t36.5 -14.5q14 -5 47 -17.5t48.5 -19t45 -19t44.5 -23t37.5 -26t34 -32t24 -37.5t17.5 -46t5 -54q0 -83 -45 -144.5t-123 -91.5zM229 717q0 -16 3.5 -31t7.5 -26.5t14 -23 t17.5 -19.5t23 -17.5t25.5 -15t30.5 -14.5t32 -13.5t36 -14t36.5 -14.5q2 -1 6 -2t6 -2q86 9 140.5 60t54.5 123q0 31 -13 57t-30.5 43t-51.5 35.5t-58.5 29t-70.5 27.5q-101 -4 -155 -55t-54 -127z" />
<glyph unicode="&#xa8;" horiz-adv-x="573" d="M129 1552q-32 0 -55 22t-23 54t23 56t55 24t55 -24t23 -56t-23 -54t-55 -22zM444 1552q-32 0 -54.5 22t-22.5 54q0 33 22.5 56.5t54.5 23.5t55 -24t23 -56t-23 -54t-55 -22z" />
<glyph unicode="&#xa9;" horiz-adv-x="1708" d="M860 -4q-223 0 -398 98.5t-272.5 275.5t-97.5 402q0 170 57 315t157.5 246.5t243.5 159t310 57.5q162 0 301 -57.5t237.5 -159t154 -246.5t55.5 -315q0 -225 -95 -402t-266 -275.5t-387 -98.5zM860 70q194 0 347 89t238 249t85 364t-85 364.5t-238 249.5t-347 89 q-201 0 -358.5 -89t-245.5 -249.5t-88 -364.5t88 -364t245.5 -249t358.5 -89zM864 293q-183 0 -286 125t-103 346t103.5 346t287.5 125q193 0 303 -133q21 -21 5 -37q-3 -3 -8.5 -8t-9.5 -9t-7 -8q-17 -18 -39 4q-99 107 -242 107t-224 -102.5t-81 -284.5q0 -181 81 -284 t224 -103q144 0 242 106q22 22 37 4q4 -3 12 -11t12 -11q19 -19 -2 -39q-110 -133 -305 -133z" />
<glyph unicode="&#xab;" horiz-adv-x="972" d="M133 489q-23 23 0 46l346 335q12 11 23.5 6.5t11.5 -18.5v-63q0 -19 -20 -41l-252 -242l252 -242q20 -22 20 -41v-63q0 -14 -11.5 -18.5t-23.5 6.5zM494 489q-23 23 0 46l346 335q12 11 23 6.5t11 -18.5v-63q0 -19 -20 -41l-252 -242l252 -242q20 -22 20 -41v-63 q0 -14 -11 -18.5t-23 6.5z" />
<glyph unicode="&#xad;" horiz-adv-x="729" d="M139 520q-24 0 -24 27v37q0 26 24 26h453q22 0 22 -26v-37q0 -27 -22 -27h-453z" />
<glyph unicode="&#xae;" horiz-adv-x="1708" d="M860 -4q-164 0 -307 59t-244 161.5t-159 246.5t-58 309q0 166 58 310.5t159 247t244 161.5t307 59q160 0 299 -59t237.5 -161.5t155 -247t56.5 -310.5q0 -165 -56.5 -309t-155 -246.5t-237.5 -161.5t-299 -59zM860 70q191 0 344.5 91t239.5 251.5t86 359.5 q0 149 -50.5 279.5t-139 223.5t-213 146.5t-267.5 53.5q-147 0 -276 -53.5t-220 -146.5t-143.5 -223.5t-52.5 -279.5t52.5 -279.5t143.5 -223t220 -146t276 -53.5zM594 293q-25 0 -25 24v893q0 27 25 27h303q148 0 229.5 -74t81.5 -205q0 -114 -60.5 -178.5t-158.5 -83.5 l201 -377q14 -26 -19 -26h-38q-15 0 -22.5 4t-14.5 18l-199 375h-242v-373q0 -24 -26 -24h-35zM655 770h248q99 0 159 44t60 144q0 94 -56 145.5t-163 51.5h-248v-385z" />
<glyph unicode="&#xaf;" horiz-adv-x="530" d="M29 1614q0 26 28 26h416q17 0 23 -6t6 -20v-25q0 -14 -6 -20t-23 -6h-416q-28 0 -28 26v25z" />
<glyph unicode="&#xb0;" horiz-adv-x="581" d="M291 1063q-69 0 -117.5 48.5t-48.5 117.5t48.5 117.5t117.5 48.5t118.5 -48.5t49.5 -117.5t-49.5 -117.5t-118.5 -48.5zM291 1133q40 0 68 28t28 68t-28 68t-68 28t-68 -28t-28 -68t28 -68t68 -28z" />
<glyph unicode="&#xb4;" horiz-adv-x="350" d="M70 1563q-24 -19 -41 2l-15 14q-16 19 6 39l222 203q20 16 28.5 15.5t20.5 -13.5l22 -27q10 -11 9 -23t-19 -26z" />
<glyph unicode="&#xb6;" horiz-adv-x="1638" d="M1262 -598q-29 0 -29 31v2011h-420v-2011q0 -31 -29 -31h-41q-15 0 -21.5 7t-6.5 24v1243h-207q-175 0 -300.5 125t-125.5 305q0 176 115.5 303t281.5 127h1047q30 0 30 -29v-32q0 -31 -30 -31h-195v-2011q0 -17 -6.5 -24t-21.5 -7h-41z" />
<glyph unicode="&#xb7;" horiz-adv-x="376" d="M106 754q0 34 23.5 58t58.5 24q34 0 58 -24t24 -58t-24 -58t-58 -24q-35 0 -58.5 24t-23.5 58z" />
<glyph unicode="&#xb8;" horiz-adv-x="487" d="M229 -510q-58 0 -108 33q-14 8 -6 24l14 39q9 15 27 6q33 -20 69 -20q57 0 96 37.5t39 97.5q0 56 -38.5 93.5t-92.5 37.5q-65 0 -110 -59q-10 -16 -25 -10l-35 8q-13 6 -15.5 10.5t1.5 13.5l76 244l82 -4l-49 -164q41 29 100 29q80 0 135 -56.5t55 -140.5 q0 -100 -60.5 -159.5t-154.5 -59.5z" />
<glyph unicode="&#xbb;" horiz-adv-x="972" d="M481 489l-346 -335q-12 -11 -23.5 -6.5t-11.5 18.5v63q0 18 21 41l252 242l-252 242q-21 23 -21 41v63q0 14 11.5 18.5t23.5 -6.5l346 -335q23 -23 0 -46zM842 489l-346 -335q-12 -11 -23.5 -6.5t-11.5 18.5v63q0 19 20 41l252 242l-252 242q-20 22 -20 41v63 q0 14 11.5 18.5t23.5 -6.5l346 -335q23 -23 0 -46z" />
<glyph unicode="&#xbc;" horiz-adv-x="966" d="M141 1004q-16 0 -16 14v409l-57 -57q-11 -11 -19 0l-33 31q-11 9 0 20l107 107q11 8 20 8h62q14 0 14 -16v-502q0 -14 -14 -14h-64zM68 0q-19 0 -22 8t7 31l697 1456q13 26 21 33.5t28 7.5h37q17 0 20 -8.5t-8 -30.5l-696 -1456q-12 -24 -21.5 -32.5t-26.5 -8.5h-36z M791 6q-17 0 -17 17v112h-211q-16 0 -16 17v30q0 11 8 27l215 317q11 15 18 15h62q16 0 16 -19v-315h31q14 0 14 -14v-41q0 -17 -14 -17h-31v-112q0 -17 -16 -17h-59zM645 207h129v205z" />
<glyph unicode="&#xbd;" horiz-adv-x="909" d="M141 1004q-16 0 -16 14v409l-57 -57q-11 -11 -19 0l-33 31q-11 9 0 20l107 107q11 8 20 8h62q14 0 14 -16v-502q0 -14 -14 -14h-64zM55 0q-19 0 -21.5 8t7.5 31l696 1456q12 25 21.5 33t27.5 8h37q17 0 20 -8.5t-7 -30.5l-697 -1456q-13 -25 -21 -33t-24 -8h-39zM567 0 q-14 0 -14 16v84q0 42 21 79.5t50.5 64t59.5 50.5t51 50.5t21 52.5q0 27 -19 45.5t-49 18.5q-35 0 -74 -39q-9 -9 -20 2l-27 31q-9 9 2 20q48 62 136 62q64 0 102.5 -36.5t38.5 -94.5q0 -39 -21 -74t-51 -60.5t-59.5 -50t-50.5 -54t-21 -61.5v-32h191q16 0 16 -15v-45 q0 -14 -16 -14h-267z" />
<glyph unicode="&#xbe;" horiz-adv-x="966" d="M182 1001q-98 0 -145 58q-11 13 0 24l29 31q11 9 22 0q43 -37 82 -37t62.5 23.5t23.5 62.5q0 40 -23 63t-55 23q-16 0 -16 15v39q0 14 16 14q30 1 50 24t20 54t-20 49t-54 18q-42 0 -72 -30q-9 -9 -20 0l-29 30q-9 9 0 21q54 57 133 57q67 0 110.5 -37t43.5 -98 q0 -76 -66 -119q30 -18 53 -53t23 -82q0 -66 -48 -108t-120 -42zM68 0q-19 0 -22 8t7 31l697 1456q13 26 21 33.5t28 7.5h37q17 0 20 -8.5t-8 -30.5l-696 -1456q-12 -24 -21.5 -32.5t-26.5 -8.5h-36zM791 6q-17 0 -17 17v112h-211q-16 0 -16 17v30q0 11 8 27l215 317 q11 15 18 15h62q16 0 16 -19v-315h31q14 0 14 -14v-41q0 -17 -14 -17h-31v-112q0 -17 -16 -17h-59zM645 207h129v205z" />
<glyph unicode="&#xbf;" horiz-adv-x="864" d="M463 1030q32 0 55 -23t23 -55q0 -34 -23 -57t-55 -23q-34 0 -57 23t-23 57q0 32 23 55t57 23zM481 664q17 0 23 -6.5t6 -24.5q0 -116 -16.5 -210t-43.5 -155.5t-59.5 -110.5t-65.5 -87t-60 -73.5t-45 -80.5t-19 -98q-3 -108 68 -178t186 -70q128 0 239 111q20 21 41 0 l25 -23q17 -20 -4 -43q-119 -139 -307 -139q-153 0 -251.5 88.5t-95.5 242.5q1 63 19 116t45.5 93.5t61.5 80.5t67 88.5t61 106.5t45 145.5t17 195.5q0 17 6.5 24t21.5 7h35z" />
<glyph unicode="&#xc0;" horiz-adv-x="1200" d="M629 1657l-234 184q-19 14 -20.5 26t10.5 23l23 27q10 13 19 13.5t30 -15.5l219 -203q23 -18 6 -39l-12 -14q-20 -20 -41 -2zM86 0q-29 0 -18 31l473 1474q9 31 39 31h41q32 0 41 -31l473 -1474q8 -31 -19 -31h-43q-15 0 -22 6.5t-13 24.5l-127 399h-620l-129 -399 q-5 -18 -11.5 -24.5t-21.5 -6.5h-43zM322 522h559l-281 873z" />
<glyph unicode="&#xc1;" horiz-adv-x="1200" d="M588 1655q-24 -19 -41 2l-15 14q-16 19 7 39l221 203q20 16 28.5 15.5t20.5 -13.5l22 -27q10 -11 9 -23t-19 -26zM86 0q-29 0 -18 31l473 1474q9 31 39 31h41q32 0 41 -31l473 -1474q8 -31 -19 -31h-43q-15 0 -22 6.5t-13 24.5l-127 399h-620l-129 -399 q-5 -18 -11.5 -24.5t-21.5 -6.5h-43zM322 522h559l-281 873z" />
<glyph unicode="&#xc2;" horiz-adv-x="1200" d="M602 1843l-166 -178q-15 -15 -26 -16.5t-23 10.5l-20 20q-14 13 -13 23t19 27l211 196q18 19 37 0l210 -196q17 -15 19 -25.5t-10 -22.5l-21 -20q-13 -14 -23.5 -13.5t-27.5 17.5zM86 0q-29 0 -18 31l473 1474q9 31 39 31h41q32 0 41 -31l473 -1474q8 -31 -19 -31h-43 q-15 0 -22 6.5t-13 24.5l-127 399h-620l-129 -399q-5 -18 -11.5 -24.5t-21.5 -6.5h-43zM322 522h559l-281 873z" />
<glyph unicode="&#xc3;" horiz-adv-x="1200" d="M743 1651q-46 2 -93 26t-86.5 47.5t-69.5 24.5q-36 1 -63 -19.5t-54 -60.5q-11 -17 -29 -8l-35 22q-18 9 -6 29q66 119 178 119q43 -1 87.5 -25t86 -48t76.5 -25q63 -2 115 79q14 19 31 9l34 -21q18 -12 7 -31q-69 -118 -179 -118zM86 0q-29 0 -18 31l473 1474 q9 31 39 31h41q32 0 41 -31l473 -1474q8 -31 -19 -31h-43q-15 0 -22 6.5t-13 24.5l-127 399h-620l-129 -399q-5 -18 -11.5 -24.5t-21.5 -6.5h-43zM322 522h559l-281 873z" />
<glyph unicode="&#xc4;" horiz-adv-x="1200" d="M446 1653q-32 0 -54.5 22t-22.5 54t22.5 55.5t54.5 23.5t55 -23.5t23 -55.5t-23 -54t-55 -22zM762 1653q-32 0 -55 22t-23 54t23 55.5t55 23.5t55 -23.5t23 -55.5t-23 -54t-55 -22zM86 0q-29 0 -18 31l473 1474q9 31 39 31h41q32 0 41 -31l473 -1474q8 -31 -19 -31h-43 q-15 0 -22 6.5t-13 24.5l-127 399h-620l-129 -399q-5 -18 -11.5 -24.5t-21.5 -6.5h-43zM322 522h559l-281 873z" />
<glyph unicode="&#xc5;" horiz-adv-x="1200" d="M600 1638q-69 0 -117.5 48.5t-48.5 117.5t48.5 117.5t117.5 48.5t118.5 -48.5t49.5 -117.5t-49.5 -117.5t-118.5 -48.5zM600 1708q40 0 68 28t28 68t-28 68.5t-68 28.5t-68 -28.5t-28 -68.5t28 -68t68 -28zM86 0q-29 0 -18 31l473 1474q9 31 39 31h41q32 0 41 -31 l473 -1474q8 -31 -19 -31h-43q-15 0 -22 6.5t-13 24.5l-127 399h-620l-129 -399q-5 -18 -11.5 -24.5t-21.5 -6.5h-43zM322 522h559l-281 873z" />
<glyph unicode="&#xc6;" horiz-adv-x="1812" d="M88 0q-34 0 -18 31l776 1474q16 31 39 31h760q28 0 28 -29v-34q0 -29 -28 -29h-678v-586h583q29 0 29 -27v-36q0 -29 -29 -29h-583v-674h686q28 0 28 -29v-34q0 -29 -28 -29h-758q-31 0 -31 31v399h-481l-211 -399q-10 -19 -16.5 -25t-20.5 -6h-47zM432 522h434v834z" />
<glyph unicode="&#xc7;" horiz-adv-x="1216" d="M1116 217l29 -31q18 -18 0 -36q-164 -164 -412 -164q-29 0 -43 2l-33 -111q41 29 101 29q80 0 135 -56.5t55 -140.5q0 -100 -60.5 -159.5t-154.5 -59.5q-58 0 -108 33q-15 9 -7 24l15 39q8 15 26 6q33 -20 70 -20q57 0 96 37.5t39 97.5q0 56 -38.5 93.5t-92.5 37.5 q-65 0 -110 -59q-10 -16 -25 -10l-35 8q-13 6 -15.5 10.5t1.5 13.5l61 195q-234 45 -370 247.5t-136 524.5q0 366 172 574t457 208q248 0 412 -164q18 -18 0 -36l-29 -31q-15 -15 -35 2q-146 137 -350 137q-238 0 -382 -185t-144 -505t144 -505t382 -185q204 0 350 137 q20 17 35 2z" />
<glyph unicode="&#xc8;" horiz-adv-x="1126" d="M610 1657l-233 184q-19 14 -20.5 26t10.5 23l22 27q10 13 19 13.5t30 -15.5l219 -203q24 -19 7 -39l-13 -14q-20 -20 -41 -2zM209 0q-29 0 -29 29v1478q0 29 29 29h749q29 0 29 -29v-34q0 -29 -29 -29h-679v-586h585q29 0 29 -27v-36q0 -29 -29 -29h-585v-674h688 q28 0 28 -29v-34q0 -29 -28 -29h-758z" />
<glyph unicode="&#xc9;" horiz-adv-x="1126" d="M569 1655q-24 -19 -41 2l-14 14q-16 19 6 39l221 203q20 16 29 15.5t21 -13.5l22 -27q10 -11 9 -23t-19 -26zM209 0q-29 0 -29 29v1478q0 29 29 29h749q29 0 29 -29v-34q0 -29 -29 -29h-679v-586h585q29 0 29 -27v-36q0 -29 -29 -29h-585v-674h688q28 0 28 -29v-34 q0 -29 -28 -29h-758z" />
<glyph unicode="&#xca;" horiz-adv-x="1126" d="M584 1843l-166 -178q-15 -15 -26 -16.5t-23 10.5l-21 20q-14 13 -13 23t19 27l211 196q19 19 37 0l211 -196q17 -15 18.5 -25.5t-10.5 -22.5l-20 -20q-13 -14 -23.5 -13.5t-27.5 17.5zM209 0q-29 0 -29 29v1478q0 29 29 29h749q29 0 29 -29v-34q0 -29 -29 -29h-679v-586 h585q29 0 29 -27v-36q0 -29 -29 -29h-585v-674h688q28 0 28 -29v-34q0 -29 -28 -29h-758z" />
<glyph unicode="&#xcb;" horiz-adv-x="1126" d="M428 1653q-32 0 -55 22t-23 54t23 55.5t55 23.5t55 -23.5t23 -55.5t-23 -54t-55 -22zM743 1653q-32 0 -54.5 22t-22.5 54t22.5 55.5t54.5 23.5t55 -23.5t23 -55.5t-23 -54t-55 -22zM209 0q-29 0 -29 29v1478q0 29 29 29h749q29 0 29 -29v-34q0 -29 -29 -29h-679v-586h585 q29 0 29 -27v-36q0 -29 -29 -29h-585v-674h688q28 0 28 -29v-34q0 -29 -28 -29h-758z" />
<glyph unicode="&#xcc;" horiz-adv-x="458" d="M258 1657l-233 184q-33 24 -11 49l23 27q10 13 19 13.5t30 -15.5l219 -203q23 -18 6 -39l-12 -14q-20 -20 -41 -2zM209 0q-29 0 -29 29v1478q0 29 29 29h41q29 0 29 -29v-1478q0 -29 -29 -29h-41z" />
<glyph unicode="&#xcd;" horiz-adv-x="458" d="M217 1655q-24 -19 -41 2l-14 14q-16 19 6 39l221 203q20 16 28.5 15.5t20.5 -13.5l23 -27q10 -11 9 -23t-19 -26zM209 0q-29 0 -29 29v1478q0 29 29 29h41q29 0 29 -29v-1478q0 -29 -29 -29h-41z" />
<glyph unicode="&#xce;" horiz-adv-x="458" d="M231 1843l-165 -178q-28 -28 -50 -6l-20 20q-14 13 -13 23t19 27l211 196q19 19 37 0l211 -196q17 -15 18.5 -25.5t-10.5 -22.5l-20 -20q-13 -14 -24 -13.5t-28 17.5zM209 0q-29 0 -29 29v1478q0 29 29 29h41q29 0 29 -29v-1478q0 -29 -29 -29h-41z" />
<glyph unicode="&#xcf;" horiz-adv-x="458" d="M76 1653q-32 0 -55 22t-23 54t23 55.5t55 23.5t55 -23.5t23 -55.5t-23 -54t-55 -22zM391 1653q-32 0 -55 22t-23 54t23 55.5t55 23.5t55 -23.5t23 -55.5t-23 -54t-55 -22zM209 0q-29 0 -29 29v1478q0 29 29 29h41q29 0 29 -29v-1478q0 -29 -29 -29h-41z" />
<glyph unicode="&#xd0;" horiz-adv-x="1351" d="M623 1536q132 0 245.5 -47t201 -139t137.5 -241t50 -341t-50 -341t-137.5 -241t-201 -139t-245.5 -47h-414q-29 0 -29 29v858h-80q-28 0 -28 26v17q0 28 28 28h80v549q0 29 29 29h414zM616 92q117 0 214.5 40.5t171 121.5t114.5 212t41 302t-41 302t-114.5 212 t-171 121.5t-214.5 40.5h-337v-486h253q29 0 29 -28v-17q0 -26 -29 -26h-253v-795h337z" />
<glyph unicode="&#xd1;" horiz-adv-x="1394" d="M838 1651q-46 2 -93 26t-87 47.5t-70 24.5q-36 1 -63 -19.5t-54 -60.5q-11 -17 -29 -8l-34 22q-18 9 -7 29q66 119 179 119q43 -1 87 -25t85.5 -48t76.5 -25q63 -2 115 79q14 19 31 9l35 -21q17 -11 6 -31q-69 -118 -178 -118zM207 0q-27 0 -27 29v1478q0 29 29 29h29 q16 0 30 -20l852 -1305v1296q0 29 27 29h41q26 0 26 -29v-1478q0 -29 -28 -29h-29q-17 0 -31 20l-852 1319v-1310q0 -29 -26 -29h-41z" />
<glyph unicode="&#xd2;" horiz-adv-x="1462" d="M758 1657l-234 184q-19 14 -20.5 26t10.5 23l23 27q10 13 19 13.5t30 -15.5l219 -203q23 -18 6 -39l-12 -14q-20 -20 -41 -2zM731 1550q284 0 455.5 -208.5t171.5 -573.5t-171.5 -573.5t-455.5 -208.5t-455.5 208.5t-171.5 573.5t171.5 573.5t455.5 208.5zM731 78 q238 0 383.5 185t145.5 505t-145.5 505t-383.5 185q-237 0 -381.5 -185t-144.5 -505t144.5 -505t381.5 -185z" />
<glyph unicode="&#xd3;" horiz-adv-x="1462" d="M717 1655q-24 -19 -41 2l-14 14q-16 19 6 39l221 203q20 16 28.5 15.5t20.5 -13.5l23 -27q19 -25 -11 -49zM731 1550q284 0 455.5 -208.5t171.5 -573.5t-171.5 -573.5t-455.5 -208.5t-455.5 208.5t-171.5 573.5t171.5 573.5t455.5 208.5zM731 78q238 0 383.5 185 t145.5 505t-145.5 505t-383.5 185q-237 0 -381.5 -185t-144.5 -505t144.5 -505t381.5 -185z" />
<glyph unicode="&#xd4;" horiz-adv-x="1462" d="M731 1843l-166 -178q-27 -27 -49 -6l-20 20q-14 13 -13 23t19 27l211 196q19 19 37 0l211 -196q17 -15 18.5 -25.5t-10.5 -22.5l-21 -20q-13 -14 -23.5 -13.5t-27.5 17.5zM731 1550q284 0 455.5 -208.5t171.5 -573.5t-171.5 -573.5t-455.5 -208.5t-455.5 208.5 t-171.5 573.5t171.5 573.5t455.5 208.5zM731 78q238 0 383.5 185t145.5 505t-145.5 505t-383.5 185q-237 0 -381.5 -185t-144.5 -505t144.5 -505t381.5 -185z" />
<glyph unicode="&#xd5;" horiz-adv-x="1462" d="M872 1649q-46 2 -92.5 26t-85.5 47.5t-69 24.5q-36 1 -63 -19.5t-54 -60.5q-9 -17 -27 -8l-35 22q-18 9 -6 29q66 119 176 119q42 -1 86 -25t85.5 -48t76.5 -25q61 -2 113 79q14 19 31 9l34 -21q18 -12 7 -31q-69 -118 -177 -118zM731 1550q284 0 455.5 -208.5 t171.5 -573.5t-171.5 -573.5t-455.5 -208.5t-455.5 208.5t-171.5 573.5t171.5 573.5t455.5 208.5zM731 78q238 0 383.5 185t145.5 505t-145.5 505t-383.5 185q-237 0 -381.5 -185t-144.5 -505t144.5 -505t381.5 -185z" />
<glyph unicode="&#xd6;" horiz-adv-x="1462" d="M575 1653q-32 0 -54.5 22t-22.5 54t22.5 55.5t54.5 23.5t55 -23.5t23 -55.5t-23 -54t-55 -22zM891 1653q-32 0 -55 22t-23 54t23 55.5t55 23.5t55 -23.5t23 -55.5t-23 -54t-55 -22zM731 1550q284 0 455.5 -208.5t171.5 -573.5t-171.5 -573.5t-455.5 -208.5t-455.5 208.5 t-171.5 573.5t171.5 573.5t455.5 208.5zM731 78q238 0 383.5 185t145.5 505t-145.5 505t-383.5 185q-237 0 -381.5 -185t-144.5 -505t144.5 -505t381.5 -185z" />
<glyph unicode="&#xd7;" horiz-adv-x="698" d="M408 762l165 -166q19 -20 2 -37l-22 -22q-20 -20 -39 2l-164 166l-166 -166q-19 -22 -39 -2l-22 22q-18 18 4 37l164 166l-164 166q-23 20 -4 39l22 22q19 19 39 -2l166 -166l164 166q20 21 39 2l22 -22q19 -19 -2 -39z" />
<glyph unicode="&#xd8;" horiz-adv-x="1462" d="M1184 1346q174 -208 174 -578q0 -365 -171.5 -573.5t-455.5 -208.5q-244 0 -403 153l-70 -98q-19 -26 -28 -33.5t-25 -7.5h-39q-35 0 -6 39l112 160q-168 211 -168 569q0 365 171.5 573.5t455.5 208.5q233 0 397 -145l64 90q15 20 20.5 26t14 10.5t20.5 4.5h37 q33 0 6 -39zM205 768q0 -299 129 -483l737 1038q-138 135 -340 135q-237 0 -381.5 -185t-144.5 -505zM731 78q238 0 383.5 185t145.5 505q0 307 -138 494l-737 -1041q137 -143 346 -143z" />
<glyph unicode="&#xd9;" horiz-adv-x="1363" d="M711 1657l-234 184q-19 14 -20.5 26t10.5 23l22 27q10 13 19.5 13.5t30.5 -15.5l219 -203q23 -18 6 -39l-12 -14q-20 -20 -41 -2zM682 -14q-245 0 -383.5 145.5t-138.5 421.5v954q0 29 28 29h41q29 0 29 -29v-964q0 -231 113.5 -349t310.5 -118q196 0 310 118t114 349 v964q0 29 29 29h41q28 0 28 -29v-954q0 -275 -139 -421t-383 -146z" />
<glyph unicode="&#xda;" horiz-adv-x="1363" d="M670 1655q-24 -19 -41 2l-15 14q-16 19 7 39l221 203q20 16 28.5 15.5t20.5 -13.5l22 -27q10 -11 9 -23t-19 -26zM682 -14q-245 0 -383.5 145.5t-138.5 421.5v954q0 29 28 29h41q29 0 29 -29v-964q0 -231 113.5 -349t310.5 -118q196 0 310 118t114 349v964q0 29 29 29h41 q28 0 28 -29v-954q0 -275 -139 -421t-383 -146z" />
<glyph unicode="&#xdb;" horiz-adv-x="1363" d="M684 1843l-166 -178q-15 -15 -26 -16.5t-23 10.5l-20 20q-14 13 -13 23t19 27l211 196q18 18 36 0l211 -196q17 -15 19 -25.5t-10 -22.5l-21 -20q-13 -14 -23.5 -13.5t-27.5 17.5zM682 -14q-245 0 -383.5 145.5t-138.5 421.5v954q0 29 28 29h41q29 0 29 -29v-964 q0 -231 113.5 -349t310.5 -118q196 0 310 118t114 349v964q0 29 29 29h41q28 0 28 -29v-954q0 -275 -139 -421t-383 -146z" />
<glyph unicode="&#xdc;" horiz-adv-x="1363" d="M528 1653q-32 0 -54.5 22t-22.5 54t22.5 55.5t54.5 23.5t55 -23.5t23 -55.5t-23 -54t-55 -22zM844 1653q-32 0 -55 22t-23 54t23 55.5t55 23.5t55 -23.5t23 -55.5t-23 -54t-55 -22zM682 -14q-245 0 -383.5 145.5t-138.5 421.5v954q0 29 28 29h41q29 0 29 -29v-964 q0 -231 113.5 -349t310.5 -118q196 0 310 118t114 349v964q0 29 29 29h41q28 0 28 -29v-954q0 -275 -139 -421t-383 -146z" />
<glyph unicode="&#xdd;" horiz-adv-x="1056" d="M518 1655q-24 -19 -41 2l-14 14q-16 19 6 39l221 203q20 16 28.5 15.5t20.5 -13.5l23 -27q10 -11 9 -23t-19 -26zM915 1511q11 25 39 25h45q34 0 17 -31l-438 -800v-676q0 -29 -29 -29h-41q-29 0 -29 29v676l-438 800q-14 31 16 31h47q25 0 39 -25l385 -725z" />
<glyph unicode="&#xde;" horiz-adv-x="1155" d="M580 1231q119 0 212 -35.5t150.5 -98.5t87 -145t29.5 -180q0 -96 -29.5 -179t-87 -147.5t-150.5 -101.5t-212 -37h-301v-278q0 -29 -29 -29h-41q-29 0 -29 29v1478q0 29 29 29h41q29 0 29 -29v-276h301zM569 399q100 0 176.5 29.5t123 82t69.5 118.5t23 143 q0 165 -98 266t-294 101h-290v-740h290z" />
<glyph unicode="&#xdf;" horiz-adv-x="1067" d="M670 2q-30 -10 -39 14l-15 39q-6 23 23 35q91 39 153 103.5t62 140.5q0 48 -27 92t-66 80.5t-78 75t-66 91.5t-27 115q0 50 18.5 97t44.5 84.5t52 74.5t44.5 83t18.5 94q0 104 -73 167.5t-177 63.5q-113 0 -190.5 -81.5t-77.5 -225.5v-1116q0 -29 -27 -29h-41 q-26 0 -26 29v1149q0 172 103 269t259 97q146 0 245 -87.5t99 -233.5q0 -55 -18 -107t-44 -92.5t-52 -78t-44 -78.5t-18 -79q0 -40 19.5 -78t48.5 -66.5t63 -62.5t63 -66t48.5 -78.5t19.5 -98.5q0 -106 -77.5 -198.5t-200.5 -137.5z" />
<glyph unicode="&#xe0;" d="M500 1165l-234 185q-19 14 -20.5 26t10.5 23l23 26q10 13 19 13.5t30 -15.5l219 -202q23 -18 6 -39l-12 -15q-20 -20 -41 -2zM465 969q163 0 254.5 -99.5t91.5 -267.5v-573q0 -29 -27 -29h-41q-26 0 -26 29v77q-40 -42 -121.5 -81t-181.5 -39q-139 0 -230.5 83.5 t-91.5 217.5t92.5 217.5t245.5 83.5q95 0 173.5 -31t113.5 -68v113q0 128 -69.5 201.5t-190.5 73.5q-115 0 -242 -58q-27 -10 -33 12l-12 41q-10 20 12 31q153 66 283 66zM436 68q81 0 157.5 41t123.5 88v211q-38 38 -115.5 68t-157.5 30q-117 0 -187.5 -60t-70.5 -157 q0 -99 71 -160t179 -61z" />
<glyph unicode="&#xe1;" d="M459 1163q-24 -19 -41 2l-15 15q-16 19 7 39l221 202q20 16 28.5 15.5t20.5 -13.5l22 -26q10 -11 9 -23t-19 -26zM465 969q163 0 254.5 -99.5t91.5 -267.5v-573q0 -29 -27 -29h-41q-26 0 -26 29v77q-40 -42 -121.5 -81t-181.5 -39q-139 0 -230.5 83.5t-91.5 217.5 t92.5 217.5t245.5 83.5q95 0 173.5 -31t113.5 -68v113q0 128 -69.5 201.5t-190.5 73.5q-115 0 -242 -58q-27 -10 -33 12l-12 41q-10 20 12 31q153 66 283 66zM436 68q81 0 157.5 41t123.5 88v211q-38 38 -115.5 68t-157.5 30q-117 0 -187.5 -60t-70.5 -157q0 -99 71 -160 t179 -61z" />
<glyph unicode="&#xe2;" d="M473 1352l-166 -178q-28 -28 -49 -7l-20 21q-14 13 -13 22.5t19 26.5l211 197q19 18 37 0l210 -197q17 -15 19 -25t-10 -22l-21 -21q-13 -14 -23.5 -13t-27.5 18zM465 969q163 0 254.5 -99.5t91.5 -267.5v-573q0 -29 -27 -29h-41q-26 0 -26 29v77q-40 -42 -121.5 -81 t-181.5 -39q-139 0 -230.5 83.5t-91.5 217.5t92.5 217.5t245.5 83.5q95 0 173.5 -31t113.5 -68v113q0 128 -69.5 201.5t-190.5 73.5q-115 0 -242 -58q-27 -10 -33 12l-12 41q-10 20 12 31q153 66 283 66zM436 68q81 0 157.5 41t123.5 88v211q-38 38 -115.5 68t-157.5 30 q-117 0 -187.5 -60t-70.5 -157q0 -99 71 -160t179 -61z" />
<glyph unicode="&#xe3;" d="M614 1159q-46 2 -93 26t-86.5 47.5t-69.5 24.5q-36 1 -63 -19.5t-54 -59.5q-12 -18 -29 -9l-35 23q-18 9 -6 29q65 118 178 118q43 -1 87.5 -25t86 -48t76.5 -25q36 -1 63 20t52 60q13 18 31 8l34 -20q18 -12 7 -31q-70 -119 -179 -119zM465 969q163 0 254.5 -99.5 t91.5 -267.5v-573q0 -29 -27 -29h-41q-26 0 -26 29v77q-40 -42 -121.5 -81t-181.5 -39q-139 0 -230.5 83.5t-91.5 217.5t92.5 217.5t245.5 83.5q95 0 173.5 -31t113.5 -68v113q0 128 -69.5 201.5t-190.5 73.5q-115 0 -242 -58q-27 -10 -33 12l-12 41q-10 20 12 31 q153 66 283 66zM436 68q81 0 157.5 41t123.5 88v211q-38 38 -115.5 68t-157.5 30q-117 0 -187.5 -60t-70.5 -157q0 -99 71 -160t179 -61z" />
<glyph unicode="&#xe4;" d="M317 1161q-32 0 -54.5 22t-22.5 54q0 33 22.5 56.5t54.5 23.5t55 -24t23 -56t-23 -54t-55 -22zM633 1161q-32 0 -55 22t-23 54t23 56t55 24t55 -24t23 -56t-23 -54t-55 -22zM465 969q163 0 254.5 -99.5t91.5 -267.5v-573q0 -29 -27 -29h-41q-26 0 -26 29v77 q-40 -42 -121.5 -81t-181.5 -39q-139 0 -230.5 83.5t-91.5 217.5t92.5 217.5t245.5 83.5q95 0 173.5 -31t113.5 -68v113q0 128 -69.5 201.5t-190.5 73.5q-115 0 -242 -58q-27 -10 -33 12l-12 41q-10 20 12 31q153 66 283 66zM436 68q81 0 157.5 41t123.5 88v211 q-38 38 -115.5 68t-157.5 30q-117 0 -187.5 -60t-70.5 -157q0 -99 71 -160t179 -61z" />
<glyph unicode="&#xe5;" d="M471 1147q-69 0 -117.5 48.5t-48.5 117.5t48.5 117.5t117.5 48.5t118.5 -48.5t49.5 -117.5t-49.5 -117.5t-118.5 -48.5zM471 1217q40 0 68 28t28 68t-28 68t-68 28t-68 -28t-28 -68t28 -68t68 -28zM465 969q163 0 254.5 -99.5t91.5 -267.5v-573q0 -29 -27 -29h-41 q-26 0 -26 29v77q-40 -42 -121.5 -81t-181.5 -39q-139 0 -230.5 83.5t-91.5 217.5t92.5 217.5t245.5 83.5q95 0 173.5 -31t113.5 -68v113q0 128 -69.5 201.5t-190.5 73.5q-115 0 -242 -58q-27 -10 -33 12l-12 41q-10 20 12 31q153 66 283 66zM436 68q81 0 157.5 41t123.5 88 v211q-38 38 -115.5 68t-157.5 30q-117 0 -187.5 -60t-70.5 -157q0 -99 71 -160t179 -61z" />
<glyph unicode="&#xe6;" horiz-adv-x="1603" d="M414 -14q-140 0 -231 81t-91 216q0 134 92 219.5t240 85.5q97 0 176 -34.5t117 -72.5v113q0 132 -72.5 207.5t-193.5 75.5q-109 0 -236 -58q-27 -10 -33 12l-12 41q-10 20 12 31q153 66 275 66q121 0 205 -57t118 -162q51 106 140 162.5t206 56.5q186 0 289 -130.5 t103 -359.5q0 -25 -5.5 -32t-25.5 -7l-672 -2q0 -159 93 -260.5t239 -101.5q121 0 254 88q25 16 37 -6l20 -37q12 -19 -4 -31q-137 -104 -305 -104q-238 0 -352 180q-174 -180 -383 -180zM815 524h604q0 162 -81 257.5t-212 95.5q-135 0 -223 -98.5t-88 -254.5zM434 68 q169 0 328 165q-32 73 -41 160q-46 45 -124 79t-157 34q-113 0 -183.5 -62t-70.5 -159q0 -99 70.5 -158t177.5 -59z" />
<glyph unicode="&#xe7;" horiz-adv-x="880" d="M793 154l18 -33q10 -20 -4 -31q-128 -104 -295 -104l-33 -109q41 29 101 29q80 0 135 -56.5t55 -140.5q0 -100 -60.5 -159.5t-154.5 -59.5q-59 0 -109 33q-14 8 -6 24l15 39q9 15 24 6q36 -20 72 -20q57 0 96 37.5t39 97.5q0 56 -38.5 93.5t-92.5 37.5q-66 0 -111 -59 q-5 -9 -9 -11t-15 1l-35 8q-13 6 -15.5 10.5t1.5 13.5l59 191q-158 28 -250 156t-92 329q0 228 116.5 360t307.5 132q166 0 295 -105q14 -11 4 -30l-18 -33q-12 -22 -37 -6q-121 84 -244 84q-145 0 -237.5 -109t-92.5 -293t92.5 -292.5t237.5 -108.5q123 0 244 84 q25 16 37 -6z" />
<glyph unicode="&#xe8;" horiz-adv-x="972" d="M524 1165l-233 185q-19 14 -20.5 26t10.5 23l22 26q10 13 19 13.5t30 -15.5l219 -202q24 -19 7 -39l-13 -15q-20 -20 -41 -2zM518 -14q-196 0 -313 130.5t-117 360.5t112.5 361t297.5 131q186 0 287.5 -130.5t101.5 -359.5q0 -25 -5 -32t-24 -7l-672 -2q0 -159 92 -260.5 t238 -101.5q123 0 256 88q25 17 35 -6q3 -4 10.5 -18.5t9.5 -18.5q13 -18 -4 -31q-133 -104 -305 -104zM186 524h602q0 163 -80 258t-210 95q-135 0 -223.5 -99t-88.5 -254z" />
<glyph unicode="&#xe9;" horiz-adv-x="972" d="M483 1163q-24 -19 -41 2l-14 15q-16 19 6 39l221 202q20 16 29 15.5t21 -13.5l22 -26q10 -11 9 -23t-19 -26zM518 -14q-196 0 -313 130.5t-117 360.5t112.5 361t297.5 131q186 0 287.5 -130.5t101.5 -359.5q0 -25 -5 -32t-24 -7l-672 -2q0 -159 92 -260.5t238 -101.5 q123 0 256 88q25 17 35 -6q3 -4 10.5 -18.5t9.5 -18.5q13 -18 -4 -31q-133 -104 -305 -104zM186 524h602q0 163 -80 258t-210 95q-135 0 -223.5 -99t-88.5 -254z" />
<glyph unicode="&#xea;" horiz-adv-x="972" d="M498 1352l-166 -178q-28 -28 -49 -7l-21 21q-14 13 -13 22.5t19 26.5l211 197q19 18 37 0l211 -197q17 -15 18.5 -25t-10.5 -22l-20 -21q-13 -14 -23.5 -13t-27.5 18zM518 -14q-196 0 -313 130.5t-117 360.5t112.5 361t297.5 131q186 0 287.5 -130.5t101.5 -359.5 q0 -25 -5 -32t-24 -7l-672 -2q0 -159 92 -260.5t238 -101.5q123 0 256 88q25 17 35 -6q3 -4 10.5 -18.5t9.5 -18.5q13 -18 -4 -31q-133 -104 -305 -104zM186 524h602q0 163 -80 258t-210 95q-135 0 -223.5 -99t-88.5 -254z" />
<glyph unicode="&#xeb;" horiz-adv-x="972" d="M342 1161q-32 0 -55 22t-23 54t23 56t55 24t55 -24t23 -56t-23 -54t-55 -22zM657 1161q-32 0 -54.5 22t-22.5 54q0 33 22.5 56.5t54.5 23.5t55 -24t23 -56t-23 -54t-55 -22zM518 -14q-196 0 -313 130.5t-117 360.5t112.5 361t297.5 131q186 0 287.5 -130.5t101.5 -359.5 q0 -25 -5 -32t-24 -7l-672 -2q0 -159 92 -260.5t238 -101.5q123 0 256 88q25 17 35 -6q3 -4 10.5 -18.5t9.5 -18.5q13 -18 -4 -31q-133 -104 -305 -104zM186 524h602q0 163 -80 258t-210 95q-135 0 -223.5 -99t-88.5 -254z" />
<glyph unicode="&#xec;" horiz-adv-x="452" d="M258 1165l-233 185q-33 24 -11 49l23 26q10 13 19 13.5t30 -15.5l219 -202q23 -18 6 -39l-12 -15q-20 -20 -41 -2zM207 0q-17 0 -23 6t-6 25v893q0 17 6 22.5t23 5.5h39q16 0 22 -5.5t6 -22.5v-893q0 -18 -6 -24.5t-22 -6.5h-39z" />
<glyph unicode="&#xed;" horiz-adv-x="452" d="M217 1163q-24 -19 -41 2l-14 15q-16 19 6 39l221 202q20 16 28.5 15.5t20.5 -13.5l23 -26q10 -11 9 -23t-19 -26zM207 0q-17 0 -23 6t-6 25v893q0 17 6 22.5t23 5.5h39q16 0 22 -5.5t6 -22.5v-893q0 -18 -6 -24.5t-22 -6.5h-39z" />
<glyph unicode="&#xee;" horiz-adv-x="452" d="M231 1352l-165 -178q-28 -28 -50 -7l-20 21q-14 13 -13 22.5t19 26.5l211 197q19 18 37 0l211 -197q17 -15 18.5 -25t-10.5 -22l-20 -21q-13 -14 -24 -13t-28 18zM207 0q-17 0 -23 6t-6 25v893q0 17 6 22.5t23 5.5h39q16 0 22 -5.5t6 -22.5v-893q0 -18 -6 -24.5t-22 -6.5 h-39z" />
<glyph unicode="&#xef;" horiz-adv-x="452" d="M76 1161q-32 0 -55 22t-23 54t23 56t55 24t55 -24t23 -56t-23 -54t-55 -22zM391 1161q-32 0 -55 22t-23 54t23 56t55 24t55 -24t23 -56t-23 -54t-55 -22zM207 0q-17 0 -23 6t-6 25v893q0 17 6 22.5t23 5.5h39q16 0 22 -5.5t6 -22.5v-893q0 -18 -6 -24.5t-22 -6.5h-39z " />
<glyph unicode="&#xf0;" horiz-adv-x="1058" d="M766 1348q92 -118 140 -295.5t48 -395.5q0 -338 -111 -504.5t-319 -166.5q-200 0 -318 133t-118 356q0 220 115 351.5t299 131.5q128 0 223 -62.5t133 -141.5q0 144 -41 285.5t-119 240.5l-147 -145q-17 -17 -35 0l-20 20q-16 19 -2 33l151 151q-117 105 -260 105 q-27 0 -27 24v41q0 12 8.5 19.5t20.5 7.5q192 0 326 -131l88 88q16 13 33 -4l22 -21q16 -16 0 -32zM520 78q328 3 336 559q-49 103 -139.5 166t-200.5 63q-146 0 -240 -108.5t-94 -282.5q0 -182 93 -290.5t245 -106.5z" />
<glyph unicode="&#xf1;" horiz-adv-x="1034" d="M680 1157q-45 2 -91.5 26t-86.5 47.5t-70 24.5q-35 1 -61.5 -19.5t-53.5 -59.5q-11 -17 -28 -9l-33 23q-18 9 -6 29q63 116 176 116q42 -1 85.5 -24.5t84.5 -47t76 -24.5t61 19t51 59q13 18 31 8l35 -20q17 -11 6 -31q-70 -117 -176 -117zM188 0q-26 0 -26 29v895 q0 28 26 28h37q27 0 27 -28v-80q131 125 301 125q144 0 241 -89.5t97 -246.5v-604q0 -29 -29 -29h-39q-28 0 -28 29v579q0 132 -73 202.5t-187 70.5q-143 0 -279 -123v-729q0 -29 -27 -29h-41z" />
<glyph unicode="&#xf2;" horiz-adv-x="1019" d="M537 1165l-234 185q-19 14 -20.5 26t10.5 23l22 26q10 13 19.5 13.5t30.5 -15.5l219 -202q23 -18 6 -39l-12 -15q-20 -20 -41 -2zM510 -14q-195 0 -308.5 130.5t-113.5 360.5q0 231 113.5 361.5t308.5 130.5t308.5 -130.5t113.5 -361.5t-113.5 -361t-308.5 -130zM510 76 q151 0 239.5 107t88.5 294t-88.5 293.5t-239.5 106.5t-239.5 -106.5t-88.5 -293.5t88.5 -294t239.5 -107z" />
<glyph unicode="&#xf3;" horiz-adv-x="1019" d="M496 1163q-24 -19 -41 2l-15 15q-16 19 6 39l222 202q20 16 28.5 15.5t20.5 -13.5l22 -26q10 -11 9 -23t-19 -26zM510 -14q-195 0 -308.5 130.5t-113.5 360.5q0 231 113.5 361.5t308.5 130.5t308.5 -130.5t113.5 -361.5t-113.5 -361t-308.5 -130zM510 76q151 0 239.5 107 t88.5 294t-88.5 293.5t-239.5 106.5t-239.5 -106.5t-88.5 -293.5t88.5 -294t239.5 -107z" />
<glyph unicode="&#xf4;" horiz-adv-x="1019" d="M510 1352l-166 -178q-28 -28 -49 -7l-21 21q-14 13 -12.5 22.5t19.5 26.5l211 197q18 18 36 0l211 -197q17 -15 19 -25t-10 -22l-21 -21q-13 -14 -23.5 -13t-27.5 18zM510 -14q-195 0 -308.5 130.5t-113.5 360.5q0 231 113.5 361.5t308.5 130.5t308.5 -130.5 t113.5 -361.5t-113.5 -361t-308.5 -130zM510 76q151 0 239.5 107t88.5 294t-88.5 293.5t-239.5 106.5t-239.5 -106.5t-88.5 -293.5t88.5 -294t239.5 -107z" />
<glyph unicode="&#xf5;" horiz-adv-x="1019" d="M649 1157q-45 2 -91.5 26t-86.5 47.5t-70 24.5q-35 1 -61 -19t-53 -60q-12 -18 -29 -9l-33 23q-18 9 -6 29q63 116 176 116q42 -1 85.5 -24.5t84.5 -47t76 -24.5t61.5 19.5t51.5 58.5q13 18 30 8l35 -20q17 -11 6 -31q-70 -117 -176 -117zM510 -14q-195 0 -308.5 130.5 t-113.5 360.5q0 231 113.5 361.5t308.5 130.5t308.5 -130.5t113.5 -361.5t-113.5 -361t-308.5 -130zM510 76q151 0 239.5 107t88.5 294t-88.5 293.5t-239.5 106.5t-239.5 -106.5t-88.5 -293.5t88.5 -294t239.5 -107z" />
<glyph unicode="&#xf6;" horiz-adv-x="1019" d="M354 1161q-32 0 -55 22t-23 54t23 56t55 24t55 -24t23 -56t-23 -54t-55 -22zM670 1161q-32 0 -55 22t-23 54t23 56t55 24t55 -24t23 -56t-23 -54t-55 -22zM510 -14q-195 0 -308.5 130.5t-113.5 360.5q0 231 113.5 361.5t308.5 130.5t308.5 -130.5t113.5 -361.5 t-113.5 -361t-308.5 -130zM510 76q151 0 239.5 107t88.5 294t-88.5 293.5t-239.5 106.5t-239.5 -106.5t-88.5 -293.5t88.5 -294t239.5 -107z" />
<glyph unicode="&#xf7;" horiz-adv-x="837" d="M340 1081q0 34 23 57t55 23q34 0 57 -23t23 -57q0 -32 -23 -54.5t-57 -22.5q-32 0 -55 22.5t-23 54.5zM143 725q-28 0 -28 27v28q0 27 28 27h551q29 0 29 -27v-28q0 -27 -29 -27h-551zM340 449q0 33 23 56t55 23q34 0 57 -22.5t23 -56.5q0 -32 -23 -55t-57 -23 q-32 0 -55 23t-23 55z" />
<glyph unicode="&#xf8;" horiz-adv-x="1007" d="M817 834q111 -133 111 -359q0 -229 -114.5 -359t-309.5 -130q-149 0 -252 77l-33 -47q-4 -5 -9 -12t-7.5 -10t-6 -7.5t-5 -6t-4.5 -4t-5 -3t-5.5 -1.5t-6.5 -1h-8h-47q-13 0 -16.5 8t7.5 25l87 117q-111 130 -111 354q0 230 113.5 362t308.5 132q148 0 252 -78l30 41 q4 5 9 12t7 10l5 7.5t5 6t4 4t4 3t4 1.5t5 1h5.5h7.5h51q11 0 14.5 -8.5t-6.5 -20.5zM176 475q0 -169 76 -274l446 612q-80 64 -194 64q-151 0 -239.5 -106.5t-88.5 -295.5zM504 78q151 0 239 105.5t88 291.5q0 171 -73 277l-449 -613q83 -61 195 -61z" />
<glyph unicode="&#xf9;" horiz-adv-x="1013" d="M530 1165l-233 185q-19 14 -20.5 26t10.5 23l22 26q10 13 19 13.5t30 -15.5l220 -202q23 -18 6 -39l-13 -15q-20 -20 -41 -2zM831 952q29 0 29 -28v-895q0 -29 -29 -29h-34q-29 0 -29 29v82q-45 -45 -119 -85t-168 -40q-142 0 -235.5 90t-93.5 246v602q0 28 26 28h41 q27 0 27 -28v-578q0 -129 71.5 -200.5t184.5 -71.5q126 0 262 123v727q0 28 29 28h38z" />
<glyph unicode="&#xfa;" horiz-adv-x="1013" d="M489 1163q-23 -18 -40 2l-15 15q-16 19 6 39l222 202q20 16 28.5 15.5t20.5 -13.5l22 -26q10 -11 9 -23t-19 -26zM831 952q29 0 29 -28v-895q0 -29 -29 -29h-34q-29 0 -29 29v82q-45 -45 -119 -85t-168 -40q-142 0 -235.5 90t-93.5 246v602q0 28 26 28h41q27 0 27 -28 v-578q0 -129 71.5 -200.5t184.5 -71.5q126 0 262 123v727q0 28 29 28h38z" />
<glyph unicode="&#xfb;" horiz-adv-x="1013" d="M504 1352l-166 -178q-28 -28 -49 -7l-21 21q-14 13 -13 22.5t19 26.5l211 197q19 18 37 0l211 -197q17 -15 18.5 -25t-10.5 -22l-20 -21q-13 -14 -23.5 -13t-27.5 18zM831 952q29 0 29 -28v-895q0 -29 -29 -29h-34q-29 0 -29 29v82q-45 -45 -119 -85t-168 -40 q-142 0 -235.5 90t-93.5 246v602q0 28 26 28h41q27 0 27 -28v-578q0 -129 71.5 -200.5t184.5 -71.5q126 0 262 123v727q0 28 29 28h38z" />
<glyph unicode="&#xfc;" horiz-adv-x="1013" d="M348 1161q-32 0 -55 22t-23 54t23 56t55 24t55 -24t23 -56t-23 -54t-55 -22zM664 1161q-32 0 -55 22t-23 54t23 56t55 24t54.5 -23.5t22.5 -56.5q0 -32 -22.5 -54t-54.5 -22zM831 952q29 0 29 -28v-895q0 -29 -29 -29h-34q-29 0 -29 29v82q-45 -45 -119 -85t-168 -40 q-142 0 -235.5 90t-93.5 246v602q0 28 26 28h41q27 0 27 -28v-578q0 -129 71.5 -200.5t184.5 -71.5q126 0 262 123v727q0 28 29 28h38z" />
<glyph unicode="&#xfd;" d="M469 1163q-24 -19 -41 2l-14 15q-16 19 6 39l221 202q20 16 28.5 15.5t20.5 -13.5l23 -26q19 -25 -11 -49zM184 -512q-49 0 -90 16q-37 10 -28 35l12 35q8 23 37 14q37 -12 67 -12q103 0 152 139l102 283l-336 924q-7 19 -2 24.5t23 5.5h41q11 0 15 -0.5t9 -6t9 -17.5 l290 -797l289 797q5 12 10 17.5t9 6t14 0.5h39q8 0 12.5 -1t9 -4t4.5 -9t-2 -16l-454 -1250q-33 -88 -94.5 -136t-137.5 -48z" />
<glyph unicode="&#xfe;" horiz-adv-x="1009" d="M190 -512q-17 0 -22.5 6t-5.5 25v1986q0 19 5.5 25t22.5 6h39q15 0 21 -6.5t6 -24.5v-657q63 57 104 80q76 41 170 41q182 0 288 -126.5t106 -355.5q0 -232 -107 -366.5t-293 -134.5q-49 0 -93 11.5t-80 34.5t-52.5 36t-42.5 36v-585q0 -19 -5 -25t-22 -6h-39zM516 78 q146 0 228.5 107t82.5 294q0 188 -82.5 293t-230.5 105q-143 0 -258 -125v-549q113 -125 260 -125z" />
<glyph unicode="&#xff;" d="M328 1161q-32 0 -55 22t-23 54t23 56t55 24t55 -24t23 -56t-23 -54t-55 -22zM643 1161q-32 0 -55 22t-23 54t23 56t55 24t55 -24t23 -56t-23 -54t-55 -22zM184 -512q-49 0 -90 16q-37 10 -28 35l12 35q8 23 37 14q37 -12 67 -12q103 0 152 139l102 283l-336 924 q-7 19 -2 24.5t23 5.5h41q11 0 15 -0.5t9 -6t9 -17.5l290 -797l289 797q5 12 10 17.5t9 6t14 0.5h39q8 0 12.5 -1t9 -4t4.5 -9t-2 -16l-454 -1250q-33 -88 -94.5 -136t-137.5 -48z" />
<glyph unicode="&#x152;" horiz-adv-x="2205" d="M2048 92q29 0 29 -29v-34q0 -29 -29 -29h-758q-28 0 -28 29v282q-79 -158 -216 -241.5t-315 -83.5q-284 0 -455.5 208.5t-171.5 573.5t171.5 573.5t455.5 208.5q178 0 315 -83.5t216 -241.5v282q0 29 28 29h750q28 0 28 -29v-34q0 -29 -28 -29h-680v-586h586q28 0 28 -27 v-36q0 -29 -28 -29h-586v-674h688zM731 78q238 0 383.5 185t145.5 505t-145.5 505t-383.5 185q-237 0 -381.5 -185t-144.5 -505t144.5 -505t381.5 -185z" />
<glyph unicode="&#x153;" horiz-adv-x="1726" d="M88 477q0 231 113.5 361.5t308.5 130.5q135 0 233 -66.5t144 -189.5q46 122 140.5 189t221.5 67q186 0 288.5 -130.5t102.5 -359.5q0 -25 -5 -32t-25 -7l-672 -2q0 -159 93 -260.5t239 -101.5q121 0 254 88q25 16 37 -6l20 -37q11 -19 -4 -31q-137 -104 -305 -104 q-136 0 -237 67t-148 191q-46 -124 -144 -191t-233 -67q-195 0 -308.5 130.5t-113.5 360.5zM182 477q0 -187 88.5 -294t239.5 -107t239.5 107t88.5 294t-88.5 293.5t-239.5 106.5t-239.5 -106.5t-88.5 -293.5zM938 524h602q0 162 -80 257.5t-211 95.5q-135 0 -223 -98.5 t-88 -254.5z" />
<glyph unicode="&#x178;" horiz-adv-x="1056" d="M377 1653q-32 0 -55 22t-23 54t23 55.5t55 23.5t55 -23.5t23 -55.5t-23 -54t-55 -22zM692 1653q-32 0 -55 22t-23 54t23 55.5t55 23.5t55 -23.5t23 -55.5t-23 -54t-55 -22zM915 1511q11 25 39 25h45q34 0 17 -31l-438 -800v-676q0 -29 -29 -29h-41q-29 0 -29 29v676 l-438 800q-14 31 16 31h47q25 0 39 -25l385 -725z" />
<glyph unicode="&#x2c6;" horiz-adv-x="630" d="M315 1743l-165 -178q-28 -28 -50 -6l-20 20q-14 13 -13 22.5t19 26.5l211 197q19 19 37 0l211 -197q17 -15 18.5 -25t-10.5 -22l-21 -20q-13 -14 -23.5 -13.5t-27.5 17.5z" />
<glyph unicode="&#x2dc;" horiz-adv-x="681" d="M473 1544q-46 2 -93 26t-87 47.5t-70 24.5q-36 1 -63 -19.5t-54 -59.5q-12 -17 -28 -9l-35 23q-18 9 -6 29q65 118 178 118q43 -1 87.5 -25t86 -48t76.5 -25q36 -1 63 20t52 60q13 18 30 8l35 -20q17 -11 6 -31q-70 -119 -178 -119z" />
<glyph unicode="&#x2000;" horiz-adv-x="985" />
<glyph unicode="&#x2001;" horiz-adv-x="1970" />
<glyph unicode="&#x2002;" horiz-adv-x="985" />
<glyph unicode="&#x2003;" horiz-adv-x="1970" />
<glyph unicode="&#x2004;" horiz-adv-x="656" />
<glyph unicode="&#x2005;" horiz-adv-x="492" />
<glyph unicode="&#x2006;" horiz-adv-x="328" />
<glyph unicode="&#x2007;" horiz-adv-x="328" />
<glyph unicode="&#x2008;" horiz-adv-x="246" />
<glyph unicode="&#x2009;" horiz-adv-x="394" />
<glyph unicode="&#x200a;" horiz-adv-x="109" />
<glyph unicode="&#x2010;" horiz-adv-x="729" d="M139 520q-24 0 -24 27v37q0 26 24 26h453q22 0 22 -26v-37q0 -27 -22 -27h-453z" />
<glyph unicode="&#x2011;" horiz-adv-x="729" d="M139 520q-24 0 -24 27v37q0 26 24 26h453q22 0 22 -26v-37q0 -27 -22 -27h-453z" />
<glyph unicode="&#x2012;" horiz-adv-x="729" d="M139 520q-24 0 -24 27v37q0 26 24 26h453q22 0 22 -26v-37q0 -27 -22 -27h-453z" />
<glyph unicode="&#x2013;" horiz-adv-x="1148" d="M143 520q-28 0 -28 27v37q0 26 28 26h863q28 0 28 -26v-37q0 -27 -28 -27h-863z" />
<glyph unicode="&#x2014;" horiz-adv-x="1402" d="M143 520q-28 0 -28 27v37q0 26 28 26h1117q28 0 28 -26v-37q0 -27 -28 -27h-1117z" />
<glyph unicode="&#x2018;" horiz-adv-x="389" d="M276 1255q0 -35 -22.5 -56t-56.5 -21q-38 0 -62 27.5t-24 76.5q0 55 28 121.5t74 124.5l4 4t4 4.5t3.5 3.5t4 2.5t3.5 1t4 0t4 -1.5l18 -12q9 -7 -2 -27q-61 -93 -61 -137q0 -27 24 -35q57 -22 57 -76z" />
<glyph unicode="&#x2019;" horiz-adv-x="387" d="M111 1473q0 35 22.5 56t56.5 21q38 0 62 -27.5t24 -76.5q0 -55 -28 -121.5t-74 -124.5l-4 -4t-4 -4.5t-3.5 -3.5t-4 -2.5t-3.5 -1t-4 0t-4 1.5l-18 12q-9 7 2 27q62 94 62 137q0 27 -25 35q-57 22 -57 76z" />
<glyph unicode="&#x201a;" horiz-adv-x="387" d="M111 72q0 35 22.5 56.5t56.5 21.5q38 0 62 -27.5t24 -77.5q0 -55 -28 -121.5t-74 -124.5l-4 -4t-4 -4.5t-3.5 -3.5t-4 -2.5t-3.5 -1t-4 0t-4 1.5l-18 12q-9 7 2 27q62 94 62 137q0 27 -25 35q-57 22 -57 76z" />
<glyph unicode="&#x201c;" horiz-adv-x="626" d="M272 1262q0 -35 -22.5 -56.5t-56.5 -21.5q-38 0 -62.5 27.5t-24.5 76.5q0 55 28.5 121.5t74.5 124.5l4 4t4 4.5t3.5 3.5t4 2.5t3.5 1t4 0t4 -1.5l18 -12q9 -7 -2 -27q-62 -94 -62 -137q0 -27 25 -35q57 -22 57 -75zM516 1262q0 -35 -23 -56.5t-57 -21.5q-38 0 -62 27.5 t-24 76.5q0 55 28.5 121.5t74.5 124.5q2 2 5.5 6t5 5.5t4.5 3t5.5 1.5t5.5 -2l19 -12q9 -7 -2 -27q-62 -94 -62 -137q0 -27 25 -35q57 -22 57 -75z" />
<glyph unicode="&#x201d;" horiz-adv-x="630" d="M111 1473q0 35 22.5 56t56.5 21q38 0 62 -27.5t24 -76.5q0 -55 -28 -121.5t-74 -124.5l-4 -4t-4 -4.5t-3.5 -3.5t-4 -2.5t-3.5 -1t-4 0t-4 1.5l-18 12q-9 7 2 27q62 94 62 137q0 27 -25 35q-57 22 -57 76zM352 1473q0 35 23 56t57 21q38 0 62 -27.5t24 -76.5 q0 -55 -28 -121.5t-74 -124.5l-4 -4t-4 -4.5t-3.5 -3.5t-4 -2.5t-3.5 -1t-4 0t-4 1.5l-18 12q-9 7 2 27q61 93 61 137q0 27 -24 35q-58 22 -58 76z" />
<glyph unicode="&#x201e;" horiz-adv-x="630" d="M111 59q0 35 22.5 56.5t56.5 21.5q38 0 62 -27.5t24 -76.5q0 -55 -28 -121.5t-74 -124.5l-4 -4t-4 -4.5t-3.5 -3.5t-4 -2.5t-3.5 -1t-4 0t-4 1.5l-18 12q-9 7 2 27q62 94 62 137q0 27 -25 35q-57 22 -57 75zM352 59q0 35 23 56.5t57 21.5q38 0 62 -27.5t24 -76.5 q0 -55 -28 -121.5t-74 -124.5l-4 -4t-4 -4.5t-3.5 -3.5t-4 -2.5t-3.5 -1t-4 0t-4 1.5l-18 12q-9 7 2 27q61 93 61 137q0 27 -24 35q-58 22 -58 75z" />
<glyph unicode="&#x2022;" horiz-adv-x="516" d="M94 752q0 67 48 115t116 48t116 -48t48 -115q0 -68 -48 -116t-116 -48t-116 48t-48 116z" />
<glyph unicode="&#x2026;" horiz-adv-x="1130" d="M111 70q0 34 22.5 57t54.5 23q34 0 57 -23t23 -57q0 -32 -23 -55t-57 -23q-32 0 -54.5 23t-22.5 55zM485 70q0 34 23 57t57 23q32 0 55 -23t23 -57q0 -32 -23 -55t-55 -23q-34 0 -57 23t-23 55zM864 70q0 34 23 57t55 23q33 0 56.5 -23.5t23.5 -56.5q0 -32 -24 -55 t-56 -23t-55 23t-23 55z" />
<glyph unicode="&#x202f;" horiz-adv-x="394" />
<glyph unicode="&#x2039;" horiz-adv-x="612" d="M133 489q-23 23 0 46l346 335q12 11 23.5 6.5t11.5 -18.5v-63q0 -19 -20 -41l-252 -242l252 -242q20 -22 20 -41v-63q0 -14 -11.5 -18.5t-23.5 6.5z" />
<glyph unicode="&#x203a;" horiz-adv-x="612" d="M481 489l-346 -335q-12 -11 -23.5 -6.5t-11.5 18.5v63q0 18 21 41l252 242l-252 242q-21 23 -21 41v63q0 14 11.5 18.5t23.5 -6.5l346 -335q23 -23 0 -46z" />
<glyph unicode="&#x205f;" horiz-adv-x="492" />
<glyph unicode="&#x20ac;" horiz-adv-x="1302" d="M1204 217l29 -31q18 -18 0 -36q-164 -164 -412 -164q-250 0 -415 161.5t-203 452.5h-162q-29 0 -29 27v28q0 27 29 27h154q-2 29 -2 86q0 36 4 102h-156q-29 0 -29 27v29q0 26 29 26h164q42 284 206 441t410 157q248 0 412 -164q18 -18 0 -36l-29 -31q-15 -15 -35 2 q-146 137 -350 137q-200 0 -336 -134t-176 -372h508q29 0 29 -26v-29q0 -27 -29 -27h-518q-4 -66 -4 -102q0 -57 2 -86h520q29 0 29 -27v-28q0 -27 -29 -27h-510q35 -246 172.5 -384t341.5 -138t350 137q20 17 35 2z" />
<glyph unicode="&#x2122;" horiz-adv-x="1224" d="M115 1524q0 12 14 12h320q16 0 16 -12v-39q0 -12 -16 -12h-125v-500q0 -19 -17 -19h-37q-14 0 -14 19v500h-127q-14 0 -14 12v39zM819 954q-13 0 -18 13l-158 409l-33 -401q-2 -21 -18 -21h-33q-9 0 -12.5 7.5t-1.5 13.5l45 545q0 16 14 16h27q11 0 14 -10l182 -477 l181 477q3 10 16 10h27q5 0 8.5 -4t4.5 -8l1 -4l45 -545q2 -21 -16 -21h-31q-8 0 -12.5 5t-5.5 11l-1 5l-34 405l-156 -413q-5 -13 -18 -13h-17z" />
<glyph unicode="&#x25fc;" horiz-adv-x="952" d="M0 952h952v-952h-952v952z" />
<glyph unicode="&#xfb01;" horiz-adv-x="1017" d="M231 0q-26 0 -26 29v841h-127q-29 0 -29 27v29q0 26 29 26h127v244q0 158 95 256t251 98q112 0 185 -43t112 -98q14 -18 15.5 -27t-11.5 -24l-21 -21q-18 -18 -38 4q-19 22 -33.5 36.5t-44.5 36.5t-69.5 34t-86.5 12q-116 0 -187 -75.5t-71 -192.5v-240h545q28 0 28 -28 v-895q0 -29 -28 -29h-39q-29 0 -29 29v841h-477v-841q0 -29 -29 -29h-41z" />
<glyph unicode="&#xfb02;" horiz-adv-x="1206" d="M231 0q-26 0 -26 29v841h-127q-29 0 -29 27v29q0 26 29 26h127v244q0 158 95 256t251 98q154 0 252 -94l35 70q10 13 23 7.5t13 -20.5v-1206q0 -101 60 -159t164 -58h6q31 0 31 -27v-36q0 -27 -31 -27h-14q-147 0 -229.5 81t-82.5 224v565h-477v-841q0 -29 -29 -29h-41z M301 952h477v406q-94 102 -219 102q-111 0 -184.5 -70t-73.5 -186v-252z" />
<glyph unicode="&#xfb03;" horiz-adv-x="1585" d="M49 897v29q0 26 29 26h121v185q0 152 90.5 246t232.5 94q52 0 99 -14t78 -34.5t55 -41t34 -34.5l11 -14q3 9 8.5 23t30.5 50.5t57.5 64t92.5 50.5t132 23q110 0 182 -43t113 -98q14 -18 15.5 -27.5t-9.5 -23.5l-22 -21q-19 -19 -39 4q-18 21 -33.5 36t-45 37t-69 34 t-84.5 12q-110 0 -185 -70t-75 -186v-252h545q29 0 29 -28v-895q0 -29 -29 -29h-39q-28 0 -28 29v841h-478v-841q0 -29 -28 -29h-39q-29 0 -29 29v841h-479v-841q0 -29 -27 -29h-41q-26 0 -26 29v841h-121q-29 0 -29 27zM293 952h479v275q-3 6 -9.5 17t-29 38.5t-48 48.5 t-68.5 38t-89 17q-103 0 -169 -69t-66 -182v-183z" />
<glyph unicode="&#xfb04;" horiz-adv-x="1773" d="M49 897v29q0 26 29 26h121v185q0 152 90.5 246t232.5 94q52 0 99 -14t78 -34.5t55 -41t34 -34.5l11 -14q3 9 8.5 23t30.5 50.5t57.5 64t92.5 50.5t132 23q150 0 250 -92l35 68q11 13 24 7.5t13 -20.5v-1206q0 -101 59.5 -159t163.5 -58h6q31 0 31 -27v-36q0 -27 -31 -27 h-14q-146 0 -228.5 81t-82.5 224v565h-478v-841q0 -29 -28 -29h-39q-29 0 -29 29v841h-479v-841q0 -29 -27 -29h-41q-26 0 -26 29v841h-121q-29 0 -29 27zM868 952h478v404q-97 104 -218 104q-111 -2 -185.5 -71.5t-74.5 -184.5v-252zM293 952h479v275q-3 6 -9.5 17 t-29 38.5t-48 48.5t-68.5 38t-89 17q-103 0 -169 -69t-66 -182v-183z" />
</font>
</defs>
</svg>
