<?xml version="1.0" encoding="UTF-8"?>
<svg width="100px" height="14px" viewBox="0 0 100 14" version="1.1" xmlns="http://www.w3.org/2000/svg" xmlns:xlink="http://www.w3.org/1999/xlink">
    <!-- Generator: Sketch 46 (44423) - http://www.bohemiancoding.com/sketch -->
    <title>assets/experian</title>
    <desc>Created with Sketch.</desc>
    <defs></defs>
    <g id="BizRight" stroke="none" stroke-width="1" fill="none" fill-rule="evenodd">
        <g id="Powered-by-Experian">
            <g id="assets/experian">
                <g id="experian-logo" transform="translate(46.808511, 0.000000)">
                    <path d="M28.9795164,9.71023819 C29.2915778,9.39731357 29.4305212,8.89317286 29.4305212,8.04142412 C29.4305212,6.87682111 29.0315149,6.26813769 28.2513965,6.26813769 C27.3844032,6.26813769 26.8639266,6.98094171 26.8639266,8.16313266 C26.8639266,9.29326332 27.4018764,10.0057156 28.2513965,10.0057156 C28.5287922,10.0057156 28.7887147,9.90152462 28.9795164,9.71023819 M26.8639266,6.80724322 C27.141603,6.23345427 27.505663,5.55540402 28.4940563,5.55540402 C29.5863765,5.55540402 30.3147771,6.56396683 30.3147771,8.09355477 C30.3147771,9.67576583 29.5694647,10.7011427 28.4246547,10.7011427 C27.5232765,10.7011427 27.1936016,10.0751528 26.88147,9.44944422 L26.88147,12.4743588 L26.03195,12.4743588 L26.03195,5.65959497 L26.8639266,5.65959497 L26.8639266,6.80724322" id="Fill-1" fill="#007DC3"></path>
                    <path d="M34.4070693,7.72857688 C34.3204752,6.21615477 33.2626102,6.21615477 33.1412802,6.21615477 C32.3436886,6.21615477 31.8755614,6.7551196 31.8233523,7.72857688 L34.4070693,7.72857688 Z M35.2049416,9.31043618 C35.0142101,9.72783317 34.9100025,9.88408442 34.6845352,10.1103357 C34.2684767,10.5099337 33.7308777,10.7187377 33.1412802,10.7187377 C31.8233523,10.7187377 30.9390964,9.67577286 30.9390964,8.12831558 C30.9390964,6.59844623 31.8583689,5.53789347 33.1760161,5.53789347 C34.3898768,5.53789347 35.2740625,6.52879799 35.2740625,7.86780302 C35.2740625,8.02391357 35.2740625,8.18065729 35.25687,8.40641608 L31.8061598,8.40641608 C31.8927539,10.0579236 33.0199503,10.0579236 33.2106818,10.0579236 C34.1472169,10.0579236 34.4242618,9.27561206 34.5284694,8.98020503 L35.2049416,9.31043618 L35.2049416,9.31043618 Z" id="Fill-3" fill="#007DC3"></path>
                    <path d="M37.0254168,6.61592864 C37.2680767,6.16384824 37.6151547,5.53792864 38.3258716,5.53792864 C38.4301493,5.53792864 38.5513389,5.55544623 38.6900017,5.55544623 L38.6900017,6.42471256 C38.482218,6.38988844 38.3780806,6.38988844 38.25647,6.38988844 C37.5283501,6.38988844 37.0082243,6.91133568 37.0082243,7.65889347 L37.0082243,10.5795467 L36.1758968,10.5795467 L36.1758968,5.65963719 L37.0254168,5.65963719 L37.0254168,6.61592864" id="Fill-5" fill="#007DC3"></path>
                    <path d="M50.6028813,10.5795397 L49.7706942,10.5795397 L49.7706942,7.4155397 C49.7706942,6.6854995 49.3890207,6.25093668 48.747565,6.25093668 C48.0193749,6.25093668 47.481776,6.77238392 47.481776,7.48511759 L47.481776,10.5795397 L46.6494484,10.5795397 L46.6494484,5.67714774 L47.481776,5.67714774 L47.481776,6.54634372 C47.9499032,5.88595176 48.4874319,5.53792161 49.1115548,5.53792161 C49.9961615,5.53792161 50.6028813,6.19880603 50.6028813,7.17219296 L50.6028813,10.5795397" id="Fill-7" fill="#007DC3"></path>
                    <polygon id="Fill-9" fill="#007DC3" points="16.3906768 3.3650794 20.8993221 3.3650794 20.6390487 4.18200402 17.344264 4.18200402 17.344264 6.45950151 20.3269171 6.45950151 20.3269171 7.2591196 17.344264 7.2591196 17.344264 9.76230553 20.6390487 9.76230553 20.933637 10.5795116 16.3906768 10.5795116"></polygon>
                    <polygon id="Fill-11" fill="#007DC3" points="21.3153315 5.64241508 22.2167097 5.64241508 23.2225762 7.24186231 24.1765143 5.64241508 25.0435076 5.64241508 23.6736513 7.97183216 25.3035003 10.5795608 24.4191742 10.5795608 23.2401196 8.70180201 22.1303262 10.5795608 21.2459299 10.5795608 22.771852 7.97183216"></polygon>
                    <polygon id="Fill-13" fill="#007DC3" points="39.6439679 9.48441608 39.6439679 5.6771196 40.4933476 5.6771196 40.4933476 10.5795116 39.6439679 10.5795116"></polygon>
                    <path d="M40.5629386,4.39085025 C40.5629386,4.61660905 40.3895399,4.79044824 40.1640726,4.79044824 L39.9735516,4.79044824 C39.7478036,4.79044824 39.5745453,4.61660905 39.5745453,4.39085025 L39.5745453,4.19949347 C39.5745453,3.9907598 39.7478036,3.81706131 39.9735516,3.81706131 L40.1640726,3.81706131 C40.3895399,3.81706131 40.5629386,3.9907598 40.5629386,4.19949347 L40.5629386,4.39085025" id="Fill-15" fill="#007DC3"></path>
                    <path d="M44.0828468,9.65823417 C43.8228541,9.90151055 43.5630017,10.0579729 43.2159238,10.0579729 C42.6609218,10.0579729 42.2449335,9.67575176 42.2449335,9.13643518 C42.2449335,8.89315879 42.3315275,8.66732965 42.5052069,8.47604322 C42.713201,8.21510854 43.0425251,8.02396281 43.6148599,7.91970151 C43.8750632,7.86778191 44.0828468,7.88501809 44.5338517,7.97183216 L44.5338517,8.40639497 C44.5338517,9.03238492 44.4125218,9.3452392 44.0828468,9.65823417 M45.3313732,9.38013367 L45.3313732,7.0854 C45.3313732,6.56395276 45.3313732,5.50347035 43.5107927,5.52063618 C42.5395919,5.52063618 41.7939988,6.04215377 41.7939988,6.04215377 L42.0541318,6.72013367 C42.0541318,6.72013367 42.8344608,6.19882714 43.5279852,6.19882714 C44.4471874,6.19882714 44.5338517,6.70275678 44.5338517,7.0854 L44.5338517,7.51996281 C44.5338517,7.51996281 43.9965334,7.38080704 43.5279852,7.4155608 C42.713201,7.46762111 42.2102678,7.67642513 41.8634003,8.0414804 C41.5859344,8.33681709 41.4125358,8.73690754 41.4125358,9.13643518 C41.4125358,10.0407367 42.0541318,10.7359528 42.9386684,10.7359528 C43.8056616,10.7359528 44.2217201,10.1276211 44.5163785,9.76228442 C44.5163785,10.1969176 44.5338517,10.7359528 45.1924999,10.7359528 C45.3313732,10.7359528 45.4527733,10.7011286 45.7129765,10.6315508 L45.7129765,10.0579729 C45.3661792,10.0407367 45.3313732,10.0057015 45.3313732,9.38013367" id="Fill-17" fill="#007DC3"></path>
                    <path d="M3.69764357,2.42639698 L3.28130438,2.42639698 C2.83051002,2.42639698 2.46630972,2.79138191 2.46630972,3.22601508 L2.46630972,3.64320101 C2.46630972,4.07797487 2.83051002,4.42530151 3.28130438,4.42530151 L3.69764357,4.42530151 C4.13110509,4.42530151 4.49516505,4.07797487 4.49516505,3.64320101 L4.49516505,3.22601508 C4.49516505,2.79138191 4.13110509,2.42639698 3.69764357,2.42639698" id="Fill-19" fill="#007DC3"></path>
                    <path d="M6.09060097,2.42639698 L5.67426178,2.42639698 C5.24080026,2.42639698 4.87659996,2.79138191 4.87659996,3.22601508 L4.87659996,3.64320101 C4.87659996,4.07797487 5.24080026,4.42530151 5.67426178,4.42530151 L6.09060097,4.42530151 C6.54125498,4.42530151 6.90545529,4.07797487 6.90545529,3.64320101 L6.90545529,3.22601508 C6.90545529,2.79138191 6.54125498,2.42639698 6.09060097,2.42639698" id="Fill-21" fill="#007DC3"></path>
                    <path d="M8.50085612,2.42639698 L8.0845871,2.42639698 C7.65105541,2.42639698 7.28699545,2.79138191 7.28699545,3.22601508 L7.28699545,3.64320101 C7.28699545,4.07797487 7.65105541,4.42530151 8.0845871,4.42530151 L8.50085612,4.42530151 C8.93438781,4.42530151 9.29844776,4.07797487 9.29844776,3.64320101 L9.29844776,3.22601508 C9.29844776,2.79138191 8.93438781,2.42639698 8.50085612,2.42639698" id="Fill-23" fill="#007DC3"></path>
                    <path d="M10.9111534,2.42639698 L10.4950949,2.42639698 C10.0441602,2.42639698 9.69729271,2.79138191 9.69729271,3.22601508 L9.69729271,3.64320101 C9.69729271,4.07797487 10.0441602,4.42530151 10.4950949,4.42530151 L10.9111534,4.42530151 C11.3446149,4.42530151 11.708745,4.07797487 11.708745,3.64320101 L11.708745,3.22601508 C11.708745,2.79138191 11.3446149,2.42639698 10.9111534,2.42639698" id="Fill-25" fill="#007DC3"></path>
                    <path d="M3.69764357,4.80794472 L3.28130438,4.80794472 C2.83051002,4.80794472 2.46630972,5.17292965 2.46630972,5.60749246 L2.46630972,6.02488945 C2.46630972,6.45952261 2.83051002,6.82450754 3.28130438,6.82450754 L3.69764357,6.82450754 C4.13110509,6.82450754 4.49516505,6.45952261 4.49516505,6.02488945 L4.49516505,5.60749246 C4.49516505,5.17292965 4.13110509,4.80794472 3.69764357,4.80794472" id="Fill-27" fill="#007DC3"></path>
                    <path d="M10.9111534,4.80794472 L10.4950949,4.80794472 C10.0441602,4.80794472 9.69729271,5.17292965 9.69729271,5.60749246 L9.69729271,6.02488945 C9.69729271,6.45952261 10.0441602,6.82450754 10.4950949,6.82450754 L10.9111534,6.82450754 C11.3446149,6.82450754 11.708745,6.45952261 11.708745,6.02488945 L11.708745,5.60749246 C11.708745,5.17292965 11.3446149,4.80794472 10.9111534,4.80794472" id="Fill-29" fill="#007DC3"></path>
                    <path d="M3.69764357,7.20698191 L3.28130438,7.20698191 C2.83051002,7.20698191 2.46630972,7.55473065 2.46630972,8.00667035 L2.46630972,8.40640905 C2.46630972,8.84104221 2.83051002,9.20602714 3.28130438,9.20602714 L3.69764357,9.20602714 C4.13110509,9.20602714 4.49516505,8.84104221 4.49516505,8.40640905 L4.49516505,8.00667035 C4.49516505,7.55473065 4.13110509,7.20698191 3.69764357,7.20698191" id="Fill-31" fill="#007DC3"></path>
                    <path d="M10.9111534,7.20698191 L10.4950949,7.20698191 C10.0441602,7.20698191 9.69729271,7.55473065 9.69729271,8.00667035 L9.69729271,8.40640905 C9.69729271,8.84104221 10.0441602,9.20602714 10.4950949,9.20602714 L10.9111534,9.20602714 C11.3446149,9.20602714 11.708745,8.84104221 11.708745,8.40640905 L11.708745,8.00667035 C11.708745,7.55473065 11.3446149,7.20698191 10.9111534,7.20698191" id="Fill-33" fill="#007DC3"></path>
                    <path d="M3.69764357,9.58863518 L3.28130438,9.58863518 C2.83051002,9.58863518 2.46630972,9.9536201 2.46630972,10.3881829 L2.46630972,10.7883437 C2.46630972,11.2402131 2.83051002,11.5879618 3.28130438,11.5879618 L3.69764357,11.5879618 C4.13110509,11.5879618 4.49516505,11.2402131 4.49516505,10.7883437 L4.49516505,10.3881829 C4.49516505,9.9536201 4.13110509,9.58863518 3.69764357,9.58863518" id="Fill-35" fill="#007DC3"></path>
                    <path d="M6.09060097,9.58863518 L5.67426178,9.58863518 C5.24080026,9.58863518 4.87659996,9.9536201 4.87659996,10.3881829 L4.87659996,10.7883437 C4.87659996,11.2402131 5.24080026,11.5879618 5.67426178,11.5879618 L6.09060097,11.5879618 C6.54125498,11.5879618 6.90545529,11.2402131 6.90545529,10.7883437 L6.90545529,10.3881829 C6.90545529,9.9536201 6.54125498,9.58863518 6.09060097,9.58863518" id="Fill-37" fill="#007DC3"></path>
                    <path d="M8.50085612,9.58863518 L8.0845871,9.58863518 C7.65105541,9.58863518 7.28699545,9.9536201 7.28699545,10.3881829 L7.28699545,10.7883437 C7.28699545,11.2402131 7.65105541,11.5879618 8.0845871,11.5879618 L8.50085612,11.5879618 C8.93438781,11.5879618 9.29844776,11.2402131 9.29844776,10.7883437 L9.29844776,10.3881829 C9.29844776,9.9536201 8.93438781,9.58863518 8.50085612,9.58863518" id="Fill-39" fill="#007DC3"></path>
                    <path d="M10.9111534,9.58863518 L10.4950949,9.58863518 C10.0441602,9.58863518 9.69729271,9.9536201 9.69729271,10.3881829 L9.69729271,10.7883437 C9.69729271,11.2402131 10.0441602,11.5879618 10.4950949,11.5879618 L10.9111534,11.5879618 C11.3446149,11.5879618 11.708745,11.2402131 11.708745,10.7883437 L11.708745,10.3881829 C11.708745,9.9536201 11.3446149,9.58863518 10.9111534,9.58863518" id="Fill-41" fill="#007DC3"></path>
                    <path d="M13.4946879,0.0272190955 L13.1481011,0.0272190955 C12.8011635,0.0272190955 12.5237678,0.322766834 12.5237678,0.670515578 L12.5237678,1.00081709 C12.5237678,1.34842513 12.8011635,1.62659598 13.1481011,1.62659598 L13.4946879,1.62659598 C13.8415553,1.62659598 14.118951,1.34842513 14.118951,1.00081709 L14.118951,0.670515578 C14.118951,0.322766834 13.8415553,0.0272190955 13.4946879,0.0272190955" id="Fill-43" fill="#007DC3"></path>
                    <path d="M8.44887863,0.0272190955 L8.11934402,0.0272190955 C7.77247656,0.0272190955 7.49501067,0.322766834 7.49501067,0.670515578 L7.49501067,1.00081709 C7.49501067,1.34842513 7.77247656,1.62659598 8.11934402,1.62659598 L8.44887863,1.62659598 C8.81293858,1.62659598 9.09012379,1.34842513 9.09012379,1.00081709 L9.09012379,0.670515578 C9.09012379,0.322766834 8.81293858,0.0272190955 8.44887863,0.0272190955" id="Fill-45" fill="#ED3055"></path>
                    <path d="M6.05568265,0.0272190955 L5.72649891,0.0272190955 C5.36215826,0.0272190955 5.08476253,0.322766834 5.08476253,0.670515578 L5.08476253,1.00081709 C5.08476253,1.34842513 5.36215826,1.62659598 5.72649891,1.62659598 L6.05568265,1.62659598 C6.4028308,1.62659598 6.69748919,1.34842513 6.69748919,1.00081709 L6.69748919,0.670515578 C6.69748919,0.322766834 6.4028308,0.0272190955 6.05568265,0.0272190955" id="Fill-47" fill="#007DC3"></path>
                    <path d="M1.02710801,0.0272190955 L0.697643575,0.0272190955 C0.333513445,0.0272190955 0.056117723,0.322766834 0.056117723,0.670515578 L0.056117723,1.00081709 C0.056117723,1.34842513 0.333513445,1.62659598 0.697643575,1.62659598 L1.02710801,1.62659598 C1.37397547,1.62659598 1.66877421,1.34842513 1.66877421,1.00081709 L1.66877421,0.670515578 C1.66877421,0.322766834 1.37397547,0.0272190955 1.02710801,0.0272190955" id="Fill-49" fill="#ED3055"></path>
                    <path d="M1.02710801,5.01673467 L0.697643575,5.01673467 C0.333513445,5.01673467 0.056117723,5.31214171 0.056117723,5.65960905 L0.056117723,5.9899809 C0.056117723,6.3378 0.333513445,6.6159005 0.697643575,6.6159005 L1.02710801,6.6159005 C1.37397547,6.6159005 1.66877421,6.3378 1.66877421,5.9899809 L1.66877421,5.65960905 C1.66877421,5.31214171 1.37397547,5.01673467 1.02710801,5.01673467" id="Fill-51" fill="#007DC3"></path>
                    <path d="M1.02710801,9.79742513 L0.697643575,9.79742513 C0.333513445,9.79742513 0.056117723,10.0751739 0.056117723,10.422993 L0.056117723,10.7532241 C0.056117723,11.1012543 0.333513445,11.396591 0.697643575,11.396591 L1.02710801,11.396591 C1.37397547,11.396591 1.66877421,11.1012543 1.66877421,10.7532241 L1.66877421,10.422993 C1.66877421,10.0751739 1.37397547,9.79742513 1.02710801,9.79742513" id="Fill-53" fill="#ED3055"></path>
                    <path d="M13.4946879,5.01673467 L13.1481011,5.01673467 C12.8011635,5.01673467 12.5237678,5.31214171 12.5237678,5.65960905 L12.5237678,5.9899809 C12.5237678,6.3378 12.8011635,6.6159005 13.1481011,6.6159005 L13.4946879,6.6159005 C13.8415553,6.6159005 14.118951,6.3378 14.118951,5.9899809 L14.118951,5.65960905 C14.118951,5.31214171 13.8415553,5.01673467 13.4946879,5.01673467" id="Fill-55" fill="#ED3055"></path>
                    <path d="M13.4946879,7.39800804 L13.1481011,7.39800804 C12.8011635,7.39800804 12.5237678,7.69369648 12.5237678,8.04144523 L12.5237678,8.37195779 C12.5237678,8.71949548 12.8011635,8.99745528 13.1481011,8.99745528 L13.4946879,8.99745528 C13.8415553,8.99745528 14.118951,8.71949548 14.118951,8.37195779 L14.118951,8.04144523 C14.118951,7.69369648 13.8415553,7.39800804 13.4946879,7.39800804" id="Fill-57" fill="#007DC3"></path>
                    <path d="M13.4946879,12.3875236 L13.1481011,12.3875236 C12.8011635,12.3875236 12.5237678,12.6829307 12.5237678,13.0307497 L12.5237678,13.3608402 C12.5237678,13.7089407 12.8011635,13.9866894 13.1481011,13.9866894 L13.4946879,13.9866894 C13.8415553,13.9866894 14.118951,13.7089407 14.118951,13.3608402 L14.118951,13.0307497 C14.118951,12.6829307 13.8415553,12.3875236 13.4946879,12.3875236" id="Fill-59" fill="#ED3055"></path>
                    <path d="M8.46607815,12.3875236 L8.11935104,12.3875236 C7.77248358,12.3875236 7.49501768,12.6829307 7.49501768,13.0307497 L7.49501768,13.3608402 C7.49501768,13.7089407 7.77248358,13.9866894 8.11935104,13.9866894 L8.46607815,13.9866894 C8.8129456,13.9866894 9.0901308,13.7089407 9.0901308,13.3608402 L9.0901308,13.0307497 C9.0901308,12.6829307 8.8129456,12.3875236 8.46607815,12.3875236" id="Fill-61" fill="#007DC3"></path>
                    <path d="M3.64552574,12.3875236 L3.31599113,12.3875236 C2.96919385,12.3875236 2.67446528,12.6829307 2.67446528,13.0307497 L2.67446528,13.3608402 C2.67446528,13.7089407 2.96919385,13.9866894 3.31599113,13.9866894 L3.64552574,13.9866894 C3.9923932,13.9866894 4.28719194,13.7089407 4.28719194,13.3608402 L4.28719194,13.0307497 C4.28719194,12.6829307 3.9923932,12.3875236 3.64552574,12.3875236" id="Fill-63" fill="#ED3055"></path>
                    <path d="M51.2966654,6.33778593 C51.3309802,6.4247407 51.3485937,6.45949447 51.4004519,6.51162513 C51.4524505,6.54630854 51.521852,6.56396683 51.6087268,6.56396683 C51.7301269,6.56396683 51.8340538,6.49438894 51.8340538,6.38991658 C51.8340538,6.28551457 51.7645119,6.23345427 51.5737804,6.19884121 C51.4179953,6.16380603 51.4004519,6.14656985 51.3137877,6.07699196 C51.2615786,6.02486131 51.2271936,5.9725196 51.2271936,5.90315276 C51.2271936,5.7467608 51.3832594,5.64242915 51.5912536,5.64242915 C51.8687195,5.64242915 51.9209285,5.79882111 51.9553837,5.85081106 L51.851527,5.93804724 C51.8340538,5.88591658 51.7821254,5.76420804 51.5912536,5.76420804 C51.4524505,5.76420804 51.3660669,5.81633869 51.3660669,5.90315276 C51.3660669,6.00762513 51.521852,6.04209749 51.6087268,6.05961508 C51.7645119,6.09422814 51.9729271,6.14656985 51.9729271,6.3726804 C51.9729271,6.56396683 51.8167209,6.68553467 51.5912536,6.68553467 C51.4524505,6.68553467 51.3309802,6.6507809 51.2615786,6.56396683 C51.2271936,6.52879095 51.2097906,6.49438894 51.1925981,6.4247407 L51.2966654,6.33778593" id="Fill-65" fill="#007DC3"></path>
                    <polygon id="Fill-67" fill="#007DC3" points="52.9612292 5.65962312 53.1864158 5.65962312 53.1864158 6.65080905 53.0478934 6.65080905 53.0478934 5.78161307 52.7879709 6.65080905 52.6490976 6.65080905 52.3717018 5.78161307 52.3717018 6.65080905 52.2502316 6.65080905 52.2502316 5.65962312 52.4758393 5.65962312 52.7184991 6.47675879"></polygon>
                </g>
                <text id="Powered-by" font-family="MerloNeue-Light, Merlo Neue" font-size="8.5106383" font-weight="300" fill="#000000">
                    <tspan x="0.231914894" y="11.6153846">Powered by</tspan>
                </text>
            </g>
        </g>
    </g>
</svg>