<?xml version="1.0" standalone="no"?>
<!DOCTYPE svg PUBLIC "-//W3C//DTD SVG 1.1//EN" "http://www.w3.org/Graphics/SVG/1.1/DTD/svg11.dtd" >
<svg xmlns="http://www.w3.org/2000/svg">
<metadata></metadata>
<defs>
<font id="merlo_neuesemi_bold_italic" horiz-adv-x="1273" >
<font-face units-per-em="2048" ascent="1536" descent="-512" />
<missing-glyph horiz-adv-x="454" />
<glyph horiz-adv-x="0" />
<glyph horiz-adv-x="682" />
<glyph unicode=" "  horiz-adv-x="454" />
<glyph unicode="&#x09;" horiz-adv-x="454" />
<glyph unicode="&#xa0;" horiz-adv-x="454" />
<glyph unicode="!" horiz-adv-x="497" d="M174 440q-49 0 -43 49l107 998q3 26 15.5 37.5t37.5 11.5h196q49 0 41 -49l-172 -998q-9 -49 -57 -49h-125zM35 127q0 75 55 129.5t129 54.5q61 0 101 -42t40 -103q0 -74 -56.5 -126t-131.5 -52q-61 0 -99 40t-38 99z" />
<glyph unicode="&#x22;" horiz-adv-x="704" d="M412 1536q21 0 30 -13.5t2 -37.5l-110 -363q-11 -36 -43 -50.5t-60 0t-28 50.5l-8 363q0 51 45 51h172zM745 1536q21 0 30.5 -13.5t2.5 -37.5l-110 -363q-11 -36 -42.5 -50.5t-59.5 0t-29 50.5l-9 363q0 51 45 51h172z" />
<glyph unicode="#" horiz-adv-x="1599" d="M848 412h-193l-94 -359q-12 -53 -63 -53h-146q-50 0 -37 49l97 363h-301q-47 0 -41 47l20 145q6 49 55 49h330l53 205h-299q-49 0 -41 49l21 146q3 25 16 36t39 11h326l76 280q12 54 61 54h145q26 0 36.5 -13t4.5 -37l-75 -284h188l76 280q12 54 63 54h144q26 0 36.5 -13 t4.5 -37l-76 -284h278q26 0 36 -11t7 -36l-20 -146q-8 -49 -55 -49h-310l-55 -205h281q25 0 34.5 -11.5t6.5 -37.5l-21 -145q-6 -47 -55 -47h-309l-95 -359q-12 -53 -63 -53h-143q-52 0 -39 49zM719 653h192l54 205h-191z" />
<glyph unicode="$" horiz-adv-x="1122" d="M731 1305q-100 0 -165.5 -51t-65.5 -124q0 -45 31 -84t80 -69.5t109 -62.5t119.5 -72.5t108.5 -88.5t80 -120t31 -160q0 -170 -107 -296.5t-278 -174.5l-17 -125q-5 -25 -18 -36t-39 -11h-199q-26 0 -36 11t-7 36l17 107q-126 19 -219 70t-144 100q-24 18 2 51l115 145 q27 33 57 6q135 -123 312 -123q109 0 172 52t63 131q0 51 -30.5 95t-80 77.5t-109 67.5t-118.5 74t-108.5 86.5t-80 115t-30.5 151.5q0 170 113.5 297.5t304.5 165.5l14 105q6 49 56 49h200q50 0 41 -49l-14 -105q68 -15 128.5 -42t85 -43.5t34.5 -26.5q18 -18 2 -43 l-111 -158q-18 -26 -47 -8q-139 80 -252 80z" />
<glyph unicode="%" horiz-adv-x="1300" d="M406 1090q-88 0 -145.5 59.5t-57.5 146.5q0 106 81.5 185.5t186.5 79.5q90 0 147.5 -60t57.5 -149q0 -107 -81 -184.5t-189 -77.5zM150 0q-27 0 -39.5 13.5t0.5 35.5l841 1434q13 22 18.5 30.5t17 15.5t28.5 7h194q28 0 40 -13t-1 -38l-839 -1432q-17 -30 -29.5 -41.5 t-36.5 -11.5h-194zM428 1249q34 0 60 25t26 59q0 28 -18 47t-45 19q-34 0 -60 -25t-26 -57q0 -28 18 -48t45 -20zM895 -20q-88 0 -145.5 59.5t-57.5 146.5q0 106 82 185.5t187 79.5q90 0 147 -60t57 -149q0 -107 -81 -184.5t-189 -77.5zM918 139q34 0 60 25t26 59 q0 28 -18 47t-46 19q-34 0 -60 -25t-26 -57q0 -28 18.5 -48t45.5 -20z" />
<glyph unicode="&#x26;" horiz-adv-x="1333" d="M530 -25q-132 0 -237.5 45.5t-168.5 135.5t-63 211q0 78 25 150.5t66.5 128.5t85.5 97t92 72q-58 47 -97.5 125t-39.5 176q0 130 71.5 233t191 158.5t261.5 55.5q123 0 220.5 -45t143.5 -121q26 -41 -8 -70l-108 -98q-37 -34 -64 -4q-78 86 -184 86q-97 0 -161 -56 t-64 -145q0 -73 44 -127t117 -63q24 -2 34.5 -12t6.5 -36l-18 -131q-3 -26 -16 -35.5t-39 -11.5q-100 -8 -177 -82.5t-77 -191.5q0 -89 59 -142t156 -53q108 0 184.5 62.5t91.5 163.5l39 258q9 49 55 49h344q49 0 43 -49l-18 -136q-6 -49 -57 -49h-131l-13 -94 q-25 -194 -188.5 -324.5t-401.5 -130.5z" />
<glyph unicode="'" horiz-adv-x="370" d="M203 1122l-8 363q0 51 45 51h172q21 0 30 -13.5t2 -37.5l-110 -363q-11 -36 -43 -50.5t-60 0t-28 50.5z" />
<glyph unicode="(" horiz-adv-x="692" d="M457 242q-4 -28 -5 -46.5t-0.5 -45.5t9 -45.5t22.5 -36.5t41 -28.5t64 -12.5q26 -1 36 -13t7 -37l-23 -151q-6 -52 -53 -49q-226 3 -326 107.5t-71 308.5l145 1040q58 404 514 416q47 3 41 -50l-20 -151q-6 -46 -58 -49q-163 -10 -190 -221z" />
<glyph unicode=")" horiz-adv-x="692" d="M76 -223q-26 -1 -36 10.5t-7 38.5l22 151q6 47 56 50q45 3 79 18.5t53 35t32.5 51.5t18 54t9.5 56l131 936q31 211 -131 221q-25 2 -34.5 13t-6.5 36l21 151q9 53 55 50q226 -3 326 -108t71 -308l-145 -1040q-58 -404 -514 -416z" />
<glyph unicode="*" horiz-adv-x="741" d="M834 1493q9 -53 -46 -70l-118 -37l55 -94q26 -44 -20 -78l-101 -65q-48 -31 -74 14l-55 97l-84 -97q-20 -24 -38.5 -27t-39.5 13l-80 63q-42 34 -2 80l84 97l-108 36q-51 16 -25 70l49 104q27 52 72 35l111 -37l16 119q9 56 62 56h108q58 0 49 -56l-16 -121l117 37 q29 9 44 1t19 -36z" />
<glyph unicode="+" horiz-adv-x="978" d="M899 866q25 0 34.5 -11.5t6.5 -37.5l-16 -119q-3 -26 -16.5 -37.5t-39.5 -11.5h-245l-37 -266q-6 -47 -56 -47h-135q-47 0 -41 47l37 266h-246q-26 0 -36 11.5t-7 37.5l17 119q8 49 57 49h246l37 267q6 49 55 49h135q47 0 41 -49l-37 -267h246z" />
<glyph unicode="," horiz-adv-x="460" d="M10 127q0 76 52.5 130t132.5 54q62 0 102.5 -39.5t40.5 -113.5q0 -100 -74 -230.5t-174 -224.5q-1 -1 -5 -4.5t-5.5 -5t-5.5 -4.5t-6 -4t-5 -3t-5.5 -2h-5.5t-5.5 1.5t-5.5 3.5l-53 41q-19 16 6 47q5 6 25.5 30t34.5 42t31 42t26.5 45t9.5 37q0 21 -27 33q-84 37 -84 125 z" />
<glyph unicode="-" horiz-adv-x="792" d="M109 446q-41 0 -35 50l20 129q3 26 13 37.5t32 11.5h553q43 0 35 -49l-18 -129q-6 -50 -47 -50h-553z" />
<glyph unicode="." horiz-adv-x="454" d="M10 127q0 74 56 129t129 55q62 0 102.5 -42t40.5 -103q0 -74 -56.5 -126t-131.5 -52q-61 0 -100.5 40t-39.5 99z" />
<glyph unicode="/" horiz-adv-x="579" d="M31 0q-52 0 -39 49l370 1434q15 53 64 53h197q48 0 36 -51l-370 -1432q-15 -53 -64 -53h-194z" />
<glyph unicode="0" horiz-adv-x="1288" d="M567 -25q-221 0 -336.5 154.5t-115.5 445.5q0 302 76 522t229.5 342t370.5 122q218 0 335 -155t117 -445q0 -301 -76.5 -521.5t-229.5 -342.5t-370 -122zM606 225q162 0 249 184.5t87 559.5q0 352 -194 352q-160 0 -248 -188.5t-88 -559.5q0 -348 194 -348z" />
<glyph unicode="1" horiz-adv-x="790" d="M326 0q-26 0 -36 11.5t-7 37.5l159 1135l-163 -144q-39 -31 -64 0l-90 103q-27 34 10 65l352 308q23 20 54 20h202q49 0 43 -49l-202 -1438q-6 -49 -56 -49h-202z" />
<glyph unicode="2" horiz-adv-x="1036" d="M63 0q-26 0 -35.5 11.5t-4.5 37.5l32 242q13 94 57.5 179.5t105 150t130.5 124t138 111t123.5 100.5t89.5 103.5t34 109.5q0 60 -40 99t-107 39q-99 0 -221 -105q-38 -30 -62 4l-78 107q-25 32 13 67q77 79 187 130t243 51q172 0 272 -91t100 -243q0 -93 -35 -176 t-92 -146.5t-126 -122t-140.5 -113t-132 -108t-103 -118.5t-51.5 -134l-10 -59h514q26 0 35.5 -11.5t5.5 -37.5l-20 -152q-3 -26 -16.5 -37.5t-39.5 -11.5h-766z" />
<glyph unicode="3" horiz-adv-x="1048" d="M397 -25q-126 0 -226.5 48.5t-162.5 123.5q-31 42 10 72l115 100q41 33 68 3q91 -97 196 -97q110 0 184 72t74 188q0 90 -52 145.5t-122 63.5q-25 2 -34.5 11.5t-6.5 35.5l19 131q5 45 55 48q84 11 146.5 80t62.5 155q0 70 -45.5 113t-116.5 43q-92 0 -199 -86 q-18 -15 -32 -14.5t-29 18.5l-82 98q-24 31 12 70q68 75 178.5 120.5t225.5 45.5q172 0 283.5 -96t111.5 -250q0 -128 -70.5 -233.5t-164.5 -168.5q64 -50 110.5 -142.5t46.5 -205.5q0 -142 -74 -255t-200.5 -175t-280.5 -62z" />
<glyph unicode="4" horiz-adv-x="1124" d="M612 0q-25 0 -34.5 11.5t-6.5 37.5l43 303h-577q-49 0 -41 49l14 109q6 44 35 80l711 911q27 35 67 35h209q49 0 43 -49l-127 -893h88q26 0 36 -11.5t7 -37.5l-20 -144q-3 -26 -16 -37.5t-39 -11.5h-89l-43 -303q-6 -49 -55 -49h-205zM350 594h297l74 522z" />
<glyph unicode="5" horiz-adv-x="1091" d="M598 993q193 0 303.5 -111t110.5 -309q0 -269 -159.5 -433.5t-422.5 -164.5q-70 0 -130 12.5t-98 28.5t-74 42.5t-53 44t-38 42.5q-26 37 10 66l131 117q38 30 62 0q39 -52 95.5 -77.5t115.5 -25.5q120 0 191 85.5t71 226.5q0 109 -62 169t-176 60h-244q-49 0 -41 49 l95 672q3 26 15.5 37.5t37.5 11.5h684q26 0 37 -11.5t8 -37.5l-23 -152q-6 -49 -55 -49h-432l-41 -293h82z" />
<glyph unicode="6" horiz-adv-x="1200" d="M565 -25q-220 0 -344.5 143t-124.5 423q0 168 32.5 321.5t95.5 280t150 220.5t203 146t248 52q127 0 223.5 -46t153.5 -116q21 -27 -10 -58l-123 -120q-25 -25 -57 0q-112 90 -219 90q-95 0 -172.5 -66.5t-124 -169t-64.5 -227.5q4 5 12.5 14.5t38 32.5t63 41t87.5 32.5 t112 14.5q174 0 283 -115.5t109 -300.5q0 -126 -43.5 -236t-119 -188t-182 -123t-227.5 -45zM596 219q112 0 180 88.5t68 220.5q0 97 -50 155t-135 58q-59 0 -115 -29t-88.5 -61t-58.5 -69q-21 -170 33 -266.5t166 -96.5z" />
<glyph unicode="7" horiz-adv-x="927" d="M702 1278h-512q-25 0 -34 11.5t-6 37.5l22 160q5 27 17 38t38 11h774q27 0 37 -11.5t6 -37.5l-18 -125q-3 -41 -16 -64l-654 -1249q-25 -49 -63 -49h-203q-53 0 -31 49z" />
<glyph unicode="8" horiz-adv-x="1202" d="M543 -25q-214 0 -344.5 108t-130.5 286q0 142 88.5 268t216.5 182q-64 41 -102 119t-38 166q0 196 147.5 326.5t373.5 130.5q184 0 293.5 -100.5t109.5 -260.5q0 -119 -64.5 -222.5t-166.5 -158.5q84 -40 132 -133.5t48 -206.5q0 -224 -157.5 -364t-405.5 -140zM666 938 q86 0 147 61.5t61 157.5q0 75 -43 120.5t-110 45.5q-89 0 -150 -61t-61 -160q0 -73 44.5 -118.5t111.5 -45.5zM565 223q111 0 185.5 72.5t74.5 187.5q0 90 -53.5 145.5t-140.5 55.5q-109 0 -184.5 -75t-75.5 -189q0 -90 53 -143.5t141 -53.5z" />
<glyph unicode="9" horiz-adv-x="1198" d="M442 -25q-128 0 -223 46t-153 116q-11 12 -8 28.5t18 29.5l121 120q25 25 57 0q116 -88 219 -88q95 0 172.5 66t124 168t64.5 227q-4 -5 -12.5 -14.5t-37.5 -32.5t-62.5 -41t-87.5 -32.5t-112 -14.5q-175 0 -284 115.5t-109 302.5q0 168 74 303t204.5 211t292.5 76 q221 0 346 -142.5t125 -421.5q0 -282 -88 -513.5t-256 -370t-385 -138.5zM608 795q143 0 262 161q20 170 -34.5 266.5t-165.5 96.5t-179.5 -89.5t-68.5 -221.5q0 -96 50 -154.5t136 -58.5z" />
<glyph unicode=":" horiz-adv-x="454" d="M111 842q0 73 55.5 127.5t128.5 54.5q62 0 101.5 -41t39.5 -102q0 -74 -56 -127.5t-130 -53.5q-61 0 -100 40.5t-39 101.5zM10 127q0 74 56.5 129t130.5 55q61 0 101 -41t40 -102q0 -74 -56.5 -127t-131.5 -53q-61 0 -100.5 40t-39.5 99z" />
<glyph unicode=";" horiz-adv-x="505" d="M143 842q0 73 55.5 127.5t129.5 54.5q61 0 101 -41t40 -102q0 -74 -56 -127.5t-130 -53.5q-62 0 -101 40.5t-39 101.5zM10 127q0 76 52.5 130t132.5 54q62 0 102.5 -39.5t40.5 -113.5q0 -100 -74 -230.5t-174 -224.5q-1 -1 -5 -4.5t-5.5 -5t-5.5 -4.5t-6 -4t-5 -3 t-5.5 -2h-5.5t-5.5 1.5t-5.5 3.5l-53 41q-19 16 6 47q5 6 25.5 30t34.5 42t31 42t26.5 45t9.5 37q0 21 -27 33q-84 37 -84 125z" />
<glyph unicode="&#x3c;" horiz-adv-x="624" d="M123 735q-29 32 8 62l463 389q20 15 31.5 8t9.5 -23l-25 -188q-6 -36 -39 -61l-184 -154l141 -158q25 -29 19 -63l-25 -189q-2 -15 -15.5 -21.5t-31.5 9.5z" />
<glyph unicode="=" horiz-adv-x="978" d="M172 844q-50 0 -41 49l16 119q3 26 16.5 37.5t39.5 11.5h723q49 0 43 -49l-19 -119q-6 -49 -55 -49h-723zM119 463q-49 0 -43 49l18 119q6 49 56 49h722q26 0 36 -11.5t7 -37.5l-18 -119q-6 -49 -55 -49h-723z" />
<glyph unicode="&#x3e;" horiz-adv-x="626" d="M561 735l-461 -389q-14 -12 -25.5 -11.5t-16 7.5t-3.5 16l29 189q3 34 37 63l186 158l-141 154q-26 26 -23 61l29 188q4 16 16.5 23t28.5 -8l354 -389q28 -31 -10 -62z" />
<glyph unicode="?" horiz-adv-x="925" d="M319 440q-23 0 -33 9.5t-10 31.5q0 91 20.5 166t53 126t72.5 94t79.5 77.5t72 67t53 73t20.5 86.5q0 70 -41.5 107t-111.5 37q-108 0 -213 -94q-38 -30 -62 4l-80 104q-22 32 13 70q76 76 188 124t238 48q175 0 276.5 -87.5t101.5 -242.5q0 -73 -21.5 -134t-57 -104 t-78.5 -83t-88 -81.5t-83 -88t-65.5 -113.5t-34.5 -148q-6 -49 -57 -49h-152zM340 -12q-61 0 -100 40t-39 99q0 74 56 129t130 55q61 0 101 -42t40 -103q0 -74 -56.5 -126t-131.5 -52z" />
<glyph unicode="@" horiz-adv-x="2318" d="M1296 1513q202 0 373.5 -65.5t291 -181.5t186.5 -281.5t67 -359.5q0 -190 -50.5 -352t-136.5 -271.5t-201 -171t-243 -61.5q-163 0 -257.5 92.5t-70.5 251.5l2 20q-4 -5 -11 -13t-31.5 -29t-53 -37t-73.5 -29t-93 -13q-165 0 -256.5 108.5t-91.5 297.5q0 268 135.5 432 t354.5 164q50 0 92 -11.5t66 -28t40.5 -33.5t22.5 -29l6 -11l8 45q3 24 15 34.5t36 10.5h174q45 0 39 -45l-114 -811v-2q-8 -53 23.5 -87t88.5 -34q71 0 131 53.5t97.5 139.5t58.5 188.5t21 204.5q0 306 -184 489t-496 183q-255 0 -459.5 -113t-320 -316t-115.5 -458 q0 -149 47.5 -275t134 -215t213 -138.5t278.5 -49.5h2q24 0 32 -9.5t5 -33.5l-22 -160q-3 -25 -13.5 -34t-33.5 -9h-4q-213 0 -386 65t-288.5 182t-177.5 280.5t-62 359.5q0 169 42.5 324.5t120 283t187.5 232.5t243 177t289 111t322 39zM1096 229q46 0 93 21.5t71 43.5 l24 21l53 394q-2 4 -6 9.5t-19.5 21t-33.5 27t-48 21t-63 9.5q-113 0 -182.5 -94t-69.5 -250q0 -106 47 -165t134 -59z" />
<glyph unicode="A" d="M-16 0q-49 0 -25 49l655 1438q21 49 70 49h188q51 0 60 -49l250 -1438q6 -49 -41 -49h-209q-25 0 -36.5 11.5t-14.5 37.5l-45 313h-443l-135 -313q-18 -49 -63 -49h-211zM496 612h307l-80 533z" />
<glyph unicode="B" horiz-adv-x="1265" d="M115 0q-49 0 -43 49l202 1438q6 49 56 49h483q192 0 300 -90.5t108 -253.5q0 -108 -48 -210.5t-133 -160.5q134 -90 134 -307q0 -235 -153 -374.5t-413 -139.5h-493zM504 926h194q97 0 155 58t58 149q0 149 -161 149h-195zM410 254h192q73 0 126.5 21t82 56.5t42 74.5 t13.5 83q0 94 -54.5 143.5t-149.5 49.5h-193z" />
<glyph unicode="C" horiz-adv-x="1259" d="M678 -25q-264 0 -413.5 183t-149.5 483q0 192 58.5 363t159.5 294.5t242.5 195t301.5 71.5q149 0 258.5 -51.5t175.5 -120.5q25 -25 -4 -54l-113 -127q-30 -30 -61 -2q-113 101 -252 101q-103 0 -188.5 -51t-142 -139t-87.5 -204t-31 -247q0 -204 79 -322.5t230 -118.5 q135 0 263 90q41 25 59 -10l74 -133q17 -29 -13 -53q-81 -63 -198 -105.5t-248 -42.5z" />
<glyph unicode="D" horiz-adv-x="1441" d="M115 0q-49 0 -43 49l202 1438q6 49 56 49h454q617 0 617 -627q0 -268 -96 -472.5t-283 -320.5t-440 -116h-467zM410 254h198q146 0 258 82t172 225.5t60 323.5q0 218 -90 307.5t-275 89.5h-180z" />
<glyph unicode="E" horiz-adv-x="1138" d="M115 0q-49 0 -43 49l202 1438q6 49 56 49h784q51 0 45 -49l-22 -156q-9 -49 -58 -49h-526l-49 -358h444q50 0 41 -50l-20 -151q-6 -49 -56 -49h-444l-59 -420h546q47 0 41 -49l-20 -156q-9 -49 -57 -49h-805z" />
<glyph unicode="F" horiz-adv-x="1054" d="M115 0q-49 0 -43 49l202 1438q6 49 56 49h757q49 0 43 -49l-22 -156q-9 -49 -55 -49h-500l-53 -391h403q50 0 41 -47l-22 -154q-6 -49 -56 -49h-401l-84 -592q-6 -49 -55 -49h-211z" />
<glyph unicode="G" horiz-adv-x="1413" d="M115 641q0 257 99.5 468.5t276 333.5t392.5 122q151 0 265 -52t179 -120q23 -23 -4 -54l-115 -127q-27 -30 -59 -2q-119 101 -264 101q-138 0 -242.5 -88t-157.5 -232.5t-53 -320.5q0 -204 79 -322.5t232 -118.5q98 0 181 51t108 123l27 187h-244q-50 0 -41 49l21 152 q9 49 57 49h448q50 0 41 -49l-59 -426q-11 -77 -62.5 -148.5t-129.5 -124.5t-183 -85t-217 -32q-182 0 -313 85t-196.5 234t-65.5 347z" />
<glyph unicode="H" horiz-adv-x="1488" d="M115 0q-49 0 -43 49l202 1438q6 49 56 49h211q49 0 43 -49l-82 -574h592l80 574q9 49 55 49h211q49 0 43 -49l-203 -1438q-6 -49 -55 -49h-211q-50 0 -41 49l86 610h-592l-86 -610q-9 -49 -55 -49h-211z" />
<glyph unicode="I" horiz-adv-x="587" d="M115 0q-49 0 -43 49l202 1438q6 49 56 49h211q49 0 43 -49l-203 -1438q-9 -49 -55 -49h-211z" />
<glyph unicode="J" horiz-adv-x="1036" d="M358 -25q-116 0 -213.5 41.5t-154.5 114.5q-21 28 10 59l131 129q30 30 57 3q86 -93 187 -93q79 0 137.5 53.5t71.5 143.5l147 1061q9 49 55 49h211q52 0 43 -49l-147 -1051q-27 -199 -175.5 -330t-359.5 -131z" />
<glyph unicode="K" horiz-adv-x="1310" d="M115 0q-49 0 -43 49l202 1438q6 49 56 49h211q49 0 43 -49l-84 -590l516 612q24 27 53 27h272q23 0 29 -12.5t-12 -34.5l-563 -662l407 -772q12 -25 4 -40t-30 -15h-273q-15 0 -29 8t-20 19l-295 565l-117 -123l-61 -420q-6 -49 -55 -49h-211z" />
<glyph unicode="L" horiz-adv-x="1026" d="M115 0q-49 0 -43 49l202 1438q6 49 56 49h211q49 0 43 -49l-174 -1233h477q49 0 43 -49l-23 -156q-6 -49 -55 -49h-737z" />
<glyph unicode="M" horiz-adv-x="1783" d="M59 0q-53 0 -41 49l351 1438q12 49 55 49h215q37 0 43 -33l201 -1044l493 1044q14 33 51 33h215q47 0 44 -49l-54 -1438q-3 -49 -55 -49h-205q-47 0 -41 49l51 893l-426 -905q-15 -37 -57 -37h-162q-40 0 -49 37l-172 905l-197 -893q-12 -49 -55 -49h-205z" />
<glyph unicode="N" horiz-adv-x="1462" d="M115 0q-49 0 -43 49l202 1438q6 49 56 49h168q31 0 47 -29l489 -903l125 883q6 49 53 49h203q49 0 43 -49l-203 -1438q-6 -49 -55 -49h-170q-30 0 -47 33l-485 915l-127 -899q-6 -49 -56 -49h-200z" />
<glyph unicode="O" horiz-adv-x="1550" d="M907 1561q287 0 441.5 -172t154.5 -486q0 -280 -94.5 -489t-274 -324t-423.5 -115q-283 0 -439.5 175t-156.5 485q0 278 94.5 487t274.5 324t423 115zM748 229q205 0 320.5 176.5t115.5 475.5q0 207 -80 316.5t-230 109.5q-207 0 -323.5 -176.5t-116.5 -473.5 q0 -204 82.5 -316t231.5 -112z" />
<glyph unicode="P" horiz-adv-x="1245" d="M115 0q-49 0 -43 49l200 1436q9 49 58 49h461q227 0 351 -121.5t124 -318.5q0 -114 -43 -214.5t-121 -176.5t-195.5 -120t-257.5 -44h-198l-70 -490q-6 -49 -55 -49h-211zM485 793h172q150 0 225.5 76t75.5 196q0 215 -231 215h-172z" />
<glyph unicode="Q" horiz-adv-x="1550" d="M1081 59l170 -378q10 -22 -0.5 -36t-29.5 -14h-211q-43 0 -62 45l-135 306q-58 -7 -102 -7q-283 0 -439.5 175t-156.5 485q0 278 94.5 487t274.5 324t423 115q287 0 441.5 -172t154.5 -486q0 -300 -110.5 -519.5t-311.5 -324.5zM434 657q0 -204 82.5 -316t231.5 -112 q205 0 320.5 176.5t115.5 475.5q0 207 -80 316.5t-230 109.5q-207 0 -323.5 -176.5t-116.5 -473.5z" />
<glyph unicode="R" horiz-adv-x="1298" d="M115 0q-49 0 -43 49l202 1438q6 49 56 49h475q229 0 355 -110t126 -298q0 -185 -90 -308t-254 -171l221 -604q8 -23 -3.5 -36t-33.5 -13h-243q-42 0 -54 35l-204 569h-166l-78 -551q-6 -49 -55 -49h-211zM494 842h215q140 0 204 72t64 182q0 86 -49.5 136t-157.5 50h-215 z" />
<glyph unicode="S" horiz-adv-x="1122" d="M479 -25q-71 0 -140.5 14.5t-118 34.5t-94.5 47t-70 45.5t-44 37.5q-24 18 2 51l115 145q27 33 57 6q135 -123 312 -123q109 0 172 52t63 131q0 51 -30.5 95t-80 77.5t-109 67.5t-118.5 74t-108.5 86.5t-80 115t-30.5 151.5q0 202 156.5 340t406.5 138q69 0 134.5 -12 t109.5 -28.5t80.5 -36t53.5 -32t22 -18.5q18 -18 2 -43l-111 -158q-18 -26 -47 -8q-139 80 -252 80q-100 0 -165.5 -51t-65.5 -124q0 -45 31 -84t80 -69.5t109 -62.5t119.5 -72.5t108.5 -88.5t80 -120t31 -160q0 -144 -78.5 -259t-210.5 -177t-291 -62z" />
<glyph unicode="T" horiz-adv-x="1163" d="M399 0q-50 0 -41 49l174 1239h-366q-49 0 -43 47l22 152q9 49 56 49h1042q49 0 43 -49l-20 -152q-9 -47 -56 -47h-368l-176 -1239q-6 -49 -56 -49h-211z" />
<glyph unicode="U" horiz-adv-x="1435" d="M639 -25q-284 0 -418.5 160.5t-89.5 482.5l121 869q9 49 55 49h211q52 0 43 -49l-127 -901q-11 -100 0 -168t47.5 -110t84 -60.5t110.5 -18.5t116 19t99.5 59.5t79 111t45.5 167.5l127 901q6 49 53 49h213q49 0 43 -49l-123 -869q-45 -322 -224.5 -482.5t-465.5 -160.5z " />
<glyph unicode="V" horiz-adv-x="1323" d="M475 0q-25 0 -37 8t-16 33l-272 1446q-11 49 36 49h213q29 0 42.5 -10t17.5 -39l176 -1153l500 1153q12 30 27 39.5t44 9.5h213q47 0 25 -49l-678 -1446q-11 -25 -26 -33t-40 -8h-225z" />
<glyph unicode="W" horiz-adv-x="1941" d="M168 1487q-6 49 45 49h223q47 0 47 -49l82 -1006l381 1010q17 45 64 45h204q51 0 54 -45l96 -1010l367 1006q8 26 20.5 37.5t36.5 11.5h223q51 0 33 -49l-567 -1438q-18 -49 -66 -49h-213q-44 0 -47 43l-104 1022l-392 -1022q-15 -43 -59 -43h-213q-45 0 -51 49z" />
<glyph unicode="X" horiz-adv-x="1196" d="M-29 0q-52 0 -18 49l496 729l-275 709q-18 49 33 49h233q39 0 54 -37l172 -500l311 500q22 37 61 37h234q54 0 20 -49l-473 -707l291 -731q18 -49 -33 -49h-231q-39 0 -53 37l-191 520l-336 -520q-25 -37 -65 -37h-230z" />
<glyph unicode="Y" horiz-adv-x="1189" d="M1006 1499q24 37 63 37h215q27 0 33 -14t-10 -37l-537 -811l-88 -625q-6 -49 -55 -49h-211q-49 0 -43 49l88 625l-307 813q-10 25 -2.5 37t34.5 12h217q44 0 56 -37l192 -571z" />
<glyph unicode="Z" horiz-adv-x="1081" d="M33 0q-50 0 -41 49l22 160q3 34 25 59l768 1018h-600q-49 0 -43 49l22 152q6 49 54 49h882q49 0 43 -49l-24 -168q-3 -31 -23 -55l-772 -1014h592q47 0 41 -49l-21 -152q-6 -49 -55 -49h-870z" />
<glyph unicode="[" horiz-adv-x="768" d="M117 -440q-49 0 -41 49l282 2009q6 49 54 49h483q49 0 43 -49l-23 -152q-3 -26 -16 -37.5t-39 -11.5h-237l-228 -1607h240q47 0 41 -50l-21 -151q-6 -49 -55 -49h-483z" />
<glyph unicode="\" horiz-adv-x="780" d="M416 0q-52 0 -58 53l-170 1426q-5 26 6.5 41.5t38.5 15.5h193q48 0 57 -53l170 -1434q6 -49 -45 -49h-192z" />
<glyph unicode="]" horiz-adv-x="768" d="M45 -440q-25 0 -34.5 11.5t-6.5 37.5l21 151q6 50 55 50h237l228 1607h-238q-26 0 -36 11.5t-7 37.5l23 152q3 26 15.5 37.5t37.5 11.5h483q27 0 37 -11.5t6 -37.5l-282 -2009q-3 -26 -16.5 -37.5t-39.5 -11.5h-483z" />
<glyph unicode="^" horiz-adv-x="966" d="M598 1339l-274 -270q-36 -36 -68 0l-63 74q-33 33 10 67l391 334q38 35 65 0l299 -334q30 -37 -10 -67l-86 -74q-40 -34 -65 0z" />
<glyph unicode="_" horiz-adv-x="1157" d="M-2 -49q6 49 55 49h901q49 0 41 -49l-16 -129q-9 -49 -55 -49h-901q-50 0 -41 49z" />
<glyph unicode="`" horiz-adv-x="684" d="M518 1542l-280 238q-33 26 4 69l90 93q38 38 69 4l252 -269q27 -27 -10 -63l-55 -55q-21 -23 -35 -27.5t-35 10.5z" />
<glyph unicode="a" horiz-adv-x="1150" d="M1059 1030q27 0 37 -11.5t6 -37.5l-131 -932q-3 -26 -16.5 -37.5t-39.5 -11.5h-200q-26 0 -35 11t-6 38l16 119l-12 -82q-21 -21 -51 -42.5t-91.5 -45t-125.5 -23.5q-161 0 -256 121t-95 334q0 181 65 324.5t176 222t245 78.5q54 0 101 -13t77.5 -33t48 -36.5t27.5 -30.5 l6 39q5 27 17 38t38 11h199zM709 297l75 541l-16 -107q-7 9 -18.5 20t-32 26.5t-50.5 25.5t-63 10q-105 0 -174.5 -98.5t-69.5 -251.5q0 -119 45 -182.5t123 -63.5q89 0 181 80z" />
<glyph unicode="b" horiz-adv-x="1161" d="M754 1055q160 0 252 -116t92 -325q0 -183 -62.5 -329.5t-172 -228t-245.5 -81.5q-98 0 -166 35t-100 72l-4 -33q-3 -26 -16 -37.5t-39 -11.5h-199q-26 0 -36 11.5t-7 37.5l203 1438q3 26 16 37.5t39 11.5h199q27 0 37 -11.5t6 -37.5l-76 -535q24 21 56 41.5t95 41 t128 20.5zM553 217q107 0 175.5 105.5t68.5 261.5q0 113 -43 171t-121 58q-58 0 -109 -27.5t-80 -56.5l-61 -434q19 -26 65.5 -52t104.5 -26z" />
<glyph unicode="c" horiz-adv-x="985" d="M954 940q24 -19 4 -57l-73 -123q-21 -38 -62 -10q-92 63 -188 63q-120 0 -196.5 -93.5t-76.5 -244.5h-2q0 -117 51 -187.5t154 -70.5q98 0 185 66q39 24 59 -7l65 -114q21 -35 -8 -58q-63 -56 -159 -92.5t-207 -36.5q-208 0 -322.5 128.5t-114.5 355.5q0 133 42 245 t115.5 188.5t175.5 119.5t220 43q202 0 338 -115z" />
<glyph unicode="d" horiz-adv-x="1161" d="M1128 1536q27 0 37 -11.5t6 -37.5l-202 -1438q-3 -26 -16.5 -37.5t-39.5 -11.5h-198q-26 0 -36 11.5t-7 37.5l4 35q-21 -21 -51 -42t-91 -44t-124 -23q-161 0 -256 121t-95 334q0 181 65 324.5t176 222t245 78.5q164 0 254 -111l75 543q3 26 16.5 37.5t39.5 11.5h198z M707 295l61 436q-7 9 -18.5 20t-32 26.5t-50.5 25.5t-63 10q-105 0 -174.5 -98.5t-69.5 -251.5q0 -119 45 -182.5t123 -63.5q54 0 101.5 25.5t77.5 52.5z" />
<glyph unicode="e" horiz-adv-x="1077" d="M61 444q0 137 46 253t123.5 193.5t179.5 121t215 43.5q96 0 174.5 -33.5t132 -96t75.5 -159t5 -215.5q-7 -63 -21.5 -85t-42.5 -22h-583q0 -106 51 -166.5t151 -60.5q110 0 193 66q41 25 59 -7l66 -114q19 -34 -8 -58q-53 -49 -152.5 -89t-216.5 -40q-201 0 -324 125.5 t-123 343.5zM389 614l363 2q12 89 -29.5 143t-118.5 54q-82 0 -143 -57.5t-72 -141.5z" />
<glyph unicode="f" horiz-adv-x="782" d="M1001 1505q20 -27 20.5 -43.5t-22.5 -38.5l-96 -86q-19 -18 -33 -18.5t-32 16.5q-51 51 -107 51q-55 0 -96.5 -36.5t-50.5 -100.5l-31 -219h201q49 0 43 -49l-19 -127q-8 -49 -55 -49h-203l-106 -756q-6 -49 -54 -49h-200q-26 0 -36 11.5t-7 37.5l108 756h-96 q-49 0 -41 49l18 127q3 26 16.5 37.5t39.5 11.5h94l31 211q24 176 146.5 282.5t289.5 106.5q96 0 166.5 -35t111.5 -90z" />
<glyph unicode="g" horiz-adv-x="1159" d="M1057 1030q26 0 36 -11.5t7 -37.5l-150 -1061q-31 -214 -177 -342.5t-367 -128.5q-248 0 -377 166q-21 26 -21.5 42.5t23.5 39.5l96 86q37 31 66 2q81 -94 217 -94q102 0 164 57.5t77 163.5l25 172q-37 -37 -107 -73t-159 -36q-161 0 -256 121t-95 334q0 181 65 324.5 t176 222t245 78.5q52 0 98 -12.5t76.5 -32t48.5 -35.5t29 -31l6 37q6 49 55 49h199zM528 217q52 0 100 25.5t77 52.5l63 436q-8 10 -19.5 21t-32.5 26t-50.5 25t-61.5 10q-105 0 -174.5 -98.5t-69.5 -251.5q0 -119 45 -182.5t123 -63.5z" />
<glyph unicode="h" horiz-adv-x="1173" d="M752 1055q161 0 257.5 -104.5t71.5 -280.5l-88 -621q-3 -26 -16 -37.5t-39 -11.5h-201q-26 0 -35.5 11.5t-5.5 37.5l82 580q12 91 -29 141.5t-116 50.5q-60 0 -109.5 -27t-77.5 -55l-98 -690q-3 -26 -16 -37.5t-39 -11.5h-199q-26 0 -36 11.5t-7 37.5l203 1438 q3 26 16 37.5t39 11.5h199q27 0 37 -11.5t6 -37.5l-76 -533q117 101 277 101z" />
<glyph unicode="i" horiz-adv-x="565" d="M375 1196q-70 0 -116 46.5t-46 117.5q0 83 65 146t150 63q70 0 117 -48.5t47 -119.5q0 -84 -65.5 -144.5t-151.5 -60.5zM100 0q-26 0 -35 11t-6 38l131 932q5 26 17.5 37.5t38.5 11.5h198q27 0 37 -11.5t6 -37.5l-131 -932q-3 -26 -16 -37.5t-39 -11.5h-201z" />
<glyph unicode="j" horiz-adv-x="579" d="M389 1194q-70 0 -115 47t-45 117q0 85 64 148t149 63q70 0 117 -48.5t47 -119.5q0 -84 -65.5 -145.5t-151.5 -61.5zM-84 -551q-98 0 -169 35t-112 90q-20 26 -20.5 42.5t23.5 39.5l96 86q39 36 65 2q40 -53 107 -53q55 0 96.5 37.5t50.5 101.5l162 1151q6 49 55 49h199 q27 0 37 -11.5t6 -37.5l-160 -1143q-26 -176 -148.5 -282.5t-287.5 -106.5z" />
<glyph unicode="k" horiz-adv-x="1062" d="M1051 1030q20 0 24 -15t-14 -34l-350 -369l260 -561q11 -20 1.5 -35.5t-32.5 -15.5h-223q-25 0 -38 8.5t-22 30.5l-157 358l-119 -121l-33 -227q-3 -26 -16 -37.5t-39 -11.5h-199q-26 0 -36 11.5t-7 37.5l203 1438q3 26 16 37.5t39 11.5h199q27 0 37 -11.5t6 -37.5 l-117 -830l322 340q19 21 32.5 27t34.5 6h228z" />
<glyph unicode="l" horiz-adv-x="694" d="M457 0q-203 0 -300.5 114t-68.5 318l148 1055q3 26 16 37.5t39 11.5h198q26 0 36 -11.5t7 -37.5l-147 -1049q-12 -87 30.5 -141.5t129.5 -54.5h8q26 0 35 -11t6 -38l-21 -144q-3 -26 -16 -37.5t-39 -11.5h-61z" />
<glyph unicode="m" horiz-adv-x="1763" d="M1341 1055q161 0 258 -104.5t72 -280.5l-88 -621q-3 -26 -16 -37.5t-39 -11.5h-201q-26 0 -35.5 11.5t-5.5 37.5l82 580q12 91 -29 141.5t-116 50.5q-94 0 -176 -76q2 -27 -5 -75l-88 -621q-3 -26 -16 -37.5t-39 -11.5h-199q-26 0 -36 11.5t-7 37.5l82 580q13 90 -28 141 t-115 51q-80 0 -158 -59l-100 -713q-3 -26 -16 -37.5t-39 -11.5h-201q-26 0 -35 11t-6 38l131 932q5 27 17 38t38 11h199q27 0 37 -11.5t6 -37.5v-6q106 80 246 80q88 0 161 -34.5t117 -98.5q30 26 70.5 51.5t120 53.5t157.5 28z" />
<glyph unicode="n" horiz-adv-x="1165" d="M743 1055q161 0 258 -104.5t72 -280.5l-88 -621q-3 -26 -16 -37.5t-39 -11.5h-201q-26 0 -35.5 11.5t-5.5 37.5l82 580q12 91 -29 141.5t-116 50.5q-98 0 -191 -84l-96 -688q-3 -26 -16 -37.5t-39 -11.5h-201q-26 0 -35 11t-6 38l131 932q5 27 17 38t38 11h199 q27 0 37 -11.5t6 -37.5l-4 -29q125 103 278 103z" />
<glyph unicode="o" horiz-adv-x="1132" d="M498 -25q-208 0 -321.5 123t-113.5 351q0 270 156.5 438t409.5 168q210 0 324 -122t114 -349q0 -271 -157.5 -440t-411.5 -169zM530 217q105 0 171.5 96.5t66.5 251.5q0 121 -45 184.5t-127 63.5q-104 0 -170 -96.5t-66 -251.5q0 -120 44 -184t126 -64z" />
<glyph unicode="p" horiz-adv-x="1153" d="M745 1055q160 0 252.5 -116t92.5 -325q0 -183 -62.5 -329.5t-172 -228t-245.5 -81.5q-99 0 -167.5 36t-98.5 73l-78 -547q-3 -26 -16 -37.5t-39 -11.5h-199q-26 0 -36 11.5t-7 37.5l203 1444q3 25 16 36t39 11h201q49 0 43 -47l-4 -29q124 103 278 103zM545 217 q107 0 175 105.5t68 261.5q0 114 -42.5 171.5t-120.5 57.5q-100 0 -191 -84l-61 -434q20 -26 66.5 -52t105.5 -26z" />
<glyph unicode="q" horiz-adv-x="1140" d="M1059 1028q49 0 43 -47l-205 -1444q-3 -26 -16 -37.5t-39 -11.5h-199q-26 0 -36 11.5t-7 37.5l78 549q-22 -22 -52.5 -43.5t-91.5 -44.5t-124 -23q-161 0 -256 121t-95 334q0 181 65 324.5t176 222t245 78.5q52 0 98 -12.5t76.5 -32t48.5 -35.5t29 -31l6 37q3 25 16 36 t39 11h201zM528 217q82 0 179 78l61 436q-7 9 -18.5 20t-32 26.5t-50.5 25.5t-63 10q-105 0 -174.5 -98.5t-69.5 -251.5q0 -119 45 -182.5t123 -63.5z" />
<glyph unicode="r" horiz-adv-x="851" d="M887 954q1 -1 2 -3q28 -41 6 -66q-12 -12 -123 -129q-12 -13 -27 -16.5t-30 8.5q-21 18 -35.5 28.5t-38.5 19.5t-51 9q-41 0 -78 -20t-53.5 -38t-28.5 -36l-92 -662q-3 -26 -16 -37.5t-39 -11.5h-201q-26 0 -35 11t-6 38l131 932q5 27 17 38t38 11h199q27 0 37 -11.5 t6 -37.5l-2 -18q97 92 213 92q124 0 207 -101z" />
<glyph unicode="s" horiz-adv-x="937" d="M408 -25q-220 0 -381 113q-15 12 -17 29.5t10 32.5l72 108q29 47 72 23q50 -29 77 -43t73 -28.5t89 -14.5q64 0 103 27.5t39 70.5q0 32 -28 58t-54 38.5t-91 37.5q-8 3 -12 5q-41 16 -70 30.5t-60 38t-50.5 50.5t-32 66.5t-12.5 87.5q0 160 119.5 255t294.5 95 q96 0 181.5 -26.5t137.5 -63.5q33 -28 11 -64l-68 -104q-21 -34 -68 -6q-93 45 -178 45q-62 0 -97.5 -25t-35.5 -70q0 -39 31.5 -60.5t118.5 -55.5q47 -18 78.5 -33t70 -41t61 -54.5t38.5 -72t16 -96.5q0 -158 -119.5 -255.5t-318.5 -97.5z" />
<glyph unicode="t" horiz-adv-x="899" d="M473 -25q-168 1 -252 107.5t-59 279.5l61 443h-94q-49 0 -41 49l18 127q3 26 16.5 37.5t39.5 11.5h94l37 256q6 49 55 49h201q25 0 34.5 -11.5t6.5 -37.5l-35 -256h215q49 0 43 -49l-20 -127q-3 -26 -16.5 -37.5t-39.5 -11.5h-215l-63 -451q-9 -62 15.5 -99.5t80.5 -37.5 q65 0 121 53q36 33 63 -4l74 -84q17 -24 11.5 -39.5t-33.5 -42.5q-135 -128 -318 -125z" />
<glyph unicode="u" horiz-adv-x="1142" d="M1040 1030q27 0 37 -11.5t6 -37.5l-131 -932q-3 -26 -16 -37.5t-39 -11.5h-201q-26 0 -35 11t-6 38l2 19q-103 -93 -254 -93q-161 0 -256.5 104t-70.5 281l86 621q5 27 17 38t38 11h201q26 0 35.5 -11.5t5.5 -37.5l-80 -580q-13 -91 27.5 -141.5t113.5 -50.5 q58 0 102.5 26.5t65.5 53.5l98 692q5 26 17.5 37.5t38.5 11.5h198z" />
<glyph unicode="v" horiz-adv-x="1042" d="M344 0q-21 0 -32 9.5t-17 35.5l-203 940q-4 24 10 34.5t37 10.5h199q22 0 33.5 -7.5t15.5 -29.5l107 -674l294 674q14 37 58 37h198q24 0 35.5 -10.5t-0.5 -34.5l-467 -940q-13 -26 -26 -35.5t-33 -9.5h-209z" />
<glyph unicode="w" horiz-adv-x="1636" d="M297 0q-24 0 -34 10.5t-13 34.5l-148 942q-4 24 10.5 33.5t37.5 9.5h200q24 0 34 -8t13 -31l64 -629l278 623q20 45 62 45h178q41 0 47 -45l100 -623l242 629q15 39 62 39h200q50 0 33 -43l-410 -942q-20 -45 -61 -45h-209q-23 0 -33.5 10.5t-13.5 34.5l-105 580 l-266 -580q-11 -24 -24 -34.5t-35 -10.5h-209z" />
<glyph unicode="x" horiz-adv-x="1071" d="M-2 0q-23 0 -26 16t12 35l385 477l-240 451q-10 19 -3 35t30 16h225q27 0 39.5 -11t25.5 -40l117 -250l189 250q20 29 35 40t42 11h226q23 0 26 -16t-12 -35l-364 -451l249 -477q10 -19 2.5 -35t-32.5 -16h-230q-24 0 -35 10.5t-24 40.5l-129 266l-203 -266 q-22 -30 -36 -40.5t-38 -10.5h-231z" />
<glyph unicode="y" horiz-adv-x="1079" d="M72 -551q-117 0 -203 51q-37 19 -16 60l77 137q7 15 20.5 22t33.5 0q54 -20 94 -20q55 0 94 30.5t70 90.5l94 188l-207 977q-11 45 45 45h201q22 0 33 -7.5t14 -29.5l106 -671l295 671q17 37 60 37h198q24 0 35 -10.5t0 -34.5l-610 -1233q-75 -149 -185.5 -226 t-248.5 -77z" />
<glyph unicode="z" horiz-adv-x="993" d="M395 233h439q26 0 36 -11t7 -36l-21 -137q-3 -26 -16 -37.5t-39 -11.5h-756q-26 0 -35.5 11.5t-5.5 37.5l19 141q4 36 24 56l528 551h-399q-47 0 -41 47l21 137q3 26 15.5 37.5t37.5 11.5h727q26 0 36 -11.5t7 -37.5l-18 -125q-5 -40 -35 -72z" />
<glyph unicode="{" horiz-adv-x="796" d="M553 -440q-220 3 -323.5 106.5t-75.5 298.5l67 488q6 51 5.5 90.5t-24.5 63.5t-73 24q-25 0 -34.5 11.5t-6.5 37.5l23 151q6 50 53 50q70 0 99.5 45t43.5 133l41 284q31 196 162 298.5t350 107.5q47 3 41 -47l-20 -154q-6 -46 -58 -49q-161 -10 -192 -221l-43 -309 q-12 -78 -40.5 -123.5t-78.5 -89.5q76 -91 57 -230l-71 -501q-4 -28 -5 -46.5t-0.5 -45.5t9 -45.5t22.5 -36.5t41 -28.5t64 -12.5q26 -1 36 -13t7 -37l-21 -151q-9 -52 -55 -49z" />
<glyph unicode="|" horiz-adv-x="561" d="M29 -551q-26 0 -35.5 11.5t-5.5 37.5l278 1989q3 26 16.5 37.5t39.5 11.5h198q27 0 37 -11.5t6 -37.5l-278 -1989q-8 -49 -58 -49h-198z" />
<glyph unicode="}" horiz-adv-x="794" d="M-29 -440q-26 -1 -36 10.5t-5 38.5l21 151q6 47 55 50q45 3 79.5 18.5t53.5 35.5t32.5 51t18 54t9.5 56l71 501q20 143 121 230q-38 44 -54 89t-5 124l43 309q27 211 -131 221q-25 2 -34.5 13t-6.5 36l20 154q9 50 56 47q219 -3 322 -106.5t77 -299.5l-39 -284 q-6 -51 -5.5 -90.5t24 -63.5t71.5 -24q49 0 43 -50l-22 -151q-3 -26 -16.5 -37.5t-39.5 -11.5q-70 0 -99.5 -45t-41.5 -133l-70 -488q-27 -194 -159 -296.5t-353 -108.5z" />
<glyph unicode="~" horiz-adv-x="1054" d="M721 647q-53 0 -100.5 13.5t-76.5 29.5t-68 29.5t-77 13.5q-33 0 -72 -15.5t-71 -51.5q-23 -29 -49 -9l-84 62q-24 18 -2 47q56 71 132 112.5t153 41.5q51 0 97 -13.5t74 -29.5t66.5 -29.5t77.5 -13.5q86 0 145 67q24 24 49 6l89 -63q25 -19 2 -49q-55 -69 -131.5 -108.5 t-153.5 -39.5z" />
<glyph unicode="&#xa1;" horiz-adv-x="501" d="M145 897q15 59 65.5 99t111.5 40q75 0 116.5 -52t20.5 -126q-17 -61 -69.5 -103t-113.5 -42q-74 0 -113.5 54.5t-17.5 129.5zM197 584h125q46 0 43 -49l-109 -998q-6 -49 -55 -49h-197q-25 0 -34 11.5t-5 37.5l174 998q6 49 58 49z" />
<glyph unicode="&#xa2;" horiz-adv-x="985" d="M954 940q24 -19 4 -57l-73 -123q-21 -38 -62 -10q-92 63 -188 63q-120 0 -196.5 -93.5t-76.5 -244.5h-2q0 -117 51 -187.5t154 -70.5q98 0 185 66q39 24 59 -7l65 -114q21 -35 -8 -58q-98 -88 -256 -118l-14 -109q-5 -25 -18 -36t-39 -11h-199q-26 0 -36 11t-7 36l18 131 q-122 47 -187 164t-65 287q0 221 109 374t289 201l16 117q6 49 55 49h201q47 0 41 -49l-14 -113q113 -28 194 -98z" />
<glyph unicode="&#xa3;" horiz-adv-x="1103" d="M967 254q50 0 41 -49l-21 -156q-6 -49 -55 -49h-772q-50 0 -41 49l84 594h-97q-25 0 -34.5 11.5t-5.5 37.5l18 127q3 26 15.5 37.5t37.5 11.5h96l43 306q16 118 81.5 207t161 134.5t204.5 45.5q178 0 278 -123q22 -28 22.5 -44.5t-22.5 -39.5l-98 -84q-41 -35 -65 -2 q-39 51 -107 51q-54 0 -95 -37.5t-50 -101.5l-45 -312h336q27 0 37 -11.5t6 -37.5l-19 -127q-6 -49 -55 -49h-336l-55 -389h512z" />
<glyph unicode="&#xa5;" horiz-adv-x="1189" d="M1307 1485l-537 -811l-2 -17h152q26 0 36 -11t7 -36l-13 -82q-8 -49 -57 -49h-150l-16 -106h152q26 0 36 -11.5t7 -37.5l-13 -82q-3 -25 -16 -36t-39 -11h-152l-20 -146q-6 -49 -55 -49h-211q-49 0 -43 49l20 146h-149q-50 0 -41 47l10 82q6 49 55 49h150l16 106h-151 q-25 0 -34.5 11.5t-6.5 37.5l12 82q5 25 17.5 36t37.5 11h150l2 17l-307 813q-10 25 -2.5 37t34.5 12h217q44 0 56 -37l192 -571l355 571q24 37 63 37h215q27 0 33 -14t-10 -37z" />
<glyph unicode="&#xa7;" horiz-adv-x="966" d="M633 1264q-63 0 -103.5 -23.5t-40.5 -73.5q0 -26 20 -45.5t42 -29.5t78 -30l24 -9q49 -17 83.5 -31t76 -39t67 -53t43 -70t17.5 -92q0 -77 -33 -149t-102 -125q72 -69 72 -168q0 -163 -134 -265t-356 -102q-204 0 -375 111q-13 8 -16 18t0.5 18.5t11.5 22.5l72 107 q33 51 78 26q154 -84 254 -84q68 0 114.5 28.5t46.5 74.5q0 23 -14 41.5t-42 34t-58 27.5t-74 28q-8 3 -12 4q-43 16 -72 28.5t-65 35t-57.5 48t-36.5 65t-15 87.5q0 175 139 272q-78 61 -78 170q0 111 65.5 195t169.5 125t228 41q182 0 324 -94q13 -9 16 -19t-0.5 -18.5 t-11.5 -22.5l-78 -115q-20 -32 -67 -8q-112 58 -201 58zM680 725q0 15 -5 28t-18.5 24.5t-24 19t-34.5 16.5t-36.5 13.5t-42.5 14t-42 13.5q-36 -18 -62 -55t-26 -76q0 -22 10 -38.5t33 -28t43 -18.5t57 -18t58 -18q38 19 64 54t26 69z" />
<glyph unicode="&#xa8;" horiz-adv-x="870" d="M422 1499q-59 0 -97 38.5t-38 96.5q0 72 54 125t126 53q58 0 97.5 -41t39.5 -100q0 -70 -55.5 -121t-126.5 -51zM864 1499q-59 0 -97 38.5t-38 96.5q0 71 54.5 124.5t125.5 53.5q59 0 98.5 -41t39.5 -100q0 -71 -55.5 -121.5t-127.5 -50.5z" />
<glyph unicode="&#xa9;" horiz-adv-x="1632" d="M748 -23q-206 0 -362.5 87.5t-240.5 242.5t-84 355q0 191 71 358.5t192.5 286t289.5 186.5t357 68q302 0 484.5 -189.5t182.5 -492.5q0 -191 -69 -359t-188 -287t-283.5 -187.5t-349.5 -68.5zM772 162q140 0 264 52.5t213.5 143.5t142 220t52.5 276q0 231 -136.5 375.5 t-363.5 144.5q-192 0 -349.5 -88.5t-249 -247t-91.5 -354.5q0 -232 142.5 -377t375.5 -145zM801 344q-165 0 -254.5 92.5t-89.5 259.5q0 230 126 365t337 135q192 0 278 -121q10 -15 8 -30t-14 -23l-72 -64q-16 -14 -26.5 -16t-26.5 8q-73 66 -156 66q-109 0 -176 -79 t-67 -214q0 -95 46.5 -148t129.5 -53q81 0 172 66q27 19 49 -6l55 -64q22 -25 -8 -55q-128 -119 -311 -119z" />
<glyph unicode="&#xab;" horiz-adv-x="1015" d="M66 489q-29 32 8 62l463 389q20 15 31.5 8.5t9.5 -22.5l-25 -189q-6 -36 -39 -61l-184 -154l141 -157q24 -28 18 -64l-24 -188q-2 -15 -15.5 -22t-31.5 9zM485 489q-29 32 9 62l462 389q20 15 31.5 8.5t9.5 -22.5l-24 -189q-6 -36 -39 -61l-184 -154l141 -157 q24 -28 18 -64l-24 -188q-2 -15 -15.5 -22t-31.5 9z" />
<glyph unicode="&#xad;" horiz-adv-x="792" d="M109 446q-41 0 -35 50l20 129q3 26 13 37.5t32 11.5h553q43 0 35 -49l-18 -129q-6 -50 -47 -50h-553z" />
<glyph unicode="&#xae;" horiz-adv-x="1630" d="M748 -23q-202 0 -359.5 90.5t-242.5 247.5t-85 353q0 184 73 350t195.5 284.5t290.5 188.5t351 70q146 0 271 -52.5t211 -144.5t134.5 -219.5t48.5 -274.5q0 -184 -71.5 -350t-191 -284.5t-283.5 -188.5t-342 -70zM772 162q135 0 258.5 54t214 145.5t144 218.5t53.5 266 q0 228 -139 378t-361 150q-138 0 -264.5 -53.5t-219.5 -144.5t-148.5 -218t-55.5 -266q0 -230 144.5 -380t373.5 -150zM522 344q-30 0 -24 29l110 792q3 31 35 31h318q117 0 188.5 -62.5t71.5 -166.5q0 -111 -66 -187t-162 -96l135 -311q6 -12 -0.5 -20.5t-23.5 -8.5h-123 q-25 0 -35 23l-131 301h-104l-41 -295q-6 -29 -37 -29h-111zM731 815h164q66 0 109 35t43 98q0 48 -32.5 73.5t-88.5 25.5h-162z" />
<glyph unicode="&#xaf;" horiz-adv-x="632" d="M236 1642q3 26 16 38t39 12h526q26 0 35 -11.5t6 -38.5l-12 -88q-3 -26 -16 -37.5t-39 -11.5h-525q-26 0 -36 11.5t-7 37.5z" />
<glyph unicode="&#xb0;" horiz-adv-x="655" d="M391 987q-88 0 -145.5 60t-57.5 147q0 106 82 185t187 79q90 0 147.5 -60t57.5 -149q0 -106 -81.5 -184t-189.5 -78zM414 1147q34 0 60 25t26 59q0 28 -18 46.5t-46 18.5q-34 0 -60 -25t-26 -57q0 -28 18.5 -47.5t45.5 -19.5z" />
<glyph unicode="&#xb4;" horiz-adv-x="684" d="M342 1542q-39 -29 -66 17l-40 55q-24 37 8 63l327 269q42 34 70 -4l61 -93q28 -42 -12 -69z" />
<glyph unicode="&#xb6;" horiz-adv-x="1835" d="M1163 -598q-47 0 -41 49l258 1829h-295l-258 -1829q-6 -49 -55 -49h-205q-47 0 -41 49l166 1178h-145q-177 0 -291.5 114t-114.5 285q0 135 69 252.5t185.5 186.5t249.5 69h1215q49 0 43 -49l-23 -158q-6 -49 -57 -49h-142l-258 -1829q-6 -49 -55 -49h-205z" />
<glyph unicode="&#xb7;" horiz-adv-x="475" d="M178 651q-39 35 -39.5 87.5t35.5 90.5q29 50 85 66t103 -12q41 -35 42 -89.5t-35 -93.5q-29 -49 -86.5 -63.5t-104.5 14.5z" />
<glyph unicode="&#xb8;" horiz-adv-x="759" d="M279 -567q-74 0 -119 26q-13 11 -4 35l57 115q11 23 33 12q23 -10 49 -10q49 0 77.5 29t28.5 75q0 35 -20.5 54.5t-54.5 19.5q-51 0 -82 -39q-13 -16 -37 -10l-88 22q-35 8 -23 37l119 275l168 -15l-64 -147q38 18 95 18q84 0 134 -54t50 -142q0 -138 -91 -219.5 t-228 -81.5z" />
<glyph unicode="&#xbb;" horiz-adv-x="1015" d="M553 489l-461 -389q-23 -16 -35 -9t-10 22l29 188q3 35 37 64l186 157l-141 154q-26 26 -23 61l29 189q4 16 16.5 22.5t28.5 -8.5l354 -389q28 -31 -10 -62zM973 489l-461 -389q-23 -16 -35 -9t-10 22l29 188q3 36 36 64l187 157l-141 154q-26 26 -23 61l29 189 q4 16 16.5 22.5t28.5 -8.5l354 -389q28 -31 -10 -62z" />
<glyph unicode="&#xbc;" horiz-adv-x="1228" d="M92 0q-27 0 -37 13t4 36l904 1434q15 21 22.5 30t20 16t28.5 7h164q27 0 37 -13t-4 -38l-905 -1432q-20 -30 -34 -41.5t-38 -11.5h-162zM242 924q-22 0 -19 22l53 377l-53 -47q-14 -14 -26 0l-70 80q-13 16 6 30l170 140q10 10 27 10h157q20 0 17 -25l-78 -565 q-3 -22 -27 -22h-157zM874 0q-20 0 -20 23l14 94h-237q-22 0 -19 22l13 94q3 20 18 41l285 326q14 18 33 18h157q22 0 19 -24l-45 -324h34q12 0 17.5 -6.5t3.5 -15.5l-17 -109q-3 -22 -24 -22h-37l-12 -94q-3 -23 -25 -23h-158zM815 270h74l16 111z" />
<glyph unicode="&#xbd;" horiz-adv-x="1198" d="M78 0q-26 0 -35.5 13t4.5 36l903 1434q20 30 34 41.5t38 11.5h164q28 0 37.5 -13t-6.5 -38l-904 -1432q-20 -30 -33.5 -41.5t-37.5 -11.5h-164zM242 924q-22 0 -19 22l53 377l-53 -47q-14 -14 -26 0l-70 80q-13 16 6 30l170 140q10 10 27 10h157q20 0 17 -25l-78 -565 q-3 -22 -27 -22h-157zM698 -2q-21 0 -18 22l16 115q6 46 33.5 86t62.5 67.5t68.5 51t56.5 47t23 45.5q0 13 -9.5 22t-25.5 9q-28 0 -74 -37q-18 -15 -28 4l-58 84q-9 13 9 31q93 80 207 80q85 0 133.5 -42t48.5 -112q0 -44 -17 -81t-43 -60.5t-56.5 -45.5t-57.5 -37.5 t-46 -36t-22 -42.5v-10h178q22 0 19 -23l-17 -115q-3 -22 -24 -22h-359z" />
<glyph unicode="&#xbe;" horiz-adv-x="1224" d="M289 913q-71 0 -122.5 27t-74.5 57q-12 17 2 31l80 84q16 13 31 2q43 -37 71 -37t45 16t17 44q0 22 -13 34.5t-36 12.5q-21 0 -19 22l11 72q0 4 1 7.5t3 5.5t3 3.5t4 2.5t4 1.5t5 1.5h4q26 3 41.5 19.5t15.5 38.5q0 33 -36 33q-34 0 -70 -33q-15 -13 -29 4l-51 72 q-12 15 6 30q30 32 84 57t115 25q80 0 133 -39t53 -104q0 -52 -27.5 -93t-64.5 -63q25 -15 43.5 -50.5t18.5 -80.5q0 -90 -72 -146.5t-176 -56.5zM104 0q-27 0 -36 13t4 36l905 1434q16 29 30.5 41t39.5 12h163q27 0 37 -13t-4 -38l-905 -1432q-20 -30 -33.5 -41.5 t-36.5 -11.5h-164zM868 0q-20 0 -20 23l14 94h-237q-22 0 -19 22l12 94q3 18 19 41l285 326q14 18 32 18h158q21 0 18 -24l-45 -324h35q12 0 17.5 -6.5t3.5 -15.5l-17 -109q-3 -22 -24 -22h-37l-12 -94q-3 -23 -25 -23h-158zM809 270h74l16 111z" />
<glyph unicode="&#xbf;" horiz-adv-x="948" d="M584 1034q61 0 100 -40t39 -99q0 -74 -56 -129t-130 -55q-61 0 -101.5 42t-40.5 103q0 74 57 126t132 52zM604 582q23 0 33 -9.5t10 -31.5q0 -91 -20.5 -166.5t-53 -126.5t-72 -93.5t-79.5 -77t-72.5 -67.5t-53 -73.5t-20.5 -86.5q0 -70 42 -106.5t112 -36.5 q108 0 213 94q38 30 62 -4l79 -104q23 -32 -12 -70q-76 -76 -188 -124t-238 -48q-175 0 -277 87.5t-102 242.5q0 73 21.5 133.5t57 104t78.5 83t88 81t83 88t65.5 113.5t34.5 148q6 50 58 50h151z" />
<glyph unicode="&#xc0;" d="M827 1671l-280 238q-33 26 4 69l90 93q38 38 70 4l252 -269q26 -26 -11 -63l-55 -55q-21 -23 -35 -27.5t-35 10.5zM-16 0q-49 0 -25 49l655 1438q21 49 70 49h188q51 0 60 -49l250 -1438q6 -49 -41 -49h-209q-25 0 -36.5 11.5t-14.5 37.5l-45 313h-443l-135 -313 q-18 -49 -63 -49h-211zM496 612h307l-80 533z" />
<glyph unicode="&#xc1;" d="M788 1669q-38 -28 -65 17l-41 55q-24 37 8 63l328 269q41 33 69 -5l62 -92q28 -42 -12 -69zM-16 0q-49 0 -25 49l655 1438q21 49 70 49h188q51 0 60 -49l250 -1438q6 -49 -41 -49h-209q-25 0 -36.5 11.5t-14.5 37.5l-45 313h-443l-135 -313q-18 -49 -63 -49h-211z M496 612h307l-80 533z" />
<glyph unicode="&#xc2;" d="M825 1855l-200 -180q-39 -33 -68 0l-63 74q-33 33 8 68l319 243q37 30 64 0l250 -243q34 -34 -9 -68l-84 -74q-41 -33 -67 0zM-16 0q-49 0 -25 49l655 1438q21 49 70 49h188q51 0 60 -49l250 -1438q6 -49 -41 -49h-209q-25 0 -36.5 11.5t-14.5 37.5l-45 313h-443 l-135 -313q-18 -49 -63 -49h-211zM496 612h307l-80 533z" />
<glyph unicode="&#xc3;" d="M954 1669q-44 0 -86 13.5t-68.5 29.5t-60 29.5t-63.5 13.5q-66 0 -123 -67q-25 -25 -49 -7l-86 60q-25 21 0 49q116 152 264 152q53 0 102 -21t92 -42t80 -21q67 0 125 65q22 28 49 8l89 -65q12 -8 12 -21t-12 -26q-115 -150 -265 -150zM-16 0q-49 0 -25 49l655 1438 q21 49 70 49h188q51 0 60 -49l250 -1438q6 -49 -41 -49h-209q-25 0 -36.5 11.5t-14.5 37.5l-45 313h-443l-135 -313q-18 -49 -63 -49h-211zM496 612h307l-80 533z" />
<glyph unicode="&#xc4;" d="M575 1665q-59 0 -97 38.5t-38 96.5q0 72 54.5 125t126.5 53q58 0 97.5 -41t39.5 -100q0 -70 -56 -121t-127 -51zM1018 1665q-59 0 -97 38.5t-38 96.5q0 71 54.5 124.5t125.5 53.5q59 0 98 -41t39 -100q0 -71 -55 -121.5t-127 -50.5zM-16 0q-49 0 -25 49l655 1438 q21 49 70 49h188q51 0 60 -49l250 -1438q6 -49 -41 -49h-209q-25 0 -36.5 11.5t-14.5 37.5l-45 313h-443l-135 -313q-18 -49 -63 -49h-211zM496 612h307l-80 533z" />
<glyph unicode="&#xc5;" d="M791 1638q-88 0 -145.5 60t-57.5 147q0 106 81.5 185t186.5 79q90 0 147.5 -59.5t57.5 -148.5q0 -107 -81 -185t-189 -78zM813 1798q34 0 60 25t26 59q0 28 -18 47t-45 19q-34 0 -60 -25t-26 -57q0 -28 18 -48t45 -20zM-16 0q-49 0 -25 49l655 1438q21 49 70 49h188 q51 0 60 -49l250 -1438q6 -49 -41 -49h-209q-25 0 -36.5 11.5t-14.5 37.5l-45 313h-443l-135 -313q-18 -49 -63 -49h-211zM496 612h307l-80 533z" />
<glyph unicode="&#xc6;" horiz-adv-x="1875" d="M-12 0q-26 0 -33.5 12t8.5 37l983 1438q19 28 33.5 38.5t38.5 10.5h835q49 0 43 -49l-22 -152q-6 -49 -55 -49h-519l-51 -366h437q49 0 40 -50l-18 -143q-6 -49 -57 -49h-434l-60 -428h537q47 0 41 -49l-21 -152q-6 -49 -55 -49h-799q-49 0 -43 49l43 305h-377l-209 -305 q-27 -36 -39 -43q-12 -6 -28 -6h-219zM633 590h260l70 487z" />
<glyph unicode="&#xc7;" horiz-adv-x="1259" d="M1311 1393q25 -25 -4 -54l-113 -127q-30 -30 -61 -2q-113 101 -252 101q-103 0 -188.5 -51t-142 -139t-87.5 -204t-31 -247q0 -204 79 -322.5t230 -118.5q135 0 263 90q41 25 59 -10l74 -133q17 -29 -13 -53q-80 -61 -195 -104t-243 -44l-27 -71q42 18 97 18 q86 0 138 -59t52 -156q0 -128 -83 -205t-218 -77q-89 0 -137 30q-14 11 -2 33l53 113q11 22 35 12q23 -10 51 -10q47 0 76 28t29 72q0 36 -21 57t-55 21q-51 0 -84 -39q-13 -17 -35 -10l-88 22q-33 7 -23 37l76 205q-193 51 -299 222t-106 423q0 192 58.5 363t159.5 294.5 t242.5 195t301.5 71.5q149 0 258.5 -51.5t175.5 -120.5z" />
<glyph unicode="&#xc8;" horiz-adv-x="1138" d="M752 1671l-281 238q-33 26 4 69l90 93q38 38 70 4l252 -269q27 -26 -10 -63l-56 -55q-21 -23 -34.5 -27.5t-34.5 10.5zM115 0q-49 0 -43 49l202 1438q6 49 56 49h784q51 0 45 -49l-22 -156q-9 -49 -58 -49h-526l-49 -358h444q50 0 41 -50l-20 -151q-6 -49 -56 -49h-444 l-59 -420h546q47 0 41 -49l-20 -156q-9 -49 -57 -49h-805z" />
<glyph unicode="&#xc9;" horiz-adv-x="1138" d="M713 1669q-39 -29 -66 17l-41 55q-24 37 8 63l328 269q42 34 70 -5l61 -92q28 -42 -12 -69zM115 0q-49 0 -43 49l202 1438q6 49 56 49h784q51 0 45 -49l-22 -156q-9 -49 -58 -49h-526l-49 -358h444q50 0 41 -50l-20 -151q-6 -49 -56 -49h-444l-59 -420h546q47 0 41 -49 l-20 -156q-9 -49 -57 -49h-805z" />
<glyph unicode="&#xca;" horiz-adv-x="1138" d="M750 1855l-201 -180q-39 -33 -68 0l-63 74q-33 33 8 68l319 243q37 30 64 0l250 -243q34 -34 -8 -68l-84 -74q-42 -33 -68 0zM115 0q-49 0 -43 49l202 1438q6 49 56 49h784q51 0 45 -49l-22 -156q-9 -49 -58 -49h-526l-49 -358h444q50 0 41 -50l-20 -151q-6 -49 -56 -49 h-444l-59 -420h546q47 0 41 -49l-20 -156q-9 -49 -57 -49h-805z" />
<glyph unicode="&#xcb;" horiz-adv-x="1138" d="M500 1665q-59 0 -97 38.5t-38 96.5q0 72 54 125t126 53q58 0 97.5 -41t39.5 -100q0 -70 -55.5 -121t-126.5 -51zM942 1665q-59 0 -97 38.5t-38 96.5q0 71 54.5 124.5t125.5 53.5q59 0 98 -41t39 -100q0 -71 -55 -121.5t-127 -50.5zM115 0q-49 0 -43 49l202 1438 q6 49 56 49h784q51 0 45 -49l-22 -156q-9 -49 -58 -49h-526l-49 -358h444q50 0 41 -50l-20 -151q-6 -49 -56 -49h-444l-59 -420h546q47 0 41 -49l-20 -156q-9 -49 -57 -49h-805z" />
<glyph unicode="&#xcc;" horiz-adv-x="587" d="M485 1671l-280 238q-33 26 4 69l90 93q38 38 70 4l252 -269q26 -26 -11 -63l-55 -55q-21 -23 -35 -27.5t-35 10.5zM115 0q-49 0 -43 49l202 1438q6 49 56 49h211q49 0 43 -49l-203 -1438q-9 -49 -55 -49h-211z" />
<glyph unicode="&#xcd;" horiz-adv-x="587" d="M446 1669q-38 -28 -65 17l-41 55q-24 37 8 63l328 269q41 33 69 -5l62 -92q28 -42 -12 -69zM115 0q-49 0 -43 49l202 1438q6 49 56 49h211q49 0 43 -49l-203 -1438q-9 -49 -55 -49h-211z" />
<glyph unicode="&#xce;" horiz-adv-x="587" d="M483 1855l-200 -180q-39 -33 -68 0l-63 74q-33 33 8 68l319 243q37 30 64 0l250 -243q34 -34 -9 -68l-84 -74q-41 -33 -67 0zM115 0q-49 0 -43 49l202 1438q6 49 56 49h211q49 0 43 -49l-203 -1438q-9 -49 -55 -49h-211z" />
<glyph unicode="&#xcf;" horiz-adv-x="587" d="M233 1665q-59 0 -97 38.5t-38 96.5q0 72 54.5 125t126.5 53q58 0 97.5 -41t39.5 -100q0 -70 -56 -121t-127 -51zM676 1665q-59 0 -97 38.5t-38 96.5q0 71 54.5 124.5t125.5 53.5q59 0 98 -41t39 -100q0 -71 -55 -121.5t-127 -50.5zM115 0q-49 0 -43 49l202 1438 q6 49 56 49h211q49 0 43 -49l-203 -1438q-9 -49 -55 -49h-211z" />
<glyph unicode="&#xd0;" horiz-adv-x="1445" d="M786 1536q617 0 617 -627q0 -268 -96 -472.5t-283 -320.5t-440 -116h-467q-49 0 -43 49l112 797h-67q-26 0 -35.5 11.5t-5.5 37.5l6 61q9 50 57 50h68l67 481q6 49 56 49h454zM610 254q146 0 258 82t172 225.5t60 323.5q0 218 -90 307.5t-275 89.5h-180l-39 -276h209 q49 0 43 -50l-8 -61q-8 -49 -55 -49h-211l-82 -592h198z" />
<glyph unicode="&#xd1;" horiz-adv-x="1462" d="M1042 1669q-44 0 -86 13.5t-68.5 29.5t-60 29.5t-63.5 13.5q-66 0 -123 -67q-25 -25 -49 -7l-86 60q-25 21 0 49q116 152 264 152q53 0 102 -21t92 -42t80 -21q67 0 125 65q23 28 50 8l88 -65q12 -8 12 -21t-12 -26q-115 -150 -265 -150zM115 0q-49 0 -43 49l202 1438 q6 49 56 49h168q31 0 47 -29l489 -903l125 883q6 49 53 49h203q49 0 43 -49l-203 -1438q-6 -49 -55 -49h-170q-30 0 -47 33l-485 915l-127 -899q-6 -49 -56 -49h-200z" />
<glyph unicode="&#xd2;" horiz-adv-x="1550" d="M967 1671l-281 238q-33 26 4 69l90 93q38 38 70 4l252 -269q14 -16 11.5 -30t-21.5 -33l-56 -55q-21 -23 -34.5 -27.5t-34.5 10.5zM907 1561q287 0 441.5 -172t154.5 -486q0 -280 -94.5 -489t-274 -324t-423.5 -115q-283 0 -439.5 175t-156.5 485q0 278 94.5 487 t274.5 324t423 115zM748 229q205 0 320.5 176.5t115.5 475.5q0 207 -80 316.5t-230 109.5q-207 0 -323.5 -176.5t-116.5 -473.5q0 -204 82.5 -316t231.5 -112z" />
<glyph unicode="&#xd3;" horiz-adv-x="1550" d="M928 1669q-39 -29 -66 17l-41 55q-24 37 8 63l328 269q42 34 70 -5l61 -92q28 -42 -12 -69zM907 1561q287 0 441.5 -172t154.5 -486q0 -280 -94.5 -489t-274 -324t-423.5 -115q-283 0 -439.5 175t-156.5 485q0 278 94.5 487t274.5 324t423 115zM748 229 q205 0 320.5 176.5t115.5 475.5q0 207 -80 316.5t-230 109.5q-207 0 -323.5 -176.5t-116.5 -473.5q0 -204 82.5 -316t231.5 -112z" />
<glyph unicode="&#xd4;" horiz-adv-x="1550" d="M965 1855l-201 -180q-39 -33 -68 0l-63 74q-33 33 8 68l320 243q37 29 63 0l250 -243q34 -34 -8 -68l-84 -74q-42 -33 -68 0zM907 1561q287 0 441.5 -172t154.5 -486q0 -280 -94.5 -489t-274 -324t-423.5 -115q-283 0 -439.5 175t-156.5 485q0 278 94.5 487t274.5 324 t423 115zM748 229q205 0 320.5 176.5t115.5 475.5q0 207 -80 316.5t-230 109.5q-207 0 -323.5 -176.5t-116.5 -473.5q0 -204 82.5 -316t231.5 -112z" />
<glyph unicode="&#xd5;" horiz-adv-x="1550" d="M1092 1669q-55 0 -105 21t-92 42t-78 21q-66 0 -123 -65q-25 -25 -49 -7l-84 58q-25 21 0 49q114 149 262 149q52 0 101 -20.5t91 -41t79 -20.5q66 0 125 64q22 27 47 8l88 -63q12 -7 12 -20.5t-12 -26.5q-113 -148 -262 -148zM907 1561q287 0 441.5 -172t154.5 -486 q0 -280 -94.5 -489t-274 -324t-423.5 -115q-283 0 -439.5 175t-156.5 485q0 278 94.5 487t274.5 324t423 115zM748 229q205 0 320.5 176.5t115.5 475.5q0 207 -80 316.5t-230 109.5q-207 0 -323.5 -176.5t-116.5 -473.5q0 -204 82.5 -316t231.5 -112z" />
<glyph unicode="&#xd6;" horiz-adv-x="1550" d="M715 1665q-59 0 -97 38.5t-38 96.5q0 72 54 125t126 53q58 0 97.5 -41t39.5 -100q0 -70 -55.5 -121t-126.5 -51zM1157 1665q-59 0 -97 38.5t-38 96.5q0 71 54.5 124.5t125.5 53.5q59 0 98 -41t39 -100q0 -71 -55 -121.5t-127 -50.5zM907 1561q287 0 441.5 -172 t154.5 -486q0 -280 -94.5 -489t-274 -324t-423.5 -115q-283 0 -439.5 175t-156.5 485q0 278 94.5 487t274.5 324t423 115zM748 229q205 0 320.5 176.5t115.5 475.5q0 207 -80 316.5t-230 109.5q-207 0 -323.5 -176.5t-116.5 -473.5q0 -204 82.5 -316t231.5 -112z" />
<glyph unicode="&#xd7;" horiz-adv-x="860" d="M831 1012q26 -36 -10 -70l-205 -180l154 -178q29 -36 -10 -70l-96 -84q-42 -35 -70 0l-154 178l-202 -178q-39 -36 -70 0l-72 84q-31 34 8 70l205 180l-153 178q-29 36 8 70l98 84q39 36 68 0l153 -178l205 178q22 19 37.5 19t32.5 -19z" />
<glyph unicode="&#xd8;" horiz-adv-x="1538" d="M1573 1536q27 0 34 -14t-14 -37l-180 -199q82 -158 82 -383q0 -279 -94.5 -488.5t-274.5 -324.5t-424 -115q-225 0 -374 115l-35 -37q-26 -30 -43 -41.5t-41 -11.5h-156q-26 0 -31.5 13t15.5 36l166 182q-97 163 -97 404q0 278 95 487.5t275 324t423 114.5 q244 0 393 -125l43 47q37 39 51 46q13 7 31 7h156zM426 657q0 -83 16 -161l645 712q-80 99 -221 99q-207 0 -323.5 -176.5t-116.5 -473.5zM1176 881q0 58 -11 133l-635 -699q77 -86 209 -86q205 0 321 176.5t116 475.5z" />
<glyph unicode="&#xd9;" horiz-adv-x="1435" d="M909 1671l-280 238q-33 26 4 69l90 93q38 38 70 4l251 -269q14 -16 11.5 -30t-21.5 -33l-55 -55q-21 -23 -35 -27.5t-35 10.5zM639 -25q-284 0 -418.5 160.5t-89.5 482.5l121 869q9 49 55 49h211q52 0 43 -49l-127 -901q-11 -100 0 -168t47.5 -110t84 -60.5t110.5 -18.5 t116 19t99.5 59.5t79 111t45.5 167.5l127 901q6 49 53 49h213q49 0 43 -49l-123 -869q-45 -322 -224.5 -482.5t-465.5 -160.5z" />
<glyph unicode="&#xda;" horiz-adv-x="1435" d="M870 1669q-38 -28 -65 17l-41 55q-24 37 8 63l328 269q41 33 69 -5l62 -92q28 -42 -12 -69zM639 -25q-284 0 -418.5 160.5t-89.5 482.5l121 869q9 49 55 49h211q52 0 43 -49l-127 -901q-11 -100 0 -168t47.5 -110t84 -60.5t110.5 -18.5t116 19t99.5 59.5t79 111 t45.5 167.5l127 901q6 49 53 49h213q49 0 43 -49l-123 -869q-45 -322 -224.5 -482.5t-465.5 -160.5z" />
<glyph unicode="&#xdb;" horiz-adv-x="1435" d="M907 1855l-200 -180q-39 -33 -68 0l-64 74q-32 32 9 68l319 243q37 30 64 0l250 -243q34 -34 -9 -68l-84 -74q-41 -33 -67 0zM639 -25q-284 0 -418.5 160.5t-89.5 482.5l121 869q9 49 55 49h211q52 0 43 -49l-127 -901q-11 -100 0 -168t47.5 -110t84 -60.5t110.5 -18.5 t116 19t99.5 59.5t79 111t45.5 167.5l127 901q6 49 53 49h213q49 0 43 -49l-123 -869q-45 -322 -224.5 -482.5t-465.5 -160.5z" />
<glyph unicode="&#xdc;" horiz-adv-x="1435" d="M657 1665q-59 0 -97 38.5t-38 96.5q0 72 54 125t126 53q58 0 98 -41t40 -100q0 -70 -56 -121t-127 -51zM1100 1665q-59 0 -97 38.5t-38 96.5q0 71 54.5 124.5t125.5 53.5q59 0 98 -41t39 -100q0 -71 -55 -121.5t-127 -50.5zM639 -25q-284 0 -418.5 160.5t-89.5 482.5 l121 869q9 49 55 49h211q52 0 43 -49l-127 -901q-11 -100 0 -168t47.5 -110t84 -60.5t110.5 -18.5t116 19t99.5 59.5t79 111t45.5 167.5l127 901q6 49 53 49h213q49 0 43 -49l-123 -869q-45 -322 -224.5 -482.5t-465.5 -160.5z" />
<glyph unicode="&#xdd;" horiz-adv-x="1189" d="M748 1669q-39 -29 -66 17l-41 55q-24 37 8 63l328 269q42 34 70 -5l61 -92q28 -42 -12 -69zM1006 1499q24 37 63 37h215q27 0 33 -14t-10 -37l-537 -811l-88 -625q-6 -49 -55 -49h-211q-49 0 -43 49l88 625l-307 813q-10 25 -2.5 37t34.5 12h217q44 0 56 -37l192 -571z " />
<glyph unicode="&#xde;" horiz-adv-x="1269" d="M786 1266q226 0 348.5 -114.5t122.5 -301.5q0 -118 -42.5 -223.5t-119 -184.5t-193 -125.5t-255.5 -46.5h-233l-31 -221q-9 -49 -57 -49h-211q-50 0 -41 49l164 1168l2 14l34 256q9 49 56 49h211q49 0 43 -49l-31 -221h233zM651 512q150 0 227.5 86t77.5 215 q0 96 -57.5 149.5t-175.5 53.5h-205l-72 -504h205z" />
<glyph unicode="&#xdf;" horiz-adv-x="1222" d="M668 -6q-48 -18 -58 29l-39 145q-5 25 4 40.5t35 27.5q53 25 82.5 41.5t65.5 42t52.5 53.5t16.5 61q0 31 -16.5 61t-39.5 56.5t-46.5 55t-40 68t-16.5 83.5q0 51 19.5 97t47 80.5t55 67.5t47 73t19.5 83q0 63 -39 100t-106 37q-90 0 -157.5 -72.5t-82.5 -181.5l-139 -993 q-3 -26 -16.5 -37.5t-39.5 -11.5h-200q-25 0 -34.5 11.5t-6.5 37.5l143 1020q31 214 189 344.5t385 130.5q186 0 295.5 -99t109.5 -251q0 -60 -20 -113.5t-48 -91.5t-56 -72.5t-48 -72.5t-20 -76q0 -33 16 -64.5t38.5 -59.5t45.5 -58t39 -72t16 -90q0 -51 -15.5 -97 t-40.5 -82.5t-63.5 -70.5t-75.5 -58t-86 -48.5t-86.5 -40t-84.5 -33.5z" />
<glyph unicode="&#xe0;" horiz-adv-x="1150" d="M473 1440q-33 26 4 69l90 93q38 38 70 4l252 -269q27 -27 -10 -63l-56 -55q-21 -23 -34.5 -27.5t-34.5 10.5zM1059 1030q27 0 37 -11.5t6 -37.5l-131 -932q-3 -26 -16.5 -37.5t-39.5 -11.5h-200q-26 0 -35 11t-6 38l16 119l-12 -82q-21 -21 -51 -42.5t-91.5 -45 t-125.5 -23.5q-161 0 -256 121t-95 334q0 181 65 324.5t176 222t245 78.5q54 0 101 -13t77.5 -33t48 -36.5t27.5 -30.5l6 39q5 27 17 38t38 11h199zM709 297l75 541l-16 -107q-7 9 -18.5 20t-32 26.5t-50.5 25.5t-63 10q-105 0 -174.5 -98.5t-69.5 -251.5q0 -119 45 -182.5 t123 -63.5q89 0 181 80z" />
<glyph unicode="&#xe1;" horiz-adv-x="1150" d="M649 1217l-41 55q-24 37 8 63l328 269q42 34 70 -5l61 -92q28 -42 -12 -69l-348 -238q-39 -29 -66 17zM1059 1030q27 0 37 -11.5t6 -37.5l-131 -932q-3 -26 -16.5 -37.5t-39.5 -11.5h-200q-26 0 -35 11t-6 38l16 119l-12 -82q-21 -21 -51 -42.5t-91.5 -45t-125.5 -23.5 q-161 0 -256 121t-95 334q0 181 65 324.5t176 222t245 78.5q54 0 101 -13t77.5 -33t48 -36.5t27.5 -30.5l6 39q5 27 17 38t38 11h199zM709 297l75 541l-16 -107q-7 9 -18.5 20t-32 26.5t-50.5 25.5t-63 10q-105 0 -174.5 -98.5t-69.5 -251.5q0 -119 45 -182.5t123 -63.5 q89 0 181 80z" />
<glyph unicode="&#xe2;" horiz-adv-x="1150" d="M483 1206l-63 74q-33 33 8 68l320 243q37 29 63 0l250 -243q34 -34 -8 -68l-84 -74q-42 -33 -68 0l-149 180l-201 -180q-39 -33 -68 0zM1059 1030q27 0 37 -11.5t6 -37.5l-131 -932q-3 -26 -16.5 -37.5t-39.5 -11.5h-200q-26 0 -35 11t-6 38l16 119l-12 -82 q-21 -21 -51 -42.5t-91.5 -45t-125.5 -23.5q-161 0 -256 121t-95 334q0 181 65 324.5t176 222t245 78.5q54 0 101 -13t77.5 -33t48 -36.5t27.5 -30.5l6 39q5 27 17 38t38 11h199zM709 297l75 541l-16 -107q-7 9 -18.5 20t-32 26.5t-50.5 25.5t-63 10q-105 0 -174.5 -98.5 t-69.5 -251.5q0 -119 45 -182.5t123 -63.5q89 0 181 80z" />
<glyph unicode="&#xe3;" horiz-adv-x="1150" d="M1145 1397q12 -7 12 -20t-12 -27q-115 -150 -264 -150q-56 0 -106.5 21.5t-93.5 43t-79 21.5q-66 0 -123 -67q-25 -25 -49 -7l-86 60q-25 21 0 49q116 152 264 152q53 0 102.5 -21t92.5 -42t80 -21q67 0 125 65q22 28 49 8zM1059 1030q27 0 37 -11.5t6 -37.5l-131 -932 q-3 -26 -16.5 -37.5t-39.5 -11.5h-200q-26 0 -35 11t-6 38l16 119l-12 -82q-21 -21 -51 -42.5t-91.5 -45t-125.5 -23.5q-161 0 -256 121t-95 334q0 181 65 324.5t176 222t245 78.5q54 0 101 -13t77.5 -33t48 -36.5t27.5 -30.5l6 39q5 27 17 38t38 11h199zM709 297l75 541 l-16 -107q-7 9 -18.5 20t-32 26.5t-50.5 25.5t-63 10q-105 0 -174.5 -98.5t-69.5 -251.5q0 -119 45 -182.5t123 -63.5q89 0 181 80z" />
<glyph unicode="&#xe4;" horiz-adv-x="1150" d="M502 1196q-59 0 -97 38.5t-38 96.5q0 72 54 125t126 53q58 0 97.5 -41t39.5 -100q0 -70 -55.5 -121t-126.5 -51zM944 1196q-59 0 -97 38.5t-38 96.5q0 71 54.5 124.5t125.5 53.5q59 0 98 -41t39 -100q0 -71 -55 -121.5t-127 -50.5zM1059 1030q27 0 37 -11.5t6 -37.5 l-131 -932q-3 -26 -16.5 -37.5t-39.5 -11.5h-200q-26 0 -35 11t-6 38l16 119l-12 -82q-21 -21 -51 -42.5t-91.5 -45t-125.5 -23.5q-161 0 -256 121t-95 334q0 181 65 324.5t176 222t245 78.5q54 0 101 -13t77.5 -33t48 -36.5t27.5 -30.5l6 39q5 27 17 38t38 11h199zM709 297 l75 541l-16 -107q-7 9 -18.5 20t-32 26.5t-50.5 25.5t-63 10q-105 0 -174.5 -98.5t-69.5 -251.5q0 -119 45 -182.5t123 -63.5q89 0 181 80z" />
<glyph unicode="&#xe5;" horiz-adv-x="1150" d="M717 1169q-88 0 -145.5 60t-57.5 147q0 106 81.5 185t186.5 79q90 0 147.5 -59.5t57.5 -148.5q0 -107 -81 -185t-189 -78zM762 1479q-34 0 -60 -25t-26 -57q0 -28 18 -48t45 -20q34 0 60 25t26 59q0 28 -18 47t-45 19zM1059 1030q27 0 37 -11.5t6 -37.5l-131 -932 q-3 -26 -16.5 -37.5t-39.5 -11.5h-200q-26 0 -35 11t-6 38l16 119l-12 -82q-21 -21 -51 -42.5t-91.5 -45t-125.5 -23.5q-161 0 -256 121t-95 334q0 181 65 324.5t176 222t245 78.5q54 0 101 -13t77.5 -33t48 -36.5t27.5 -30.5l6 39q5 27 17 38t38 11h199zM709 297l75 541 l-16 -107q-7 9 -18.5 20t-32 26.5t-50.5 25.5t-63 10q-105 0 -174.5 -98.5t-69.5 -251.5q0 -119 45 -182.5t123 -63.5q89 0 181 80z" />
<glyph unicode="&#xe6;" horiz-adv-x="1689" d="M352 -25q-144 0 -230.5 80.5t-86.5 212.5q0 162 117.5 265.5t296.5 103.5q29 0 57 -3.5t49.5 -9t41 -12t33.5 -13t24.5 -12t15.5 -9.5l6 -3l6 39q9 94 -34.5 145.5t-143.5 51.5q-104 0 -221 -45q-19 -8 -37 -2t-21 27l-18 135q-10 47 29 59q171 70 352 70q208 0 307 -123 q147 123 342 123q200 0 311.5 -134t77.5 -370q-9 -64 -22.5 -85.5t-42.5 -21.5h-582q0 -106 51 -166.5t154 -60.5q98 0 190 66q40 25 58 -7l65 -114q21 -32 -8 -58q-53 -50 -152 -89.5t-217 -39.5q-238 0 -354 179q-30 -26 -65.5 -51t-91 -57t-123 -51.5t-134.5 -19.5z M1006 614l356 2q12 89 -28 143t-115 54q-80 0 -141 -59t-72 -140zM461 180q49 0 109.5 26.5t117.5 84.5q-17 70 -20 106q-100 56 -174 56q-72 0 -119 -41t-47 -105q0 -56 36.5 -91.5t96.5 -35.5z" />
<glyph unicode="&#xe7;" horiz-adv-x="985" d="M954 940q24 -19 4 -57l-73 -123q-21 -38 -62 -10q-92 63 -188 63q-120 0 -196.5 -93.5t-76.5 -244.5h-2q0 -117 51 -187.5t154 -70.5q98 0 185 66q39 24 59 -7l65 -114q21 -35 -8 -58q-57 -52 -145 -87.5t-189 -41.5l-26 -71q41 18 96 18q86 0 138.5 -59t52.5 -156 q0 -128 -83 -205t-218 -77q-91 0 -136 30q-17 11 -4 33l54 113q11 22 34 12t52 -10q47 0 75.5 27.5t28.5 72.5q0 37 -20.5 57.5t-55.5 20.5q-51 0 -84 -39q-13 -17 -35 -10l-88 22q-32 7 -22 37l76 201q-146 38 -225 159.5t-79 307.5q0 133 42 245t115.5 188.5t175.5 119.5 t220 43q202 0 338 -115z" />
<glyph unicode="&#xe8;" horiz-adv-x="1077" d="M684 1202l-281 238q-32 26 5 69l90 93q38 38 69 4l252 -269q27 -27 -10 -63l-55 -55q-21 -23 -35 -27.5t-35 10.5zM61 444q0 137 46 253t123.5 193.5t179.5 121t215 43.5q96 0 174.5 -33.5t132 -96t75.5 -159t5 -215.5q-7 -63 -21.5 -85t-42.5 -22h-583q0 -106 51 -166.5 t151 -60.5q110 0 193 66q41 25 59 -7l66 -114q19 -34 -8 -58q-53 -49 -152.5 -89t-216.5 -40q-201 0 -324 125.5t-123 343.5zM389 614l363 2q12 89 -29.5 143t-118.5 54q-82 0 -143 -57.5t-72 -141.5z" />
<glyph unicode="&#xe9;" horiz-adv-x="1077" d="M645 1200q-38 -28 -65 17l-41 55q-24 37 8 63l327 269q42 34 70 -5l62 -92q27 -41 -13 -69zM61 444q0 137 46 253t123.5 193.5t179.5 121t215 43.5q96 0 174.5 -33.5t132 -96t75.5 -159t5 -215.5q-7 -63 -21.5 -85t-42.5 -22h-583q0 -106 51 -166.5t151 -60.5 q110 0 193 66q41 25 59 -7l66 -114q19 -34 -8 -58q-53 -49 -152.5 -89t-216.5 -40q-201 0 -324 125.5t-123 343.5zM389 614l363 2q12 89 -29.5 143t-118.5 54q-82 0 -143 -57.5t-72 -141.5z" />
<glyph unicode="&#xea;" horiz-adv-x="1077" d="M682 1386l-201 -180q-38 -33 -67 0l-64 74q-33 33 8 68l320 243q37 29 63 0l250 -243q34 -34 -8 -68l-84 -74q-42 -33 -68 0zM61 444q0 137 46 253t123.5 193.5t179.5 121t215 43.5q96 0 174.5 -33.5t132 -96t75.5 -159t5 -215.5q-7 -63 -21.5 -85t-42.5 -22h-583 q0 -106 51 -166.5t151 -60.5q110 0 193 66q41 25 59 -7l66 -114q19 -34 -8 -58q-53 -49 -152.5 -89t-216.5 -40q-201 0 -324 125.5t-123 343.5zM389 614l363 2q12 89 -29.5 143t-118.5 54q-82 0 -143 -57.5t-72 -141.5z" />
<glyph unicode="&#xeb;" horiz-adv-x="1077" d="M432 1196q-59 0 -97 38.5t-38 96.5q0 72 54 125t126 53q58 0 97.5 -41t39.5 -100q0 -70 -55.5 -121t-126.5 -51zM874 1196q-59 0 -97 38.5t-38 96.5q0 71 55 124.5t126 53.5q59 0 98 -41t39 -100q0 -71 -55.5 -121.5t-127.5 -50.5zM61 444q0 137 46 253t123.5 193.5 t179.5 121t215 43.5q96 0 174.5 -33.5t132 -96t75.5 -159t5 -215.5q-7 -63 -21.5 -85t-42.5 -22h-583q0 -106 51 -166.5t151 -60.5q110 0 193 66q41 25 59 -7l66 -114q19 -34 -8 -58q-53 -49 -152.5 -89t-216.5 -40q-201 0 -324 125.5t-123 343.5zM389 614l363 2 q12 89 -29.5 143t-118.5 54q-82 0 -143 -57.5t-72 -141.5z" />
<glyph unicode="&#xec;" horiz-adv-x="565" d="M346 1202l-280 238q-33 26 4 69l90 93q38 38 69 4l252 -269q27 -27 -10 -63l-55 -55q-21 -23 -35 -27.5t-35 10.5zM109 0q-26 0 -35.5 11.5t-5.5 37.5l131 932q3 26 15.5 37.5t37.5 11.5h201q26 0 36 -11.5t7 -37.5l-131 -932q-8 -49 -56 -49h-200z" />
<glyph unicode="&#xed;" horiz-adv-x="548" d="M369 1200q-39 -29 -66 17l-41 55q-24 37 8 63l328 269q42 34 70 -5l61 -92q28 -42 -12 -69zM82 0q-26 0 -36 11.5t-7 37.5l131 932q5 27 17 38t38 11h201q26 0 36 -11.5t7 -37.5l-133 -932q-3 -26 -16 -37.5t-39 -11.5h-199z" />
<glyph unicode="&#xee;" horiz-adv-x="595" d="M420 1386l-201 -180q-38 -33 -67 0l-64 74q-33 33 8 68l320 243q37 29 63 0l250 -243q34 -34 -8 -68l-84 -74q-42 -33 -68 0zM121 0q-26 0 -36 11.5t-7 37.5l131 932q5 27 17 38t38 11h201q49 0 43 -49l-133 -932q-3 -26 -16.5 -37.5t-39.5 -11.5h-198z" />
<glyph unicode="&#xef;" horiz-adv-x="589" d="M166 1196q-59 0 -97 38.5t-38 96.5q0 72 54 125t126 53q58 0 97.5 -41t39.5 -100q0 -70 -55.5 -121t-126.5 -51zM608 1196q-59 0 -97 38.5t-38 96.5q0 71 54.5 124.5t125.5 53.5q59 0 98.5 -41t39.5 -100q0 -71 -55.5 -121.5t-127.5 -50.5zM117 0q-26 0 -36 11.5t-7 37.5 l131 932q5 27 17 38t38 11h201q49 0 43 -49l-133 -932q-3 -26 -16.5 -37.5t-39.5 -11.5h-198z" />
<glyph unicode="&#xf0;" horiz-adv-x="1161" d="M950 1335q168 -202 168 -547q0 -377 -174 -595t-455 -218q-200 0 -317 118.5t-117 318.5q0 159 74.5 285.5t191 192.5t248.5 66q52 0 97.5 -11.5t73.5 -28t49 -33t29 -27.5l9 -12q9 42 -19 131t-87 164l-129 -111q-11 -10 -20.5 -9t-20.5 15l-53 58q-25 27 -2 47l114 98 q-70 42 -159 45q-51 0 -43 49l22 156q5 28 19 38.5t49 10.5q199 0 340 -100l110 96q13 9 21.5 6t21.5 -18l51 -58q24 -26 2 -45zM522 219q104 0 179 98t87 267q-20 47 -71.5 91t-132.5 44q-104 0 -172 -80.5t-68 -202.5q0 -100 48 -158.5t130 -58.5z" />
<glyph unicode="&#xf1;" horiz-adv-x="1165" d="M1112 1386q26 -16 0 -45q-111 -143 -256 -143q-53 0 -101.5 20.5t-89.5 41t-77 20.5q-63 0 -119 -66q-24 -21 -47 -4l-84 56q-25 22 0 47q110 145 256 145q51 0 98.5 -20t88.5 -40t77 -20q65 0 121 64q22 25 49 8zM743 1055q161 0 258 -104.5t72 -280.5l-88 -621 q-3 -26 -16 -37.5t-39 -11.5h-201q-26 0 -35.5 11.5t-5.5 37.5l82 580q12 91 -29 141.5t-116 50.5q-98 0 -191 -84l-96 -688q-3 -26 -16 -37.5t-39 -11.5h-201q-26 0 -35 11t-6 38l131 932q5 27 17 38t38 11h199q27 0 37 -11.5t6 -37.5l-4 -29q125 103 278 103z" />
<glyph unicode="&#xf2;" horiz-adv-x="1132" d="M690 1202l-280 238q-33 26 4 69l90 93q38 38 69 4l252 -269q27 -27 -10 -63l-55 -55q-21 -23 -35 -27.5t-35 10.5zM498 -25q-208 0 -321.5 123t-113.5 351q0 270 156.5 438t409.5 168q210 0 324 -122t114 -349q0 -271 -157.5 -440t-411.5 -169zM530 217q105 0 171.5 96.5 t66.5 251.5q0 121 -45 184.5t-127 63.5q-104 0 -170 -96.5t-66 -251.5q0 -120 44 -184t126 -64z" />
<glyph unicode="&#xf3;" horiz-adv-x="1132" d="M651 1200q-38 -28 -65 17l-41 55q-24 37 8 63l328 269q41 33 69 -5l62 -92q27 -41 -13 -69zM498 -25q-208 0 -321.5 123t-113.5 351q0 270 156.5 438t409.5 168q210 0 324 -122t114 -349q0 -271 -157.5 -440t-411.5 -169zM530 217q105 0 171.5 96.5t66.5 251.5 q0 121 -45 184.5t-127 63.5q-104 0 -170 -96.5t-66 -251.5q0 -120 44 -184t126 -64z" />
<glyph unicode="&#xf4;" horiz-adv-x="1132" d="M688 1386l-201 -180q-38 -33 -67 0l-64 74q-32 32 9 68l319 243q37 30 64 0l249 -243q34 -34 -8 -68l-84 -74q-41 -33 -67 0zM498 -25q-208 0 -321.5 123t-113.5 351q0 270 156.5 438t409.5 168q210 0 324 -122t114 -349q0 -271 -157.5 -440t-411.5 -169zM530 217 q105 0 171.5 96.5t66.5 251.5q0 121 -45 184.5t-127 63.5q-104 0 -170 -96.5t-66 -251.5q0 -120 44 -184t126 -64z" />
<glyph unicode="&#xf5;" horiz-adv-x="1132" d="M811 1198q-53 0 -101.5 20.5t-89.5 41t-77 20.5q-63 0 -119 -66q-24 -21 -47 -4l-84 56q-25 22 0 47q110 145 256 145q51 0 98.5 -20t88.5 -40t77 -20q65 0 121 64q22 25 49 8l84 -64q26 -16 0 -45q-111 -143 -256 -143zM498 -25q-208 0 -321.5 123t-113.5 351 q0 270 156.5 438t409.5 168q210 0 324 -122t114 -349q0 -271 -157.5 -440t-411.5 -169zM530 217q105 0 171.5 96.5t66.5 251.5q0 121 -45 184.5t-127 63.5q-104 0 -170 -96.5t-66 -251.5q0 -120 44 -184t126 -64z" />
<glyph unicode="&#xf6;" horiz-adv-x="1132" d="M438 1196q-59 0 -97 38.5t-38 96.5q0 72 54 125t126 53q58 0 98 -41t40 -100q0 -70 -56 -121t-127 -51zM881 1196q-59 0 -97.5 38.5t-38.5 96.5q0 71 55 124.5t126 53.5q59 0 98 -41t39 -100q0 -71 -55 -121.5t-127 -50.5zM498 -25q-208 0 -321.5 123t-113.5 351 q0 270 156.5 438t409.5 168q210 0 324 -122t114 -349q0 -271 -157.5 -440t-411.5 -169zM530 217q105 0 171.5 96.5t66.5 251.5q0 121 -45 184.5t-127 63.5q-104 0 -170 -96.5t-66 -251.5q0 -120 44 -184t126 -64z" />
<glyph unicode="&#xf7;" horiz-adv-x="978" d="M418 1161q0 73 55 127.5t129 54.5q61 0 101 -41t40 -102q0 -74 -56 -127t-130 -53q-61 0 -100 40t-39 101zM147 659q-26 0 -36 12t-7 38l17 118q6 47 55 47h723q26 0 36 -11t7 -36l-16 -118q-6 -50 -56 -50h-723zM301 330q0 75 55 129.5t129 54.5q62 0 103 -42t41 -101 q0 -74 -57 -127.5t-132 -53.5q-61 0 -100 40.5t-39 99.5z" />
<glyph unicode="&#xf8;" horiz-adv-x="1144" d="M1118 1069q22 0 26 -13.5t-14 -35.5l-131 -150q68 -115 68 -286q0 -271 -157.5 -440t-411.5 -169q-137 0 -234 54l-18 -21q-25 -29 -38 -37t-38 -8h-141q-23 0 -27.5 14t14.5 37l119 138q-72 116 -72 297q0 270 156.5 438t409.5 168q140 0 245 -60l25 29q26 29 41 37 t43 8h135zM344 442q0 -35 2 -51l365 416q-42 33 -105 33q-114 0 -188 -102.5t-74 -295.5zM788 584q0 29 -2 43l-360 -412q47 -29 98 -29q115 0 189.5 103t74.5 295z" />
<glyph unicode="&#xf9;" horiz-adv-x="1142" d="M406 1440q-33 26 4 69l90 93q38 38 69 4l252 -269q27 -27 -10 -63l-55 -55q-21 -23 -35 -27.5t-35 10.5zM1040 1030q27 0 37 -11.5t6 -37.5l-131 -932q-3 -26 -16 -37.5t-39 -11.5h-201q-26 0 -35 11t-6 38l2 19q-103 -93 -254 -93q-161 0 -256.5 104t-70.5 281l86 621 q5 27 17 38t38 11h201q26 0 35.5 -11.5t5.5 -37.5l-80 -580q-13 -91 27.5 -141.5t113.5 -50.5q58 0 102.5 26.5t65.5 53.5l98 692q5 26 17.5 37.5t38.5 11.5h198z" />
<glyph unicode="&#xfa;" horiz-adv-x="1142" d="M582 1217l-41 55q-24 37 8 63l328 269q41 33 69 -5l62 -92q27 -41 -13 -69l-348 -238q-38 -28 -65 17zM1040 1030q27 0 37 -11.5t6 -37.5l-131 -932q-3 -26 -16 -37.5t-39 -11.5h-201q-26 0 -35 11t-6 38l2 19q-103 -93 -254 -93q-161 0 -256.5 104t-70.5 281l86 621 q5 27 17 38t38 11h201q26 0 35.5 -11.5t5.5 -37.5l-80 -580q-13 -91 27.5 -141.5t113.5 -50.5q58 0 102.5 26.5t65.5 53.5l98 692q5 26 17.5 37.5t38.5 11.5h198z" />
<glyph unicode="&#xfb;" horiz-adv-x="1142" d="M416 1206l-64 74q-33 33 8 68l320 243q37 29 63 0l250 -243q34 -34 -8 -68l-84 -74q-41 -33 -67 0l-150 180l-201 -180q-38 -33 -67 0zM1040 1030q27 0 37 -11.5t6 -37.5l-131 -932q-3 -26 -16 -37.5t-39 -11.5h-201q-26 0 -35 11t-6 38l2 19q-103 -93 -254 -93 q-161 0 -256.5 104t-70.5 281l86 621q5 27 17 38t38 11h201q26 0 35.5 -11.5t5.5 -37.5l-80 -580q-13 -91 27.5 -141.5t113.5 -50.5q58 0 102.5 26.5t65.5 53.5l98 692q5 26 17.5 37.5t38.5 11.5h198z" />
<glyph unicode="&#xfc;" horiz-adv-x="1142" d="M434 1196q-59 0 -97 38.5t-38 96.5q0 72 54 125t126 53q58 0 97.5 -41t39.5 -100q0 -70 -55.5 -121t-126.5 -51zM877 1196q-59 0 -97.5 38.5t-38.5 96.5q0 71 55 124.5t126 53.5q59 0 98 -41t39 -100q0 -71 -55 -121.5t-127 -50.5zM1040 1030q27 0 37 -11.5t6 -37.5 l-131 -932q-3 -26 -16 -37.5t-39 -11.5h-201q-26 0 -35 11t-6 38l2 19q-103 -93 -254 -93q-161 0 -256.5 104t-70.5 281l86 621q5 27 17 38t38 11h201q26 0 35.5 -11.5t5.5 -37.5l-80 -580q-13 -91 27.5 -141.5t113.5 -50.5q58 0 102.5 26.5t65.5 53.5l98 692 q5 26 17.5 37.5t38.5 11.5h198z" />
<glyph unicode="&#xfd;" horiz-adv-x="1079" d="M645 1200q-38 -28 -65 17l-41 55q-24 37 8 63l327 269q42 34 70 -5l62 -92q27 -41 -13 -69zM72 -551q-117 0 -203 51q-37 19 -16 60l77 137q7 15 20.5 22t33.5 0q54 -20 94 -20q55 0 94 30.5t70 90.5l94 188l-207 977q-11 45 45 45h201q22 0 33 -7.5t14 -29.5l106 -671 l295 671q17 37 60 37h198q24 0 35 -10.5t0 -34.5l-610 -1233q-75 -149 -185.5 -226t-248.5 -77z" />
<glyph unicode="&#xfe;" horiz-adv-x="1208" d="M43 -512q-26 0 -36 11.5t-7 37.5l274 1950q3 26 16.5 37.5t39.5 11.5h198q27 0 37 -11.5t6 -37.5l-77 -555q4 5 12 12.5t35 27.5t58 35t80 27.5t101 12.5q171 0 268 -116t97 -319q0 -182 -65.5 -326t-185 -225t-271.5 -81q-49 0 -93 11.5t-71 28t-47 33t-28 27.5l-9 12 l-78 -555q-3 -26 -16 -37.5t-39 -11.5h-199zM578 221q124 0 199 95.5t75 252.5q0 112 -50 174t-140 62q-53 0 -102.5 -24t-73.5 -48l-23 -24l-57 -402q2 -3 7 -9t21.5 -21t35 -26t48 -20.5t60.5 -9.5z" />
<glyph unicode="&#xff;" horiz-adv-x="1079" d="M432 1196q-59 0 -97 38.5t-38 96.5q0 72 54 125t126 53q58 0 97.5 -41t39.5 -100q0 -70 -55.5 -121t-126.5 -51zM874 1196q-59 0 -97 38.5t-38 96.5q0 71 55 124.5t126 53.5q59 0 98 -41t39 -100q0 -71 -55.5 -121.5t-127.5 -50.5zM72 -551q-117 0 -203 51q-37 19 -16 60 l77 137q7 15 20.5 22t33.5 0q54 -20 94 -20q55 0 94 30.5t70 90.5l94 188l-207 977q-11 45 45 45h201q22 0 33 -7.5t14 -29.5l106 -671l295 671q17 37 60 37h198q24 0 35 -10.5t0 -34.5l-610 -1233q-75 -149 -185.5 -226t-248.5 -77z" />
<glyph unicode="&#x152;" horiz-adv-x="2162" d="M2138 1536q51 0 45 -49l-22 -156q-9 -49 -58 -49h-526l-49 -358h444q50 0 41 -50l-20 -151q-6 -49 -56 -49h-444l-59 -420h546q47 0 41 -49l-20 -156q-9 -49 -57 -49h-805q-49 0 -43 49l2 21q-170 -95 -387 -95q-283 0 -439.5 175t-156.5 485q0 278 94.5 487t274.5 324 t423 115q239 0 385 -119l6 45q6 49 56 49h784zM748 229q205 0 320.5 176.5t115.5 475.5q0 207 -80 316.5t-230 109.5q-207 0 -323.5 -176.5t-116.5 -473.5q0 -204 82.5 -316t231.5 -112z" />
<glyph unicode="&#x153;" horiz-adv-x="1775" d="M1323 1055q96 0 174.5 -33.5t132 -96t75.5 -159t5 -215.5q-7 -63 -21 -85t-42 -22h-584q0 -106 51.5 -166.5t151.5 -60.5q109 0 192 66q42 25 60 -7l65 -114q19 -34 -8 -58q-53 -49 -152.5 -89t-216.5 -40q-211 0 -332 136q-155 -136 -376 -136q-208 0 -321.5 123 t-113.5 351q0 270 156.5 438t409.5 168q219 0 334 -133q152 133 360 133zM530 217q87 0 149 68t81 184q4 60 8 86v10q0 121 -45 184.5t-127 63.5q-104 0 -170 -96.5t-66 -251.5q0 -120 44 -184t126 -64zM1450 616q12 89 -29 143t-118 54q-82 0 -143.5 -57.5t-72.5 -141.5z " />
<glyph unicode="&#x178;" horiz-adv-x="1189" d="M535 1665q-59 0 -97.5 38.5t-38.5 96.5q0 72 54.5 125t126.5 53q58 0 97.5 -41t39.5 -100q0 -70 -55.5 -121t-126.5 -51zM977 1665q-59 0 -97 38.5t-38 96.5q0 71 54.5 124.5t125.5 53.5q59 0 98 -41t39 -100q0 -71 -55 -121.5t-127 -50.5zM1006 1499q24 37 63 37h215 q27 0 33 -14t-10 -37l-537 -811l-88 -625q-6 -49 -55 -49h-211q-49 0 -43 49l88 625l-307 813q-10 25 -2.5 37t34.5 12h217q44 0 56 -37l192 -571z" />
<glyph unicode="&#x2c6;" horiz-adv-x="860" d="M657 1645l-200 -181q-39 -33 -68 0l-63 74q-33 33 8 68l319 243q37 30 64 0l250 -243q34 -34 -9 -68l-84 -74q-41 -33 -67 0z" />
<glyph unicode="&#x2dc;" horiz-adv-x="892" d="M772 1495q-44 0 -86 13.5t-68.5 29.5t-60 29.5t-63.5 13.5q-65 0 -123 -68q-24 -24 -49 -6l-86 60q-25 21 0 49q116 151 264 151q53 0 102 -21t92 -42t80 -21q66 0 125 66q22 28 49 8l88 -65q12 -8 12 -20.5t-12 -26.5q-115 -150 -264 -150z" />
<glyph unicode="&#x2000;" horiz-adv-x="1054" />
<glyph unicode="&#x2001;" horiz-adv-x="2109" />
<glyph unicode="&#x2002;" horiz-adv-x="1054" />
<glyph unicode="&#x2003;" horiz-adv-x="2109" />
<glyph unicode="&#x2004;" horiz-adv-x="703" />
<glyph unicode="&#x2005;" horiz-adv-x="527" />
<glyph unicode="&#x2006;" horiz-adv-x="351" />
<glyph unicode="&#x2007;" horiz-adv-x="351" />
<glyph unicode="&#x2008;" horiz-adv-x="263" />
<glyph unicode="&#x2009;" horiz-adv-x="421" />
<glyph unicode="&#x200a;" horiz-adv-x="117" />
<glyph unicode="&#x2010;" horiz-adv-x="792" d="M109 446q-41 0 -35 50l20 129q3 26 13 37.5t32 11.5h553q43 0 35 -49l-18 -129q-6 -50 -47 -50h-553z" />
<glyph unicode="&#x2011;" horiz-adv-x="792" d="M109 446q-41 0 -35 50l20 129q3 26 13 37.5t32 11.5h553q43 0 35 -49l-18 -129q-6 -50 -47 -50h-553z" />
<glyph unicode="&#x2012;" horiz-adv-x="792" d="M109 446q-41 0 -35 50l20 129q3 26 13 37.5t32 11.5h553q43 0 35 -49l-18 -129q-6 -50 -47 -50h-553z" />
<glyph unicode="&#x2013;" horiz-adv-x="1234" d="M117 446q-26 0 -36 12t-7 38l18 129q6 47 55 47h981q50 0 41 -47l-16 -129q-5 -26 -17.5 -38t-37.5 -12h-981z" />
<glyph unicode="&#x2014;" horiz-adv-x="1501" d="M117 446q-26 0 -36 12t-7 38l18 129q6 47 55 47h1248q50 0 41 -47l-17 -129q-5 -26 -17.5 -38t-37.5 -12h-1247z" />
<glyph unicode="&#x2018;" horiz-adv-x="466" d="M479 1112q0 -77 -52 -130.5t-132 -53.5q-62 0 -102.5 39.5t-40.5 113.5q0 100 73.5 230.5t173.5 224.5q28 25 40 23q5 -1 10 -5l53 -41q19 -16 -6 -47q-5 -6 -25.5 -30t-34.5 -42t-31 -42t-26.5 -45t-9.5 -37q0 -22 26 -33q84 -37 84 -125z" />
<glyph unicode="&#x2019;" horiz-adv-x="458" d="M186 1378q0 77 52.5 131t132.5 54q62 0 102.5 -39.5t40.5 -114.5q0 -100 -74 -230.5t-174 -224.5q-1 -1 -5 -4.5t-5.5 -5t-5.5 -4.5t-6 -4t-5 -3t-5.5 -2h-5.5t-5.5 1.5t-5.5 3.5l-53 41q-19 16 6 47q4 5 25 29.5t35 42.5t31 42.5t26.5 45.5t9.5 37q0 20 -27 32 q-84 37 -84 125z" />
<glyph unicode="&#x201a;" horiz-adv-x="458" d="M10 127q0 76 52.5 130t132.5 54q62 0 102.5 -39.5t40.5 -113.5q0 -100 -74 -230.5t-174 -224.5q-1 -1 -5 -4.5t-5.5 -5t-5.5 -4.5t-6 -4t-5 -3t-5.5 -2h-5.5t-5.5 1.5t-5.5 3.5l-53 41q-19 16 6 47q5 6 25.5 30t34.5 42t31 42t26.5 45t9.5 37q0 21 -27 33q-84 37 -84 125 z" />
<glyph unicode="&#x201c;" horiz-adv-x="837" d="M473 1114q0 -77 -52 -130.5t-132 -53.5q-62 0 -103 39.5t-41 113.5q0 100 74 230.5t174 224.5q1 1 5 4.5t5.5 5t5.5 4.5t6 4t5 3t5.5 2h5.5t5.5 -1.5t5.5 -3.5l54 -40q19 -16 -7 -48q-5 -6 -25.5 -30t-34.5 -42t-31 -42t-26.5 -45t-9.5 -37q0 -21 27 -33q84 -37 84 -125z M852 1114q0 -77 -52 -130.5t-132 -53.5q-62 0 -103 39.5t-41 113.5q0 100 74 230.5t174 224.5q1 1 5 4.5t5.5 5t5.5 4.5t6 4t5 3t5.5 2h5.5t5.5 -1.5t5.5 -3.5l53 -40q19 -16 -6 -48q-5 -6 -25.5 -30t-34.5 -42t-31 -42t-26.5 -45t-9.5 -37q0 -21 27 -33q84 -37 84 -125z " />
<glyph unicode="&#x201d;" horiz-adv-x="837" d="M186 1378q0 77 52.5 131t132.5 54q62 0 102.5 -39.5t40.5 -114.5q0 -100 -74 -230.5t-174 -224.5q-1 -1 -5 -4.5t-5.5 -5t-5.5 -4.5t-6 -4t-5 -3t-5.5 -2h-5.5t-5.5 1.5t-5.5 3.5l-53 41q-19 16 6 47q4 5 25 29.5t35 42.5t31 42.5t26.5 45.5t9.5 37q0 20 -27 32 q-84 37 -84 125zM565 1378q0 77 52.5 131t132.5 54q62 0 102.5 -39.5t40.5 -114.5q0 -100 -74 -230.5t-174 -224.5q-1 -1 -5 -4.5t-5.5 -5t-5.5 -4.5t-6 -4t-5 -3t-5.5 -2h-5.5t-5.5 1.5t-5.5 3.5l-53 41q-19 16 6 47q4 5 25 29.5t35 42.5t31 42.5t26.5 45.5t9.5 37 q0 20 -27 32q-84 37 -84 125z" />
<glyph unicode="&#x201e;" horiz-adv-x="843" d="M8 109q0 76 52.5 130t132.5 54q62 0 102.5 -39.5t40.5 -114.5q0 -100 -74 -230t-174 -224q-1 -1 -6.5 -6t-7.5 -6.5t-6.5 -5t-7.5 -4.5t-7 -2t-7.5 0.5t-6.5 4.5l-53 41q-19 16 6 47q4 5 25 29.5t35 42.5t31 42.5t26.5 45.5t9.5 37q0 21 -27 33q-84 37 -84 125zM389 109 q0 77 52 130.5t132 53.5q62 0 103 -40t41 -114q0 -100 -74 -230t-174 -224q-1 -1 -6.5 -6t-7.5 -6.5t-6.5 -5t-7.5 -4.5t-7 -2t-7.5 0.5t-6.5 4.5l-53 41q-19 16 6 47q4 5 25 29.5t35 42.5t31 42.5t26.5 45.5t9.5 37q0 21 -27 33q-84 37 -84 125z" />
<glyph unicode="&#x2022;" horiz-adv-x="598" d="M61 705q0 120 92 207t212 87q100 0 165.5 -67t65.5 -166q0 -119 -91 -206t-212 -87q-101 0 -166.5 66.5t-65.5 165.5z" />
<glyph unicode="&#x2026;" horiz-adv-x="1374" d="M10 127q0 74 56 129t129 55q62 0 102.5 -42t40.5 -103q0 -74 -56.5 -126t-131.5 -52q-61 0 -100.5 40t-39.5 99zM469 127q0 75 55 129.5t129 54.5q62 0 103 -42t41 -103q0 -74 -57 -126t-132 -52q-61 0 -100 40t-39 99zM930 127q0 74 55.5 129t128.5 55q62 0 102.5 -42 t40.5 -103q0 -74 -56.5 -126t-131.5 -52q-61 0 -100 40t-39 99z" />
<glyph unicode="&#x202f;" horiz-adv-x="421" />
<glyph unicode="&#x2039;" horiz-adv-x="595" d="M66 489q-29 32 8 62l463 389q20 15 31.5 8.5t9.5 -22.5l-25 -189q-6 -36 -39 -61l-184 -154l141 -157q24 -28 18 -64l-24 -188q-2 -15 -15.5 -22t-31.5 9z" />
<glyph unicode="&#x203a;" horiz-adv-x="595" d="M553 489l-461 -389q-23 -16 -35 -9t-10 22l29 188q3 35 37 64l186 157l-141 154q-26 26 -23 61l29 189q4 16 16.5 22.5t28.5 -8.5l354 -389q28 -31 -10 -62z" />
<glyph unicode="&#x205f;" horiz-adv-x="527" />
<glyph unicode="&#x20ac;" d="M1325 1393q25 -25 -4 -54l-113 -127q-30 -30 -61 -2q-113 101 -252 101q-133 0 -233 -82t-156 -223h418q49 0 43 -48l-13 -81q-6 -50 -55 -50h-440q-10 -58 -10 -106h436q25 0 34.5 -11.5t6.5 -37.5l-11 -82q-5 -25 -17.5 -36t-37.5 -11h-405q24 -149 99.5 -231.5 t201.5 -82.5q134 0 262 90q41 25 59 -10l74 -133q18 -29 -12 -53q-81 -62 -198.5 -105t-248.5 -43q-241 0 -387.5 153.5t-171.5 414.5h-88q-26 0 -36 11t-7 36l10 82q8 49 58 49h61q3 53 12 106h-59q-26 0 -36 12t-7 38l12 81q9 48 56 48h77q86 253 275 406t430 153 q149 0 258.5 -51.5t175.5 -120.5z" />
<glyph unicode="&#x2122;" horiz-adv-x="1323" d="M217 1511q3 25 27 25h389q23 0 20 -25l-12 -96q-6 -24 -29 -24h-118l-58 -408q-3 -29 -30 -29h-99q-26 0 -20 29l57 408h-119q-25 0 -22 24zM934 954q-18 0 -21 21l-73 287l-64 -279q-2 -9 -11.5 -19t-21.5 -10h-98q-22 0 -16 27l131 530q6 25 28 25h82q20 0 27 -20 l94 -365l201 365q7 20 29 20h82q22 0 22 -25l-18 -530q0 -8 -6.5 -17.5t-18.5 -9.5h-98q-23 0 -23 29l13 279l-154 -287q-9 -21 -29 -21h-57z" />
<glyph unicode="&#x25fc;" horiz-adv-x="1034" d="M0 1034h1034v-1034h-1034v1034z" />
<glyph unicode="&#xfb01;" horiz-adv-x="1255" d="M170 0q-49 0 -41 49l107 756h-107q-49 0 -41 49l18 127q3 26 16.5 37.5t39.5 11.5h104l17 119q31 216 183 348.5t368 132.5q247 0 378 -182q21 -27 22 -42.5t-22 -39.5l-114 -100q-21 -18 -35.5 -19t-30.5 17q-2 2 -14.5 16t-20.5 22t-24 22.5t-31 23.5t-34.5 19 t-42 14.5t-46.5 4.5q-95 0 -159.5 -67t-81.5 -180l-15 -109h600q26 0 36 -11.5t7 -37.5l-131 -932q-8 -49 -55 -49h-201q-26 0 -35.5 11.5t-5.5 37.5l107 756h-353l-106 -756q-8 -49 -55 -49h-201z" />
<glyph unicode="&#xfb02;" horiz-adv-x="1439" d="M170 0q-49 0 -41 49l107 756h-107q-49 0 -41 49l18 127q3 26 16.5 37.5t39.5 11.5h102l19 119q31 217 179.5 349t360.5 132q190 0 320 -117l78 50q26 15 45.5 2.5t15.5 -41.5l-152 -1086q-12 -87 29.5 -141.5t128.5 -54.5h10q26 0 35 -11t6 -38l-20 -144 q-3 -26 -16 -37.5t-39 -11.5h-62q-204 0 -300.5 114t-67.5 318l51 373h-353l-106 -756q-8 -49 -55 -49h-201zM563 1030h352l46 313q-53 43 -130 43q-101 0 -169.5 -68.5t-83.5 -178.5z" />
<glyph unicode="&#xfb03;" horiz-adv-x="1896" d="M88 854l18 127q3 26 16.5 37.5t39.5 11.5h94l12 88q26 192 161.5 313t315.5 121q40 0 79 -8t66.5 -18t56.5 -26.5t43 -27t32.5 -25.5t19.5 -15q6 8 17 21.5t51 47.5t85.5 60t120 47.5t154.5 21.5q76 0 142.5 -18t112.5 -48t76 -58t52 -58q22 -26 22.5 -42.5t-22.5 -39.5 l-106 -92q-42 -36 -66 -2q-99 114 -217 114q-96 0 -163 -67.5t-80 -179.5l-17 -109h600q27 0 37 -11.5t6 -37.5l-131 -932q-3 -26 -16 -37.5t-39 -11.5h-201q-26 0 -35.5 11.5t-5.5 37.5l107 756h-352l-107 -756q-6 -49 -55 -49h-201q-49 0 -41 49l107 756h-355l-106 -756 q-8 -49 -56 -49h-200q-49 0 -41 49l106 756h-96q-49 0 -41 49zM555 1030h352l29 197q-2 3 -7 9t-21 20.5t-33.5 25.5t-45.5 20t-57 9q-78 0 -136 -53.5t-71 -139.5z" />
<glyph unicode="&#xfb04;" horiz-adv-x="2082" d="M88 854l18 127q3 26 16.5 37.5t39.5 11.5h94l12 88q26 191 165.5 312.5t318.5 121.5q40 0 78.5 -8t66 -18.5t54.5 -26.5t41.5 -27t30.5 -24.5t19 -15.5q6 8 17 21.5t51 47.5t86 60t121.5 47.5t157.5 21.5q187 0 315 -112l74 45q25 15 44.5 2.5t16.5 -41.5l-151 -1086 q-12 -87 29 -141.5t128 -54.5h11q25 0 34 -11.5t6 -37.5l-20 -144q-3 -26 -16 -37.5t-39 -11.5h-64q-202 0 -299 114t-69 318l53 373h-354l-107 -756q-6 -49 -55 -49h-201q-49 0 -41 49l107 756h-355l-106 -756q-8 -49 -56 -49h-200q-49 0 -41 49l106 756h-96q-49 0 -41 49z M1204 1030h352l43 311q-56 45 -133 45q-98 0 -164.5 -67t-80.5 -180zM555 1030h352l29 195q-2 3 -6.5 9t-19.5 21t-31.5 26t-44 20.5t-56.5 9.5q-80 0 -140 -53.5t-73 -139.5z" />
</font>
</defs>
</svg>
