<?xml version="1.0" standalone="no"?>
<!DOCTYPE svg PUBLIC "-//W3C//DTD SVG 1.1//EN" "http://www.w3.org/Graphics/SVG/1.1/DTD/svg11.dtd" >
<svg xmlns="http://www.w3.org/2000/svg">
<metadata></metadata>
<defs>
<font id="merlo_neueitalic" horiz-adv-x="1169" >
<font-face units-per-em="2048" ascent="1536" descent="-512" />
<missing-glyph horiz-adv-x="471" />
<glyph horiz-adv-x="0" />
<glyph horiz-adv-x="682" />
<glyph unicode=" "  horiz-adv-x="471" />
<glyph unicode="&#x09;" horiz-adv-x="471" />
<glyph unicode="&#xa0;" horiz-adv-x="471" />
<glyph unicode="!" horiz-adv-x="460" d="M182 362q-23 0 -30.5 9t-4.5 32l134 1092q3 23 12.5 32t32.5 9h94q23 0 31.5 -9t5.5 -32l-174 -1092q-3 -23 -13.5 -32t-33.5 -9h-54zM55 94q0 54 40.5 93.5t94.5 39.5q44 0 73.5 -30.5t29.5 -73.5q0 -55 -41 -93t-96 -38q-44 0 -72.5 29.5t-28.5 72.5z" />
<glyph unicode="&#x22;" horiz-adv-x="618" d="M383 1536q15 0 23 -10.5t2 -28.5l-103 -330q-8 -25 -28.5 -35t-38.5 0t-19 35l-8 330q0 39 33 39h139zM659 1536q15 0 23 -10.5t2 -28.5l-102 -330q-8 -25 -28.5 -35t-38.5 0t-19 35l-9 330q0 39 33 39h139z" />
<glyph unicode="#" horiz-adv-x="1599" d="M868 481h-192l-115 -436q-6 -24 -18 -34.5t-35 -10.5h-86q-42 0 -33 41l117 440h-367q-23 0 -30.5 9t-4.5 32l13 90q3 23 13.5 32t33.5 9h387l53 205h-356q-23 0 -30.5 9t-4.5 32l12 90q3 23 13.5 32t33.5 9h375l96 359q12 45 54 45h86q47 0 35 -41l-97 -363h189l96 359 q6 24 18 34.5t35 10.5h86q47 0 35 -41l-96 -363h346q23 0 30.5 -9t4.5 -32l-13 -90q-3 -23 -13.5 -32t-33.5 -9h-366l-56 -205h338q23 0 30.5 -9t4.5 -32l-12 -90q-3 -23 -13.5 -32t-33.5 -9h-359l-114 -436q-12 -45 -54 -45h-86q-41 0 -32 41zM721 653h192l54 205h-191z " />
<glyph unicode="$" horiz-adv-x="1038" d="M1047 1442q18 -15 4 -37l-64 -94q-13 -18 -37 -4q-142 82 -272 82t-215.5 -69t-85.5 -171q0 -59 32 -109t83.5 -88.5t114 -76t125 -80t114 -91.5t83.5 -119.5t32 -154.5q0 -161 -109 -281.5t-277 -156.5l-14 -101q-3 -23 -13.5 -32t-33.5 -9h-90q-23 0 -30.5 9t-4.5 32 l12 91q-211 19 -376 184q-21 20 6 47l75 76q25 25 48 2q67 -67 155 -104t180 -37q132 0 210.5 69.5t78.5 175.5q0 65 -32 120.5t-83 97t-113 81t-123.5 81.5t-112.5 89t-83 114t-32 146q0 102 48 193t146.5 156t229.5 79l12 93q3 23 13.5 32t33.5 9h90q23 0 30.5 -9t4.5 -32 l-12 -97q73 -11 136 -37.5t89 -47.5z" />
<glyph unicode="%" horiz-adv-x="1107" d="M406 1180q-70 0 -117 48t-47 118q0 85 65.5 147.5t151.5 62.5q71 0 117.5 -47.5t46.5 -117.5q0 -86 -65 -148.5t-152 -62.5zM133 0q-24 0 -33.5 10.5t0.5 30.5l799 1450q10 20 14.5 26.5t14 12.5t24.5 6h86q24 0 34.5 -11t0.5 -30l-801 -1450q-10 -20 -14.5 -26.5 t-14 -12.5t-24.5 -6h-86zM422 1296q33 0 58.5 24t25.5 56q0 27 -18.5 45.5t-45.5 18.5q-31 0 -56.5 -24t-25.5 -56q0 -26 18 -45t44 -19zM721 -14q-70 0 -117 48t-47 118q0 85 65.5 147.5t151.5 62.5q71 0 117.5 -47.5t46.5 -117.5q0 -86 -65 -148.5t-152 -62.5zM737 102 q33 0 58.5 24t25.5 56q0 27 -18 45.5t-45 18.5q-31 0 -56.5 -24t-25.5 -56q0 -27 17.5 -45.5t43.5 -18.5z" />
<glyph unicode="&#x26;" horiz-adv-x="1247" d="M496 -20q-186 0 -300 105t-114 275q0 79 25 152.5t66.5 130.5t85.5 99t93 73q-57 46 -97 126.5t-40 180.5q0 189 135 313t340 124q103 0 192.5 -37t137.5 -111q20 -32 -8 -57l-66 -56q-32 -26 -55 0q-79 88 -213 88q-124 0 -205.5 -71t-81.5 -180q0 -88 54.5 -156 t140.5 -80q23 -3 30.5 -11t4.5 -30l-13 -90q-3 -22 -12.5 -30t-34.5 -11q-52 -6 -103.5 -30t-96.5 -64t-73 -103.5t-28 -138.5q0 -109 70 -174t188 -65q131 0 223 75.5t111 202.5l33 232q6 40 47 40h280q41 0 35 -40l-10 -82q-6 -41 -47 -41h-148l-16 -123 q-26 -194 -175 -315t-355 -121z" />
<glyph unicode="'" horiz-adv-x="342" d="M219 1167l-8 330q0 39 33 39h139q15 0 23 -10.5t2 -28.5l-103 -330q-8 -25 -28.5 -35t-38.5 0t-19 35z" />
<glyph unicode="(" horiz-adv-x="612" d="M373 178q-4 -28 -5.5 -41t-2.5 -42t2 -45t11 -38.5t22.5 -35t38 -23t55.5 -12.5q23 -2 30 -10t4 -31l-12 -82q-3 -24 -12.5 -33t-32.5 -8q-329 13 -283 338l168 1196q45 318 377 338q23 1 30.5 -8t4.5 -33l-10 -82q-3 -23 -13 -31t-34 -10q-33 -2 -59.5 -12.5t-44.5 -23 t-32.5 -35.5t-22 -39t-14 -45t-8.5 -42t-6 -41z" />
<glyph unicode=")" horiz-adv-x="612" d="M80 -223q-24 -1 -32 8t-5 33l12 82q3 23 13 31t34 10q33 2 59.5 12.5t44.5 23t32.5 35t22 38.5t14 45t8.5 42t6 41l151 1069q4 28 5.5 41.5t2.5 42t-2 44.5t-11 39t-22.5 35.5t-38 23t-55.5 12.5q-23 2 -30 10t-4 31l10 82q3 24 13.5 33t33.5 8q329 -13 283 -338 l-168 -1196q-45 -318 -377 -338z" />
<glyph unicode="*" horiz-adv-x="602" d="M696 1507q5 -28 -3.5 -41t-37.5 -22l-112 -35l53 -92q13 -25 8.5 -40t-29.5 -32l-36 -24q-25 -17 -39.5 -14t-28.5 26l-53 92l-80 -92q-21 -24 -36 -26t-36 14l-30 22q-23 17 -24 33t21 41l80 92l-102 35q-27 9 -32.5 22.5t7.5 42.5l19 37q14 28 27.5 35t39.5 -2l105 -37 l16 115q5 29 17 40t41 11h38q30 0 40 -11t6 -40l-17 -115l113 35q29 9 41.5 2t17.5 -35z" />
<glyph unicode="+" horiz-adv-x="901" d="M803 831q23 0 30.5 -8.5t4.5 -31.5l-9 -66q-3 -23 -13.5 -32t-33.5 -9h-221l-35 -254q-3 -23 -13.5 -32t-33.5 -9h-90q-23 0 -30.5 9t-4.5 32l35 254h-221q-23 0 -30.5 9t-4.5 32l8 66q3 23 13 31.5t34 8.5h222l34 254q3 23 13.5 32t34.5 9h90q23 0 30 -8.5t4 -32.5 l-34 -254h221z" />
<glyph unicode="," horiz-adv-x="385" d="M14 98q0 53 38 91t98 38q45 0 74.5 -28t29.5 -86q0 -79 -48.5 -174t-137.5 -175q-2 -2 -7.5 -7t-8 -7.5t-8 -6t-9 -2.5t-8.5 3l-31 25q-14 11 8 36l16 19q15 19 19.5 25l18 24t19.5 27.5t14 24t11.5 26t3.5 20.5q0 18 -18 27q-74 32 -74 100z" />
<glyph unicode="-" horiz-adv-x="702" d="M127 483q-17 0 -21.5 8.5t-1.5 32.5l13 82q3 24 9.5 32.5t23.5 8.5h438q17 0 22 -9t2 -32l-12 -82q-3 -23 -10.5 -32t-24.5 -9h-438z" />
<glyph unicode="." horiz-adv-x="378" d="M14 94q0 54 41 93.5t95 39.5q44 0 73 -30.5t29 -73.5q0 -55 -41 -93t-96 -38q-44 0 -72.5 29.5t-28.5 72.5z" />
<glyph unicode="/" horiz-adv-x="477" d="M37 0q-42 0 -33 41l369 1450q6 24 18 34.5t35 10.5h86q42 0 33 -41l-369 -1450q-6 -24 -18 -34.5t-35 -10.5h-86z" />
<glyph unicode="0" horiz-adv-x="1232" d="M543 -20q-197 0 -299.5 144.5t-102.5 428.5q0 313 66 534.5t207 345t350 123.5q196 0 298.5 -144.5t102.5 -428.5q0 -313 -66 -534.5t-207 -345t-349 -123.5zM565 143q142 0 238 106.5t140 288t44 429.5q0 216 -63 326t-183 110q-107 0 -189.5 -62t-133 -174.5t-76 -262 t-25.5 -331.5q0 -213 64 -321.5t184 -108.5z" />
<glyph unicode="1" horiz-adv-x="690" d="M309 0q-23 0 -30.5 9t-4.5 32l177 1253l-197 -174q-33 -30 -57 0l-45 56q-14 17 -12.5 29.5t18.5 27.5l325 287q18 16 41 16h94q23 0 31.5 -9t5.5 -32l-204 -1454q-3 -23 -13.5 -32t-34.5 -9h-94z" />
<glyph unicode="2" horiz-adv-x="991" d="M80 0q-23 0 -30.5 9t-4.5 32l31 219q13 95 60.5 184.5t111.5 159.5t139 135.5t147 124.5t131 115.5t95.5 119t36.5 124.5q0 74 -50.5 122t-132.5 48q-119 0 -243 -107q-32 -29 -54 0l-49 55q-23 26 8 60q66 71 163.5 113t203.5 42q151 0 241.5 -84.5t90.5 -222.5 q0 -69 -23 -135t-62 -121.5t-90 -109t-108.5 -103t-115.5 -98t-112.5 -100t-98.5 -102.5t-75 -111.5t-40 -122.5l-12 -82h553q23 0 30 -8.5t4 -32.5l-10 -82q-3 -23 -13.5 -32t-33.5 -9h-688z" />
<glyph unicode="3" horiz-adv-x="980" d="M354 -20q-92 0 -178 39t-151 114q-28 32 8 64l63 51q38 30 62 0q39 -48 96 -72t115 -24q131 0 223 89t92 230q0 109 -61 176.5t-136 79.5q-24 3 -30.5 10.5t-3.5 30.5l12 90q3 22 12.5 30t34.5 11q95 14 171.5 102t76.5 189q0 87 -57.5 141.5t-147.5 54.5 q-46 0 -104.5 -22.5t-112.5 -65.5q-30 -27 -55 0l-50 56q-21 23 9 57q68 73 164 110.5t186 37.5q155 0 250.5 -94t95.5 -242q0 -70 -21.5 -135.5t-58.5 -116.5t-75.5 -88.5t-82.5 -67.5q65 -50 111.5 -141t46.5 -203q0 -105 -39.5 -197t-107.5 -156.5t-160.5 -101 t-196.5 -36.5z" />
<glyph unicode="4" horiz-adv-x="987" d="M592 0q-23 0 -30.5 9t-4.5 32l49 350h-561q-23 0 -30.5 9t-4.5 32l6 47q3 32 25 64l709 964q20 29 53 29h98q23 0 31.5 -9t5.5 -32l-133 -940h88q23 0 30.5 -9t4.5 -32l-10 -82q-3 -23 -13.5 -32t-34.5 -9h-88l-49 -350q-3 -23 -13.5 -32t-33.5 -9h-94zM254 555h375 l96 678z" />
<glyph unicode="5" horiz-adv-x="1021" d="M510 965q191 0 299.5 -107.5t108.5 -302.5q0 -267 -135 -421t-373 -154q-73 0 -132 14t-100 40.5t-65.5 49t-49.5 53.5q-24 31 11 58l69 61q33 29 56 0q43 -54 104.5 -83.5t130.5 -29.5q145 0 227 103t82 278q0 134 -73 205.5t-211 71.5h-213q-23 0 -30.5 9t-4.5 32 l92 653q3 23 12.5 32t32.5 9h598q23 0 31.5 -9t5.5 -32l-12 -82q-3 -23 -13.5 -32t-33.5 -9h-463l-58 -407h107z" />
<glyph unicode="6" horiz-adv-x="1126" d="M526 -20q-85 0 -156 29t-128.5 90t-90 166.5t-32.5 246.5q0 204 46 391.5t129.5 333t212 232.5t281.5 87q99 0 180.5 -35.5t133.5 -99.5q22 -28 -10 -57l-60 -59q-27 -27 -57 0q-104 88 -211 88q-86 0 -162 -50.5t-130 -135.5t-90.5 -188.5t-53.5 -217.5q5 7 15 19 t44.5 43t73 54.5t101 42.5t128.5 19q163 0 261 -113t98 -297q0 -256 -144.5 -422.5t-378.5 -166.5zM559 143q141 0 226 115.5t85 286.5q0 122 -63 196t-168 74q-57 0 -113 -21.5t-99.5 -56.5t-74.5 -69t-53 -68q-24 -215 48.5 -336t211.5 -121z" />
<glyph unicode="7" horiz-adv-x="849" d="M754 1372h-551q-23 0 -30.5 9t-4.5 32l12 82q3 23 12.5 32t32.5 9h705q23 0 31.5 -9t5.5 -32l-9 -47q-3 -31 -12 -49l-696 -1358q-20 -41 -53 -41h-101q-44 0 -24 41z" />
<glyph unicode="8" horiz-adv-x="1171" d="M543 -20q-199 0 -323 105t-124 280q0 143 92 270.5t222 183.5q-63 41 -100.5 121.5t-37.5 169.5q0 194 136 320t335 126q159 0 259 -95t100 -251q0 -121 -66 -228.5t-168 -162.5q84 -40 132.5 -134.5t48.5 -207.5q0 -221 -141.5 -359t-364.5 -138zM651 897q111 0 191 80 t80 201q0 97 -56.5 156t-144.5 59q-115 0 -193.5 -80t-78.5 -205q0 -93 57 -152t145 -59zM545 143q141 0 235 93.5t94 240.5q0 113 -69 183.5t-178 70.5q-137 0 -233.5 -95.5t-96.5 -240.5q0 -115 68.5 -183.5t179.5 -68.5z" />
<glyph unicode="9" horiz-adv-x="1126" d="M412 -20q-99 0 -180.5 35.5t-133.5 99.5q-22 28 11 57l59 59q27 27 57 0q104 -88 211 -88q86 0 162 50.5t130 135.5t90.5 188.5t53.5 217.5q-5 -7 -15 -19t-44.5 -43t-73 -54.5t-101 -42.5t-128.5 -19q-163 0 -260.5 113t-97.5 297q0 256 144 422.5t378 166.5 q85 0 156 -29t128.5 -90t90 -166.5t32.5 -246.5q0 -204 -46 -391.5t-129.5 -333t-212 -232.5t-281.5 -87zM561 721q57 0 113 21.5t99.5 56.5t74.5 69t53 68q24 215 -48.5 336t-211.5 121q-141 0 -226 -115.5t-85 -286.5q0 -122 63 -196t168 -74z" />
<glyph unicode=":" horiz-adv-x="378" d="M121 854q0 54 40.5 93.5t94.5 39.5q44 0 73 -30.5t29 -73.5q0 -55 -40 -93t-95 -38q-45 0 -73.5 29.5t-28.5 72.5zM14 94q0 54 41 93.5t95 39.5q44 0 73 -30.5t29 -73.5q0 -55 -41 -93t-96 -38q-44 0 -72.5 29.5t-28.5 72.5z" />
<glyph unicode=";" horiz-adv-x="415" d="M152 854q0 54 40.5 93.5t94.5 39.5q44 0 73 -30.5t29 -73.5q0 -55 -40 -93t-95 -38q-45 0 -73.5 29.5t-28.5 72.5zM14 98q0 53 38 91t98 38q45 0 74.5 -28t29.5 -86q0 -79 -48.5 -174t-137.5 -175q-2 -2 -7.5 -7t-8 -7.5t-8 -6t-9 -2.5t-8.5 3l-31 25q-14 11 8 36l16 19 q15 19 19.5 25l18 24t19.5 27.5t14 24t11.5 26t3.5 20.5q0 18 -18 27q-74 32 -74 100z" />
<glyph unicode="&#x3c;" horiz-adv-x="645" d="M145 735q-20 23 5 45l446 381q15 13 26 7.5t9 -19.5l-21 -150q-1 -11 -2.5 -16t-7.5 -13t-18 -18l-228 -194l174 -195q12 -13 14 -24t-1 -23l-21 -149q-2 -15 -14.5 -20t-24.5 7z" />
<glyph unicode="=" horiz-adv-x="901" d="M188 836q-23 0 -30 8.5t-4 32.5l10 65q3 23 12.5 32t32.5 9h614q23 0 31.5 -9t5.5 -32l-10 -65q-3 -23 -13.5 -32t-33.5 -9h-615zM150 549q-23 0 -31.5 9t-5.5 32l10 65q3 23 13.5 32t33.5 9h614q23 0 30.5 -9t4.5 -32l-10 -65q-3 -23 -12.5 -32t-32.5 -9h-614z" />
<glyph unicode="&#x3e;" horiz-adv-x="645" d="M561 735l-442 -381q-17 -12 -27.5 -7t-7.5 20l20 149q1 3 2 8.5t1.5 7.5t2 6.5t4 7.5t7 7.5t10.5 9.5l227 195l-172 194q-19 21 -16 47l23 150q2 14 14 19.5t24 -7.5l338 -381q19 -22 -8 -45z" />
<glyph unicode="?" horiz-adv-x="829" d="M291 362q-20 0 -28.5 7t-8.5 24q0 120 23.5 216.5t60.5 158t82 110.5t90 85t82 70t60.5 78t23.5 97q0 86 -53 129t-142 43q-124 0 -227 -90q-31 -28 -55 0l-49 56q-23 26 10 59q72 72 166 107.5t192 35.5q156 0 247 -79.5t91 -223.5q0 -72 -24.5 -132t-63.5 -104.5 t-86.5 -87t-95 -91t-86.5 -104.5t-63.5 -139t-24.5 -184q0 -23 -11.5 -32t-35.5 -9h-74zM295 -8q-44 0 -72 29.5t-28 72.5q0 54 40.5 93.5t94.5 39.5q44 0 73 -30.5t29 -73.5q0 -55 -41 -93t-96 -38z" />
<glyph unicode="@" horiz-adv-x="2205" d="M1233 1450q257 0 448 -102t292.5 -287.5t101.5 -431.5q0 -241 -72.5 -434.5t-199 -301.5t-283.5 -108q-131 0 -200.5 82t-49.5 215l2 20q-4 -5 -12 -13t-35.5 -29t-58.5 -37.5t-79.5 -29.5t-99.5 -13q-177 0 -274 109.5t-97 305.5q0 277 139 443t371 166q55 0 101 -12.5 t73 -31t46.5 -36.5t26.5 -30l7 -13l11 61q3 23 12.5 32t32.5 9h90q23 0 31.5 -9t5.5 -32l-121 -860v-4q-7 -57 24 -92t88 -35q99 0 180.5 87.5t128 237t46.5 328.5q0 308 -189 493t-512 185q-196 0 -365.5 -66.5t-291 -185t-191 -288t-69.5 -367.5q0 -313 186.5 -501.5 t505.5 -188.5h2q23 0 30.5 -9t4.5 -32l-10 -80q-3 -23 -13.5 -32t-33.5 -9h-2q-386 0 -612 226t-226 603q0 239 84 444t230.5 348.5t352 224.5t443.5 81zM1032 143q43 0 85.5 13t73.5 32t55.5 37.5t37.5 31.5l12 13l62 443q-3 5 -8.5 13.5t-27 30.5t-46.5 39t-67.5 30.5 t-90.5 13.5q-144 0 -234.5 -113.5t-90.5 -302.5q0 -133 61.5 -207t177.5 -74z" />
<glyph unicode="A" d="M-2 0q-39 0 -21 41l644 1454q18 41 59 41h94q45 0 51 -41l234 -1454q6 -41 -33 -41h-98q-20 0 -27 9t-10 32l-60 377h-520l-166 -377q-10 -23 -19.5 -32t-29.5 -9h-98zM383 582h422l-113 702z" />
<glyph unicode="B" horiz-adv-x="1208" d="M141 0q-41 0 -35 41l205 1454q6 41 45 41h379q195 0 298.5 -88.5t103.5 -253.5q0 -110 -47 -212.5t-132 -160.5q132 -85 132 -311q0 -238 -149.5 -374t-414.5 -136h-385zM401 895h277q131 0 208 77t77 199q0 201 -218 201h-276zM299 164h262q82 0 146 20t102 51.5t63 74 t34 82.5t9 83q0 127 -73.5 191.5t-200.5 64.5h-262z" />
<glyph unicode="C" horiz-adv-x="1214" d="M659 -20q-162 0 -281 88t-178 235.5t-59 335.5q0 247 91 458.5t256 339.5t368 128q128 0 231 -46t173 -116q13 -14 11 -25.5t-18 -29.5l-51 -58q-30 -34 -61 -6q-129 117 -291 117q-119 0 -220.5 -62.5t-168.5 -167t-104.5 -239.5t-37.5 -281q0 -145 39.5 -257.5 t123 -181.5t200.5 -69q159 0 311 111q17 13 35 12t27 -18l37 -66q9 -17 6.5 -28.5t-19.5 -24.5q-80 -66 -192 -107.5t-228 -41.5z" />
<glyph unicode="D" horiz-adv-x="1372" d="M141 0q-41 0 -35 41l205 1454q6 41 45 41h355q305 0 452.5 -147.5t147.5 -462.5q0 -275 -99 -485.5t-279.5 -325.5t-416.5 -115h-375zM299 164h240q176 0 312.5 94.5t210 262t73.5 380.5q0 258 -107.5 364.5t-339.5 106.5h-219z" />
<glyph unicode="E" horiz-adv-x="1095" d="M141 0q-41 0 -35 41l205 1454q6 41 45 41h709q43 0 37 -41l-12 -82q-6 -41 -48 -41h-573l-68 -483h492q41 0 35 -41l-10 -82q-6 -41 -48 -41h-491l-80 -561h594q41 0 35 -41l-10 -82q-6 -41 -48 -41h-729z" />
<glyph unicode="F" horiz-adv-x="1005" d="M141 0q-41 0 -35 41l205 1454q6 41 45 41h688q43 0 37 -41l-12 -82q-6 -41 -47 -41h-553l-70 -504h451q41 0 35 -41l-13 -82q-6 -40 -47 -40h-448l-94 -664q-6 -41 -47 -41h-95z" />
<glyph unicode="G" horiz-adv-x="1359" d="M141 639q0 247 91 458.5t256 339.5t368 128q128 0 231 -46t173 -116q13 -14 11 -25.5t-18 -29.5l-51 -58q-30 -34 -61 -6q-129 117 -291 117q-119 0 -220.5 -62.5t-168.5 -167t-104.5 -239.5t-37.5 -281q0 -145 39.5 -257.5t123 -181.5t200.5 -69q129 0 233 74t119 176 l37 252h-291q-41 0 -35 41l13 82q6 41 47 41h426q41 0 35 -41l-58 -391q-25 -166 -181.5 -281.5t-354.5 -115.5q-168 0 -290 88t-181.5 235.5t-59.5 335.5z" />
<glyph unicode="H" horiz-adv-x="1415" d="M141 0q-41 0 -35 41l205 1454q6 41 45 41h95q42 0 36 -41l-88 -627h717l88 627q6 41 45 41h94q43 0 37 -41l-204 -1454q-6 -41 -48 -41h-94q-41 0 -35 41l95 664h-717l-94 -664q-6 -41 -47 -41h-95z" />
<glyph unicode="I" horiz-adv-x="522" d="M141 0q-41 0 -35 41l205 1454q6 41 45 41h95q42 0 36 -41l-204 -1454q-6 -41 -47 -41h-95z" />
<glyph unicode="J" horiz-adv-x="935" d="M315 -20q-88 0 -171.5 34.5t-137.5 104.5q-21 28 10 59l62 62q31 31 55 0q38 -48 91 -72.5t108 -24.5q93 0 163 64t83 164l157 1124q6 41 45 41h94q43 0 37 -41l-157 -1122q-11 -77 -49.5 -148t-95.5 -125.5t-134 -87t-160 -32.5z" />
<glyph unicode="K" horiz-adv-x="1140" d="M141 0q-41 0 -35 41l205 1454q6 41 45 41h95q42 0 36 -41l-98 -692l617 713q20 20 43 20h131q19 0 24.5 -10t-10.5 -29l-594 -692l428 -764q9 -19 2 -30t-22 -11h-131q-29 0 -43 23l-369 671l-105 -106l-77 -547q-6 -41 -47 -41h-95z" />
<glyph unicode="L" horiz-adv-x="946" d="M141 0q-41 0 -35 41l205 1454q6 41 45 41h95q42 0 36 -41l-186 -1331h494q40 0 34 -41l-10 -82q-6 -41 -47 -41h-631z" />
<glyph unicode="M" horiz-adv-x="1617" d="M80 0q-44 0 -35 41l338 1454q9 41 45 41h82q34 0 37 -25l229 -1235l576 1235q12 25 43 25h82q39 0 36 -41l-71 -1454q-3 -41 -47 -41h-95q-37 0 -34 41l49 1042l-494 -1054q-13 -29 -49 -29h-70q-34 0 -40 29l-199 1054l-242 -1042q-9 -41 -47 -41h-94z" />
<glyph unicode="N" horiz-adv-x="1400" d="M141 0q-41 0 -35 41l205 1454q6 41 45 41h66q24 0 37 -25l581 -1103l154 1087q6 41 45 41h90q43 0 37 -41l-205 -1454q-6 -41 -47 -41h-65q-23 0 -35 25l-580 1126l-155 -1110q-6 -41 -48 -41h-90z" />
<glyph unicode="O" horiz-adv-x="1503" d="M887 1556q258 0 402.5 -168.5t144.5 -467.5q0 -284 -89 -496.5t-257.5 -328t-397.5 -115.5q-253 0 -401 171.5t-148 464.5q0 284 89 496t258 328t399 116zM713 143q167 0 290 93t187.5 262.5t64.5 396.5q0 235 -103 366.5t-286 131.5q-168 0 -292 -94t-189.5 -263 t-65.5 -393q0 -230 106.5 -365t287.5 -135z" />
<glyph unicode="P" horiz-adv-x="1144" d="M141 0q-41 0 -35 41l203 1452q6 41 47 41h367q210 0 321 -117t111 -305q0 -108 -38.5 -205.5t-109 -172.5t-179 -119t-240.5 -44h-232l-73 -530q-6 -41 -47 -41h-95zM379 735h211q100 0 177 28.5t122.5 78t68.5 112.5t23 136q0 133 -73.5 206.5t-227.5 73.5h-211z" />
<glyph unicode="Q" horiz-adv-x="1503" d="M1434 920q0 -320 -112.5 -547t-317.5 -326l165 -375q7 -18 -0.5 -29.5t-23.5 -11.5h-123q-16 0 -26.5 11t-20.5 34l-139 316q-68 -12 -146 -12q-253 0 -401 171.5t-148 464.5q0 284 89 496t258 328t399 116q258 0 402.5 -168.5t144.5 -467.5zM713 143q167 0 290 93 t187.5 262.5t64.5 396.5q0 235 -103 366.5t-286 131.5q-168 0 -292 -94t-189.5 -263t-65.5 -393q0 -230 106.5 -365t287.5 -135z" />
<glyph unicode="R" horiz-adv-x="1198" d="M141 0q-41 0 -35 41l205 1454q6 41 45 41h406q214 0 325 -102t111 -281q0 -205 -101.5 -337t-297.5 -171l250 -604q15 -41 -33 -41h-113q-34 0 -47 29l-250 602h-241l-82 -590q-6 -41 -47 -41h-95zM389 795h283q97 0 168 28.5t110 77.5t56.5 106t17.5 123 q0 109 -64 175.5t-208 66.5h-283z" />
<glyph unicode="S" horiz-adv-x="1038" d="M451 -20q-240 0 -426 186q-21 20 6 47l75 76q25 25 48 2q67 -67 155 -104t180 -37q132 0 210.5 69.5t78.5 175.5q0 65 -32 120.5t-83 97t-113 81t-123.5 81.5t-112.5 89t-83 114t-32 146q0 82 33 159t94 138t156 98t210 37q64 0 124 -11.5t100.5 -28.5t71 -34t44.5 -28 l15 -12q18 -15 4 -37l-64 -94q-13 -18 -37 -4q-142 82 -272 82t-215.5 -69t-85.5 -171q0 -59 32 -109t83.5 -88.5t114 -76t125 -80t114 -91.5t83.5 -119.5t32 -154.5q0 -126 -68.5 -230t-185.5 -162t-256 -58z" />
<glyph unicode="T" horiz-adv-x="1136" d="M449 0q-41 0 -35 41l188 1339h-418q-43 0 -37 41l13 74q6 41 45 41h1012q42 0 36 -41l-10 -74q-6 -41 -47 -41h-418l-188 -1339q-6 -41 -47 -41h-94z" />
<glyph unicode="U" horiz-adv-x="1384" d="M616 -20q-120 0 -212 37.5t-154 112t-85 196t-1 280.5l125 889q6 41 45 41h94q43 0 37 -41l-129 -905q-17 -101 -6 -177t36.5 -127.5t69.5 -83t93.5 -45.5t109.5 -14q75 0 141 23t126 72.5t102 139t59 212.5l127 905q6 41 45 41h94q43 0 37 -41l-125 -889 q-22 -159 -79.5 -280.5t-141 -196t-186 -112t-222.5 -37.5z" />
<glyph unicode="V" horiz-adv-x="1204" d="M481 0q-16 0 -23 1.5t-13.5 10.5t-10.5 29l-272 1454q-8 41 31 41h102q28 0 36.5 -6t14.5 -35l219 -1241l570 1241q13 29 23 35t38 6h102q40 0 21 -41l-680 -1454q-12 -28 -23.5 -34.5t-35.5 -6.5h-99z" />
<glyph unicode="W" horiz-adv-x="1794" d="M182 1495q-6 41 31 41h113q22 0 31.5 -10t11.5 -31l123 -1186l446 1186q15 41 57 41h90q47 0 50 -41l110 -1186l459 1186q8 22 18.5 31.5t32.5 9.5h113q20 0 24 -10.5t-4 -30.5l-577 -1454q-15 -41 -60 -41h-90q-44 0 -47 41l-117 1186l-448 -1186q-15 -41 -60 -41h-90 q-41 0 -47 41z" />
<glyph unicode="X" horiz-adv-x="1036" d="M-25 0q-21 0 -23.5 9.5t11.5 31.5l494 737l-271 717q-15 41 25 41h117q33 0 45 -29l202 -587l369 587q10 17 21 23t30 6h117q41 0 14 -41l-471 -715l287 -739q15 -41 -24 -41h-113q-35 0 -47 29l-221 608l-394 -608q-18 -29 -55 -29h-113z" />
<glyph unicode="Y" horiz-adv-x="1052" d="M991 1507q19 29 53 29h105q41 0 14 -41l-520 -790l-94 -664q-6 -41 -47 -41h-94q-41 0 -35 41l92 664l-297 790q-9 20 -4.5 30.5t26.5 10.5h105q37 0 49 -29l231 -657z" />
<glyph unicode="Z" horiz-adv-x="1026" d="M39 0q-41 0 -35 41l14 98q3 26 15 41l854 1192h-664q-41 0 -35 41l13 82q6 41 45 41h819q43 0 37 -41l-15 -98q-3 -25 -16 -41l-856 -1192h653q41 0 35 -41l-10 -82q-6 -41 -47 -41h-807z" />
<glyph unicode="[" horiz-adv-x="704" d="M152 -440q-23 0 -30.5 9t-4.5 32l284 2025q3 23 12.5 32t32.5 9h381q23 0 31.5 -9t5.5 -32l-12 -82q-3 -23 -13.5 -32t-33.5 -9h-246l-250 -1779h246q23 0 30.5 -9t4.5 -32l-10 -82q-3 -23 -13.5 -32t-34.5 -9h-380z" />
<glyph unicode="\" horiz-adv-x="681" d="M422 0q-23 0 -33.5 10.5t-13.5 34.5l-166 1442q-3 21 7 35t32 14h84q23 0 33.5 -10.5t13.5 -34.5l166 -1450q3 -41 -39 -41h-84z" />
<glyph unicode="]" horiz-adv-x="704" d="M49 -440q-23 0 -30.5 9t-4.5 32l11 82q3 23 13.5 32t33.5 9h245l250 1779h-245q-23 0 -30.5 9t-4.5 32l12 82q3 23 12.5 32t32.5 9h381q23 0 31.5 -9t5.5 -32l-285 -2025q-3 -23 -13.5 -32t-33.5 -9h-381z" />
<glyph unicode="^" horiz-adv-x="884" d="M567 1407l-258 -258q-30 -30 -57 0l-37 43q-13 12 -12.5 26t20.5 31l336 295q32 28 57 0l254 -295q23 -29 -8 -57l-49 -43q-35 -32 -57 0z" />
<glyph unicode="_" horiz-adv-x="1126" d="M25 -41q3 23 13.5 32t33.5 9h837q23 0 30.5 -9t4.5 -32l-10 -82q-3 -23 -13.5 -32t-33.5 -9h-838q-23 0 -30.5 9t-4.5 32z" />
<glyph unicode="`" horiz-adv-x="348" d="M530 1565l-231 200q-30 24 4 62l51 51q17 17 29 19t31 -15l213 -219q13 -17 9.5 -27.5t-20.5 -27.5l-26 -27q-12 -12 -19.5 -17t-19.5 -7t-21 8z" />
<glyph unicode="a" horiz-adv-x="1048" d="M940 983q23 0 31.5 -9t5.5 -32l-127 -901q-3 -23 -13.5 -32t-33.5 -9h-90q-23 0 -30.5 9t-4.5 32l8 53q-15 -15 -36.5 -31t-57 -36.5t-85 -33.5t-101.5 -13q-153 0 -243.5 114t-90.5 318q0 262 133.5 427t339.5 165q58 0 107 -14.5t78 -36.5t44 -38t23 -30l-25 -166 q-7 13 -22.5 30t-42.5 39t-68.5 37t-87.5 15q-129 0 -216 -112t-87 -288q0 -142 57 -219.5t154 -77.5q76 0 144 39.5t106 77.5l96 682q3 23 12.5 32t32.5 9h90z" />
<glyph unicode="b" horiz-adv-x="1071" d="M666 1004q156 0 242.5 -107t86.5 -311q0 -174 -58 -312.5t-162.5 -216t-237.5 -77.5q-55 0 -103 12t-81 32t-52.5 35.5t-32.5 30.5l-6 -49q-3 -23 -13.5 -32t-33.5 -9h-90q-23 0 -30.5 9t-4.5 32l205 1454q3 23 12.5 32t32.5 9h90q23 0 31.5 -9t5.5 -32l-84 -600 q24 22 54.5 43t95 43.5t133.5 22.5zM528 143q128 0 210.5 119.5t82.5 300.5q0 137 -54.5 207t-152.5 70q-56 0 -114.5 -24.5t-89 -47.5t-52.5 -45l-65 -463q30 -40 91 -78.5t144 -38.5z" />
<glyph unicode="c" horiz-adv-x="927" d="M879 891q22 -19 4 -51l-39 -68q-21 -37 -62 -8q-108 76 -223 76q-137 0 -225 -107t-88 -284q0 -144 62.5 -225t183.5 -81q120 0 219 76q40 31 59 0l37 -61q21 -31 -2 -54q-56 -56 -146 -90t-188 -34q-190 0 -292.5 122t-102.5 338q0 253 137.5 408.5t349.5 155.5 q92 0 174.5 -31.5t141.5 -81.5z" />
<glyph unicode="d" horiz-adv-x="1071" d="M1016 1536q23 0 31.5 -9t5.5 -32l-205 -1454q-3 -23 -13.5 -32t-33.5 -9h-90q-23 0 -30.5 9t-4.5 32l6 49q-23 -22 -53 -42.5t-93.5 -44t-129.5 -23.5q-153 0 -243.5 114t-90.5 318q0 262 133.5 427t339.5 165q57 0 104.5 -13.5t76.5 -34.5t45 -38t24 -31l86 608 q3 23 12.5 32t32.5 9h90zM459 143q51 0 107.5 24t86.5 46t54 45l65 463q-9 14 -24 30t-42.5 38t-68 36.5t-86.5 14.5q-129 0 -216 -112t-87 -288q0 -142 57 -219.5t154 -77.5z" />
<glyph unicode="e" horiz-adv-x="1009" d="M74 426q0 128 40 237t108.5 183t160.5 116t195 42q175 0 275 -118.5t83 -340.5q-6 -71 -19 -95t-38 -24h-627q0 -139 59.5 -211t173.5 -72q125 0 220 76q41 32 59 0l37 -61q18 -31 -2 -54q-37 -44 -131 -84t-203 -40q-178 0 -284.5 117.5t-106.5 328.5zM274 578l488 2 q15 117 -39 188.5t-158 71.5q-111 0 -194 -78t-97 -184z" />
<glyph unicode="f" horiz-adv-x="673" d="M870 1460q20 -28 21 -43t-21 -37l-53 -47q-31 -28 -57 2q-55 58 -115 58q-59 0 -107.5 -42t-58.5 -112l-37 -256h201q23 0 31.5 -9t5.5 -32l-10 -65q-3 -23 -13.5 -32t-33.5 -9h-201l-111 -795q-3 -23 -12.5 -32t-32.5 -9h-90q-23 0 -31.5 9t-5.5 32l111 795h-103 q-23 0 -30 8.5t-4 32.5l10 65q3 23 12.5 32t32.5 9h102l37 256q20 138 124.5 227.5t230.5 89.5q69 0 123 -27t85 -69z" />
<glyph unicode="g" horiz-adv-x="1069" d="M938 983q23 0 31 -9t6 -32l-150 -1055q-26 -181 -147 -290t-299 -109q-110 0 -194.5 39t-131.5 98q-21 26 -21.5 42.5t21.5 37.5l53 47q31 28 58 -2q85 -98 229 -98q107 0 175 60t85 175l29 203q-22 -22 -53 -43.5t-94 -44t-129 -22.5q-153 0 -243.5 114t-90.5 318 q0 262 133.5 427t339.5 165q57 0 104.5 -13.5t76.5 -34.5t45 -38t24 -31l8 55q3 23 12.5 32t32.5 9h90zM459 143q52 0 107.5 23.5t85.5 46t55 45.5l65 463q-8 14 -23.5 30.5t-42.5 38.5t-68 36t-87 14q-129 0 -216 -112t-87 -288q0 -142 57 -219.5t154 -77.5z" />
<glyph unicode="h" horiz-adv-x="1077" d="M653 1004q151 0 243 -95t71 -243l-88 -625q-3 -23 -13.5 -32t-34.5 -9h-90q-23 0 -30 8.5t-4 32.5l79 573q17 113 -36.5 176.5t-147.5 63.5q-55 0 -112 -23t-83 -41.5t-45 -35.5l-100 -713q-3 -23 -13.5 -32t-33.5 -9h-90q-23 0 -30.5 9t-4.5 32l205 1454q3 23 12.5 32 t32.5 9h90q23 0 31.5 -9t5.5 -32l-82 -586q24 20 55 38.5t91 37.5t122 19z" />
<glyph unicode="i" horiz-adv-x="505" d="M346 1176q-49 0 -81 32t-32 82q0 58 45 102t105 44q49 0 81 -33.5t32 -83.5q0 -58 -45.5 -100.5t-104.5 -42.5zM137 0q-23 0 -30.5 9t-4.5 32l127 901q3 23 12.5 32t32.5 9h91q23 0 31 -9t5 -32l-127 -901q-3 -23 -13.5 -32t-33.5 -9h-90z" />
<glyph unicode="j" horiz-adv-x="524" d="M365 1176q-49 0 -81 32t-32 82q0 59 44.5 102.5t104.5 43.5q49 0 81 -33.5t32 -83.5q0 -58 -45 -100.5t-104 -42.5zM-94 -512q-70 0 -125 27t-86 69q-20 28 -21 43t21 37l53 47q34 31 57 -2q39 -57 113 -57q60 0 109 41.5t59 111.5l160 1137q3 23 12.5 32t32.5 9h90 q23 0 31.5 -9t5.5 -32l-160 -1137q-20 -138 -123.5 -227.5t-228.5 -89.5z" />
<glyph unicode="k" horiz-adv-x="909" d="M891 983q18 0 21.5 -12t-11.5 -29l-338 -352l242 -549q8 -17 0.5 -29t-27.5 -12h-121q-13 0 -19 1t-14 7.5t-14 20.5l-184 420l-125 -132l-39 -276q-3 -23 -13.5 -32t-33.5 -9h-90q-23 0 -30.5 9t-4.5 32l205 1454q3 23 12.5 32t32.5 9h90q23 0 31.5 -9t5.5 -32 l-131 -934l377 393q13 14 24.5 20.5t18.5 7.5t20 1h115z" />
<glyph unicode="l" horiz-adv-x="614" d="M410 0q-163 0 -240.5 90.5t-54.5 253.5l161 1151q3 23 13 32t33 9h90q23 0 31.5 -9t5.5 -32l-162 -1151q-12 -85 31.5 -132.5t132.5 -47.5h12q23 0 30.5 -9t4.5 -32l-11 -82q-3 -23 -13.5 -32t-33.5 -9h-30z" />
<glyph unicode="m" horiz-adv-x="1622" d="M1198 1004q151 0 242.5 -95t70.5 -243l-88 -625q-3 -23 -13.5 -32t-33.5 -9h-90q-23 0 -30.5 9t-4.5 32l80 573q17 113 -36.5 176.5t-147.5 63.5q-121 0 -227 -98q6 -42 0 -90l-89 -625q-3 -23 -13.5 -32t-33.5 -9h-90q-23 0 -30.5 9t-4.5 32l80 573q17 113 -36.5 176.5 t-147.5 63.5q-103 0 -199 -76l-104 -737q-3 -23 -13.5 -32t-33.5 -9h-90q-23 0 -30.5 9t-4.5 32l127 901q3 23 12.5 32t32.5 9h90q23 0 31.5 -9t5.5 -32l-2 -10q105 72 229 72q86 0 155 -33t111 -92q19 16 45 33t69.5 40t99 37.5t112.5 14.5z" />
<glyph unicode="n" horiz-adv-x="1064" d="M641 1004q151 0 242.5 -95t70.5 -243l-88 -625q-3 -23 -13.5 -32t-33.5 -9h-90q-23 0 -30.5 9t-4.5 32l80 573q17 113 -36.5 176.5t-147.5 63.5q-53 0 -108 -21t-83 -40t-47 -37l-100 -715q-3 -23 -13.5 -32t-33.5 -9h-90q-23 0 -30.5 9t-4.5 32l127 901q3 23 12.5 32 t32.5 9h90q23 0 31.5 -9t5.5 -32l-4 -33q120 95 266 95z" />
<glyph unicode="o" horiz-adv-x="1040" d="M455 -20q-182 0 -281.5 115t-99.5 329q0 258 139 419t362 161q184 0 285 -115t101 -328q0 -259 -141 -420t-365 -161zM475 143q135 0 223 111t88 287q0 144 -61 221.5t-170 77.5q-134 0 -220.5 -112t-86.5 -290q0 -142 59.5 -218.5t167.5 -76.5z" />
<glyph unicode="p" horiz-adv-x="1060" d="M655 1004q156 0 243 -107t87 -311q0 -174 -58 -312.5t-163 -216t-238 -77.5q-102 0 -169.5 36t-96.5 74l-80 -561q-3 -23 -13.5 -32t-33.5 -9h-90q-23 0 -30.5 9t-4.5 32l199 1411q3 23 12.5 32t32.5 9h90q23 0 31.5 -9t5.5 -32l-6 -45q116 109 282 109zM518 143 q128 0 210.5 119.5t82.5 300.5q0 137 -54.5 207t-152.5 70q-56 0 -114.5 -24.5t-89 -47.5t-52.5 -45l-65 -465q18 -22 43.5 -44.5t79.5 -46.5t112 -24z" />
<glyph unicode="q" horiz-adv-x="1038" d="M938 981q23 0 31.5 -9t5.5 -32l-199 -1411q-3 -23 -13.5 -32t-33.5 -9h-90q-23 0 -30.5 9t-4.5 32l80 563q-22 -22 -53 -44t-94.5 -45t-130.5 -23q-153 0 -243.5 114t-90.5 318q0 262 133.5 427t339.5 165q57 0 105 -13.5t76.5 -34.5t44.5 -37.5t24 -31.5l8 53 q3 23 12.5 32t32.5 9h90zM707 258l65 461q-8 14 -23.5 31t-42.5 39t-68 36.5t-87 14.5q-129 0 -216 -112t-87 -288q0 -142 57 -219.5t154 -77.5q75 0 142.5 38.5t105.5 76.5z" />
<glyph unicode="r" horiz-adv-x="749" d="M762 920l5 -6l7.5 -9t5.5 -10t3.5 -12.5t-2.5 -13.5t-9 -15l-59 -66q-12 -13 -26.5 -17t-29.5 7q-23 21 -38 32t-41 20.5t-56 9.5q-96 0 -170 -80l-100 -719q-3 -23 -13.5 -32t-33.5 -9h-90q-23 0 -30.5 9t-4.5 32l127 901q3 23 12.5 32t32.5 9h90q23 0 31.5 -9t5.5 -32 l-2 -18q91 80 198 80t187 -84z" />
<glyph unicode="s" horiz-adv-x="874" d="M383 -20q-95 0 -175 27t-165 83q-17 11 -18.5 31t8.5 33l39 61q25 42 65 18q148 -90 271 -90q82 0 132 36.5t50 96.5q0 32 -15.5 58t-50 47.5t-66.5 36t-89 35.5q-52 20 -86.5 39t-65.5 47.5t-46 69t-15 93.5q0 140 97 221t251 81q155 0 280 -76q39 -24 15 -66l-37 -61 q-8 -14 -21.5 -17.5t-21.5 -0.5t-25 10q-109 47 -202 47q-76 0 -120 -32.5t-44 -92.5q0 -50 35 -78t129 -62q51 -19 82.5 -32.5t72.5 -39t64.5 -52t40 -67.5t16.5 -91q0 -138 -107.5 -225.5t-277.5 -87.5z" />
<glyph unicode="t" horiz-adv-x="782" d="M412 -20q-128 3 -192.5 91.5t-45.5 223.5l76 541h-103q-23 0 -30 8.5t-4 32.5l10 65q3 23 12.5 32t32.5 9h104l39 281q3 23 13.5 32t33.5 9h91q23 0 30 -8.5t4 -32.5l-39 -281h199q23 0 31.5 -9t5.5 -32l-10 -65q-3 -23 -13.5 -32t-33.5 -9h-201l-76 -541 q-9 -67 18.5 -109.5t88.5 -42.5q69 0 127 58q31 31 57 2l41 -47q15 -23 9.5 -37t-34.5 -43q-99 -99 -241 -96z" />
<glyph unicode="u" horiz-adv-x="1046" d="M928 983q23 0 31.5 -9t5.5 -32l-127 -901q-3 -23 -13.5 -32t-33.5 -9h-91q-23 0 -30 8.5t-4 32.5l4 31q-36 -34 -99 -63t-149 -29q-151 0 -242.5 94.5t-70.5 242.5l88 625q3 23 13.5 32t33.5 9h90q23 0 30.5 -9t4.5 -32l-80 -573q-17 -113 36.5 -176.5t147.5 -63.5 q41 0 80.5 12t68 31t44.5 32.5t26 24.5l101 713q3 23 12.5 32t32.5 9h90z" />
<glyph unicode="v" horiz-adv-x="892" d="M334 0q-21 0 -29 7t-12 30l-187 911q-3 16 3.5 24.5t14 9.5t21.5 1h91q22 0 29 -4.5t11 -26.5l134 -704l329 704q10 22 18.5 26.5t30.5 4.5h91q10 0 15 -0.5t13.5 -4t6.5 -10.5t-5 -20l-444 -911q-10 -23 -19.5 -30t-29.5 -7h-82z" />
<glyph unicode="w" horiz-adv-x="1409" d="M295 0q-21 0 -28.5 7t-10.5 30l-139 911q-3 16 4.5 24.5t15 9.5t21.5 1h90q22 0 29 -4.5t10 -26.5l88 -653l319 647q12 23 21.5 30t29.5 7h54q20 0 27 -7t12 -30l133 -647l274 653q6 15 13.5 22t14.5 8t23 1h90q10 0 15 -0.5t12.5 -4t6 -10.5t-4.5 -20l-393 -911 q-9 -23 -19.5 -30t-31.5 -7h-68q-20 0 -27 7t-12 30l-135 643l-317 -643q-10 -23 -20 -30t-30 -7h-67z" />
<glyph unicode="x" horiz-adv-x="946" d="M2 0q-20 0 -23.5 13t9.5 28l377 465l-230 436q-8 15 -1 28t26 13h116q23 0 34.5 -8t23.5 -33l155 -313l246 313q19 26 31 33.5t35 7.5h117q20 0 24.5 -13t-8.5 -28l-352 -436l245 -465q8 -15 1 -28t-27 -13h-117q-23 0 -33 8t-22 33l-174 338l-269 -338 q-19 -25 -31.5 -33t-35.5 -8h-117z" />
<glyph unicode="y" horiz-adv-x="929" d="M31 -512q-61 0 -123 27q-22 10 -26 22t5 29l37 74q14 31 47 20q46 -16 82 -16q91 0 146 110l131 262l-187 932q-4 21 4 28t35 7h90q22 0 29.5 -4.5t11.5 -26.5l133 -702l330 702q10 22 18.5 26.5t30.5 4.5h90q10 0 15.5 -0.5t13.5 -4t6.5 -10.5t-4.5 -20l-612 -1270 q-45 -93 -128.5 -141.5t-174.5 -48.5z" />
<glyph unicode="z" horiz-adv-x="923" d="M248 164h504q23 0 30 -8.5t4 -32.5l-10 -82q-3 -23 -13.5 -32t-33.5 -9h-678q-23 0 -30.5 9t-4.5 32l13 86q3 34 26 57l594 635h-463q-23 0 -30 8.5t-4 32.5l12 82q3 23 12.5 32t32.5 9h647q25 0 32.5 -9t4.5 -32l-12 -78q-4 -34 -35 -65z" />
<glyph unicode="{" horiz-adv-x="661" d="M416 -440q-147 6 -227 86t-58 235l86 615q4 27 5 37.5t2.5 34.5t-0.5 35t-7.5 27.5t-16 24t-27.5 13.5t-40 6t-30.5 9t-4.5 32l13 82q3 23 12.5 32t32.5 9q32 0 55.5 11.5t36.5 25.5t22.5 42.5t12.5 46t8 52.5l57 411q22 154 124 233t251 89q23 1 30.5 -8t4.5 -33 l-10 -82q-3 -23 -13.5 -31t-34.5 -10q-33 -2 -59.5 -12.5t-44.5 -23t-32.5 -35t-22 -39t-14.5 -44.5t-9 -42t-6 -41l-53 -387q-11 -78 -36.5 -119.5t-74.5 -85.5q35 -41 48.5 -91t2.5 -130l-82 -574q-4 -28 -5.5 -41t-2.5 -42t2 -45t11 -38.5t22.5 -35t38 -23t55.5 -12.5 q24 -2 31 -10t4 -31l-10 -82q-3 -24 -13.5 -33t-33.5 -8z" />
<glyph unicode="|" horiz-adv-x="501" d="M61 -512q-23 0 -30 8.5t-4 32.5l276 1966q3 23 12.5 32t32.5 9h90q23 0 31.5 -9t5.5 -32l-276 -1966q-3 -23 -13.5 -32t-33.5 -9h-91z" />
<glyph unicode="}" horiz-adv-x="659" d="M-23 -440q-24 -1 -30.5 8t-3.5 33l10 82q3 23 13 31t34 10q33 2 59.5 12.5t44 23t32 35.5t22 38.5t14 44.5t8.5 41.5t6 41.5l82 574q11 81 38.5 131t74.5 90q-37 43 -50.5 84.5t-2.5 120.5l53 387q4 30 5.5 41t3 41.5t-1.5 45.5t-11 38.5t-22 35.5t-37.5 22.5t-55.5 12.5 q-24 2 -31 10t-4 31l11 82q3 24 13.5 33t33.5 8q147 -6 226.5 -86.5t57.5 -235.5l-57 -411q-1 -6 -2 -17q-4 -42 -6 -77.5t20 -59.5t70 -24q23 0 31.5 -9t5.5 -32l-13 -82q-3 -23 -13.5 -32t-33.5 -9t-41.5 -6t-31 -13.5t-22.5 -24.5t-15.5 -27t-10.5 -34.5t-6.5 -34.5 t-5.5 -38l-86 -615q-22 -154 -124 -232.5t-251 -88.5z" />
<glyph unicode="~" horiz-adv-x="976" d="M672 666q-67 0 -118 20t-92.5 39.5t-86.5 19.5q-71 0 -125 -65q-15 -18 -33 -6l-72 49q-17 13 -4 31q47 65 111.5 97t126.5 32q64 0 113 -20t91 -40t89 -20q29 0 65 16t64 49q15 18 33 6l71 -49q16 -13 4 -30q-47 -65 -111 -97t-126 -32z" />
<glyph unicode="&#xa1;" horiz-adv-x="464" d="M174 930q12 43 48.5 72.5t80.5 29.5q55 0 85 -38t15 -93q-12 -43 -49.5 -73.5t-81.5 -30.5q-54 0 -83.5 39.5t-14.5 93.5zM225 662h54q23 0 31 -9t5 -32l-133 -1092q-3 -23 -14 -32t-35 -9h-94q-23 0 -29.5 8.5t-3.5 32.5l174 1092q3 23 12.5 32t32.5 9z" />
<glyph unicode="&#xa2;" horiz-adv-x="927" d="M879 891q22 -19 4 -51l-39 -68q-21 -37 -62 -8q-108 76 -223 76q-137 0 -225 -107t-88 -284q0 -144 62.5 -225t183.5 -81q120 0 219 76q40 31 59 0l37 -61q21 -31 -2 -54q-50 -50 -128 -83t-165 -39l-12 -91q-3 -23 -13.5 -32t-33.5 -9h-91q-23 0 -30 8.5t-4 32.5l14 107 q-129 36 -197.5 151.5t-68.5 290.5q0 228 112.5 377.5t294.5 179.5l13 93q3 23 13 31.5t34 8.5h90q23 0 30.5 -8.5t4.5 -31.5l-13 -95q129 -23 224 -104z" />
<glyph unicode="&#xa3;" horiz-adv-x="1019" d="M868 164q41 0 35 -41l-10 -82q-6 -41 -47 -41h-672q-41 0 -35 41l90 647h-102q-23 0 -30.5 9t-4.5 32l10 66q3 23 12.5 32t32.5 9h103l57 403q18 130 126 223.5t231 93.5q134 0 208 -96q22 -28 23 -43t-21 -37l-55 -47q-33 -30 -55 2q-40 58 -113 58q-60 0 -109 -42 t-59 -112l-57 -403h319q23 0 31.5 -9t5.5 -32l-10 -66q-3 -23 -13.5 -32t-33.5 -9h-319l-74 -524h536z" />
<glyph unicode="&#xa5;" horiz-adv-x="1052" d="M1163 1495l-520 -790l-10 -70h172q23 0 30.5 -9t4.5 -32l-11 -66q-3 -23 -13.5 -32t-33.5 -9h-170l-18 -122h172q23 0 30.5 -9t4.5 -32l-8 -66q-3 -23 -13.5 -32t-34.5 -9h-172l-24 -176q-6 -41 -47 -41h-94q-41 0 -35 41l24 176h-168q-23 0 -30 8.5t-4 32.5l8 66 q3 23 13.5 32t33.5 9h168l16 122h-168q-23 0 -30.5 9t-4.5 32l11 66q3 23 13.5 32t33.5 9h166l10 70l-297 790q-9 20 -4.5 30.5t26.5 10.5h105q37 0 49 -29l231 -657l416 657q19 29 53 29h105q41 0 14 -41z" />
<glyph unicode="&#xa7;" horiz-adv-x="911" d="M573 1280q-81 0 -133.5 -29.5t-52.5 -97.5q0 -21 8.5 -37.5t18.5 -27.5t36 -24t42 -19t57 -21q14 -5 22 -8q41 -15 59.5 -22t56.5 -24t57.5 -30t47.5 -35t41.5 -43.5t24 -52t10.5 -64.5q0 -81 -43 -148t-120 -110q102 -74 102 -182q0 -139 -122 -232t-314 -93 q-175 0 -338 104q-31 19 -4 59l43 68q25 40 65 18q161 -86 279 -86q89 0 152 37t63 101q0 29 -17 53t-52 44t-67.5 33.5t-85.5 33.5q-15 5 -22 8q-46 17 -72.5 28t-61.5 32t-53.5 43.5t-32 56.5t-13.5 77q0 87 44.5 153.5t120.5 106.5q-104 63 -104 180q0 145 116 229.5 t279 84.5q83 0 148 -20.5t137 -61.5q32 -17 4 -59l-41 -68q-19 -33 -67 -8q-103 53 -218 53zM692 721q0 37 -32 68t-71 49t-108 43q-62 -12 -108.5 -60t-46.5 -108q0 -34 23.5 -59t50 -37t91.5 -35q13 -5 19 -7l31 -12q65 19 108 63t43 95z" />
<glyph unicode="&#xa8;" horiz-adv-x="618" d="M332 1536q-44 0 -72.5 29.5t-28.5 72.5q0 54 41 94t95 40q44 0 73 -31t29 -74q0 -55 -41 -93t-96 -38zM715 1536q-44 0 -72.5 29.5t-28.5 72.5q0 54 41 94t95 40q44 0 73 -31t29 -74q0 -55 -41 -93t-96 -38z" />
<glyph unicode="&#xa9;" horiz-adv-x="1624" d="M748 -18q-306 0 -491 189t-185 491q0 253 119 458.5t324.5 320.5t453.5 115q197 0 346 -86t229 -239.5t80 -351.5q0 -190 -68 -357t-185 -285.5t-279 -186.5t-344 -68zM764 109q203 0 370 97t264 269.5t97 384.5q0 253 -149 410t-396 157q-208 0 -379.5 -96.5 t-270.5 -268.5t-99 -384q0 -254 154 -411.5t409 -157.5zM786 303q-171 0 -263.5 100t-92.5 281q0 252 132 400.5t356 148.5q197 0 292 -129q10 -12 8 -28.5t-16 -26.5q-10 -7 -19.5 -15.5t-20.5 -19t-17 -15.5q-14 -13 -24.5 -13.5t-26.5 13.5q-83 86 -199 86 q-139 0 -223 -103t-84 -275q0 -121 57 -188.5t162 -67.5q118 0 221 86q32 25 51 0q5 -6 43 -50q10 -12 8 -27.5t-14 -27.5q-136 -129 -330 -129z" />
<glyph unicode="&#xab;" horiz-adv-x="972" d="M86 489q-21 24 4 46l447 380q15 12 25.5 7.5t8.5 -19.5l-20 -149q-2 -15 -7 -24t-22 -23l-227 -195l174 -195q12 -13 13.5 -24t-1.5 -23l-20 -149q-2 -14 -14.5 -19.5t-24.5 7.5zM449 489q-21 24 4 46l446 380q15 13 26 7.5t9 -19.5l-21 -149q-1 -11 -2.5 -16t-7.5 -13 t-18 -18l-228 -195l174 -195q12 -13 14 -24t-1 -23l-21 -149q-2 -14 -14.5 -19.5t-24.5 7.5z" />
<glyph unicode="&#xad;" horiz-adv-x="702" d="M127 483q-17 0 -21.5 8.5t-1.5 32.5l13 82q3 24 9.5 32.5t23.5 8.5h438q17 0 22 -9t2 -32l-12 -82q-3 -23 -10.5 -32t-24.5 -9h-438z" />
<glyph unicode="&#xae;" horiz-adv-x="1622" d="M745 -18q-147 0 -273 53.5t-213.5 146t-137 219.5t-49.5 271q0 178 73 342t194.5 282.5t286 189t341.5 70.5q142 0 265 -53.5t208 -145.5t133.5 -219.5t48.5 -271.5q0 -178 -72 -342t-191 -282.5t-280.5 -189t-333.5 -70.5zM762 109q144 0 278.5 59.5t233 159t158 237 t59.5 285.5q0 161 -67.5 292.5t-192 208t-283.5 76.5q-147 0 -285 -59.5t-239.5 -158.5t-163 -236t-61.5 -285q0 -162 71 -294t200 -208.5t292 -76.5zM504 303q-35 0 -29 33l121 866q6 33 39 33h332q126 0 201 -67t75 -177q0 -115 -72.5 -200t-187.5 -107l141 -348 q13 -33 -26 -33h-92q-30 0 -39 25l-140 346h-159l-47 -338q-6 -33 -39 -33h-78zM688 809h230q80 0 131 46t51 118q0 59 -38.5 93t-105.5 34h-229z" />
<glyph unicode="&#xaf;" horiz-adv-x="530" d="M250 1634q3 23 13.5 32t33.5 9h408q23 0 30 -8.5t4 -32.5l-6 -49q-3 -23 -13.5 -32t-33.5 -9h-407q-23 0 -30.5 9t-4.5 32z" />
<glyph unicode="&#xb0;" horiz-adv-x="624" d="M387 1040q-70 0 -117 48t-47 118q0 85 65.5 148t151.5 63q71 0 117.5 -48t46.5 -118q0 -86 -65 -148.5t-152 -62.5zM403 1157q33 0 58.5 24t25.5 56q0 27 -18 45t-45 18q-31 0 -56.5 -23.5t-25.5 -55.5q0 -27 17.5 -45.5t43.5 -18.5z" />
<glyph unicode="&#xb4;" horiz-adv-x="348" d="M301 1565q-22 -11 -32.5 -6.5t-22.5 22.5l-19 27q-23 32 6 55l275 219q25 17 36 15t23 -19l35 -51q25 -36 -12 -62z" />
<glyph unicode="&#xb6;" horiz-adv-x="1646" d="M1079 -598q-23 0 -30.5 9t-4.5 32l273 1931h-342l-273 -1931q-3 -23 -13.5 -32t-33.5 -9h-94q-23 0 -30.5 9t-4.5 32l174 1233h-170q-158 0 -263 108.5t-105 270.5q0 126 64 237t170.5 177.5t226.5 66.5h1042q23 0 31.5 -9t5.5 -32l-12 -80q-3 -23 -13.5 -32t-34.5 -9 h-149l-272 -1931q-3 -23 -13.5 -32t-33.5 -9h-95z" />
<glyph unicode="&#xb7;" horiz-adv-x="372" d="M94 739q0 57 43.5 98.5t100.5 41.5q47 0 77.5 -32.5t30.5 -78.5q0 -57 -43 -98t-100 -41q-47 0 -78 32t-31 78z" />
<glyph unicode="&#xb8;" horiz-adv-x="468" d="M145 -537q-53 0 -106 29q-13 8 -2 29l39 82q10 20 30 10t52 -10q57 0 91 33.5t34 91.5q0 41 -23 64.5t-63 23.5q-58 0 -97 -45q-12 -15 -28 -11l-76 21q-18 4 -21.5 10.5t2.5 18.5l117 262l137 -13l-65 -157q35 20 94 20q80 0 126 -47.5t46 -130.5q0 -128 -77.5 -204.5 t-209.5 -76.5z" />
<glyph unicode="&#xbb;" horiz-adv-x="974" d="M522 489l-442 -380q-17 -12 -27.5 -7.5t-7.5 19.5l21 149q1 3 2 9.5t2 9.5t3.5 8t7 9.5t11.5 10.5l227 195l-172 195q-19 21 -16 47l23 149q2 14 14.5 19.5t24.5 -7.5l337 -380q19 -22 -8 -46zM885 489l-443 -380q-17 -12 -27 -7.5t-7 19.5l20 149q1 3 2 8.5t1.5 7.5 t2 6.5t4 7.5t7 7.5t10.5 9.5l227 195l-172 195q-19 21 -16 47l22 149q2 14 14.5 19.5t24.5 -7.5l338 -380q19 -22 -8 -46z" />
<glyph unicode="&#xbc;" horiz-adv-x="995" d="M8 0q-46 0 -22 41l901 1450q16 25 29.5 35t35.5 10h86q47 0 23 -41l-903 -1450q-14 -24 -28 -34.5t-36 -10.5h-86zM225 967q-21 0 -18 20l53 375l-49 -43q-14 -11 -25 0l-51 57q-14 14 4 29l142 121q10 10 24 10h121q19 0 16 -23l-73 -526q-3 -20 -23 -20h-121zM676 0 q-19 0 -19 20l15 95h-226q-21 0 -18 20l10 66q3 22 17 39l270 313q13 16 31 16h121q19 0 16 -22l-43 -311h33q21 0 18 -21l-12 -80q-3 -20 -23 -20h-32l-15 -95q0 -20 -22 -20h-121zM606 236h82l19 129z" />
<glyph unicode="&#xbd;" horiz-adv-x="964" d="M-12 0q-47 0 -23 41l901 1450q16 25 30 35t36 10h86q46 0 22 -41l-903 -1450q-14 -25 -27.5 -35t-35.5 -10h-86zM225 967q-21 0 -18 20l53 375l-49 -43q-14 -11 -25 0l-51 57q-14 14 4 29l142 121q10 10 24 10h121q19 0 16 -23l-73 -526q-3 -20 -23 -20h-121zM506 -2 q-9 0 -14.5 5.5t-4.5 14.5l15 101q7 46 33.5 85.5t59 65t64 47.5t53 45t21.5 46q0 16 -11 27t-30 11q-26 0 -74 -38q-16 -13 -26 4l-41 59q-10 14 8 29q84 75 184 75q73 0 114.5 -36.5t41.5 -98.5q0 -49 -22 -87.5t-55 -64t-66 -47t-59 -48t-31 -56.5l-2 -12h174 q19 0 16 -21l-12 -86q-3 -20 -23 -20h-313z" />
<glyph unicode="&#xbe;" horiz-adv-x="997" d="M270 961q-63 0 -108.5 22t-63.5 49q-10 15 4 29l64 57q15 13 29 2q4 -3 11.5 -9.5t10.5 -9t9.5 -6.5t11 -5.5t11 -3t13.5 -1.5q33 0 53.5 19.5t20.5 52.5q0 26 -15 39.5t-40 13.5q-22 0 -19 21l8 63q1 8 6 13t8 5.5t11 2.5q63 10 63 61q0 19 -11.5 30t-31.5 11 q-33 0 -67 -31q-14 -12 -27 5l-43 53q-10 13 6 29q28 29 72.5 49t97.5 20q73 0 121.5 -36t48.5 -95q0 -46 -26 -83t-60 -60q56 -48 56 -125q0 -80 -64.5 -131t-159.5 -51zM29 0q-47 0 -23 41l901 1450q14 24 28 34.5t36 10.5h86q48 0 24 -41l-903 -1450q-14 -25 -27.5 -35 t-35.5 -10h-86zM676 0q-19 0 -19 20l15 95h-226q-21 0 -18 20l10 66q3 22 17 39l270 313q13 16 31 16h121q19 0 16 -22l-43 -311h33q21 0 18 -21l-12 -80q-3 -20 -23 -20h-32l-15 -95q0 -20 -22 -20h-121zM606 236h82l19 129z" />
<glyph unicode="&#xbf;" horiz-adv-x="866" d="M571 1030q44 0 72.5 -29.5t28.5 -72.5q0 -54 -40.5 -93.5t-94.5 -39.5q-44 0 -73.5 30.5t-29.5 73.5q0 55 41 93t96 38zM575 659q21 0 29 -6.5t8 -23.5q0 -120 -23.5 -216.5t-60.5 -158t-82 -110.5t-90 -85t-82 -70t-60.5 -78t-23.5 -97q0 -86 53 -129t142 -43 q124 0 227 90q31 28 56 0l49 -56q23 -26 -10 -59q-72 -72 -166.5 -107.5t-192.5 -35.5q-156 0 -247 79.5t-91 223.5q0 72 24.5 132t64 104t86.5 87t94.5 91t87 104t64 139t24.5 184q0 23 11.5 32t35.5 9h73z" />
<glyph unicode="&#xc0;" d="M807 1677l-232 201q-29 23 5 61l51 52q17 17 28.5 19t30.5 -15l213 -219q13 -17 10 -28t-20 -28l-27 -26q-9 -9 -14.5 -13.5t-13.5 -9t-15.5 -2.5t-15.5 8zM-2 0q-39 0 -21 41l644 1454q18 41 59 41h94q45 0 51 -41l234 -1454q6 -41 -33 -41h-98q-20 0 -27 9t-10 32 l-60 377h-520l-166 -377q-10 -23 -19.5 -32t-29.5 -9h-98zM383 582h422l-113 702z" />
<glyph unicode="&#xc1;" d="M731 1673q-12 -10 -23 -8t-17.5 7.5t-14.5 17.5l-19 26q-23 32 7 56l274 219q25 17 36 15t23 -19l35 -52q25 -36 -12 -61zM-2 0q-39 0 -21 41l644 1454q18 41 59 41h94q45 0 51 -41l234 -1454q6 -41 -33 -41h-98q-20 0 -27 9t-10 32l-60 377h-520l-166 -377 q-10 -23 -19.5 -32t-29.5 -9h-98zM383 582h422l-113 702z" />
<glyph unicode="&#xc2;" d="M774 1858l-186 -177q-32 -29 -58 0l-36 43q-27 30 8 58l262 213q35 28 57 0l205 -213q25 -28 -8 -58l-49 -43q-36 -32 -58 0zM-2 0q-39 0 -21 41l644 1454q18 41 59 41h94q45 0 51 -41l234 -1454q6 -41 -33 -41h-98q-20 0 -27 9t-10 32l-60 377h-520l-166 -377 q-10 -23 -19.5 -32t-29.5 -9h-98zM383 582h422l-113 702z" />
<glyph unicode="&#xc3;" d="M887 1665q-50 0 -99 20t-89 40t-68 20q-50 0 -105 -66q-15 -18 -32 -6l-72 49q-17 13 -4 31q91 129 217 129q47 0 94.5 -20t87.5 -40t70 -20q53 0 108 66q15 18 33 6l72 -49q17 -13 4 -31q-91 -129 -217 -129zM-2 0q-39 0 -21 41l644 1454q18 41 59 41h94q45 0 51 -41 l234 -1454q6 -41 -33 -41h-98q-20 0 -27 9t-10 32l-60 377h-520l-166 -377q-10 -23 -19.5 -32t-29.5 -9h-98zM383 582h422l-113 702z" />
<glyph unicode="&#xc4;" d="M553 1669q-44 0 -72 30t-28 73q0 54 40.5 93.5t94.5 39.5q44 0 73 -31t29 -74q0 -55 -41 -93t-96 -38zM936 1669q-44 0 -72 30t-28 73q0 54 40.5 93.5t94.5 39.5q44 0 73 -31t29 -74q0 -55 -41 -93t-96 -38zM-2 0q-39 0 -21 41l644 1454q18 41 59 41h94q45 0 51 -41 l234 -1454q6 -41 -33 -41h-98q-20 0 -27 9t-10 32l-60 377h-520l-166 -377q-10 -23 -19.5 -32t-29.5 -9h-98zM383 582h422l-113 702z" />
<glyph unicode="&#xc5;" d="M737 1651q-70 0 -117 48t-47 118q0 85 66 148t152 63q71 0 117 -48t46 -118q0 -86 -65 -148.5t-152 -62.5zM754 1767q33 0 58.5 24t25.5 56q0 27 -18.5 45.5t-45.5 18.5q-31 0 -56.5 -24t-25.5 -56q0 -26 18 -45t44 -19zM-2 0q-39 0 -21 41l644 1454q18 41 59 41h94 q45 0 51 -41l234 -1454q6 -41 -33 -41h-98q-20 0 -27 9t-10 32l-60 377h-520l-166 -377q-10 -23 -19.5 -32t-29.5 -9h-98zM383 582h422l-113 702z" />
<glyph unicode="&#xc6;" horiz-adv-x="1785" d="M2 0q-21 0 -27 10.5t7 30.5l989 1454q15 23 27 32t32 9h725q43 0 37 -41l-12 -82q-6 -41 -47 -41h-574l-67 -483h491q41 0 35 -41l-10 -82q-6 -41 -47 -41h-490l-78 -561h590q41 0 35 -41l-10 -82q-6 -41 -47 -41h-730q-40 0 -34 41l53 377h-426l-256 -377 q-12 -18 -16.5 -24t-14.5 -11.5t-24 -5.5h-111zM532 582h340l91 641z" />
<glyph unicode="&#xc7;" horiz-adv-x="1214" d="M1260 1403q13 -14 11 -25.5t-18 -29.5l-51 -58q-30 -34 -61 -6q-129 117 -291 117q-119 0 -220.5 -62.5t-168.5 -167t-104.5 -239.5t-37.5 -281q0 -145 39.5 -257.5t123 -181.5t200.5 -69q159 0 311 111q17 13 35 12t27 -18l37 -66q9 -17 6.5 -28.5t-19.5 -24.5 q-80 -66 -192 -107.5t-228 -41.5h-4l-28 -78q41 20 100 20q80 0 129 -52.5t49 -141.5q0 -121 -74.5 -193t-195.5 -72q-70 0 -123 29q-13 8 -2 29l39 82q9 17 31 10q27 -10 55 -10q54 0 87.5 33t33.5 88q0 44 -23 68t-63 24q-61 0 -97 -45q-12 -15 -28 -11l-76 21 q-18 4 -21 10.5t3 18.5l69 188q-121 34 -207 126.5t-129 224t-43 290.5q0 247 91 458.5t256 339.5t368 128q128 0 231 -46t173 -116z" />
<glyph unicode="&#xc8;" horiz-adv-x="1095" d="M766 1677l-231 201q-30 24 4 61l51 52q17 17 28.5 19t30.5 -15l213 -219q13 -17 10 -28t-20 -28l-27 -26q-9 -9 -14.5 -13.5t-13.5 -9t-15.5 -2.5t-15.5 8zM141 0q-41 0 -35 41l205 1454q6 41 45 41h709q43 0 37 -41l-12 -82q-6 -41 -48 -41h-573l-68 -483h492 q41 0 35 -41l-10 -82q-6 -41 -48 -41h-491l-80 -561h594q41 0 35 -41l-10 -82q-6 -41 -48 -41h-729z" />
<glyph unicode="&#xc9;" horiz-adv-x="1095" d="M690 1673q-12 -10 -23 -8t-17.5 7.5t-14.5 17.5l-19 26q-23 32 7 56l274 219q25 17 36 15t23 -19l35 -52q25 -36 -12 -61zM141 0q-41 0 -35 41l205 1454q6 41 45 41h709q43 0 37 -41l-12 -82q-6 -41 -48 -41h-573l-68 -483h492q41 0 35 -41l-10 -82q-6 -41 -48 -41h-491 l-80 -561h594q41 0 35 -41l-10 -82q-6 -41 -48 -41h-729z" />
<glyph unicode="&#xca;" horiz-adv-x="1095" d="M733 1858l-186 -177q-32 -29 -58 0l-36 43q-27 30 8 58l262 213q35 28 57 0l205 -213q25 -28 -8 -58l-49 -43q-36 -32 -58 0zM141 0q-41 0 -35 41l205 1454q6 41 45 41h709q43 0 37 -41l-12 -82q-6 -41 -48 -41h-573l-68 -483h492q41 0 35 -41l-10 -82q-6 -41 -48 -41 h-491l-80 -561h594q41 0 35 -41l-10 -82q-6 -41 -48 -41h-729z" />
<glyph unicode="&#xcb;" horiz-adv-x="1095" d="M512 1669q-44 0 -72 30t-28 73q0 54 40.5 93.5t94.5 39.5q44 0 73 -31t29 -74q0 -55 -41 -93t-96 -38zM895 1669q-44 0 -72 30t-28 73q0 54 40.5 93.5t94.5 39.5q44 0 73 -31t29 -74q0 -55 -41 -93t-96 -38zM141 0q-41 0 -35 41l205 1454q6 41 45 41h709q43 0 37 -41 l-12 -82q-6 -41 -48 -41h-573l-68 -483h492q41 0 35 -41l-10 -82q-6 -41 -48 -41h-491l-80 -561h594q41 0 35 -41l-10 -82q-6 -41 -48 -41h-729z" />
<glyph unicode="&#xcc;" horiz-adv-x="522" d="M485 1677l-231 201q-30 24 4 61l51 52q17 17 29 19t31 -15l213 -219q13 -17 9.5 -28t-20.5 -28l-26 -26q-9 -9 -15 -14t-13.5 -8.5t-15.5 -2t-16 7.5zM141 0q-41 0 -35 41l205 1454q6 41 45 41h95q42 0 36 -41l-204 -1454q-6 -41 -47 -41h-95z" />
<glyph unicode="&#xcd;" horiz-adv-x="522" d="M410 1673q-30 -20 -56 17l-18 26q-23 33 6 56l274 219q25 17 36.5 15t23.5 -19l35 -52q25 -35 -13 -61zM141 0q-41 0 -35 41l205 1454q6 41 45 41h95q42 0 36 -41l-204 -1454q-6 -41 -47 -41h-95z" />
<glyph unicode="&#xce;" horiz-adv-x="522" d="M453 1858l-187 -177q-31 -29 -57 0l-37 43q-27 30 8 58l262 213q36 28 58 0l205 -213q24 -28 -9 -58l-49 -43q-35 -32 -57 0zM141 0q-41 0 -35 41l205 1454q6 41 45 41h95q42 0 36 -41l-204 -1454q-6 -41 -47 -41h-95z" />
<glyph unicode="&#xcf;" horiz-adv-x="522" d="M231 1669q-44 0 -72 30t-28 73q0 54 40.5 93.5t94.5 39.5q44 0 73.5 -31t29.5 -74q0 -55 -41.5 -93t-96.5 -38zM614 1669q-44 0 -72 30t-28 73q0 54 40.5 93.5t94.5 39.5q44 0 73.5 -31t29.5 -74q0 -55 -41.5 -93t-96.5 -38zM141 0q-41 0 -35 41l205 1454q6 41 45 41h95 q42 0 36 -41l-204 -1454q-6 -41 -47 -41h-95z" />
<glyph unicode="&#xd0;" horiz-adv-x="1361" d="M700 1536q305 0 452.5 -147.5t147.5 -462.5q0 -206 -57.5 -378.5t-160.5 -293t-251 -187.5t-325 -67h-375q-41 0 -35 41l117 836h-68q-23 0 -30 8.5t-4 32.5l4 34q3 23 13.5 32t33.5 9h67l72 502q6 41 45 41h354zM528 164q176 0 312.5 94.5t210 262t73.5 380.5 q0 258 -107 364.5t-339 106.5h-219l-53 -379h231q23 0 30.5 -9t4.5 -32l-4 -34q-3 -23 -13.5 -32t-33.5 -9h-232l-100 -713h239z" />
<glyph unicode="&#xd1;" horiz-adv-x="1400" d="M983 1665q-50 0 -99 20t-89 40t-68 20q-49 0 -104 -66q-15 -18 -33 -6l-72 49q-17 13 -4 31q91 129 217 129q47 0 94.5 -20t87.5 -40t70 -20q54 0 109 66q15 18 32 6l72 -49q17 -13 4 -31q-91 -129 -217 -129zM141 0q-41 0 -35 41l205 1454q6 41 45 41h66q24 0 37 -25 l581 -1103l154 1087q6 41 45 41h90q43 0 37 -41l-205 -1454q-6 -41 -47 -41h-65q-23 0 -35 25l-580 1126l-155 -1110q-6 -41 -48 -41h-90z" />
<glyph unicode="&#xd2;" horiz-adv-x="1503" d="M977 1677l-232 201q-29 23 5 61l51 52q17 17 28.5 19t30.5 -15l213 -219q13 -17 10 -28t-20 -28l-27 -26q-9 -9 -14.5 -13.5t-13.5 -9t-15.5 -2.5t-15.5 8zM887 1556q258 0 402.5 -168.5t144.5 -467.5q0 -284 -89 -496.5t-257.5 -328t-397.5 -115.5q-253 0 -401 171.5 t-148 464.5q0 284 89 496t258 328t399 116zM713 143q167 0 290 93t187.5 262.5t64.5 396.5q0 235 -103 366.5t-286 131.5q-168 0 -292 -94t-189.5 -263t-65.5 -393q0 -230 106.5 -365t287.5 -135z" />
<glyph unicode="&#xd3;" horiz-adv-x="1503" d="M901 1673q-12 -10 -23 -8t-17.5 7.5t-14.5 17.5l-19 26q-23 32 7 56l274 219q25 17 36 15t23 -19l35 -52q25 -36 -12 -61zM887 1556q258 0 402.5 -168.5t144.5 -467.5q0 -284 -89 -496.5t-257.5 -328t-397.5 -115.5q-253 0 -401 171.5t-148 464.5q0 284 89 496t258 328 t399 116zM713 143q167 0 290 93t187.5 262.5t64.5 396.5q0 235 -103 366.5t-286 131.5q-168 0 -292 -94t-189.5 -263t-65.5 -393q0 -230 106.5 -365t287.5 -135z" />
<glyph unicode="&#xd4;" horiz-adv-x="1503" d="M944 1858l-186 -177q-32 -29 -58 0l-36 43q-27 30 8 58l262 213q35 28 57 0l205 -213q25 -28 -8 -58l-49 -43q-36 -32 -58 0zM887 1556q258 0 402.5 -168.5t144.5 -467.5q0 -284 -89 -496.5t-257.5 -328t-397.5 -115.5q-253 0 -401 171.5t-148 464.5q0 284 89 496 t258 328t399 116zM713 143q167 0 290 93t187.5 262.5t64.5 396.5q0 235 -103 366.5t-286 131.5q-168 0 -292 -94t-189.5 -263t-65.5 -393q0 -230 106.5 -365t287.5 -135z" />
<glyph unicode="&#xd5;" horiz-adv-x="1503" d="M1057 1665q-50 0 -99 19.5t-88.5 39t-66.5 19.5q-50 0 -105 -66q-15 -15 -32 -4l-70 47q-17 13 -4 31q89 127 215 127q59 0 138 -39t112 -39q51 0 106 66q13 16 33 6l72 -49q14 -14 4 -31q-89 -127 -215 -127zM887 1556q258 0 402.5 -168.5t144.5 -467.5 q0 -284 -89 -496.5t-257.5 -328t-397.5 -115.5q-253 0 -401 171.5t-148 464.5q0 284 89 496t258 328t399 116zM713 143q167 0 290 93t187.5 262.5t64.5 396.5q0 235 -103 366.5t-286 131.5q-168 0 -292 -94t-189.5 -263t-65.5 -393q0 -230 106.5 -365t287.5 -135z" />
<glyph unicode="&#xd6;" horiz-adv-x="1503" d="M723 1669q-44 0 -72 30t-28 73q0 54 40.5 93.5t94.5 39.5q44 0 73 -31t29 -74q0 -55 -41 -93t-96 -38zM1106 1669q-44 0 -72 30t-28 73q0 54 40.5 93.5t94.5 39.5q44 0 73 -31t29 -74q0 -55 -41 -93t-96 -38zM887 1556q258 0 402.5 -168.5t144.5 -467.5 q0 -284 -89 -496.5t-257.5 -328t-397.5 -115.5q-253 0 -401 171.5t-148 464.5q0 284 89 496t258 328t399 116zM713 143q167 0 290 93t187.5 262.5t64.5 396.5q0 235 -103 366.5t-286 131.5q-168 0 -292 -94t-189.5 -263t-65.5 -393q0 -230 106.5 -365t287.5 -135z" />
<glyph unicode="&#xd7;" horiz-adv-x="776" d="M725 989q14 -17 12.5 -28.5t-20.5 -28.5l-189 -166l142 -166q14 -17 13 -28.5t-21 -28.5l-54 -47q-18 -16 -30.5 -16.5t-26.5 16.5l-141 166l-189 -166q-19 -17 -31 -16.5t-26 16.5l-41 47q-14 17 -12.5 28.5t20.5 28.5l188 166l-141 166q-14 17 -13 28.5t21 28.5l54 47 q18 16 30.5 16.5t26.5 -16.5l141 -166l189 166q19 17 31 16.5t26 -16.5z" />
<glyph unicode="&#xd8;" horiz-adv-x="1466" d="M1483 1536q24 0 28.5 -10.5t-12.5 -30.5l-168 -195q84 -153 84 -380q0 -284 -88.5 -496.5t-257 -328t-397.5 -115.5q-223 0 -365 133l-57 -68q-22 -25 -37 -35t-37 -10h-86q-47 0 -12 41l147 172q-102 161 -102 403q0 284 88.5 496t257.5 328t399 116q242 0 385 -149 l74 84q23 27 36 36t34 9h86zM301 643q0 -165 55 -281l777 902q-104 129 -285 129q-168 0 -292 -94t-189.5 -263t-65.5 -393zM1237 895q0 141 -39 250l-770 -893q106 -109 266 -109q167 0 290 93t188 262.5t65 396.5z" />
<glyph unicode="&#xd9;" horiz-adv-x="1384" d="M915 1677l-231 201q-30 24 4 61l51 52q17 17 29 19t31 -15l213 -219q13 -17 9.5 -28t-20.5 -28l-26 -26q-9 -9 -15 -14t-13.5 -8.5t-15.5 -2t-16 7.5zM616 -20q-120 0 -212 37.5t-154 112t-85 196t-1 280.5l125 889q6 41 45 41h94q43 0 37 -41l-129 -905 q-17 -101 -6 -177t36.5 -127.5t69.5 -83t93.5 -45.5t109.5 -14q75 0 141 23t126 72.5t102 139t59 212.5l127 905q6 41 45 41h94q43 0 37 -41l-125 -889q-22 -159 -79.5 -280.5t-141 -196t-186 -112t-222.5 -37.5z" />
<glyph unicode="&#xda;" horiz-adv-x="1384" d="M840 1673q-30 -20 -56 17l-18 26q-23 33 6 56l275 219q25 17 36 15t23 -19l35 -52q25 -35 -13 -61zM616 -20q-120 0 -212 37.5t-154 112t-85 196t-1 280.5l125 889q6 41 45 41h94q43 0 37 -41l-129 -905q-17 -101 -6 -177t36.5 -127.5t69.5 -83t93.5 -45.5t109.5 -14 q75 0 141 23t126 72.5t102 139t59 212.5l127 905q6 41 45 41h94q43 0 37 -41l-125 -889q-22 -159 -79.5 -280.5t-141 -196t-186 -112t-222.5 -37.5z" />
<glyph unicode="&#xdb;" horiz-adv-x="1384" d="M883 1858l-187 -177q-31 -29 -57 0l-37 43q-27 30 8 58l262 213q36 28 58 0l205 -213q24 -28 -9 -58l-49 -43q-35 -32 -57 0zM616 -20q-120 0 -212 37.5t-154 112t-85 196t-1 280.5l125 889q6 41 45 41h94q43 0 37 -41l-129 -905q-17 -101 -6 -177t36.5 -127.5t69.5 -83 t93.5 -45.5t109.5 -14q75 0 141 23t126 72.5t102 139t59 212.5l127 905q6 41 45 41h94q43 0 37 -41l-125 -889q-22 -159 -79.5 -280.5t-141 -196t-186 -112t-222.5 -37.5z" />
<glyph unicode="&#xdc;" horiz-adv-x="1384" d="M662 1669q-44 0 -72.5 30t-28.5 73q0 54 40.5 93.5t94.5 39.5q44 0 73.5 -31t29.5 -74q0 -55 -41 -93t-96 -38zM1044 1669q-44 0 -72 30t-28 73q0 54 40.5 93.5t94.5 39.5q44 0 73.5 -31t29.5 -74q0 -55 -41.5 -93t-96.5 -38zM616 -20q-120 0 -212 37.5t-154 112t-85 196 t-1 280.5l125 889q6 41 45 41h94q43 0 37 -41l-129 -905q-17 -101 -6 -177t36.5 -127.5t69.5 -83t93.5 -45.5t109.5 -14q75 0 141 23t126 72.5t102 139t59 212.5l127 905q6 41 45 41h94q43 0 37 -41l-125 -889q-22 -159 -79.5 -280.5t-141 -196t-186 -112t-222.5 -37.5z" />
<glyph unicode="&#xdd;" horiz-adv-x="1052" d="M676 1673q-12 -10 -23 -8t-17.5 7.5t-14.5 17.5l-19 26q-23 33 6 56l275 219q25 17 36 15t23 -19l35 -52q25 -36 -12 -61zM991 1507q19 29 53 29h105q41 0 14 -41l-520 -790l-94 -664q-6 -41 -47 -41h-94q-41 0 -35 41l92 664l-297 790q-9 20 -4.5 30.5t26.5 10.5h105 q37 0 49 -29l231 -657z" />
<glyph unicode="&#xde;" horiz-adv-x="1183" d="M725 1249q210 0 321 -113.5t111 -293.5q0 -105 -39 -204t-109.5 -178t-179.5 -127t-239 -48h-273l-34 -244q-6 -41 -47 -41h-95q-41 0 -35 41l164 1167q0 2 1 6.5t1 6.5l39 274q6 41 45 41h95q39 0 36 -41l-34 -246h272zM592 449q98 0 175 31.5t123 85.5t69.5 120 t23.5 139q0 121 -74 190.5t-229 69.5h-252l-88 -636h252z" />
<glyph unicode="&#xdf;" horiz-adv-x="1122" d="M623 -2q-27 -9 -36 -3.5t-14 25.5l-16 74q-5 23 2 34.5t33 23.5q48 23 83 43.5t70 48t53.5 58.5t18.5 65q0 36 -21.5 70.5t-51.5 64.5t-60.5 63t-52 80t-21.5 100q0 46 13 87.5t34.5 73.5t47 62t51 59t47 58t34.5 64.5t13 73.5q0 72 -46.5 115.5t-125.5 43.5 q-109 0 -188.5 -83t-98.5 -218l-145 -1040q-3 -23 -13.5 -32t-33.5 -9h-90q-23 0 -30.5 9t-4.5 32l155 1106q25 179 154.5 288t316.5 109q149 0 236.5 -82t87.5 -217q0 -54 -18 -106t-44.5 -90.5t-57.5 -78.5t-57.5 -71t-44.5 -67t-18 -68q0 -36 21 -69.5t51 -62.5 t60.5 -61.5t51.5 -80.5t21 -105q0 -68 -29 -127t-83 -106.5t-114.5 -83.5t-139.5 -70z" />
<glyph unicode="&#xe0;" horiz-adv-x="1048" d="M467 1386q-30 24 4 62l51 51q17 17 29 19t31 -15l213 -219q13 -17 9.5 -27.5t-20.5 -27.5l-26 -27q-12 -12 -19.5 -17t-19.5 -7t-21 8zM940 983q23 0 31.5 -9t5.5 -32l-127 -901q-3 -23 -13.5 -32t-33.5 -9h-90q-23 0 -30.5 9t-4.5 32l8 53q-15 -15 -36.5 -31t-57 -36.5 t-85 -33.5t-101.5 -13q-153 0 -243.5 114t-90.5 318q0 262 133.5 427t339.5 165q58 0 107 -14.5t78 -36.5t44 -38t23 -30l-25 -166q-7 13 -22.5 30t-42.5 39t-68.5 37t-87.5 15q-129 0 -216 -112t-87 -288q0 -142 57 -219.5t154 -77.5q76 0 144 39.5t106 77.5l96 682 q3 23 12.5 32t32.5 9h90z" />
<glyph unicode="&#xe1;" horiz-adv-x="1048" d="M567 1198l-18 27q-23 32 6 55l274 219q25 17 36.5 15t23.5 -19l35 -51q25 -36 -13 -62l-288 -200q-31 -20 -56 16zM940 983q23 0 31.5 -9t5.5 -32l-127 -901q-3 -23 -13.5 -32t-33.5 -9h-90q-23 0 -30.5 9t-4.5 32l8 53q-15 -15 -36.5 -31t-57 -36.5t-85 -33.5 t-101.5 -13q-153 0 -243.5 114t-90.5 318q0 262 133.5 427t339.5 165q58 0 107 -14.5t78 -36.5t44 -38t23 -30l-25 -166q-7 13 -22.5 30t-42.5 39t-68.5 37t-87.5 15q-129 0 -216 -112t-87 -288q0 -142 57 -219.5t154 -77.5q76 0 144 39.5t106 77.5l96 682q3 23 12.5 32 t32.5 9h90z" />
<glyph unicode="&#xe2;" horiz-adv-x="1048" d="M422 1190l-37 43q-13 12 -12.5 26.5t20.5 30.5l262 213q36 28 58 0l205 -213q24 -27 -9 -57l-49 -43q-35 -32 -57 0l-137 176l-187 -176q-31 -29 -57 0zM940 983q23 0 31.5 -9t5.5 -32l-127 -901q-3 -23 -13.5 -32t-33.5 -9h-90q-23 0 -30.5 9t-4.5 32l8 53 q-15 -15 -36.5 -31t-57 -36.5t-85 -33.5t-101.5 -13q-153 0 -243.5 114t-90.5 318q0 262 133.5 427t339.5 165q58 0 107 -14.5t78 -36.5t44 -38t23 -30l-25 -166q-7 13 -22.5 30t-42.5 39t-68.5 37t-87.5 15q-129 0 -216 -112t-87 -288q0 -142 57 -219.5t154 -77.5 q76 0 144 39.5t106 77.5l96 682q3 23 12.5 32t32.5 9h90z" />
<glyph unicode="&#xe3;" horiz-adv-x="1048" d="M991 1333q16 -13 4 -30q-91 -129 -217 -129q-50 0 -99 20t-89 39.5t-68 19.5q-50 0 -104 -65q-15 -18 -33 -6l-72 49q-17 13 -4 31q91 129 217 129q47 0 94.5 -20t87.5 -40t70 -20q55 0 109 65q15 18 33 6zM940 983q23 0 31.5 -9t5.5 -32l-127 -901q-3 -23 -13.5 -32 t-33.5 -9h-90q-23 0 -30.5 9t-4.5 32l8 53q-15 -15 -36.5 -31t-57 -36.5t-85 -33.5t-101.5 -13q-153 0 -243.5 114t-90.5 318q0 262 133.5 427t339.5 165q58 0 107 -14.5t78 -36.5t44 -38t23 -30l-25 -166q-7 13 -22.5 30t-42.5 39t-68.5 37t-87.5 15q-129 0 -216 -112 t-87 -288q0 -142 57 -219.5t154 -77.5q76 0 144 39.5t106 77.5l96 682q3 23 12.5 32t32.5 9h90z" />
<glyph unicode="&#xe4;" horiz-adv-x="1048" d="M444 1178q-44 0 -72 29.5t-28 72.5q0 54 40.5 93.5t94.5 39.5q44 0 73.5 -30.5t29.5 -73.5q0 -55 -41.5 -93t-96.5 -38zM827 1178q-44 0 -72 29.5t-28 72.5q0 54 40.5 93.5t94.5 39.5q44 0 73.5 -30.5t29.5 -73.5q0 -55 -41.5 -93t-96.5 -38zM940 983q23 0 31.5 -9 t5.5 -32l-127 -901q-3 -23 -13.5 -32t-33.5 -9h-90q-23 0 -30.5 9t-4.5 32l8 53q-15 -15 -36.5 -31t-57 -36.5t-85 -33.5t-101.5 -13q-153 0 -243.5 114t-90.5 318q0 262 133.5 427t339.5 165q58 0 107 -14.5t78 -36.5t44 -38t23 -30l-25 -166q-7 13 -22.5 30t-42.5 39 t-68.5 37t-87.5 15q-129 0 -216 -112t-87 -288q0 -142 57 -219.5t154 -77.5q76 0 144 39.5t106 77.5l96 682q3 23 12.5 32t32.5 9h90z" />
<glyph unicode="&#xe5;" horiz-adv-x="1048" d="M629 1159q-70 0 -117 48t-47 118q0 85 65.5 148t151.5 63q71 0 117.5 -48t46.5 -118q0 -86 -65 -148.5t-152 -62.5zM666 1419q-31 0 -56.5 -24t-25.5 -56q0 -26 17.5 -44.5t43.5 -18.5q33 0 58.5 24t25.5 56q0 27 -18 45t-45 18zM940 983q23 0 31.5 -9t5.5 -32l-127 -901 q-3 -23 -13.5 -32t-33.5 -9h-90q-23 0 -30.5 9t-4.5 32l8 53q-15 -15 -36.5 -31t-57 -36.5t-85 -33.5t-101.5 -13q-153 0 -243.5 114t-90.5 318q0 262 133.5 427t339.5 165q58 0 107 -14.5t78 -36.5t44 -38t23 -30l-25 -166q-7 13 -22.5 30t-42.5 39t-68.5 37t-87.5 15 q-129 0 -216 -112t-87 -288q0 -142 57 -219.5t154 -77.5q76 0 144 39.5t106 77.5l96 682q3 23 12.5 32t32.5 9h90z" />
<glyph unicode="&#xe6;" horiz-adv-x="1615" d="M342 -20q-132 0 -213.5 77.5t-81.5 204.5q0 150 109 249t274 99q45 0 86 -8.5t69 -20.5t48.5 -24t31.5 -21l11 -8q1 10 4 30t4 30q15 116 -36 184t-165 68q-95 0 -225 -49q-19 -6 -31 -0.5t-14 20.5l-12 86q-7 31 22 41q168 66 301 66q210 0 295 -154q74 75 169.5 114.5 t195.5 39.5q175 0 275.5 -118.5t82.5 -340.5q-6 -71 -19 -95t-38 -24h-627q0 -283 240 -283q109 0 213 76q13 9 21 13t19.5 2t18.5 -15l37 -61q18 -31 -2 -54q-40 -45 -132.5 -84.5t-201.5 -39.5q-215 0 -315 180q-26 -24 -61 -49t-90 -57.5t-125 -53t-138 -20.5zM881 578 l487 2q15 117 -39 188.5t-158 71.5q-111 0 -193.5 -78t-96.5 -184zM401 121q58 0 137 32.5t167 122.5q-17 85 -21 111q-139 82 -248 82q-94 0 -154.5 -50.5t-60.5 -131.5q0 -72 50.5 -119t129.5 -47z" />
<glyph unicode="&#xe7;" horiz-adv-x="927" d="M879 891q22 -19 4 -51l-39 -68q-21 -37 -62 -8q-108 76 -223 76q-137 0 -225 -107t-88 -284q0 -144 62.5 -225t183.5 -81q120 0 219 76q40 31 59 0l37 -61q21 -31 -2 -54q-53 -53 -134.5 -86.5t-174.5 -37.5l-29 -78q41 20 100 20q80 0 129 -52.5t49 -141.5 q0 -121 -74.5 -193t-195.5 -72q-70 0 -123 29q-13 8 -2 29l39 82q9 17 31 10q27 -10 55 -10q54 0 87.5 33t33.5 88q0 44 -23 68t-63 24q-60 0 -96 -45q-12 -15 -29 -11l-76 21q-18 4 -21 10.5t3 18.5l67 182q-137 35 -209.5 151t-72.5 297q0 253 137.5 408.5t349.5 155.5 q92 0 174.5 -31.5t141.5 -81.5z" />
<glyph unicode="&#xe8;" horiz-adv-x="1009" d="M670 1186l-232 200q-30 24 4 62l52 51q17 17 28.5 19t30.5 -15l213 -219q13 -17 10 -27.5t-20 -27.5l-27 -27q-9 -9 -14.5 -13.5t-13.5 -8.5t-15.5 -2.5t-15.5 8.5zM74 426q0 128 40 237t108.5 183t160.5 116t195 42q175 0 275 -118.5t83 -340.5q-6 -71 -19 -95t-38 -24 h-627q0 -139 59.5 -211t173.5 -72q125 0 220 76q41 32 59 0l37 -61q18 -31 -2 -54q-37 -44 -131 -84t-203 -40q-178 0 -284.5 117.5t-106.5 328.5zM274 578l488 2q15 117 -39 188.5t-158 71.5q-111 0 -194 -78t-97 -184z" />
<glyph unicode="&#xe9;" horiz-adv-x="1009" d="M594 1182q-22 -11 -32.5 -6.5t-22.5 22.5l-19 27q-23 32 6 55l275 219q25 17 36 15t23 -19l35 -51q25 -36 -12 -62zM74 426q0 128 40 237t108.5 183t160.5 116t195 42q175 0 275 -118.5t83 -340.5q-6 -71 -19 -95t-38 -24h-627q0 -139 59.5 -211t173.5 -72q125 0 220 76 q41 32 59 0l37 -61q18 -31 -2 -54q-37 -44 -131 -84t-203 -40q-178 0 -284.5 117.5t-106.5 328.5zM274 578l488 2q15 117 -39 188.5t-158 71.5q-111 0 -194 -78t-97 -184z" />
<glyph unicode="&#xea;" horiz-adv-x="1009" d="M637 1366l-186 -176q-32 -29 -58 0l-37 43q-26 29 9 57l262 213q35 28 57 0l205 -213q24 -28 -8 -57l-50 -43q-35 -32 -57 0zM74 426q0 128 40 237t108.5 183t160.5 116t195 42q175 0 275 -118.5t83 -340.5q-6 -71 -19 -95t-38 -24h-627q0 -139 59.5 -211t173.5 -72 q125 0 220 76q41 32 59 0l37 -61q18 -31 -2 -54q-37 -44 -131 -84t-203 -40q-178 0 -284.5 117.5t-106.5 328.5zM274 578l488 2q15 117 -39 188.5t-158 71.5q-111 0 -194 -78t-97 -184z" />
<glyph unicode="&#xeb;" horiz-adv-x="1009" d="M416 1178q-44 0 -72.5 29.5t-28.5 72.5q0 54 41 93.5t95 39.5q44 0 73 -30.5t29 -73.5q0 -55 -41 -93t-96 -38zM799 1178q-44 0 -72.5 29.5t-28.5 72.5q0 54 41 93.5t95 39.5q44 0 73 -30.5t29 -73.5q0 -55 -41 -93t-96 -38zM74 426q0 128 40 237t108.5 183t160.5 116 t195 42q175 0 275 -118.5t83 -340.5q-6 -71 -19 -95t-38 -24h-627q0 -139 59.5 -211t173.5 -72q125 0 220 76q41 32 59 0l37 -61q18 -31 -2 -54q-37 -44 -131 -84t-203 -40q-178 0 -284.5 117.5t-106.5 328.5zM274 578l488 2q15 117 -39 188.5t-158 71.5q-111 0 -194 -78 t-97 -184z" />
<glyph unicode="&#xec;" horiz-adv-x="503" d="M313 1186l-231 200q-30 24 4 62l51 51q17 17 29 19t31 -15l213 -219q13 -17 9.5 -27.5t-20.5 -27.5l-26 -27q-12 -12 -19.5 -17t-19.5 -7t-21 8zM135 0q-23 0 -30.5 9t-4.5 32l127 901q3 23 12.5 32t32.5 9h90q23 0 31.5 -9t5.5 -32l-127 -901q-3 -23 -13.5 -32t-33.5 -9 h-90z" />
<glyph unicode="&#xed;" horiz-adv-x="505" d="M381 1182q-22 -11 -32.5 -6.5t-22.5 22.5l-19 27q-23 32 6 55l275 219q25 17 36 15t23 -19l35 -51q25 -36 -12 -62zM135 0q-23 0 -30.5 9t-4.5 32l127 901q3 23 12.5 32t32.5 9h90q23 0 31.5 -9t5.5 -32l-127 -901q-3 -23 -13.5 -32t-33.5 -9h-90z" />
<glyph unicode="&#xee;" horiz-adv-x="528" d="M385 1366l-186 -176q-32 -29 -58 0l-37 43q-26 29 9 57l262 213q35 28 57 0l205 -213q24 -28 -8 -57l-49 -43q-36 -32 -58 0zM137 0q-23 0 -30.5 9t-4.5 32l127 901q3 23 12.5 32t32.5 9h91q23 0 31 -9t5 -32l-127 -901q-3 -23 -13.5 -32t-33.5 -9h-90z" />
<glyph unicode="&#xef;" horiz-adv-x="520" d="M160 1178q-44 0 -72.5 29.5t-28.5 72.5q0 54 41 93.5t95 39.5q44 0 73 -30.5t29 -73.5q0 -55 -41 -93t-96 -38zM543 1178q-44 0 -72.5 29.5t-28.5 72.5q0 54 41 93.5t95 39.5q44 0 73 -30.5t29 -73.5q0 -55 -41 -93t-96 -38zM133 0q-23 0 -30.5 9t-4.5 32l127 901 q3 23 12.5 32t32.5 9h90q23 0 31.5 -9t5.5 -32l-127 -901q-3 -23 -13.5 -32t-33.5 -9h-90z" />
<glyph unicode="&#xf0;" horiz-adv-x="1062" d="M883 1319q125 -200 125 -535q0 -194 -43 -348.5t-118 -253t-174 -150.5t-214 -52q-180 0 -283.5 119t-103.5 319q0 157 64 286t174 202t241 73q59 0 110 -15t82.5 -37t54.5 -44t32 -37l10 -15q5 15 0.5 70.5t-29.5 143t-68 155.5l-147 -127q-19 -16 -37 4l-41 47 q-13 15 -13.5 24t11.5 19l146 127q-83 69 -193 72q-44 0 -37 41l14 88q5 25 16.5 33t47.5 8q170 0 295 -119l96 84q14 9 20.5 6t20.5 -18l41 -45q12 -13 12 -21.5t-12 -19.5zM471 143q134 0 231.5 134.5t110.5 363.5q-27 64 -96.5 119t-165.5 55q-131 0 -218 -108.5 t-87 -270.5q0 -132 61.5 -212.5t163.5 -80.5z" />
<glyph unicode="&#xf1;" horiz-adv-x="1064" d="M989 1325q17 -14 4 -29q-88 -125 -209 -125q-49 0 -96.5 19.5t-85.5 39t-65 19.5q-48 0 -103 -63q-12 -18 -31 -6l-69 47q-16 13 -4 28q86 125 211 125q57 0 134 -37.5t109 -37.5q52 0 105 61q14 17 31 6zM641 1004q151 0 242.5 -95t70.5 -243l-88 -625q-3 -23 -13.5 -32 t-33.5 -9h-90q-23 0 -30.5 9t-4.5 32l80 573q17 113 -36.5 176.5t-147.5 63.5q-53 0 -108 -21t-83 -40t-47 -37l-100 -715q-3 -23 -13.5 -32t-33.5 -9h-90q-23 0 -30.5 9t-4.5 32l127 901q3 23 12.5 32t32.5 9h90q23 0 31.5 -9t5.5 -32l-4 -33q120 95 266 95z" />
<glyph unicode="&#xf2;" horiz-adv-x="1040" d="M676 1186l-232 200q-30 24 5 62l51 51q17 17 28.5 19t30.5 -15l213 -219q13 -17 10 -27.5t-20 -27.5l-27 -27q-9 -9 -14.5 -13.5t-13.5 -8.5t-15.5 -2.5t-15.5 8.5zM455 -20q-182 0 -281.5 115t-99.5 329q0 258 139 419t362 161q184 0 285 -115t101 -328 q0 -259 -141 -420t-365 -161zM475 143q135 0 223 111t88 287q0 144 -61 221.5t-170 77.5q-134 0 -220.5 -112t-86.5 -290q0 -142 59.5 -218.5t167.5 -76.5z" />
<glyph unicode="&#xf3;" horiz-adv-x="1040" d="M600 1182q-22 -11 -32.5 -6.5t-22.5 22.5l-19 27q-23 32 6 55l275 219q25 17 36 15t23 -19l35 -51q25 -36 -12 -62zM455 -20q-182 0 -281.5 115t-99.5 329q0 258 139 419t362 161q184 0 285 -115t101 -328q0 -259 -141 -420t-365 -161zM475 143q135 0 223 111t88 287 q0 144 -61 221.5t-170 77.5q-134 0 -220.5 -112t-86.5 -290q0 -142 59.5 -218.5t167.5 -76.5z" />
<glyph unicode="&#xf4;" horiz-adv-x="1040" d="M643 1366l-186 -176q-32 -29 -58 0l-37 43q-26 29 9 57l262 213q35 28 57 0l205 -213q24 -28 -8 -57l-49 -43q-36 -32 -58 0zM455 -20q-182 0 -281.5 115t-99.5 329q0 258 139 419t362 161q184 0 285 -115t101 -328q0 -259 -141 -420t-365 -161zM475 143q135 0 223 111 t88 287q0 144 -61 221.5t-170 77.5q-134 0 -220.5 -112t-86.5 -290q0 -142 59.5 -218.5t167.5 -76.5z" />
<glyph unicode="&#xf5;" horiz-adv-x="1040" d="M752 1171q-49 0 -96.5 19.5t-86 39t-65.5 19.5q-48 0 -103 -63q-12 -18 -30 -6l-70 47q-16 13 -4 28q86 125 211 125q57 0 134.5 -37.5t109.5 -37.5q51 0 104 61q14 17 31 6l69 -47q18 -14 5 -29q-87 -125 -209 -125zM455 -20q-182 0 -281.5 115t-99.5 329q0 258 139 419 t362 161q184 0 285 -115t101 -328q0 -259 -141 -420t-365 -161zM475 143q135 0 223 111t88 287q0 144 -61 221.5t-170 77.5q-134 0 -220.5 -112t-86.5 -290q0 -142 59.5 -218.5t167.5 -76.5z" />
<glyph unicode="&#xf6;" horiz-adv-x="1040" d="M422 1178q-44 0 -72 29.5t-28 72.5q0 54 40.5 93.5t94.5 39.5q44 0 73 -30.5t29 -73.5q0 -55 -41 -93t-96 -38zM805 1178q-44 0 -72 29.5t-28 72.5q0 54 40.5 93.5t94.5 39.5q44 0 73 -30.5t29 -73.5q0 -55 -41 -93t-96 -38zM455 -20q-182 0 -281.5 115t-99.5 329 q0 258 139 419t362 161q184 0 285 -115t101 -328q0 -259 -141 -420t-365 -161zM475 143q135 0 223 111t88 287q0 144 -61 221.5t-170 77.5q-134 0 -220.5 -112t-86.5 -290q0 -142 59.5 -218.5t167.5 -76.5z" />
<glyph unicode="&#xf7;" horiz-adv-x="901" d="M422 1135q0 54 40.5 93.5t94.5 39.5q44 0 73 -31t29 -74q0 -55 -40 -93t-95 -38q-44 0 -73 30t-29 73zM170 700q-23 0 -30.5 9t-4.5 32l8 66q3 23 13.5 32t33.5 9h615q23 0 30.5 -9t4.5 -32l-9 -66q-3 -23 -13.5 -32t-33.5 -9h-614zM317 383q0 54 40.5 93.5t93.5 39.5 q45 0 74.5 -30.5t29.5 -73.5q0 -55 -41 -93t-96 -38q-44 0 -72.5 29.5t-28.5 72.5z" />
<glyph unicode="&#xf8;" horiz-adv-x="1058" d="M1024 1012q16 0 21 -12t-7 -29l-131 -152q54 -105 54 -258q0 -259 -141 -420t-365 -161q-135 0 -226 63l-24 -27q-29 -34 -38.5 -39.5t-37.5 -5.5h-102q-16 0 -21.5 12t8.5 29l121 138q-61 107 -61 274q0 258 139 419t362 161q147 0 240 -72l31 35q29 34 38.5 39.5 t37.5 5.5h102zM248 438q0 -78 18 -137l428 492q-56 47 -139 47q-134 0 -220.5 -112t-86.5 -290zM786 541q0 73 -14 125l-424 -486q52 -37 127 -37q135 0 223 111t88 287z" />
<glyph unicode="&#xf9;" horiz-adv-x="1046" d="M442 1386q-30 24 4 62l52 51q17 17 28.5 19t30.5 -15l213 -219q13 -17 10 -27.5t-20 -27.5l-27 -27q-9 -9 -14.5 -13.5t-13.5 -8.5t-15.5 -2.5t-15.5 8.5zM928 983q23 0 31.5 -9t5.5 -32l-127 -901q-3 -23 -13.5 -32t-33.5 -9h-91q-23 0 -30 8.5t-4 32.5l4 31 q-36 -34 -99 -63t-149 -29q-151 0 -242.5 94.5t-70.5 242.5l88 625q3 23 13.5 32t33.5 9h90q23 0 30.5 -9t4.5 -32l-80 -573q-17 -113 36.5 -176.5t147.5 -63.5q41 0 80.5 12t68 31t44.5 32.5t26 24.5l101 713q3 23 12.5 32t32.5 9h90z" />
<glyph unicode="&#xfa;" horiz-adv-x="1046" d="M543 1198l-19 27q-23 32 6 55l275 219q25 17 36 15t23 -19l35 -51q25 -36 -12 -62l-289 -200q-22 -11 -32.5 -6.5t-22.5 22.5zM928 983q23 0 31.5 -9t5.5 -32l-127 -901q-3 -23 -13.5 -32t-33.5 -9h-91q-23 0 -30 8.5t-4 32.5l4 31q-36 -34 -99 -63t-149 -29 q-151 0 -242.5 94.5t-70.5 242.5l88 625q3 23 13.5 32t33.5 9h90q23 0 30.5 -9t4.5 -32l-80 -573q-17 -113 36.5 -176.5t147.5 -63.5q41 0 80.5 12t68 31t44.5 32.5t26 24.5l101 713q3 23 12.5 32t32.5 9h90z" />
<glyph unicode="&#xfb;" horiz-adv-x="1046" d="M397 1190l-37 43q-26 29 9 57l262 213q35 28 57 0l205 -213q24 -28 -8 -57l-49 -43q-36 -32 -58 0l-137 176l-186 -176q-32 -29 -58 0zM928 983q23 0 31.5 -9t5.5 -32l-127 -901q-3 -23 -13.5 -32t-33.5 -9h-91q-23 0 -30 8.5t-4 32.5l4 31q-36 -34 -99 -63t-149 -29 q-151 0 -242.5 94.5t-70.5 242.5l88 625q3 23 13.5 32t33.5 9h90q23 0 30.5 -9t4.5 -32l-80 -573q-17 -113 36.5 -176.5t147.5 -63.5q41 0 80.5 12t68 31t44.5 32.5t26 24.5l101 713q3 23 12.5 32t32.5 9h90z" />
<glyph unicode="&#xfc;" horiz-adv-x="1046" d="M420 1178q-44 0 -72.5 29.5t-28.5 72.5q0 54 41 93.5t95 39.5q44 0 73 -30.5t29 -73.5q0 -55 -41 -93t-96 -38zM803 1178q-44 0 -72.5 29.5t-28.5 72.5q0 54 41 93.5t95 39.5q44 0 73 -30.5t29 -73.5q0 -55 -41 -93t-96 -38zM928 983q23 0 31.5 -9t5.5 -32l-127 -901 q-3 -23 -13.5 -32t-33.5 -9h-91q-23 0 -30 8.5t-4 32.5l4 31q-36 -34 -99 -63t-149 -29q-151 0 -242.5 94.5t-70.5 242.5l88 625q3 23 13.5 32t33.5 9h90q23 0 30.5 -9t4.5 -32l-80 -573q-17 -113 36.5 -176.5t147.5 -63.5q41 0 80.5 12t68 31t44.5 32.5t26 24.5l101 713 q3 23 12.5 32t32.5 9h90z" />
<glyph unicode="&#xfd;" horiz-adv-x="929" d="M565 1182q-22 -11 -32.5 -6.5t-22.5 22.5l-18 27q-23 32 6 55l274 219q25 17 36 15t23 -19l35 -51q25 -36 -12 -62zM31 -512q-61 0 -123 27q-22 10 -26 22t5 29l37 74q14 31 47 20q46 -16 82 -16q91 0 146 110l131 262l-187 932q-4 21 4 28t35 7h90q22 0 29.5 -4.5 t11.5 -26.5l133 -702l330 702q10 22 18.5 26.5t30.5 4.5h90q10 0 15.5 -0.5t13.5 -4t6.5 -10.5t-4.5 -20l-612 -1270q-45 -93 -128.5 -141.5t-174.5 -48.5z" />
<glyph unicode="&#xfe;" horiz-adv-x="1126" d="M70 -512q-23 0 -30.5 9t-4.5 32l276 1966q3 23 12.5 32t32.5 9h90q23 0 31.5 -9t5.5 -32l-88 -614q4 5 11.5 13.5t34.5 29.5t58 37t81.5 29.5t105.5 13.5q174 0 269.5 -110t95.5 -306q0 -277 -139 -442.5t-373 -165.5q-51 0 -95.5 12.5t-72 30.5t-47.5 36t-28 31l-9 12 l-80 -573q-3 -23 -13.5 -32t-33.5 -9h-90zM539 143q155 0 246.5 113.5t91.5 302.5q0 133 -63.5 207t-178.5 74q-69 0 -134.5 -32t-96.5 -64l-31 -31l-62 -443q3 -5 9 -13.5t27.5 -30.5t45.5 -39t63.5 -30.5t82.5 -13.5z" />
<glyph unicode="&#xff;" horiz-adv-x="929" d="M387 1178q-44 0 -72 29.5t-28 72.5q0 54 40.5 93.5t94.5 39.5q44 0 73 -30.5t29 -73.5q0 -55 -41 -93t-96 -38zM770 1178q-44 0 -72 29.5t-28 72.5q0 54 40.5 93.5t94.5 39.5q44 0 73 -30.5t29 -73.5q0 -55 -41 -93t-96 -38zM31 -512q-61 0 -123 27q-22 10 -26 22t5 29 l37 74q14 31 47 20q46 -16 82 -16q91 0 146 110l131 262l-187 932q-4 21 4 28t35 7h90q22 0 29.5 -4.5t11.5 -26.5l133 -702l330 702q10 22 18.5 26.5t30.5 4.5h90q10 0 15.5 -0.5t13.5 -4t6.5 -10.5t-4.5 -20l-612 -1270q-45 -93 -128.5 -141.5t-174.5 -48.5z" />
<glyph unicode="&#x152;" horiz-adv-x="2146" d="M2116 1536q42 0 36 -41l-12 -82q-6 -41 -47 -41h-573l-68 -483h492q40 0 34 -41l-10 -82q-6 -41 -47 -41h-491l-80 -561h594q40 0 34 -41l-10 -82q-6 -41 -47 -41h-729q-41 0 -35 41l19 127q-194 -188 -486 -188q-253 0 -401 171.5t-148 464.5q0 284 89 496t258 328 t399 116q308 0 450 -235l25 174q6 41 45 41h709zM713 143q167 0 290 93t187.5 262.5t64.5 396.5q0 235 -103 366.5t-286 131.5q-168 0 -292 -94t-189.5 -263t-65.5 -393q0 -230 106.5 -365t287.5 -135z" />
<glyph unicode="&#x153;" horiz-adv-x="1716" d="M1284 1004q175 0 275 -118.5t83 -340.5q-6 -71 -19 -95t-38 -24h-627q0 -139 60 -211t174 -72q124 0 219 76q41 32 59 0l37 -61q18 -31 -2 -54q-37 -44 -131 -84t-203 -40q-112 0 -196.5 47.5t-134.5 138.5q-68 -90 -167 -138t-218 -48q-182 0 -281.5 115t-99.5 329 q0 258 139 419t362 161q236 0 332 -185q69 88 167 136.5t210 48.5zM475 143q118 0 201.5 87.5t103.5 230.5l6 59v21q0 144 -61 221.5t-170 77.5q-134 0 -220.5 -112t-86.5 -290q0 -142 59.5 -218.5t167.5 -76.5zM1468 580q15 117 -38.5 188.5t-157.5 71.5q-111 0 -194 -78 t-97 -184z" />
<glyph unicode="&#x178;" horiz-adv-x="1052" d="M498 1669q-44 0 -72.5 30t-28.5 73q0 54 40.5 93.5t94.5 39.5q44 0 73.5 -31t29.5 -74q0 -55 -41 -93t-96 -38zM881 1669q-44 0 -72.5 30t-28.5 73q0 54 40.5 93.5t94.5 39.5q44 0 73.5 -31t29.5 -74q0 -55 -41 -93t-96 -38zM991 1507q19 29 53 29h105q41 0 14 -41 l-520 -790l-94 -664q-6 -41 -47 -41h-94q-41 0 -35 41l92 664l-297 790q-9 20 -4.5 30.5t26.5 10.5h105q37 0 49 -29l231 -657z" />
<glyph unicode="&#x2c6;" horiz-adv-x="632" d="M559 1733l-186 -177q-32 -29 -58 0l-36 43q-27 30 8 58l262 213q35 28 57 0l205 -213q25 -28 -8 -58l-49 -43q-36 -32 -58 0z" />
<glyph unicode="&#x2dc;" horiz-adv-x="684" d="M702 1526q-50 0 -99 20t-89 40t-68 20q-49 0 -104 -66q-15 -18 -33 -6l-71 49q-17 14 -5 31q91 129 218 129q47 0 94 -20t87 -40t70 -20q54 0 109 66q15 18 33 6l71 -49q17 -14 5 -31q-91 -129 -218 -129z" />
<glyph unicode="&#x2000;" horiz-adv-x="1014" />
<glyph unicode="&#x2001;" horiz-adv-x="2028" />
<glyph unicode="&#x2002;" horiz-adv-x="1014" />
<glyph unicode="&#x2003;" horiz-adv-x="2028" />
<glyph unicode="&#x2004;" horiz-adv-x="676" />
<glyph unicode="&#x2005;" horiz-adv-x="507" />
<glyph unicode="&#x2006;" horiz-adv-x="338" />
<glyph unicode="&#x2007;" horiz-adv-x="338" />
<glyph unicode="&#x2008;" horiz-adv-x="253" />
<glyph unicode="&#x2009;" horiz-adv-x="405" />
<glyph unicode="&#x200a;" horiz-adv-x="112" />
<glyph unicode="&#x2010;" horiz-adv-x="702" d="M127 483q-17 0 -21.5 8.5t-1.5 32.5l13 82q3 24 9.5 32.5t23.5 8.5h438q17 0 22 -9t2 -32l-12 -82q-3 -23 -10.5 -32t-24.5 -9h-438z" />
<glyph unicode="&#x2011;" horiz-adv-x="702" d="M127 483q-17 0 -21.5 8.5t-1.5 32.5l13 82q3 24 9.5 32.5t23.5 8.5h438q17 0 22 -9t2 -32l-12 -82q-3 -23 -10.5 -32t-24.5 -9h-438z" />
<glyph unicode="&#x2012;" horiz-adv-x="702" d="M127 483q-17 0 -21.5 8.5t-1.5 32.5l13 82q3 24 9.5 32.5t23.5 8.5h438q17 0 22 -9t2 -32l-12 -82q-3 -23 -10.5 -32t-24.5 -9h-438z" />
<glyph unicode="&#x2013;" horiz-adv-x="1165" d="M139 481q-23 0 -30.5 9t-4.5 32l11 82q3 23 13.5 32t33.5 9h878q23 0 30.5 -9t4.5 -32l-10 -82q-3 -23 -13.5 -32t-33.5 -9h-879z" />
<glyph unicode="&#x2014;" horiz-adv-x="1431" d="M139 481q-23 0 -30.5 9t-4.5 32l11 82q3 23 13.5 32t33.5 9h1145q23 0 30 -8.5t4 -32.5l-10 -82q-3 -23 -13.5 -32t-33.5 -9h-1145z" />
<glyph unicode="&#x2018;" horiz-adv-x="393" d="M412 1190q0 -53 -38 -91t-98 -38q-45 0 -74.5 28.5t-29.5 86.5q0 79 48.5 173.5t137.5 174.5q2 2 7.5 7t8 7.5t8 6t9 2.5t8.5 -3l31 -24q14 -11 -8 -37q-3 -3 -16 -19t-19.5 -24.5t-18.5 -24.5t-19 -27t-15 -25t-11.5 -25.5t-3.5 -20.5q0 -17 19 -27q74 -32 74 -100z" />
<glyph unicode="&#x2019;" horiz-adv-x="382" d="M201 1427q0 53 37.5 91t97.5 38q45 0 74.5 -28t29.5 -86q0 -79 -48.5 -173.5t-137.5 -174.5q-3 -2 -8 -7t-8 -7.5t-8 -6t-8.5 -3t-8.5 2.5l-31 25q-14 11 8 37q2 3 18.5 22.5t23.5 29t21 29t21 31.5t13 27t6 26q0 18 -19 27q-73 32 -73 100z" />
<glyph unicode="&#x201a;" horiz-adv-x="389" d="M14 98q0 53 38 91t98 38q45 0 74.5 -28t29.5 -86q0 -79 -48.5 -174t-137.5 -175q-2 -2 -7.5 -7t-8 -7.5t-8 -6t-9 -2.5t-8.5 3l-31 25q-14 11 8 36l16 19q15 19 19.5 25l18 24t19.5 27.5t14 24t11.5 26t3.5 20.5q0 18 -18 27q-74 32 -74 100z" />
<glyph unicode="&#x201c;" horiz-adv-x="647" d="M403 1200q0 -53 -37.5 -91t-97.5 -38q-45 0 -74.5 28.5t-29.5 86.5q0 79 48.5 173.5t137.5 174.5q2 2 7.5 7t8 7.5t8 6t9 2.5t8.5 -3l31 -24q14 -11 -8 -37q-3 -3 -16 -19t-19.5 -24.5t-18.5 -24.5t-19 -27t-15 -25t-11.5 -25.5t-3.5 -20.5q0 -17 19 -27q73 -32 73 -100z M676 1200q0 -53 -37.5 -91t-97.5 -38q-45 0 -75 28.5t-30 86.5q0 78 49 173t138 175q2 2 7.5 7t8 7.5t8 6t9 2.5t8.5 -3l30 -24q14 -11 -8 -37l-16 -19q-15 -19 -19.5 -25l-18 -24t-19.5 -27.5t-14 -24t-11.5 -26t-3.5 -20.5q0 -18 18 -27q74 -32 74 -100z" />
<glyph unicode="&#x201d;" horiz-adv-x="655" d="M201 1427q0 53 37.5 91t97.5 38q45 0 74.5 -28t29.5 -86q0 -79 -48.5 -173.5t-137.5 -174.5q-3 -2 -8 -7t-8 -7.5t-8 -6t-8.5 -3t-8.5 2.5l-31 25q-14 11 8 37q2 3 18.5 22.5t23.5 29t21 29t21 31.5t13 27t6 26q0 18 -19 27q-73 32 -73 100zM473 1427q0 53 37.5 91 t97.5 38q45 0 75 -28t30 -86q0 -78 -49 -173t-138 -175q-3 -2 -8 -7t-8 -7.5t-8 -6t-8.5 -3t-8.5 2.5l-30 25q-14 11 8 37q2 3 15.5 19t19.5 24t18.5 24.5t19 27.5t14.5 24.5t11.5 25t3.5 20.5q0 18 -18 27q-74 32 -74 100z" />
<glyph unicode="&#x201e;" horiz-adv-x="661" d="M10 70q0 53 37.5 91t97.5 38q45 0 75 -28.5t30 -86.5q0 -78 -49 -173t-138 -175q-3 -2 -9.5 -9t-9.5 -9t-10.5 -5t-10.5 2l-31 25q-14 11 8 37l16 19q15 19 19.5 25l18 24t19.5 27.5t14 24t11.5 26t3.5 20.5q0 17 -18 26q-74 32 -74 101zM287 70q0 53 37.5 91t97.5 38 q45 0 74.5 -28.5t29.5 -86.5q0 -79 -48.5 -173.5t-137.5 -174.5q-3 -2 -8 -7t-8 -7.5t-8 -6t-8.5 -3t-8.5 2.5l-31 25q-14 11 8 37q3 3 16 19t19.5 24.5t18.5 24.5t19 27t15 25t11.5 25.5t3.5 20.5q0 17 -19 26q-73 32 -73 101z" />
<glyph unicode="&#x2022;" horiz-adv-x="520" d="M74 727q0 98 75.5 170t174.5 72q83 0 136.5 -55.5t53.5 -137.5q0 -97 -75.5 -169t-174.5 -72q-83 0 -136.5 55t-53.5 137z" />
<glyph unicode="&#x2026;" horiz-adv-x="1132" d="M14 94q0 54 41 93.5t95 39.5q44 0 73 -30.5t29 -73.5q0 -55 -41 -93t-96 -38q-44 0 -72.5 29.5t-28.5 72.5zM389 94q0 54 40.5 93.5t94.5 39.5q44 0 73.5 -30.5t29.5 -73.5q0 -55 -41.5 -93t-96.5 -38q-44 0 -72 29.5t-28 72.5zM768 94q0 54 40.5 93.5t94.5 39.5 q44 0 73.5 -30.5t29.5 -73.5q0 -55 -41.5 -93t-96.5 -38q-44 0 -72 29.5t-28 72.5z" />
<glyph unicode="&#x202f;" horiz-adv-x="405" />
<glyph unicode="&#x2039;" horiz-adv-x="610" d="M86 489q-21 24 4 46l447 380q15 12 25.5 7.5t8.5 -19.5l-20 -149q-2 -15 -7 -24t-22 -23l-227 -195l174 -195q12 -13 13.5 -24t-1.5 -23l-20 -149q-2 -14 -14.5 -19.5t-24.5 7.5z" />
<glyph unicode="&#x203a;" horiz-adv-x="612" d="M522 489l-442 -380q-17 -12 -27.5 -7.5t-7.5 19.5l21 149q1 3 2 9.5t2 9.5t3.5 8t7 9.5t11.5 10.5l227 195l-172 195q-19 21 -16 47l23 149q2 14 14.5 19.5t24.5 -7.5l337 -380q19 -22 -8 -46z" />
<glyph unicode="&#x205f;" horiz-adv-x="507" />
<glyph unicode="&#x20ac;" horiz-adv-x="1222" d="M1268 1403q13 -14 11.5 -25.5t-17.5 -29.5l-52 -58q-30 -34 -61 -6q-129 117 -291 117q-166 0 -291 -115t-188 -303h448q23 0 31.5 -9t5.5 -32l-10 -65q-3 -23 -13.5 -32t-33.5 -9h-463q-11 -55 -14 -123h461q23 0 30 -8.5t4 -32.5l-8 -66q-3 -23 -13.5 -32t-33.5 -9 h-438q18 -190 109.5 -306t248.5 -116q159 0 311 111q17 13 35 12t27 -18l37 -66q9 -17 6.5 -28.5t-19.5 -24.5q-80 -66 -191.5 -107.5t-227.5 -41.5q-226 0 -362 163t-154 422h-103q-23 0 -30.5 9t-4.5 32l9 66q3 23 13.5 32t33.5 9h82q2 41 14 123h-80q-23 0 -30.5 9 t-4.5 32l10 65q3 23 12.5 32t32.5 9h95q77 259 254.5 420.5t408.5 161.5q128 0 231 -46t173 -116z" />
<glyph unicode="&#x2122;" horiz-adv-x="1292" d="M244 1520q3 16 18 16h365q17 0 14 -16l-10 -74q-3 -16 -19 -16h-127l-63 -455q-4 -21 -23 -21h-73q-18 0 -15 21l64 455h-127q-18 0 -15 16zM928 954q-14 0 -17 13l-96 333l-72 -325q-4 -21 -24 -21h-70q-17 0 -12 19l121 547q2 16 18 16h58q13 0 16 -10l115 -414 l233 414q3 10 16 10h58q7 0 10.5 -4t3.5 -8v-4l-31 -545q-2 -21 -20 -21h-70q-9 0 -13 5t-4 11l1 5l16 325l-188 -333q-8 -13 -21 -13h-28z" />
<glyph unicode="&#x25fc;" horiz-adv-x="983" d="M0 983h983v-983h-983v983z" />
<glyph unicode="&#xfb01;" horiz-adv-x="1064" d="M190 0q-23 0 -30 8.5t-4 32.5l112 795h-121q-23 0 -30 8.5t-4 32.5l10 65q3 23 12.5 32t32.5 9h119l22 160q26 187 140 300t282 113q181 0 287 -137q22 -28 23 -43t-21 -37l-53 -47q-33 -30 -58 2q-23 27 -40.5 44t-57.5 36t-86 19q-97 0 -162 -69.5t-82 -186.5l-22 -154 h497q23 0 31.5 -9t5.5 -32l-127 -901q-3 -23 -13.5 -32t-33.5 -9h-90q-23 0 -30.5 9t-4.5 32l113 795h-367l-112 -795q-3 -23 -13.5 -32t-33.5 -9h-91z" />
<glyph unicode="&#xfb02;" horiz-adv-x="1239" d="M190 0q-23 0 -30 8.5t-4 32.5l112 795h-121q-23 0 -30 8.5t-4 32.5l10 65q3 23 12.5 32t32.5 9h119l22 160q26 187 139.5 300t276.5 113q136 0 229 -71l68 45q22 13 38 3t13 -34l-162 -1155q-12 -85 31.5 -132.5t132.5 -47.5h12q23 0 30.5 -9t4.5 -32l-10 -82 q-3 -23 -13.5 -32t-33.5 -9h-31q-163 0 -240.5 90.5t-54.5 253.5l70 492h-369l-112 -795q-3 -23 -13.5 -32t-33.5 -9h-91zM459 983h368l50 350q-64 60 -156 60q-94 0 -158.5 -69.5t-81.5 -186.5z" />
<glyph unicode="&#xfb03;" horiz-adv-x="1591" d="M113 877l10 65q3 23 12.5 32t32.5 9h104l19 133q23 168 133.5 273.5t255.5 105.5q45 0 87.5 -11.5t71 -27.5t50 -32.5t31.5 -27.5l10 -12q4 7 12.5 18.5t38.5 41t65 52.5t93.5 41.5t122.5 18.5q176 0 282 -137q22 -28 23 -43t-21 -37l-53 -47q-33 -29 -57 2 q-83 99 -187 99q-95 0 -159.5 -69.5t-81.5 -186.5l-23 -154h498q23 0 31.5 -9t5.5 -32l-127 -901q-3 -23 -13.5 -32t-33.5 -9h-91q-23 0 -30 8.5t-4 32.5l112 795h-366l-113 -795q-3 -23 -13.5 -32t-33.5 -9h-90q-23 0 -30.5 9t-4.5 32l113 795h-371l-113 -795 q-3 -23 -13.5 -32t-33.5 -9h-90q-23 0 -30.5 9t-4.5 32l113 795h-105q-23 0 -30 8.5t-4 32.5zM444 983h369l39 260q-3 4 -7.5 9.5t-21.5 21t-35.5 27t-47 21t-58.5 9.5q-83 0 -144.5 -59.5t-74.5 -155.5z" />
<glyph unicode="&#xfb04;" horiz-adv-x="1765" d="M113 877l10 65q3 23 12.5 32t32.5 9h104l19 133q23 167 139 273t262 106q45 0 86.5 -11.5t68 -27.5t46 -32.5t28.5 -27.5l9 -12q4 7 12 18.5t38 41t65.5 52.5t95.5 41.5t127 18.5q122 0 213 -69l67 43q22 13 38 3t13 -34l-161 -1155q-12 -85 31.5 -132.5t132.5 -47.5h12 q23 0 30.5 -9t4.5 -32l-11 -82q-3 -23 -13.5 -32t-33.5 -9h-30q-163 0 -240.5 90.5t-54.5 253.5l69 492h-368l-113 -795q-3 -23 -13.5 -32t-33.5 -9h-90q-23 0 -30.5 9t-4.5 32l113 795h-371l-113 -795q-3 -23 -13.5 -32t-33.5 -9h-90q-23 0 -30.5 9t-4.5 32l113 795h-105 q-23 0 -30 8.5t-4 32.5zM985 983h369l49 350q-66 60 -150 60q-99 0 -163 -69t-82 -187zM444 983h369l37 258q-2 4 -6.5 10t-19.5 21.5t-32 27.5t-44.5 21.5t-57.5 9.5q-83 0 -148.5 -60t-78.5 -155z" />
</font>
</defs>
</svg>
