<?xml version="1.0" standalone="no"?>
<!DOCTYPE svg PUBLIC "-//W3C//DTD SVG 1.1//EN" "http://www.w3.org/Graphics/SVG/1.1/DTD/svg11.dtd" >
<svg xmlns="http://www.w3.org/2000/svg">
<metadata></metadata>
<defs>
<font id="merlo_neuelight" horiz-adv-x="1474" >
<font-face units-per-em="2048" ascent="1536" descent="-512" />
<missing-glyph horiz-adv-x="497" />
<glyph horiz-adv-x="0" />
<glyph horiz-adv-x="682" />
<glyph unicode=" "  horiz-adv-x="497" />
<glyph unicode="&#x09;" horiz-adv-x="497" />
<glyph unicode="&#xa0;" horiz-adv-x="497" />
<glyph unicode="!" horiz-adv-x="458" d="M211 348q-19 0 -26 9t-7 32l-16 1106q0 24 7 32.5t28 8.5h65q21 0 28 -8.5t7 -32.5l-16 -1106q0 -22 -7.5 -31.5t-25.5 -9.5h-37zM152 70q-8 33 10 61t51 35q32 7 60 -11t36 -51q6 -34 -11.5 -61.5t-51.5 -34.5q-32 -6 -59.5 12t-34.5 50z" />
<glyph unicode="&#x22;" horiz-adv-x="575" d="M219 1536q32 0 29 -39l-45 -319q-2 -20 -16.5 -27.5t-29.5 0t-18 27.5l-43 319q-6 39 27 39h96zM475 1536q14 0 22 -10.5t5 -28.5l-43 -319q-5 -31 -33 -31t-33 31l-43 319q-6 39 27 39h98z" />
<glyph unicode="#" horiz-adv-x="1599" d="M895 504h-233l-56 -461q-3 -23 -11.5 -33t-27.5 -10h-59q-19 0 -26.5 9t-4.5 32l55 463h-391q-19 0 -27 7.5t-8 25.5v61q0 18 8 25.5t27 7.5h408l31 250h-383q-19 0 -27 7t-8 25v62q0 18 8 25.5t27 7.5h397l47 383q3 23 12.5 33t28.5 10h57q20 0 28 -9.5t5 -31.5 l-47 -385h233l48 383q3 24 11.5 33.5t26.5 9.5h60q19 0 26.5 -9t4.5 -32l-48 -385h371q19 0 27 -7.5t8 -25.5v-62q0 -18 -8 -25t-27 -7h-387l-31 -250h363q19 0 27 -7.5t8 -25.5v-61q0 -18 -8 -25.5t-27 -7.5h-377l-57 -461q-3 -23 -11.5 -33t-27.5 -10h-60q-19 0 -26 9 t-4 32zM678 631h233l31 250h-233z" />
<glyph unicode="$" horiz-adv-x="1099" d="M1004 379q0 -147 -95 -252.5t-260 -134.5v-82q0 -20 -8 -27.5t-27 -7.5h-61q-19 0 -26 7.5t-7 27.5v74q-222 9 -409 168q-25 26 -2 49l38 45q19 22 48 2q172 -142 360 -142q145 0 231 78.5t86 192.5q0 59 -25 109.5t-67 88.5t-96 72.5t-114 66t-120.5 63.5t-114.5 70.5 t-96 82.5t-67 103.5t-25 129.5q0 147 99.5 255.5t273.5 129.5v76q0 19 7.5 27t25.5 8h61q19 0 27 -8t8 -27v-74q83 -7 157.5 -32.5t107.5 -47.5l34 -22q20 -14 8 -45l-26 -49q-5 -11 -16 -13t-25 5q-168 84 -297 84q-135 0 -223 -75.5t-88 -183.5q0 -54 24.5 -101t66.5 -83 t96.5 -69.5t114 -65t119.5 -65t114.5 -74.5t96.5 -87.5t66.5 -110t24.5 -136.5z" />
<glyph unicode="%" horiz-adv-x="1198" d="M391 1200q-73 0 -124.5 51t-51.5 125t51.5 125t124.5 51t124.5 -51t51.5 -125t-51.5 -125t-124.5 -51zM285 0q-45 0 -29 41l596 1452q10 27 17 35t26 8h59q41 0 27 -41l-596 -1452q-7 -19 -10.5 -26t-11 -12t-19.5 -5h-59zM391 1290q35 0 60.5 25.5t25.5 60.5t-25.5 60.5 t-60.5 25.5t-60.5 -25.5t-25.5 -60.5t25.5 -60.5t60.5 -25.5zM934 16q-58 -34 -123.5 -17t-99.5 77q-35 60 -18.5 125t75.5 100q60 34 125 17.5t100 -76.5q35 -58 18 -124.5t-77 -101.5zM893 90q28 17 36 49t-7 60q-17 29 -49.5 37t-61.5 -9q-28 -15 -37 -47.5t8 -60.5 q17 -29 49.5 -37.5t61.5 8.5z" />
<glyph unicode="&#x26;" horiz-adv-x="1210" d="M557 -16q-193 0 -319.5 120.5t-126.5 311.5q0 75 21 142t56 115.5t71.5 82.5t76.5 59q-78 49 -137.5 144t-59.5 217q0 167 110.5 272.5t287.5 105.5q97 0 185 -35.5t148 -107.5q24 -28 0 -49l-39 -37q-23 -23 -45 0q-108 100 -241 100q-122 0 -198.5 -71t-76.5 -185 q0 -110 71.5 -196.5t178.5 -95.5q20 -2 27.5 -8.5t7.5 -24.5v-62q0 -18 -7.5 -24t-27.5 -8q-112 -10 -195 -97t-83 -229q0 -139 89 -226t226 -87q136 0 223.5 84.5t87.5 220.5v237q0 35 35 35h246q35 0 35 -33v-57q0 -33 -35 -33h-150v-157q0 -188 -124.5 -306t-317.5 -118z " />
<glyph unicode="'" horiz-adv-x="342" d="M139 1178l-43 319q-6 39 27 39h98q14 0 22 -10.5t5 -28.5l-43 -319q-5 -31 -33 -31t-33 31z" />
<glyph unicode="(" horiz-adv-x="612" d="M326 150q0 -51 6 -88.5t23 -73t52 -55.5t87 -23q19 0 26.5 -7t7.5 -26v-55q0 -19 -7.5 -27t-26.5 -8q-299 10 -299 319v1213q0 309 299 319q20 0 27 -7t7 -27v-56q0 -18 -7.5 -25t-26.5 -7q-52 -3 -87 -23t-52 -55.5t-23 -73t-6 -88.5v-1126z" />
<glyph unicode=")" horiz-adv-x="612" d="M119 -213q-19 0 -27 8t-8 27v55q0 18 8 25.5t27 7.5q52 3 86.5 23t51 55.5t22.5 73t6 88.5v1126q0 51 -6 88.5t-22.5 73t-51 55.5t-86.5 23q-20 0 -27.5 6.5t-7.5 25.5v56q0 20 7.5 27t27.5 7q299 -10 299 -319v-1213q0 -309 -299 -319z" />
<glyph unicode="*" horiz-adv-x="565" d="M537 1511q14 -40 -27 -51l-127 -43l78 -108q25 -37 -6 -58l-23 -16q-35 -25 -57 10l-80 109l-80 -109q-13 -20 -25.5 -22t-31.5 12l-21 14q-20 13 -22 26.5t12 33.5l82 108l-129 43q-23 6 -29.5 17.5t2.5 33.5l8 25q6 22 17.5 28t34.5 -1l129 -43v135q0 24 9 33.5t32 9.5 h24q23 0 32 -9.5t9 -33.5v-135l129 41q40 14 51 -25z" />
<glyph unicode="+" horiz-adv-x="864" d="M721 813q19 0 27 -7.5t8 -25.5v-45q0 -33 -35 -33h-225v-245q0 -19 -7.5 -27t-25.5 -8h-62q-18 0 -25 8t-7 27v245h-226q-19 0 -26.5 8t-7.5 25v45q0 19 7.5 26t26.5 7h226v248q0 19 7 27t25 8h62q18 0 25.5 -8t7.5 -27v-248h225z" />
<glyph unicode="," horiz-adv-x="389" d="M94 90q0 39 26 65.5t68 26.5q46 0 74.5 -30.5t28.5 -90.5q0 -62 -32 -136t-87 -140q-20 -25 -31 -18l-24 18q-15 9 4 31q67 108 67 147q0 25 -24 33q-70 29 -70 94z" />
<glyph unicode="-" horiz-adv-x="716" d="M135 504q-26 0 -26 33v57q0 33 26 33h447q26 0 26 -33v-57q0 -33 -26 -33h-447z" />
<glyph unicode="." horiz-adv-x="376" d="M94 86q0 40 27 68t67 28t68.5 -28t28.5 -68q0 -39 -28.5 -66.5t-68.5 -27.5t-67 27t-27 67z" />
<glyph unicode="/" horiz-adv-x="481" d="M125 0q-20 0 -27 9t-4 32l164 1452q3 25 12 34t29 9h59q19 0 26 -9.5t5 -31.5l-166 -1452q-3 -23 -11.5 -33t-27.5 -10h-59z" />
<glyph unicode="0" horiz-adv-x="1210" d="M606 -16q-251 0 -379.5 197.5t-128.5 584.5q0 388 128.5 587t379.5 199q249 0 377.5 -199t128.5 -587q0 -386 -128.5 -584t-377.5 -198zM606 106q183 0 278 167.5t95 492.5q0 331 -95 501.5t-278 170.5q-185 0 -280 -170.5t-95 -501.5q0 -325 95 -492.5t280 -167.5z" />
<glyph unicode="1" horiz-adv-x="665" d="M391 0q-18 0 -25.5 8t-7.5 27v1319l-211 -211q-24 -27 -49 -2l-37 37q-25 24 2 51l289 291q18 16 39 16h64q20 0 27 -7.5t7 -27.5v-1466q0 -19 -7 -27t-25 -8h-66z" />
<glyph unicode="2" horiz-adv-x="991" d="M154 0q-20 0 -27.5 7.5t-7.5 27.5v225q0 90 33.5 175t86.5 152t117.5 131t129.5 123t118.5 116t87.5 121t35 128q2 95 -63.5 159.5t-169.5 64.5q-128 0 -236 -113q-27 -23 -47 0l-39 37q-20 23 2 51q125 147 324 147q162 0 262 -96t98 -246q-1 -81 -35 -158t-87.5 -140 t-118 -125.5t-128.5 -124t-117.5 -123.5t-86.5 -137.5t-33 -153.5v-125h586q19 0 26.5 -7t7.5 -26v-57q0 -19 -7.5 -26t-26.5 -7h-684z" />
<glyph unicode="3" horiz-adv-x="1005" d="M446 -16q-219 0 -360 153q-27 24 -2 53l39 35q23 23 49 -2q117 -112 268 -112q139 0 229.5 86.5t90.5 226.5q0 72 -24.5 133.5t-64.5 101t-89 63t-101 28.5q-20 2 -27.5 8t-7.5 24v62q0 18 7.5 24.5t27.5 8.5q105 9 177.5 96t72.5 196q0 113 -77.5 184.5t-198.5 71.5 q-137 0 -240 -100q-25 -22 -47 0l-39 37q-22 22 2 49q59 72 147.5 107.5t184.5 35.5q178 0 288.5 -105t110.5 -273q0 -122 -59 -217t-137 -144q40 -25 75.5 -59t71.5 -82.5t57 -115.5t21 -142q0 -193 -124 -312.5t-321 -119.5z" />
<glyph unicode="4" horiz-adv-x="1003" d="M715 0q-19 0 -27 8t-8 27v383h-619q-20 0 -27 7.5t-7 27.5v34q0 27 16 58l625 964q10 15 19 21t26 6h67q19 0 26 -7.5t7 -27.5v-960h90q19 0 27 -7.5t8 -25.5v-55q0 -19 -8 -27t-27 -8h-90v-383q0 -19 -8 -27t-27 -8h-63zM195 541h485v764z" />
<glyph unicode="5" horiz-adv-x="1046" d="M475 954q208 0 330.5 -127t122.5 -354q0 -228 -123.5 -358.5t-331.5 -130.5q-212 0 -346 149q-25 25 0 47l41 43q24 24 47 -2q47 -54 115.5 -84.5t142.5 -30.5q147 0 235.5 98t88.5 269q0 170 -96.5 264t-258.5 94h-229q-20 0 -27.5 7.5t-7.5 27.5v635q0 20 7.5 27.5 t27.5 7.5h602q20 0 27.5 -7t7.5 -26v-57q0 -19 -7.5 -26t-27.5 -7h-506v-459h166z" />
<glyph unicode="6" horiz-adv-x="1107" d="M567 -16q-97 0 -177 38t-143.5 118t-98.5 219t-35 327q0 258 58.5 451.5t175.5 304t280 110.5q190 0 325 -135q21 -21 0 -45l-39 -43q-19 -19 -45 0q-115 101 -243 101q-120 0 -208.5 -94t-131 -245t-41.5 -335q8 16 23.5 38.5t47.5 54t70.5 57t96 43.5t120.5 18 q183 0 299.5 -134.5t116.5 -349.5q0 -226 -125 -362.5t-326 -136.5zM573 106q136 0 225 102.5t89 272.5q0 161 -85.5 262t-217.5 101q-61 0 -118.5 -23.5t-99.5 -62t-72.5 -81t-47.5 -85.5q0 -226 88.5 -356t238.5 -130z" />
<glyph unicode="7" horiz-adv-x="866" d="M696 1413h-614q-19 0 -27 7.5t-8 25.5v57q0 18 8 25.5t27 7.5h723q20 0 27.5 -7.5t7.5 -27.5v-35q0 -31 -6 -47l-547 -1378q-9 -24 -18 -32.5t-25 -8.5h-68q-17 0 -23 7.5t1 33.5z" />
<glyph unicode="8" horiz-adv-x="1134" d="M567 -16q-210 0 -338.5 122t-128.5 314q0 135 68 244t182 155q-90 43 -144 139t-54 203q0 171 112.5 281t302.5 110t303 -110t113 -281q0 -107 -54.5 -203t-144.5 -139q114 -46 182 -155t68 -244q0 -192 -128.5 -314t-338.5 -122zM567 879q131 0 207 79t76 193 q0 120 -76 199.5t-207 79.5t-206.5 -79.5t-75.5 -199.5q0 -114 75.5 -193t206.5 -79zM567 106q152 0 243 91.5t91 232.5q0 142 -90.5 232t-243.5 90t-243.5 -90t-90.5 -232q0 -141 91 -232.5t243 -91.5z" />
<glyph unicode="9" horiz-adv-x="1107" d="M471 -16q-195 0 -330 135q-21 21 0 45l39 43q19 19 45 0q48 -42 118.5 -73.5t148.5 -27.5q116 6 202 99t127.5 242.5t40.5 332.5q-7 -16 -22.5 -38.5t-47 -54t-70 -57t-96.5 -43.5t-122 -18q-181 0 -297.5 134.5t-116.5 349.5q0 225 124 362t321 137q77 0 143.5 -23 t125.5 -75.5t101 -132t66 -200t24 -271.5q0 -260 -56 -452t-175.5 -303t-292.5 -111zM524 692q61 0 118 23.5t99 62t72.5 80.5t48.5 86q-1 225 -93 355.5t-241 130.5q-132 0 -219.5 -102.5t-87.5 -272.5q0 -162 85 -262.5t218 -100.5z" />
<glyph unicode=":" horiz-adv-x="374" d="M92 872q0 40 27.5 68.5t66.5 28.5q40 0 68.5 -28.5t28.5 -68.5q0 -39 -28.5 -66.5t-68.5 -27.5t-67 27t-27 67zM92 86q0 40 27 68t67 28t68.5 -28t28.5 -68q0 -39 -28.5 -66.5t-68.5 -27.5t-67 27t-27 67z" />
<glyph unicode=";" horiz-adv-x="389" d="M94 872q0 40 27.5 68.5t66.5 28.5q40 0 68.5 -28.5t28.5 -68.5q0 -39 -28.5 -66.5t-68.5 -27.5t-67 27t-27 67zM94 90q0 39 26 65.5t68 26.5q46 0 74.5 -30.5t28.5 -90.5q0 -62 -32 -136t-87 -140q-20 -25 -31 -18l-24 18q-15 9 4 31q67 108 67 147q0 25 -24 33 q-70 29 -70 94z" />
<glyph unicode="&#x3c;" horiz-adv-x="628" d="M119 735q-23 23 0 45l366 357q12 11 23.5 6t11.5 -19v-102q0 -21 -20 -43l-230 -221l230 -221q20 -22 20 -43v-103q0 -14 -11.5 -18.5t-23.5 6.5z" />
<glyph unicode="=" horiz-adv-x="864" d="M143 846q-19 0 -26.5 7t-7.5 26v45q0 17 7.5 24.5t26.5 7.5h578q35 0 35 -32v-45q0 -18 -8 -25.5t-27 -7.5h-578zM143 571q-19 0 -26.5 7.5t-7.5 25.5v45q0 19 7.5 26t26.5 7h578q19 0 27 -7.5t8 -25.5v-45q0 -33 -35 -33h-578z" />
<glyph unicode="&#x3e;" horiz-adv-x="628" d="M510 735l-367 -356q-12 -11 -23 -6.5t-11 18.5v103q0 21 20 43l229 221l-229 221q-20 22 -20 43v102q0 14 11 19t23 -6l367 -357q22 -22 0 -45z" />
<glyph unicode="?" horiz-adv-x="864" d="M373 360q-19 0 -26 7.5t-7 27.5q0 115 17 208.5t44 154t59.5 109.5t65.5 86t60 71.5t44.5 77t18.5 92.5q1 102 -66 164.5t-173 62.5q-128 0 -230 -102q-26 -23 -47 0l-39 37q-20 23 2 51q122 139 322 139q161 0 262 -90t100 -246q-1 -63 -19 -116.5t-46.5 -93.5 t-62.5 -80.5t-68 -88t-62 -104.5t-45.5 -142.5t-17.5 -189.5q0 -20 -7.5 -27.5t-27.5 -7.5h-51zM399 -8q-40 0 -67 27t-27 67t27 68t67 28t68.5 -28t28.5 -68q0 -39 -28.5 -66.5t-68.5 -27.5z" />
<glyph unicode="@" horiz-adv-x="2134" d="M1067 1444q210 0 387 -69t301 -192.5t193 -299.5t69 -385q0 -319 -119 -510t-317 -191q-120 0 -198 73t-78 198v36q-1 -1 -12 -11.5t-18.5 -17t-23.5 -19t-30 -21t-36 -19t-43.5 -17t-49 -11t-56.5 -4.5q-194 0 -303.5 131.5t-109.5 367.5t108 368t299 132q35 0 67 -5 t58 -15t46 -19.5t38.5 -24t28 -22t23 -21l14.5 -14.5v70q0 19 7 27t25 8h62q18 0 25.5 -8t7.5 -27v-858q0 -75 45.5 -114.5t109.5 -39.5q139 0 223 157.5t84 420.5q0 242 -103 428.5t-291.5 289.5t-432.5 103q-182 0 -336.5 -60t-262 -167t-168 -260t-60.5 -334 q0 -245 103.5 -435t292 -294.5t431.5 -104.5h2q35 0 35 -33v-55q0 -18 -8 -25.5t-27 -7.5h-2q-210 0 -387 69.5t-301 194t-193 302.5t-69 389q0 209 69 385t193 299.5t301 192.5t387 69zM1051 104q137 0 254 127v504l-4 4q-119 121 -259 121q-134 0 -212 -100t-78 -277 q0 -179 79 -279t220 -100z" />
<glyph unicode="A" horiz-adv-x="1202" d="M78 0q-32 0 -21 35l467 1466q9 35 45 35h66q36 0 45 -35l467 -1466q11 -35 -21 -35h-67q-18 0 -25 7.5t-12 27.5l-125 389h-590l-125 -389q-5 -20 -12 -27.5t-25 -7.5h-67zM348 547h508l-254 801z" />
<glyph unicode="B" horiz-adv-x="1222" d="M211 0q-35 0 -35 35v1466q0 35 35 35h407q219 0 331 -104.5t112 -288.5q0 -108 -41.5 -193.5t-122.5 -128.5q209 -95 209 -383q0 -214 -119 -326t-352 -112h-424zM309 877h348q74 0 129 23.5t86 63t45.5 84.5t14.5 95q0 53 -15.5 99.5t-47 85.5t-87.5 62t-131 23h-342 v-536zM309 123h334q334 0 334 315q0 68 -17 122.5t-54.5 99.5t-103 69.5t-155.5 24.5h-338v-631z" />
<glyph unicode="C" horiz-adv-x="1236" d="M737 -16q-290 0 -464.5 209t-174.5 575t174.5 575t464.5 209q261 0 426 -168q23 -22 0 -45l-39 -43q-19 -22 -45 0q-143 134 -342 134q-227 0 -366.5 -177.5t-139.5 -484.5t139.5 -484.5t366.5 -177.5q199 0 342 134q26 22 45 0l39 -43q23 -23 0 -45q-165 -168 -426 -168 z" />
<glyph unicode="D" horiz-adv-x="1378" d="M211 0q-35 0 -35 35v1466q0 35 35 35h414q106 0 199.5 -26t177 -85t144 -146.5t95.5 -218t35 -292.5t-35 -292.5t-95.5 -218t-144 -146.5t-177 -85t-199.5 -26h-414zM309 123h314q113 0 205 35t164.5 109t112.5 201.5t40 299.5t-40 299.5t-112.5 201.5t-164.5 109 t-205 35h-314v-1290z" />
<glyph unicode="E" horiz-adv-x="1130" d="M211 0q-35 0 -35 35v1466q0 35 35 35h750q32 0 32 -33v-57q0 -33 -32 -33h-652v-541h561q35 0 35 -34v-56q0 -32 -35 -32h-561v-627h664q35 0 35 -33v-57q0 -33 -35 -33h-762z" />
<glyph unicode="F" horiz-adv-x="1028" d="M211 0q-35 0 -35 35v1466q0 35 35 35h715q35 0 35 -33v-57q0 -33 -35 -33h-617v-555h514q35 0 35 -33v-57q0 -33 -35 -33h-514v-700q0 -35 -35 -35h-63z" />
<glyph unicode="G" horiz-adv-x="1361" d="M737 -16q-290 0 -464.5 209t-174.5 575t174.5 575t464.5 209q261 0 426 -168q23 -22 0 -45l-39 -43q-19 -22 -45 0q-143 134 -342 134q-227 0 -366.5 -177.5t-139.5 -484.5t139.5 -484.5t366.5 -177.5q156 0 264.5 82.5t108.5 186.5v303h-326q-34 0 -34 33v55q0 35 34 35 h424q35 0 35 -35v-408q0 -65 -35.5 -131t-98.5 -120.5t-161 -88.5t-211 -34z" />
<glyph unicode="H" horiz-adv-x="1419" d="M211 0q-35 0 -35 35v1466q0 35 35 35h63q35 0 35 -35v-643h801v643q0 35 35 35h63q35 0 35 -35v-1466q0 -35 -35 -35h-63q-35 0 -35 35v700h-801v-700q0 -35 -35 -35h-63z" />
<glyph unicode="I" horiz-adv-x="485" d="M211 0q-35 0 -35 35v1466q0 35 35 35h63q35 0 35 -35v-1466q0 -35 -35 -35h-63z" />
<glyph unicode="J" horiz-adv-x="931" d="M385 -16q-87 0 -169.5 32.5t-139.5 98.5q-23 26 0 49l41 41q21 21 47 -2q97 -97 217 -97q102 0 178 69t76 181v1145q0 35 33 35h65q33 0 33 -35v-1141q0 -157 -111.5 -266.5t-269.5 -109.5z" />
<glyph unicode="K" horiz-adv-x="1142" d="M211 0q-35 0 -35 35v1466q0 35 35 35h63q35 0 35 -35v-749l600 764q17 20 39 20h90q16 0 21 -10t-6 -23l-537 -690l571 -778q11 -15 6 -25t-20 -10h-88q-24 0 -43 23l-518 704l-115 -139v-553q0 -35 -35 -35h-63z" />
<glyph unicode="L" horiz-adv-x="964" d="M211 0q-35 0 -35 35v1466q0 35 35 35h63q35 0 35 -35v-1378h545q35 0 35 -33v-57q0 -33 -35 -33h-643z" />
<glyph unicode="M" horiz-adv-x="1648" d="M154 0q-36 0 -33 35l133 1466q3 35 35 35h57q27 0 33 -25l444 -1308l445 1308q8 25 35 25h57q32 0 35 -35l133 -1466q3 -35 -33 -35h-65q-30 0 -33 35l-107 1169l-403 -1177q-9 -27 -39 -27h-49q-30 0 -39 27l-402 1177l-106 -1169q-3 -35 -35 -35h-63z" />
<glyph unicode="N" horiz-adv-x="1413" d="M209 0q-33 0 -33 35v1466q0 35 35 35h43q19 0 35 -23l821 -1226v1214q0 35 33 35h61q33 0 33 -35v-1466q0 -35 -33 -35h-45q-19 0 -35 23l-819 1245v-1233q0 -35 -35 -35h-61z" />
<glyph unicode="O" d="M737 1552q290 0 464.5 -209t174.5 -575t-174.5 -575t-464.5 -209t-464.5 209t-174.5 575t174.5 575t464.5 209zM737 106q227 0 366.5 177.5t139.5 484.5t-139.5 484.5t-366.5 177.5t-366.5 -177.5t-139.5 -484.5t139.5 -484.5t366.5 -177.5z" />
<glyph unicode="P" horiz-adv-x="1167" d="M211 0q-35 0 -35 35v1466q0 33 35 33h385q158 0 269.5 -63.5t163.5 -167.5t52 -238t-52 -238t-163.5 -167.5t-269.5 -63.5h-287v-561q0 -35 -35 -35h-63zM309 719h275q185 0 276.5 94.5t91.5 251.5t-91.5 251.5t-276.5 94.5h-275v-692z" />
<glyph unicode="Q" d="M1040 53l230 -387q8 -17 2.5 -26t-19.5 -9h-84q-25 0 -47 37l-198 340q-86 -24 -187 -24q-301 0 -470 206.5t-169 575.5q0 370 169 578t470 208t470 -208t169 -578q0 -261 -87 -444.5t-249 -268.5zM231 768q1 -312 135.5 -487t370.5 -175q238 0 372 175t134 487t-134 487 t-372 175q-236 0 -370.5 -175t-135.5 -487z" />
<glyph unicode="R" horiz-adv-x="1222" d="M211 0q-35 0 -35 35v1466q0 35 35 35h426q238 0 359.5 -118t121.5 -322q0 -176 -86.5 -288.5t-257.5 -141.5l346 -631q10 -17 3.5 -26t-25.5 -9h-76q-30 0 -45 27l-346 626h-322v-618q0 -35 -35 -35h-63zM309 776h336q91 0 159.5 25.5t107.5 71t58 101.5t19 122 q0 143 -83 230t-261 87h-336v-637z" />
<glyph unicode="S" horiz-adv-x="1099" d="M543 -16q-77 0 -150 18.5t-129 48.5t-90 53t-63 48q-25 26 -2 49l38 45q19 22 48 2q172 -142 360 -142q145 0 231 78.5t86 192.5q0 59 -25 109.5t-67 88.5t-96 72.5t-114 66t-120.5 63.5t-114.5 70.5t-96 82.5t-67 103.5t-25 129.5q0 78 30 148t85 124t140.5 85.5 t189.5 31.5q61 0 120.5 -10.5t100 -26t72.5 -31t47 -26.5l16 -10q20 -14 8 -45l-26 -49q-5 -11 -16 -13t-25 5q-168 84 -297 84q-135 0 -223 -75.5t-88 -183.5q0 -54 24.5 -101t66.5 -83t96.5 -69.5t114 -65t119.5 -65t114.5 -74.5t96.5 -87.5t66.5 -110t24.5 -136.5 q0 -170 -125.5 -282.5t-335.5 -112.5z" />
<glyph unicode="T" horiz-adv-x="1130" d="M532 0q-32 0 -32 35v1384h-443q-32 0 -32 33v51q0 33 32 33h1016q15 0 24 -9t9 -24v-51q0 -33 -33 -33h-442v-1384q0 -35 -33 -35h-66z" />
<glyph unicode="U" horiz-adv-x="1390" d="M694 -16q-252 0 -395 149.5t-143 441.5v926q0 35 34 35h64q35 0 35 -35v-938q0 -120 30 -209.5t85.5 -143.5t127.5 -80t162 -26q188 0 298 112t110 347v938q0 35 35 35h63q35 0 35 -35v-926q0 -292 -144 -441.5t-397 -149.5z" />
<glyph unicode="V" horiz-adv-x="1206" d="M569 0q-19 0 -27.5 6t-15.5 29l-493 1466q-6 20 0 27.5t24 7.5h68q23 0 31.5 -5.5t15.5 -29.5l432 -1311l430 1311q9 24 16.5 29.5t30.5 5.5h70q36 0 23 -35l-492 -1466q-8 -23 -17 -29t-28 -6h-68z" />
<glyph unicode="W" horiz-adv-x="1812" d="M53 1501q-12 35 23 35h78q18 0 26 -7.5t13 -27.5l315 -1274l321 1274q9 35 45 35h64q36 0 45 -35l322 -1274l315 1274q3 19 11.5 27t27.5 8h78q31 0 22 -35l-377 -1466q-9 -35 -45 -35h-61q-33 0 -45 35l-326 1274l-325 -1274q-9 -35 -43 -35h-62q-36 0 -45 35z" />
<glyph unicode="X" horiz-adv-x="1052" d="M53 0q-36 0 -16 35l414 747l-392 719q-20 35 17 35h80q28 0 41 -27l329 -620l330 620q14 27 41 27h80q36 0 16 -35l-391 -719l414 -747q20 -35 -17 -35h-77q-32 0 -45 27l-351 649l-350 -649q-16 -27 -45 -27h-78z" />
<glyph unicode="Y" horiz-adv-x="1075" d="M905 1509q13 27 45 27h70q36 0 18 -35l-434 -796v-670q0 -35 -35 -35h-63q-35 0 -35 35v670l-434 796q-10 17 -6.5 26t22.5 9h72q30 0 45 -27l367 -696z" />
<glyph unicode="Z" horiz-adv-x="1050" d="M115 0q-35 0 -35 35v65q0 24 10 41l741 1272h-718q-15 0 -24 9t-9 24v57q0 15 9 24t24 9h829q35 0 35 -35v-65q0 -21 -10 -41l-742 -1272h705q35 0 35 -33v-57q0 -33 -35 -33h-815z" />
<glyph unicode="[" horiz-adv-x="704" d="M229 -430q-20 0 -27 7.5t-7 27.5v2017q0 20 7 27.5t27 7.5h357q19 0 27 -8t8 -27v-55q0 -18 -8 -25.5t-27 -7.5h-260v-1841h260q19 0 27 -7.5t8 -25.5v-55q0 -19 -8 -27t-27 -8h-357z" />
<glyph unicode="\" horiz-adv-x="481" d="M299 0q-20 0 -29 9.5t-12 33.5l-164 1448q-6 45 31 45h57q20 0 28 -9t11 -34l166 -1452q2 -24 -4.5 -32.5t-26.5 -8.5h-57z" />
<glyph unicode="]" horiz-adv-x="704" d="M119 -430q-19 0 -27 8t-8 27v55q0 18 8 25.5t27 7.5h260v1841h-260q-19 0 -27 7.5t-8 25.5v55q0 19 8 27t27 8h356q20 0 27.5 -7.5t7.5 -27.5v-2017q0 -20 -7.5 -27.5t-27.5 -7.5h-356z" />
<glyph unicode="^" horiz-adv-x="800" d="M399 1438l-225 -252q-26 -32 -51 -4l-31 28q-14 14 -14.5 25t16.5 29l283 278q22 25 47 0l281 -278q32 -27 4 -52l-29 -30q-26 -26 -53 4z" />
<glyph unicode="_" horiz-adv-x="1124" d="M111 -39q-6 28 20 33h557q30 6 35 -21l291 -55q6 -28 -21 -33l-557 -2q-30 -3 -35 23z" />
<glyph unicode="`" horiz-adv-x="350" d="M289 1563l-246 192q-29 23 -6 53l31 39q12 14 21.5 15t31.5 -15l231 -209q24 -22 2 -47l-18 -20q-13 -13 -20 -15.5t-27 7.5z" />
<glyph unicode="a" horiz-adv-x="976" d="M479 983q174 0 266.5 -104t92.5 -277v-567q0 -19 -7.5 -27t-25.5 -8h-62q-19 0 -26.5 8t-7.5 27v65q-28 -32 -111 -74t-186 -42q-139 0 -231.5 83.5t-92.5 221.5t94.5 223.5t253.5 85.5q96 0 174.5 -29.5t98.5 -54.5v88q0 118 -62.5 188t-181.5 70q-110 0 -240 -53 q-13 -5 -24.5 -0.5t-14.5 16.5l-18 60q-9 24 14 35q150 65 297 65zM440 90q59 0 121.5 28t94.5 53.5t53 47.5v191q-24 26 -99 52.5t-155 26.5q-111 0 -175.5 -53.5t-64.5 -142.5q0 -91 65 -147t160 -56z" />
<glyph unicode="b" horiz-adv-x="1056" d="M293 862l14 14t22.5 21t28.5 22.5t38.5 24t45 19.5t57.5 15t66 5q192 0 300 -132t108 -368t-109 -367.5t-303 -131.5q-29 0 -56.5 4.5t-49 11t-43 17t-36 19t-30 20.5t-23 19t-18.5 17.5t-12 11.5v-69q0 -19 -8 -27t-27 -8h-61q-18 0 -25.5 8t-7.5 27v1466q0 19 7.5 27 t25.5 8h61q19 0 27 -8t8 -27v-639zM293 231q12 -14 30 -31t50.5 -41t78 -39.5t93.5 -15.5q141 0 221 100.5t80 278.5t-80.5 277.5t-220.5 99.5q-136 0 -252 -125v-504z" />
<glyph unicode="c" horiz-adv-x="903" d="M522 -16q-201 0 -319.5 133t-118.5 366t118.5 366.5t319.5 133.5q180 0 309 -109q18 -15 5 -38l-27 -50q-17 -28 -47 -6q-59 38 -114.5 60t-123.5 22q-142 0 -226.5 -101t-84.5 -278t84.5 -278t226.5 -101q68 0 123.5 22t114.5 60q30 22 47 -6l27 -49q13 -24 -5 -39 q-127 -108 -309 -108z" />
<glyph unicode="d" horiz-adv-x="1044" d="M766 862v639q0 19 7.5 27t25.5 8h61q18 0 25.5 -8t7.5 -27v-1466q0 -19 -7.5 -27t-25.5 -8h-61q-18 0 -25.5 8t-7.5 27v69q-1 -1 -12 -11.5t-18.5 -17.5t-23 -19t-30 -20.5t-36 -19t-43 -17t-49 -11t-56.5 -4.5q-194 0 -304 131.5t-110 367.5t108.5 368t299.5 132 q35 0 67 -5t57.5 -15t45.5 -19.5t38.5 -24t28.5 -22.5t23 -21zM766 231v504l-5 5q-118 120 -247 120q-141 0 -221 -99.5t-80 -277.5q0 -179 79 -279t220 -100q137 0 254 127z" />
<glyph unicode="e" horiz-adv-x="1005" d="M539 -16q-209 0 -332 131.5t-123 365.5q0 233 119.5 367.5t310.5 134.5q194 0 301 -133.5t107 -364.5q0 -33 -6 -42t-29 -9h-670q0 -141 87.5 -235.5t227.5 -94.5q126 0 254 89q33 23 48 -9l28 -53q15 -25 -4 -39q-128 -108 -319 -108zM217 547l571 2q0 141 -76.5 226 t-197.5 85q-128 0 -212.5 -89.5t-84.5 -223.5z" />
<glyph unicode="f" horiz-adv-x="634" d="M201 844h-113q-18 0 -25.5 7.5t-7.5 25.5v57q0 18 7.5 25.5t25.5 7.5h113v270q0 146 76 229.5t194 85.5q134 3 217 -92q20 -21 22 -33t-14 -28l-30 -33q-26 -23 -48 4q-59 62 -135 62q-65 0 -109 -50.5t-44 -144.5v-270h209q19 0 26.5 -7.5t7.5 -25.5v-57q0 -17 -7.5 -25 t-26.5 -8h-209v-809q0 -19 -8 -27t-27 -8h-62q-18 0 -25 8t-7 27v809z" />
<glyph unicode="g" horiz-adv-x="1058" d="M84 174q-1 82 39 141t92 95q-55 90 -55 196q0 157 109 267t266 110q158 0 264 -129v78q0 19 7 27t25 8h46q18 0 25 -8t7 -27l4 -326q0 -157 -110.5 -267t-267.5 -110q-141 0 -244 93q-35 -20 -57.5 -56.5t-22.5 -81.5q0 -66 46 -107.5t118 -41.5h325q132 0 209.5 -62 t77.5 -174q0 -140 -122 -225.5t-326 -85.5q-121 0 -220.5 32t-163 100.5t-63.5 162.5q0 39 11 73.5t26 56t30.5 37.5t26.5 23l11 7q-110 72 -113 194zM287 606q0 -107 71.5 -180.5t178.5 -73.5q105 0 176 74t71 180t-71 180t-176 74q-107 0 -178.5 -73.5t-71.5 -180.5z M219 -213q0 -90 91 -133t229 -43q64 0 120 10t102 30t72.5 55t26.5 81q0 58 -39.5 91.5t-115.5 33.5h-334q-75 0 -113.5 -32.5t-38.5 -92.5z" />
<glyph unicode="h" horiz-adv-x="1073" d="M197 0q-18 0 -25.5 8t-7.5 27v1466q0 19 7.5 27t25.5 8h61q19 0 27 -8t8 -27v-631q60 52 115 77q82 36 178 36q148 0 249 -92t101 -244v-612q0 -19 -8 -27t-27 -8h-61q-18 0 -25.5 8t-7.5 27v575q0 123 -72 189.5t-180 66.5q-42 0 -82.5 -11t-65 -21.5t-55 -32.5 t-35.5 -27t-24 -22v-717q0 -19 -8 -27t-27 -8h-61z" />
<glyph unicode="i" horiz-adv-x="477" d="M221 1182q-35 6 -55 36t-14 66q6 35 36.5 56.5t65.5 15.5q35 -8 56.5 -39t15.5 -66q-7 -35 -38 -55t-67 -14zM205 0q-18 0 -25.5 8t-7.5 27v897q0 19 7.5 27t25.5 8h61q19 0 27 -8t8 -27v-897q0 -19 -8 -27t-27 -8h-61z" />
<glyph unicode="j" horiz-adv-x="509" d="M270 1165q-43 0 -72.5 30t-29.5 73t29.5 73.5t72.5 30.5t74 -30.5t31 -73.5t-31 -73t-74 -30zM57 -512q-66 0 -121 26t-90 66q-19 21 -21 33.5t13 30.5l33 30q22 26 47 -2q52 -61 131 -61q63 0 110.5 45t47.5 121v1155q0 19 7.5 27t25.5 8h61q18 0 25.5 -8t7.5 -27v-1155 q0 -126 -83.5 -207.5t-193.5 -81.5z" />
<glyph unicode="k" horiz-adv-x="919" d="M197 0q-18 0 -25.5 8t-7.5 27v1466q0 19 7.5 27t25.5 8h61q19 0 27 -8t8 -27v-989l401 428q25 27 54 27h77q14 0 19 -11.5t-6 -25.5l-336 -357l370 -538q10 -15 4.5 -25t-22.5 -10h-82q-10 0 -15 1t-12.5 7t-15.5 19l-311 456l-125 -135v-313q0 -19 -8 -27t-27 -8h-61z " />
<glyph unicode="l" horiz-adv-x="595" d="M473 0q-154 0 -240 85t-86 237v1179q0 19 7.5 27t25.5 8h62q19 0 26.5 -8t7.5 -27v-1177q0 -95 55.5 -148t153.5 -53h9q19 0 26.5 -8t7.5 -27v-55q0 -19 -7.5 -26t-26.5 -7h-21z" />
<glyph unicode="m" horiz-adv-x="1630" d="M1159 983q154 0 243 -89t89 -245v-614q0 -19 -7.5 -27t-25.5 -8h-61q-18 0 -25.5 8t-7.5 27v577q0 125 -65.5 189.5t-174.5 64.5q-55 0 -109.5 -20t-83 -39.5t-50.5 -40.5q16 -56 16 -121v-610q0 -19 -7.5 -27t-25.5 -8h-61q-18 0 -25.5 8t-7.5 27v577q0 124 -66 189 t-172 65q-47 0 -90 -12.5t-78.5 -37t-47.5 -33.5t-33 -29v-719q0 -19 -8 -27t-27 -8h-62q-18 0 -25 8t-7 27v897q0 20 6.5 27.5t25.5 7.5h58q18 0 25 -8t7 -27v-66q135 117 297 117q176 0 263 -123q137 123 323 123z" />
<glyph unicode="n" horiz-adv-x="1062" d="M186 0q-18 0 -25 8t-7 27v897q0 19 7 27t25 8h56q18 0 25 -8t7 -27v-66q63 50 110 73q90 44 189 44q151 0 252 -91.5t101 -244.5v-612q0 -19 -8 -27t-27 -8h-62q-18 0 -25 8t-7 27v575q0 123 -71.5 189.5t-178.5 66.5q-140 0 -264 -114v-717q0 -19 -8 -27t-27 -8h-62z " />
<glyph unicode="o" horiz-adv-x="1040" d="M520 -16q-203 0 -319.5 132t-116.5 367t116.5 367.5t319.5 132.5q204 0 321 -132.5t117 -367.5t-117 -367t-321 -132zM520 104q143 0 226 100.5t83 278.5q0 177 -83 277t-226 100t-225 -99.5t-82 -277.5t82 -278.5t225 -100.5z" />
<glyph unicode="p" horiz-adv-x="1046" d="M283 862l14 14t22.5 21t28.5 22.5t38.5 24t45 19.5t57.5 15t66 5q192 0 300 -132t108 -368t-109 -367.5t-303 -131.5q-29 0 -56.5 4.5t-49 11t-43 17t-36 19t-30 20.5t-23 19t-18.5 17.5t-12 11.5v-581q0 -19 -8 -27t-27 -8h-62q-18 0 -25 8t-7 27v1407q0 19 7 27t25 8 h62q19 0 27 -8t8 -27v-68zM283 231q11 -14 29.5 -31t50.5 -40.5t78 -38.5t94 -15q141 0 221 99.5t80 277.5t-80.5 277.5t-220.5 99.5q-136 0 -252 -125v-504z" />
<glyph unicode="q" horiz-adv-x="1021" d="M766 862v68q0 19 7.5 27t25.5 8h61q18 0 25.5 -8t7.5 -27v-1407q0 -19 -7.5 -27t-25.5 -8h-61q-18 0 -25.5 8t-7.5 27v581q-1 -1 -12 -11.5t-18.5 -17.5t-23 -19t-30 -20.5t-36 -19t-43 -17t-49 -11t-56.5 -4.5q-194 0 -304 131.5t-110 367.5t108.5 368t299.5 132 q35 0 67 -5t57.5 -15t45.5 -19.5t38.5 -24t28.5 -22.5t23 -21zM766 231v504l-5 5q-118 120 -247 120q-141 0 -221 -99.5t-80 -277.5t79 -277.5t220 -99.5q139 0 254 125z" />
<glyph unicode="r" horiz-adv-x="761" d="M283 932v-55q3 4 9 11.5t27 25.5t44 32t59 25.5t74 11.5q94 0 192 -76q37 -32 19 -55l-35 -47q-8 -10 -20 -12t-25 8q-71 59 -152 59q-34 0 -66.5 -10.5t-54.5 -26t-38.5 -31t-24.5 -26.5l-8 -10v-721q0 -19 -8 -27t-27 -8h-62q-18 0 -25 8t-7 27v897q0 19 7 27t25 8h62 q19 0 27 -8t8 -27z" />
<glyph unicode="s" horiz-adv-x="874" d="M438 -16q-169 0 -336 96q-28 18 -12 49l23 47q14 31 53 14q153 -86 285 -86q95 0 157 42t62 112q0 47 -39.5 85t-77 54.5t-124.5 47.5q-14 5 -21 8q-34 13 -47.5 18t-43.5 17.5t-43 20t-37 21.5t-34.5 26t-26 30t-22.5 37t-12 43t-5 51q0 124 92 195t236 71 q129 0 272 -78q30 -15 13 -49l-23 -45q-14 -29 -53 -6q-103 55 -223 55q-82 0 -133.5 -36t-51.5 -105q0 -33 13 -57.5t39.5 -42t59 -31.5t77.5 -30q17 -6 26 -9q11 -4 32 -12q40 -15 60.5 -23t56 -24t55 -29.5t44.5 -35t38 -43.5t22.5 -52.5t9.5 -65.5q0 -126 -99.5 -203 t-261.5 -77z" />
<glyph unicode="t" horiz-adv-x="743" d="M475 -8q-114 0 -194 82.5t-80 206.5v563h-113q-18 0 -25.5 7.5t-7.5 25.5v57q0 18 7.5 25.5t25.5 7.5h113v288q0 20 6.5 27.5t25.5 7.5h62q19 0 27 -7.5t8 -27.5v-288h209q19 0 26.5 -7.5t7.5 -25.5v-57q0 -17 -7.5 -25t-26.5 -8h-209v-563q0 -73 46 -120.5t111 -47.5 q74 0 131 63q10 13 23.5 13t24.5 -11l32 -33q14 -16 11.5 -28t-21.5 -33q-83 -95 -213 -92z" />
<glyph unicode="u" horiz-adv-x="1042" d="M860 967q19 0 27 -8t8 -27v-897q0 -19 -8 -27t-27 -8h-53q-19 0 -27 8t-8 27v65q-133 -116 -289 -116q-148 0 -244 91t-96 244v613q0 19 7.5 27t25.5 8h62q19 0 26.5 -8t7.5 -27v-576q0 -120 67 -188t173 -68q56 0 116 26.5t87.5 47t50.5 41.5v717q0 19 7.5 27t25.5 8h61 z" />
<glyph unicode="v" horiz-adv-x="937" d="M442 0q-20 0 -27 6.5t-16 30.5l-329 897q-14 33 26 33h62q18 0 25 -4.5t14 -24.5l272 -758l274 758q7 20 14 24.5t25 4.5h60q39 0 28 -33l-329 -897q-9 -24 -16.5 -30.5t-26.5 -6.5h-56z" />
<glyph unicode="w" horiz-adv-x="1468" d="M389 0q-19 0 -27.5 7t-15.5 30l-268 897q-4 14 0.5 22t11 9.5t16.5 1.5h62q17 0 25 -5t12 -24l211 -725l260 717q9 24 15.5 30.5t23.5 6.5h39q17 0 23.5 -6.5t15.5 -30.5l260 -717l211 725q6 19 13 24t23 5h62q40 0 29 -33l-269 -897q-6 -23 -14 -30t-27 -7h-49 q-18 0 -25 6.5t-16 30.5l-256 706l-258 -706q-8 -23 -15 -30t-26 -7h-47z" />
<glyph unicode="x" horiz-adv-x="952" d="M84 0q-17 0 -21 11t7 26l327 459l-307 434q-11 14 -6 25.5t22 11.5h80q17 0 26.5 -7t23.5 -28l241 -344l242 344q14 21 23 28t26 7h80q17 0 22 -11.5t-6 -25.5l-307 -434l328 -459q11 -15 6.5 -26t-21.5 -11h-79q-18 0 -28 7t-24 28l-262 366l-262 -366 q-14 -21 -23.5 -28t-27.5 -7h-80z" />
<glyph unicode="y" horiz-adv-x="952" d="M180 -512q-53 0 -106 20q-23 9 -28.5 18.5t1.5 24.5l19 52q9 28 38 16q47 -14 74 -14q96 0 144 127l98 274l-336 928q-7 19 -1 26t28 7h61q18 0 25 -4.5t14 -24.5l272 -756l275 756q7 20 14 24.5t25 4.5h59q40 0 29 -33l-455 -1260q-33 -89 -101 -137.5t-149 -48.5z" />
<glyph unicode="z" horiz-adv-x="950" d="M248 121h567q19 0 27 -7.5t8 -25.5v-55q0 -18 -8 -25.5t-27 -7.5h-688q-19 0 -27 8t-8 27v59q0 31 14 47l580 703h-539q-19 0 -26.5 8t-7.5 25v57q0 19 7.5 26t26.5 7h668q20 0 27.5 -8t7.5 -27v-55q0 -30 -19 -54z" />
<glyph unicode="{" horiz-adv-x="659" d="M541 -430q-137 5 -218 80.5t-81 226.5v629q-1 35 -3.5 60.5t-10 51t-20.5 41t-35 25.5t-52 10q-23 0 -32 7t-9 26v57q0 19 9 26t32 7q39 0 64 14t36.5 43.5t15.5 58t5 73.5v426q0 151 81 226.5t218 80.5q19 0 26.5 -8t7.5 -27v-55q0 -19 -7.5 -26t-26.5 -7 q-52 -3 -87 -23t-52 -55.5t-23 -73t-6 -88.5v-409q0 -80 -21 -126.5t-63 -84.5q84 -77 84 -221v-603q0 -51 6 -88.5t23 -72.5t52 -55t87 -23q19 0 26.5 -7t7.5 -26v-55q0 -19 -7.5 -27t-26.5 -8z" />
<glyph unicode="|" horiz-adv-x="485" d="M205 -512q-18 0 -25.5 8t-7.5 27v1978q0 19 7.5 27t25.5 8h61q19 0 27 -8t8 -27v-1978q0 -19 -8 -27t-27 -8h-61z" />
<glyph unicode="}" horiz-adv-x="659" d="M119 -430q-19 0 -27 8t-8 27v55q0 18 8 25.5t27 7.5q52 3 86.5 23t51 55.5t22.5 72.5t6 88v603q0 145 86 221q-43 38 -64.5 84.5t-21.5 126.5v409q0 51 -6 88.5t-22.5 73t-51 55.5t-86.5 23q-19 0 -27 7.5t-8 25.5v55q0 19 8 27t27 8q137 -5 218 -80.5t81 -226.5v-426 q1 -45 5 -73.5t15.5 -58t36.5 -43.5t64 -14q23 0 31 -7t8 -26v-57q0 -19 -8 -26t-31 -7q-71 0 -95 -47.5t-26 -140.5v-629q0 -151 -81 -226.5t-218 -80.5z" />
<glyph unicode="~" horiz-adv-x="958" d="M639 676q-62 0 -117 22.5t-102 45t-90 22.5q-34 0 -68 -20t-57 -54q-11 -19 -31 -8l-53 33q-19 12 -8 31q38 64 94 93t112 29q60 0 113 -22.5t101 -45t94 -22.5q34 0 69 20t58 54q13 15 30 8l54 -35q19 -9 8 -28q-38 -65 -95 -94t-112 -29z" />
<glyph unicode="&#xa1;" horiz-adv-x="462" d="M154 954q7 32 34.5 50t59.5 12q34 -7 51.5 -34.5t11.5 -61.5q-8 -33 -36 -51t-60 -11q-33 7 -51 35t-10 61zM213 676h37q18 0 25.5 -9.5t7.5 -31.5l16 -1106q0 -24 -7 -32.5t-28 -8.5h-65q-21 0 -28 8.5t-7 32.5l16 1106q0 23 7 32t26 9z" />
<glyph unicode="&#xa2;" horiz-adv-x="903" d="M809 180l27 -49q13 -24 -5 -39q-106 -92 -258 -106v-76q0 -20 -6.5 -27.5t-25.5 -7.5h-62q-19 0 -27 7.5t-8 27.5v80q-168 25 -264 154t-96 339t96 339.5t264 154.5v80q0 19 8 27t27 8h62q18 0 25 -8t7 -27v-76q150 -14 258 -107q18 -15 5 -38l-27 -50q-17 -28 -47 -6 q-59 38 -114.5 60t-123.5 22q-142 0 -226.5 -101t-84.5 -278t84.5 -278t226.5 -101q68 0 123.5 22t114.5 60q30 22 47 -6z" />
<glyph unicode="&#xa3;" horiz-adv-x="985" d="M877 123q34 0 34 -33v-57q0 -33 -34 -33h-646q-32 0 -32 35v674h-111q-18 0 -25.5 7.5t-7.5 24.5v45q0 19 7 26t26 7h111v445q0 121 85.5 204.5t194.5 83.5q66 0 121 -26t90 -66q19 -21 21 -33.5t-13 -27.5l-32 -33q-25 -25 -48 4q-56 62 -131 62q-63 0 -110 -45 t-47 -123v-445h291q19 0 26.5 -7t7.5 -26v-45q0 -17 -7.5 -24.5t-26.5 -7.5h-291v-586h547z" />
<glyph unicode="&#xa5;" horiz-adv-x="1075" d="M1038 1501l-434 -796v-95h172q19 0 26 -6.5t7 -25.5v-46q0 -18 -7.5 -25t-25.5 -7h-172v-144h172q18 0 25.5 -7t7.5 -25v-45q0 -19 -7 -26t-26 -7h-172v-211q0 -35 -35 -35h-63q-35 0 -35 35v211h-170q-19 0 -27 7.5t-8 25.5v45q0 32 35 32h170v144h-170q-35 0 -35 32v46 q0 18 8 25t27 7h170v95l-434 796q-10 17 -6.5 26t22.5 9h72q30 0 45 -27l367 -696l368 696q13 27 45 27h70q36 0 18 -35z" />
<glyph unicode="&#xa7;" horiz-adv-x="866" d="M643 481q71 -38 110.5 -89t39.5 -130q0 -124 -99.5 -201t-259.5 -77q-171 0 -338 96q-28 18 -12 49l22 47q14 32 54 14q153 -86 286 -86q93 0 155.5 42t62.5 112q0 21 -7.5 40t-17 32.5t-31.5 29t-36 24t-47 22.5t-48 19.5t-54 19.5q-15 5 -22 8q-42 16 -60.5 23 t-54.5 23t-52.5 28.5t-40.5 33.5t-34.5 43t-19 52.5t-8.5 66.5q0 80 41.5 138.5t114.5 88.5q-75 34 -115.5 86t-40.5 138q0 121 91 190.5t231 69.5q141 0 278 -78q29 -14 12 -49l-22 -45q-14 -30 -53 -7q-97 56 -224 56q-82 0 -133 -36t-51 -104q0 -27 9.5 -49t24 -36.5 t41 -29t51.5 -24.5t64 -24q16 -6 25 -9q131 -50 164 -67q127 -64 149 -167q5 -25 5 -52q0 -77 -40 -137.5t-110 -94.5zM260 721q0 -27 9.5 -49t24 -36.5t41 -29t51.5 -24.5t64 -24q16 -6 25 -9q4 -1 11.5 -4t11.5 -4q73 12 119.5 58.5t46.5 109.5q0 28 -13.5 52.5t-31.5 41 t-53 34.5t-60.5 28t-71.5 26q-80 -7 -127 -54.5t-47 -115.5z" />
<glyph unicode="&#xa8;" horiz-adv-x="591" d="M123 1544q-38 0 -66 28t-28 66q0 40 28 68.5t66 28.5q40 0 68 -28.5t28 -68.5q0 -38 -28 -66t-68 -28zM467 1544q-38 0 -66 28t-28 66q0 40 28 68.5t66 28.5q40 0 68 -28.5t28 -68.5q0 -38 -28 -66t-68 -28z" />
<glyph unicode="&#xa9;" horiz-adv-x="1732" d="M868 -10q-168 0 -311.5 58t-244.5 160.5t-158.5 247.5t-57.5 314q0 171 57.5 316.5t158.5 248t244.5 160t311.5 57.5q164 0 304 -57.5t239 -160t155 -248t56 -316.5q0 -226 -96 -404t-268 -277t-390 -99zM868 86q189 0 338.5 87t232.5 243t83 354t-83 354t-232.5 243 t-338.5 87q-195 0 -348.5 -87t-239 -243t-85.5 -354t85.5 -354t239 -243t348.5 -87zM868 297q-188 0 -293.5 124t-105.5 345t106 345t295 124q190 0 308 -131q22 -25 0 -47q-12 -10 -35 -33q-20 -23 -45 2q-96 96 -228 96q-133 0 -208.5 -94.5t-75.5 -261.5 q0 -168 75.5 -263t208.5 -95q130 0 228 98q25 25 45 2q23 -23 35 -33q22 -22 0 -47q-115 -131 -310 -131z" />
<glyph unicode="&#xab;" horiz-adv-x="972" d="M115 489q-23 23 0 46l366 356q12 11 23.5 6.5t11.5 -18.5v-103q0 -21 -20 -43l-230 -221l230 -221q20 -22 20 -43v-103q0 -14 -11.5 -18.5t-23.5 6.5zM475 489q-23 23 0 46l367 356q12 11 23.5 6.5t11.5 -18.5v-103q0 -20 -21 -43l-229 -221l229 -221q21 -23 21 -43v-103 q0 -14 -11.5 -18.5t-23.5 6.5z" />
<glyph unicode="&#xad;" horiz-adv-x="716" d="M135 504q-26 0 -26 33v57q0 33 26 33h447q26 0 26 -33v-57q0 -33 -26 -33h-447z" />
<glyph unicode="&#xae;" horiz-adv-x="1732" d="M868 -10q-162 0 -305.5 60t-246 163.5t-161.5 248.5t-59 308q0 220 100.5 399t277.5 281t394 102q212 0 385 -102t271 -281t98 -399q0 -163 -58 -308t-157.5 -248.5t-239.5 -163.5t-299 -60zM868 86q185 0 335 90t234.5 246.5t84.5 347.5q0 192 -84.5 348.5t-234.5 246 t-335 89.5q-190 0 -344 -89.5t-241.5 -246t-87.5 -348.5q0 -191 87.5 -347.5t242 -246.5t343.5 -90zM594 297q-29 0 -29 29v880q0 29 29 29h315q146 0 229 -75t83 -204q0 -108 -60 -177t-157 -89l194 -364q7 -14 2 -21.5t-20 -7.5h-64q-28 0 -39 25l-194 360h-205v-356 q0 -13 -8.5 -21t-22.5 -8h-53zM678 786h240q88 0 141 42.5t53 127.5q0 84 -50.5 130.5t-143.5 46.5h-240v-347z" />
<glyph unicode="&#xaf;" horiz-adv-x="530" d="M25 1622q0 19 7.5 26t26.5 7h412q20 0 27.5 -7t7.5 -26v-35q0 -19 -7.5 -26t-27.5 -7h-412q-19 0 -26.5 7t-7.5 26v35z" />
<glyph unicode="&#xb0;" horiz-adv-x="600" d="M299 1053q-73 0 -124.5 51.5t-51.5 124.5t51.5 124.5t124.5 51.5t124.5 -51.5t51.5 -124.5t-51.5 -124.5t-124.5 -51.5zM299 1143q35 0 60.5 25.5t25.5 60.5t-25.5 60.5t-60.5 25.5t-60.5 -25.5t-25.5 -60.5t25.5 -60.5t60.5 -25.5z" />
<glyph unicode="&#xb4;" horiz-adv-x="348" d="M74 1563q-22 -17 -47 8l-17 20q-22 25 2 47l230 209q21 16 31.5 15.5t21.5 -15.5l33 -39q23 -29 -9 -53z" />
<glyph unicode="&#xb6;" horiz-adv-x="1640" d="M1249 -598q-18 0 -25 8t-7 27v1978h-388v-1978q0 -19 -7 -27t-25 -8h-66q-18 0 -25.5 8t-7.5 27v1239h-190q-175 0 -300.5 125t-125.5 305q0 176 115.5 303t281.5 127h1045q35 0 35 -33v-55q0 -18 -8 -25.5t-27 -7.5h-176v-1978q0 -19 -7.5 -27t-25.5 -8h-66z" />
<glyph unicode="&#xb7;" horiz-adv-x="376" d="M86 754q0 41 29.5 70.5t70.5 29.5q42 0 71.5 -29t29.5 -71t-29.5 -71.5t-71.5 -29.5q-41 0 -70.5 30t-29.5 71z" />
<glyph unicode="&#xb8;" horiz-adv-x="479" d="M225 -520q-54 0 -108 28q-16 8 -6 29l18 55q9 19 29 9q30 -15 61 -15q55 0 90 33.5t35 89.5q0 53 -33.5 86t-83.5 33q-63 0 -102 -53q-5 -7 -7 -8.5t-8 -3.5t-12 1l-53 15q-14 4 -17 9t-1 17l77 250l107 -6l-45 -162q31 25 94 25q86 0 140.5 -56t54.5 -147 q0 -106 -63 -167.5t-167 -61.5z" />
<glyph unicode="&#xbb;" horiz-adv-x="972" d="M500 489l-367 -356q-12 -11 -23.5 -6.5t-11.5 18.5v103q0 20 21 43l229 221l-229 221q-21 23 -21 43v103q0 14 11.5 18.5t23.5 -6.5l367 -356q23 -23 0 -46zM860 489l-366 -356q-12 -11 -23.5 -6.5t-11.5 18.5v103q0 21 20 43l230 221l-230 221q-20 22 -20 43v103 q0 14 11.5 18.5t23.5 -6.5l366 -356q23 -23 0 -46z" />
<glyph unicode="&#xbc;" horiz-adv-x="1003" d="M150 987q-17 0 -17 19v393l-51 -51q-13 -10 -23 0l-43 43q-15 9 0 24l115 111q7 10 21 10h86q18 0 18 -18v-512q0 -19 -18 -19h-88zM72 0q-21 0 -26 9t5 32l699 1452q11 25 21 34t30 9h59q39 0 19 -41l-699 -1452q-11 -24 -21 -33.5t-28 -9.5h-59zM797 6q-19 0 -19 19 v104h-217q-18 0 -18 18v46q0 15 10 32l219 316q10 14 25 14h86q18 0 18 -18v-316h31q18 0 18 -16v-58q0 -18 -18 -18h-31v-104q0 -19 -18 -19h-86zM670 221h108v172z" />
<glyph unicode="&#xbd;" horiz-adv-x="937" d="M150 987q-17 0 -17 19v393l-51 -51q-13 -10 -23 0l-43 43q-15 9 0 24l115 111q7 10 21 10h86q18 0 18 -18v-512q0 -19 -18 -19h-88zM66 0q-21 0 -26 9t5 32l696 1452q12 26 22.5 34.5t31.5 8.5h57q20 0 24.5 -9.5t-4.5 -31.5l-698 -1452q-11 -25 -21.5 -34t-29.5 -9h-57z M569 0q-18 0 -18 18v91q0 44 21 81.5t50.5 63.5t59.5 49t51 47.5t21 48.5t-16.5 40t-43.5 16q-32 0 -71 -39q-12 -12 -23 2l-37 43q-9 11 4 24q60 68 152 68q70 0 112.5 -39t42.5 -102q0 -41 -21 -76.5t-50.5 -59.5t-59 -47t-50.5 -50.5t-21 -57.5v-25h188q17 0 17 -16v-64 q0 -16 -17 -16h-291z" />
<glyph unicode="&#xbe;" horiz-adv-x="1001" d="M193 983q-53 0 -95 19t-65 47q-11 13 0 24l41 43q10 10 24 0q44 -35 78 -35t55 20.5t21 55.5t-20.5 55.5t-51.5 20.5q-18 0 -18 16v49q0 11 4 14t14 5q28 3 46 21.5t18 45.5q0 26 -17 43t-45 17q-36 0 -69 -33q-11 -11 -23 4l-39 39q-11 12 2 25q54 61 144 61 q72 0 121 -38.5t49 -100.5q0 -40 -20 -72.5t-46 -50.5q74 -52 74 -139q0 -69 -51 -112.5t-131 -43.5zM72 0q-21 0 -26 9t5 32l699 1452q11 25 21 34t30 9h59q39 0 19 -41l-699 -1452q-11 -24 -21 -33.5t-28 -9.5h-59zM797 6q-19 0 -19 19v104h-217q-18 0 -18 18v46 q0 15 10 32l219 316q10 14 25 14h86q18 0 18 -18v-316h31q18 0 18 -16v-58q0 -18 -18 -18h-31v-104q0 -19 -18 -19h-86zM670 221h108v172z" />
<glyph unicode="&#xbf;" horiz-adv-x="864" d="M465 1030q40 0 67 -27t27 -67t-27 -68t-67 -28t-68 28t-28 68t28 67t68 27zM492 662q19 0 25.5 -7.5t6.5 -27.5q0 -115 -17 -208.5t-44 -154t-59.5 -109.5t-65.5 -86t-60 -71.5t-44.5 -77t-18.5 -92.5q-1 -101 66.5 -164t173.5 -63q127 0 229 102q26 23 47 0l39 -37 q20 -23 -2 -51q-122 -139 -322 -139q-161 0 -262 90t-100 246q1 63 19 116.5t46.5 93.5t63 80.5t68.5 88t62 104.5t45.5 142.5t17.5 189.5q0 20 7 27.5t27 7.5h52z" />
<glyph unicode="&#xc0;" horiz-adv-x="1202" d="M643 1665l-246 193q-29 23 -6 53l31 39q12 14 21.5 15t31.5 -15l232 -209q24 -22 2 -47l-19 -21q-13 -13 -20 -15.5t-27 7.5zM78 0q-32 0 -21 35l467 1466q9 35 45 35h66q36 0 45 -35l467 -1466q11 -35 -21 -35h-67q-18 0 -25 7.5t-12 27.5l-125 389h-590l-125 -389 q-5 -20 -12 -27.5t-25 -7.5h-67zM348 547h508l-254 801z" />
<glyph unicode="&#xc1;" horiz-adv-x="1202" d="M586 1663q-22 -17 -47 8l-17 21q-22 25 2 47l230 209q21 16 31.5 15.5t21.5 -15.5l33 -39q23 -30 -9 -54zM78 0q-32 0 -21 35l467 1466q9 35 45 35h66q36 0 45 -35l467 -1466q11 -35 -21 -35h-67q-18 0 -25 7.5t-12 27.5l-125 389h-590l-125 -389q-5 -20 -12 -27.5 t-25 -7.5h-67zM348 547h508l-254 801z" />
<glyph unicode="&#xc2;" horiz-adv-x="1202" d="M602 1849l-164 -178q-27 -27 -53 -4l-29 31q-15 15 -15.5 25t17.5 28l222 203q22 26 45 0l221 -203q16 -16 16.5 -28t-12.5 -23l-31 -31q-14 -14 -24.5 -14.5t-28.5 16.5zM78 0q-32 0 -21 35l467 1466q9 35 45 35h66q36 0 45 -35l467 -1466q11 -35 -21 -35h-67 q-18 0 -25 7.5t-12 27.5l-125 389h-590l-125 -389q-5 -20 -12 -27.5t-25 -7.5h-67zM348 547h508l-254 801z" />
<glyph unicode="&#xc3;" horiz-adv-x="1202" d="M743 1657q-48 1 -97 23.5t-90 44.5t-71 22q-55 3 -106 -74q-11 -17 -31 -6l-53 33q-19 12 -8 31q69 122 188 122q54 -1 135.5 -45.5t120.5 -44.5q58 -3 109 74q11 17 30 6l54 -33q17 -11 6 -30q-69 -123 -187 -123zM78 0q-32 0 -21 35l467 1466q9 35 45 35h66 q36 0 45 -35l467 -1466q11 -35 -21 -35h-67q-18 0 -25 7.5t-12 27.5l-125 389h-590l-125 -389q-5 -20 -12 -27.5t-25 -7.5h-67zM348 547h508l-254 801z" />
<glyph unicode="&#xc4;" horiz-adv-x="1202" d="M430 1659q-38 0 -66 28t-28 66q0 40 28 68t66 28q40 0 68 -28t28 -68q0 -38 -28 -66t-68 -28zM774 1659q-38 0 -66 28t-28 66q0 40 28 68t66 28q40 0 68 -28t28 -68q0 -38 -28 -66t-68 -28zM78 0q-32 0 -21 35l467 1466q9 35 45 35h66q36 0 45 -35l467 -1466 q11 -35 -21 -35h-67q-18 0 -25 7.5t-12 27.5l-125 389h-590l-125 -389q-5 -20 -12 -27.5t-25 -7.5h-67zM348 547h508l-254 801z" />
<glyph unicode="&#xc5;" horiz-adv-x="1202" d="M598 1642q-73 0 -124.5 51.5t-51.5 125.5q0 73 51 124.5t125 51.5t125 -51.5t51 -124.5q0 -74 -51.5 -125.5t-124.5 -51.5zM598 1733q35 0 60.5 25.5t25.5 60.5t-25.5 60.5t-60.5 25.5t-60.5 -25.5t-25.5 -60.5t25.5 -60.5t60.5 -25.5zM78 0q-32 0 -21 35l467 1466 q9 35 45 35h66q36 0 45 -35l467 -1466q11 -35 -21 -35h-67q-18 0 -25 7.5t-12 27.5l-125 389h-590l-125 -389q-5 -20 -12 -27.5t-25 -7.5h-67zM348 547h508l-254 801z" />
<glyph unicode="&#xc6;" horiz-adv-x="1818" d="M80 0q-17 0 -23.5 8t2.5 27l779 1466q10 19 19.5 27t27.5 8h762q34 0 34 -33v-57q0 -33 -34 -33h-650l-2 -541h564q34 0 34 -34v-56q0 -32 -34 -32h-562l2 -627h662q35 0 35 -33v-57q0 -33 -35 -33h-764q-35 0 -35 35v389h-456l-209 -389q-7 -16 -10.5 -21t-11 -9.5 t-19.5 -4.5h-76zM469 547h395v751z" />
<glyph unicode="&#xc7;" horiz-adv-x="1236" d="M1124 240l39 -43q23 -23 0 -45q-165 -168 -426 -168q-27 0 -41 2l-26 -99q31 25 94 25q86 0 140 -56t54 -147q0 -106 -62.5 -167.5t-166.5 -61.5q-54 0 -108 28q-17 9 -7 29l19 55q9 19 29 9q30 -15 61 -15q55 0 90 33.5t35 89.5q0 53 -33.5 86t-83.5 33q-63 0 -102 -53 q-5 -7 -7 -8.5t-8 -3.5t-12 1l-53 15q-14 4 -17.5 9.5t-1.5 16.5l60 195q-228 50 -360 251t-132 517q0 366 174.5 575t464.5 209q261 0 426 -168q23 -22 0 -45l-39 -43q-19 -22 -45 0q-143 134 -342 134q-227 0 -366.5 -177.5t-139.5 -484.5t139.5 -484.5t366.5 -177.5 q199 0 342 134q26 22 45 0z" />
<glyph unicode="&#xc8;" horiz-adv-x="1130" d="M625 1665l-246 193q-29 23 -6 53l30 39q12 14 22 15t32 -15l231 -209q24 -22 2 -47l-18 -21q-13 -13 -20 -15.5t-27 7.5zM211 0q-35 0 -35 35v1466q0 35 35 35h750q32 0 32 -33v-57q0 -33 -32 -33h-652v-541h561q35 0 35 -34v-56q0 -32 -35 -32h-561v-627h664 q35 0 35 -33v-57q0 -33 -35 -33h-762z" />
<glyph unicode="&#xc9;" horiz-adv-x="1130" d="M567 1663q-22 -17 -47 8l-16 21q-22 25 2 47l229 209q21 16 31.5 15.5t21.5 -15.5l33 -39q24 -31 -8 -54zM211 0q-35 0 -35 35v1466q0 35 35 35h750q32 0 32 -33v-57q0 -33 -32 -33h-652v-541h561q35 0 35 -34v-56q0 -32 -35 -32h-561v-627h664q35 0 35 -33v-57 q0 -33 -35 -33h-762z" />
<glyph unicode="&#xca;" horiz-adv-x="1130" d="M584 1849l-164 -178q-27 -27 -53 -4l-29 31q-15 15 -15.5 25t17.5 28l221 203q23 26 45 0l221 -203q16 -16 16.5 -28t-12.5 -23l-30 -31q-14 -14 -24.5 -14.5t-28.5 16.5zM211 0q-35 0 -35 35v1466q0 35 35 35h750q32 0 32 -33v-57q0 -33 -32 -33h-652v-541h561 q35 0 35 -34v-56q0 -32 -35 -32h-561v-627h664q35 0 35 -33v-57q0 -33 -35 -33h-762z" />
<glyph unicode="&#xcb;" horiz-adv-x="1130" d="M412 1659q-38 0 -66.5 28t-28.5 66q0 39 28.5 67.5t66.5 28.5q40 0 68 -28t28 -68q0 -38 -28 -66t-68 -28zM756 1659q-38 0 -66 28t-28 66q0 40 28 68t66 28q40 0 68 -28t28 -68q0 -38 -28 -66t-68 -28zM211 0q-35 0 -35 35v1466q0 35 35 35h750q32 0 32 -33v-57 q0 -33 -32 -33h-652v-541h561q35 0 35 -34v-56q0 -32 -35 -32h-561v-627h664q35 0 35 -33v-57q0 -33 -35 -33h-762z" />
<glyph unicode="&#xcc;" horiz-adv-x="485" d="M287 1665l-246 193q-29 23 -6 53l31 39q12 14 21.5 15t31.5 -15l231 -209q24 -22 2 -47l-18 -21q-13 -13 -20 -15.5t-27 7.5zM211 0q-35 0 -35 35v1466q0 35 35 35h63q35 0 35 -35v-1466q0 -35 -35 -35h-63z" />
<glyph unicode="&#xcd;" horiz-adv-x="485" d="M229 1663q-22 -17 -47 8l-16 21q-22 25 2 47l229 209q21 16 32 15.5t22 -15.5l32 -39q24 -31 -8 -54zM211 0q-35 0 -35 35v1466q0 35 35 35h63q35 0 35 -35v-1466q0 -35 -35 -35h-63z" />
<glyph unicode="&#xce;" horiz-adv-x="485" d="M246 1849l-164 -178q-27 -27 -53 -4l-29 31q-15 15 -15.5 25t17.5 28l221 203q23 26 45 0l221 -203q17 -17 17.5 -28.5t-12.5 -22.5l-31 -31q-14 -14 -24.5 -14.5t-28.5 16.5zM211 0q-35 0 -35 35v1466q0 35 35 35h63q35 0 35 -35v-1466q0 -35 -35 -35h-63z" />
<glyph unicode="&#xcf;" horiz-adv-x="485" d="M74 1659q-38 0 -66 28t-28 66q0 40 28 68t66 28q40 0 68 -28t28 -68q0 -38 -28 -66t-68 -28zM418 1659q-38 0 -66 28t-28 66q0 40 28 68t66 28q40 0 68 -28t28 -68q0 -38 -28 -66t-68 -28zM211 0q-35 0 -35 35v1466q0 35 35 35h63q35 0 35 -35v-1466q0 -35 -35 -35h-63z " />
<glyph unicode="&#xd0;" horiz-adv-x="1366" d="M625 1536q106 0 199.5 -26t177 -85t144 -146.5t95.5 -218t35 -292.5t-35 -292.5t-95.5 -218t-144 -146.5t-177 -85t-199.5 -26h-414q-35 0 -35 35v848h-78q-19 0 -27 7t-8 25v25q0 18 8 25.5t27 7.5h78v528q0 35 35 35h414zM623 123q113 0 205 35t164.5 109t112.5 201.5 t40 299.5t-40 299.5t-112.5 201.5t-164.5 109t-205 35h-314v-440h240q19 0 26 -7t7 -26v-25q0 -19 -7 -25.5t-26 -6.5h-240v-760h314z" />
<glyph unicode="&#xd1;" horiz-adv-x="1413" d="M840 1657q-48 1 -97 23.5t-90 44.5t-71 22q-56 3 -107 -74q-11 -17 -31 -6l-53 33q-19 12 -8 31q69 122 188 122q54 -1 135.5 -45.5t120.5 -44.5q58 -3 109 74q11 17 31 6l53 -33q17 -11 6 -30q-69 -123 -186 -123zM209 0q-33 0 -33 35v1466q0 35 35 35h43q19 0 35 -23 l821 -1226v1214q0 35 33 35h61q33 0 33 -35v-1466q0 -35 -33 -35h-45q-19 0 -35 23l-819 1245v-1233q0 -35 -35 -35h-61z" />
<glyph unicode="&#xd2;" d="M778 1665l-246 193q-29 23 -6 53l31 39q12 14 21.5 15t31.5 -15l232 -209q24 -22 2 -47l-19 -21q-13 -13 -20 -15.5t-27 7.5zM737 1552q290 0 464.5 -209t174.5 -575t-174.5 -575t-464.5 -209t-464.5 209t-174.5 575t174.5 575t464.5 209zM737 106q227 0 366.5 177.5 t139.5 484.5t-139.5 484.5t-366.5 177.5t-366.5 -177.5t-139.5 -484.5t139.5 -484.5t366.5 -177.5z" />
<glyph unicode="&#xd3;" d="M721 1663q-22 -17 -47 8l-17 21q-22 25 2 47l230 209q21 16 31.5 15.5t21.5 -15.5l33 -39q24 -31 -8 -54zM737 1552q290 0 464.5 -209t174.5 -575t-174.5 -575t-464.5 -209t-464.5 209t-174.5 575t174.5 575t464.5 209zM737 106q227 0 366.5 177.5t139.5 484.5 t-139.5 484.5t-366.5 177.5t-366.5 -177.5t-139.5 -484.5t139.5 -484.5t366.5 -177.5z" />
<glyph unicode="&#xd4;" d="M737 1849l-164 -178q-27 -27 -53 -4l-28 31q-15 15 -15.5 25t17.5 28l221 203q23 26 45 0l221 -203q16 -16 16.5 -28t-12.5 -23l-31 -31q-14 -14 -24.5 -14.5t-28.5 16.5zM737 1552q290 0 464.5 -209t174.5 -575t-174.5 -575t-464.5 -209t-464.5 209t-174.5 575 t174.5 575t464.5 209zM737 106q227 0 366.5 177.5t139.5 484.5t-139.5 484.5t-366.5 177.5t-366.5 -177.5t-139.5 -484.5t139.5 -484.5t366.5 -177.5z" />
<glyph unicode="&#xd5;" d="M879 1657q-48 0 -96.5 22t-89 44t-70.5 22q-56 3 -107 -74q-11 -16 -29 -6l-53 33q-19 12 -8 31q69 122 186 122q53 -1 134 -45.5t120 -44.5q56 -3 107 74q11 17 31 6l53 -33q17 -11 6 -30q-68 -121 -184 -121zM737 1552q290 0 464.5 -209t174.5 -575t-174.5 -575 t-464.5 -209t-464.5 209t-174.5 575t174.5 575t464.5 209zM737 106q227 0 366.5 177.5t139.5 484.5t-139.5 484.5t-366.5 177.5t-366.5 -177.5t-139.5 -484.5t139.5 -484.5t366.5 -177.5z" />
<glyph unicode="&#xd6;" d="M565 1659q-38 0 -66 28t-28 66q0 40 28 68t66 28q40 0 68.5 -28t28.5 -68q0 -38 -28.5 -66t-68.5 -28zM909 1659q-38 0 -66 28t-28 66q0 40 28 68t66 28q40 0 68.5 -28t28.5 -68q0 -38 -28.5 -66t-68.5 -28zM737 1552q290 0 464.5 -209t174.5 -575t-174.5 -575 t-464.5 -209t-464.5 209t-174.5 575t174.5 575t464.5 209zM737 106q227 0 366.5 177.5t139.5 484.5t-139.5 484.5t-366.5 177.5t-366.5 -177.5t-139.5 -484.5t139.5 -484.5t366.5 -177.5z" />
<glyph unicode="&#xd7;" horiz-adv-x="731" d="M442 764l166 -166q13 -13 13.5 -23.5t-11.5 -23.5l-32 -33q-26 -23 -48 2l-163 166l-166 -166q-22 -24 -47 -2l-33 33q-12 14 -11 23.5t13 23.5l166 166l-166 166q-12 14 -13 23.5t11 23.5l33 33q25 22 47 -2l166 -166l163 166q22 25 48 2l32 -33q12 -13 11.5 -23.5 t-13.5 -23.5z" />
<glyph unicode="&#xd8;" d="M1204 1339q172 -209 172 -571q0 -366 -174.5 -575t-464.5 -209q-238 0 -399 143l-59 -84q-18 -25 -30 -34t-30 -9h-59q-39 0 -13 41l117 164q-166 208 -166 563q0 366 174.5 575t464.5 209q235 0 396 -137l55 78q19 27 28.5 35t28.5 8h60q40 0 12 -41zM231 768 q0 -276 115 -449l709 988q-129 123 -318 123q-227 0 -366.5 -177.5t-139.5 -484.5zM737 106q227 0 366.5 177.5t139.5 484.5q0 280 -119 457l-708 -992q130 -127 321 -127z" />
<glyph unicode="&#xd9;" horiz-adv-x="1390" d="M739 1665l-245 193q-30 24 -7 53l31 39q12 14 21.5 15t31.5 -15l232 -209q24 -22 2 -47l-19 -21q-13 -13 -20 -15.5t-27 7.5zM694 -16q-252 0 -395 149.5t-143 441.5v926q0 35 34 35h64q35 0 35 -35v-938q0 -120 30 -209.5t85.5 -143.5t127.5 -80t162 -26q188 0 298 112 t110 347v938q0 35 35 35h63q35 0 35 -35v-926q0 -292 -144 -441.5t-397 -149.5z" />
<glyph unicode="&#xda;" horiz-adv-x="1390" d="M682 1663q-22 -17 -47 8l-17 21q-22 25 3 47l229 209q21 16 31.5 15.5t21.5 -15.5l33 -39q24 -31 -8 -54zM694 -16q-252 0 -395 149.5t-143 441.5v926q0 35 34 35h64q35 0 35 -35v-938q0 -120 30 -209.5t85.5 -143.5t127.5 -80t162 -26q188 0 298 112t110 347v938 q0 35 35 35h63q35 0 35 -35v-926q0 -292 -144 -441.5t-397 -149.5z" />
<glyph unicode="&#xdb;" horiz-adv-x="1390" d="M698 1849l-163 -178q-28 -28 -54 -4l-28 31q-15 15 -15.5 25t17.5 28l221 203q22 26 45 0l221 -203q16 -16 16.5 -28t-12.5 -23l-31 -31q-14 -14 -24.5 -14.5t-28.5 16.5zM694 -16q-252 0 -395 149.5t-143 441.5v926q0 35 34 35h64q35 0 35 -35v-938q0 -120 30 -209.5 t85.5 -143.5t127.5 -80t162 -26q188 0 298 112t110 347v938q0 35 35 35h63q35 0 35 -35v-926q0 -292 -144 -441.5t-397 -149.5z" />
<glyph unicode="&#xdc;" horiz-adv-x="1390" d="M526 1659q-38 0 -66 28t-28 66q0 40 28 68t66 28q40 0 68.5 -28t28.5 -68q0 -38 -28.5 -66t-68.5 -28zM870 1659q-38 0 -66 28t-28 66q0 40 28 68t66 28q40 0 68.5 -28t28.5 -68q0 -38 -28.5 -66t-68.5 -28zM694 -16q-252 0 -395 149.5t-143 441.5v926q0 35 34 35h64 q35 0 35 -35v-938q0 -120 30 -209.5t85.5 -143.5t127.5 -80t162 -26q188 0 298 112t110 347v938q0 35 35 35h63q35 0 35 -35v-926q0 -292 -144 -441.5t-397 -149.5z" />
<glyph unicode="&#xdd;" horiz-adv-x="1075" d="M524 1663q-22 -17 -47 8l-16 21q-22 25 2 47l229 209q21 16 31.5 15.5t21.5 -15.5l33 -39q24 -31 -8 -54zM905 1509q13 27 45 27h70q36 0 18 -35l-434 -796v-670q0 -35 -35 -35h-63q-35 0 -35 35v670l-434 796q-10 17 -6.5 26t22.5 9h72q30 0 45 -27l367 -696z" />
<glyph unicode="&#xde;" horiz-adv-x="1167" d="M596 1239q119 0 213 -36t152.5 -100t89 -147.5t30.5 -181.5q0 -96 -30.5 -181t-89 -151.5t-153 -105.5t-212.5 -39h-287v-262q0 -35 -35 -35h-63q-35 0 -35 35v1466q0 35 35 35h63q35 0 35 -35v-262h287zM584 420q94 0 166 28.5t115.5 78.5t65 112.5t21.5 134.5 q0 156 -91.5 249t-276.5 93h-275v-696h275z" />
<glyph unicode="&#xdf;" horiz-adv-x="1089" d="M680 0q-21 -7 -29.5 -3t-15.5 21l-21 54q-5 17 0 26t27 19q88 40 146.5 98t58.5 127q0 39 -19.5 75t-48.5 63.5t-63 60.5t-63 65t-48.5 78.5t-19.5 99.5q0 51 18 98t44 84t52 73.5t44 80.5t18 90q0 96 -65 154.5t-163 58.5q-111 0 -183.5 -82t-72.5 -223v-1083 q0 -20 -7.5 -27.5t-26.5 -7.5h-62q-19 0 -26 7.5t-7 27.5v1130q0 175 107.5 277t277.5 102q155 0 256 -91t101 -241q0 -65 -28 -129.5t-61 -107.5t-61 -95t-28 -96q0 -38 19.5 -73.5t49 -62t63.5 -59.5t63.5 -65t49 -79.5t19.5 -102.5q0 -111 -82.5 -202t-212.5 -140z" />
<glyph unicode="&#xe0;" horiz-adv-x="976" d="M522 1174l-246 192q-29 23 -6 53l31 39q12 14 21.5 15t31.5 -15l232 -209q24 -22 2 -47l-19 -20q-13 -13 -20 -15.5t-27 7.5zM479 983q174 0 266.5 -104t92.5 -277v-567q0 -19 -7.5 -27t-25.5 -8h-62q-19 0 -26.5 8t-7.5 27v65q-28 -32 -111 -74t-186 -42 q-139 0 -231.5 83.5t-92.5 221.5t94.5 223.5t253.5 85.5q96 0 174.5 -29.5t98.5 -54.5v88q0 118 -62.5 188t-181.5 70q-110 0 -240 -53q-13 -5 -24.5 -0.5t-14.5 16.5l-18 60q-9 24 14 35q150 65 297 65zM440 90q59 0 121.5 28t94.5 53.5t53 47.5v191q-24 26 -99 52.5 t-155 26.5q-111 0 -175.5 -53.5t-64.5 -142.5q0 -91 65 -147t160 -56z" />
<glyph unicode="&#xe1;" horiz-adv-x="976" d="M465 1171q-21 -17 -47 9l-17 20q-22 25 2 47l230 209q21 16 31.5 15.5t21.5 -15.5l33 -39q12 -12 11.5 -25.5t-19.5 -27.5zM479 983q174 0 266.5 -104t92.5 -277v-567q0 -19 -7.5 -27t-25.5 -8h-62q-19 0 -26.5 8t-7.5 27v65q-28 -32 -111 -74t-186 -42 q-139 0 -231.5 83.5t-92.5 221.5t94.5 223.5t253.5 85.5q96 0 174.5 -29.5t98.5 -54.5v88q0 118 -62.5 188t-181.5 70q-110 0 -240 -53q-13 -5 -24.5 -0.5t-14.5 16.5l-18 60q-9 24 14 35q150 65 297 65zM440 90q59 0 121.5 28t94.5 53.5t53 47.5v191q-24 26 -99 52.5 t-155 26.5q-111 0 -175.5 -53.5t-64.5 -142.5q0 -91 65 -147t160 -56z" />
<glyph unicode="&#xe2;" horiz-adv-x="976" d="M481 1358l-164 -178q-27 -27 -53 -4l-28 30q-15 15 -15.5 25.5t17.5 28.5l221 202q23 26 45 0l221 -202q16 -16 16.5 -28.5t-12.5 -23.5l-31 -30q-14 -14 -24.5 -14.5t-28.5 16.5zM479 983q174 0 266.5 -104t92.5 -277v-567q0 -19 -7.5 -27t-25.5 -8h-62q-19 0 -26.5 8 t-7.5 27v65q-28 -32 -111 -74t-186 -42q-139 0 -231.5 83.5t-92.5 221.5t94.5 223.5t253.5 85.5q96 0 174.5 -29.5t98.5 -54.5v88q0 118 -62.5 188t-181.5 70q-110 0 -240 -53q-13 -5 -24.5 -0.5t-14.5 16.5l-18 60q-9 24 14 35q150 65 297 65zM440 90q59 0 121.5 28 t94.5 53.5t53 47.5v191q-24 26 -99 52.5t-155 26.5q-111 0 -175.5 -53.5t-64.5 -142.5q0 -91 65 -147t160 -56z" />
<glyph unicode="&#xe3;" horiz-adv-x="976" d="M623 1165q-48 1 -97 23.5t-90 44.5t-71 22q-57 3 -107 -73q-11 -17 -31 -6l-53 32q-19 12 -8 31q69 123 188 123q54 -1 135.5 -45.5t120.5 -44.5q58 -3 109 74q11 17 31 6l53 -33q17 -11 6 -31q-69 -123 -186 -123zM479 983q174 0 266.5 -104t92.5 -277v-567 q0 -19 -7.5 -27t-25.5 -8h-62q-19 0 -26.5 8t-7.5 27v65q-28 -32 -111 -74t-186 -42q-139 0 -231.5 83.5t-92.5 221.5t94.5 223.5t253.5 85.5q96 0 174.5 -29.5t98.5 -54.5v88q0 118 -62.5 188t-181.5 70q-110 0 -240 -53q-13 -5 -24.5 -0.5t-14.5 16.5l-18 60q-9 24 14 35 q150 65 297 65zM440 90q59 0 121.5 28t94.5 53.5t53 47.5v191q-24 26 -99 52.5t-155 26.5q-111 0 -175.5 -53.5t-64.5 -142.5q0 -91 65 -147t160 -56z" />
<glyph unicode="&#xe4;" horiz-adv-x="976" d="M309 1167q-38 0 -66 28.5t-28 66.5q0 40 28 68t66 28q40 0 68.5 -28t28.5 -68q0 -38 -28.5 -66.5t-68.5 -28.5zM653 1167q-38 0 -66 28.5t-28 66.5q0 40 28 68t66 28q40 0 68.5 -28t28.5 -68q0 -38 -28.5 -66.5t-68.5 -28.5zM479 983q174 0 266.5 -104t92.5 -277v-567 q0 -19 -7.5 -27t-25.5 -8h-62q-19 0 -26.5 8t-7.5 27v65q-28 -32 -111 -74t-186 -42q-139 0 -231.5 83.5t-92.5 221.5t94.5 223.5t253.5 85.5q96 0 174.5 -29.5t98.5 -54.5v88q0 118 -62.5 188t-181.5 70q-110 0 -240 -53q-13 -5 -24.5 -0.5t-14.5 16.5l-18 60q-9 24 14 35 q150 65 297 65zM440 90q59 0 121.5 28t94.5 53.5t53 47.5v191q-24 26 -99 52.5t-155 26.5q-111 0 -175.5 -53.5t-64.5 -142.5q0 -91 65 -147t160 -56z" />
<glyph unicode="&#xe5;" horiz-adv-x="976" d="M477 1151q-73 0 -124.5 51.5t-51.5 124.5t51.5 124.5t124.5 51.5t124.5 -51.5t51.5 -124.5t-51.5 -124.5t-124.5 -51.5zM477 1241q35 0 60.5 25.5t25.5 60.5t-25.5 60.5t-60.5 25.5t-60.5 -25.5t-25.5 -60.5t25.5 -60.5t60.5 -25.5zM479 983q174 0 266.5 -104t92.5 -277 v-567q0 -19 -7.5 -27t-25.5 -8h-62q-19 0 -26.5 8t-7.5 27v65q-28 -32 -111 -74t-186 -42q-139 0 -231.5 83.5t-92.5 221.5t94.5 223.5t253.5 85.5q96 0 174.5 -29.5t98.5 -54.5v88q0 118 -62.5 188t-181.5 70q-110 0 -240 -53q-13 -5 -24.5 -0.5t-14.5 16.5l-18 60 q-9 24 14 35q150 65 297 65zM440 90q59 0 121.5 28t94.5 53.5t53 47.5v191q-24 26 -99 52.5t-155 26.5q-111 0 -175.5 -53.5t-64.5 -142.5q0 -91 65 -147t160 -56z" />
<glyph unicode="&#xe6;" horiz-adv-x="1632" d="M412 -16q-139 0 -231.5 80.5t-92.5 216.5q0 138 93.5 227.5t246.5 89.5q100 0 178.5 -34t102.5 -62v86q0 126 -67 199t-187 73q-100 0 -230 -53q-13 -5 -24.5 -0.5t-14.5 16.5l-18 60q-9 24 14 35q150 65 285 65q118 0 201.5 -51t122.5 -144q55 95 145.5 145t204.5 50 q194 0 300.5 -133t106.5 -365q0 -33 -6 -42t-29 -9h-669q0 -141 87.5 -235.5t227.5 -94.5q126 0 254 89q30 21 47 -9l29 -53q17 -24 -4 -39q-128 -108 -320 -108q-250 0 -370 180q-25 -26 -54 -50t-79 -57t-115.5 -53t-134.5 -20zM844 547l571 2q0 141 -76.5 226t-197.5 85 q-128 0 -212.5 -89.5t-84.5 -223.5zM438 90q160 0 314 162q-31 78 -35 137q-43 35 -118 67.5t-150 32.5q-106 0 -170 -57.5t-64 -146.5t64.5 -142t158.5 -53z" />
<glyph unicode="&#xe7;" horiz-adv-x="903" d="M809 180l27 -49q13 -24 -5 -39q-125 -105 -301 -108l-26 -97q31 25 94 25q86 0 140.5 -56t54.5 -147q0 -106 -63 -167.5t-167 -61.5q-54 0 -108 28q-16 8 -6 29l18 55q9 19 29 9q30 -15 61 -15q55 0 90 33.5t35 89.5q0 53 -33.5 86t-83.5 33q-63 0 -102 -53 q-5 -7 -7 -8.5t-8 -3.5t-12 1l-53 15q-14 4 -17 9t-1 17l59 189q-159 31 -249.5 159t-90.5 330q0 233 118.5 366.5t319.5 133.5q180 0 309 -109q18 -15 5 -38l-27 -50q-17 -28 -47 -6q-59 38 -114.5 60t-123.5 22q-142 0 -226.5 -101t-84.5 -278t84.5 -278t226.5 -101 q68 0 123.5 22t114.5 60q30 22 47 -6z" />
<glyph unicode="&#xe8;" horiz-adv-x="1005" d="M553 1174l-246 192q-29 23 -6 53l31 39q12 14 21.5 15t31.5 -15l231 -209q24 -22 2 -47l-18 -20q-13 -13 -20 -15.5t-27 7.5zM539 -16q-209 0 -332 131.5t-123 365.5q0 233 119.5 367.5t310.5 134.5q194 0 301 -133.5t107 -364.5q0 -33 -6 -42t-29 -9h-670 q0 -141 87.5 -235.5t227.5 -94.5q126 0 254 89q33 23 48 -9l28 -53q15 -25 -4 -39q-128 -108 -319 -108zM217 547l571 2q0 141 -76.5 226t-197.5 85q-128 0 -212.5 -89.5t-84.5 -223.5z" />
<glyph unicode="&#xe9;" horiz-adv-x="1005" d="M496 1171q-21 -17 -47 9l-17 20q-22 25 2 47l230 209q21 16 31.5 15.5t21.5 -15.5l33 -39q23 -29 -9 -53zM539 -16q-209 0 -332 131.5t-123 365.5q0 233 119.5 367.5t310.5 134.5q194 0 301 -133.5t107 -364.5q0 -33 -6 -42t-29 -9h-670q0 -141 87.5 -235.5t227.5 -94.5 q126 0 254 89q33 23 48 -9l28 -53q15 -25 -4 -39q-128 -108 -319 -108zM217 547l571 2q0 141 -76.5 226t-197.5 85q-128 0 -212.5 -89.5t-84.5 -223.5z" />
<glyph unicode="&#xea;" horiz-adv-x="1005" d="M512 1358l-164 -178q-27 -27 -53 -4l-29 30q-15 15 -15.5 25.5t17.5 28.5l221 202q23 26 46 0l221 -202q16 -16 16.5 -28.5t-12.5 -23.5l-31 -30q-14 -14 -24.5 -14.5t-28.5 16.5zM539 -16q-209 0 -332 131.5t-123 365.5q0 233 119.5 367.5t310.5 134.5q194 0 301 -133.5 t107 -364.5q0 -33 -6 -42t-29 -9h-670q0 -141 87.5 -235.5t227.5 -94.5q126 0 254 89q33 23 48 -9l28 -53q15 -25 -4 -39q-128 -108 -319 -108zM217 547l571 2q0 141 -76.5 226t-197.5 85q-128 0 -212.5 -89.5t-84.5 -223.5z" />
<glyph unicode="&#xeb;" horiz-adv-x="1005" d="M340 1167q-38 0 -66 28.5t-28 66.5q0 40 28 68t66 28q40 0 68 -28t28 -68q0 -38 -28 -66.5t-68 -28.5zM684 1167q-38 0 -66 28.5t-28 66.5q0 40 28 68t66 28q40 0 68 -28t28 -68q0 -38 -28 -66.5t-68 -28.5zM539 -16q-209 0 -332 131.5t-123 365.5q0 233 119.5 367.5 t310.5 134.5q194 0 301 -133.5t107 -364.5q0 -33 -6 -42t-29 -9h-670q0 -141 87.5 -235.5t227.5 -94.5q126 0 254 89q33 23 48 -9l28 -53q15 -25 -4 -39q-128 -108 -319 -108zM217 547l571 2q0 141 -76.5 226t-197.5 85q-128 0 -212.5 -89.5t-84.5 -223.5z" />
<glyph unicode="&#xec;" horiz-adv-x="473" d="M283 1174l-246 192q-29 23 -6 53l30 39q12 14 22 15t32 -15l231 -209q24 -22 2 -47l-18 -20q-13 -13 -20 -15.5t-27 7.5zM207 0q-20 0 -27.5 7.5t-7.5 27.5v897q0 20 7.5 27.5t27.5 7.5h59q19 0 27 -7.5t8 -27.5v-897q0 -20 -7.5 -27.5t-27.5 -7.5h-59z" />
<glyph unicode="&#xed;" horiz-adv-x="473" d="M225 1171q-21 -17 -47 9l-16 20q-22 25 2 47l229 209q21 16 31.5 15.5t21.5 -15.5l33 -39q12 -12 11.5 -25.5t-19.5 -27.5zM207 0q-20 0 -27.5 7.5t-7.5 27.5v897q0 20 7.5 27.5t27.5 7.5h59q19 0 27 -7.5t8 -27.5v-897q0 -20 -7.5 -27.5t-27.5 -7.5h-59z" />
<glyph unicode="&#xee;" horiz-adv-x="473" d="M242 1358l-164 -178q-27 -27 -53 -4l-29 30q-15 15 -15.5 25.5t17.5 28.5l221 202q23 26 45 0l221 -202q16 -16 16.5 -28.5t-12.5 -23.5l-30 -30q-14 -14 -24.5 -14.5t-28.5 16.5zM207 0q-20 0 -27.5 7.5t-7.5 27.5v897q0 20 7.5 27.5t27.5 7.5h59q19 0 27 -7.5t8 -27.5 v-897q0 -20 -7.5 -27.5t-27.5 -7.5h-59z" />
<glyph unicode="&#xef;" horiz-adv-x="473" d="M70 1167q-38 0 -66.5 28.5t-28.5 66.5q0 40 28.5 68t66.5 28q40 0 68 -28t28 -68q0 -38 -28 -66.5t-68 -28.5zM414 1167q-38 0 -66.5 28.5t-28.5 66.5q0 40 28.5 68t66.5 28q40 0 68 -28t28 -68q0 -38 -28 -66.5t-68 -28.5zM207 0q-20 0 -27.5 7.5t-7.5 27.5v897 q0 20 7.5 27.5t27.5 7.5h59q19 0 27 -7.5t8 -27.5v-897q0 -20 -7.5 -27.5t-27.5 -7.5h-59z" />
<glyph unicode="&#xf0;" horiz-adv-x="1077" d="M786 1335q193 -242 193 -673q0 -347 -116.5 -512.5t-327.5 -165.5q-206 0 -328.5 136.5t-122.5 360.5q0 220 116.5 353t303.5 133q71 0 134.5 -20.5t105 -51t67.5 -58.5t37 -51q0 119 -41 243t-113 216l-141 -137q-18 -18 -35 2l-33 33q-21 21 -4 37l142 141 q-108 90 -236 90q-35 0 -35 31v61q0 15 10 24t25 9q191 0 328 -125l86 86q16 13 37 -8l32 -31q19 -19 4 -37zM528 106q152 0 234.5 133t83.5 400q-43 85 -130 145t-194 60q-139 0 -224 -100t-85 -263q0 -168 86.5 -272t228.5 -103z" />
<glyph unicode="&#xf1;" horiz-adv-x="1062" d="M702 1163q-47 1 -94.5 23t-87.5 43.5t-69 21.5q-58 3 -105 -71q-11 -17 -31 -6l-51 30q-19 12 -8 31q66 119 184 119q53 -1 132.5 -43.5t117.5 -42.5q58 -3 107 71q12 15 28 7l54 -33q17 -11 6 -31q-70 -119 -183 -119zM186 0q-18 0 -25 8t-7 27v897q0 19 7 27t25 8h56 q18 0 25 -8t7 -27v-66q63 50 110 73q90 44 189 44q151 0 252 -91.5t101 -244.5v-612q0 -19 -8 -27t-27 -8h-62q-18 0 -25 8t-7 27v575q0 123 -71.5 189.5t-178.5 66.5q-140 0 -264 -114v-717q0 -19 -8 -27t-27 -8h-62z" />
<glyph unicode="&#xf2;" horiz-adv-x="1040" d="M563 1174l-246 192q-29 23 -6 53l31 39q12 14 21.5 15t31.5 -15l232 -209q24 -22 2 -47l-19 -20q-13 -13 -20 -15.5t-27 7.5zM520 -16q-203 0 -319.5 132t-116.5 367t116.5 367.5t319.5 132.5q204 0 321 -132.5t117 -367.5t-117 -367t-321 -132zM520 104q143 0 226 100.5 t83 278.5q0 177 -83 277t-226 100t-225 -99.5t-82 -277.5t82 -278.5t225 -100.5z" />
<glyph unicode="&#xf3;" horiz-adv-x="1040" d="M506 1171q-21 -17 -47 9l-17 20q-22 25 2 47l230 209q21 16 31.5 15.5t21.5 -15.5l33 -39q12 -12 11.5 -25.5t-19.5 -27.5zM520 -16q-203 0 -319.5 132t-116.5 367t116.5 367.5t319.5 132.5q204 0 321 -132.5t117 -367.5t-117 -367t-321 -132zM520 104q143 0 226 100.5 t83 278.5q0 177 -83 277t-226 100t-225 -99.5t-82 -277.5t82 -278.5t225 -100.5z" />
<glyph unicode="&#xf4;" horiz-adv-x="1040" d="M522 1358l-164 -178q-27 -27 -53 -4l-29 30q-14 14 -14.5 25t17.5 29l221 202q22 26 45 0l221 -202q16 -16 16.5 -28.5t-12.5 -23.5l-31 -30q-14 -14 -24.5 -14.5t-28.5 16.5zM520 -16q-203 0 -319.5 132t-116.5 367t116.5 367.5t319.5 132.5q204 0 321 -132.5 t117 -367.5t-117 -367t-321 -132zM520 104q143 0 226 100.5t83 278.5q0 177 -83 277t-226 100t-225 -99.5t-82 -277.5t82 -278.5t225 -100.5z" />
<glyph unicode="&#xf5;" horiz-adv-x="1040" d="M662 1163q-47 1 -95 23t-88 43.5t-69 21.5q-58 3 -105 -71q-11 -17 -31 -6l-51 30q-19 12 -8 31q66 119 184 119q53 -1 132.5 -43.5t117.5 -42.5q58 -3 107 71q12 15 28 7l54 -33q17 -11 6 -31q-70 -119 -182 -119zM520 -16q-203 0 -319.5 132t-116.5 367t116.5 367.5 t319.5 132.5q204 0 321 -132.5t117 -367.5t-117 -367t-321 -132zM520 104q143 0 226 100.5t83 278.5q0 177 -83 277t-226 100t-225 -99.5t-82 -277.5t82 -278.5t225 -100.5z" />
<glyph unicode="&#xf6;" horiz-adv-x="1040" d="M350 1167q-38 0 -66 28.5t-28 66.5q0 40 28 68t66 28q40 0 68 -28t28 -68q0 -38 -28 -66.5t-68 -28.5zM694 1167q-38 0 -66 28.5t-28 66.5q0 40 28 68t66 28q40 0 68.5 -28t28.5 -68q0 -38 -28.5 -66.5t-68.5 -28.5zM520 -16q-203 0 -319.5 132t-116.5 367t116.5 367.5 t319.5 132.5q204 0 321 -132.5t117 -367.5t-117 -367t-321 -132zM520 104q143 0 226 100.5t83 278.5q0 177 -83 277t-226 100t-225 -99.5t-82 -277.5t82 -278.5t225 -100.5z" />
<glyph unicode="&#xf7;" horiz-adv-x="864" d="M338 1110q0 40 27 68t67 28t68 -28t28 -68t-28 -67t-68 -27t-67 27t-27 67zM143 715q-19 0 -26.5 7t-7.5 26v45q0 17 7.5 24.5t26.5 7.5h578q35 0 35 -32v-45q0 -18 -8 -25.5t-27 -7.5h-578zM338 426q0 40 27 68t67 28t68 -28t28 -68t-28 -67t-68 -27t-67 27t-27 67z" />
<glyph unicode="&#xf8;" horiz-adv-x="1034" d="M846 840q108 -133 108 -357q0 -234 -117.5 -366.5t-320.5 -132.5q-143 0 -246 67l-26 -35q-23 -33 -32 -39t-32 -6h-69q-15 0 -19.5 10t6.5 27l88 121q-106 127 -106 354q0 234 116.5 367t319.5 133q143 0 246 -68l22 31q25 34 32.5 39.5t29.5 5.5h74q13 0 18.5 -9.5 t-4.5 -23.5zM209 483q0 -151 59 -243l418 571q-70 49 -170 49q-142 0 -224.5 -100t-82.5 -277zM516 106q143 0 226 100t83 277q0 151 -59 246l-420 -573q71 -50 170 -50z" />
<glyph unicode="&#xf9;" horiz-adv-x="1042" d="M555 1174l-246 192q-29 23 -6 53l31 39q12 14 21.5 15t31.5 -15l231 -209q25 -22 3 -47l-19 -20q-13 -13 -20 -15.5t-27 7.5zM860 967q19 0 27 -8t8 -27v-897q0 -19 -8 -27t-27 -8h-53q-19 0 -27 8t-8 27v65q-133 -116 -289 -116q-148 0 -244 91t-96 244v613q0 19 7.5 27 t25.5 8h62q19 0 26.5 -8t7.5 -27v-576q0 -120 67 -188t173 -68q56 0 116 26.5t87.5 47t50.5 41.5v717q0 19 7.5 27t25.5 8h61z" />
<glyph unicode="&#xfa;" horiz-adv-x="1042" d="M498 1171q-21 -17 -47 9l-17 20q-22 25 2 47l230 209q21 16 31.5 15.5t21.5 -15.5l33 -39q23 -29 -9 -53zM860 967q19 0 27 -8t8 -27v-897q0 -19 -8 -27t-27 -8h-53q-19 0 -27 8t-8 27v65q-133 -116 -289 -116q-148 0 -244 91t-96 244v613q0 19 7.5 27t25.5 8h62 q19 0 26.5 -8t7.5 -27v-576q0 -120 67 -188t173 -68q56 0 116 26.5t87.5 47t50.5 41.5v717q0 19 7.5 27t25.5 8h61z" />
<glyph unicode="&#xfb;" horiz-adv-x="1042" d="M514 1358l-164 -178q-27 -27 -53 -4l-29 30q-15 15 -15.5 25.5t17.5 28.5l222 202q22 26 45 0l221 -202q16 -16 16.5 -28.5t-12.5 -23.5l-31 -30q-14 -14 -24.5 -14.5t-28.5 16.5zM860 967q19 0 27 -8t8 -27v-897q0 -19 -8 -27t-27 -8h-53q-19 0 -27 8t-8 27v65 q-133 -116 -289 -116q-148 0 -244 91t-96 244v613q0 19 7.5 27t25.5 8h62q19 0 26.5 -8t7.5 -27v-576q0 -120 67 -188t173 -68q56 0 116 26.5t87.5 47t50.5 41.5v717q0 19 7.5 27t25.5 8h61z" />
<glyph unicode="&#xfc;" horiz-adv-x="1042" d="M342 1167q-38 0 -66 28.5t-28 66.5q0 40 28 68t66 28q40 0 68 -28t28 -68q0 -38 -28 -66.5t-68 -28.5zM686 1167q-38 0 -66 28.5t-28 66.5q0 40 28 68t66 28q40 0 68 -28t28 -68q0 -38 -28 -66.5t-68 -28.5zM860 967q19 0 27 -8t8 -27v-897q0 -19 -8 -27t-27 -8h-53 q-19 0 -27 8t-8 27v65q-133 -116 -289 -116q-148 0 -244 91t-96 244v613q0 19 7.5 27t25.5 8h62q19 0 26.5 -8t7.5 -27v-576q0 -120 67 -188t173 -68q56 0 116 26.5t87.5 47t50.5 41.5v717q0 19 7.5 27t25.5 8h61z" />
<glyph unicode="&#xfd;" horiz-adv-x="952" d="M469 1171q-21 -17 -47 9l-16 20q-22 25 2 47l229 209q21 16 31.5 15.5t21.5 -15.5l33 -39q12 -12 11.5 -25.5t-19.5 -27.5zM180 -512q-53 0 -106 20q-23 9 -28.5 18.5t1.5 24.5l19 52q9 28 38 16q47 -14 74 -14q96 0 144 127l98 274l-336 928q-7 19 -1 26t28 7h61 q18 0 25 -4.5t14 -24.5l272 -756l275 756q7 20 14 24.5t25 4.5h59q40 0 29 -33l-455 -1260q-33 -89 -101 -137.5t-149 -48.5z" />
<glyph unicode="&#xfe;" horiz-adv-x="1046" d="M188 -512q-20 0 -27 7.5t-7 27.5v1978q0 20 7 27.5t27 7.5h60q19 0 27 -7.5t8 -27.5v-639l14 14t22.5 21t28.5 22.5t38.5 24t45 19.5t57.5 15t66 5q190 0 299 -130t109 -364q0 -236 -109.5 -370.5t-302.5 -134.5q-29 0 -56.5 4.5t-49 11t-43 17t-36 19t-30 20.5t-23 19 t-18.5 17.5t-12 11.5v-581q0 -20 -7 -27.5t-26 -7.5h-62zM535 106q141 0 221 100.5t80 278.5q0 176 -80.5 275.5t-220.5 99.5q-136 0 -252 -125v-504q11 -14 29.5 -31t50.5 -40.5t78 -38.5t94 -15z" />
<glyph unicode="&#xff;" horiz-adv-x="952" d="M313 1167q-38 0 -66 28.5t-28 66.5q0 40 28 68t66 28q40 0 68.5 -28t28.5 -68q0 -38 -28.5 -66.5t-68.5 -28.5zM657 1167q-38 0 -66 28.5t-28 66.5q0 40 28 68t66 28q40 0 68.5 -28t28.5 -68q0 -38 -28.5 -66.5t-68.5 -28.5zM180 -512q-53 0 -106 20q-23 9 -28.5 18.5 t1.5 24.5l19 52q9 28 38 16q47 -14 74 -14q96 0 144 127l98 274l-336 928q-7 19 -1 26t28 7h61q18 0 25 -4.5t14 -24.5l272 -756l275 756q7 20 14 24.5t25 4.5h59q40 0 29 -33l-455 -1260q-33 -89 -101 -137.5t-149 -48.5z" />
<glyph unicode="&#x152;" horiz-adv-x="2197" d="M2040 123q35 0 35 -33v-57q0 -33 -35 -33h-762q-35 0 -35 35v215q-85 -129 -214.5 -197.5t-291.5 -68.5q-290 0 -464.5 209t-174.5 575t174.5 575t464.5 209q162 0 291.5 -68.5t214.5 -197.5v215q0 35 35 35h750q32 0 32 -33v-57q0 -33 -32 -33h-652v-541h561 q35 0 35 -34v-56q0 -32 -35 -32h-561v-627h664zM737 106q227 0 366.5 177.5t139.5 484.5t-139.5 484.5t-366.5 177.5t-366.5 -177.5t-139.5 -484.5t139.5 -484.5t366.5 -177.5z" />
<glyph unicode="&#x153;" horiz-adv-x="1753" d="M84 483q0 235 116.5 367.5t319.5 132.5q132 0 229 -58.5t148 -168.5q52 110 147 168.5t218 58.5q194 0 300.5 -133t106.5 -365q0 -33 -6 -42t-29 -9h-669q0 -141 87.5 -235.5t227.5 -94.5q126 0 254 89q30 21 47 -9l29 -53q15 -25 -4 -39q-128 -108 -320 -108 q-135 0 -235 58.5t-154 168.5q-51 -110 -148 -168.5t-229 -58.5q-203 0 -319.5 132t-116.5 367zM213 483q0 -178 82 -278.5t225 -100.5t226 100.5t83 278.5q0 177 -83 277t-226 100t-225 -99.5t-82 -277.5zM965 547l571 2q0 141 -76.5 226t-197.5 85q-128 0 -212.5 -89.5 t-84.5 -223.5z" />
<glyph unicode="&#x178;" horiz-adv-x="1075" d="M369 1659q-38 0 -66.5 28t-28.5 66q0 39 28 67.5t67 28.5q40 0 68 -28t28 -68q0 -38 -28 -66t-68 -28zM713 1659q-38 0 -66.5 28t-28.5 66q0 39 28 67.5t67 28.5q40 0 68 -28t28 -68q0 -38 -28 -66t-68 -28zM905 1509q13 27 45 27h70q36 0 18 -35l-434 -796v-670 q0 -35 -35 -35h-63q-35 0 -35 35v670l-434 796q-10 17 -6.5 26t22.5 9h72q30 0 45 -27l367 -696z" />
<glyph unicode="&#x2c6;" horiz-adv-x="632" d="M315 1739l-163 -178q-28 -28 -54 -5l-28 31q-15 15 -15.5 25t17.5 28l221 203q23 26 45 0l221 -203q16 -16 16.5 -28t-12.5 -23l-31 -30q-14 -14 -24.5 -14.5t-28.5 16.5z" />
<glyph unicode="&#x2dc;" horiz-adv-x="684" d="M479 1536q-48 1 -97 23.5t-90 44.5t-71 22q-55 3 -106 -74q-11 -17 -31 -6l-53 33q-19 12 -8 31q69 123 188 123q54 -1 135.5 -46t120.5 -45q57 -3 108 74q11 17 31 6l53 -32q18 -12 7 -31q-69 -123 -187 -123z" />
<glyph unicode="&#x2000;" horiz-adv-x="997" />
<glyph unicode="&#x2001;" horiz-adv-x="1995" />
<glyph unicode="&#x2002;" horiz-adv-x="997" />
<glyph unicode="&#x2003;" horiz-adv-x="1995" />
<glyph unicode="&#x2004;" horiz-adv-x="665" />
<glyph unicode="&#x2005;" horiz-adv-x="498" />
<glyph unicode="&#x2006;" horiz-adv-x="332" />
<glyph unicode="&#x2007;" horiz-adv-x="332" />
<glyph unicode="&#x2008;" horiz-adv-x="249" />
<glyph unicode="&#x2009;" horiz-adv-x="399" />
<glyph unicode="&#x200a;" horiz-adv-x="110" />
<glyph unicode="&#x2010;" horiz-adv-x="716" d="M135 504q-26 0 -26 33v57q0 33 26 33h447q26 0 26 -33v-57q0 -33 -26 -33h-447z" />
<glyph unicode="&#x2011;" horiz-adv-x="716" d="M135 504q-26 0 -26 33v57q0 33 26 33h447q26 0 26 -33v-57q0 -33 -26 -33h-447z" />
<glyph unicode="&#x2012;" horiz-adv-x="716" d="M135 504q-26 0 -26 33v57q0 33 26 33h447q26 0 26 -33v-57q0 -33 -26 -33h-447z" />
<glyph unicode="&#x2013;" horiz-adv-x="1155" d="M143 504q-19 0 -26.5 7t-7.5 26v55q0 19 7.5 26t26.5 7h869q19 0 27 -7.5t8 -25.5v-55q0 -18 -8 -25.5t-27 -7.5h-869z" />
<glyph unicode="&#x2014;" horiz-adv-x="1415" d="M143 504q-19 0 -26.5 7t-7.5 26v55q0 19 7.5 26t26.5 7h1129q19 0 27 -7.5t8 -25.5v-55q0 -18 -8 -25.5t-27 -7.5h-1129z" />
<glyph unicode="&#x2018;" horiz-adv-x="389" d="M293 1221q0 -39 -26 -66t-68 -27q-46 0 -74.5 30.5t-28.5 90.5q0 62 32 136.5t87 140.5q20 25 31 18l24 -18q15 -9 -4 -31q-67 -108 -67 -147q0 -25 24 -33q70 -29 70 -94z" />
<glyph unicode="&#x2019;" horiz-adv-x="389" d="M94 1460q0 39 26 65.5t68 26.5q46 0 74.5 -30t28.5 -90q0 -62 -32 -136.5t-87 -140.5q-20 -25 -31 -18l-24 18q-15 9 4 31q67 108 67 147q0 25 -24 33q-70 29 -70 94z" />
<glyph unicode="&#x201a;" horiz-adv-x="389" d="M94 90q0 39 26 65.5t68 26.5q46 0 74.5 -30.5t28.5 -90.5q0 -62 -32 -136t-87 -140q-20 -25 -31 -18l-24 18q-15 9 4 31q67 108 67 147q0 25 -24 33q-70 29 -70 94z" />
<glyph unicode="&#x201c;" horiz-adv-x="636" d="M287 1229q0 -39 -26 -65.5t-68 -26.5q-46 0 -74.5 30t-28.5 90q0 62 32 136.5t87 140.5q20 25 31 18l24 -18q15 -9 -4 -31q-67 -108 -67 -147q0 -25 24 -33q70 -29 70 -94zM543 1229q0 -39 -26 -65.5t-68 -26.5q-46 0 -74.5 30t-28.5 90q0 62 32 136.5t87 140.5 q20 25 31 18l24 -18q15 -9 -4 -31q-67 -108 -67 -147q0 -25 24 -33q70 -29 70 -94z" />
<glyph unicode="&#x201d;" horiz-adv-x="643" d="M94 1460q0 39 26 65.5t68 26.5q46 0 74.5 -30t28.5 -90q0 -62 -32 -136.5t-87 -140.5q-20 -25 -31 -18l-24 18q-15 9 4 31q67 108 67 147q0 25 -24 33q-70 29 -70 94zM350 1460q0 39 26 65.5t68 26.5q46 0 74.5 -30t28.5 -90q0 -62 -32 -136.5t-87 -140.5 q-20 -25 -31 -18l-24 18q-15 9 4 31q67 108 67 147q0 25 -24 33q-70 29 -70 94z" />
<glyph unicode="&#x201e;" horiz-adv-x="643" d="M94 70q0 39 26 65.5t68 26.5q46 0 74.5 -30.5t28.5 -90.5q0 -62 -32 -136.5t-87 -140.5q-20 -25 -31 -18l-24 18q-15 9 4 31q67 108 67 148q0 24 -24 32q-70 29 -70 95zM350 70q0 39 26 65.5t68 26.5q46 0 74.5 -30.5t28.5 -90.5q0 -62 -32 -136.5t-87 -140.5 q-20 -25 -31 -18l-24 18q-15 9 4 31q67 108 67 148q0 24 -24 32q-70 29 -70 95z" />
<glyph unicode="&#x2022;" horiz-adv-x="518" d="M72 752q0 78 54 132t132 54t132 -54t54 -132t-54 -132.5t-132 -54.5t-132 54.5t-54 132.5z" />
<glyph unicode="&#x2026;" horiz-adv-x="1130" d="M94 86q0 40 27 68t67 28t68.5 -28t28.5 -68q0 -39 -28.5 -66.5t-68.5 -27.5t-67 27t-27 67zM469 86q0 40 27 68t67 28t68 -28t28 -68t-28 -67t-68 -27t-67 27t-27 67zM848 86q0 40 27 68t67 28t68 -28t28 -68t-28 -67t-68 -27t-67 27t-27 67z" />
<glyph unicode="&#x202f;" horiz-adv-x="399" />
<glyph unicode="&#x2039;" horiz-adv-x="612" d="M115 489q-23 23 0 46l366 356q12 11 23.5 6.5t11.5 -18.5v-103q0 -21 -20 -43l-230 -221l230 -221q20 -22 20 -43v-103q0 -14 -11.5 -18.5t-23.5 6.5z" />
<glyph unicode="&#x203a;" horiz-adv-x="612" d="M500 489l-367 -356q-12 -11 -23.5 -6.5t-11.5 18.5v103q0 20 21 43l229 221l-229 221q-21 23 -21 43v103q0 14 11.5 18.5t23.5 -6.5l367 -356q23 -23 0 -46z" />
<glyph unicode="&#x205f;" horiz-adv-x="498" />
<glyph unicode="&#x20ac;" horiz-adv-x="1320" d="M1208 240l39 -43q23 -23 0 -45q-165 -168 -426 -168q-251 0 -417.5 158.5t-208.5 443.5h-154q-19 0 -27 7t-8 25v46q0 32 35 32h143q-2 23 -2 72q0 59 2 88h-143q-19 0 -27 7.5t-8 25.5v45q0 33 35 33h158q44 277 209.5 431t412.5 154q261 0 426 -168q23 -22 0 -45 l-39 -43q-19 -22 -45 0q-143 134 -342 134q-186 0 -316 -122t-171 -341h459q18 0 25 -7.5t7 -25.5v-45q0 -19 -6.5 -26t-25.5 -7h-474q-4 -58 -4 -88q0 -49 2 -72h476q18 0 25 -7t7 -25v-46q0 -19 -6.5 -25.5t-25.5 -6.5h-463q39 -227 170.5 -353.5t320.5 -126.5 q199 0 342 134q26 22 45 0z" />
<glyph unicode="&#x2122;" horiz-adv-x="1253" d="M109 1522q0 14 16 14h338q16 0 16 -14v-54q0 -14 -16 -14h-125v-481q0 -19 -16 -19h-54q-16 0 -16 19v481h-127q-16 0 -16 14v54zM840 954q-14 0 -19 13l-151 376l-31 -368q0 -21 -18 -21h-50q-16 0 -16 19l45 547q2 16 16 16h39q14 0 17 -10l178 -451l178 451 q3 10 16 10h39q6 0 10.5 -4t5.5 -8l1 -4l45 -545q1 -21 -17 -21h-49q-8 0 -12.5 5t-4.5 11l-1 5l-33 371l-149 -379q-5 -13 -19 -13h-20z" />
<glyph unicode="&#x25fc;" horiz-adv-x="962" d="M0 963h963v-963h-963v963z" />
<glyph unicode="&#xfb01;" horiz-adv-x="1058" d="M246 0q-19 0 -27 8t-8 27v821h-123q-19 0 -26 7t-7 26v45q0 18 7.5 25.5t25.5 7.5h123v207q0 169 101.5 273.5t265.5 104.5q202 0 311 -139q18 -23 20 -34t-12 -29l-33 -31q-22 -26 -47 2q-17 20 -32.5 34.5t-43.5 34.5t-66 31t-83 11q-113 0 -182.5 -74t-69.5 -191v-200 h547q19 0 27 -8t8 -27v-897q0 -19 -8 -27t-27 -8h-62q-18 0 -25 8t-7 27v821h-453v-821q0 -19 -7.5 -27t-25.5 -8h-61z" />
<glyph unicode="&#xfb02;" horiz-adv-x="1241" d="M246 0q-19 0 -27 8t-8 27v821h-123q-19 0 -26 7t-7 26v45q0 18 7.5 25.5t25.5 7.5h123v207q0 169 101.5 273.5t265.5 104.5q151 0 251 -84l48 60q13 13 29 5.5t16 -26.5v-1183q0 -95 55 -148t153 -53h9q19 0 27 -8t8 -27v-55q0 -18 -8 -25.5t-27 -7.5h-21 q-154 0 -239.5 85t-85.5 237v534h-453v-821q0 -19 -7.5 -27t-25.5 -8h-61zM340 967h453v381q-88 84 -201 84q-110 0 -181 -70.5t-71 -185.5v-209z" />
<glyph unicode="&#xfb03;" horiz-adv-x="1630" d="M55 889v45q0 18 7.5 25.5t25.5 7.5h113v161q0 159 95.5 258t246.5 99q51 0 98.5 -13t78.5 -31.5t55 -36.5t35 -31l11 -13q3 8 10.5 21t35.5 46t62.5 58t95.5 46t132 21q188 0 301 -139q18 -23 20 -34t-12 -29l-32 -31q-23 -26 -48 2q-94 111 -221 111q-110 0 -183 -70.5 t-73 -185.5v-209h549q18 0 25.5 -8t7.5 -27v-897q0 -19 -7.5 -27t-25.5 -8h-61q-19 0 -27 8t-8 27v821h-453v-821q0 -19 -7 -27t-25 -8h-62q-18 0 -25.5 8t-7.5 27v821h-452v-821q0 -19 -8 -27t-27 -8h-62q-18 0 -25 8t-7 27v821h-113q-19 0 -26 7t-7 26zM330 967h452v250 q-3 6 -9 15.5t-28 34.5t-46.5 44.5t-64.5 35t-83 15.5q-97 0 -159 -65.5t-62 -170.5v-159z" />
<glyph unicode="&#xfb04;" horiz-adv-x="1812" d="M55 889v45q0 18 7.5 25.5t25.5 7.5h113v161q0 159 95.5 258t246.5 99q51 0 98.5 -13t78.5 -31.5t55 -36.5t35 -31l11 -13q4 8 11 21t35.5 46t63 58t95.5 46t131 21q142 0 244 -82l45 58q15 13 30 5.5t15 -26.5v-1183q0 -95 55.5 -148t153.5 -53h10q18 0 25.5 -8t7.5 -27 v-55q0 -19 -7 -26t-26 -7h-22q-154 0 -240 85t-86 237v534h-453v-821q0 -19 -7 -27t-25 -8h-62q-18 0 -25.5 8t-7.5 27v821h-452v-821q0 -19 -8 -27t-27 -8h-62q-18 0 -25 8t-7 27v821h-113q-19 0 -26 7t-7 26zM909 967h453v379q-86 86 -199 86q-109 -2 -181.5 -72 t-72.5 -184v-209zM330 967h452v250q-3 6 -9 15.5t-28 34.5t-46.5 44.5t-64.5 35t-83 15.5q-97 0 -159 -65.5t-62 -170.5v-159z" />
</font>
</defs>
</svg>
