<?xml version="1.0" standalone="no"?>
<!DOCTYPE svg PUBLIC "-//W3C//DTD SVG 1.1//EN" "http://www.w3.org/Graphics/SVG/1.1/DTD/svg11.dtd" >
<svg xmlns="http://www.w3.org/2000/svg">
<metadata></metadata>
<defs>
<font id="merlo_neuebold_italic" horiz-adv-x="1230" >
<font-face units-per-em="2048" ascent="1536" descent="-512" />
<missing-glyph horiz-adv-x="442" />
<glyph horiz-adv-x="0" />
<glyph horiz-adv-x="682" />
<glyph unicode=" "  horiz-adv-x="442" />
<glyph unicode="&#x09;" horiz-adv-x="442" />
<glyph unicode="&#xa0;" horiz-adv-x="442" />
<glyph unicode="!" horiz-adv-x="526" d="M168 502q-55 0 -49 53l86 926q6 55 59 55h275q57 0 45 -55l-172 -926q-9 -53 -66 -53h-178zM18 152q0 91 66.5 157t155.5 66q75 0 124.5 -50.5t49.5 -123.5q0 -89 -68.5 -153t-159.5 -64q-74 0 -121 48t-47 120z" />
<glyph unicode="&#x22;" horiz-adv-x="770" d="M432 1536q27 0 37.5 -16t1.5 -45l-117 -388q-8 -26 -27.5 -44t-42.5 -22.5t-45 0t-36.5 22.5t-14.5 44l-6 388q0 61 54 61h196zM811 1536q27 0 37.5 -16t1.5 -45l-117 -388q-10 -33 -37 -51.5t-55.5 -18.5t-50.5 18.5t-23 51.5l-6 388q0 61 53 61h197z" />
<glyph unicode="#" horiz-adv-x="1599" d="M831 356h-192l-78 -297q-15 -59 -72 -59h-190q-57 0 -41 55l80 301h-248q-53 0 -47 56l27 186q9 55 61 55h285l53 205h-254q-53 0 -47 55l27 187q9 55 63 55h289l57 219q15 60 70 60h190q29 0 41 -15t4 -41l-59 -223h188l60 219q15 60 71 60h189q58 0 45 -56l-60 -223 h228q53 0 47 -55l-27 -187q-9 -55 -61 -55h-264l-56 -205h236q53 0 47 -55l-27 -186q-9 -56 -63 -56h-270l-78 -297q-12 -59 -72 -59h-188q-56 0 -43 55zM717 653h192l54 205h-191z" />
<glyph unicode="$" horiz-adv-x="1185" d="M772 1239q-78 0 -128 -35.5t-50 -87.5q0 -35 30 -65.5t77.5 -55.5t105.5 -52.5t115.5 -66t105 -86t77.5 -121t30 -163.5q0 -177 -104.5 -307t-278.5 -187l-21 -145q-9 -53 -63 -53h-285q-53 0 -47 53l16 119q-206 37 -352 157q-10 8 -10.5 23t10.5 33l147 198q27 38 64 9 q129 -109 293 -109q92 0 143 37t51 96q0 41 -30 76.5t-77.5 64t-105 58t-115 68t-105 84.5t-77.5 116.5t-30 155.5q0 176 112 305.5t301 179.5l17 117q9 55 61 55h285q56 0 47 -55l-16 -115q93 -22 158.5 -56.5t84.5 -56.5q20 -20 2 -49l-145 -207q-10 -14 -27 -16t-30 6 q-132 78 -236 78z" />
<glyph unicode="%" horiz-adv-x="1447" d="M406 1022q-101 0 -167.5 69.5t-66.5 170.5q0 122 93.5 212.5t215.5 90.5q102 0 169 -69.5t67 -170.5q0 -123 -93.5 -213t-217.5 -90zM162 0q-29 0 -43 15t0 40l874 1422q14 24 21.5 34t20 17.5t30.5 7.5h278q32 0 45.5 -15.5t-2.5 -43.5l-872 -1418q-17 -27 -22.5 -34.5 t-19 -16t-32.5 -8.5h-278zM434 1214q33 0 60.5 27t27.5 62q0 28 -19 47.5t-48 19.5q-34 0 -60 -26t-26 -60q0 -29 18.5 -49.5t46.5 -20.5zM1028 -25q-101 0 -167 69.5t-66 170.5q0 122 93.5 212.5t215.5 90.5q102 0 168.5 -69t66.5 -170q0 -124 -93.5 -214t-217.5 -90z M1057 168q33 0 60.5 26.5t27.5 61.5q0 28 -19.5 48t-48.5 20q-34 0 -60 -26t-26 -60q0 -29 18.5 -49.5t47.5 -20.5z" />
<glyph unicode="&#x26;" horiz-adv-x="1400" d="M557 -27q-103 0 -195 26t-163 74.5t-112.5 125.5t-41.5 172q0 77 24.5 149t66 127.5t85.5 96.5t92 71q-58 47 -98.5 124t-40.5 173q0 100 47 186.5t125.5 144t180.5 90t212 32.5q138 0 240.5 -51.5t148.5 -129.5q14 -19 13.5 -38.5t-21.5 -38.5l-141 -131q-43 -40 -70 -9 q-75 86 -161 86q-77 0 -129 -45.5t-52 -117.5q0 -60 37 -103.5t101 -50.5q26 -2 38.5 -13t8.5 -40l-23 -160q-7 -51 -63 -55q-89 -5 -153 -68.5t-64 -157.5q0 -73 50.5 -116t131.5 -43q90 0 154.5 51.5t76.5 132.5l45 278q9 56 62 56h393q56 0 47 -56l-25 -178 q-6 -55 -63 -55h-119l-10 -72q-12 -93 -62 -177t-130 -148.5t-195 -103t-248 -38.5z" />
<glyph unicode="'" horiz-adv-x="391" d="M188 1087l-6 388q0 61 54 61h196q27 0 37.5 -16t1.5 -45l-117 -388q-8 -26 -27.5 -44t-42.5 -22.5t-45 0t-36.5 22.5t-14.5 44z" />
<glyph unicode="(" horiz-adv-x="753" d="M522 289q-7 -33 -4.5 -66.5t12.5 -61t43.5 -46.5t88.5 -23q56 -3 47 -53l-29 -207q-9 -55 -62 -55q-278 1 -398 123.5t-87 353.5l129 917q33 230 187 352.5t432 125.5q53 0 47 -56l-29 -207q-9 -50 -63 -53q-81 -6 -132 -61.5t-65 -149.5z" />
<glyph unicode=")" horiz-adv-x="753" d="M74 -223q-56 0 -47 55l28 207q9 50 62 53q46 3 80 16.5t54 31.5t33.5 45.5t19 50t9.5 53.5l117 833q14 94 -23 150.5t-116 60.5q-54 3 -45 53l28 207q9 56 62 56q278 -1 398 -124.5t87 -353.5l-129 -917q-67 -471 -618 -477z" />
<glyph unicode="*" horiz-adv-x="849" d="M938 1483q10 -56 -47 -74l-123 -37l57 -100q13 -22 7 -43.5t-29 -36.5l-148 -98q-50 -32 -77 14l-58 98l-86 -98q-41 -44 -84 -14l-119 96q-45 36 -2 82l88 100l-112 39q-25 7 -32 26.5t5 45.5l74 155q24 56 76 37l112 -37l17 123q9 58 65 58h164q28 0 41.5 -15.5 t9.5 -42.5l-18 -123l121 37q58 18 67 -37z" />
<glyph unicode="+" horiz-adv-x="1038" d="M973 893q53 0 47 -55l-23 -160q-9 -55 -63 -55h-264l-39 -275q-6 -55 -62 -55h-168q-56 0 -47 55l39 275h-266q-53 0 -47 55l22 160q9 55 64 55h264l39 276q9 54 63 54h168q54 0 48 -54l-39 -276h264z" />
<glyph unicode="," horiz-adv-x="520" d="M6 147q0 96 63.5 162t159.5 66q74 0 123 -47.5t49 -134.5q0 -118 -92.5 -274t-202.5 -263q-34 -34 -55 -18l-69 55q-23 18 4 53q5 6 28 32.5t39 47t36 48.5t31 52t11 41q0 11 -6 19t-10 11t-15 9q-94 38 -94 141z" />
<glyph unicode="-" horiz-adv-x="862" d="M94 420q-49 0 -43 55l25 164q6 55 57 55h639q52 0 43 -55l-22 -164q-9 -55 -58 -55h-641z" />
<glyph unicode="." horiz-adv-x="512" d="M8 152q0 91 66 157t155 66q75 0 124.5 -50.5t49.5 -123.5q0 -90 -68 -153.5t-159 -63.5q-74 0 -121 48t-47 120z" />
<glyph unicode="/" horiz-adv-x="657" d="M25 0q-56 0 -43 55l374 1422q15 59 72 59h279q57 0 41 -59l-373 -1418q-18 -59 -72 -59h-278z" />
<glyph unicode="0" horiz-adv-x="1329" d="M586 -27q-238 0 -366 162.5t-128 458.5q0 293 84 511t247 338t386 120q237 0 365.5 -162.5t128.5 -458.5q0 -293 -84 -511t-247 -338t-386 -120zM639 289q268 0 268 680q0 288 -153 288q-57 0 -103.5 -34t-85 -110t-59.5 -213.5t-21 -328.5q0 -282 154 -282z" />
<glyph unicode="1" horiz-adv-x="868" d="M338 0q-55 0 -49 55l147 1045l-139 -121q-41 -35 -68 0l-123 139q-34 34 11 72l372 321q28 25 64 25h287q56 0 47 -55l-201 -1426q-9 -55 -61 -55h-287z" />
<glyph unicode="2" horiz-adv-x="1071" d="M51 0q-56 0 -47 55l35 260q13 92 55.5 174.5t100.5 143t125 115t131.5 100.5t117 89.5t85 91.5t32.5 97t-33 82t-90 33q-52 0 -99.5 -26t-105.5 -76q-40 -34 -65 6l-103 145q-26 36 17 76q205 197 481 197q189 0 296.5 -96t107.5 -259q0 -85 -26.5 -160.5t-69.5 -130 t-99 -106.5t-115 -92t-117 -84t-104.5 -83.5t-78 -90t-38.5 -105.5l-6 -41h484q53 0 47 -53l-29 -207q-9 -55 -63 -55h-826z" />
<glyph unicode="3" horiz-adv-x="1099" d="M432 -27q-154 0 -265.5 55.5t-170.5 131.5q-32 42 10 78l156 137q44 36 74 2q48 -48 89.5 -71t94.5 -23q92 0 152.5 59t60.5 154q0 76 -44.5 122.5t-111.5 49.5q-26 2 -38 13.5t-9 41.5l23 160q7 49 61 53q76 7 128 63.5t52 128.5q0 57 -36 91t-93 34q-81 0 -182 -86 q-22 -17 -36 -14.5t-32 23.5l-106 131q-24 32 14 77q68 77 189.5 129t255.5 52q186 0 310 -98t124 -255q0 -85 -39.5 -167.5t-89.5 -136.5t-107 -93q64 -48 111 -142.5t47 -207.5q0 -143 -79 -256.5t-214 -174.5t-299 -61z" />
<glyph unicode="4" horiz-adv-x="1228" d="M629 0q-53 0 -47 55l39 267h-590q-56 0 -47 55l22 158q6 51 41 92l713 868q35 41 80 41h293q56 0 47 -55l-121 -856h88q55 0 49 -56l-29 -192q-6 -55 -61 -55h-88l-39 -267q-6 -55 -61 -55h-289zM426 625h236l57 401z" />
<glyph unicode="5" horiz-adv-x="1146" d="M666 1014q196 0 307.5 -113t111.5 -313q0 -272 -177.5 -443.5t-461.5 -171.5q-78 0 -145 13.5t-109 30.5t-81 45.5t-56 46t-39 43.5q-28 35 11 71l178 160q41 30 65 0q72 -94 193 -94q101 0 163 71t62 185q0 91 -52.5 142.5t-146.5 51.5h-268q-56 0 -47 56l96 686 q6 55 62 55h749q55 0 49 -55l-28 -207q-9 -53 -64 -53h-407l-29 -207h64z" />
<glyph unicode="6" horiz-adv-x="1255" d="M596 -27q-252 0 -385 152t-133 436q0 288 95 515.5t272 357t407 129.5q150 0 257 -53t169 -128q22 -29 -10 -57l-170 -168q-24 -24 -58 0q-35 26 -56.5 39.5t-71 32t-97.5 18.5q-120 0 -200 -102t-101 -260l11 11t32 24.5t54 31t76 24.5t99 11q184 0 301 -117t117 -305 q0 -168 -81.5 -304.5t-220.5 -212t-306 -75.5zM625 276q89 0 144.5 68.5t55.5 171.5q0 77 -41 122.5t-110 45.5q-109 0 -201 -117q-19 -136 21.5 -213.5t130.5 -77.5z" />
<glyph unicode="7" horiz-adv-x="987" d="M664 1206h-482q-53 0 -47 56l31 219q9 55 61 55h830q55 0 49 -55l-27 -185q-7 -50 -22 -75l-621 -1166q-27 -55 -69 -55h-281q-62 0 -35 55z" />
<glyph unicode="8" horiz-adv-x="1224" d="M545 -27q-227 0 -363.5 109t-136.5 289q0 143 85.5 268t213.5 180q-64 41 -101.5 116.5t-37.5 162.5q0 198 155 331.5t402 133.5q202 0 319 -103.5t117 -267.5q0 -117 -63.5 -217.5t-165.5 -155.5q84 -40 132 -133.5t48 -206.5q0 -147 -77 -263t-215 -179.5t-312 -63.5z M678 971q66 0 114 47.5t48 122.5q0 59 -34 93t-87 34q-67 0 -114.5 -46.5t-47.5 -123.5q0 -57 34.5 -92t86.5 -35zM582 283q87 0 145.5 57.5t58.5 148.5q0 70 -42.5 114t-110.5 44q-87 0 -146 -59.5t-59 -149.5q0 -70 42.5 -112.5t111.5 -42.5z" />
<glyph unicode="9" horiz-adv-x="1253" d="M465 -27q-150 0 -255.5 53.5t-168.5 129.5q-11 10 -9 26t17 31l170 168q25 25 57 0q119 -90 226 -90q120 0 200 101t103 259l-11 -11t-32.5 -24t-54.5 -30t-77 -24t-100 -11q-184 0 -301.5 117t-117.5 305q0 168 82.5 304t222 211t307.5 75q252 0 385 -152t133 -436 q0 -215 -56 -400t-156.5 -318t-246 -208.5t-317.5 -75.5zM645 852q102 0 201 119q17 136 -23.5 213.5t-130.5 77.5q-88 0 -143 -69.5t-55 -172.5q0 -76 40.5 -122t110.5 -46z" />
<glyph unicode=":" horiz-adv-x="512" d="M102 831q0 90 67.5 156t156.5 66q74 0 123 -50.5t49 -123.5q0 -90 -68 -153.5t-160 -63.5q-73 0 -120.5 48.5t-47.5 120.5zM8 154q0 90 66.5 155.5t156.5 65.5q74 0 123 -49.5t49 -122.5q0 -90 -68 -153.5t-159 -63.5q-74 0 -121 48t-47 120z" />
<glyph unicode=";" horiz-adv-x="573" d="M137 831q0 90 66.5 156t154.5 66q74 0 123 -50.5t49 -123.5q0 -90 -67.5 -153.5t-159.5 -63.5q-73 0 -119.5 48t-46.5 121zM6 147q0 96 63.5 162t159.5 66q74 0 123 -47.5t49 -134.5q0 -118 -92.5 -274t-202.5 -263q-34 -34 -55 -18l-69 55q-23 18 4 53q5 6 28 32.5 t39 47t36 48.5t31 52t11 41q0 11 -6 19t-10 11t-15 9q-94 38 -94 141z" />
<glyph unicode="&#x3c;" horiz-adv-x="610" d="M109 735q-33 36 10 74l473 395q24 17 37.5 10t11.5 -24l-31 -219q-3 -45 -45 -74l-151 -123l116 -127q30 -33 23 -76l-29 -219q-2 -16 -17 -23t-36 11z" />
<glyph unicode="=" horiz-adv-x="1038" d="M160 850q-56 0 -47 55l22 160q6 55 62 55h807q56 0 47 -55l-23 -160q-6 -55 -61 -55h-807zM96 397q-56 0 -47 56l23 159q9 56 61 56h807q55 0 49 -56l-24 -159q-6 -56 -62 -56h-807z" />
<glyph unicode="&#x3e;" horiz-adv-x="612" d="M557 735l-473 -395q-16 -13 -28.5 -13t-17.5 8t-3 17l33 219q3 42 43 76l153 127l-119 123q-32 27 -22 74l31 219q2 17 17 24t36 -10l360 -395q35 -38 -10 -74z" />
<glyph unicode="?" horiz-adv-x="1001" d="M342 502q-25 0 -36 10.5t-11 36.5q0 68 18.5 127.5t47.5 102t64.5 80.5t71 71t64.5 64.5t47.5 69.5t18.5 79q0 59 -34 90t-91 31q-89 0 -203 -97q-38 -35 -66 7l-102 143q-23 36 14 76q78 82 203 138t277 56q189 0 299 -92.5t110 -255.5q0 -75 -19.5 -135.5t-52.5 -103.5 t-72.5 -80t-82.5 -73.5t-80.5 -75.5t-67.5 -94.5t-43 -121.5q-11 -53 -61 -53h-213zM375 -16q-73 0 -120.5 48.5t-47.5 119.5q0 92 66.5 157.5t156.5 65.5q74 0 123 -50.5t49 -123.5q0 -90 -68 -153.5t-159 -63.5z" />
<glyph unicode="@" horiz-adv-x="2404" d="M1346 1561q210 0 391 -70.5t309 -194t201 -297.5t73 -376q0 -198 -57 -364t-152.5 -274.5t-219 -168.5t-259.5 -60q-90 0 -165.5 24.5t-130.5 71t-80.5 119.5t-12.5 164l2 21q-3 -5 -9.5 -13t-29 -28.5t-48.5 -36t-68.5 -28.5t-88.5 -13q-154 0 -241.5 107.5t-87.5 291.5 q0 260 132.5 423t340.5 163q47 0 85.5 -11t60 -27t36.5 -31.5t20 -26.5l5 -11l6 33q6 49 55 49h240q47 0 41 -49l-109 -772v-2q-8 -50 23 -82.5t86 -32.5q70 0 125 55t85.5 139.5t46 172t15.5 166.5q0 305 -180.5 486.5t-485.5 181.5q-250 0 -450 -112t-313 -311t-113 -448 q0 -194 81.5 -346.5t232.5 -238t347 -85.5h2q24 0 32 -9.5t5 -33.5l-30 -221q-3 -24 -14 -33.5t-36 -9.5h-4q-229 0 -413.5 69t-306 192.5t-186 294t-64.5 374.5q0 210 65.5 400.5t184 338t277 256.5t351 166.5t398.5 57.5zM1143 295q32 0 64.5 13.5t49.5 27.5l17 14l49 357 q-4 6 -13 15t-39.5 24.5t-66.5 15.5q-88 0 -141 -78.5t-53 -208.5q0 -87 34.5 -133.5t98.5 -46.5z" />
<glyph unicode="A" horiz-adv-x="1355" d="M-27 0q-55 0 -28 55l665 1426q24 55 78 55h260q57 0 66 -55l262 -1426q9 -55 -47 -55h-295q-56 0 -62 55l-34 267h-383l-109 -267q-21 -55 -76 -55h-297zM582 637h221l-55 399z" />
<glyph unicode="B" horiz-adv-x="1308" d="M92 0q-53 0 -47 55l201 1426q9 55 61 55h565q191 0 301.5 -91.5t110.5 -252.5q0 -107 -48 -210.5t-132 -160.5q133 -90 133 -303q0 -234 -154 -376t-411 -142h-580zM584 950h131q71 0 113 42.5t42 109.5q0 110 -118 110h-131zM494 324h139q98 0 146 51t48 127 q0 69 -40 105t-109 36h-139z" />
<glyph unicode="C" horiz-adv-x="1294" d="M692 -27q-281 0 -440.5 180t-159.5 488q0 200 62 373t169 294t255 190t315 69q88 0 166.5 -18.5t135 -48t93.5 -57.5t64 -57q22 -26 -2 -53l-162 -180q-27 -27 -62 0q-101 88 -223 88q-119 0 -207 -74t-132 -199t-44 -284q0 -189 67 -288t199 -99q114 0 226 72 q38 23 57 -13l102 -184q19 -31 -12 -53q-79 -60 -200.5 -103t-266.5 -43z" />
<glyph unicode="D" horiz-adv-x="1497" d="M92 0q-53 0 -47 55l201 1426q9 55 61 55h535q301 0 463.5 -159t162.5 -482q0 -195 -54.5 -358.5t-158 -283t-263 -186.5t-359.5 -67h-541zM494 324h170q121 0 214 72.5t142 196.5t49 279q0 185 -76.5 262.5t-224.5 77.5h-150z" />
<glyph unicode="E" horiz-adv-x="1171" d="M92 0q-53 0 -47 55l201 1426q9 55 61 55h846q55 0 49 -55l-31 -213q-9 -56 -63 -56h-490l-36 -262h407q56 0 47 -53l-26 -207q-9 -55 -64 -55h-407l-45 -311h510q56 0 47 -56l-29 -213q-9 -55 -64 -55h-866z" />
<glyph unicode="F" horiz-adv-x="1093" d="M92 0q-53 0 -47 55l201 1426q9 55 61 55h813q56 0 47 -55l-30 -213q-9 -56 -62 -56h-457l-40 -303h366q56 0 47 -53l-30 -207q-6 -55 -62 -55h-367l-75 -539q-6 -55 -62 -55h-303z" />
<glyph unicode="G" horiz-adv-x="1452" d="M92 641q0 200 62 373t170 294t257.5 190t319.5 69q90 0 172 -18.5t140.5 -48t98.5 -58t66 -56.5q26 -26 -2 -53l-162 -180q-26 -29 -59 0q-107 88 -244 88q-123 0 -212.5 -74t-134 -199t-44.5 -284q0 -189 68 -288t203 -99q76 0 141.5 33t97.5 82l19 135h-207 q-53 0 -47 55l28 207q9 53 64 53h467q56 0 47 -53l-62 -453q-21 -152 -204 -267.5t-430 -115.5q-289 0 -451 179.5t-162 488.5z" />
<glyph unicode="H" horiz-adv-x="1544" d="M92 0q-53 0 -47 55l201 1426q9 55 61 55h301q55 0 49 -55l-75 -533h493l76 533q9 55 61 55h301q56 0 50 -55l-201 -1426q-9 -55 -64 -55h-301q-53 0 -47 55l82 570h-495l-80 -570q-9 -55 -64 -55h-301z" />
<glyph unicode="I" horiz-adv-x="638" d="M92 0q-53 0 -47 55l201 1426q9 55 61 55h301q55 0 49 -55l-200 -1426q-9 -55 -64 -55h-301z" />
<glyph unicode="J" horiz-adv-x="1114" d="M393 -27q-139 0 -248 45t-168 121q-21 28 11 60l182 184q32 32 59 2q90 -90 181 -90q68 0 117 46.5t61 127.5l141 1012q9 55 62 55h303q56 0 47 -55l-140 -996q-32 -231 -197.5 -371.5t-410.5 -140.5z" />
<glyph unicode="K" horiz-adv-x="1441" d="M92 0q-53 0 -47 55l201 1426q9 55 61 55h303q56 0 47 -55l-71 -512l438 536q28 31 61 31h379q27 0 33.5 -15t-12.5 -38l-541 -637l391 -780q14 -29 6 -47.5t-36 -18.5h-379q-40 0 -56 31l-239 481l-127 -135l-47 -322q-6 -55 -62 -55h-303z" />
<glyph unicode="L" horiz-adv-x="1085" d="M92 0q-53 0 -47 55l201 1426q9 55 61 55h301q55 0 49 -55l-163 -1157h464q57 0 48 -56l-31 -213q-6 -55 -62 -55h-821z" />
<glyph unicode="M" horiz-adv-x="1910" d="M43 0q-59 0 -47 55l362 1426q12 55 62 55h317q41 0 47 -39l179 -899l432 899q17 39 57 39h317q50 0 50 -55l-41 -1426q0 -55 -62 -55h-289q-53 0 -47 55l56 779l-375 -791q-18 -43 -64 -43h-233q-47 0 -53 43l-152 791l-164 -779q-12 -55 -63 -55h-289z" />
<glyph unicode="N" horiz-adv-x="1509" d="M92 0q-53 0 -47 55l201 1426q9 55 61 55h250q34 0 53 -31l420 -751l103 727q6 55 61 55h287q56 0 47 -55l-201 -1426q-6 -55 -61 -55h-250q-36 0 -58 39l-413 752l-103 -736q-9 -55 -63 -55h-287z" />
<glyph unicode="O" horiz-adv-x="1587" d="M924 1563q309 0 470.5 -175t161.5 -499q0 -275 -99 -482t-287 -320.5t-443 -113.5q-307 0 -469 176.5t-162 499.5q0 274 99 480.5t287 320t442 113.5zM774 295q170 0 262 153.5t92 419.5q0 373 -247 373q-171 0 -265 -154t-94 -419q0 -184 63.5 -278.5t188.5 -94.5z" />
<glyph unicode="P" horiz-adv-x="1320" d="M92 0q-53 0 -47 55l201 1424q9 55 61 55h535q241 0 375.5 -125.5t134.5 -329.5q0 -118 -47 -221.5t-131 -179.5t-208 -120t-270 -44h-174l-65 -459q-6 -55 -62 -55h-303zM567 836h142q115 0 173 57.5t58 150.5q0 166 -178 166h-141z" />
<glyph unicode="Q" horiz-adv-x="1587" d="M1139 70l176 -383q11 -26 -2 -41t-35 -15h-279q-51 0 -71 45l-135 299q-23 -2 -66 -2q-307 0 -469 176.5t-162 499.5q0 274 99 480.5t287 320t442 113.5q309 0 470.5 -175t161.5 -499q0 -288 -108.5 -500.5t-308.5 -318.5zM522 668q0 -184 63.5 -278.5t188.5 -94.5 q170 0 262 153.5t92 419.5q0 373 -247 373q-171 0 -265 -154t-94 -419z" />
<glyph unicode="R" horiz-adv-x="1376" d="M92 0q-53 0 -47 55l201 1426q9 53 61 53h533q241 0 377.5 -115.5t136.5 -310.5q0 -167 -82 -283.5t-221 -171.5l200 -606q8 -24 -6 -38.5t-35 -14.5h-344q-45 0 -57 39l-170 542h-109l-73 -520q-6 -55 -62 -55h-303zM573 879h164q103 0 154 52.5t51 137.5q0 67 -39 105 t-119 38h-163z" />
<glyph unicode="S" horiz-adv-x="1185" d="M500 -27q-94 0 -180.5 19t-151 50.5t-101 54t-67.5 46.5q-10 8 -10.5 23t10.5 33l147 198q27 38 64 9q129 -109 293 -109q92 0 143 37t51 96q0 41 -30 76.5t-77.5 64t-105 58t-115 68t-105 84.5t-77.5 116.5t-30 155.5q0 147 80 264t220.5 181.5t315.5 64.5q90 0 172 -17 t135 -42t84 -44.5t43 -32.5q20 -20 2 -49l-145 -207q-10 -14 -27 -16t-30 6q-132 78 -236 78q-78 0 -128 -35.5t-50 -87.5q0 -35 30 -65.5t77.5 -55.5t105.5 -52.5t115.5 -66t105 -86t77.5 -121t30 -163.5q0 -158 -85.5 -280.5t-229.5 -187.5t-320 -65z" />
<glyph unicode="T" horiz-adv-x="1181" d="M362 0q-56 0 -47 55l164 1162h-327q-57 0 -48 53l31 211q9 55 62 55h1067q56 0 47 -55l-29 -211q-9 -53 -61 -53h-332l-164 -1162q-6 -55 -61 -55h-302z" />
<glyph unicode="U" horiz-adv-x="1476" d="M657 -27q-315 0 -456.5 162.5t-94.5 491.5l119 854q9 55 62 55h301q58 0 49 -55l-127 -897q-21 -151 31.5 -220t160.5 -69q110 0 182 69t93 220l125 897q9 55 61 55h303q56 0 47 -55l-118 -854q-47 -329 -234.5 -491.5t-503.5 -162.5z" />
<glyph unicode="V" horiz-adv-x="1413" d="M471 0q-54 0 -59 41l-273 1440q-11 55 43 55h297q61 0 66 -55l143 -1086l445 1086q24 55 81 55h297q54 0 29 -55l-676 -1440q-19 -41 -71 -41h-322z" />
<glyph unicode="W" horiz-adv-x="2056" d="M158 1481q-3 28 10.5 41.5t46.5 13.5h307q49 0 49 -55l52 -867l329 875q18 47 68 47h295q51 0 57 -47l84 -875l293 867q18 55 63 55h310q64 0 43 -55l-561 -1426q-21 -55 -70 -55h-307q-44 0 -47 43l-95 899l-346 -899q-18 -43 -61 -43h-307q-48 0 -54 55z" />
<glyph unicode="X" horiz-adv-x="1316" d="M-31 0q-64 0 -24 55l497 723l-278 703q-21 55 41 55h321q42 0 60 -43l147 -430l268 430q25 43 70 43h322q63 0 26 -55l-475 -703l295 -723q21 -55 -41 -55h-319q-46 0 -60 43l-166 453l-293 -453q-28 -43 -71 -43h-320z" />
<glyph unicode="Y" horiz-adv-x="1294" d="M1018 1493q27 43 69 43h302q31 0 38 -16.5t-10 -42.5l-549 -828l-82 -594q-9 -55 -63 -55h-301q-56 0 -47 55l84 594l-316 832q-21 55 39 55h305q48 0 60 -43l164 -504z" />
<glyph unicode="Z" horiz-adv-x="1124" d="M29 0q-56 0 -47 55l30 209q2 31 31 72l702 885h-552q-57 0 -48 53l29 207q9 55 62 55h929q55 0 49 -55l-30 -224q-5 -34 -29 -65l-706 -877h542q53 0 47 -53l-28 -207q-9 -55 -64 -55h-917z" />
<glyph unicode="[" horiz-adv-x="817" d="M90 -440q-56 0 -47 55l281 1997q9 55 61 55h561q55 0 49 -55l-30 -207q-6 -53 -62 -53h-231l-209 -1477h231q56 0 47 -53l-26 -207q-9 -55 -64 -55h-561z" />
<glyph unicode="\" horiz-adv-x="856" d="M410 0q-58 0 -64 59l-174 1414q-10 63 49 63h279q54 0 63 -59l174 -1422q6 -55 -49 -55h-278z" />
<glyph unicode="]" horiz-adv-x="817" d="M43 -440q-53 0 -47 55l29 207q9 53 61 53h233l207 1477h-231q-56 0 -47 53l28 207q9 55 62 55h561q55 0 49 -55l-280 -1997q-9 -55 -64 -55h-561z" />
<glyph unicode="^" horiz-adv-x="1030" d="M621 1286l-285 -276q-41 -44 -76 -2l-86 96q-36 39 12 76l435 366q42 33 71 0l334 -366q35 -38 -10 -76l-115 -96q-44 -38 -74 2z" />
<glyph unicode="_" horiz-adv-x="1179" d="M-23 -55q9 55 62 55h950q53 0 47 -55l-22 -164q-9 -55 -64 -55h-948q-56 0 -47 55z" />
<glyph unicode="`" horiz-adv-x="944" d="M510 1524l-320 266q-35 33 5 76l120 123q41 45 76 4l283 -303q30 -30 -10 -70l-78 -80q-23 -24 -39 -28t-37 12z" />
<glyph unicode="a" d="M1149 1067q58 0 49 -55l-135 -957q-8 -55 -64 -55h-282q-29 0 -40 13t-7 42l4 25q-35 -37 -104 -72t-156 -35q-167 0 -264 125.5t-97 345.5q0 140 39.5 262t107 206.5t158.5 133t191 48.5q92 0 156.5 -34.5t95.5 -72.5l4 25q6 55 61 55h283zM707 322l59 419 q-58 50 -117 50q-88 0 -143 -87.5t-55 -222.5q0 -102 34.5 -154.5t98.5 -52.5q54 0 123 48z" />
<glyph unicode="b" d="M821 1094q163 0 259 -123t96 -336q0 -287 -142.5 -474.5t-351.5 -187.5q-156 0 -266 103l-2 -21q-6 -55 -62 -55h-284q-54 0 -48 55l201 1426q8 55 62 55h284q55 0 47 -55l-67 -484q124 97 274 97zM573 274q90 0 147.5 94.5t57.5 229.5q0 193 -129 193q-72 0 -139 -58 l-59 -411q55 -48 122 -48z" />
<glyph unicode="c" horiz-adv-x="1028" d="M694 791q-106 0 -174.5 -82.5t-68.5 -212.5q0 -96 42 -159t130 -63q78 0 159 56q38 24 58 -11l88 -155q21 -35 -13 -62q-69 -56 -170.5 -92.5t-222.5 -36.5q-221 0 -344 132.5t-123 367.5q0 184 78 326t215 218.5t311 76.5q113 0 204 -33t151 -84q16 -17 15.5 -27.5 t-11.5 -31.5l-100 -168q-24 -40 -62 -13q-80 54 -162 54z" />
<glyph unicode="d" d="M1214 1536q56 0 48 -55l-201 -1426q-6 -55 -62 -55h-284q-28 0 -39 13t-8 42l2 21q-36 -36 -103 -69.5t-153 -33.5q-167 0 -264 125.5t-97 345.5q0 140 39.5 262t107 206.5t158.5 133t191 48.5q90 0 153.5 -33.5t96.5 -71.5l69 492q8 55 62 55h284zM584 274q52 0 121 48 l59 421q-48 48 -115 48q-88 0 -143 -87.5t-55 -222.5q0 -102 34.5 -154.5t98.5 -52.5z" />
<glyph unicode="e" horiz-adv-x="1128" d="M53 459q0 144 50 265t134 201t193.5 124.5t228.5 44.5q106 0 192 -36t143 -105t78.5 -169t-1.5 -227q-9 -58 -24 -78t-46 -20h-550q0 -80 45.5 -132.5t134.5 -52.5q97 0 172 56q40 25 57 -11l88 -155q22 -36 -12 -62q-65 -52 -168 -90.5t-227 -38.5q-219 0 -353.5 131.5 t-134.5 354.5zM477 643l266 2q9 67 -22.5 108.5t-87.5 41.5q-57 0 -102 -43t-54 -109z" />
<glyph unicode="f" horiz-adv-x="864" d="M1104 1540q20 -27 20.5 -43.5t-24.5 -40.5l-129 -115q-42 -36 -72 -6q-18 15 -30 23.5t-31.5 16t-40.5 7.5q-51 0 -87.5 -34t-43.5 -93l-27 -188h199q55 0 49 -55l-27 -176q-6 -56 -61 -56h-201l-104 -725q-6 -55 -62 -55h-285q-55 0 -47 55l105 725h-90q-53 0 -47 56 l26 176q6 55 62 55h90l24 176q29 204 165.5 323.5t334.5 119.5q218 0 334 -146z" />
<glyph unicode="g" horiz-adv-x="1228" d="M1149 1067q56 0 47 -55l-149 -1067q-34 -239 -200 -382t-419 -143q-156 0 -253.5 49.5t-166.5 137.5q-20 27 -20.5 43.5t24.5 40.5l129 114q44 38 72 7q86 -91 209 -91q99 0 157 55.5t72 155.5l21 146q-34 -36 -103 -70.5t-155 -34.5q-167 0 -264 125.5t-97 345.5 q0 140 39.5 262t107 206.5t158.5 133t191 48.5q90 0 153.5 -33.5t96.5 -71.5l4 23q9 55 61 55h285zM584 274q54 0 123 48l59 419q-50 50 -117 50q-88 0 -143 -87.5t-55 -222.5q0 -102 34.5 -154.5t98.5 -52.5z" />
<glyph unicode="h" horiz-adv-x="1249" d="M829 1094q80 0 147.5 -27t116 -78.5t69.5 -133.5t7 -183l-86 -617q-8 -55 -63 -55h-285q-28 0 -39 13t-8 42l84 586q10 72 -22 114t-91 42q-71 0 -151 -70l-94 -672q-6 -55 -62 -55h-284q-54 0 -48 55l201 1426q8 55 62 55h284q55 0 47 -55l-69 -490q128 103 284 103z " />
<glyph unicode="i" horiz-adv-x="610" d="M397 1210q-86 0 -142 58t-56 145q0 103 80 181.5t184 78.5q87 0 145 -61t58 -148q0 -103 -82 -178.5t-187 -75.5zM74 0q-29 0 -40 13t-7 42l135 957q6 55 61 55h283q58 0 49 -55l-135 -957q-8 -55 -64 -55h-282z" />
<glyph unicode="j" horiz-adv-x="622" d="M410 1208q-87 0 -143 58t-56 145q0 104 79.5 182t182.5 78q87 0 145 -60.5t58 -148.5q0 -102 -81 -178t-185 -76zM-76 -580q-222 0 -334 146q-20 27 -20.5 43.5t22.5 40.5l129 114q46 40 74 7q40 -50 101 -50q51 0 87.5 34.5t45.5 94.5l164 1162q6 55 61 55h283 q58 0 49 -55l-162 -1149q-31 -204 -167.5 -323.5t-332.5 -119.5z" />
<glyph unicode="k" horiz-adv-x="1181" d="M1171 1067q21 0 27 -18.5t-12 -38.5l-363 -381l277 -570q12 -23 0.5 -41t-37.5 -18h-301q-29 0 -44 11t-26 36l-137 309l-115 -114l-26 -187q-6 -55 -62 -55h-284q-54 0 -48 55l201 1426q8 55 62 55h284q55 0 47 -55l-104 -748l278 297q21 22 35 29.5t37 7.5h311z" />
<glyph unicode="l" horiz-adv-x="757" d="M494 0q-235 0 -347.5 132t-80.5 368l139 981q6 55 61 55h285q28 0 39 -13t8 -42l-137 -971q-13 -89 28 -148t127 -59h7q51 0 45 -55l-27 -193q-8 -55 -61 -55h-86z" />
<glyph unicode="m" horiz-adv-x="1871" d="M1452 1094q80 0 148 -27t116.5 -78.5t69.5 -133.5t6 -183l-86 -617q-8 -55 -61 -55h-285q-29 0 -40 13t-7 42l82 586q10 72 -22 114t-91 42q-72 0 -139 -62q0 -29 -6 -63l-86 -617q-8 -55 -64 -55h-282q-29 0 -40.5 13t-7.5 42l82 586q10 72 -21.5 114t-90.5 42 q-68 0 -123 -47l-98 -695q-8 -55 -64 -55h-283q-29 0 -40 13t-7 42l135 957q6 55 62 55h283q58 0 49 -55q111 82 256 82q92 0 167.5 -35.5t120.5 -102.5q177 138 367 138z" />
<glyph unicode="n" horiz-adv-x="1243" d="M823 1094q80 0 147.5 -27t116 -78.5t69.5 -133.5t7 -183l-86 -617q-8 -55 -63 -55h-285q-28 0 -39 13t-8 42l84 586q10 72 -22 114t-91 42q-81 0 -153 -72l-94 -670q-8 -55 -64 -55h-283q-29 0 -40 13t-7 42l135 957q6 55 62 55h283q58 0 49 -55l-4 -23q125 105 286 105z " />
<glyph unicode="o" horiz-adv-x="1204" d="M532 -27q-229 0 -353 127.5t-124 366.5q0 281 168.5 454t444.5 173q230 0 354.5 -128t124.5 -364q0 -283 -169 -456t-446 -173zM573 274q81 0 131 86t50 224q0 207 -127 207q-80 0 -129 -84.5t-49 -223.5q0 -209 124 -209z" />
<glyph unicode="p" horiz-adv-x="1222" d="M815 1094q163 0 258.5 -123t95.5 -336q0 -287 -142 -474.5t-351 -187.5q-94 0 -163.5 35t-102.5 70l-76 -535q-9 -55 -64 -55h-282q-56 0 -47 55l206 1469q6 53 62 53h285q56 0 47 -53l-2 -17q24 20 56.5 39.5t94.5 39.5t125 20zM567 274q90 0 147.5 94.5t57.5 229.5 q0 193 -129 193q-81 0 -141 -60l-58 -409q15 -15 48.5 -31.5t74.5 -16.5z" />
<glyph unicode="q" horiz-adv-x="1218" d="M1149 1065q56 0 47 -53l-207 -1469q-9 -55 -63 -55h-283q-56 0 -47 55l76 535q-37 -37 -104.5 -71t-153.5 -34q-167 0 -264 125.5t-97 345.5q0 140 39.5 262t107 206.5t158.5 133t191 48.5q90 0 153.5 -33.5t96.5 -71.5l4 23q6 53 61 53h285zM584 274q52 0 121 48l59 419 q-15 17 -45.5 33.5t-69.5 16.5q-88 0 -143 -87.5t-55 -222.5q0 -102 34.5 -154.5t98.5 -52.5z" />
<glyph unicode="r" horiz-adv-x="929" d="M983 981q29 -45 6 -72q-120 -124 -172 -180q-11 -13 -27 -15.5t-32 9.5q-59 55 -117 55q-55 0 -91.5 -31.5t-55.5 -66.5l-88 -625q-8 -55 -64 -55h-283q-29 0 -40 13t-7 42l135 957q6 55 62 55h283q58 0 49 -55l-2 -17q99 99 223 99q76 0 131.5 -34t89.5 -79z" />
<glyph unicode="s" horiz-adv-x="987" d="M428 -27q-135 0 -245.5 35t-168.5 80q-31 24 -6 59l98 144q32 49 80 26q4 -3 28 -17.5t33 -19.5t32 -16.5t38.5 -16.5t38 -9.5t43.5 -4.5q51 0 81 21t30 53q0 42 -74 76q-19 9 -82 33q-52 21 -87 41t-72 53.5t-55.5 83t-18.5 113.5q0 119 65 208.5t169 134t229 44.5 q109 0 204.5 -32t143.5 -71q14 -12 16.5 -23t-10.5 -38l-88 -135q-23 -35 -70 -7q-88 46 -157 46q-51 0 -80 -19t-29 -53q0 -31 26.5 -48.5t94.5 -44.5q9 -3 14 -5q45 -18 77 -34t68.5 -42.5t59.5 -57t38 -76t15 -100.5q0 -173 -129 -277t-350 -104z" />
<glyph unicode="t" horiz-adv-x="987" d="M520 -27q-198 0 -297 119t-71 322l51 366h-88q-53 0 -47 56l26 176q6 55 62 55h88l35 238q6 55 61 55h285q56 0 47 -55l-33 -238h227q56 0 47 -55l-24 -176q-9 -56 -64 -56h-227l-53 -381q-9 -58 14.5 -91.5t75.5 -33.5q58 0 115 50q20 17 36 15t33 -24l99 -112 q17 -24 11.5 -40.5t-32.5 -43.5q-161 -149 -377 -146z" />
<glyph unicode="u" horiz-adv-x="1218" d="M1128 1067q59 0 50 -55l-136 -957q-8 -55 -63 -55h-283q-29 0 -40 13t-7 42l2 15q-106 -97 -262 -97q-80 0 -148 27t-116.5 78t-69.5 133t-6 184l86 617q9 55 64 55h282q56 0 47 -55l-82 -586q-10 -73 21 -114.5t90 -41.5q81 0 131 64l96 678q6 55 62 55h282z" />
<glyph unicode="v" horiz-adv-x="1159" d="M350 0q-42 0 -55 51l-213 963q-6 25 10 39t41 14h285q45 0 53 -43l86 -649l268 649q17 43 64 43h285q25 0 36 -13.5t0 -39.5l-485 -963q-26 -51 -68 -51h-307z" />
<glyph unicode="w" horiz-adv-x="1810" d="M297 0q-46 0 -53 51l-154 967q-4 24 12 36.5t41 12.5h285q50 0 53 -45l45 -612l248 606q20 51 68 51h276q46 0 53 -51l76 -606l215 612q17 45 70 45h285q24 0 35 -12t1 -37l-421 -967q-23 -51 -70 -51h-318q-46 0 -53 51l-80 533l-227 -533q-23 -51 -70 -51h-317z" />
<glyph unicode="x" horiz-adv-x="1167" d="M-4 0q-18 0 -25 9t-3.5 21.5t14.5 26.5l389 490l-246 461q-12 20 -4.5 39.5t33.5 19.5h307q29 0 43.5 -13.5t27.5 -45.5l89 -201l143 201q22 32 40.5 45.5t47.5 13.5h307q26 0 28.5 -19.5t-16.5 -39.5l-372 -461l252 -490q12 -20 4.5 -38.5t-35.5 -18.5h-320 q-23 0 -34.5 12.5t-24.5 44.5l-96 213l-154 -213q-22 -32 -37.5 -44.5t-38.5 -12.5h-319z" />
<glyph unicode="y" horiz-adv-x="1193" d="M102 -580q-158 0 -264 68q-36 21 -12 68l108 186q23 41 58 25q56 -25 106 -25q62 0 103 34t73 95l68 131l-225 1012q-6 25 9 39t42 14h285q47 0 53 -43l86 -647l268 647q19 43 66 43h282q25 0 37.5 -14t1.5 -39l-610 -1207q-100 -193 -229 -290t-306 -97z" />
<glyph unicode="z" horiz-adv-x="1048" d="M508 289h389q56 0 47 -56l-24 -178q-9 -55 -64 -55h-815q-55 0 -49 55l26 183q4 36 23 55l479 485h-350q-56 0 -47 53l27 181q6 55 61 55h784q55 0 49 -55l-24 -162q-6 -49 -35 -76z" />
<glyph unicode="{" horiz-adv-x="899" d="M657 -440q-275 1 -395.5 122.5t-89.5 348.5l51 389q13 91 -6.5 134.5t-89.5 43.5q-53 0 -47 55l29 205q9 55 61 55q68 0 100.5 43.5t48.5 135.5l27 188q38 226 191.5 347t427.5 124q53 0 47 -55l-29 -207q-9 -52 -63 -55q-81 -4 -132 -59t-65 -150l-37 -250 q-12 -78 -43 -126t-82 -93q81 -97 62 -236l-62 -448q-7 -33 -5 -66.5t12 -61t43.5 -46.5t88.5 -23q57 -3 48 -53l-29 -207q-9 -55 -62 -55z" />
<glyph unicode="|" horiz-adv-x="606" d="M4 -580q-29 0 -40.5 13.5t-8.5 42.5l283 2005q8 55 61 55h285q55 0 47 -55l-281 -2005q-5 -29 -19.5 -42.5t-43.5 -13.5h-283z" />
<glyph unicode="}" horiz-adv-x="899" d="M-33 -440q-56 0 -47 55l29 207q9 50 61 53q46 3 80 16.5t54 31.5t34 45t19.5 50t9.5 54l63 448q20 142 129 236q-39 44 -57 92.5t-8 126.5l35 250q12 94 -24.5 149.5t-115.5 59.5q-54 3 -45 55l29 207q9 55 61 55q275 -3 395.5 -124.5t90.5 -346.5l-25 -188 q-11 -91 9 -135t87 -44q56 0 50 -55l-29 -205q-9 -55 -64 -55q-69 0 -101.5 -44t-45.5 -134l-55 -389q-33 -226 -188 -347t-431 -124z" />
<glyph unicode="~" horiz-adv-x="1114" d="M758 633q-67 0 -127 22.5t-111.5 45t-99.5 22.5q-97 0 -160 -70q-29 -31 -59 -8l-97 70q-31 22 0 61q64 75 148.5 122.5t173.5 47.5q63 0 121.5 -22.5t111 -45t101.5 -22.5q95 0 158 70q29 32 61 6l100 -74q15 -12 14.5 -29t-14.5 -32q-63 -74 -147 -119t-174 -45z" />
<glyph unicode="&#xa1;" horiz-adv-x="530" d="M121 872q21 72 81 120t134 48q91 0 141.5 -64t24.5 -153q-21 -73 -83.5 -123.5t-137.5 -50.5q-89 0 -137.5 66t-22.5 157zM172 522h178q57 0 51 -53l-88 -926q-3 -55 -61 -55h-275q-52 0 -43 55l175 926q9 53 63 53z" />
<glyph unicode="&#xa2;" horiz-adv-x="1028" d="M694 791q-106 0 -174.5 -82.5t-68.5 -212.5q0 -96 42 -159t130 -63q78 0 159 56q38 24 58 -11l88 -155q21 -35 -13 -62q-94 -76 -227 -108l-18 -127q-9 -53 -64 -53h-284q-54 0 -48 53l21 153q-116 56 -178 172t-62 281q0 216 104.5 370.5t282.5 215.5l21 139q6 55 61 55 h285q56 0 47 -55l-18 -129q107 -32 176 -92q16 -17 15.5 -27.5t-11.5 -31.5l-100 -168q-24 -40 -62 -13q-80 54 -162 54z" />
<glyph unicode="&#xa3;" horiz-adv-x="1169" d="M1102 1419q20 -27 20.5 -43.5t-22.5 -40.5l-133 -114q-44 -41 -72 -7q-38 48 -100 48q-51 0 -86.5 -34t-44.5 -93l-35 -242h350q56 0 47 -53l-25 -176q-9 -56 -63 -56h-348l-41 -284h493q54 0 48 -56l-31 -213q-6 -55 -62 -55h-847q-57 0 -48 55l78 553h-90q-53 0 -47 56 l27 176q6 53 61 53h88l33 229q30 214 171.5 328.5t344.5 114.5q218 0 334 -146z" />
<glyph unicode="&#xa5;" horiz-adv-x="1294" d="M1389 1536q31 0 38 -16.5t-10 -42.5l-530 -801h121q55 0 49 -53l-15 -95q-9 -55 -63 -55h-135l-13 -94h134q55 0 49 -55l-15 -95q-6 -53 -61 -53h-135l-17 -121q-9 -55 -63 -55h-301q-56 0 -47 55l16 121h-135q-56 0 -47 53l12 95q6 55 62 55h137l14 94h-137 q-56 0 -47 55l14 95q9 53 62 53h123l-306 805q-21 55 39 55h305q48 0 60 -43l164 -504l307 504q27 43 69 43h302z" />
<glyph unicode="&#xa7;" horiz-adv-x="1007" d="M680 1251q-50 0 -81.5 -18t-31.5 -55q0 -30 28.5 -47t102.5 -43q12 -5 19 -7q61 -20 104.5 -41.5t86 -55.5t65 -83.5t22.5 -114.5q0 -177 -116 -288q53 -63 53 -158q0 -180 -143 -287.5t-388 -107.5q-236 0 -405 112q-30 19 -4 60l94 137q40 59 86 33q2 -1 17.5 -9 t20 -10.5t20.5 -10.5t23.5 -11.5t23.5 -10.5t26 -10l25 -7.5t27 -7t26 -4t27 -1.5q54 0 88 21t34 55q0 32 -38 53.5t-122 51.5q-7 2 -10 3q-52 18 -90 37t-79.5 51.5t-64 82t-22.5 112.5q0 177 125 282q-61 61 -61 162q0 92 42 168t113 125t163.5 75.5t195.5 26.5 q108 0 200 -28.5t154 -73.5q19 -16 18.5 -27t-14.5 -32l-104 -152q-25 -34 -68 -8q-102 61 -188 61zM670 729q0 11 -3 20t-10.5 17t-14 14t-20 11.5t-22.5 9t-26.5 8.5t-26.5 7t-29.5 6.5t-28.5 6.5q-51 -43 -51 -98q0 -15 5 -26.5t16 -20t21.5 -15t29.5 -12t32 -8.5 t36.5 -8t35.5 -8q56 48 56 96z" />
<glyph unicode="&#xa8;" horiz-adv-x="1062" d="M492 1470q-72 0 -118 46t-46 116q0 85 65.5 148t151.5 63q68 0 115 -49t47 -119q0 -84 -65.5 -144.5t-149.5 -60.5zM979 1470q-70 0 -116 46.5t-46 115.5q0 84 65 147.5t150 63.5q70 0 117 -49t47 -119q0 -85 -65.5 -145t-151.5 -60z" />
<glyph unicode="&#xa9;" horiz-adv-x="1638" d="M750 -25q-315 0 -506 191t-191 496q0 191 71.5 359t194.5 286.5t293 187t361 68.5q202 0 356 -87t237 -243t83 -356q0 -191 -70 -359t-190 -287t-286.5 -187.5t-352.5 -68.5zM778 203q173 0 316.5 83t227 231.5t83.5 330.5q0 216 -127.5 350.5t-339.5 134.5 q-133 0 -251 -48.5t-204 -133t-136 -204.5t-50 -257q0 -217 131.5 -352t349.5 -135zM811 375q-159 0 -247.5 87.5t-88.5 244.5q0 212 123 336t324 124q98 0 166 -32.5t102 -79.5q22 -34 -4 -56l-86 -73q-29 -29 -53 -13q-22 17 -35 25t-37 16.5t-51 8.5q-85 0 -140 -60.5 t-55 -167.5q0 -75 38.5 -116t102.5 -41q26 0 53.5 9.5t39 15.5t43.5 26q19 7 27 4t22 -17q3 -4 32 -37t33 -38q19 -23 -12 -54q-116 -112 -297 -112z" />
<glyph unicode="&#xab;" horiz-adv-x="1048" d="M51 489q-33 36 10 74l474 395q24 17 37.5 10t11.5 -24l-31 -219q-3 -45 -45 -74l-152 -123l117 -127q30 -32 23 -75l-29 -220q-2 -16 -17 -23t-36 11zM514 489q-33 36 10 74l473 395q24 17 38 10t12 -24l-31 -219q-3 -45 -45 -74l-152 -123l117 -127q29 -31 22 -75 l-28 -220q-2 -16 -17 -23t-36 11z" />
<glyph unicode="&#xad;" horiz-adv-x="862" d="M94 420q-49 0 -43 55l25 164q6 55 57 55h639q52 0 43 -55l-22 -164q-9 -55 -58 -55h-641z" />
<glyph unicode="&#xae;" horiz-adv-x="1636" d="M748 -25q-205 0 -364 89.5t-245 246.5t-86 355q0 187 73 354t196.5 285.5t293 188t357.5 69.5q200 0 354 -89t237 -246t83 -356q0 -187 -71 -354t-191.5 -285.5t-286.5 -188t-350 -69.5zM778 203q170 0 313.5 84.5t227.5 232t84 324.5q0 214 -128 351.5t-337 137.5 q-174 0 -321.5 -84t-234.5 -231.5t-87 -323.5q0 -216 133.5 -353.5t349.5 -137.5zM537 375q-26 0 -23 26l102 738q3 26 33 26h307q110 0 178 -59t68 -160q0 -108 -59.5 -175.5t-143.5 -86.5l134 -283q5 -11 -2.5 -18.5t-22.5 -7.5h-145q-23 0 -33 20l-123 269h-64l-36 -263 q-3 -26 -33 -26h-137zM766 821h111q129 0 129 107q0 76 -105 76h-110z" />
<glyph unicode="&#xaf;" horiz-adv-x="710" d="M223 1649q9 55 64 55h616q54 0 45 -55l-16 -119q-6 -55 -62 -55h-614q-55 0 -49 55z" />
<glyph unicode="&#xb0;" horiz-adv-x="677" d="M395 946q-101 0 -167 69.5t-66 170.5q0 122 93.5 212.5t215.5 90.5q102 0 169 -69.5t67 -170.5q0 -123 -94 -213t-218 -90zM424 1139q33 0 60.5 26.5t27.5 61.5q0 28 -19.5 47.5t-48.5 19.5q-34 0 -60 -26t-26 -60q0 -28 18.5 -48.5t47.5 -20.5z" />
<glyph unicode="&#xb4;" horiz-adv-x="944" d="M373 1524q-27 -16 -42.5 -12t-31.5 28l-57 80q-26 39 10 70l369 303q45 39 75 -4l84 -123q30 -43 -14 -76z" />
<glyph unicode="&#xb6;" horiz-adv-x="1978" d="M1229 -598q-23 0 -36.5 16t-10.5 39l245 1751h-258l-245 -1751q-3 -23 -22 -39t-42 -16h-289q-23 0 -36.5 16t-10.5 39l162 1135h-127q-191 0 -312.5 118.5t-121.5 299.5q0 107 43.5 204.5t116.5 168t171.5 112t205.5 41.5h1347q26 0 38.5 -14.5t8.5 -40.5l-31 -217 q-3 -26 -20 -41t-43 -15h-137l-246 -1751q-3 -23 -20.5 -39t-40.5 -16h-289z" />
<glyph unicode="&#xb7;" horiz-adv-x="555" d="M242 584q-70 19 -103 79t-14 130q15 86 91 139t161 39q71 -18 104.5 -80.5t14.5 -134.5q-15 -85 -91.5 -136t-162.5 -36z" />
<glyph unicode="&#xb8;" horiz-adv-x="983" d="M379 -592q-81 0 -127 27q-16 13 -4 37l69 141q12 25 37 14q22 -10 45 -10q43 0 69 25t26 63q0 30 -19.5 47t-48.5 17q-47 0 -74 -35q-14 -16 -43 -10l-96 24q-39 9 -27 43l121 283l193 -15l-64 -141q39 19 94 19q89 0 142 -58.5t53 -152.5q0 -147 -101.5 -232.5 t-244.5 -85.5z" />
<glyph unicode="&#xbb;" horiz-adv-x="1048" d="M573 489l-473 -395q-16 -13 -28.5 -13t-17.5 8t-3 17l33 220q3 41 43 75l154 127l-119 123q-32 28 -23 74l31 219q2 17 17 24t36 -10l361 -395q35 -37 -11 -74zM1038 489l-473 -395q-16 -13 -28.5 -13t-17.5 8t-3 17l33 220q3 41 43 75l153 127l-118 123q-32 28 -23 74 l31 219q2 17 17 24t36 -10l361 -395q35 -37 -11 -74z" />
<glyph unicode="&#xbc;" horiz-adv-x="1409" d="M156 0q-30 0 -42 14.5t3 40.5l905 1422q22 34 36 46.5t40 12.5h223q31 0 43.5 -15.5t-4.5 -43.5l-905 -1418q-22 -34 -36 -46.5t-40 -12.5h-223zM256 889q-21 0 -18 22l53 379l-58 -51q-16 -13 -26 0l-84 100q-16 16 4 33l192 152q16 12 29 12h187q21 0 18 -27l-84 -598 q-4 -22 -27 -22h-186zM1028 0q-10 0 -16 7t-4 16l12 96h-246q-21 0 -18 22l14 117q3 22 21 43l294 336q14 18 35 18h187q21 0 18 -24l-47 -334h37q24 0 20 -25l-18 -131q-3 -22 -27 -22h-37l-12 -96q-4 -23 -27 -23h-186zM977 297h67l15 98z" />
<glyph unicode="&#xbd;" horiz-adv-x="1376" d="M147 0q-28 0 -39.5 14.5t1.5 40.5l907 1422q22 34 36 46.5t40 12.5h223q31 0 43.5 -15.5t-4.5 -43.5l-905 -1418q-22 -34 -36.5 -46.5t-41.5 -12.5h-224zM256 889q-21 0 -18 22l53 379l-58 -51q-16 -13 -26 0l-84 100q-16 16 4 33l192 152q16 12 29 12h187q21 0 18 -27 l-84 -598q-4 -22 -27 -22h-186zM848 -2q-10 0 -16.5 6.5t-4.5 15.5l17 130q6 45 35 85.5t65 69t71 53t59 48.5t24 45q0 26 -29 26q-28 0 -74 -37q-19 -16 -30 4l-70 103q-11 15 10 33q93 84 223 84q93 0 147 -47t54 -123q0 -55 -24.5 -98.5t-60.5 -70.5t-71.5 -48.5 t-61.5 -43t-28 -43.5v-6h183q23 0 20 -24l-20 -140q-4 -22 -27 -22h-391z" />
<glyph unicode="&#xbe;" horiz-adv-x="1400" d="M303 877q-78 0 -135 30t-82 64q-10 16 4 33l90 104q18 18 35 2q42 -39 74 -39q23 0 37 13t14 36q0 43 -43 43q-24 0 -21 23l13 80q2 22 24 22q23 1 38.5 17.5t15.5 35.5q0 29 -33 29q-32 0 -72 -35q-16 -13 -29 6l-59 84q-12 15 6 33q33 35 94 63.5t129 28.5 q84 0 141.5 -42.5t57.5 -112.5q0 -55 -30 -98.5t-68 -63.5q27 -15 46 -51.5t19 -85.5q0 -98 -77.5 -158.5t-188.5 -60.5zM162 0q-30 0 -42 14.5t3 40.5l907 1422q20 33 34 46t40 13h223q31 0 43.5 -15.5t-4.5 -43.5l-905 -1418q-22 -34 -36 -46.5t-40 -12.5h-223zM1014 0 q-10 0 -16.5 7t-4.5 16l13 96h-246q-22 0 -19 22l15 117q3 24 20 43l295 336q14 18 35 18h186q22 0 19 -24l-47 -334h36q25 0 21 -25l-18 -131q-3 -22 -27 -22h-37l-12 -96q-4 -23 -27 -23h-186zM963 297h67l14 98z" />
<glyph unicode="&#xbf;" horiz-adv-x="1011" d="M592 1038q73 0 120.5 -48.5t47.5 -119.5q0 -92 -66.5 -157.5t-156.5 -65.5q-74 0 -123 50.5t-49 123.5q0 90 68 153.5t159 63.5zM625 520q25 0 36 -10.5t11 -36.5q0 -68 -18.5 -127.5t-47.5 -102t-64.5 -80.5t-71 -71t-64.5 -64.5t-47.5 -69.5t-18.5 -79q0 -59 34 -90 t91 -31q89 0 203 97q37 34 65 -7l103 -143q12 -23 8.5 -39t-23.5 -37q-78 -82 -202.5 -138t-276.5 -56q-189 0 -299.5 92.5t-110.5 255.5q0 75 19.5 135.5t52.5 103.5t72.5 80t82.5 73.5t80.5 75.5t67.5 94.5t43 121.5q11 53 62 53h213z" />
<glyph unicode="&#xc0;" horiz-adv-x="1355" d="M842 1665l-320 266q-36 33 4 76l121 123q41 45 76 4l283 -303q30 -29 -11 -70l-77 -80q-23 -24 -39 -28t-37 12zM-27 0q-55 0 -28 55l665 1426q24 55 78 55h260q57 0 66 -55l262 -1426q9 -55 -47 -55h-295q-56 0 -62 55l-34 267h-383l-109 -267q-21 -55 -76 -55h-297z M582 637h221l-55 399z" />
<glyph unicode="&#xc1;" horiz-adv-x="1355" d="M831 1663q-27 -16 -42 -12t-31 28l-58 80q-26 39 11 70l368 303q46 40 76 -4l84 -123q30 -43 -14 -76zM-27 0q-55 0 -28 55l665 1426q24 55 78 55h260q57 0 66 -55l262 -1426q9 -55 -47 -55h-295q-56 0 -62 55l-34 267h-383l-109 -267q-21 -55 -76 -55h-297zM582 637h221 l-55 399z" />
<glyph unicode="&#xc2;" horiz-adv-x="1355" d="M864 1853l-213 -182q-23 -19 -38 -20.5t-35 18.5l-86 98q-38 38 10 74l362 270q40 28 68 0l287 -270q39 -36 -9 -74l-112 -98q-45 -37 -76 2zM-27 0q-55 0 -28 55l665 1426q24 55 78 55h260q57 0 66 -55l262 -1426q9 -55 -47 -55h-295q-56 0 -62 55l-34 267h-383 l-109 -267q-21 -55 -76 -55h-297zM582 637h221l-55 399z" />
<glyph unicode="&#xc3;" horiz-adv-x="1355" d="M1008 1673q-49 0 -93 14t-71 31t-63 31t-70 14q-78 0 -140 -67q-28 -30 -59 -8l-96 67q-15 12 -14.5 29.5t14.5 32.5q143 172 301 172q46 0 88.5 -14t69.5 -31.5t63.5 -31.5t71.5 -14q74 0 137 68q28 31 61 8l101 -76q32 -22 -2 -61q-136 -164 -299 -164zM-27 0 q-55 0 -28 55l665 1426q24 55 78 55h260q57 0 66 -55l262 -1426q9 -55 -47 -55h-295q-56 0 -62 55l-34 267h-383l-109 -267q-21 -55 -76 -55h-297zM582 637h221l-55 399z" />
<glyph unicode="&#xc4;" horiz-adv-x="1355" d="M592 1661q-72 0 -118 46.5t-46 115.5q0 85 65.5 148t151.5 63q68 0 115 -49t47 -119q0 -84 -65.5 -144.5t-149.5 -60.5zM1079 1661q-70 0 -115.5 46.5t-45.5 115.5q0 84 65 147.5t150 63.5q70 0 116.5 -49t46.5 -119q0 -85 -65.5 -145t-151.5 -60zM-27 0q-55 0 -28 55 l665 1426q24 55 78 55h260q57 0 66 -55l262 -1426q9 -55 -47 -55h-295q-56 0 -62 55l-34 267h-383l-109 -267q-21 -55 -76 -55h-297zM582 637h221l-55 399z" />
<glyph unicode="&#xc5;" horiz-adv-x="1355" d="M829 1628q-101 0 -167 69.5t-66 170.5q0 122 93.5 212.5t215.5 90.5q102 0 169 -69.5t67 -170.5q0 -123 -94 -213t-218 -90zM858 1821q33 0 60.5 26.5t27.5 61.5q0 28 -19 47.5t-48 19.5q-34 0 -60 -26t-26 -60q0 -29 18 -49t47 -20zM-27 0q-55 0 -28 55l665 1426 q24 55 78 55h260q57 0 66 -55l262 -1426q9 -55 -47 -55h-295q-56 0 -62 55l-34 267h-383l-109 -267q-21 -55 -76 -55h-297zM582 637h221l-55 399z" />
<glyph unicode="&#xc6;" horiz-adv-x="1945" d="M-23 0q-29 0 -38 13.5t10 41.5l979 1426q21 31 37 43t43 12h921q56 0 47 -55l-28 -207q-9 -53 -64 -53h-475l-39 -277h395q54 0 45 -55l-24 -193q-9 -55 -66 -55h-393l-45 -326h496q53 0 47 -53l-29 -207q-9 -55 -61 -55h-854q-53 0 -47 55l34 252h-340l-174 -252 q-20 -30 -35 -42.5t-40 -12.5h-302zM711 596h198l54 369z" />
<glyph unicode="&#xc7;" horiz-adv-x="1294" d="M1352 1386q22 -26 -2 -53l-162 -180q-27 -27 -62 0q-101 88 -223 88q-119 0 -207 -74t-132 -199t-44 -284q0 -189 67 -288t199 -99q114 0 226 72q38 23 57 -13l102 -184q19 -31 -12 -53q-78 -59 -193.5 -101t-254.5 -45l-27 -69q41 18 94 18q89 0 144 -63t55 -166 q0 -134 -90.5 -216.5t-233.5 -82.5q-95 0 -147 33q-15 15 -4 36l65 136q11 25 39 14q25 -10 47 -10q42 0 67 24t25 60q0 32 -19 49.5t-50 17.5q-43 0 -72 -33q-18 -18 -41 -12l-98 25q-39 9 -25 43l80 217q-204 51 -316 221t-112 426q0 200 62 373t169 294t255 190t315 69 q88 0 166.5 -18.5t135 -48t93.5 -57.5t64 -57z" />
<glyph unicode="&#xc8;" horiz-adv-x="1171" d="M739 1665l-319 266q-36 33 4 76l121 123q41 45 76 4l282 -303q30 -30 -10 -70l-78 -80q-23 -24 -39 -28t-37 12zM92 0q-53 0 -47 55l201 1426q9 55 61 55h846q55 0 49 -55l-31 -213q-9 -56 -63 -56h-490l-36 -262h407q56 0 47 -53l-26 -207q-9 -55 -64 -55h-407l-45 -311 h510q56 0 47 -56l-29 -213q-9 -55 -64 -55h-866z" />
<glyph unicode="&#xc9;" horiz-adv-x="1171" d="M729 1663q-27 -16 -42.5 -12t-31.5 28l-57 80q-26 39 10 70l369 303q46 40 76 -4l84 -123q30 -43 -15 -76zM92 0q-53 0 -47 55l201 1426q9 55 61 55h846q55 0 49 -55l-31 -213q-9 -56 -63 -56h-490l-36 -262h407q56 0 47 -53l-26 -207q-9 -55 -64 -55h-407l-45 -311h510 q56 0 47 -56l-29 -213q-9 -55 -64 -55h-866z" />
<glyph unicode="&#xca;" horiz-adv-x="1171" d="M762 1853l-213 -182q-23 -19 -38.5 -20.5t-35.5 18.5l-86 98q-38 38 10 74l363 270q22 15 37 15t30 -15l287 -270q39 -36 -8 -74l-113 -98q-44 -36 -75 2zM92 0q-53 0 -47 55l201 1426q9 55 61 55h846q55 0 49 -55l-31 -213q-9 -56 -63 -56h-490l-36 -262h407 q56 0 47 -53l-26 -207q-9 -55 -64 -55h-407l-45 -311h510q56 0 47 -56l-29 -213q-9 -55 -64 -55h-866z" />
<glyph unicode="&#xcb;" horiz-adv-x="1171" d="M489 1661q-71 0 -117 46t-46 116q0 85 65.5 148t151.5 63q68 0 115 -49t47 -119q0 -84 -66 -144.5t-150 -60.5zM977 1661q-70 0 -116 46.5t-46 115.5q0 84 65 147.5t150 63.5q70 0 117 -49t47 -119q0 -85 -65.5 -145t-151.5 -60zM92 0q-53 0 -47 55l201 1426q9 55 61 55 h846q55 0 49 -55l-31 -213q-9 -56 -63 -56h-490l-36 -262h407q56 0 47 -53l-26 -207q-9 -55 -64 -55h-407l-45 -311h510q56 0 47 -56l-29 -213q-9 -55 -64 -55h-866z" />
<glyph unicode="&#xcc;" horiz-adv-x="638" d="M485 1665l-319 266q-36 33 4 76l121 123q41 45 76 4l282 -303q30 -30 -10 -70l-78 -80q-23 -24 -39 -28t-37 12zM92 0q-53 0 -47 55l201 1426q9 55 61 55h301q55 0 49 -55l-200 -1426q-9 -55 -64 -55h-301z" />
<glyph unicode="&#xcd;" horiz-adv-x="638" d="M475 1663q-27 -16 -42.5 -12t-31.5 28l-57 80q-26 39 10 70l369 303q46 40 76 -4l84 -123q30 -43 -15 -76zM92 0q-53 0 -47 55l201 1426q9 55 61 55h301q55 0 49 -55l-200 -1426q-9 -55 -64 -55h-301z" />
<glyph unicode="&#xce;" horiz-adv-x="638" d="M508 1853l-213 -182q-23 -19 -38.5 -20.5t-35.5 18.5l-86 98q-38 38 10 74l363 270q22 15 37 15t30 -15l287 -270q39 -36 -8 -74l-113 -98q-44 -36 -75 2zM92 0q-53 0 -47 55l201 1426q9 55 61 55h301q55 0 49 -55l-200 -1426q-9 -55 -64 -55h-301z" />
<glyph unicode="&#xcf;" horiz-adv-x="638" d="M236 1661q-72 0 -118 46.5t-46 115.5q0 85 65.5 148t151.5 63q68 0 115 -49t47 -119q0 -84 -65.5 -144.5t-149.5 -60.5zM723 1661q-70 0 -116 46.5t-46 115.5q0 84 65 147.5t150 63.5q70 0 117 -49t47 -119q0 -85 -65.5 -145t-151.5 -60zM92 0q-53 0 -47 55l201 1426 q9 55 61 55h301q55 0 49 -55l-200 -1426q-9 -55 -64 -55h-301z" />
<glyph unicode="&#xd0;" horiz-adv-x="1509" d="M856 1536q301 0 464 -159t163 -482q0 -195 -54.5 -358.5t-158.5 -283t-263.5 -186.5t-359.5 -67h-541q-53 0 -47 55l109 766h-70q-56 0 -47 56l10 81q9 56 64 56h70l65 467q9 55 62 55h534zM678 324q121 0 214 72.5t142 196.5t49 279q0 185 -76.5 262.5t-224.5 77.5h-149 l-29 -198h189q55 0 49 -56l-13 -81q-9 -56 -61 -56h-190l-70 -497h170z" />
<glyph unicode="&#xd1;" horiz-adv-x="1509" d="M1092 1673q-49 0 -93 14t-71 31t-63 31t-70 14q-78 0 -140 -67q-28 -30 -59 -8l-96 67q-15 12 -14.5 29.5t14.5 32.5q143 172 301 172q46 0 88.5 -14t69.5 -31.5t63.5 -31.5t71.5 -14q74 0 137 68q28 31 61 8l101 -76q32 -22 -2 -61q-136 -164 -299 -164zM92 0 q-53 0 -47 55l201 1426q9 55 61 55h250q34 0 53 -31l420 -751l103 727q6 55 61 55h287q56 0 47 -55l-201 -1426q-6 -55 -61 -55h-250q-36 0 -58 39l-413 752l-103 -736q-9 -55 -63 -55h-287z" />
<glyph unicode="&#xd2;" horiz-adv-x="1587" d="M961 1665l-320 266q-36 33 4 76l121 123q41 45 76 4l282 -303q30 -30 -10 -70l-78 -80q-23 -24 -38.5 -28t-36.5 12zM924 1563q309 0 470.5 -175t161.5 -499q0 -275 -99 -482t-287 -320.5t-443 -113.5q-307 0 -469 176.5t-162 499.5q0 274 99 480.5t287 320t442 113.5z M774 295q170 0 262 153.5t92 419.5q0 373 -247 373q-171 0 -265 -154t-94 -419q0 -184 63.5 -278.5t188.5 -94.5z" />
<glyph unicode="&#xd3;" horiz-adv-x="1587" d="M950 1663q-27 -16 -42 -12t-31 28l-58 80q-26 39 10 70l369 303q46 40 76 -4l84 -123q30 -43 -15 -76zM924 1563q309 0 470.5 -175t161.5 -499q0 -275 -99 -482t-287 -320.5t-443 -113.5q-307 0 -469 176.5t-162 499.5q0 274 99 480.5t287 320t442 113.5zM774 295 q170 0 262 153.5t92 419.5q0 373 -247 373q-171 0 -265 -154t-94 -419q0 -184 63.5 -278.5t188.5 -94.5z" />
<glyph unicode="&#xd4;" horiz-adv-x="1587" d="M983 1853l-213 -182q-23 -19 -38.5 -20.5t-35.5 18.5l-86 98q-17 17 -14.5 37t25.5 37l362 270q40 28 68 0l286 -270q39 -36 -8 -74l-112 -98q-45 -37 -76 2zM924 1563q309 0 470.5 -175t161.5 -499q0 -275 -99 -482t-287 -320.5t-443 -113.5q-307 0 -469 176.5 t-162 499.5q0 274 99 480.5t287 320t442 113.5zM774 295q170 0 262 153.5t92 419.5q0 373 -247 373q-171 0 -265 -154t-94 -419q0 -184 63.5 -278.5t188.5 -94.5z" />
<glyph unicode="&#xd5;" horiz-adv-x="1587" d="M1124 1673q-61 0 -112.5 22t-96 44t-86.5 22q-74 0 -137 -65q-28 -30 -59 -8l-94 65q-15 12 -14.5 29.5t14.5 32.5q137 170 297 170q46 0 88 -14t68.5 -30.5t62.5 -30.5t71 -14q75 0 136 66q28 31 61 8l98 -74q31 -22 0 -61q-134 -162 -297 -162zM924 1563 q309 0 470.5 -175t161.5 -499q0 -275 -99 -482t-287 -320.5t-443 -113.5q-307 0 -469 176.5t-162 499.5q0 274 99 480.5t287 320t442 113.5zM774 295q170 0 262 153.5t92 419.5q0 373 -247 373q-171 0 -265 -154t-94 -419q0 -184 63.5 -278.5t188.5 -94.5z" />
<glyph unicode="&#xd6;" horiz-adv-x="1587" d="M711 1661q-71 0 -117.5 46.5t-46.5 115.5q0 85 65.5 148t151.5 63q68 0 115 -49t47 -119q0 -84 -65.5 -144.5t-149.5 -60.5zM1198 1661q-70 0 -116 46.5t-46 115.5q0 84 65 147.5t150 63.5q70 0 117 -49t47 -119q0 -85 -65.5 -145t-151.5 -60zM924 1563q309 0 470.5 -175 t161.5 -499q0 -275 -99 -482t-287 -320.5t-443 -113.5q-307 0 -469 176.5t-162 499.5q0 274 99 480.5t287 320t442 113.5zM774 295q170 0 262 153.5t92 419.5q0 373 -247 373q-171 0 -265 -154t-94 -419q0 -184 63.5 -278.5t188.5 -94.5z" />
<glyph unicode="&#xd7;" horiz-adv-x="923" d="M911 1028q34 -37 -10 -78l-217 -190l162 -189q33 -39 -10 -77l-131 -115q-44 -40 -76 0l-164 190l-215 -190q-46 -40 -78 0l-98 115q-33 38 12 77l215 189l-164 190q-31 42 10 78l132 113q43 40 77 0l164 -189l215 189q45 39 78 0z" />
<glyph unicode="&#xd8;" horiz-adv-x="1593" d="M1642 1536q31 0 39.5 -16.5t-16.5 -42.5l-190 -203q81 -156 81 -385q0 -275 -99 -482t-287 -320.5t-443 -113.5q-235 0 -383 103l-16 -17q-23 -25 -33 -34t-25.5 -17t-33.5 -8h-209q-30 0 -37.5 14.5t16.5 40.5l180 193q-90 162 -90 401q0 274 99 480.5t287 320 t442 113.5q244 0 395 -109l22 23q32 34 50 46.5t43 12.5h208zM522 668q0 -42 2 -62l527 561q-59 74 -170 74q-171 0 -265 -154t-94 -419zM1128 868v39l-518 -549q63 -63 164 -63q170 0 262 153.5t92 419.5z" />
<glyph unicode="&#xd9;" horiz-adv-x="1476" d="M903 1665l-319 266q-36 33 4 76l121 123q41 44 75 4l283 -303q30 -30 -10 -70l-78 -80q-23 -24 -39 -28t-37 12zM657 -27q-315 0 -456.5 162.5t-94.5 491.5l119 854q9 55 62 55h301q58 0 49 -55l-127 -897q-21 -151 31.5 -220t160.5 -69q110 0 182 69t93 220l125 897 q9 55 61 55h303q56 0 47 -55l-118 -854q-47 -329 -234.5 -491.5t-503.5 -162.5z" />
<glyph unicode="&#xda;" horiz-adv-x="1476" d="M893 1663q-27 -16 -42.5 -12t-31.5 28l-57 80q-26 39 10 70l369 303q46 40 76 -4l83 -123q30 -43 -14 -76zM657 -27q-315 0 -456.5 162.5t-94.5 491.5l119 854q9 55 62 55h301q58 0 49 -55l-127 -897q-21 -151 31.5 -220t160.5 -69q110 0 182 69t93 220l125 897 q9 55 61 55h303q56 0 47 -55l-118 -854q-47 -329 -234.5 -491.5t-503.5 -162.5z" />
<glyph unicode="&#xdb;" horiz-adv-x="1476" d="M926 1853l-213 -182q-23 -19 -38.5 -20.5t-35.5 18.5l-86 98q-38 38 10 74l363 270q22 15 37 15t30 -15l287 -270q39 -36 -8 -74l-113 -98q-45 -37 -76 2zM657 -27q-315 0 -456.5 162.5t-94.5 491.5l119 854q9 55 62 55h301q58 0 49 -55l-127 -897q-21 -151 31.5 -220 t160.5 -69q110 0 182 69t93 220l125 897q9 55 61 55h303q56 0 47 -55l-118 -854q-47 -329 -234.5 -491.5t-503.5 -162.5z" />
<glyph unicode="&#xdc;" horiz-adv-x="1476" d="M653 1661q-71 0 -117.5 46.5t-46.5 115.5q0 84 65.5 147.5t152.5 63.5q68 0 114.5 -49t46.5 -119q0 -84 -65.5 -144.5t-149.5 -60.5zM1141 1661q-70 0 -116 46.5t-46 115.5q0 84 65 147.5t150 63.5q70 0 117 -49t47 -119q0 -85 -65.5 -145t-151.5 -60zM657 -27 q-315 0 -456.5 162.5t-94.5 491.5l119 854q9 55 62 55h301q58 0 49 -55l-127 -897q-21 -151 31.5 -220t160.5 -69q110 0 182 69t93 220l125 897q9 55 61 55h303q56 0 47 -55l-118 -854q-47 -329 -234.5 -491.5t-503.5 -162.5z" />
<glyph unicode="&#xdd;" horiz-adv-x="1294" d="M803 1663q-27 -16 -42.5 -12t-31.5 28l-57 80q-26 39 10 70l369 303q45 39 75 -4l84 -123q30 -43 -14 -76zM1018 1493q27 43 69 43h302q31 0 38 -16.5t-10 -42.5l-549 -828l-82 -594q-9 -55 -63 -55h-301q-56 0 -47 55l84 594l-316 832q-21 55 39 55h305q48 0 60 -43 l164 -504z" />
<glyph unicode="&#xde;" horiz-adv-x="1335" d="M834 1278q240 0 370.5 -114.5t130.5 -307.5q0 -263 -175 -430.5t-470 -167.5h-203l-28 -203q-9 -55 -64 -55h-301q-56 0 -47 55l164 1168q0 2 1 5.5t1 4.5l35 248q9 55 61 55h301q55 0 49 -55l-28 -203h203zM698 561q117 0 176.5 67t59.5 175q0 160 -178 160h-170 l-56 -402h168z" />
<glyph unicode="&#xdf;" horiz-adv-x="1300" d="M702 -10q-52 -17 -65 33l-53 202q-12 50 41 74q116 55 151 83q58 46 58 105q0 32 -19 65.5t-41.5 60t-41.5 67.5t-19 86q0 54 23.5 103t51 80.5t51 74.5t23.5 86q0 55 -34 87t-91 32q-76 0 -133 -63.5t-69 -153.5l-136 -957q-9 -55 -61 -55h-287q-56 0 -47 55l135 953 q34 241 214.5 388.5t439.5 147.5q214 0 341.5 -112.5t127.5 -278.5q0 -57 -16.5 -104.5t-39.5 -80t-46 -62t-39.5 -64t-16.5 -72.5q0 -37 18.5 -75.5t40 -67.5t40 -76t18.5 -98q0 -59 -20 -113t-49.5 -94t-77 -77t-89.5 -62t-99.5 -49.5t-95.5 -38t-88 -29.5z" />
<glyph unicode="&#xe0;" d="M477 1481q-35 33 4 75l121 123q41 45 76 4l283 -303q16 -18 13 -33t-24 -36l-78 -80q-23 -25 -38.5 -29t-36.5 12zM1149 1067q58 0 49 -55l-135 -957q-8 -55 -64 -55h-282q-29 0 -40 13t-7 42l4 25q-35 -37 -104 -72t-156 -35q-167 0 -264 125.5t-97 345.5 q0 140 39.5 262t107 206.5t158.5 133t191 48.5q92 0 156.5 -34.5t95.5 -72.5l4 25q6 55 61 55h283zM707 322l59 419q-58 50 -117 50q-88 0 -143 -87.5t-55 -222.5q0 -102 34.5 -154.5t98.5 -52.5q54 0 123 48z" />
<glyph unicode="&#xe1;" d="M713 1229l-58 80q-14 20 -11.5 36t22.5 33l368 303q46 40 76 -4l84 -123q29 -43 -14 -75l-394 -267q-27 -16 -42 -11.5t-31 28.5zM1149 1067q58 0 49 -55l-135 -957q-8 -55 -64 -55h-282q-29 0 -40 13t-7 42l4 25q-35 -37 -104 -72t-156 -35q-167 0 -264 125.5t-97 345.5 q0 140 39.5 262t107 206.5t158.5 133t191 48.5q92 0 156.5 -34.5t95.5 -72.5l4 25q6 55 61 55h283zM707 322l59 419q-58 50 -117 50q-88 0 -143 -87.5t-55 -222.5q0 -102 34.5 -154.5t98.5 -52.5q54 0 123 48z" />
<glyph unicode="&#xe2;" d="M532 1219l-86 98q-17 17 -14.5 37t25.5 37l362 270q40 28 68 0l287 -270q39 -36 -9 -74l-112 -98q-45 -37 -76 2l-158 182l-213 -182q-23 -19 -38.5 -20.5t-35.5 18.5zM1149 1067q58 0 49 -55l-135 -957q-8 -55 -64 -55h-282q-29 0 -40 13t-7 42l4 25q-35 -37 -104 -72 t-156 -35q-167 0 -264 125.5t-97 345.5q0 140 39.5 262t107 206.5t158.5 133t191 48.5q92 0 156.5 -34.5t95.5 -72.5l4 25q6 55 61 55h283zM707 322l59 419q-58 50 -117 50q-88 0 -143 -87.5t-55 -222.5q0 -102 34.5 -154.5t98.5 -52.5q54 0 123 48z" />
<glyph unicode="&#xe3;" d="M1264 1448q32 -23 -2 -62q-135 -163 -299 -163q-49 0 -93 14t-71 31t-63 31t-70 14q-77 0 -140 -68q-28 -30 -59 -8l-96 68q-15 12 -14.5 29t14.5 32q143 172 301 172q46 0 88.5 -14t69.5 -31t63.5 -31t71.5 -14q74 0 137 68q28 31 61 8zM1149 1067q58 0 49 -55 l-135 -957q-8 -55 -64 -55h-282q-29 0 -40 13t-7 42l4 25q-35 -37 -104 -72t-156 -35q-167 0 -264 125.5t-97 345.5q0 140 39.5 262t107 206.5t158.5 133t191 48.5q92 0 156.5 -34.5t95.5 -72.5l4 25q6 55 61 55h283zM707 322l59 419q-58 50 -117 50q-88 0 -143 -87.5 t-55 -222.5q0 -102 34.5 -154.5t98.5 -52.5q54 0 123 48z" />
<glyph unicode="&#xe4;" d="M547 1210q-71 0 -117.5 46t-46.5 116q0 85 65.5 148t151.5 63q68 0 115 -49t47 -119q0 -84 -65.5 -144.5t-149.5 -60.5zM1034 1210q-70 0 -116 46.5t-46 115.5q0 84 65 147.5t150 63.5q70 0 117 -49t47 -119q0 -85 -65.5 -145t-151.5 -60zM1149 1067q58 0 49 -55 l-135 -957q-8 -55 -64 -55h-282q-29 0 -40 13t-7 42l4 25q-35 -37 -104 -72t-156 -35q-167 0 -264 125.5t-97 345.5q0 140 39.5 262t107 206.5t158.5 133t191 48.5q92 0 156.5 -34.5t95.5 -72.5l4 25q6 55 61 55h283zM707 322l59 419q-58 50 -117 50q-88 0 -143 -87.5 t-55 -222.5q0 -102 34.5 -154.5t98.5 -52.5q54 0 123 48z" />
<glyph unicode="&#xe5;" d="M784 1178q-101 0 -167 69t-66 170q0 122 93.5 212.5t215.5 90.5q102 0 169 -69t67 -170q0 -123 -94 -213t-218 -90zM834 1526q-34 0 -60 -26t-26 -60q0 -29 18.5 -49.5t46.5 -20.5q33 0 60.5 26.5t27.5 61.5q0 28 -19 48t-48 20zM1149 1067q58 0 49 -55l-135 -957 q-8 -55 -64 -55h-282q-29 0 -40 13t-7 42l4 25q-35 -37 -104 -72t-156 -35q-167 0 -264 125.5t-97 345.5q0 140 39.5 262t107 206.5t158.5 133t191 48.5q92 0 156.5 -34.5t95.5 -72.5l4 25q6 55 61 55h283zM707 322l59 419q-58 50 -117 50q-88 0 -143 -87.5t-55 -222.5 q0 -102 34.5 -154.5t98.5 -52.5q54 0 123 48z" />
<glyph unicode="&#xe6;" horiz-adv-x="1746" d="M360 -27q-153 0 -244 82t-91 219q0 169 123.5 275t314.5 106q36 0 70.5 -4.5t59.5 -11.5t44 -13.5t30 -11.5l11 -4q0 5 1 13.5t1 13.5q5 76 -33 115t-127 39q-44 0 -109.5 -13t-109.5 -30q-61 -21 -68 26l-22 172q-7 27 0 46.5t35 29.5q178 72 391 72q211 0 315 -101 q143 101 326 101q106 0 192 -36t143 -105t78.5 -169t-1.5 -227q-9 -58 -24 -78t-46 -20h-549q0 -81 45 -133t135 -52q89 0 170 56q40 26 58 -11q14 -23 28.5 -49t32 -57.5t27.5 -48.5q21 -35 -13 -62q-65 -52 -168 -90.5t-227 -38.5q-256 0 -385 177q-216 -177 -414 -177z M1102 643l256 2q9 66 -20.5 106t-82.5 40q-58 0 -101 -42t-52 -106zM508 227q42 0 88.5 20.5t79.5 53.5q-18 51 -21 105q-64 32 -118 32q-56 0 -92.5 -31t-36.5 -83q0 -43 27.5 -70t72.5 -27z" />
<glyph unicode="&#xe7;" horiz-adv-x="1028" d="M694 791q-106 0 -174.5 -82.5t-68.5 -212.5q0 -96 42 -159t130 -63q78 0 159 56q38 24 58 -11l88 -155q21 -35 -13 -62q-150 -117 -352 -127l-26 -71q41 18 92 18q91 0 145.5 -63t54.5 -166q0 -134 -90 -216.5t-233 -82.5q-96 0 -148 33q-15 12 -6 36l68 136q11 24 37 14 q30 -10 49 -10q40 0 65 24t25 60q0 32 -18.5 49.5t-49.5 17.5q-44 0 -73 -33q-15 -18 -41 -12l-99 25q-38 8 -24 43l80 215q-151 41 -233.5 165.5t-82.5 315.5q0 184 78 326t215 218.5t311 76.5q113 0 204 -33t151 -84q16 -17 15.5 -27.5t-11.5 -31.5l-100 -168 q-24 -40 -62 -13q-80 54 -162 54z" />
<glyph unicode="&#xe8;" horiz-adv-x="1128" d="M696 1214l-319 267q-35 33 4 75l121 123q41 45 76 4l282 -303q30 -30 -10 -69l-78 -80q-23 -24 -39 -28.5t-37 11.5zM53 459q0 144 50 265t134 201t193.5 124.5t228.5 44.5q106 0 192 -36t143 -105t78.5 -169t-1.5 -227q-9 -58 -24 -78t-46 -20h-550q0 -80 45.5 -132.5 t134.5 -52.5q97 0 172 56q40 25 57 -11l88 -155q22 -36 -12 -62q-65 -52 -168 -90.5t-227 -38.5q-219 0 -353.5 131.5t-134.5 354.5zM477 643l266 2q9 67 -22.5 108.5t-87.5 41.5q-57 0 -102 -43t-54 -109z" />
<glyph unicode="&#xe9;" horiz-adv-x="1128" d="M686 1212q-27 -16 -42.5 -11.5t-31.5 28.5l-57 80q-26 39 10 69l369 303q46 40 76 -4l84 -123q29 -42 -15 -75zM53 459q0 144 50 265t134 201t193.5 124.5t228.5 44.5q106 0 192 -36t143 -105t78.5 -169t-1.5 -227q-9 -58 -24 -78t-46 -20h-550q0 -80 45.5 -132.5 t134.5 -52.5q97 0 172 56q40 25 57 -11l88 -155q22 -36 -12 -62q-65 -52 -168 -90.5t-227 -38.5q-219 0 -353.5 131.5t-134.5 354.5zM477 643l266 2q9 67 -22.5 108.5t-87.5 41.5q-57 0 -102 -43t-54 -109z" />
<glyph unicode="&#xea;" horiz-adv-x="1128" d="M719 1403l-213 -182q-23 -19 -38.5 -20.5t-35.5 18.5l-86 98q-38 38 10 74l363 270q22 15 37 15t30 -15l287 -270q39 -36 -8 -74l-113 -98q-44 -36 -75 2zM53 459q0 144 50 265t134 201t193.5 124.5t228.5 44.5q106 0 192 -36t143 -105t78.5 -169t-1.5 -227 q-9 -58 -24 -78t-46 -20h-550q0 -80 45.5 -132.5t134.5 -52.5q97 0 172 56q40 25 57 -11l88 -155q22 -36 -12 -62q-65 -52 -168 -90.5t-227 -38.5q-219 0 -353.5 131.5t-134.5 354.5zM477 643l266 2q9 67 -22.5 108.5t-87.5 41.5q-57 0 -102 -43t-54 -109z" />
<glyph unicode="&#xeb;" horiz-adv-x="1128" d="M446 1210q-71 0 -117 46t-46 116q0 85 65.5 148t151.5 63q68 0 115 -49t47 -119q0 -84 -66 -144.5t-150 -60.5zM934 1210q-70 0 -116 46.5t-46 115.5q0 84 65 147.5t150 63.5q70 0 117 -49t47 -119q0 -85 -65.5 -145t-151.5 -60zM53 459q0 144 50 265t134 201 t193.5 124.5t228.5 44.5q106 0 192 -36t143 -105t78.5 -169t-1.5 -227q-9 -58 -24 -78t-46 -20h-550q0 -80 45.5 -132.5t134.5 -52.5q97 0 172 56q40 25 57 -11l88 -155q22 -36 -12 -62q-65 -52 -168 -90.5t-227 -38.5q-219 0 -353.5 131.5t-134.5 354.5zM477 643l266 2 q9 67 -22.5 108.5t-87.5 41.5q-57 0 -102 -43t-54 -109z" />
<glyph unicode="&#xec;" horiz-adv-x="612" d="M373 1214l-320 267q-35 33 4 75l121 123q41 45 76 4l283 -303q16 -18 13 -33t-24 -36l-77 -80q-23 -24 -39 -28.5t-37 11.5zM88 0q-55 0 -47 55l135 957q9 55 62 55h284q56 0 47 -55l-135 -957q-8 -55 -61 -55h-285z" />
<glyph unicode="&#xed;" horiz-adv-x="583" d="M360 1212q-27 -16 -42 -11.5t-31 28.5l-58 80q-14 20 -11.5 36t22.5 33l368 303q46 40 76 -4l84 -123q29 -43 -14 -75zM39 0q-28 0 -39 13t-8 42l135 957q9 55 61 55h285q55 0 49 -55l-137 -957q-6 -55 -61 -55h-285z" />
<glyph unicode="&#xee;" horiz-adv-x="649" d="M446 1401l-213 -182q-23 -19 -38 -20.5t-35 18.5l-86 98q-38 38 10 74l362 270q40 28 68 0l287 -270q39 -36 -8 -74l-113 -98q-45 -37 -76 2zM106 0q-55 0 -47 55l136 957q9 55 61 55h285q56 0 47 -55l-135 -957q-6 -55 -62 -55h-285z" />
<glyph unicode="&#xef;" horiz-adv-x="643" d="M170 1208q-72 0 -118 46t-46 116q0 85 65.5 148t151.5 63q68 0 115 -49t47 -119q0 -84 -65.5 -144.5t-149.5 -60.5zM657 1208q-70 0 -115.5 46.5t-45.5 115.5q0 84 65 147.5t150 63.5q70 0 116.5 -49t46.5 -119q0 -85 -65.5 -145t-151.5 -60zM102 0q-55 0 -47 55l135 957 q9 55 62 55h285q56 0 47 -55l-135 -957q-6 -55 -62 -55h-285z" />
<glyph unicode="&#xf0;" horiz-adv-x="1236" d="M997 1346q205 -202 205 -553q0 -246 -84.5 -432t-241 -287t-364.5 -101q-217 0 -343 117t-126 318q0 121 48 223.5t126 168t173.5 102t193.5 36.5q46 0 87.5 -8.5t67 -21t44 -25t26.5 -21.5l8 -8q8 49 -21.5 117.5t-86.5 126.5l-121 -105q-11 -10 -20.5 -9t-22.5 15 l-64 68q-25 27 0 49l86 76q-66 27 -131 27q-55 0 -47 53l29 209q4 31 19.5 43t49.5 12q209 0 375 -90l123 108q20 17 43 -12l62 -65q25 -27 2 -50zM561 276q83 0 140 70t67 193q-4 12 -13.5 26.5t-27.5 33.5t-49 31.5t-70 12.5q-83 0 -135.5 -58.5t-52.5 -150.5 q0 -72 37.5 -115t103.5 -43z" />
<glyph unicode="&#xf1;" horiz-adv-x="1243" d="M1208 1438q28 -22 -2 -60q-133 -157 -288 -157q-60 0 -110.5 21.5t-94 43t-84.5 21.5q-74 0 -133 -64q-28 -31 -58 -8l-94 65q-14 10 -14 27t14 31q137 166 291 166q56 0 105.5 -21.5t93 -43t86.5 -21.5q71 0 131 65q29 29 59 6zM823 1094q80 0 147.5 -27t116 -78.5 t69.5 -133.5t7 -183l-86 -617q-8 -55 -63 -55h-285q-28 0 -39 13t-8 42l84 586q10 72 -22 114t-91 42q-81 0 -153 -72l-94 -670q-8 -55 -64 -55h-283q-29 0 -40 13t-7 42l135 957q6 55 62 55h283q58 0 49 -55l-4 -23q125 105 286 105z" />
<glyph unicode="&#xf2;" horiz-adv-x="1204" d="M702 1214l-319 267q-35 33 4 75l121 123q41 45 76 4l282 -303q30 -30 -10 -69l-78 -80q-23 -24 -39 -28.5t-37 11.5zM532 -27q-229 0 -353 127.5t-124 366.5q0 281 168.5 454t444.5 173q230 0 354.5 -128t124.5 -364q0 -283 -169 -456t-446 -173zM573 274q81 0 131 86 t50 224q0 207 -127 207q-80 0 -129 -84.5t-49 -223.5q0 -209 124 -209z" />
<glyph unicode="&#xf3;" horiz-adv-x="1204" d="M692 1212q-27 -16 -42.5 -11.5t-31.5 28.5l-57 80q-26 39 10 69l369 303q46 40 76 -4l84 -123q29 -42 -15 -75zM532 -27q-229 0 -353 127.5t-124 366.5q0 281 168.5 454t444.5 173q230 0 354.5 -128t124.5 -364q0 -283 -169 -456t-446 -173zM573 274q81 0 131 86t50 224 q0 207 -127 207q-80 0 -129 -84.5t-49 -223.5q0 -209 124 -209z" />
<glyph unicode="&#xf4;" horiz-adv-x="1204" d="M725 1403l-213 -182q-23 -19 -38.5 -20.5t-35.5 18.5l-86 98q-38 38 10 74l363 270q40 28 68 0l286 -270q39 -36 -8 -74l-113 -98q-44 -36 -75 2zM532 -27q-229 0 -353 127.5t-124 366.5q0 281 168.5 454t444.5 173q230 0 354.5 -128t124.5 -364q0 -283 -169 -456 t-446 -173zM573 274q81 0 131 86t50 224q0 207 -127 207q-80 0 -129 -84.5t-49 -223.5q0 -209 124 -209z" />
<glyph unicode="&#xf5;" horiz-adv-x="1204" d="M864 1221q-60 0 -110.5 21.5t-94 43t-84.5 21.5q-74 0 -133 -64q-28 -31 -57 -8l-94 65q-13 10 -13 27t13 31q137 166 291 166q56 0 105 -21.5t92.5 -43t86.5 -21.5q71 0 131 65q30 30 60 6l98 -71q28 -22 -2 -60q-133 -157 -289 -157zM532 -27q-229 0 -353 127.5 t-124 366.5q0 281 168.5 454t444.5 173q230 0 354.5 -128t124.5 -364q0 -283 -169 -456t-446 -173zM573 274q81 0 131 86t50 224q0 207 -127 207q-80 0 -129 -84.5t-49 -223.5q0 -209 124 -209z" />
<glyph unicode="&#xf6;" horiz-adv-x="1204" d="M453 1210q-71 0 -117.5 46t-46.5 116q0 85 65.5 148t151.5 63q68 0 115 -49t47 -119q0 -84 -65.5 -144.5t-149.5 -60.5zM940 1210q-70 0 -116 46.5t-46 115.5q0 84 65 147.5t150 63.5q70 0 117 -49t47 -119q0 -85 -65.5 -145t-151.5 -60zM532 -27q-229 0 -353 127.5 t-124 366.5q0 281 168.5 454t444.5 173q230 0 354.5 -128t124.5 -364q0 -283 -169 -456t-446 -173zM573 274q81 0 131 86t50 224q0 207 -127 207q-80 0 -129 -84.5t-49 -223.5q0 -209 124 -209z" />
<glyph unicode="&#xf7;" horiz-adv-x="1038" d="M414 1180q0 92 66.5 157.5t156.5 65.5q74 0 123 -50.5t49 -123.5q0 -90 -68 -153.5t-159 -63.5q-73 0 -120.5 48.5t-47.5 119.5zM129 627q-56 0 -47 55l20 160q9 55 64 55h807q56 0 47 -55l-23 -160q-6 -55 -61 -55h-807zM289 291q0 90 66.5 155.5t156.5 65.5 q74 0 123 -50.5t49 -123.5q0 -90 -67.5 -153.5t-159.5 -63.5q-73 0 -120.5 48.5t-47.5 121.5z" />
<glyph unicode="&#xf8;" horiz-adv-x="1210" d="M1190 1114q27 0 30 -15.5t-20 -41.5l-131 -150q78 -119 78 -305q0 -283 -169 -456t-446 -173q-137 0 -237 47l-16 -18q-40 -45 -76 -45h-172q-27 0 -31.5 15.5t18.5 41.5l119 138q-82 124 -82 315q0 281 168.5 454t444.5 173q143 0 250 -52l24 27q21 26 40.5 35.5 t47.5 9.5h160zM645 840q-95 0 -158 -88t-67 -279l301 344q-29 23 -76 23zM563 219q95 0 158.5 89.5t69.5 279.5l-304 -346q33 -23 76 -23z" />
<glyph unicode="&#xf9;" horiz-adv-x="1218" d="M377 1481q-35 33 4 75l121 123q41 45 76 4l282 -303q30 -30 -10 -69l-78 -80q-23 -24 -39 -28.5t-37 11.5zM1128 1067q59 0 50 -55l-136 -957q-8 -55 -63 -55h-283q-29 0 -40 13t-7 42l2 15q-106 -97 -262 -97q-80 0 -148 27t-116.5 78t-69.5 133t-6 184l86 617 q9 55 64 55h282q56 0 47 -55l-82 -586q-10 -73 21 -114.5t90 -41.5q81 0 131 64l96 678q6 55 62 55h282z" />
<glyph unicode="&#xfa;" horiz-adv-x="1218" d="M612 1229l-57 80q-26 39 10 69l369 303q46 40 76 -4l84 -123q29 -42 -15 -75l-393 -267q-27 -16 -42.5 -11.5t-31.5 28.5zM1128 1067q59 0 50 -55l-136 -957q-8 -55 -63 -55h-283q-29 0 -40 13t-7 42l2 15q-106 -97 -262 -97q-80 0 -148 27t-116.5 78t-69.5 133t-6 184 l86 617q9 55 64 55h282q56 0 47 -55l-82 -586q-10 -73 21 -114.5t90 -41.5q81 0 131 64l96 678q6 55 62 55h282z" />
<glyph unicode="&#xfb;" horiz-adv-x="1218" d="M432 1219l-86 98q-38 38 10 74l363 270q22 15 37 15t30 -15l287 -270q39 -36 -8 -74l-113 -98q-44 -36 -75 2l-158 182l-213 -182q-23 -19 -38.5 -20.5t-35.5 18.5zM1128 1067q59 0 50 -55l-136 -957q-8 -55 -63 -55h-283q-29 0 -40 13t-7 42l2 15q-106 -97 -262 -97 q-80 0 -148 27t-116.5 78t-69.5 133t-6 184l86 617q9 55 64 55h282q56 0 47 -55l-82 -586q-10 -73 21 -114.5t90 -41.5q81 0 131 64l96 678q6 55 62 55h282z" />
<glyph unicode="&#xfc;" horiz-adv-x="1218" d="M446 1210q-71 0 -117 46t-46 116q0 85 65.5 148t151.5 63q68 0 115 -49t47 -119q0 -84 -66 -144.5t-150 -60.5zM934 1210q-70 0 -116 46.5t-46 115.5q0 84 65 147.5t150 63.5q70 0 117 -49t47 -119q0 -85 -65.5 -145t-151.5 -60zM1128 1067q59 0 50 -55l-136 -957 q-8 -55 -63 -55h-283q-29 0 -40 13t-7 42l2 15q-106 -97 -262 -97q-80 0 -148 27t-116.5 78t-69.5 133t-6 184l86 617q9 55 64 55h282q56 0 47 -55l-82 -586q-10 -73 21 -114.5t90 -41.5q81 0 131 64l96 678q6 55 62 55h282z" />
<glyph unicode="&#xfd;" horiz-adv-x="1193" d="M707 1212q-27 -16 -42.5 -11.5t-31.5 28.5l-58 80q-14 20 -11.5 36t22.5 33l368 303q46 40 76 -4l84 -123q29 -43 -14 -75zM102 -580q-158 0 -264 68q-36 21 -12 68l108 186q23 41 58 25q56 -25 106 -25q62 0 103 34t73 95l68 131l-225 1012q-6 25 9 39t42 14h285 q47 0 53 -43l86 -647l268 647q19 43 66 43h282q25 0 37.5 -14t1.5 -39l-610 -1207q-100 -193 -229 -290t-306 -97z" />
<glyph unicode="&#xfe;" horiz-adv-x="1269" d="M20 -512q-53 0 -47 55l273 1938q9 55 61 55h285q56 0 47 -55l-70 -510q4 4 12 11.5t35.5 26t58 33t79 26t98.5 11.5q169 0 268 -119.5t99 -326.5q0 -183 -68 -332t-190 -235t-273 -86q-48 0 -91 10.5t-70 26t-47.5 31t-29.5 26.5l-8 10l-75 -541q-6 -55 -62 -55h-285z M606 283q101 0 163 81t62 214q0 95 -40 147.5t-109 52.5q-25 0 -50 -7.5t-42.5 -18t-31.5 -21.5t-21 -19l-7 -7l-51 -369q5 -6 15 -15t43 -23.5t69 -14.5z" />
<glyph unicode="&#xff;" horiz-adv-x="1193" d="M467 1210q-71 0 -117.5 46t-46.5 116q0 85 65.5 148t151.5 63q68 0 115 -49t47 -119q0 -84 -65.5 -144.5t-149.5 -60.5zM954 1210q-70 0 -115.5 46.5t-45.5 115.5q0 84 65 147.5t150 63.5q70 0 116.5 -49t46.5 -119q0 -85 -65.5 -145t-151.5 -60zM102 -580 q-158 0 -264 68q-36 21 -12 68l108 186q23 41 58 25q56 -25 106 -25q62 0 103 34t73 95l68 131l-225 1012q-6 25 9 39t42 14h285q47 0 53 -43l86 -647l268 647q19 43 66 43h282q25 0 37.5 -14t1.5 -39l-610 -1207q-100 -193 -229 -290t-306 -97z" />
<glyph unicode="&#x152;" horiz-adv-x="2174" d="M2157 1536q55 0 49 -55l-31 -213q-9 -56 -64 -56h-489l-37 -262h408q56 0 47 -53l-27 -207q-9 -55 -63 -55h-408l-45 -311h510q56 0 47 -56l-29 -213q-9 -55 -63 -55h-866q-39 0 -45 29q-145 -56 -324 -56q-307 0 -469 176.5t-162 499.5q0 274 99 480.5t287 320 t442 113.5q187 0 327 -70q15 43 60 43h846zM774 295q170 0 262 153.5t92 419.5q0 373 -247 373q-171 0 -265 -154t-94 -419q0 -184 63.5 -278.5t188.5 -94.5z" />
<glyph unicode="&#x153;" horiz-adv-x="1820" d="M1352 1094q106 0 192 -36t142.5 -105t78 -169t-1.5 -227q-9 -58 -24 -78t-45 -20h-551q0 -80 45.5 -132.5t134.5 -52.5q97 0 172 56q40 25 57 -11l88 -155q22 -36 -12 -62q-65 -52 -168 -90.5t-227 -38.5q-199 0 -330 109q-156 -109 -371 -109q-229 0 -353 127.5 t-124 366.5q0 281 168.5 454t444.5 173q212 0 336 -109q156 109 348 109zM1436 645q9 67 -23 108.5t-88 41.5q-57 0 -102 -43t-54 -109zM573 274q65 0 111 56.5t61 152.5q3 45 9 86v15q0 207 -127 207q-80 0 -129 -84.5t-49 -223.5q0 -209 124 -209z" />
<glyph unicode="&#x178;" horiz-adv-x="1294" d="M563 1661q-71 0 -117.5 46.5t-46.5 115.5q0 85 65.5 148t151.5 63q68 0 115 -49t47 -119q0 -84 -65.5 -144.5t-149.5 -60.5zM1051 1661q-70 0 -116 46.5t-46 115.5q0 84 65 147.5t150 63.5q70 0 117 -49t47 -119q0 -85 -65.5 -145t-151.5 -60zM1018 1493q27 43 69 43h302 q31 0 38 -16.5t-10 -42.5l-549 -828l-82 -594q-9 -55 -63 -55h-301q-56 0 -47 55l84 594l-316 832q-21 55 39 55h305q48 0 60 -43l164 -504z" />
<glyph unicode="&#x2c6;" horiz-adv-x="1036" d="M733 1577l-213 -182q-23 -19 -38.5 -20.5t-35.5 18.5l-86 98q-17 17 -14.5 37t25.5 37l362 270q40 28 68 0l286 -270q39 -36 -8 -74l-112 -98q-45 -37 -76 2z" />
<glyph unicode="&#x2dc;" horiz-adv-x="1052" d="M827 1473q-49 0 -93 14t-71 31t-63 31t-70 14q-76 0 -139 -68q-28 -30 -59 -8l-96 67q-15 12 -14.5 29.5t14.5 32.5q143 172 301 172q58 0 108.5 -22.5t95.5 -45t88 -22.5q76 0 138 67q29 31 61 9l100 -76q32 -23 -2 -62q-135 -163 -299 -163z" />
<glyph unicode="&#x2000;" horiz-adv-x="1085" />
<glyph unicode="&#x2001;" horiz-adv-x="2171" />
<glyph unicode="&#x2002;" horiz-adv-x="1085" />
<glyph unicode="&#x2003;" horiz-adv-x="2171" />
<glyph unicode="&#x2004;" horiz-adv-x="723" />
<glyph unicode="&#x2005;" horiz-adv-x="542" />
<glyph unicode="&#x2006;" horiz-adv-x="361" />
<glyph unicode="&#x2007;" horiz-adv-x="361" />
<glyph unicode="&#x2008;" horiz-adv-x="271" />
<glyph unicode="&#x2009;" horiz-adv-x="434" />
<glyph unicode="&#x200a;" horiz-adv-x="120" />
<glyph unicode="&#x2010;" horiz-adv-x="862" d="M94 420q-49 0 -43 55l25 164q6 55 57 55h639q52 0 43 -55l-22 -164q-9 -55 -58 -55h-641z" />
<glyph unicode="&#x2011;" horiz-adv-x="862" d="M94 420q-49 0 -43 55l25 164q6 55 57 55h639q52 0 43 -55l-22 -164q-9 -55 -58 -55h-641z" />
<glyph unicode="&#x2012;" horiz-adv-x="862" d="M94 420q-49 0 -43 55l25 164q6 55 57 55h639q52 0 43 -55l-22 -164q-9 -55 -58 -55h-641z" />
<glyph unicode="&#x2013;" horiz-adv-x="1290" d="M98 420q-53 0 -47 53l23 166q9 55 63 55h1059q56 0 47 -55l-22 -166q-9 -53 -64 -53h-1059z" />
<glyph unicode="&#x2014;" horiz-adv-x="1556" d="M98 420q-53 0 -47 53l23 166q9 55 63 55h1325q56 0 47 -55l-22 -166q-9 -53 -64 -53h-1325z" />
<glyph unicode="&#x2018;" horiz-adv-x="522" d="M530 1053q0 -96 -63.5 -162t-159.5 -66q-74 0 -123 48t-49 135q0 118 92.5 273.5t202.5 262.5q35 35 55 19l70 -56q23 -18 -4 -53q-5 -6 -28 -32.5t-39 -47t-36 -48.5t-31 -52t-11 -41q0 -11 5.5 -19t10 -11t14.5 -9q94 -38 94 -141z" />
<glyph unicode="&#x2019;" horiz-adv-x="518" d="M174 1337q0 96 63.5 162t159.5 66q74 0 123 -48t49 -135q0 -118 -92.5 -273.5t-202.5 -262.5q-35 -35 -55 -19l-69 56q-23 18 4 53q5 6 28 32.5t39 47t36 48.5t31 52t11 41q0 11 -6 19t-10 11t-15 9q-94 38 -94 141z" />
<glyph unicode="&#x201a;" horiz-adv-x="514" d="M6 147q0 96 63.5 162t159.5 66q74 0 123 -47.5t49 -134.5q0 -118 -92.5 -274t-202.5 -263q-34 -34 -55 -18l-69 55q-23 18 4 53q5 6 28 32.5t39 47t36 48.5t31 52t11 41q0 11 -6 19t-10 11t-15 9q-94 38 -94 141z" />
<glyph unicode="&#x201c;" horiz-adv-x="985" d="M526 1049q0 -96 -63.5 -162t-159.5 -66q-74 0 -123 48t-49 135q0 118 92.5 273.5t202.5 262.5q35 35 55 19l70 -56q23 -18 -4 -53q-5 -6 -28 -32.5t-39.5 -47.5t-36.5 -48.5t-31 -51.5t-11 -41q0 -11 6 -19t10 -11t15 -9q94 -38 94 -141zM989 1049q0 -96 -63.5 -162 t-159.5 -66q-74 0 -123 48t-49 135q0 118 92.5 273.5t202.5 262.5q35 35 55 19l70 -56q23 -18 -4 -53q-5 -6 -28 -32.5t-39.5 -47.5t-36.5 -48.5t-31 -51.5t-11 -41q0 -11 6 -19t10 -11t15 -9q94 -38 94 -141z" />
<glyph unicode="&#x201d;" horiz-adv-x="978" d="M174 1337q0 96 63.5 162t159.5 66q74 0 123 -48t49 -135q0 -118 -92.5 -273.5t-202.5 -262.5q-35 -35 -55 -19l-69 56q-23 18 4 53q5 6 28 32.5t39 47t36 48.5t31 52t11 41q0 11 -6 19t-10 11t-15 9q-94 38 -94 141zM635 1337q0 96 63.5 162t159.5 66q74 0 123 -48 t49 -135q0 -118 -92.5 -273.5t-202.5 -262.5q-35 -35 -55 -19l-70 56q-23 18 4 53q5 6 28 32.5t39.5 47.5t36.5 48.5t31 51.5t11 41q0 11 -6 19t-10 11t-15 9q-94 38 -94 141z" />
<glyph unicode="&#x201e;" horiz-adv-x="983" d="M4 137q0 96 63.5 162t159.5 66q74 0 123 -48t49 -135q0 -118 -92.5 -273.5t-202.5 -262.5q-35 -35 -55 -19l-69 56q-23 18 4 53q5 6 28 32.5t39 47t36 48.5t31 52t11 41q0 11 -6 19t-10 11t-15 9q-94 38 -94 141zM469 137q0 96 63.5 162t159.5 66q74 0 123 -48t49 -135 q0 -118 -92.5 -273.5t-202.5 -262.5q-35 -35 -55 -19l-70 56q-23 18 5 53q5 6 28 32.5t39 47t36 48.5t31 52t11 41q0 11 -6 19t-10 11t-15 9q-94 38 -94 141z" />
<glyph unicode="&#x2022;" horiz-adv-x="657" d="M51 688q0 136 104.5 236t241.5 100q113 0 186.5 -76.5t73.5 -189.5q0 -135 -103 -233.5t-241 -98.5q-114 0 -188 74.5t-74 187.5z" />
<glyph unicode="&#x2026;" horiz-adv-x="1558" d="M8 152q0 91 66 157t155 66q75 0 124.5 -50.5t49.5 -123.5q0 -90 -68 -153.5t-159 -63.5q-74 0 -121 48t-47 120zM530 152q0 91 67 157t157 66q74 0 123 -50.5t49 -123.5q0 -89 -68.5 -153t-159.5 -64q-73 0 -120.5 48.5t-47.5 119.5zM1055 152q0 92 66.5 157.5 t156.5 65.5q74 0 123 -50.5t49 -123.5q0 -90 -68 -153.5t-159 -63.5q-73 0 -120.5 48.5t-47.5 119.5z" />
<glyph unicode="&#x202f;" horiz-adv-x="434" />
<glyph unicode="&#x2039;" horiz-adv-x="585" d="M51 489q-33 36 10 74l474 395q24 17 37.5 10t11.5 -24l-31 -219q-3 -45 -45 -74l-152 -123l117 -127q30 -32 23 -75l-29 -220q-2 -16 -17 -23t-36 11z" />
<glyph unicode="&#x203a;" horiz-adv-x="583" d="M573 489l-473 -395q-16 -13 -28.5 -13t-17.5 8t-3 17l33 220q3 41 43 75l154 127l-119 123q-32 28 -23 74l31 219q2 17 17 24t36 -10l361 -395q35 -37 -11 -74z" />
<glyph unicode="&#x205f;" horiz-adv-x="542" />
<glyph unicode="&#x20ac;" horiz-adv-x="1314" d="M1370 1386q22 -26 -2 -53l-162 -180q-27 -27 -61 0q-101 88 -223 88q-104 0 -184.5 -57t-131.5 -160h391q56 0 47 -53l-12 -94q-9 -56 -63 -56h-420q-6 -32 -10 -94h417q54 0 48 -55l-13 -94q-9 -54 -63 -54h-375q51 -227 252 -227q113 0 225 72q38 23 57 -13l103 -184 q19 -31 -12 -53q-79 -60 -200.5 -103t-266.5 -43q-253 0 -408.5 147t-185.5 404h-76q-56 0 -47 54l12 94q9 55 62 55h45q10 86 12 94h-43q-56 0 -47 56l12 94q9 53 64 53h65q91 250 288.5 396.5t446.5 146.5q88 0 166.5 -18.5t135 -48t93.5 -57.5t64 -57z" />
<glyph unicode="&#x2122;" horiz-adv-x="1345" d="M197 1505q3 31 32 31h408q30 0 27 -31l-17 -114q-7 -31 -35 -31h-112l-54 -371q-3 -35 -36 -35h-117q-30 0 -27 35l53 371h-112q-30 0 -27 31zM940 954q-21 0 -27 27l-55 250l-57 -242q-3 -14 -14.5 -24.5t-24.5 -10.5h-121q-24 0 -18 33l137 518q8 31 37 31h100 q29 0 35 -29l80 -325l174 325q13 29 39 29h100q14 0 22.5 -9t8.5 -22l-8 -518q0 -13 -8 -23t-21 -10h-121q-29 0 -29 35l11 242l-125 -250q-12 -27 -37 -27h-78z" />
<glyph unicode="&#x25fc;" horiz-adv-x="1064" d="M0 1065h1065v-1065h-1065v1065z" />
<glyph unicode="&#xfb01;" horiz-adv-x="1400" d="M154 0q-54 0 -48 55l105 725h-96q-53 0 -47 56l26 176q6 55 62 55h94l12 86q35 238 216.5 385.5t434.5 147.5q297 0 449 -216q14 -18 19 -30.5t0.5 -26t-21.5 -27.5l-162 -141q-24 -21 -39 -22.5t-33 16.5q-3 3 -21.5 24.5t-36 38t-45 37t-61.5 32t-71 11.5 q-92 0 -157.5 -66.5t-80.5 -176.5l-10 -72h680q56 0 47 -55l-135 -957q-8 -55 -61 -55h-285q-29 0 -40 13t-7 42l102 725h-340l-102 -725q-9 -55 -64 -55h-284z" />
<glyph unicode="&#xfb02;" horiz-adv-x="1595" d="M154 0q-54 0 -48 55l105 725h-96q-53 0 -47 56l26 176q6 55 62 55h92l12 86q35 239 212 386t427 147q235 0 389 -150l86 51q29 17 52 3t18 -46l-146 -1034q-13 -88 28.5 -147.5t127.5 -59.5h8q52 0 43 -55l-26 -193q-6 -55 -62 -55h-86q-235 0 -347.5 132t-78.5 368 l39 280h-340l-102 -725q-9 -55 -64 -55h-284zM643 1067h340l41 285q-48 30 -109 30q-106 0 -177 -68t-85 -175z" />
<glyph unicode="&#xfb03;" horiz-adv-x="2131" d="M68 836l26 176q6 55 62 55h88l8 53q18 139 96.5 248.5t195.5 168t251 58.5q61 0 116.5 -13.5t100.5 -38t67 -39.5t51 -38q7 9 20.5 24t60.5 52.5t101 66.5t140.5 53t179.5 24q74 0 142 -15.5t116.5 -38t90.5 -53t67 -56.5t45 -53t20.5 -43.5t-22.5 -40.5l-149 -126 q-46 -40 -72 -7q-119 129 -240 129q-96 0 -165.5 -67t-82.5 -176l-10 -72h680q56 0 47 -55l-135 -957q-6 -55 -61 -55h-285q-55 0 -47 55l102 725h-340l-102 -725q-9 -55 -62 -55h-284q-56 0 -47 55l102 725h-342l-102 -725q-9 -55 -62 -55h-284q-57 0 -48 55l103 725h-90 q-53 0 -47 56zM639 1067h340l22 147q-2 3 -6.5 8.5t-20 19.5t-32.5 24.5t-44 19t-56 8.5q-77 0 -131 -48.5t-66 -127.5z" />
<glyph unicode="&#xfb04;" horiz-adv-x="2326" d="M68 836l26 176q6 55 62 55h88l8 53q18 139 97.5 248.5t197.5 168t252 58.5q61 0 115.5 -13t99.5 -38.5t65 -39t51 -38.5q7 9 20 24t60.5 52.5t101 66.5t141 53t181.5 24q233 0 394 -144l77 45q29 17 52 3t18 -46l-143 -1034q-13 -89 27 -148t126 -59h8q51 0 45 -55 l-28 -193q-6 -55 -62 -55h-86q-234 0 -346 131.5t-80 368.5l39 280h-342l-102 -725q-9 -55 -62 -55h-284q-56 0 -47 55l102 725h-342l-102 -725q-9 -55 -62 -55h-284q-57 0 -48 55l103 725h-90q-53 0 -47 56zM1372 1067h340l39 281q-50 34 -119 34q-98 0 -167.5 -67 t-82.5 -176zM639 1067h340l22 145q-2 3 -6.5 8.5t-19 20t-31 25t-43 19.5t-55.5 9q-78 0 -133.5 -48.5t-67.5 -127.5z" />
</font>
</defs>
</svg>
